M48
;Layer_Color=9474304
;FILE_FORMAT=4:4
METRIC,LZ
T2F00S00C0.2540
%
G90
G05
T02
G00X0044233Y00098035
M15
G01X0044233Y0010373
G01X0035987Y0010373
G01X0035987Y00098035
G01X00368222Y0008727
G01X00433978Y0008727
G01X0044233Y00098035
M16
G00X00113167Y00116517
M15
G01X00116805Y00117491
G01X00120284Y00118933
G01X00123546Y00120816
G01X00126534Y00123108
G01X00129197Y00125771
G01X00131489Y00128759
G01X00133372Y00132021
G01X00134814Y001355
G01X00135788Y00139138
G01X0013628Y00142872
G01X0013628Y00146638
G01X00135788Y00150372
G01X00134814Y0015401
G01X00133372Y00157489
G01X00131489Y00160751
G01X00129197Y00163739
G01X00126534Y00166402
G01X00123546Y00168694
G01X00120284Y00170577
G01X00116805Y00172019
G01X00113167Y00172993
G01X00109433Y00173485
G01X00105667Y00173485
G01X00101933Y00172993
G01X00098295Y00172019
G01X00094816Y00170577
G01X00091554Y00168694
G01X00088566Y00166402
G01X00085903Y00163739
G01X00083611Y00160751
G01X00081728Y00157489
G01X00080286Y0015401
G01X00079312Y00150372
G01X0007882Y00146638
G01X0007882Y00142872
G01X00079312Y00139138
G01X00080286Y001355
G01X00081728Y00132021
G01X00083611Y00128759
G01X00085903Y00125771
G01X00088566Y00123108
G01X00091554Y00120816
G01X00094816Y00118933
G01X00098295Y00117491
G01X00101933Y00116517
G01X00105667Y00116025
G01X00109433Y00116025
G01X00113167Y00116517
M16
G00X00621133Y00130253
M15
G01X00624105Y00131484
G01X0062678Y00133271
G01X00629054Y00135545
G01X00630841Y0013822
G01X00632072Y00141192
G01X006327Y00144347
G01X006327Y00147563
G01X00632072Y00150718
G01X00630841Y0015369
G01X00629054Y00156365
G01X0062678Y00158639
G01X00624105Y00160426
G01X00621133Y00161657
G01X00617978Y00162285
G01X00614762Y00162285
G01X00611607Y00161657
G01X00608635Y00160426
G01X0060596Y00158639
G01X00603686Y00156365
G01X00601899Y0015369
G01X00600668Y00150718
G01X0060004Y00147563
G01X0060004Y00144347
G01X00600668Y00141192
G01X00601899Y0013822
G01X00603686Y00135545
G01X0060596Y00133271
G01X00608635Y00131484
G01X00611607Y00130253
G01X00614762Y00129625
G01X00617978Y00129625
G01X00621133Y00130253
M16
G00X00525467Y00117717
M15
G01X00529105Y00118691
G01X00532584Y00120133
G01X00535846Y00122016
G01X00538834Y00124308
G01X00541497Y00126971
G01X00543789Y00129959
G01X00545672Y00133221
G01X00547114Y001367
G01X00548088Y00140338
G01X0054858Y00144072
G01X0054858Y00147838
G01X00548088Y00151572
G01X00547114Y0015521
G01X00545672Y00158689
G01X00543789Y00161951
G01X00541497Y00164939
G01X00538834Y00167602
G01X00535846Y00169894
G01X00532584Y00171777
G01X00529105Y00173219
G01X00525467Y00174193
G01X00521733Y00174685
G01X00517967Y00174685
G01X00514233Y00174193
G01X00510595Y00173219
G01X00507116Y00171777
G01X00503854Y00169894
G01X00500866Y00167602
G01X00498203Y00164939
G01X00495911Y00161951
G01X00494028Y00158689
G01X00492586Y0015521
G01X00491612Y00151572
G01X0049112Y00147838
G01X0049112Y00144072
G01X00491612Y00140338
G01X00492586Y001367
G01X00494028Y00133221
G01X00495911Y00129959
G01X00498203Y00126971
G01X00500866Y00124308
G01X00503854Y00122016
G01X00507116Y00120133
G01X00510595Y00118691
G01X00514233Y00117717
G01X00517967Y00117225
G01X00521733Y00117225
G01X00525467Y00117717
M16
G00X00233167Y00116517
M15
G01X00236805Y00117491
G01X00240284Y00118933
G01X00243546Y00120816
G01X00246534Y00123108
G01X00249197Y00125771
G01X00251489Y00128759
G01X00253372Y00132021
G01X00254814Y001355
G01X00255788Y00139138
G01X0025628Y00142872
G01X0025628Y00146638
G01X00255788Y00150372
G01X00254814Y0015401
G01X00253372Y00157489
G01X00251489Y00160751
G01X00249197Y00163739
G01X00246534Y00166402
G01X00243546Y00168694
G01X00240284Y00170577
G01X00236805Y00172019
G01X00233167Y00172993
G01X00229433Y00173485
G01X00225667Y00173485
G01X00221933Y00172993
G01X00218295Y00172019
G01X00214816Y00170577
G01X00211554Y00168694
G01X00208566Y00166402
G01X00205903Y00163739
G01X00203611Y00160751
G01X00201728Y00157489
G01X00200286Y0015401
G01X00199312Y00150372
G01X0019882Y00146638
G01X0019882Y00142872
G01X00199312Y00139138
G01X00200286Y001355
G01X00201728Y00132021
G01X00203611Y00128759
G01X00205903Y00125771
G01X00208566Y00123108
G01X00211554Y00120816
G01X00214816Y00118933
G01X00218295Y00117491
G01X00221933Y00116517
G01X00225667Y00116025
G01X00229433Y00116025
G01X00233167Y00116517
M16
G00X00014979Y-00001272
M15
G01X00733058Y-00001272
G01X00733224Y-00001321
G01X00736387Y-00000985
G01X00739422Y-00000039
G01X00742215Y00001482
G01X00744658Y00003518
G01X00746656Y00005992
G01X00748134Y00008808
G01X00749034Y00011858
G01X00749321Y00014776
G01X0074927Y00014914
G01X00749264Y00275012
G01X00749326Y00275224
G01X0074899Y00278387
G01X00748044Y00281423
G01X00746523Y00284215
G01X00744487Y00286658
G01X00742013Y00288656
G01X00739197Y00290134
G01X00736147Y00291034
G01X00733229Y00291321
G01X00733086Y00291268
G01X000153Y00291268
G01X00014796Y00291416
G01X00011633Y0029108
G01X00008597Y00290134
G01X00005805Y00288613
G01X00003362Y00286577
G01X00001364Y00284103
G01X-00000114Y00281288
G01X-00001014Y00278237
G01X-00001285Y00274958
G01X-0000127Y0027488
G01X-0000127Y0001489
G01X-00001265Y0001489
G01X-00001291Y00014761
G01X-00000955Y00011598
G01X-00000009Y00008563
G01X00001512Y0000577
G01X00003548Y00003327
G01X00006022Y00001329
G01X00008837Y-00000149
G01X00011888Y-00001049
G01X00014806Y-00001336
G01X00014979Y-00001272
M16
M17
M30
