G04*
G04 #@! TF.GenerationSoftware,Altium Limited,Altium Designer,20.0.10 (225)*
G04*
G04 Layer_Physical_Order=1*
G04 Layer_Color=255*
%FSLAX44Y44*%
%MOMM*%
G71*
G01*
G75*
%ADD10C,0.2000*%
%ADD12C,0.2540*%
%ADD13C,3.5000*%
G36*
X14920Y289998D02*
X733100Y289998D01*
X733105Y289985D01*
X734571D01*
X737447Y289413D01*
X740156Y288291D01*
X742594Y286662D01*
X744667Y284589D01*
X746296Y282151D01*
X747418Y279442D01*
X747990Y276566D01*
Y275100D01*
X748000Y275000D01*
Y14900D01*
X747985D01*
Y13434D01*
X747413Y10558D01*
X746291Y7849D01*
X744662Y5411D01*
X742589Y3338D01*
X740151Y1709D01*
X737442Y587D01*
X734566Y15D01*
X733100D01*
Y15D01*
X733083Y-2D01*
X14930D01*
Y0D01*
X13464D01*
X10588Y572D01*
X7879Y1694D01*
X5441Y3323D01*
X3368Y5396D01*
X1739Y7834D01*
X617Y10543D01*
X45Y13419D01*
Y14885D01*
X0Y14890D01*
Y275000D01*
X35Y275195D01*
Y276661D01*
X607Y279537D01*
X1729Y282246D01*
X3358Y284684D01*
X5431Y286757D01*
X7869Y288386D01*
X10578Y289508D01*
X13454Y290080D01*
X14920D01*
Y289998D01*
D02*
G37*
%LPC*%
G36*
X713500Y283137D02*
X709572Y282750D01*
X705794Y281604D01*
X702312Y279743D01*
X699261Y277239D01*
X696757Y274188D01*
X694896Y270706D01*
X693750Y266929D01*
X693363Y263000D01*
X693750Y259072D01*
X694896Y255294D01*
X696757Y251812D01*
X699261Y248761D01*
X702312Y246257D01*
X705794Y244396D01*
X709572Y243250D01*
X713500Y242863D01*
X717429Y243250D01*
X721206Y244396D01*
X724688Y246257D01*
X727739Y248761D01*
X730243Y251812D01*
X732104Y255294D01*
X733250Y259072D01*
X733637Y263000D01*
X733250Y266929D01*
X732104Y270706D01*
X730243Y274188D01*
X727739Y277239D01*
X724688Y279743D01*
X721206Y281604D01*
X717429Y282750D01*
X713500Y283137D01*
D02*
G37*
G36*
X32200D02*
X28272Y282750D01*
X24494Y281604D01*
X21012Y279743D01*
X17961Y277239D01*
X15457Y274188D01*
X13596Y270706D01*
X12450Y266929D01*
X12063Y263000D01*
X12450Y259072D01*
X13596Y255294D01*
X15457Y251812D01*
X17961Y248761D01*
X21012Y246257D01*
X24494Y244396D01*
X28272Y243250D01*
X32200Y242863D01*
X36128Y243250D01*
X39906Y244396D01*
X43387Y246257D01*
X46439Y248761D01*
X48943Y251812D01*
X50804Y255294D01*
X51950Y259072D01*
X52337Y263000D01*
X51950Y266929D01*
X50804Y270706D01*
X48943Y274188D01*
X46439Y277239D01*
X43387Y279743D01*
X39906Y281604D01*
X36128Y282750D01*
X32200Y283137D01*
D02*
G37*
G36*
X616370Y167469D02*
X612173Y167055D01*
X608137Y165831D01*
X604418Y163843D01*
X601158Y161167D01*
X598482Y157907D01*
X596494Y154188D01*
X595270Y150152D01*
X594856Y145955D01*
X595270Y141758D01*
X596494Y137722D01*
X598482Y134003D01*
X601158Y130743D01*
X604418Y128067D01*
X608137Y126079D01*
X612173Y124855D01*
X616370Y124441D01*
X620567Y124855D01*
X624603Y126079D01*
X628322Y128067D01*
X631582Y130743D01*
X634258Y134003D01*
X636246Y137722D01*
X637470Y141758D01*
X637884Y145955D01*
X637470Y150152D01*
X636246Y154188D01*
X634258Y157907D01*
X631582Y161167D01*
X628322Y163843D01*
X624603Y165831D01*
X620567Y167055D01*
X616370Y167469D01*
D02*
G37*
G36*
X519850Y179870D02*
X514545Y179452D01*
X509370Y178210D01*
X504453Y176173D01*
X499916Y173393D01*
X495869Y169936D01*
X492413Y165889D01*
X489632Y161352D01*
X487595Y156435D01*
X486353Y151260D01*
X485936Y145955D01*
X486353Y140650D01*
X487595Y135475D01*
X489632Y130558D01*
X492413Y126021D01*
X495869Y121974D01*
X499916Y118518D01*
X504453Y115737D01*
X509370Y113700D01*
X514545Y112458D01*
X519850Y112041D01*
X525155Y112458D01*
X530330Y113700D01*
X535247Y115737D01*
X539784Y118518D01*
X543831Y121974D01*
X547287Y126021D01*
X550068Y130558D01*
X552105Y135475D01*
X553347Y140650D01*
X553764Y145955D01*
X553347Y151260D01*
X552105Y156435D01*
X550068Y161352D01*
X547287Y165889D01*
X543831Y169936D01*
X539784Y173393D01*
X535247Y176173D01*
X530330Y178210D01*
X525155Y179452D01*
X519850Y179870D01*
D02*
G37*
G36*
X227550Y178670D02*
X222245Y178252D01*
X217070Y177010D01*
X212153Y174973D01*
X207616Y172192D01*
X203569Y168736D01*
X200113Y164690D01*
X197332Y160152D01*
X195295Y155235D01*
X194053Y150060D01*
X193636Y144755D01*
X194053Y139450D01*
X195295Y134275D01*
X197332Y129358D01*
X200113Y124821D01*
X203569Y120774D01*
X207616Y117318D01*
X212153Y114537D01*
X217070Y112500D01*
X222245Y111258D01*
X227550Y110841D01*
X232855Y111258D01*
X238030Y112500D01*
X242947Y114537D01*
X247484Y117318D01*
X251531Y120774D01*
X254987Y124821D01*
X257768Y129358D01*
X259805Y134275D01*
X261047Y139450D01*
X261465Y144755D01*
X261047Y150060D01*
X259805Y155235D01*
X257768Y160152D01*
X254987Y164690D01*
X251531Y168736D01*
X247484Y172192D01*
X242947Y174973D01*
X238030Y177010D01*
X232855Y178252D01*
X227550Y178670D01*
D02*
G37*
G36*
X107550D02*
X102245Y178252D01*
X97070Y177010D01*
X92153Y174973D01*
X87615Y172192D01*
X83569Y168736D01*
X80113Y164690D01*
X77332Y160152D01*
X75295Y155235D01*
X74053Y150060D01*
X73636Y144755D01*
X74053Y139450D01*
X75295Y134275D01*
X77332Y129358D01*
X80113Y124821D01*
X83569Y120774D01*
X87615Y117318D01*
X92153Y114537D01*
X97070Y112500D01*
X102245Y111258D01*
X107550Y110841D01*
X112855Y111258D01*
X118030Y112500D01*
X122947Y114537D01*
X127485Y117318D01*
X131531Y120774D01*
X134987Y124821D01*
X137768Y129358D01*
X139805Y134275D01*
X141047Y139450D01*
X141465Y144755D01*
X141047Y150060D01*
X139805Y155235D01*
X137768Y160152D01*
X134987Y164690D01*
X131531Y168736D01*
X127485Y172192D01*
X122947Y174973D01*
X118030Y177010D01*
X112855Y178252D01*
X107550Y178670D01*
D02*
G37*
G36*
X443600Y108609D02*
X358600D01*
X357219Y108335D01*
X356048Y107552D01*
X355265Y106381D01*
X354991Y105000D01*
Y97600D01*
X355085Y97128D01*
X355119Y96647D01*
X355221Y96443D01*
X355265Y96219D01*
X355533Y95818D01*
X355748Y95387D01*
X364748Y83787D01*
X364921Y83638D01*
X365048Y83448D01*
X365448Y83180D01*
X365812Y82865D01*
X366029Y82792D01*
X366219Y82665D01*
X366691Y82571D01*
X367148Y82419D01*
X367376Y82435D01*
X367600Y82391D01*
X434600D01*
X434824Y82435D01*
X435052Y82419D01*
X435509Y82571D01*
X435981Y82665D01*
X436171Y82792D01*
X436388Y82865D01*
X436752Y83180D01*
X437152Y83448D01*
X437279Y83638D01*
X437452Y83787D01*
X446452Y95387D01*
X446667Y95818D01*
X446935Y96219D01*
X446979Y96443D01*
X447081Y96647D01*
X447115Y97128D01*
X447209Y97600D01*
Y105000D01*
X446935Y106381D01*
X446152Y107552D01*
X444981Y108335D01*
X443600Y108609D01*
D02*
G37*
G36*
X713500Y47137D02*
X709572Y46750D01*
X705794Y45604D01*
X702312Y43743D01*
X699261Y41239D01*
X696757Y38187D01*
X694896Y34706D01*
X693750Y30928D01*
X693363Y27000D01*
X693750Y23071D01*
X694896Y19294D01*
X696757Y15812D01*
X699261Y12761D01*
X702312Y10257D01*
X705794Y8396D01*
X709572Y7250D01*
X713500Y6863D01*
X717429Y7250D01*
X721206Y8396D01*
X724688Y10257D01*
X727739Y12761D01*
X730243Y15812D01*
X732104Y19294D01*
X733250Y23071D01*
X733637Y27000D01*
X733250Y30928D01*
X732104Y34706D01*
X730243Y38187D01*
X727739Y41239D01*
X724688Y43743D01*
X721206Y45604D01*
X717429Y46750D01*
X713500Y47137D01*
D02*
G37*
G36*
X32200D02*
X28272Y46750D01*
X24494Y45604D01*
X21012Y43743D01*
X17961Y41239D01*
X15457Y38187D01*
X13596Y34706D01*
X12450Y30928D01*
X12063Y27000D01*
X12450Y23071D01*
X13596Y19294D01*
X15457Y15812D01*
X17961Y12761D01*
X21012Y10257D01*
X24494Y8396D01*
X28272Y7250D01*
X32200Y6863D01*
X36128Y7250D01*
X39906Y8396D01*
X43387Y10257D01*
X46439Y12761D01*
X48943Y15812D01*
X50804Y19294D01*
X51950Y23071D01*
X52337Y27000D01*
X51950Y30928D01*
X50804Y34706D01*
X48943Y38187D01*
X46439Y41239D01*
X43387Y43743D01*
X39906Y45604D01*
X36128Y46750D01*
X32200Y47137D01*
D02*
G37*
%LPD*%
D10*
X747990Y275100D02*
G03*
X733105Y289985I-14885J0D01*
G01*
X733100Y15D02*
G03*
X747985Y14900I0J14885D01*
G01*
X45Y14885D02*
G03*
X14930Y0I14885J0D01*
G01*
X14920Y290080D02*
G03*
X35Y275195I0J-14885D01*
G01*
X0Y14890D02*
Y275000D01*
X14930Y-2D02*
X733100D01*
X748000Y14900D02*
Y275000D01*
X14920Y289998D02*
X733100Y289998D01*
X358600Y97600D02*
X367600Y86000D01*
X434600D02*
X443600Y97600D01*
X367600Y86000D02*
X434600D01*
X358600Y105000D02*
X443600D01*
Y97600D02*
Y105000D01*
X358600Y97600D02*
Y105000D01*
D12*
X137550Y144755D02*
G03*
X137550Y144755I-30000J0D01*
G01*
X633970Y145955D02*
G03*
X633970Y145955I-17600J0D01*
G01*
X549850D02*
G03*
X549850Y145955I-30000J0D01*
G01*
X257550Y144755D02*
G03*
X257550Y144755I-30000J0D01*
G01*
D13*
X713500Y27000D02*
D03*
Y263000D02*
D03*
X32200D02*
D03*
Y27000D02*
D03*
M02*
