G04*
G04 #@! TF.GenerationSoftware,Altium Limited,Altium Designer,20.0.10 (225)*
G04*
G04 Layer_Physical_Order=1*
G04 Layer_Color=255*
%FSLAX44Y44*%
%MOMM*%
G71*
G01*
G75*
%ADD10C,0.2540*%
%ADD11C,0.2000*%
%ADD17C,1.0000*%
%ADD20R,0.9000X0.8000*%
%ADD21R,0.8000X1.7000*%
%ADD22R,0.9500X0.8500*%
%ADD23R,0.6000X0.9000*%
%ADD24R,0.5010X1.1112*%
%ADD25R,0.9000X0.6000*%
%ADD26R,1.0500X0.9500*%
%ADD27R,1.0121X1.2084*%
%ADD28R,0.8000X0.9000*%
%ADD29R,0.9000X2.5000*%
%ADD30R,3.0000X1.5000*%
%ADD31R,0.7000X0.9000*%
%ADD32R,0.9500X1.0500*%
%ADD33R,0.8000X0.8000*%
%ADD34R,0.9000X0.7000*%
%ADD35R,0.7620X0.7112*%
%ADD36R,0.4064X2.7000*%
%ADD37R,1.0000X0.9000*%
%ADD50C,0.7500*%
%ADD59R,2.8542X2.8542*%
%ADD60C,2.8542*%
%ADD61R,1.3000X1.3000*%
%ADD62C,1.3000*%
%ADD66C,0.4500*%
%ADD67C,0.3540*%
%ADD68C,0.5500*%
%ADD69C,0.7500*%
%ADD70C,0.6500*%
%ADD71C,0.5400*%
%ADD72C,0.7000*%
%ADD73C,0.7540*%
%ADD74C,2.6000*%
%ADD75C,1.5500*%
%ADD76R,1.8000X1.7000*%
%ADD77O,1.9000X2.0000*%
%ADD78R,1.5500X1.5500*%
%ADD79C,1.5000*%
%ADD80R,1.5000X1.5000*%
%ADD81O,2.0000X3.0000*%
%ADD82R,1.9000X1.9000*%
%ADD83C,1.9000*%
%ADD84C,0.6500*%
G04:AMPARAMS|DCode=85|XSize=1.05mm|YSize=1.85mm|CornerRadius=0.2625mm|HoleSize=0mm|Usage=FLASHONLY|Rotation=180.000|XOffset=0mm|YOffset=0mm|HoleType=Round|Shape=RoundedRectangle|*
%AMROUNDEDRECTD85*
21,1,1.0500,1.3250,0,0,180.0*
21,1,0.5250,1.8500,0,0,180.0*
1,1,0.5250,-0.2625,0.6625*
1,1,0.5250,0.2625,0.6625*
1,1,0.5250,0.2625,-0.6625*
1,1,0.5250,-0.2625,-0.6625*
%
%ADD85ROUNDEDRECTD85*%
%ADD86C,1.2700*%
G36*
X857202Y3929012D02*
X856979Y3928201D01*
X856782Y3926960D01*
X856612Y3925289D01*
X856258Y3917696D01*
X856187Y3910780D01*
X856463Y3907455D01*
X856645Y3906565D01*
X856867Y3905836D01*
X857130Y3905269D01*
X857432Y3904864D01*
X857776Y3904620D01*
X858159Y3904539D01*
X848720D01*
X849104Y3904620D01*
X849447Y3904864D01*
X849750Y3905269D01*
X850013Y3905836D01*
X850235Y3906565D01*
X850417Y3907455D01*
X850558Y3908509D01*
X850705Y3910867D01*
X849678Y3929012D01*
X849429Y3929392D01*
X857451D01*
X857202Y3929012D01*
D02*
G37*
G36*
X558305Y3908759D02*
X558125Y3908423D01*
X557967Y3907860D01*
X557830Y3907073D01*
X557714Y3906061D01*
X557492Y3901677D01*
X557450Y3897630D01*
X547450D01*
X547439Y3899766D01*
X546933Y3907860D01*
X546774Y3908423D01*
X546595Y3908759D01*
X546395Y3908872D01*
X558506D01*
X558305Y3908759D01*
D02*
G37*
G36*
X858183Y3903524D02*
X858343Y3903223D01*
X858610Y3902957D01*
X858984Y3902727D01*
X859464Y3902532D01*
X860052Y3902373D01*
X860746Y3902249D01*
X861547Y3902161D01*
X863469Y3902090D01*
Y3898550D01*
X862455Y3898532D01*
X860746Y3898391D01*
X860052Y3898267D01*
X859464Y3898108D01*
X858984Y3897913D01*
X858610Y3897683D01*
X858343Y3897417D01*
X858183Y3897116D01*
X858129Y3896780D01*
Y3903860D01*
X858183Y3903524D01*
D02*
G37*
G36*
X694701Y3880857D02*
X694790Y3879716D01*
X694867Y3879253D01*
X694967Y3878860D01*
X695088Y3878540D01*
X695232Y3878290D01*
X695398Y3878112D01*
X695586Y3878005D01*
X695796Y3877969D01*
X691044D01*
X691254Y3878005D01*
X691442Y3878112D01*
X691608Y3878290D01*
X691752Y3878540D01*
X691873Y3878860D01*
X691973Y3879253D01*
X692050Y3879716D01*
X692106Y3880251D01*
X692150Y3881534D01*
X694690D01*
X694701Y3880857D01*
D02*
G37*
G36*
X855728Y3883101D02*
X857940D01*
X857513Y3883033D01*
X857130Y3882831D01*
X856793Y3882493D01*
X856500Y3882021D01*
X856253Y3881413D01*
X856050Y3880670D01*
X855892Y3879793D01*
X855801Y3878973D01*
X855885Y3874280D01*
X850995D01*
X851032Y3874405D01*
X851065Y3874745D01*
X851120Y3876074D01*
X851135Y3878026D01*
X850987Y3879793D01*
X850830Y3880670D01*
X850628Y3881413D01*
X850380Y3882021D01*
X850088Y3882493D01*
X849750Y3882831D01*
X849368Y3883033D01*
X848940Y3883101D01*
X851174D01*
X851190Y3885247D01*
X855690D01*
X855728Y3883101D01*
D02*
G37*
G36*
X739453Y3857231D02*
X739371Y3857249D01*
X739128Y3857266D01*
X735054Y3857314D01*
X727346Y3857057D01*
Y3862997D01*
X727428Y3862945D01*
X727671Y3862899D01*
X728075Y3862859D01*
X730263Y3862770D01*
X732672Y3862750D01*
X732896Y3862754D01*
X735495Y3862970D01*
X736551Y3863159D01*
X737445Y3863402D01*
X738177Y3863699D01*
X738747Y3864050D01*
X739155Y3864455D01*
X739400Y3864914D01*
X739483Y3865427D01*
X739453Y3857231D01*
D02*
G37*
G36*
X696144Y3868963D02*
X696032Y3868760D01*
X695933Y3868423D01*
X695847Y3867950D01*
X695775Y3867343D01*
X695669Y3865723D01*
X695610Y3862281D01*
X691110D01*
X691102Y3863563D01*
X690829Y3867950D01*
X690728Y3868423D01*
X690611Y3868760D01*
X690479Y3868963D01*
X690331Y3869030D01*
X696270D01*
X696144Y3868963D01*
D02*
G37*
G36*
X724153Y3866809D02*
X724282Y3864733D01*
X724350Y3864348D01*
X724464Y3863926D01*
X724604Y3863581D01*
X724769Y3863312D01*
X724960Y3863120D01*
X725176Y3863004D01*
X725417Y3862966D01*
X724418D01*
X724461Y3862733D01*
X724557Y3862375D01*
X724666Y3862109D01*
X724787Y3861935D01*
X720967D01*
X721088Y3862109D01*
X721197Y3862375D01*
X721293Y3862733D01*
X721336Y3862966D01*
X720337D01*
X720578Y3863004D01*
X720794Y3863120D01*
X720985Y3863312D01*
X721150Y3863581D01*
X721290Y3863926D01*
X721404Y3864348D01*
X721493Y3864848D01*
X721556Y3865424D01*
X721557Y3865448D01*
X721607Y3867810D01*
X724147D01*
X724153Y3866809D01*
D02*
G37*
G36*
X816107Y3867097D02*
X815885Y3866584D01*
X815689Y3865905D01*
X815520Y3865059D01*
X815376Y3864047D01*
X815302Y3863150D01*
X815365Y3862750D01*
X815542Y3862007D01*
X815758Y3861400D01*
X816014Y3860927D01*
X816309Y3860590D01*
X816643Y3860387D01*
X817017Y3860320D01*
X815139D01*
X815050Y3856495D01*
X810550D01*
X810537Y3858338D01*
X810402Y3860320D01*
X809078D01*
X809357Y3860387D01*
X809608Y3860590D01*
X809828Y3860927D01*
X810020Y3861400D01*
X810182Y3862007D01*
X810258Y3862437D01*
X810080Y3865059D01*
X809911Y3865905D01*
X809715Y3866584D01*
X809493Y3867097D01*
X809245Y3867444D01*
X816355D01*
X816107Y3867097D01*
D02*
G37*
G36*
X694996Y3845821D02*
X695184Y3845766D01*
X695454Y3845718D01*
X695807Y3845676D01*
X697361Y3845589D01*
X699657Y3845560D01*
Y3843020D01*
X698810Y3843017D01*
X694996Y3842759D01*
X694890Y3842698D01*
Y3845882D01*
X694996Y3845821D01*
D02*
G37*
G36*
X696133Y3839753D02*
X696011Y3839550D01*
X695903Y3839213D01*
X695809Y3838741D01*
X695730Y3838133D01*
X695615Y3836513D01*
X695550Y3833070D01*
X691050D01*
X691043Y3834353D01*
X690697Y3839213D01*
X690590Y3839550D01*
X690467Y3839753D01*
X690331Y3839821D01*
X696270D01*
X696133Y3839753D01*
D02*
G37*
G36*
X756997Y3849370D02*
Y3841467D01*
X772577D01*
Y3849370D01*
X781316D01*
Y3840698D01*
X788917D01*
Y3839428D01*
X790187D01*
Y3830846D01*
X796518D01*
X797510Y3830176D01*
Y3806190D01*
X777240Y3806190D01*
X777240Y3829050D01*
X735330Y3829050D01*
X735330Y3849370D01*
X756997D01*
D02*
G37*
G36*
X658228Y3805739D02*
X658475Y3805607D01*
X658888Y3805491D01*
X659465Y3805390D01*
X660208Y3805305D01*
X663426Y3805142D01*
X666395Y3805111D01*
Y3799611D01*
X664828Y3799603D01*
X658888Y3799231D01*
X658475Y3799115D01*
X658228Y3798983D01*
X658146Y3798835D01*
Y3805887D01*
X658228Y3805739D01*
D02*
G37*
G36*
X748292Y3799263D02*
X747910Y3799060D01*
X747572Y3798721D01*
X747280Y3798246D01*
X747032Y3797636D01*
X746830Y3796890D01*
X746673Y3796009D01*
X746560Y3794991D01*
X746470Y3792550D01*
X741970D01*
X741947Y3793839D01*
X741768Y3796009D01*
X741610Y3796890D01*
X741407Y3797636D01*
X741160Y3798246D01*
X740867Y3798721D01*
X740530Y3799060D01*
X740147Y3799263D01*
X739720Y3799331D01*
X748720D01*
X748292Y3799263D01*
D02*
G37*
G36*
X658176Y3789647D02*
X658357Y3789438D01*
X658657Y3789254D01*
X659078Y3789094D01*
X659617Y3788959D01*
X660277Y3788848D01*
X661057Y3788762D01*
X662975Y3788664D01*
X664114Y3788652D01*
Y3783152D01*
X658146Y3783015D01*
X658115Y3789880D01*
X658176Y3789647D01*
D02*
G37*
G36*
X759687Y3784816D02*
X759945Y3781251D01*
X760100Y3780380D01*
X760289Y3779667D01*
X760513Y3779113D01*
X760770Y3778716D01*
X761063Y3778479D01*
X761389Y3778399D01*
X752450D01*
X752777Y3778479D01*
X753070Y3778716D01*
X753327Y3779113D01*
X753551Y3779667D01*
X753740Y3780380D01*
X753895Y3781251D01*
X754015Y3782281D01*
X754153Y3784816D01*
X754170Y3786321D01*
X759670D01*
X759687Y3784816D01*
D02*
G37*
G36*
X746492Y3783867D02*
X746670Y3781707D01*
X746825Y3780829D01*
X747025Y3780087D01*
X747269Y3779479D01*
X747558Y3779007D01*
X747890Y3778669D01*
X748268Y3778467D01*
X748689Y3778399D01*
X739751D01*
X740172Y3778467D01*
X740549Y3778669D01*
X740882Y3779007D01*
X741171Y3779479D01*
X741415Y3780087D01*
X741615Y3780829D01*
X741770Y3781707D01*
X741881Y3782719D01*
X741970Y3785150D01*
X746470D01*
X746492Y3783867D01*
D02*
G37*
G36*
X721092D02*
X721270Y3781707D01*
X721425Y3780829D01*
X721625Y3780087D01*
X721869Y3779479D01*
X722158Y3779007D01*
X722490Y3778669D01*
X722868Y3778467D01*
X723289Y3778399D01*
X714351D01*
X714772Y3778467D01*
X715150Y3778669D01*
X715482Y3779007D01*
X715771Y3779479D01*
X716015Y3780087D01*
X716215Y3780829D01*
X716370Y3781707D01*
X716481Y3782719D01*
X716570Y3785150D01*
X721070D01*
X721092Y3783867D01*
D02*
G37*
G36*
X733792D02*
X733839Y3783296D01*
X735284D01*
X734996Y3782921D01*
X734739Y3782245D01*
X734512Y3781265D01*
X734329Y3780076D01*
X734569Y3779479D01*
X734858Y3779007D01*
X735191Y3778669D01*
X735568Y3778467D01*
X735990Y3778399D01*
X734177D01*
X734012Y3776509D01*
X733785Y3769029D01*
X733770Y3765930D01*
X729270D01*
X729255Y3769029D01*
X728699Y3778399D01*
X727050D01*
X727472Y3778467D01*
X727850Y3778669D01*
X728182Y3779007D01*
X728471Y3779479D01*
X728613Y3779834D01*
X728528Y3781265D01*
X728301Y3782245D01*
X728044Y3782921D01*
X727756Y3783296D01*
X729202D01*
X729270Y3785150D01*
X733770D01*
X733792Y3783867D01*
D02*
G37*
G36*
X708384Y3762920D02*
X709035Y3753460D01*
X710590D01*
X710168Y3753393D01*
X709790Y3753191D01*
X709458Y3752853D01*
X709169Y3752380D01*
X709118Y3752253D01*
X709263Y3750143D01*
X709500Y3749503D01*
X709765Y3749160D01*
X708461D01*
X708459Y3749141D01*
X708370Y3746711D01*
X703870D01*
X703848Y3747993D01*
X703752Y3749160D01*
X702475D01*
X702740Y3749503D01*
X702977Y3750143D01*
X703187Y3751080D01*
X703296Y3751821D01*
X703071Y3752380D01*
X702782Y3752853D01*
X702449Y3753191D01*
X702072Y3753393D01*
X701650Y3753460D01*
X703463D01*
X703647Y3755667D01*
X703856Y3762920D01*
X703870Y3765930D01*
X708370D01*
X708384Y3762920D01*
D02*
G37*
G36*
X773772Y3753392D02*
X773488Y3753188D01*
X773238Y3752848D01*
X773021Y3752371D01*
X772838Y3751758D01*
X772687Y3751009D01*
X772570Y3750123D01*
X772437Y3747944D01*
X772420Y3746650D01*
X766920D01*
X766902Y3747944D01*
X766637Y3751009D01*
X766478Y3751758D01*
X766283Y3752371D01*
X766053Y3752848D01*
X765788Y3753188D01*
X765487Y3753392D01*
X765151Y3753460D01*
X774090D01*
X773772Y3753392D01*
D02*
G37*
G36*
X761063Y3753378D02*
X760770Y3753130D01*
X760513Y3752718D01*
X760289Y3752141D01*
X760100Y3751398D01*
X759945Y3750490D01*
X759825Y3749418D01*
X759687Y3746778D01*
X759670Y3745211D01*
X754170D01*
X754153Y3746778D01*
X753895Y3750490D01*
X753740Y3751398D01*
X753551Y3752141D01*
X753327Y3752718D01*
X753070Y3753130D01*
X752777Y3753378D01*
X752450Y3753460D01*
X761389D01*
X761063Y3753378D01*
D02*
G37*
G36*
X784592Y3720607D02*
X784770Y3718447D01*
X784799Y3718284D01*
X785731D01*
X785511Y3717995D01*
X785313Y3717423D01*
X785169Y3716717D01*
X785369Y3716219D01*
X785658Y3715747D01*
X785991Y3715410D01*
X786368Y3715207D01*
X786789Y3715139D01*
X784966D01*
X784756Y3712308D01*
X784570Y3702670D01*
X780070D01*
X780058Y3705504D01*
X779467Y3715139D01*
X777850D01*
X778272Y3715207D01*
X778650Y3715410D01*
X778982Y3715747D01*
X779271Y3716219D01*
X779383Y3716499D01*
X779327Y3717423D01*
X779129Y3717995D01*
X778909Y3718284D01*
X779841D01*
X779870Y3718447D01*
X779981Y3719460D01*
X780070Y3721890D01*
X784570D01*
X784592Y3720607D01*
D02*
G37*
G36*
X748458Y3690128D02*
X748251Y3689912D01*
X748068Y3689552D01*
X747909Y3689048D01*
X747775Y3688400D01*
X747665Y3687608D01*
X747519Y3685592D01*
X747470Y3683000D01*
X740970D01*
X740958Y3684368D01*
X740665Y3688400D01*
X740531Y3689048D01*
X740372Y3689552D01*
X740190Y3689912D01*
X739982Y3690128D01*
X739751Y3690201D01*
X748689D01*
X748458Y3690128D01*
D02*
G37*
G36*
X761158Y3690103D02*
X760950Y3689810D01*
X760768Y3689323D01*
X760609Y3688640D01*
X760475Y3687763D01*
X760280Y3685423D01*
X760170Y3680450D01*
X753670D01*
X753658Y3682303D01*
X753231Y3688640D01*
X753072Y3689323D01*
X752889Y3689810D01*
X752682Y3690103D01*
X752450Y3690201D01*
X761389D01*
X761158Y3690103D01*
D02*
G37*
G36*
X921483Y3693877D02*
X921373Y3693237D01*
X921276Y3692226D01*
X921063Y3686961D01*
X920960Y3674736D01*
X915460D01*
X914814Y3694144D01*
X921606D01*
X921483Y3693877D01*
D02*
G37*
G36*
X691374Y3678748D02*
X691961Y3678723D01*
X710305Y3678630D01*
Y3672130D01*
X691166Y3671984D01*
Y3678776D01*
X691374Y3678748D01*
D02*
G37*
G36*
X712849Y3665371D02*
X713436Y3665346D01*
X731780Y3665253D01*
Y3658753D01*
X712641Y3658607D01*
Y3665399D01*
X712849Y3665371D01*
D02*
G37*
G36*
X756642Y3654070D02*
X756889Y3653820D01*
X757302Y3653600D01*
X757879Y3653409D01*
X758622Y3653247D01*
X759529Y3653115D01*
X761840Y3652939D01*
X764809Y3652880D01*
Y3647380D01*
X763242Y3647365D01*
X758622Y3647013D01*
X757879Y3646851D01*
X757302Y3646660D01*
X756889Y3646440D01*
X756642Y3646190D01*
X756560Y3645911D01*
Y3654349D01*
X756642Y3654070D01*
D02*
G37*
G36*
X747121Y3645911D02*
X747038Y3646218D01*
X746790Y3646494D01*
X746378Y3646736D01*
X745800Y3646947D01*
X745058Y3647125D01*
X744150Y3647271D01*
X743078Y3647384D01*
X740438Y3647514D01*
X738870Y3647530D01*
Y3653030D01*
X740438Y3653043D01*
X745058Y3653360D01*
X745800Y3653505D01*
X746378Y3653676D01*
X746790Y3653875D01*
X747038Y3654099D01*
X747121Y3654349D01*
Y3645911D01*
D02*
G37*
G36*
X755912Y3632873D02*
X755530Y3632670D01*
X755192Y3632331D01*
X754900Y3631856D01*
X754652Y3631246D01*
X754450Y3630500D01*
X754293Y3629619D01*
X754180Y3628601D01*
X754090Y3626161D01*
X749590D01*
X749567Y3627449D01*
X749388Y3629619D01*
X749230Y3630500D01*
X749027Y3631246D01*
X748780Y3631856D01*
X748487Y3632331D01*
X748150Y3632670D01*
X747767Y3632873D01*
X747340Y3632941D01*
X756340D01*
X755912Y3632873D01*
D02*
G37*
G36*
X754112Y3621271D02*
X754293Y3619101D01*
X754450Y3618220D01*
X754652Y3617474D01*
X754900Y3616864D01*
X755192Y3616389D01*
X755530Y3616050D01*
X755912Y3615847D01*
X756340Y3615779D01*
X747340D01*
X747767Y3615847D01*
X748150Y3616050D01*
X748487Y3616389D01*
X748780Y3616864D01*
X749027Y3617474D01*
X749230Y3618220D01*
X749388Y3619101D01*
X749500Y3620118D01*
X749590Y3622560D01*
X754090D01*
X754112Y3621271D01*
D02*
G37*
G36*
X516771Y3602870D02*
X516658Y3603387D01*
X516320Y3603849D01*
X515758Y3604258D01*
X514971Y3604611D01*
X513958Y3604910D01*
X512720Y3605155D01*
X511258Y3605345D01*
X507658Y3605563D01*
X505521Y3605590D01*
Y3613090D01*
X507658Y3613117D01*
X512720Y3613525D01*
X513958Y3613770D01*
X514971Y3614069D01*
X515758Y3614423D01*
X516320Y3614831D01*
X516658Y3615293D01*
X516771Y3615810D01*
Y3602870D01*
D02*
G37*
G36*
X1067380Y3970000D02*
X1068622Y3969887D01*
X1069989Y3969616D01*
X1071903Y3968823D01*
X1073626Y3967672D01*
X1075091Y3966206D01*
X1076243Y3964483D01*
X1077036Y3962569D01*
X1077440Y3960536D01*
Y3959500D01*
X1077421Y3588367D01*
X1076523Y3587469D01*
X1010234Y3587513D01*
Y3868420D01*
X1009900Y3870102D01*
X1008947Y3871527D01*
X977047Y3903427D01*
X975622Y3904380D01*
X973940Y3904714D01*
X862576D01*
X861737Y3904745D01*
X861116Y3904814D01*
X860730Y3904883D01*
Y3907110D01*
X859186D01*
X859158Y3907202D01*
X859031Y3907823D01*
X858783Y3910815D01*
Y3911360D01*
X858847Y3917623D01*
X859195Y3925097D01*
X859351Y3926625D01*
X859514Y3927653D01*
X859543Y3927758D01*
X860601Y3928569D01*
X862210Y3930667D01*
X863222Y3933109D01*
X863567Y3935730D01*
X863222Y3938351D01*
X862210Y3940793D01*
X860601Y3942891D01*
X858503Y3944500D01*
X856061Y3945511D01*
X853440Y3945857D01*
X850819Y3945511D01*
X848377Y3944500D01*
X846279Y3942891D01*
X844670Y3940793D01*
X843658Y3938351D01*
X843313Y3935730D01*
X843658Y3933109D01*
X844670Y3930667D01*
X846279Y3928569D01*
X847147Y3927904D01*
X848097Y3911114D01*
Y3910656D01*
X847979Y3908762D01*
X847862Y3907887D01*
X847722Y3907202D01*
X847694Y3907110D01*
X846150D01*
Y3904637D01*
X846131Y3904539D01*
X846150Y3904443D01*
Y3893530D01*
Y3880530D01*
X848184D01*
X848301Y3880100D01*
X848417Y3879456D01*
X848544Y3877928D01*
X848531Y3876137D01*
X848519Y3875849D01*
X847100Y3874760D01*
X845675Y3872903D01*
X844779Y3870741D01*
X844473Y3868420D01*
X844779Y3866099D01*
X845675Y3863936D01*
X847100Y3862079D01*
X848957Y3860655D01*
X851119Y3859759D01*
X853440Y3859453D01*
X855761Y3859759D01*
X857923Y3860655D01*
X859780Y3862079D01*
X861205Y3863936D01*
X862101Y3866099D01*
X862407Y3868420D01*
X862101Y3870741D01*
X861205Y3872903D01*
X859780Y3874760D01*
X858448Y3875782D01*
X858394Y3878853D01*
X858457Y3879421D01*
X858579Y3880100D01*
X858696Y3880530D01*
X860730D01*
Y3895757D01*
X861081Y3895820D01*
X862357Y3895926D01*
X972120D01*
X1001446Y3866600D01*
Y3588416D01*
X1000547Y3587519D01*
X983920Y3587530D01*
Y3591270D01*
Y3596790D01*
X976630D01*
X969340D01*
Y3588437D01*
X968442Y3587539D01*
X949359Y3587552D01*
X948966Y3588499D01*
X947517Y3590387D01*
X945629Y3591837D01*
X943430Y3592747D01*
X941070Y3593058D01*
X938710Y3592747D01*
X936511Y3591837D01*
X934623Y3590387D01*
X933174Y3588499D01*
X932786Y3587563D01*
X923604Y3587569D01*
Y3681099D01*
X923653Y3686897D01*
X923861Y3692050D01*
X923922Y3692688D01*
X924550Y3693170D01*
X925975Y3695027D01*
X926871Y3697189D01*
X927177Y3699510D01*
X926871Y3701831D01*
X925975Y3703994D01*
X924550Y3705851D01*
X922693Y3707275D01*
X920531Y3708171D01*
X918210Y3708477D01*
X915889Y3708171D01*
X913727Y3707275D01*
X911870Y3705851D01*
X910445Y3703994D01*
X909549Y3701831D01*
X909243Y3699510D01*
X909549Y3697189D01*
X910445Y3695027D01*
X911870Y3693170D01*
X912266Y3692866D01*
X912816Y3676311D01*
Y3588474D01*
X911918Y3587576D01*
X873138Y3587601D01*
X872766Y3588499D01*
X871317Y3590387D01*
X869429Y3591837D01*
X867230Y3592747D01*
X864870Y3593058D01*
X862510Y3592747D01*
X860311Y3591837D01*
X858423Y3590387D01*
X856974Y3588499D01*
X856606Y3587612D01*
X843330Y3587621D01*
Y3611880D01*
X843242Y3612321D01*
X843173Y3612766D01*
X843144Y3612815D01*
X843133Y3612871D01*
X842883Y3613246D01*
X842649Y3613630D01*
X829360Y3628127D01*
X829360Y3742887D01*
X831141Y3744669D01*
X831703Y3745509D01*
X831900Y3746500D01*
Y3843020D01*
X831900Y3844290D01*
X831703Y3845281D01*
X831141Y3846121D01*
X826061Y3851201D01*
X825221Y3851763D01*
X824230Y3851960D01*
X819587D01*
Y3860222D01*
X819606Y3860320D01*
X819587Y3860416D01*
Y3862890D01*
X819045D01*
X818561Y3863274D01*
X818008Y3864160D01*
X818073Y3864622D01*
X818207Y3865290D01*
X818328Y3865708D01*
X818374Y3865816D01*
X818462Y3865938D01*
X818478Y3865974D01*
X819386Y3867158D01*
X820146Y3868992D01*
X820405Y3870960D01*
X820146Y3872928D01*
X819386Y3874763D01*
X818178Y3876338D01*
X810245Y3884270D01*
Y3929149D01*
X811410Y3930667D01*
X812422Y3933109D01*
X812767Y3935730D01*
X812422Y3938351D01*
X811410Y3940793D01*
X809801Y3942891D01*
X807703Y3944500D01*
X805261Y3945511D01*
X802640Y3945857D01*
X800019Y3945511D01*
X797577Y3944500D01*
X795479Y3942891D01*
X793870Y3940793D01*
X792858Y3938351D01*
X792513Y3935730D01*
X792858Y3933109D01*
X793870Y3930667D01*
X795035Y3929149D01*
Y3881120D01*
X795294Y3879152D01*
X796054Y3877318D01*
X797262Y3875742D01*
X807253Y3865751D01*
X807272Y3865708D01*
X807393Y3865290D01*
X807508Y3864715D01*
X807569Y3863818D01*
X806702Y3862890D01*
X806507D01*
Y3860416D01*
X806488Y3860320D01*
X806507Y3860222D01*
Y3852620D01*
X806430Y3851399D01*
X805976Y3851294D01*
X805516Y3851203D01*
X805483Y3851181D01*
X805445Y3851172D01*
X804349Y3850679D01*
X803973Y3850411D01*
X803587Y3850157D01*
X798277Y3844893D01*
X798216Y3844880D01*
X796986Y3844775D01*
X796730Y3844852D01*
X796518Y3845004D01*
Y3854196D01*
X788917D01*
X781316D01*
Y3851960D01*
X772577D01*
Y3853427D01*
X756997D01*
Y3851960D01*
X735330D01*
X734339Y3851763D01*
X733499Y3851201D01*
X732937Y3850361D01*
X732740Y3849370D01*
X732740Y3829050D01*
X732937Y3828059D01*
X733499Y3827219D01*
X734339Y3826657D01*
X735330Y3826460D01*
X735429D01*
X736430Y3825810D01*
Y3819790D01*
X744220D01*
X752010D01*
Y3825190D01*
X753011Y3826460D01*
X774650Y3826460D01*
X774650Y3806190D01*
X774847Y3805199D01*
X775409Y3804359D01*
X776249Y3803797D01*
X777240Y3803600D01*
X797332Y3803600D01*
X797510Y3802330D01*
X797510Y3749040D01*
X797707Y3748049D01*
X798269Y3747209D01*
X799390Y3746088D01*
X798580Y3745101D01*
X798308Y3745283D01*
X796244Y3745694D01*
X778254D01*
X775088Y3748860D01*
X775150Y3749874D01*
X775243Y3750584D01*
X775305Y3750890D01*
X781050D01*
Y3765930D01*
Y3780970D01*
X762625D01*
X762518Y3781572D01*
X762335Y3784109D01*
X765300Y3787074D01*
X766483Y3786918D01*
X768804Y3787224D01*
X770967Y3788119D01*
X772824Y3789544D01*
X774249Y3791401D01*
X775145Y3793564D01*
X775450Y3795885D01*
X775145Y3798205D01*
X774249Y3800368D01*
X772824Y3802225D01*
X770967Y3803650D01*
X768804Y3804546D01*
X766483Y3804851D01*
X764163Y3804546D01*
X762000Y3803650D01*
X760143Y3802225D01*
X758718Y3800368D01*
X757822Y3798205D01*
X757517Y3795885D01*
X757672Y3794702D01*
X753106Y3790135D01*
X751937Y3788385D01*
X751526Y3786321D01*
Y3784211D01*
X751434Y3782502D01*
X751331Y3781628D01*
X751215Y3780970D01*
X749469D01*
X749355Y3781393D01*
X749241Y3782039D01*
X749104Y3783707D01*
Y3793698D01*
X749145Y3794801D01*
X749237Y3795638D01*
X749359Y3796322D01*
X749470Y3796730D01*
X752010D01*
Y3811230D01*
Y3817250D01*
X744220D01*
X736430D01*
Y3811230D01*
Y3797373D01*
X735263Y3796482D01*
X733841Y3797071D01*
X731520Y3797377D01*
X729199Y3797071D01*
X727037Y3796176D01*
X725180Y3794750D01*
X724974Y3794482D01*
X723704Y3794913D01*
Y3803626D01*
X723332Y3805495D01*
X722273Y3807079D01*
X699389Y3829963D01*
X698184Y3831169D01*
Y3835390D01*
X698203Y3836396D01*
X698263Y3837250D01*
X698840D01*
Y3839724D01*
X698859Y3839821D01*
X699711Y3840290D01*
X700040Y3840405D01*
X701040D01*
X702527Y3840701D01*
X703787Y3841543D01*
X707827Y3845583D01*
X708669Y3846843D01*
X708965Y3848330D01*
Y3878742D01*
X710138Y3879228D01*
X718992Y3870374D01*
Y3866659D01*
X718970Y3865598D01*
X718967Y3865567D01*
X715837D01*
Y3854487D01*
X727250D01*
X727346Y3854468D01*
X727389Y3854476D01*
X727433Y3854469D01*
X727969Y3854487D01*
X729917D01*
Y3854552D01*
X733900Y3854684D01*
X736882D01*
Y3854661D01*
X739348D01*
X739443Y3854642D01*
X739541Y3854661D01*
X746972D01*
Y3870853D01*
X736882D01*
Y3865968D01*
X736616Y3865860D01*
X735983Y3865688D01*
X735159Y3865541D01*
X733100Y3865370D01*
X730075D01*
X729917Y3865376D01*
Y3865567D01*
X727443D01*
X727346Y3865586D01*
X726762Y3866652D01*
Y3871983D01*
X726466Y3873470D01*
X725624Y3874730D01*
X715575Y3884779D01*
Y3907960D01*
X716262D01*
Y3925485D01*
X717532Y3926527D01*
X718690Y3926296D01*
X720949Y3926746D01*
X722864Y3928026D01*
X724144Y3929941D01*
X724593Y3932200D01*
X724144Y3934459D01*
X722864Y3936374D01*
X720949Y3937654D01*
X718690Y3938103D01*
X717532Y3937873D01*
X716262Y3938915D01*
Y3940040D01*
X681118D01*
Y3938915D01*
X679848Y3937873D01*
X678690Y3938103D01*
X676431Y3937654D01*
X674516Y3936374D01*
X673236Y3934459D01*
X672787Y3932200D01*
X673236Y3929941D01*
X674516Y3928026D01*
X676431Y3926746D01*
X678690Y3926296D01*
X679848Y3926527D01*
X681118Y3925485D01*
Y3925270D01*
X685690D01*
Y3924000D01*
X686960D01*
Y3907960D01*
X694615D01*
Y3888223D01*
X690673Y3884281D01*
X689831Y3883020D01*
X689535Y3881534D01*
Y3880856D01*
X689525Y3880540D01*
X687760D01*
Y3869196D01*
X687742Y3869121D01*
X687750Y3869076D01*
X687741Y3869030D01*
X687760Y3868934D01*
Y3867662D01*
X687080Y3867141D01*
X685655Y3865284D01*
X684759Y3863121D01*
X684453Y3860800D01*
X684759Y3858479D01*
X685655Y3856317D01*
X687080Y3854460D01*
X688937Y3853035D01*
X689986Y3852600D01*
X689733Y3851330D01*
X687760D01*
Y3840042D01*
X687746Y3839991D01*
X687758Y3839905D01*
X687741Y3839821D01*
X687760Y3839724D01*
Y3837250D01*
X688241D01*
X688416Y3834780D01*
Y3829146D01*
X688788Y3827277D01*
X689847Y3825693D01*
X692483Y3823057D01*
X692483Y3823057D01*
X713936Y3801603D01*
Y3783990D01*
X713897Y3782908D01*
X713805Y3782074D01*
X713685Y3781393D01*
X713571Y3780970D01*
X686380D01*
X686114Y3782130D01*
Y3790053D01*
X685703Y3792118D01*
X684534Y3793867D01*
X672226Y3806175D01*
X670477Y3807344D01*
X668412Y3807755D01*
X663040D01*
X660716Y3807872D01*
Y3808457D01*
X658242D01*
X658146Y3808476D01*
X658049Y3808457D01*
X657859D01*
X657841Y3808458D01*
X657837Y3808457D01*
X648016D01*
Y3796265D01*
X657837D01*
X657841Y3796264D01*
X657859Y3796265D01*
X658049D01*
X658146Y3796246D01*
X658242Y3796265D01*
X660716D01*
Y3796751D01*
X664173Y3796967D01*
X666178D01*
X675326Y3787820D01*
Y3743960D01*
X675737Y3741896D01*
X676906Y3740146D01*
X690876Y3726176D01*
X692626Y3725007D01*
X694690Y3724596D01*
X746760D01*
X748824Y3725007D01*
X750574Y3726176D01*
X760734Y3736336D01*
X761903Y3738086D01*
X762314Y3740150D01*
Y3747414D01*
X762407Y3749206D01*
X762511Y3750128D01*
X762635Y3750860D01*
X762643Y3750890D01*
X764015D01*
X764071Y3750627D01*
X764277Y3748250D01*
Y3746650D01*
X764687Y3744586D01*
X765856Y3742836D01*
X772206Y3736486D01*
X773956Y3735317D01*
X776020Y3734906D01*
X793486D01*
Y3673954D01*
X775056Y3655524D01*
X762114D01*
X761964Y3655527D01*
X759815Y3655691D01*
X759130Y3655790D01*
Y3656920D01*
X756848D01*
X756832Y3656925D01*
X756778Y3656920D01*
X756656D01*
X756560Y3656939D01*
X756463Y3656920D01*
X749860D01*
X749349Y3658190D01*
X761094Y3669936D01*
X762374Y3671851D01*
X762823Y3674110D01*
Y3683307D01*
X762867Y3685287D01*
X763048Y3687459D01*
X763074Y3687630D01*
X789360D01*
Y3715043D01*
X789379Y3715139D01*
X789360Y3715237D01*
Y3717710D01*
X789360Y3717710D01*
X789360D01*
X789817Y3718806D01*
X790085Y3719156D01*
X790981Y3721319D01*
X791287Y3723640D01*
X790981Y3725961D01*
X790085Y3728123D01*
X788660Y3729980D01*
X786803Y3731405D01*
X784641Y3732301D01*
X782320Y3732607D01*
X779999Y3732301D01*
X777837Y3731405D01*
X775980Y3729980D01*
X774555Y3728123D01*
X773659Y3725961D01*
X773353Y3723640D01*
X773659Y3721319D01*
X774555Y3719156D01*
X774791Y3718849D01*
X774229Y3717710D01*
X686380D01*
Y3687630D01*
X738124D01*
X738285Y3685414D01*
X734155Y3681283D01*
X697793D01*
X692455Y3681311D01*
X692140Y3681720D01*
X690283Y3683145D01*
X688121Y3684041D01*
X685800Y3684347D01*
X683479Y3684041D01*
X681317Y3683145D01*
X679460Y3681720D01*
X678035Y3679863D01*
X677139Y3677701D01*
X676833Y3675380D01*
X677139Y3673059D01*
X678035Y3670897D01*
X679460Y3669040D01*
X681317Y3667615D01*
X683479Y3666719D01*
X685800Y3666413D01*
X688121Y3666719D01*
X690283Y3667615D01*
X692140Y3669040D01*
X692420Y3669404D01*
X700309Y3669464D01*
X700688Y3668784D01*
X700823Y3668198D01*
X699510Y3666486D01*
X698614Y3664324D01*
X698308Y3662003D01*
X698614Y3659682D01*
X699510Y3657520D01*
X700052Y3656813D01*
X699491Y3655674D01*
X682529D01*
X672144Y3666059D01*
Y3783265D01*
X671733Y3785330D01*
X670564Y3787079D01*
X667928Y3789715D01*
X666178Y3790885D01*
X664114Y3791295D01*
X662230D01*
X661266Y3791345D01*
X660716Y3791405D01*
Y3792637D01*
X648016D01*
Y3780445D01*
X658058D01*
X658157Y3780426D01*
X658181Y3780431D01*
X658205Y3780426D01*
X659021Y3780445D01*
X660716D01*
X661356Y3779440D01*
Y3663825D01*
X661767Y3661761D01*
X662936Y3660011D01*
X676481Y3646466D01*
X678231Y3645297D01*
X680295Y3644886D01*
X741142D01*
X742878Y3644801D01*
X743809Y3644703D01*
X744550Y3644584D01*
Y3630340D01*
X746590D01*
X746701Y3629932D01*
X746817Y3629283D01*
X746956Y3627602D01*
Y3621412D01*
X746916Y3620309D01*
X746823Y3619472D01*
X746701Y3618788D01*
X746590Y3618380D01*
X741953D01*
Y3600300D01*
X760033D01*
Y3618380D01*
X757090D01*
X756979Y3618788D01*
X756863Y3619437D01*
X756724Y3621118D01*
Y3627308D01*
X756765Y3628411D01*
X756857Y3629248D01*
X756979Y3629932D01*
X757090Y3630340D01*
X759130D01*
Y3644454D01*
X762828Y3644736D01*
X777290D01*
X779354Y3645147D01*
X781104Y3646316D01*
X801417Y3666629D01*
X802590Y3666143D01*
X802590Y3615493D01*
X798269Y3611171D01*
X797707Y3610331D01*
X797510Y3609340D01*
X797510Y3588549D01*
X796612Y3587651D01*
X721544Y3587700D01*
X721213Y3588499D01*
X719764Y3590387D01*
X717876Y3591837D01*
X715677Y3592747D01*
X713317Y3593058D01*
X710957Y3592747D01*
X708758Y3591837D01*
X706869Y3590387D01*
X705420Y3588499D01*
X705094Y3587710D01*
X645324Y3587749D01*
X645013Y3588499D01*
X643564Y3590387D01*
X641676Y3591837D01*
X639477Y3592747D01*
X637117Y3593058D01*
X634757Y3592747D01*
X632558Y3591837D01*
X630669Y3590387D01*
X629220Y3588499D01*
X628914Y3587759D01*
X607637Y3587773D01*
X607336Y3588499D01*
X605887Y3590387D01*
X603999Y3591837D01*
X601800Y3592747D01*
X599440Y3593058D01*
X597080Y3592747D01*
X596955Y3592696D01*
X596049Y3592815D01*
X565150D01*
X563182Y3592556D01*
X562107Y3592111D01*
X561348Y3591796D01*
X559772Y3590587D01*
X556991Y3587806D01*
X531417Y3587823D01*
X531136Y3588499D01*
X529687Y3590387D01*
X527799Y3591837D01*
X525600Y3592747D01*
X523240Y3593058D01*
X520880Y3592747D01*
X518681Y3591837D01*
X516793Y3590387D01*
X515344Y3588499D01*
X515068Y3587833D01*
X487080Y3587851D01*
X486595Y3589025D01*
X500496Y3602927D01*
X508346D01*
X511012Y3602766D01*
X512302Y3602598D01*
X513338Y3602393D01*
X514069Y3602177D01*
X514200Y3602118D01*
Y3600300D01*
X516674D01*
X516771Y3600281D01*
X516867Y3600300D01*
X532280D01*
Y3618380D01*
X516867D01*
X516771Y3618399D01*
X516674Y3618380D01*
X514200D01*
Y3616562D01*
X514069Y3616503D01*
X513338Y3616287D01*
X512364Y3616095D01*
X508128Y3615753D01*
X497840D01*
X495386Y3615265D01*
X493305Y3613875D01*
X474864Y3595433D01*
X463539D01*
X461609Y3595504D01*
X460098Y3595672D01*
X458829Y3595899D01*
X457849Y3596165D01*
X457180Y3596438D01*
X456830Y3596653D01*
X456800Y3596684D01*
Y3599310D01*
X436220D01*
Y3588783D01*
X435322Y3587885D01*
X424165Y3587892D01*
Y3758590D01*
X557828Y3892253D01*
X559036Y3893828D01*
X559796Y3895662D01*
X560055Y3897630D01*
Y3899085D01*
X560081Y3901598D01*
X560296Y3905848D01*
X560394Y3906703D01*
X560464Y3907103D01*
X561394Y3907816D01*
X563404Y3910436D01*
X564667Y3913486D01*
X565098Y3916760D01*
Y3926760D01*
X564667Y3930034D01*
X563404Y3933084D01*
X561394Y3935704D01*
X558774Y3937714D01*
X555724Y3938977D01*
X552450Y3939408D01*
X549176Y3938977D01*
X546126Y3937714D01*
X543506Y3935704D01*
X541496Y3933084D01*
X540437Y3930527D01*
X539063D01*
X538004Y3933084D01*
X535994Y3935704D01*
X533374Y3937714D01*
X530324Y3938977D01*
X527050Y3939408D01*
X523776Y3938977D01*
X520726Y3937714D01*
X518106Y3935704D01*
X516096Y3933084D01*
X514833Y3930034D01*
X514402Y3926760D01*
Y3916760D01*
X514833Y3913486D01*
X516096Y3910436D01*
X518106Y3907816D01*
X520726Y3905806D01*
X523776Y3904543D01*
X527050Y3904112D01*
X530324Y3904543D01*
X533374Y3905806D01*
X535994Y3907816D01*
X538004Y3910436D01*
X539063Y3912993D01*
X540437D01*
X541496Y3910436D01*
X543506Y3907816D01*
X544383Y3907144D01*
X544785Y3900720D01*
X411182Y3767118D01*
X409974Y3765543D01*
X409214Y3763708D01*
X408955Y3761740D01*
Y3588800D01*
X408057Y3587903D01*
X384430Y3587918D01*
X384430Y3959480D01*
Y3960516D01*
X384834Y3962549D01*
X385627Y3964463D01*
X386779Y3966186D01*
X388244Y3967651D01*
X389967Y3968803D01*
X391881Y3969596D01*
X393914Y3970000D01*
X1067379D01*
X1067380Y3970000D01*
D02*
G37*
G36*
X454312Y3595807D02*
X454650Y3595170D01*
X455214Y3594608D01*
X456004Y3594120D01*
X457019Y3593708D01*
X458260Y3593370D01*
X459726Y3593108D01*
X461419Y3592920D01*
X465480Y3592770D01*
Y3585270D01*
X463336Y3585233D01*
X459726Y3584933D01*
X458260Y3584670D01*
X457019Y3584333D01*
X456004Y3583920D01*
X455214Y3583433D01*
X454650Y3582870D01*
X454312Y3582232D01*
X454199Y3581520D01*
Y3596520D01*
X454312Y3595807D01*
D02*
G37*
G36*
X980975Y3580758D02*
X980640Y3580511D01*
X980345Y3580098D01*
X980089Y3579521D01*
X979872Y3578778D01*
X979695Y3577870D01*
X979557Y3576798D01*
X979400Y3574158D01*
X979380Y3572591D01*
X973880D01*
X973860Y3574158D01*
X973565Y3577870D01*
X973388Y3578778D01*
X973171Y3579521D01*
X972915Y3580098D01*
X972619Y3580511D01*
X972285Y3580758D01*
X971910Y3580840D01*
X981349D01*
X980975Y3580758D01*
D02*
G37*
G36*
X829310Y3844290D02*
X829310Y3843020D01*
Y3746500D01*
X826770Y3743960D01*
X826770Y3627120D01*
X840740Y3611880D01*
Y3576320D01*
X835660Y3571240D01*
X834390Y3569970D01*
X805180Y3569970D01*
X800100Y3575050D01*
X800100Y3609340D01*
X805180Y3614420D01*
X805180Y3743960D01*
X800100Y3749040D01*
X800100Y3843054D01*
X805411Y3848317D01*
X806507Y3848810D01*
X806507Y3848810D01*
X806507Y3848810D01*
X819587D01*
Y3849370D01*
X824230D01*
X829310Y3844290D01*
D02*
G37*
G36*
X946844Y3561878D02*
X947505Y3561754D01*
X948546Y3561646D01*
X953946Y3561406D01*
X966460Y3561290D01*
Y3555790D01*
X946562Y3555064D01*
Y3562016D01*
X946844Y3561878D01*
D02*
G37*
G36*
X912816Y3583070D02*
Y3564890D01*
X913227Y3562826D01*
X914396Y3561076D01*
X920746Y3554726D01*
X922496Y3553557D01*
X924560Y3553146D01*
X933814D01*
X934623Y3552093D01*
X935389Y3551505D01*
X934958Y3550234D01*
X870982D01*
X870551Y3551505D01*
X871317Y3552093D01*
X872766Y3553981D01*
X873677Y3556180D01*
X873988Y3558540D01*
X873677Y3560900D01*
X872766Y3563099D01*
X871317Y3564987D01*
X869429Y3566436D01*
X867230Y3567347D01*
X864870Y3567658D01*
X862510Y3567347D01*
X860311Y3566436D01*
X858423Y3564987D01*
X856974Y3563099D01*
X856063Y3560900D01*
X855752Y3558540D01*
X856063Y3556180D01*
X856974Y3553981D01*
X858423Y3552093D01*
X859189Y3551505D01*
X858758Y3550234D01*
X833305D01*
X832874Y3551505D01*
X833641Y3552093D01*
X835090Y3553981D01*
X836001Y3556180D01*
X836311Y3558540D01*
X836001Y3560900D01*
X835090Y3563099D01*
X833641Y3564987D01*
X832178Y3566110D01*
X832609Y3567380D01*
X834390D01*
X835381Y3567577D01*
X836221Y3568139D01*
X836221Y3568139D01*
X837491Y3569409D01*
X842571Y3574489D01*
X843133Y3575329D01*
X843330Y3576320D01*
Y3583070D01*
X912816Y3583070D01*
D02*
G37*
G36*
X759771Y3449471D02*
X759621Y3450181D01*
X759171Y3450817D01*
X758420Y3451378D01*
X757371Y3451864D01*
X756021Y3452275D01*
X754370Y3452612D01*
X752421Y3452874D01*
X747620Y3453173D01*
X744771Y3453210D01*
Y3463210D01*
X747620Y3463222D01*
X759171Y3463978D01*
X759621Y3464182D01*
X759771Y3464409D01*
Y3449471D01*
D02*
G37*
G36*
X970116Y3414858D02*
X970529Y3414225D01*
X971218Y3413666D01*
X972183Y3413181D01*
X973423Y3412772D01*
X974939Y3412436D01*
X976731Y3412175D01*
X978208Y3412042D01*
X984611Y3412310D01*
Y3403871D01*
X984498Y3403960D01*
X984161Y3404040D01*
X983598Y3404110D01*
X981798Y3404223D01*
X980270Y3404244D01*
X976731Y3404005D01*
X974939Y3403744D01*
X973423Y3403409D01*
X972183Y3402998D01*
X971218Y3402514D01*
X970529Y3401955D01*
X970116Y3401322D01*
X969978Y3400614D01*
Y3415566D01*
X970116Y3414858D01*
D02*
G37*
G36*
X994123Y3399220D02*
X994344Y3399141D01*
X994712Y3399070D01*
X995228Y3399009D01*
X996700Y3398915D01*
X996909Y3398912D01*
X998203Y3398924D01*
Y3398891D01*
X1001412Y3398840D01*
Y3391340D01*
X1000013Y3391335D01*
X994123Y3390960D01*
X994050Y3390870D01*
Y3391310D01*
X989330Y3391340D01*
Y3398840D01*
X994050Y3398885D01*
Y3399309D01*
X994123Y3399220D01*
D02*
G37*
G36*
X725531Y3332378D02*
X724771Y3331928D01*
X724101Y3331178D01*
X723520Y3330128D01*
X723028Y3328778D01*
X722626Y3327128D01*
X722313Y3325178D01*
X722089Y3322928D01*
X721911Y3317528D01*
X711911D01*
X711866Y3320378D01*
X711508Y3325178D01*
X711196Y3327128D01*
X710793Y3328778D01*
X710302Y3330128D01*
X709721Y3331178D01*
X709050Y3331928D01*
X708290Y3332378D01*
X707441Y3332528D01*
X726380D01*
X725531Y3332378D01*
D02*
G37*
G36*
X408955Y3583070D02*
Y3577590D01*
X409214Y3575622D01*
X409974Y3573788D01*
X411182Y3572213D01*
X449282Y3534113D01*
X450858Y3532904D01*
X451617Y3532589D01*
X452692Y3532144D01*
X454660Y3531885D01*
X542290D01*
X544258Y3532144D01*
X546092Y3532904D01*
X547668Y3534113D01*
X562908Y3549352D01*
X564116Y3550927D01*
X564431Y3551687D01*
X564876Y3552762D01*
X565135Y3554730D01*
Y3574440D01*
X568300Y3577605D01*
X592906D01*
X592993Y3577493D01*
X594881Y3576044D01*
X597080Y3575133D01*
X599440Y3574822D01*
X601800Y3575133D01*
X603999Y3576044D01*
X605887Y3577493D01*
X607336Y3579381D01*
X608247Y3581580D01*
X608443Y3583070D01*
X628113D01*
X628309Y3581580D01*
X629220Y3579381D01*
X630669Y3577493D01*
X632558Y3576044D01*
X634757Y3575133D01*
X637117Y3574822D01*
X639477Y3575133D01*
X641676Y3576044D01*
X643564Y3577493D01*
X645013Y3579381D01*
X645924Y3581580D01*
X646120Y3583070D01*
X704313Y3583070D01*
X704509Y3581580D01*
X705420Y3579381D01*
X706869Y3577493D01*
X708758Y3576044D01*
X710957Y3575133D01*
X713317Y3574822D01*
X715677Y3575133D01*
X717876Y3576044D01*
X719764Y3577493D01*
X721213Y3579381D01*
X722124Y3581580D01*
X722320Y3583070D01*
X741990Y3583070D01*
X742186Y3581580D01*
X743097Y3579381D01*
X744546Y3577493D01*
X746434Y3576044D01*
X748633Y3575133D01*
X750993Y3574822D01*
X753353Y3575133D01*
X755552Y3576044D01*
X757441Y3577493D01*
X758890Y3579381D01*
X759801Y3581580D01*
X759997Y3583070D01*
X797510Y3583070D01*
Y3575050D01*
X797707Y3574059D01*
X798269Y3573219D01*
X803349Y3568139D01*
X803349Y3568139D01*
X804189Y3567577D01*
X805180Y3567380D01*
X821778Y3567380D01*
X822209Y3566110D01*
X820746Y3564987D01*
X819297Y3563099D01*
X818386Y3560900D01*
X818075Y3558540D01*
X818386Y3556180D01*
X819297Y3553981D01*
X820746Y3552093D01*
X822634Y3550644D01*
X822990Y3550496D01*
Y3547914D01*
X823325Y3546232D01*
X824278Y3544807D01*
X826351Y3542733D01*
X827777Y3541780D01*
X829459Y3541446D01*
X856820D01*
X857284Y3540263D01*
D01*
D01*
X855987Y3539726D01*
X854412Y3538517D01*
X824890Y3508995D01*
X741052D01*
X739249Y3510378D01*
X736746Y3511415D01*
X734060Y3511769D01*
X731374Y3511415D01*
X728871Y3510378D01*
X726721Y3508729D01*
X725072Y3506579D01*
X724035Y3504076D01*
X723681Y3501390D01*
X724035Y3498704D01*
X725072Y3496201D01*
X726455Y3494398D01*
Y3458210D01*
X726520Y3457716D01*
Y3450270D01*
Y3445080D01*
X734060D01*
X741600D01*
Y3450605D01*
X745921D01*
X747523Y3450584D01*
X752167Y3450294D01*
X753939Y3450056D01*
X755383Y3449762D01*
X756445Y3449438D01*
X757086Y3449142D01*
X757200Y3449056D01*
Y3446900D01*
X759674D01*
X759771Y3446881D01*
X759867Y3446900D01*
X792280D01*
Y3466980D01*
X759867D01*
X759771Y3466999D01*
X759674Y3466980D01*
X757200D01*
Y3466444D01*
X747587Y3465815D01*
X741665D01*
Y3493785D01*
X828040D01*
X828370Y3493828D01*
X830008Y3494044D01*
X831842Y3494804D01*
X833418Y3496012D01*
X862940Y3525535D01*
X876958D01*
X877289Y3524265D01*
X876002Y3523278D01*
X834922Y3482197D01*
D01*
X824469Y3471744D01*
X813772Y3461048D01*
X812564Y3459472D01*
X811804Y3457638D01*
X811545Y3455670D01*
Y3315310D01*
X805840Y3309605D01*
X733400D01*
X724533Y3318472D01*
X724675Y3322757D01*
X724882Y3324845D01*
X725166Y3326615D01*
X725510Y3328026D01*
X725884Y3329051D01*
X726226Y3329669D01*
X726435Y3329903D01*
X726445Y3329909D01*
X726716Y3329957D01*
X728951D01*
Y3332431D01*
X728970Y3332528D01*
X728951Y3332625D01*
Y3354037D01*
X704871D01*
Y3332625D01*
X704851Y3332528D01*
X704871Y3332431D01*
Y3329957D01*
X707105D01*
X707376Y3329909D01*
X707386Y3329903D01*
X707596Y3329669D01*
X707938Y3329051D01*
X708311Y3328026D01*
X708655Y3326615D01*
X708934Y3324876D01*
X709278Y3320261D01*
X709306Y3318485D01*
D01*
Y3315339D01*
X709565Y3313371D01*
X710324Y3311537D01*
X711533Y3309962D01*
X724872Y3296622D01*
X726448Y3295414D01*
X728282Y3294654D01*
X730250Y3294395D01*
X808990D01*
X810958Y3294654D01*
X812793Y3295414D01*
X814368Y3296622D01*
X824528Y3306783D01*
X825736Y3308358D01*
X826496Y3310192D01*
X826755Y3312160D01*
Y3452520D01*
X884530Y3510295D01*
X986180D01*
X999665Y3496810D01*
Y3426625D01*
Y3404098D01*
X997890Y3402323D01*
X996620Y3402849D01*
Y3414880D01*
X984707D01*
X984611Y3414899D01*
X984557Y3414889D01*
X984502Y3414897D01*
X984095Y3414880D01*
X982040D01*
Y3414794D01*
X978270Y3414637D01*
D01*
X977034Y3414748D01*
X975406Y3414985D01*
X974111Y3415272D01*
X973492Y3415477D01*
X972187Y3417177D01*
X969672Y3419107D01*
X966743Y3420320D01*
X963600Y3420734D01*
X960457Y3420320D01*
X957528Y3419107D01*
X955013Y3417177D01*
X953083Y3414662D01*
X951870Y3411733D01*
X951456Y3408590D01*
Y3407590D01*
X951870Y3404447D01*
X953083Y3401518D01*
X955013Y3399003D01*
X957528Y3397073D01*
X960457Y3395860D01*
X963600Y3395446D01*
X966743Y3395860D01*
X967298Y3396090D01*
X969215Y3396884D01*
X969672Y3397073D01*
X972187Y3399003D01*
X973492Y3400703D01*
X974111Y3400908D01*
X975406Y3401195D01*
X977005Y3401428D01*
X980340Y3401653D01*
X981699Y3401634D01*
X982040Y3401613D01*
Y3388300D01*
X993953D01*
X994050Y3388281D01*
X994146Y3388300D01*
X994222D01*
X994296Y3388293D01*
X994321Y3388300D01*
X996620D01*
X996620Y3388300D01*
X997890Y3388388D01*
X999444Y3387744D01*
X1001412Y3387485D01*
X1003380Y3387744D01*
X1005215Y3388504D01*
X1006790Y3389713D01*
X1012648Y3395570D01*
X1013856Y3397145D01*
X1014171Y3397905D01*
X1014588Y3398912D01*
X1014616Y3398979D01*
X1014875Y3400948D01*
Y3499960D01*
X1014616Y3501928D01*
X1013856Y3503763D01*
X1012648Y3505338D01*
X1005308Y3512677D01*
X994708Y3523278D01*
X993421Y3524265D01*
X993492Y3524539D01*
X993752Y3525535D01*
X1028090D01*
X1037605Y3516020D01*
Y3367975D01*
X1022415Y3352785D01*
X922020D01*
X920052Y3352526D01*
X918217Y3351766D01*
X916642Y3350558D01*
X887432Y3321348D01*
X886224Y3319773D01*
X885464Y3317938D01*
X885205Y3315970D01*
Y3280410D01*
X885464Y3278442D01*
X886224Y3276607D01*
X887432Y3275032D01*
X904388Y3258076D01*
X905964Y3256868D01*
X907798Y3256108D01*
X909766Y3255849D01*
X911608D01*
X912003Y3254544D01*
X913447Y3251845D01*
X915388Y3249478D01*
X917755Y3247537D01*
X920454Y3246093D01*
X923384Y3245205D01*
X926430Y3244905D01*
X929476Y3245205D01*
X932406Y3246093D01*
X935105Y3247537D01*
X937472Y3249478D01*
X939414Y3251845D01*
X940856Y3254544D01*
X941745Y3257473D01*
X942045Y3260520D01*
X941745Y3263566D01*
X940856Y3266496D01*
X939414Y3269195D01*
X937472Y3271562D01*
X935105Y3273503D01*
X932406Y3274947D01*
X929476Y3275835D01*
X926430Y3276135D01*
X926096Y3276102D01*
X923384Y3275835D01*
X920454Y3274947D01*
X917755Y3273503D01*
X915388Y3271562D01*
X914976Y3271059D01*
X912916D01*
X900415Y3283560D01*
Y3312820D01*
D01*
X925170Y3337575D01*
X1025565D01*
X1027533Y3337834D01*
X1029367Y3338594D01*
X1030942Y3339803D01*
X1050588Y3359448D01*
X1051796Y3361023D01*
X1052111Y3361783D01*
X1052556Y3362857D01*
X1052815Y3364825D01*
Y3519170D01*
X1052556Y3521138D01*
X1051796Y3522973D01*
X1050588Y3524548D01*
X1036618Y3538517D01*
X1035043Y3539726D01*
X1033208Y3540486D01*
X1031240Y3540745D01*
X991749D01*
X991363Y3542015D01*
X992437Y3542733D01*
X1008947Y3559243D01*
X1009900Y3560668D01*
X1010234Y3562350D01*
Y3583070D01*
X1076534Y3583070D01*
X1077432Y3582172D01*
X1077400Y3151011D01*
X1077297Y3149745D01*
X1077036Y3148431D01*
X1076243Y3146517D01*
X1075091Y3144794D01*
X1073626Y3143329D01*
X1071903Y3142177D01*
X1069989Y3141384D01*
X1068609Y3141110D01*
X1067380Y3140990D01*
X1067379Y3140990D01*
X394950Y3140980D01*
X393914D01*
X391881Y3141384D01*
X389967Y3142177D01*
X388244Y3143329D01*
X386779Y3144794D01*
X385627Y3146517D01*
X384834Y3148431D01*
X384430Y3150464D01*
Y3151500D01*
X384430Y3583070D01*
X408955Y3583070D01*
D02*
G37*
%LPC*%
G36*
X746972Y3847853D02*
X743197D01*
Y3841027D01*
X746972D01*
Y3847853D01*
D02*
G37*
G36*
X740657D02*
X736882D01*
Y3841027D01*
X740657D01*
Y3847853D01*
D02*
G37*
G36*
X772577Y3838927D02*
X766057D01*
Y3832907D01*
X772577D01*
Y3838927D01*
D02*
G37*
G36*
X763517D02*
X756997D01*
Y3832907D01*
X763517D01*
Y3838927D01*
D02*
G37*
G36*
X746972Y3838487D02*
X743197D01*
Y3831661D01*
X746972D01*
Y3838487D01*
D02*
G37*
G36*
X740657D02*
X736882D01*
Y3831661D01*
X740657D01*
Y3838487D01*
D02*
G37*
G36*
X787647Y3838158D02*
X781316D01*
Y3830846D01*
X787647D01*
Y3838158D01*
D02*
G37*
G36*
X665565Y3965391D02*
X664210D01*
Y3954770D01*
X670831D01*
Y3960125D01*
X670430Y3962140D01*
X669289Y3963849D01*
X667580Y3964990D01*
X665565Y3965391D01*
D02*
G37*
G36*
X737065D02*
X735710D01*
Y3954770D01*
X742331D01*
Y3960125D01*
X741930Y3962140D01*
X740789Y3963849D01*
X739080Y3964990D01*
X737065Y3965391D01*
D02*
G37*
G36*
X733170D02*
X731815D01*
X729800Y3964990D01*
X728091Y3963849D01*
X726950Y3962140D01*
X726549Y3960125D01*
Y3954770D01*
X733170D01*
Y3965391D01*
D02*
G37*
G36*
X661670D02*
X660315D01*
X658300Y3964990D01*
X656591Y3963849D01*
X655450Y3962140D01*
X655049Y3960125D01*
Y3954770D01*
X661670D01*
Y3965391D01*
D02*
G37*
G36*
X742331Y3952230D02*
X735710D01*
Y3941609D01*
X737065D01*
X739080Y3942010D01*
X740789Y3943151D01*
X741930Y3944860D01*
X742331Y3946875D01*
Y3952230D01*
D02*
G37*
G36*
X733170D02*
X726549D01*
Y3946875D01*
X726950Y3944860D01*
X728091Y3943151D01*
X729800Y3942010D01*
X731815Y3941609D01*
X733170D01*
Y3952230D01*
D02*
G37*
G36*
X670831D02*
X664210D01*
Y3941609D01*
X665565D01*
X667580Y3942010D01*
X669289Y3943151D01*
X670430Y3944860D01*
X670831Y3946875D01*
Y3952230D01*
D02*
G37*
G36*
X661670D02*
X655049D01*
Y3946875D01*
X655450Y3944860D01*
X656591Y3943151D01*
X658300Y3942010D01*
X660315Y3941609D01*
X661670D01*
Y3952230D01*
D02*
G37*
G36*
X914280Y3945770D02*
X894200D01*
Y3925690D01*
X914280D01*
Y3945770D01*
D02*
G37*
G36*
X878840Y3945857D02*
X876219Y3945511D01*
X873777Y3944500D01*
X871679Y3942891D01*
X870070Y3940793D01*
X869058Y3938351D01*
X868713Y3935730D01*
X869058Y3933109D01*
X870070Y3930667D01*
X871679Y3928569D01*
X873777Y3926960D01*
X876219Y3925948D01*
X878840Y3925603D01*
X881461Y3925948D01*
X883903Y3926960D01*
X886001Y3928569D01*
X887610Y3930667D01*
X888622Y3933109D01*
X888967Y3935730D01*
X888622Y3938351D01*
X887610Y3940793D01*
X886001Y3942891D01*
X883903Y3944500D01*
X881461Y3945511D01*
X878840Y3945857D01*
D02*
G37*
G36*
X777240D02*
X774619Y3945511D01*
X772177Y3944500D01*
X770079Y3942891D01*
X768470Y3940793D01*
X767458Y3938351D01*
X767113Y3935730D01*
X767458Y3933109D01*
X768470Y3930667D01*
X770079Y3928569D01*
X772177Y3926960D01*
X774619Y3925948D01*
X777240Y3925603D01*
X779861Y3925948D01*
X782303Y3926960D01*
X784401Y3928569D01*
X786010Y3930667D01*
X787022Y3933109D01*
X787367Y3935730D01*
X787022Y3938351D01*
X786010Y3940793D01*
X784401Y3942891D01*
X782303Y3944500D01*
X779861Y3945511D01*
X777240Y3945857D01*
D02*
G37*
G36*
X665565Y3930891D02*
X664210D01*
Y3920270D01*
X670831D01*
Y3925625D01*
X670430Y3927640D01*
X669289Y3929349D01*
X667580Y3930490D01*
X665565Y3930891D01*
D02*
G37*
G36*
X737065D02*
X735710D01*
Y3920270D01*
X742331D01*
Y3925625D01*
X741930Y3927640D01*
X740789Y3929349D01*
X739080Y3930490D01*
X737065Y3930891D01*
D02*
G37*
G36*
X733170D02*
X731815D01*
X729800Y3930490D01*
X728091Y3929349D01*
X726950Y3927640D01*
X726549Y3925625D01*
Y3920270D01*
X733170D01*
Y3930891D01*
D02*
G37*
G36*
X661670D02*
X660315D01*
X658300Y3930490D01*
X656591Y3929349D01*
X655450Y3927640D01*
X655049Y3925625D01*
Y3920270D01*
X661670D01*
Y3930891D01*
D02*
G37*
G36*
X684420Y3922730D02*
X681118D01*
Y3907960D01*
X684420D01*
Y3922730D01*
D02*
G37*
G36*
X742331Y3917730D02*
X735710D01*
Y3907109D01*
X737065D01*
X739080Y3907510D01*
X740789Y3908651D01*
X741930Y3910360D01*
X742331Y3912375D01*
Y3917730D01*
D02*
G37*
G36*
X733170D02*
X726549D01*
Y3912375D01*
X726950Y3910360D01*
X728091Y3908651D01*
X729800Y3907510D01*
X731815Y3907109D01*
X733170D01*
Y3917730D01*
D02*
G37*
G36*
X670831D02*
X664210D01*
Y3907109D01*
X665565D01*
X667580Y3907510D01*
X669289Y3908651D01*
X670430Y3910360D01*
X670831Y3912375D01*
Y3917730D01*
D02*
G37*
G36*
X661670D02*
X655049D01*
Y3912375D01*
X655450Y3910360D01*
X656591Y3908651D01*
X658300Y3907510D01*
X660315Y3907109D01*
X661670D01*
Y3917730D01*
D02*
G37*
G36*
X602140Y3888829D02*
X602043Y3888810D01*
X591630D01*
Y3875730D01*
X602043D01*
X602140Y3875711D01*
X602205Y3875724D01*
X602271Y3875714D01*
X602334Y3875730D01*
X604710D01*
Y3876653D01*
X606408Y3876760D01*
X607640Y3876223D01*
Y3875730D01*
X610016D01*
X610079Y3875714D01*
X610145Y3875724D01*
X610210Y3875711D01*
X610307Y3875730D01*
X621720D01*
Y3887810D01*
X610307D01*
X610210Y3887829D01*
X610176Y3887823D01*
X610142Y3887828D01*
X609451Y3887810D01*
X607640D01*
Y3887762D01*
X606395Y3887729D01*
X605347Y3887795D01*
X604710Y3887872D01*
Y3888810D01*
X602334D01*
X602271Y3888826D01*
X602205Y3888816D01*
X602140Y3888829D01*
D02*
G37*
G36*
X683840Y3880540D02*
X679570D01*
Y3874770D01*
X683840D01*
Y3880540D01*
D02*
G37*
G36*
X677030D02*
X672760D01*
Y3874770D01*
X677030D01*
Y3880540D01*
D02*
G37*
G36*
X632125Y3876518D02*
X629804Y3876213D01*
X627641Y3875317D01*
X625784Y3873892D01*
X624826Y3872643D01*
X622973Y3872596D01*
X621720Y3873675D01*
Y3873810D01*
X619246D01*
X619150Y3873829D01*
X619053Y3873810D01*
X607640D01*
Y3864397D01*
X607621Y3864301D01*
X607640Y3864203D01*
Y3861730D01*
X609431D01*
X609545Y3861307D01*
X609659Y3860660D01*
X609796Y3858993D01*
Y3853933D01*
X602337Y3846473D01*
X601278Y3844889D01*
X600906Y3843020D01*
Y3812153D01*
X600812Y3810040D01*
X600805Y3809981D01*
X600064D01*
Y3807546D01*
X600045Y3807460D01*
X600049Y3807435D01*
X600044Y3807411D01*
X600064Y3807314D01*
Y3798568D01*
X600044Y3798471D01*
X600049Y3798447D01*
X600045Y3798422D01*
X600064Y3798336D01*
Y3795901D01*
X600064D01*
X600321Y3794631D01*
X600064Y3794161D01*
X600064D01*
Y3791726D01*
X600045Y3791640D01*
X600049Y3791615D01*
X600044Y3791591D01*
X600064Y3791494D01*
Y3780081D01*
X612144D01*
Y3791494D01*
X612163Y3791591D01*
X612144Y3791688D01*
Y3794161D01*
X612036D01*
X611804Y3794631D01*
X612144Y3795901D01*
X612144D01*
Y3798375D01*
X612163Y3798471D01*
X612144Y3798568D01*
Y3807314D01*
X612163Y3807411D01*
X612144Y3807508D01*
Y3809981D01*
X610893D01*
X610857Y3810176D01*
X610674Y3812596D01*
Y3840997D01*
X618133Y3848457D01*
X619192Y3850041D01*
X619564Y3851910D01*
Y3858710D01*
X619603Y3859792D01*
X619695Y3860626D01*
X619815Y3861307D01*
X619929Y3861730D01*
X621720D01*
Y3862513D01*
X623267Y3862611D01*
X624734Y3862580D01*
X625784Y3861211D01*
X627641Y3859786D01*
X629804Y3858890D01*
X632125Y3858585D01*
X634445Y3858890D01*
X636608Y3859786D01*
X638465Y3861211D01*
X639890Y3863068D01*
X640786Y3865231D01*
X641091Y3867552D01*
X640786Y3869872D01*
X639890Y3872035D01*
X638465Y3873892D01*
X636608Y3875317D01*
X634445Y3876213D01*
X632125Y3876518D01*
D02*
G37*
G36*
X604710Y3873810D02*
X599440D01*
Y3868540D01*
X604710D01*
Y3873810D01*
D02*
G37*
G36*
X596900D02*
X591630D01*
Y3868540D01*
X596900D01*
Y3873810D01*
D02*
G37*
G36*
X683840Y3872230D02*
X679570D01*
Y3866460D01*
X683840D01*
Y3872230D01*
D02*
G37*
G36*
X677030D02*
X672760D01*
Y3866460D01*
X677030D01*
Y3872230D01*
D02*
G37*
G36*
X604710Y3866000D02*
X599440D01*
Y3860730D01*
X604710D01*
Y3866000D01*
D02*
G37*
G36*
X596900D02*
X591630D01*
Y3860730D01*
X596900D01*
Y3866000D01*
D02*
G37*
G36*
X796518Y3864048D02*
X790187D01*
Y3856736D01*
X796518D01*
Y3864048D01*
D02*
G37*
G36*
X787647D02*
X781316D01*
Y3856736D01*
X787647D01*
Y3864048D01*
D02*
G37*
G36*
X772577Y3861987D02*
X766057D01*
Y3855967D01*
X772577D01*
Y3861987D01*
D02*
G37*
G36*
X763517D02*
X756997D01*
Y3855967D01*
X763517D01*
Y3861987D01*
D02*
G37*
G36*
X729917Y3850567D02*
X724147D01*
Y3846297D01*
X729917D01*
Y3850567D01*
D02*
G37*
G36*
X721607D02*
X715837D01*
Y3846297D01*
X721607D01*
Y3850567D01*
D02*
G37*
G36*
X683840Y3851330D02*
X679570D01*
Y3845560D01*
X683840D01*
Y3851330D01*
D02*
G37*
G36*
X677030D02*
X672760D01*
Y3845560D01*
X677030D01*
Y3851330D01*
D02*
G37*
G36*
X729917Y3843757D02*
X724147D01*
Y3839487D01*
X729917D01*
Y3843757D01*
D02*
G37*
G36*
X721607D02*
X715837D01*
Y3839487D01*
X721607D01*
Y3843757D01*
D02*
G37*
G36*
X683840Y3843020D02*
X679570D01*
Y3837250D01*
X683840D01*
Y3843020D01*
D02*
G37*
G36*
X677030D02*
X672760D01*
Y3837250D01*
X677030D01*
Y3843020D01*
D02*
G37*
G36*
X623573Y3810000D02*
X623476Y3809981D01*
X614064D01*
Y3795901D01*
X623476D01*
X623573Y3795882D01*
X623670Y3795901D01*
X626144D01*
Y3797692D01*
X626566Y3797805D01*
X627213Y3797920D01*
X628881Y3798057D01*
X629746D01*
X630614Y3798031D01*
X631477Y3797952D01*
X632188Y3797846D01*
X632522Y3797771D01*
Y3796265D01*
X634996D01*
X635093Y3796246D01*
X635189Y3796265D01*
X645222D01*
Y3808457D01*
X635337D01*
X635298Y3808468D01*
X635204Y3808457D01*
X635189D01*
X635093Y3808476D01*
X634996Y3808457D01*
X632522D01*
Y3807993D01*
X630077Y3807825D01*
X629164D01*
X628082Y3807864D01*
X627248Y3807956D01*
X626566Y3808076D01*
X626144Y3808190D01*
Y3809981D01*
X623670D01*
X623573Y3810000D01*
D02*
G37*
G36*
X626144Y3794161D02*
X614064D01*
Y3780081D01*
X623484D01*
X623582Y3780062D01*
X623677Y3780081D01*
X626144D01*
Y3781416D01*
X626361Y3781459D01*
X628803Y3781657D01*
X630414D01*
X630641Y3781653D01*
X632360Y3781513D01*
X632522Y3781488D01*
Y3780445D01*
X634779D01*
X634780Y3780445D01*
X634784Y3780445D01*
X634996D01*
X635093Y3780426D01*
X635189Y3780445D01*
X645222D01*
Y3792637D01*
X635189D01*
X635093Y3792656D01*
X634996Y3792637D01*
X634784D01*
X634780Y3792637D01*
X634779Y3792637D01*
X632522D01*
Y3791594D01*
X632382Y3791572D01*
X630041Y3791425D01*
X629177D01*
X628075Y3791465D01*
X627239Y3791558D01*
X626556Y3791680D01*
X626144Y3791792D01*
Y3794161D01*
D02*
G37*
G36*
X636640Y3775880D02*
X630620D01*
Y3769360D01*
X636640D01*
Y3775880D01*
D02*
G37*
G36*
X789360Y3780970D02*
X783590D01*
Y3767200D01*
X789360D01*
Y3780970D01*
D02*
G37*
G36*
X636640Y3766820D02*
X630620D01*
Y3760300D01*
X636640D01*
Y3766820D01*
D02*
G37*
G36*
X604520Y3773389D02*
X601834Y3773035D01*
X599331Y3771998D01*
X597181Y3770349D01*
X595532Y3768199D01*
X594495Y3765696D01*
X594141Y3763010D01*
X594495Y3760324D01*
X595532Y3757821D01*
X597181Y3755671D01*
X599331Y3754022D01*
X601834Y3752985D01*
X604520Y3752631D01*
X607206Y3752985D01*
X609709Y3754022D01*
X611859Y3755671D01*
X613508Y3757821D01*
X614545Y3760324D01*
X614899Y3763010D01*
X614545Y3765696D01*
X613508Y3768199D01*
X611859Y3770349D01*
X609709Y3771998D01*
X607206Y3773035D01*
X604520Y3773389D01*
D02*
G37*
G36*
X789360Y3764660D02*
X783590D01*
Y3750890D01*
X789360D01*
Y3764660D01*
D02*
G37*
G36*
X611840Y3746110D02*
X606570D01*
Y3736340D01*
X611840D01*
Y3746110D01*
D02*
G37*
G36*
X604030D02*
X598760D01*
Y3736340D01*
X604030D01*
Y3746110D01*
D02*
G37*
G36*
X622300Y3741483D02*
X619846Y3740995D01*
X617765Y3739605D01*
X616375Y3737524D01*
X615887Y3735070D01*
X616375Y3732616D01*
X617765Y3730535D01*
X619846Y3729145D01*
X622300Y3728657D01*
X624754Y3729145D01*
X626835Y3730535D01*
X628225Y3732616D01*
X628713Y3735070D01*
X628225Y3737524D01*
X626835Y3739605D01*
X624754Y3740995D01*
X622300Y3741483D01*
D02*
G37*
G36*
X611840Y3733800D02*
X606570D01*
Y3724030D01*
X611840D01*
Y3733800D01*
D02*
G37*
G36*
X604030D02*
X598760D01*
Y3724030D01*
X604030D01*
Y3733800D01*
D02*
G37*
G36*
X659700Y3775880D02*
X639180D01*
Y3768090D01*
Y3760300D01*
X647160D01*
X647271Y3759892D01*
X647387Y3759243D01*
X647526Y3757562D01*
Y3754703D01*
X641593Y3748770D01*
X639819Y3747202D01*
X639021Y3746591D01*
X638351Y3746147D01*
X638282Y3746110D01*
X632760D01*
Y3726697D01*
X632741Y3726601D01*
X632760Y3726504D01*
Y3724030D01*
X634159D01*
X634208Y3723795D01*
X634416Y3721340D01*
Y3719340D01*
X634788Y3717471D01*
X635847Y3715887D01*
X640243Y3711490D01*
X640003Y3709670D01*
X640309Y3707349D01*
X641205Y3705186D01*
X642630Y3703329D01*
X644487Y3701905D01*
X646649Y3701009D01*
X648970Y3700703D01*
X651291Y3701009D01*
X653453Y3701905D01*
X655310Y3703329D01*
X656735Y3705186D01*
X657631Y3707349D01*
X657937Y3709670D01*
X657631Y3711991D01*
X656735Y3714153D01*
X655310Y3716010D01*
X653453Y3717435D01*
X651291Y3718331D01*
X648970Y3718637D01*
X647150Y3718397D01*
X644184Y3721363D01*
Y3721473D01*
X644283Y3723034D01*
X644379Y3723730D01*
X644441Y3724030D01*
X645840D01*
Y3726504D01*
X645859Y3726601D01*
X645840Y3726697D01*
Y3738553D01*
X645877Y3738621D01*
X646285Y3739237D01*
X648581Y3741944D01*
X655863Y3749227D01*
X656922Y3750811D01*
X657294Y3752680D01*
Y3757268D01*
X657335Y3758371D01*
X657427Y3759208D01*
X657549Y3759892D01*
X657660Y3760300D01*
X659700D01*
Y3775880D01*
D02*
G37*
G36*
X446510Y3708619D02*
X443824Y3708265D01*
X441321Y3707228D01*
X439171Y3705579D01*
X437522Y3703429D01*
X436485Y3700926D01*
X436131Y3698240D01*
X436485Y3695554D01*
X437522Y3693051D01*
X439171Y3690901D01*
X441321Y3689252D01*
X443824Y3688215D01*
X446510Y3687861D01*
X449196Y3688215D01*
X451699Y3689252D01*
X453849Y3690901D01*
X455498Y3693051D01*
X456535Y3695554D01*
X456889Y3698240D01*
X456535Y3700926D01*
X455498Y3703429D01*
X453849Y3705579D01*
X451699Y3707228D01*
X449196Y3708265D01*
X446510Y3708619D01*
D02*
G37*
G36*
X515430Y3684460D02*
X509660D01*
Y3679190D01*
X515430D01*
Y3684460D01*
D02*
G37*
G36*
X507120D02*
X501350D01*
Y3679190D01*
X507120D01*
Y3684460D01*
D02*
G37*
G36*
X515430Y3676650D02*
X509660D01*
Y3671380D01*
X515430D01*
Y3676650D01*
D02*
G37*
G36*
X507120D02*
X501350D01*
Y3671380D01*
X507120D01*
Y3676650D01*
D02*
G37*
G36*
X501650Y3662732D02*
Y3653790D01*
X510592D01*
X510405Y3655206D01*
X509368Y3657709D01*
X507719Y3659859D01*
X505569Y3661508D01*
X503066Y3662545D01*
X501650Y3662732D01*
D02*
G37*
G36*
X499110D02*
X497694Y3662545D01*
X495191Y3661508D01*
X493041Y3659859D01*
X491392Y3657709D01*
X490355Y3655206D01*
X490168Y3653790D01*
X499110D01*
Y3662732D01*
D02*
G37*
G36*
X510592Y3651250D02*
X501650D01*
Y3642308D01*
X503066Y3642495D01*
X505569Y3643532D01*
X507719Y3645181D01*
X509368Y3647331D01*
X510405Y3649834D01*
X510592Y3651250D01*
D02*
G37*
G36*
X499110D02*
X490168D01*
X490355Y3649834D01*
X491392Y3647331D01*
X493041Y3645181D01*
X495191Y3643532D01*
X497694Y3642495D01*
X499110Y3642308D01*
Y3651250D01*
D02*
G37*
G36*
X532430Y3684460D02*
X518350D01*
Y3671380D01*
X529506D01*
Y3660554D01*
X528601Y3659859D01*
X526952Y3657709D01*
X525915Y3655206D01*
X525561Y3652520D01*
X525915Y3649834D01*
X526952Y3647331D01*
X528601Y3645181D01*
X530751Y3643532D01*
X533254Y3642495D01*
X535940Y3642141D01*
X538626Y3642495D01*
X541129Y3643532D01*
X543279Y3645181D01*
X544928Y3647331D01*
X545965Y3649834D01*
X546319Y3652520D01*
X545965Y3655206D01*
X544928Y3657709D01*
X543279Y3659859D01*
X542374Y3660554D01*
Y3674110D01*
X541884Y3676572D01*
X540489Y3678659D01*
X536761Y3682387D01*
X534674Y3683782D01*
X532430Y3684228D01*
Y3684460D01*
D02*
G37*
G36*
X446510Y3624799D02*
X443824Y3624445D01*
X441321Y3623408D01*
X439171Y3621759D01*
X437522Y3619609D01*
X436485Y3617106D01*
X436131Y3614420D01*
X436485Y3611734D01*
X437522Y3609231D01*
X439171Y3607081D01*
X441321Y3605432D01*
X443824Y3604395D01*
X446510Y3604041D01*
X449196Y3604395D01*
X451699Y3605432D01*
X453849Y3607081D01*
X455498Y3609231D01*
X456535Y3611734D01*
X456889Y3614420D01*
X456535Y3617106D01*
X455498Y3619609D01*
X453849Y3621759D01*
X451699Y3623408D01*
X449196Y3624445D01*
X446510Y3624799D01*
D02*
G37*
G36*
X828040Y3945857D02*
X825419Y3945511D01*
X822977Y3944500D01*
X820879Y3942891D01*
X819270Y3940793D01*
X818258Y3938351D01*
X817913Y3935730D01*
X818258Y3933109D01*
X819270Y3930667D01*
X820879Y3928569D01*
X822646Y3927213D01*
Y3921760D01*
X823057Y3919696D01*
X824226Y3917946D01*
X831536Y3910636D01*
Y3860800D01*
X831947Y3858736D01*
X833116Y3856986D01*
X859476Y3830626D01*
Y3661807D01*
X859363Y3659904D01*
X859247Y3659003D01*
X859109Y3658294D01*
X859078Y3658190D01*
X857580D01*
Y3655717D01*
X857561Y3655620D01*
X857580Y3655522D01*
Y3644610D01*
Y3634277D01*
X857561Y3634181D01*
X857575Y3634107D01*
X857565Y3634034D01*
X857580Y3633975D01*
Y3631610D01*
X858644D01*
X858678Y3631424D01*
X858967Y3626957D01*
Y3623871D01*
X858907Y3622239D01*
X858765Y3620956D01*
X858575Y3619885D01*
X858355Y3619072D01*
X858140Y3618539D01*
X858043Y3618380D01*
X855830D01*
Y3615906D01*
X855811Y3615810D01*
X855830Y3615713D01*
Y3600300D01*
X873910D01*
Y3615713D01*
X873929Y3615810D01*
X873910Y3615906D01*
Y3618380D01*
X871697D01*
X871600Y3618539D01*
X871385Y3619072D01*
X871165Y3619885D01*
X870981Y3620921D01*
X870773Y3623432D01*
Y3627933D01*
X870935Y3630428D01*
X871048Y3631349D01*
X871096Y3631610D01*
X872160D01*
Y3633975D01*
X872175Y3634034D01*
X872165Y3634107D01*
X872179Y3634181D01*
X872160Y3634277D01*
Y3644610D01*
Y3655522D01*
X872179Y3655620D01*
X872160Y3655717D01*
Y3658190D01*
X870662D01*
X870631Y3658294D01*
X870505Y3658942D01*
X870264Y3661976D01*
Y3832860D01*
X869853Y3834924D01*
X868684Y3836674D01*
X842324Y3863034D01*
Y3912870D01*
X841913Y3914934D01*
X840744Y3916684D01*
X833434Y3923994D01*
Y3927213D01*
X835201Y3928569D01*
X836810Y3930667D01*
X837822Y3933109D01*
X838167Y3935730D01*
X837822Y3938351D01*
X836810Y3940793D01*
X835201Y3942891D01*
X833103Y3944500D01*
X830661Y3945511D01*
X828040Y3945857D01*
D02*
G37*
G36*
X456800Y3683130D02*
X436220D01*
Y3662550D01*
X441254D01*
X441371Y3662120D01*
X441487Y3661476D01*
X441626Y3659804D01*
Y3658130D01*
X441998Y3656261D01*
X443057Y3654677D01*
X467717Y3630016D01*
X469301Y3628958D01*
X471170Y3628586D01*
X626204D01*
X632233Y3622557D01*
Y3621412D01*
X632192Y3620309D01*
X632100Y3619472D01*
X631977Y3618788D01*
X631867Y3618380D01*
X628077D01*
Y3600300D01*
X646157D01*
Y3618380D01*
X642367D01*
X642256Y3618788D01*
X642140Y3619437D01*
X642001Y3621118D01*
Y3624580D01*
X641629Y3626449D01*
X640570Y3628033D01*
X631680Y3636924D01*
X630096Y3637982D01*
X628227Y3638354D01*
X473193D01*
X451417Y3660130D01*
X451435Y3660609D01*
X451527Y3661441D01*
X451649Y3662120D01*
X451766Y3662550D01*
X456800D01*
Y3683130D01*
D02*
G37*
G36*
X941070Y3618458D02*
X938710Y3618147D01*
X936511Y3617236D01*
X934623Y3615787D01*
X933174Y3613899D01*
X932263Y3611700D01*
X931952Y3609340D01*
X932263Y3606980D01*
X933174Y3604781D01*
X934623Y3602892D01*
X936511Y3601443D01*
X938710Y3600533D01*
X941070Y3600222D01*
X943430Y3600533D01*
X945629Y3601443D01*
X947517Y3602892D01*
X948966Y3604781D01*
X949877Y3606980D01*
X950188Y3609340D01*
X949877Y3611700D01*
X948966Y3613899D01*
X947517Y3615787D01*
X945629Y3617236D01*
X943430Y3618147D01*
X941070Y3618458D01*
D02*
G37*
G36*
X713317D02*
X710957Y3618147D01*
X708758Y3617236D01*
X706869Y3615787D01*
X705420Y3613899D01*
X704509Y3611700D01*
X704199Y3609340D01*
X704509Y3606980D01*
X705420Y3604781D01*
X706869Y3602892D01*
X708758Y3601443D01*
X710957Y3600533D01*
X713317Y3600222D01*
X715677Y3600533D01*
X717876Y3601443D01*
X719764Y3602892D01*
X721213Y3604781D01*
X722124Y3606980D01*
X722435Y3609340D01*
X722124Y3611700D01*
X721213Y3613899D01*
X719764Y3615787D01*
X717876Y3617236D01*
X715677Y3618147D01*
X713317Y3618458D01*
D02*
G37*
G36*
X599440D02*
X597080Y3618147D01*
X594881Y3617236D01*
X592993Y3615787D01*
X591544Y3613899D01*
X590633Y3611700D01*
X590322Y3609340D01*
X590633Y3606980D01*
X591544Y3604781D01*
X592993Y3602892D01*
X594881Y3601443D01*
X597080Y3600533D01*
X599440Y3600222D01*
X601800Y3600533D01*
X603999Y3601443D01*
X605887Y3602892D01*
X607336Y3604781D01*
X608247Y3606980D01*
X608558Y3609340D01*
X608247Y3611700D01*
X607336Y3613899D01*
X605887Y3615787D01*
X603999Y3617236D01*
X601800Y3618147D01*
X599440Y3618458D01*
D02*
G37*
G36*
X983920Y3604850D02*
X977900D01*
Y3599330D01*
X983920D01*
Y3604850D01*
D02*
G37*
G36*
X975360D02*
X969340D01*
Y3599330D01*
X975360D01*
Y3604850D01*
D02*
G37*
%LPD*%
G36*
X602222Y3886008D02*
X602469Y3885800D01*
X602882Y3885618D01*
X603460Y3885459D01*
X604202Y3885325D01*
X605109Y3885215D01*
X606347Y3885137D01*
X610210Y3885240D01*
Y3885023D01*
X610390Y3885020D01*
Y3879520D01*
X610210Y3879519D01*
Y3878300D01*
X610128Y3878532D01*
X609880Y3878740D01*
X609468Y3878922D01*
X608890Y3879081D01*
X608148Y3879215D01*
X607240Y3879325D01*
X606587Y3879366D01*
X604202Y3879215D01*
X603460Y3879081D01*
X602882Y3878922D01*
X602469Y3878740D01*
X602222Y3878532D01*
X602140Y3878300D01*
Y3879517D01*
X601960Y3879520D01*
Y3885020D01*
X602140Y3885025D01*
Y3886240D01*
X602222Y3886008D01*
D02*
G37*
G36*
X619217Y3870966D02*
X619420Y3870722D01*
X619757Y3870506D01*
X620229Y3870319D01*
X620837Y3870161D01*
X621580Y3870032D01*
X622019Y3869981D01*
X626304Y3870089D01*
Y3865014D01*
X626167Y3865068D01*
X625807Y3865117D01*
X625225Y3865161D01*
X623211Y3865202D01*
X620837Y3865051D01*
X620229Y3864941D01*
X619757Y3864811D01*
X619420Y3864661D01*
X619217Y3864491D01*
X619150Y3864301D01*
X618728Y3864233D01*
X618350Y3864030D01*
X618018Y3863693D01*
X617729Y3863221D01*
X617485Y3862613D01*
X617285Y3861870D01*
X617130Y3860993D01*
X617019Y3859980D01*
X616930Y3857550D01*
X612430D01*
X612408Y3858833D01*
X612230Y3860993D01*
X612075Y3861870D01*
X611875Y3862613D01*
X611631Y3863221D01*
X611342Y3863693D01*
X611009Y3864030D01*
X610632Y3864233D01*
X610210Y3864301D01*
X619150D01*
Y3865286D01*
X618964Y3865290D01*
X614898Y3865302D01*
Y3869802D01*
X619150Y3869909D01*
Y3871240D01*
X619217Y3870966D01*
D02*
G37*
G36*
X608055Y3812878D02*
X608285Y3809841D01*
X608423Y3809098D01*
X608592Y3808491D01*
X608791Y3808018D01*
X609021Y3807681D01*
X609282Y3807478D01*
X609573Y3807411D01*
X602634D01*
X602806Y3807478D01*
X602960Y3807681D01*
X603096Y3808018D01*
X603214Y3808491D01*
X603313Y3809098D01*
X603395Y3809841D01*
X603531Y3812878D01*
X603540Y3814160D01*
X608040D01*
X608055Y3812878D01*
D02*
G37*
G36*
X609282Y3798404D02*
X609021Y3798202D01*
X608791Y3797864D01*
X608592Y3797391D01*
X608423Y3796784D01*
X608285Y3796042D01*
X608191Y3795269D01*
X608285Y3794021D01*
X608423Y3793278D01*
X608592Y3792671D01*
X608791Y3792198D01*
X609021Y3791861D01*
X609282Y3791658D01*
X609573Y3791591D01*
X602634D01*
X602806Y3791658D01*
X602960Y3791861D01*
X603096Y3792198D01*
X603214Y3792671D01*
X603313Y3793278D01*
X603395Y3794021D01*
X603419Y3794554D01*
X603214Y3797391D01*
X603096Y3797864D01*
X602960Y3798202D01*
X602806Y3798404D01*
X602634Y3798471D01*
X609573D01*
X609282Y3798404D01*
D02*
G37*
G36*
X623641Y3806989D02*
X623843Y3806612D01*
X624181Y3806279D01*
X624653Y3805990D01*
X625261Y3805746D01*
X626003Y3805546D01*
X626881Y3805391D01*
X627893Y3805280D01*
X629801Y3805210D01*
X634485Y3805532D01*
X634823Y3805636D01*
X635025Y3805754D01*
X635093Y3805887D01*
Y3798835D01*
X635025Y3799188D01*
X634823Y3799503D01*
X634485Y3799782D01*
X634012Y3800023D01*
X633405Y3800227D01*
X632663Y3800394D01*
X631785Y3800524D01*
X630773Y3800617D01*
X629058Y3800669D01*
X629041Y3800669D01*
X626881Y3800491D01*
X626003Y3800336D01*
X625261Y3800136D01*
X624653Y3799892D01*
X624181Y3799604D01*
X623843Y3799271D01*
X623641Y3798893D01*
X623573Y3798471D01*
Y3807411D01*
X623641Y3806989D01*
D02*
G37*
G36*
X623612Y3790613D02*
X623816Y3790231D01*
X624156Y3789893D01*
X624631Y3789601D01*
X625242Y3789354D01*
X625988Y3789151D01*
X626869Y3788994D01*
X627885Y3788881D01*
X629755Y3788812D01*
X632663Y3788995D01*
X633405Y3789110D01*
X634012Y3789250D01*
X634485Y3789416D01*
X634823Y3789608D01*
X635025Y3789824D01*
X635093Y3790067D01*
Y3783015D01*
X635025Y3783258D01*
X634823Y3783475D01*
X634485Y3783666D01*
X634012Y3783832D01*
X633405Y3783972D01*
X632663Y3784087D01*
X630773Y3784240D01*
X629092Y3784275D01*
X629041Y3784275D01*
X626003Y3784029D01*
X625261Y3783881D01*
X624653Y3783701D01*
X624181Y3783488D01*
X623843Y3783242D01*
X623641Y3782963D01*
X623573Y3782651D01*
X623543Y3791041D01*
X623612Y3790613D01*
D02*
G37*
G36*
X656482Y3762833D02*
X656100Y3762630D01*
X655762Y3762291D01*
X655470Y3761816D01*
X655222Y3761206D01*
X655020Y3760460D01*
X654863Y3759579D01*
X654750Y3758561D01*
X654660Y3756121D01*
X650160D01*
X650137Y3757409D01*
X649958Y3759579D01*
X649800Y3760460D01*
X649597Y3761206D01*
X649350Y3761816D01*
X649057Y3762291D01*
X648720Y3762630D01*
X648337Y3762833D01*
X647910Y3762901D01*
X656910D01*
X656482Y3762833D01*
D02*
G37*
G36*
X648043Y3745131D02*
X646846Y3743903D01*
X644212Y3740796D01*
X643652Y3739952D01*
X643251Y3739205D01*
X643009Y3738553D01*
X642927Y3737998D01*
X643003Y3737539D01*
X643239Y3737176D01*
X636906Y3743509D01*
X637269Y3743273D01*
X637728Y3743197D01*
X638283Y3743279D01*
X638935Y3743521D01*
X639682Y3743922D01*
X640526Y3744482D01*
X641465Y3745201D01*
X643633Y3747116D01*
X644861Y3748312D01*
X648043Y3745131D01*
D02*
G37*
G36*
X642943Y3726533D02*
X642651Y3726331D01*
X642393Y3725993D01*
X642169Y3725521D01*
X641980Y3724913D01*
X641825Y3724171D01*
X641705Y3723293D01*
X641567Y3721133D01*
X641550Y3719850D01*
X637050D01*
X637033Y3721133D01*
X636775Y3724171D01*
X636620Y3724913D01*
X636431Y3725521D01*
X636207Y3725993D01*
X635950Y3726331D01*
X635657Y3726533D01*
X635331Y3726601D01*
X643270D01*
X642943Y3726533D01*
D02*
G37*
G36*
X867640Y3662302D02*
X867935Y3658589D01*
X868112Y3657682D01*
X868329Y3656939D01*
X868585Y3656362D01*
X868880Y3655949D01*
X869215Y3655702D01*
X869589Y3655620D01*
X860151D01*
X860525Y3655702D01*
X860860Y3655949D01*
X861155Y3656362D01*
X861411Y3656939D01*
X861628Y3657682D01*
X861805Y3658589D01*
X861943Y3659662D01*
X862100Y3662302D01*
X862120Y3663870D01*
X867620D01*
X867640Y3662302D01*
D02*
G37*
G36*
X869310Y3634083D02*
X869061Y3633791D01*
X868840Y3633303D01*
X868649Y3632621D01*
X868487Y3631743D01*
X868355Y3630670D01*
X868179Y3627940D01*
X868130Y3625005D01*
X868152Y3623707D01*
X868410Y3620587D01*
X868635Y3619319D01*
X868925Y3618247D01*
X869279Y3617369D01*
X869697Y3616687D01*
X870181Y3616200D01*
X870728Y3615907D01*
X871339Y3615810D01*
X858400D01*
X859012Y3615907D01*
X859559Y3616200D01*
X860042Y3616687D01*
X860461Y3617369D01*
X860815Y3618247D01*
X861105Y3619319D01*
X861330Y3620587D01*
X861491Y3622050D01*
X861613Y3625359D01*
X861605Y3626283D01*
X861253Y3631743D01*
X861091Y3632621D01*
X860900Y3633303D01*
X860679Y3633791D01*
X860430Y3634083D01*
X860151Y3634181D01*
X869589D01*
X869310Y3634083D01*
D02*
G37*
G36*
X450583Y3665053D02*
X450200Y3664850D01*
X449863Y3664513D01*
X449570Y3664041D01*
X449323Y3663433D01*
X449120Y3662690D01*
X448963Y3661813D01*
X448850Y3660800D01*
X448760Y3658370D01*
X444260D01*
X444238Y3659653D01*
X444058Y3661813D01*
X443900Y3662690D01*
X443698Y3663433D01*
X443450Y3664041D01*
X443158Y3664513D01*
X442820Y3664850D01*
X442438Y3665053D01*
X442010Y3665121D01*
X451010D01*
X450583Y3665053D01*
D02*
G37*
G36*
X639389Y3621271D02*
X639569Y3619101D01*
X639727Y3618220D01*
X639929Y3617474D01*
X640177Y3616864D01*
X640469Y3616389D01*
X640807Y3616050D01*
X641189Y3615847D01*
X641617Y3615779D01*
X632617D01*
X633044Y3615847D01*
X633427Y3616050D01*
X633764Y3616389D01*
X634057Y3616864D01*
X634304Y3617474D01*
X634507Y3618220D01*
X634664Y3619101D01*
X634777Y3620118D01*
X634867Y3622560D01*
X639367D01*
X639389Y3621271D01*
D02*
G37*
%LPC*%
G36*
X819587Y3845890D02*
X814317D01*
Y3840120D01*
X819587D01*
Y3845890D01*
D02*
G37*
G36*
X811777D02*
X806507D01*
Y3840120D01*
X811777D01*
Y3845890D01*
D02*
G37*
G36*
X819587Y3837580D02*
X814317D01*
Y3831810D01*
X819587D01*
Y3837580D01*
D02*
G37*
G36*
X811777D02*
X806507D01*
Y3831810D01*
X811777D01*
Y3837580D01*
D02*
G37*
G36*
X827193Y3618458D02*
X824833Y3618147D01*
X822634Y3617236D01*
X820746Y3615787D01*
X819297Y3613899D01*
X818386Y3611700D01*
X818075Y3609340D01*
X818386Y3606980D01*
X819297Y3604781D01*
X820746Y3602892D01*
X822634Y3601443D01*
X824833Y3600533D01*
X827193Y3600222D01*
X829553Y3600533D01*
X831752Y3601443D01*
X833641Y3602892D01*
X835090Y3604781D01*
X836001Y3606980D01*
X836311Y3609340D01*
X836001Y3611700D01*
X835090Y3613899D01*
X833641Y3615787D01*
X831752Y3617236D01*
X829553Y3618147D01*
X827193Y3618458D01*
D02*
G37*
G36*
X828463Y3592891D02*
Y3585210D01*
X836144D01*
X836001Y3586300D01*
X835090Y3588499D01*
X833641Y3590387D01*
X831752Y3591837D01*
X829553Y3592747D01*
X828463Y3592891D01*
D02*
G37*
G36*
X825923D02*
X824833Y3592747D01*
X822634Y3591837D01*
X820746Y3590387D01*
X819297Y3588499D01*
X818386Y3586300D01*
X818242Y3585210D01*
X825923D01*
Y3592891D01*
D02*
G37*
G36*
X836144Y3582670D02*
X828463D01*
Y3574989D01*
X829553Y3575133D01*
X831752Y3576044D01*
X833641Y3577493D01*
X835090Y3579381D01*
X836001Y3581580D01*
X836144Y3582670D01*
D02*
G37*
G36*
X825923D02*
X818242D01*
X818386Y3581580D01*
X819297Y3579381D01*
X820746Y3577493D01*
X822634Y3576044D01*
X824833Y3575133D01*
X825923Y3574989D01*
Y3582670D01*
D02*
G37*
G36*
X750993Y3567658D02*
X748633Y3567347D01*
X746434Y3566436D01*
X744546Y3564987D01*
X743097Y3563099D01*
X742186Y3560900D01*
X741875Y3558540D01*
X742186Y3556180D01*
X743097Y3553981D01*
X744546Y3552093D01*
X746434Y3550644D01*
X748633Y3549733D01*
X750993Y3549422D01*
X753353Y3549733D01*
X755552Y3550644D01*
X757441Y3552093D01*
X758890Y3553981D01*
X759801Y3556180D01*
X760111Y3558540D01*
X759801Y3560900D01*
X758890Y3563099D01*
X757441Y3564987D01*
X755552Y3566436D01*
X753353Y3567347D01*
X750993Y3567658D01*
D02*
G37*
G36*
X637117D02*
X634757Y3567347D01*
X632558Y3566436D01*
X630669Y3564987D01*
X629220Y3563099D01*
X628309Y3560900D01*
X627999Y3558540D01*
X628309Y3556180D01*
X629220Y3553981D01*
X630669Y3552093D01*
X632558Y3550644D01*
X634757Y3549733D01*
X637117Y3549422D01*
X639477Y3549733D01*
X641676Y3550644D01*
X643564Y3552093D01*
X645013Y3553981D01*
X645924Y3556180D01*
X646235Y3558540D01*
X645924Y3560900D01*
X645013Y3563099D01*
X643564Y3564987D01*
X641676Y3566436D01*
X639477Y3567347D01*
X637117Y3567658D01*
D02*
G37*
G36*
X963600Y3505824D02*
X960457Y3505410D01*
X959295Y3504929D01*
X958968Y3504864D01*
X958893Y3504814D01*
X958807Y3504791D01*
X958030Y3504405D01*
X957528Y3504197D01*
X957375Y3504080D01*
X957233Y3504009D01*
X955656Y3503338D01*
X954003Y3502743D01*
X952306Y3502234D01*
X948555Y3501417D01*
X946652Y3501141D01*
X942439Y3500811D01*
X941063Y3500785D01*
X912598D01*
X910630Y3500526D01*
X909555Y3500081D01*
X908795Y3499766D01*
X907220Y3498558D01*
X906100Y3497437D01*
X901362Y3492700D01*
X900154Y3491125D01*
X899394Y3489290D01*
X899135Y3487322D01*
Y3479043D01*
X898956Y3474189D01*
X898726Y3472115D01*
X898411Y3470359D01*
X898032Y3468967D01*
X897623Y3467960D01*
X897245Y3467349D01*
X896982Y3467085D01*
X896858Y3467020D01*
X896607Y3466980D01*
X889200D01*
Y3446900D01*
X924280D01*
Y3466980D01*
X916873D01*
X916622Y3467020D01*
X916498Y3467085D01*
X916235Y3467349D01*
X915857Y3467960D01*
X915448Y3468968D01*
X915069Y3470359D01*
X914761Y3472080D01*
X914378Y3476684D01*
X914345Y3478558D01*
Y3484172D01*
X915748Y3485575D01*
X941063D01*
X942438Y3485549D01*
X946652Y3485219D01*
X948555Y3484944D01*
X952306Y3484126D01*
X954003Y3483617D01*
X955655Y3483022D01*
X957233Y3482351D01*
X957375Y3482280D01*
X957528Y3482163D01*
X958030Y3481955D01*
X958807Y3481570D01*
X958893Y3481546D01*
X958968Y3481496D01*
X959295Y3481431D01*
X960457Y3480950D01*
X963600Y3480536D01*
X966743Y3480950D01*
X969672Y3482163D01*
X972187Y3484093D01*
X974117Y3486608D01*
X975330Y3489537D01*
X975744Y3492680D01*
Y3493680D01*
X975330Y3496823D01*
X974117Y3499752D01*
X972187Y3502267D01*
X969672Y3504197D01*
X966743Y3505410D01*
X963600Y3505824D01*
D02*
G37*
G36*
X741600Y3442540D02*
X735330D01*
Y3436770D01*
X741600D01*
Y3438883D01*
Y3442540D01*
D02*
G37*
G36*
X732790D02*
X726520D01*
Y3436770D01*
X732790D01*
Y3442540D01*
D02*
G37*
G36*
X513000D02*
X506730D01*
Y3439341D01*
X510429D01*
X510150Y3439236D01*
X509901Y3438921D01*
X509680Y3438395D01*
X509489Y3437661D01*
X509337Y3436770D01*
X513000D01*
Y3438883D01*
Y3442540D01*
D02*
G37*
G36*
X504190D02*
X497920D01*
Y3436770D01*
X501583D01*
X501431Y3437661D01*
X501240Y3438395D01*
X501020Y3438921D01*
X500770Y3439236D01*
X500490Y3439341D01*
X504190D01*
Y3442540D01*
D02*
G37*
G36*
X924280Y3441580D02*
X889200D01*
Y3421500D01*
X924280D01*
Y3435513D01*
Y3441580D01*
D02*
G37*
G36*
X792280D02*
X757200D01*
Y3421500D01*
X792280D01*
Y3435513D01*
Y3441580D01*
D02*
G37*
G36*
X691870D02*
X656790D01*
Y3421500D01*
X691870D01*
Y3441580D01*
D02*
G37*
G36*
X559870D02*
X524790D01*
Y3421500D01*
X559870D01*
Y3435513D01*
Y3441580D01*
D02*
G37*
G36*
X975140Y3478820D02*
X952060D01*
Y3472717D01*
Y3459407D01*
X952041Y3459311D01*
X952060Y3459214D01*
Y3456740D01*
X954278D01*
X954324Y3456731D01*
X954454Y3456568D01*
X954764Y3455936D01*
X955104Y3454886D01*
X955399Y3453521D01*
X955707Y3450035D01*
X955669Y3449606D01*
X955414Y3447817D01*
X955104Y3446384D01*
X954764Y3445334D01*
X954454Y3444702D01*
X954324Y3444539D01*
X954278Y3444530D01*
X952060D01*
Y3442056D01*
X952041Y3441960D01*
X952060Y3441862D01*
Y3438442D01*
X951252Y3438336D01*
X949417Y3437576D01*
X947842Y3436367D01*
X926270Y3414795D01*
X924280Y3414810D01*
Y3416180D01*
X891867D01*
X891770Y3416199D01*
X891674Y3416180D01*
X891646D01*
X891555Y3416190D01*
X891519Y3416180D01*
X889200D01*
Y3414685D01*
X888735Y3414543D01*
X887672Y3414329D01*
X879518Y3413754D01*
X878526Y3413745D01*
X871220D01*
X869252Y3413486D01*
X867418Y3412726D01*
X865842Y3411518D01*
X838533Y3384208D01*
X837325Y3382633D01*
X836565Y3380799D01*
X836306Y3378831D01*
Y3368194D01*
X836103Y3351182D01*
X835324Y3350584D01*
X833394Y3348069D01*
X832181Y3345140D01*
X831767Y3341997D01*
X832181Y3338854D01*
X833394Y3335925D01*
X835324Y3333410D01*
X836244Y3332704D01*
X836306Y3310858D01*
Y3282921D01*
X814730Y3261345D01*
X721970D01*
X688325Y3294990D01*
Y3384030D01*
Y3384873D01*
X688345Y3386427D01*
X688622Y3391078D01*
X688851Y3392857D01*
X689134Y3394308D01*
X689446Y3395379D01*
X689734Y3396029D01*
X689785Y3396100D01*
X691870D01*
Y3398574D01*
X691889Y3398670D01*
X691870Y3398767D01*
Y3416180D01*
X656790D01*
Y3396100D01*
X670395D01*
X670840Y3396030D01*
X670964Y3395964D01*
X671226Y3395702D01*
X671604Y3395092D01*
X672013Y3394088D01*
X672391Y3392700D01*
X672699Y3390984D01*
X673082Y3386390D01*
X673115Y3384521D01*
Y3332194D01*
Y3315312D01*
X671845Y3314981D01*
X670858Y3316268D01*
X603235Y3383890D01*
Y3436620D01*
X602976Y3438588D01*
X602216Y3440423D01*
X601008Y3441998D01*
X580688Y3462318D01*
X579113Y3463526D01*
X577278Y3464286D01*
X575310Y3464545D01*
X571486D01*
X567014Y3464627D01*
X562964Y3464913D01*
X561478Y3465113D01*
X560335Y3465343D01*
X559870Y3465485D01*
Y3466980D01*
X557551D01*
X557515Y3466990D01*
X557424Y3466980D01*
X557396D01*
X557299Y3466999D01*
X557203Y3466980D01*
X524790D01*
Y3464548D01*
X524530Y3464388D01*
X523928Y3464143D01*
X523031Y3463899D01*
X521895Y3463696D01*
X519158Y3463468D01*
X516614D01*
X513264Y3463635D01*
X513000Y3463665D01*
Y3464350D01*
X510526D01*
X510429Y3464369D01*
X510333Y3464350D01*
X500587D01*
X500490Y3464369D01*
X500489Y3464369D01*
X500487Y3464369D01*
X500391Y3464350D01*
X497920D01*
Y3463457D01*
X493260Y3463137D01*
X492752Y3463526D01*
X490918Y3464286D01*
X488950Y3464545D01*
X475622D01*
X473819Y3465928D01*
X471316Y3466965D01*
X468630Y3467319D01*
X465944Y3466965D01*
X463441Y3465928D01*
X461291Y3464279D01*
X459642Y3462130D01*
X458605Y3459626D01*
X458251Y3456940D01*
X458605Y3454254D01*
X459642Y3451750D01*
X461291Y3449601D01*
X463441Y3447952D01*
X465944Y3446915D01*
X468630Y3446561D01*
X471316Y3446915D01*
X473819Y3447952D01*
X475622Y3449335D01*
X488950D01*
X490918Y3449594D01*
X492752Y3450354D01*
X492760Y3450359D01*
X493310Y3450782D01*
X495598D01*
X497920Y3450673D01*
Y3445080D01*
X505460D01*
X513000D01*
Y3450840D01*
X518058Y3451152D01*
X518669D01*
X520461Y3451086D01*
X521860Y3450930D01*
X523031Y3450721D01*
X523928Y3450477D01*
X524530Y3450232D01*
X524790Y3450072D01*
Y3446900D01*
X557203D01*
X557299Y3446881D01*
X557396Y3446900D01*
X557424D01*
X557515Y3446890D01*
X557551Y3446900D01*
X559870D01*
Y3448395D01*
X560335Y3448537D01*
X561398Y3448751D01*
X569552Y3449326D01*
X570544Y3449335D01*
X572160D01*
X588025Y3433470D01*
Y3380740D01*
X588284Y3378772D01*
X589044Y3376938D01*
X590252Y3375363D01*
X657875Y3307740D01*
Y3206868D01*
X656472Y3205465D01*
X651916D01*
X651877Y3205594D01*
X650315Y3208515D01*
X648215Y3211075D01*
X645655Y3213175D01*
X642734Y3214737D01*
X639566Y3215698D01*
X636270Y3216022D01*
X632975Y3215698D01*
X629806Y3214737D01*
X626885Y3213175D01*
X624325Y3211075D01*
X622225Y3208515D01*
X620663Y3205594D01*
X619702Y3202426D01*
X619378Y3199130D01*
X619702Y3195834D01*
X620663Y3192666D01*
X622225Y3189745D01*
X624325Y3187185D01*
X626885Y3185085D01*
X629806Y3183524D01*
X632975Y3182562D01*
X636270Y3182238D01*
X639566Y3182562D01*
X642734Y3183524D01*
X645655Y3185085D01*
X648215Y3187185D01*
X650315Y3189745D01*
X650588Y3190255D01*
X659622D01*
X661590Y3190514D01*
X663425Y3191274D01*
X665000Y3192482D01*
X670858Y3198340D01*
X672066Y3199915D01*
X672097Y3199989D01*
X672381Y3200675D01*
X672826Y3201750D01*
X673085Y3203718D01*
Y3287418D01*
X674355Y3287749D01*
X675342Y3286462D01*
X713442Y3248362D01*
X715017Y3247154D01*
X716852Y3246394D01*
X718820Y3246135D01*
X817880D01*
X819848Y3246394D01*
X821683Y3247154D01*
X823258Y3248362D01*
X849288Y3274393D01*
X850497Y3275968D01*
X851257Y3277802D01*
X851516Y3279771D01*
Y3310858D01*
X851577Y3332704D01*
X852498Y3333410D01*
X854428Y3335925D01*
X855641Y3338854D01*
X856055Y3341997D01*
X855641Y3345140D01*
X854428Y3348069D01*
X852498Y3350584D01*
X851829Y3351098D01*
X851535Y3375700D01*
X874370Y3398535D01*
X877584D01*
X882056Y3398453D01*
X886106Y3398167D01*
X887592Y3397967D01*
X888735Y3397737D01*
X889200Y3397595D01*
Y3396100D01*
X891519D01*
X891555Y3396090D01*
X891646Y3396100D01*
X891674D01*
X891770Y3396081D01*
X891867Y3396100D01*
X924280D01*
Y3399502D01*
X928557Y3399576D01*
X929412D01*
X931380Y3399836D01*
X933214Y3400595D01*
X934789Y3401804D01*
X940725Y3407740D01*
D01*
X955435Y3422450D01*
X975140D01*
Y3426501D01*
Y3441862D01*
X975159Y3441960D01*
X975140Y3442056D01*
Y3444530D01*
X972922D01*
X972876Y3444539D01*
X972747Y3444702D01*
X972436Y3445334D01*
X972096Y3446384D01*
X971801Y3447749D01*
X971493Y3451235D01*
X971531Y3451664D01*
X971786Y3453453D01*
X972096Y3454886D01*
X972436Y3455936D01*
X972747Y3456568D01*
X972876Y3456731D01*
X972922Y3456740D01*
X975140D01*
Y3459214D01*
X975159Y3459311D01*
X975140Y3459407D01*
Y3474857D01*
Y3478820D01*
D02*
G37*
G36*
X792280Y3416180D02*
X776010D01*
Y3407410D01*
X792280D01*
Y3416180D01*
D02*
G37*
G36*
X773470D02*
X757200D01*
Y3407410D01*
X773470D01*
Y3416180D01*
D02*
G37*
G36*
X559870D02*
X543600D01*
Y3407410D01*
X559870D01*
Y3416180D01*
D02*
G37*
G36*
X541060D02*
X524790D01*
Y3411641D01*
X525711Y3411853D01*
X526446Y3412110D01*
X526971Y3412408D01*
X527286Y3412744D01*
X527391Y3413120D01*
Y3407410D01*
X541060D01*
Y3416180D01*
D02*
G37*
G36*
Y3404870D02*
X527391D01*
Y3399160D01*
X527286Y3399536D01*
X526971Y3399873D01*
X526446Y3400170D01*
X525711Y3400427D01*
X524790Y3400639D01*
Y3396100D01*
X541060D01*
Y3404870D01*
D02*
G37*
G36*
X792280D02*
X776010D01*
Y3396100D01*
X792280D01*
Y3404870D01*
D02*
G37*
G36*
X773470D02*
X757200D01*
Y3396100D01*
X773470D01*
Y3404870D01*
D02*
G37*
G36*
X559870D02*
X543600D01*
Y3396100D01*
X559870D01*
Y3404870D01*
D02*
G37*
G36*
X689299Y3466999D02*
X689203Y3466980D01*
X656790D01*
Y3446900D01*
X689203D01*
X689299Y3446881D01*
X689396Y3446900D01*
X689556D01*
X689590Y3446897D01*
X689599Y3446900D01*
X691870D01*
Y3448455D01*
X692161Y3448554D01*
X693061Y3448755D01*
X699711Y3449276D01*
X701055Y3447932D01*
Y3385328D01*
X701314Y3383359D01*
X702074Y3381525D01*
X703282Y3379950D01*
X709140Y3374092D01*
X710715Y3372884D01*
X711475Y3372569D01*
X712550Y3372124D01*
X714518Y3371865D01*
X763930D01*
X773445Y3362350D01*
Y3351828D01*
X771824Y3350584D01*
X769894Y3348069D01*
X768681Y3345140D01*
X768267Y3341997D01*
X768681Y3338854D01*
X769894Y3335925D01*
X771824Y3333410D01*
X774339Y3331480D01*
X777268Y3330267D01*
X780411Y3329854D01*
X783554Y3330267D01*
X786483Y3331480D01*
X788998Y3333410D01*
X790928Y3335925D01*
X792141Y3338854D01*
X792554Y3341997D01*
X792141Y3345140D01*
X790928Y3348069D01*
X788998Y3350584D01*
X788655Y3350847D01*
Y3365500D01*
X788396Y3367468D01*
X787636Y3369302D01*
X786428Y3370878D01*
X772458Y3384848D01*
X770882Y3386056D01*
X769048Y3386816D01*
X767080Y3387075D01*
X717668D01*
X716265Y3388478D01*
Y3444310D01*
Y3451082D01*
X716006Y3453051D01*
X715561Y3454125D01*
X715246Y3454885D01*
X714038Y3456460D01*
X713695Y3456802D01*
X708180Y3462318D01*
X706605Y3463526D01*
X704771Y3464286D01*
X702802Y3464545D01*
X702075D01*
X698069Y3464626D01*
X694454Y3464910D01*
X693150Y3465105D01*
X692161Y3465326D01*
X691870Y3465425D01*
Y3466980D01*
X689599D01*
X689590Y3466983D01*
X689556Y3466980D01*
X689396D01*
X689299Y3466999D01*
D02*
G37*
G36*
X653081Y3309921D02*
X619459D01*
Y3304513D01*
X619419Y3304262D01*
X619354Y3304138D01*
X619090Y3303875D01*
X618479Y3303497D01*
X617471Y3303088D01*
X616079Y3302709D01*
X614358Y3302401D01*
X609755Y3302018D01*
X607882Y3301985D01*
X553499D01*
X551531Y3301726D01*
X549697Y3300966D01*
X548122Y3299758D01*
X545703Y3297339D01*
X531803Y3297467D01*
X524578Y3297786D01*
X523435Y3297906D01*
X523173Y3298395D01*
X521232Y3300762D01*
X518865Y3302704D01*
X516166Y3304146D01*
X513236Y3305035D01*
X510190Y3305335D01*
X507144Y3305035D01*
X504214Y3304146D01*
X501515Y3302704D01*
X499148Y3300762D01*
X497206Y3298395D01*
X495763Y3295696D01*
X494875Y3292766D01*
X494575Y3289720D01*
X494875Y3286674D01*
X495763Y3283744D01*
X497206Y3281045D01*
X499148Y3278678D01*
X501515Y3276736D01*
X504214Y3275293D01*
X507144Y3274405D01*
X510190Y3274105D01*
X513236Y3274405D01*
X516166Y3275293D01*
X518865Y3276736D01*
X521232Y3278678D01*
X523173Y3281045D01*
X523256Y3281199D01*
X548466Y3282115D01*
X548839D01*
X550808Y3282374D01*
X552642Y3283134D01*
X554217Y3284342D01*
X556650Y3286775D01*
X607396D01*
X612249Y3286595D01*
X614324Y3286366D01*
X616080Y3286051D01*
X617472Y3285672D01*
X618479Y3285263D01*
X619090Y3284885D01*
X619354Y3284622D01*
X619419Y3284498D01*
X619459Y3284247D01*
Y3276299D01*
X653081D01*
Y3309921D01*
D02*
G37*
G36*
X987130Y3305335D02*
X984084Y3305035D01*
X981154Y3304146D01*
X978455Y3302704D01*
X976088Y3300762D01*
X974146Y3298395D01*
X972703Y3295696D01*
X971815Y3292766D01*
X971515Y3289720D01*
X971815Y3286674D01*
X972703Y3283744D01*
X974146Y3281045D01*
X976088Y3278678D01*
X978455Y3276736D01*
X981154Y3275293D01*
X984084Y3274405D01*
X987130Y3274105D01*
X990176Y3274405D01*
X993106Y3275293D01*
X995805Y3276736D01*
X998172Y3278678D01*
X1000114Y3281045D01*
X1001556Y3283744D01*
X1002445Y3286674D01*
X1002745Y3289720D01*
X1002445Y3292766D01*
X1001556Y3295696D01*
X1000114Y3298395D01*
X998172Y3300762D01*
X995805Y3302704D01*
X993106Y3304146D01*
X990176Y3305035D01*
X987130Y3305335D01*
D02*
G37*
G36*
X949730D02*
X946684Y3305035D01*
X943754Y3304146D01*
X941055Y3302704D01*
X938688Y3300762D01*
X936747Y3298395D01*
X935303Y3295696D01*
X934415Y3292766D01*
X934115Y3289720D01*
X934415Y3286674D01*
X935303Y3283744D01*
X936747Y3281045D01*
X938688Y3278678D01*
X941055Y3276736D01*
X943754Y3275293D01*
X946684Y3274405D01*
X949730Y3274105D01*
X952776Y3274405D01*
X955706Y3275293D01*
X958405Y3276736D01*
X960772Y3278678D01*
X962713Y3281045D01*
X964156Y3283744D01*
X965045Y3286674D01*
X965345Y3289720D01*
X965045Y3292766D01*
X964156Y3295696D01*
X962713Y3298395D01*
X960772Y3300762D01*
X958405Y3302704D01*
X955706Y3304146D01*
X952776Y3305035D01*
X949730Y3305335D01*
D02*
G37*
G36*
X472790D02*
X469744Y3305035D01*
X466814Y3304146D01*
X464115Y3302704D01*
X461748Y3300762D01*
X459806Y3298395D01*
X458363Y3295696D01*
X457475Y3292766D01*
X457175Y3289720D01*
X457475Y3286674D01*
X458363Y3283744D01*
X459806Y3281045D01*
X461748Y3278678D01*
X464115Y3276736D01*
X466814Y3275293D01*
X469744Y3274405D01*
X472790Y3274105D01*
X475836Y3274405D01*
X478766Y3275293D01*
X481465Y3276736D01*
X483832Y3278678D01*
X485774Y3281045D01*
X487216Y3283744D01*
X488105Y3286674D01*
X488405Y3289720D01*
X488105Y3292766D01*
X487216Y3295696D01*
X485774Y3298395D01*
X483832Y3300762D01*
X481465Y3302704D01*
X478766Y3304146D01*
X475836Y3305035D01*
X472790Y3305335D01*
D02*
G37*
G36*
X969700Y3266510D02*
Y3252290D01*
X983920D01*
X983745Y3254066D01*
X982857Y3256996D01*
X981414Y3259695D01*
X979472Y3262061D01*
X977105Y3264004D01*
X974406Y3265446D01*
X971476Y3266335D01*
X969700Y3266510D01*
D02*
G37*
G36*
X967160D02*
X965384Y3266335D01*
X962454Y3265446D01*
X959755Y3264004D01*
X957388Y3262061D01*
X955446Y3259695D01*
X954004Y3256996D01*
X953115Y3254066D01*
X952940Y3252290D01*
X967160D01*
Y3266510D01*
D02*
G37*
G36*
X492760D02*
Y3252290D01*
X506980D01*
X506805Y3254066D01*
X505916Y3256996D01*
X504473Y3259695D01*
X502532Y3262061D01*
X502044Y3262462D01*
D01*
X500165Y3264004D01*
X497466Y3265446D01*
X494536Y3266335D01*
X494003Y3266388D01*
D01*
X492760Y3266510D01*
D02*
G37*
G36*
X490220D02*
X488444Y3266335D01*
X485514Y3265446D01*
X482815Y3264004D01*
X480448Y3262061D01*
X478507Y3259695D01*
X477063Y3256996D01*
X476175Y3254066D01*
X476000Y3252290D01*
X490220D01*
Y3266510D01*
D02*
G37*
G36*
X1010330Y3276135D02*
X1007284Y3275835D01*
X1004354Y3274947D01*
X1001655Y3273503D01*
X999288Y3271562D01*
X997346Y3269195D01*
X995903Y3266496D01*
X995015Y3263566D01*
X994715Y3260520D01*
X995015Y3257473D01*
X995903Y3254544D01*
X997346Y3251845D01*
X999288Y3249478D01*
X1001655Y3247537D01*
X1004354Y3246093D01*
X1007284Y3245205D01*
X1010330Y3244905D01*
X1013376Y3245205D01*
X1016306Y3246093D01*
X1019005Y3247537D01*
X1021372Y3249478D01*
X1023314Y3251845D01*
X1024756Y3254544D01*
X1025645Y3257473D01*
X1025945Y3260520D01*
X1025645Y3263566D01*
X1024756Y3266496D01*
X1023314Y3269195D01*
X1021372Y3271562D01*
X1019005Y3273503D01*
X1016306Y3274947D01*
X1013376Y3275835D01*
X1010330Y3276135D01*
D02*
G37*
G36*
X533390D02*
X530344Y3275835D01*
X527414Y3274947D01*
X524715Y3273503D01*
X522348Y3271562D01*
X520406Y3269195D01*
X518964Y3266496D01*
X518075Y3263566D01*
X517775Y3260520D01*
X518075Y3257473D01*
X518964Y3254544D01*
X520406Y3251845D01*
X522348Y3249478D01*
X524715Y3247537D01*
X527414Y3246093D01*
X530344Y3245205D01*
X533390Y3244905D01*
X536436Y3245205D01*
X539366Y3246093D01*
X542065Y3247537D01*
X544432Y3249478D01*
X546373Y3251845D01*
X547817Y3254544D01*
X548705Y3257473D01*
X549005Y3260520D01*
X548705Y3263566D01*
X547817Y3266496D01*
X546373Y3269195D01*
X544432Y3271562D01*
X542065Y3273503D01*
X539366Y3274947D01*
X536436Y3275835D01*
X533390Y3276135D01*
D02*
G37*
G36*
X449490D02*
X446444Y3275835D01*
X443514Y3274947D01*
X440815Y3273503D01*
X438448Y3271562D01*
X436506Y3269195D01*
X435063Y3266496D01*
X434175Y3263566D01*
X433875Y3260520D01*
X434175Y3257473D01*
X435063Y3254544D01*
X436506Y3251845D01*
X438448Y3249478D01*
X440815Y3247537D01*
X443514Y3246093D01*
X446444Y3245205D01*
X449490Y3244905D01*
X452536Y3245205D01*
X455466Y3246093D01*
X458165Y3247537D01*
X460532Y3249478D01*
X462473Y3251845D01*
X463917Y3254544D01*
X464805Y3257473D01*
X465105Y3260520D01*
X464805Y3263566D01*
X463917Y3266496D01*
X462473Y3269195D01*
X460532Y3271562D01*
X458165Y3273503D01*
X455466Y3274947D01*
X452536Y3275835D01*
X449490Y3276135D01*
D02*
G37*
G36*
X983920Y3249750D02*
X969700D01*
Y3235530D01*
X971476Y3235705D01*
X974406Y3236594D01*
X977105Y3238036D01*
X979472Y3239978D01*
X981414Y3242345D01*
X982857Y3245044D01*
X983745Y3247974D01*
X983920Y3249750D01*
D02*
G37*
G36*
X967160D02*
X952940D01*
X953115Y3247974D01*
X954004Y3245044D01*
X955446Y3242345D01*
X957388Y3239978D01*
X959755Y3238036D01*
X962454Y3236594D01*
X965384Y3235705D01*
X967160Y3235530D01*
Y3249750D01*
D02*
G37*
G36*
X506980D02*
X492760D01*
Y3235530D01*
X494536Y3235705D01*
X497466Y3236594D01*
X500165Y3238036D01*
X502532Y3239978D01*
X504473Y3242345D01*
X505916Y3245044D01*
X506805Y3247974D01*
X506980Y3249750D01*
D02*
G37*
G36*
X490220D02*
X476000D01*
X476175Y3247974D01*
X477063Y3245044D01*
X478507Y3242345D01*
X480448Y3239978D01*
X482815Y3238036D01*
X485514Y3236594D01*
X488444Y3235705D01*
X490220Y3235530D01*
Y3249750D01*
D02*
G37*
G36*
X636270Y3263012D02*
X634434Y3262831D01*
X632975Y3262688D01*
X629806Y3261726D01*
X626885Y3260165D01*
X624325Y3258065D01*
X622225Y3255505D01*
X620663Y3252585D01*
X619702Y3249416D01*
X619378Y3246120D01*
X619702Y3242824D01*
X620663Y3239655D01*
X622225Y3236735D01*
X624325Y3234175D01*
X626885Y3232075D01*
X629806Y3230514D01*
X632975Y3229552D01*
X636270Y3229228D01*
X639566Y3229552D01*
X642734Y3230514D01*
X645655Y3232075D01*
X648215Y3234175D01*
X650315Y3236735D01*
X651877Y3239655D01*
X652838Y3242824D01*
X653162Y3246120D01*
X652838Y3249416D01*
X651877Y3252585D01*
X650315Y3255505D01*
X648215Y3258065D01*
X645655Y3260165D01*
X642734Y3261726D01*
X639566Y3262688D01*
X638106Y3262831D01*
X636270Y3263012D01*
D02*
G37*
G36*
X1002030Y3239835D02*
X998984Y3239535D01*
X996054Y3238647D01*
X993355Y3237203D01*
X990988Y3235262D01*
X989046Y3232895D01*
X987604Y3230196D01*
X986715Y3227267D01*
X986415Y3224220D01*
X986715Y3221174D01*
X987604Y3218244D01*
X989046Y3215545D01*
X990988Y3213178D01*
X993355Y3211237D01*
X996054Y3209793D01*
X998984Y3208905D01*
X1002030Y3208605D01*
X1005076Y3208905D01*
X1008006Y3209793D01*
X1010705Y3211237D01*
X1013072Y3213178D01*
X1015014Y3215545D01*
X1016457Y3218244D01*
X1017345Y3221174D01*
X1017645Y3224220D01*
X1017345Y3227267D01*
X1016457Y3230196D01*
X1015014Y3232895D01*
X1013072Y3235262D01*
X1010705Y3237203D01*
X1008006Y3238647D01*
X1005076Y3239535D01*
X1002030Y3239835D01*
D02*
G37*
G36*
X934830D02*
X931784Y3239535D01*
X928854Y3238647D01*
X926155Y3237203D01*
X923788Y3235262D01*
X921846Y3232895D01*
X920404Y3230196D01*
X919515Y3227267D01*
X919215Y3224220D01*
X919515Y3221174D01*
X920404Y3218244D01*
X921846Y3215545D01*
X923788Y3213178D01*
X926155Y3211237D01*
X928854Y3209793D01*
X931784Y3208905D01*
X934830Y3208605D01*
X937876Y3208905D01*
X940806Y3209793D01*
X943505Y3211237D01*
X945872Y3213178D01*
X947813Y3215545D01*
X949257Y3218244D01*
X950145Y3221174D01*
X950445Y3224220D01*
X950145Y3227267D01*
X949257Y3230196D01*
X947813Y3232895D01*
X945872Y3235262D01*
X943505Y3237203D01*
X940806Y3238647D01*
X937876Y3239535D01*
X934830Y3239835D01*
D02*
G37*
G36*
X457890D02*
X454844Y3239535D01*
X451914Y3238647D01*
X449215Y3237203D01*
X446848Y3235262D01*
X444907Y3232895D01*
X443464Y3230196D01*
X442575Y3227267D01*
X442275Y3224220D01*
X442575Y3221174D01*
X443464Y3218244D01*
X444907Y3215545D01*
X446848Y3213178D01*
X449215Y3211237D01*
X451914Y3209793D01*
X454844Y3208905D01*
X457890Y3208605D01*
X460936Y3208905D01*
X463866Y3209793D01*
X466565Y3211237D01*
X468932Y3213178D01*
X470873Y3215545D01*
X472317Y3218244D01*
X473205Y3221174D01*
X473505Y3224220D01*
X473205Y3227267D01*
X472317Y3230196D01*
X470873Y3232895D01*
X468932Y3235262D01*
X466565Y3237203D01*
X463866Y3238647D01*
X460936Y3239535D01*
X457890Y3239835D01*
D02*
G37*
G36*
X525090D02*
X522044Y3239535D01*
X519114Y3238647D01*
X516415Y3237203D01*
X514048Y3235262D01*
X512106Y3232895D01*
X510663Y3230196D01*
X509775Y3227267D01*
X509475Y3224220D01*
X509775Y3221174D01*
X510663Y3218244D01*
X512106Y3215545D01*
X514048Y3213178D01*
X516415Y3211237D01*
X516684Y3211093D01*
X517100Y3210701D01*
X517574Y3209891D01*
X518130Y3208398D01*
X518665Y3206281D01*
X519126Y3203658D01*
X520205Y3187349D01*
X520206Y3187258D01*
Y3182040D01*
X520578Y3180171D01*
X521637Y3178587D01*
X528677Y3171547D01*
X530261Y3170488D01*
X532130Y3170116D01*
X899898D01*
X905389Y3170058D01*
X911699Y3169754D01*
X912970Y3169621D01*
X913773Y3169490D01*
X914410Y3168660D01*
X914678Y3168454D01*
X914247Y3167184D01*
X503673D01*
X496374Y3174483D01*
Y3177094D01*
X496597Y3183818D01*
X497066Y3189239D01*
X497371Y3191223D01*
X497712Y3192735D01*
X498039Y3193687D01*
X498198Y3193966D01*
X498262Y3194019D01*
X500165Y3195037D01*
X502532Y3196978D01*
X504473Y3199345D01*
X505916Y3202044D01*
X506805Y3204973D01*
X507105Y3208020D01*
X506805Y3211066D01*
X505916Y3213996D01*
X504473Y3216695D01*
X502532Y3219062D01*
X500165Y3221003D01*
X497466Y3222447D01*
X494536Y3223335D01*
X491490Y3223635D01*
X488444Y3223335D01*
X485514Y3222447D01*
X482815Y3221003D01*
X480448Y3219062D01*
X478507Y3216695D01*
X477063Y3213996D01*
X476175Y3211066D01*
X475875Y3208020D01*
X476175Y3204973D01*
X477063Y3202044D01*
X478507Y3199345D01*
X480448Y3196978D01*
X482815Y3195037D01*
X484718Y3194019D01*
X484782Y3193966D01*
X484941Y3193687D01*
X485268Y3192735D01*
X485585Y3191327D01*
X486606Y3176825D01*
Y3172460D01*
X486978Y3170591D01*
X488037Y3169007D01*
X498197Y3158847D01*
X499781Y3157788D01*
X501650Y3157416D01*
X949960D01*
X951829Y3157788D01*
X953413Y3158847D01*
X964843Y3170276D01*
X965902Y3171861D01*
X966274Y3173730D01*
Y3191671D01*
X967215Y3192524D01*
X968430Y3192405D01*
X971476Y3192705D01*
X974406Y3193593D01*
X977105Y3195037D01*
X979472Y3196978D01*
X981414Y3199345D01*
X982857Y3202044D01*
X983745Y3204973D01*
X984045Y3208020D01*
X983745Y3211066D01*
X982857Y3213996D01*
X981414Y3216695D01*
X979472Y3219062D01*
X977105Y3221003D01*
X974406Y3222447D01*
X971476Y3223335D01*
X968430Y3223635D01*
X965384Y3223335D01*
X962454Y3222447D01*
X959755Y3221003D01*
X957388Y3219062D01*
X955446Y3216695D01*
X954004Y3213996D01*
X953115Y3211066D01*
X952815Y3208020D01*
X953115Y3204973D01*
X954004Y3202044D01*
X955446Y3199345D01*
X956738Y3197771D01*
X956506Y3196606D01*
Y3175753D01*
X947937Y3167184D01*
X927253D01*
X926822Y3168454D01*
X927090Y3168660D01*
X928515Y3170517D01*
X929411Y3172679D01*
X929717Y3175000D01*
X929411Y3177321D01*
X928515Y3179483D01*
X927090Y3181340D01*
X925233Y3182766D01*
X923071Y3183661D01*
X920750Y3183967D01*
X918429Y3183661D01*
X916267Y3182766D01*
X914410Y3181340D01*
X913923Y3180706D01*
X899843Y3179884D01*
X534153D01*
X529974Y3184063D01*
Y3184508D01*
X530111Y3192233D01*
X530649Y3200360D01*
X531042Y3203587D01*
X531515Y3206281D01*
X532050Y3208398D01*
X532606Y3209891D01*
X533080Y3210701D01*
X533496Y3211093D01*
X533765Y3211237D01*
X536132Y3213178D01*
X538074Y3215545D01*
X539516Y3218244D01*
X540405Y3221174D01*
X540705Y3224220D01*
X540405Y3227267D01*
X539516Y3230196D01*
X538074Y3232895D01*
X536132Y3235262D01*
X533765Y3237203D01*
X531066Y3238647D01*
X528136Y3239535D01*
X525090Y3239835D01*
D02*
G37*
%LPD*%
G36*
X959959Y3483889D02*
X958317Y3484704D01*
X956602Y3485434D01*
X954815Y3486077D01*
X952955Y3486635D01*
X949017Y3487493D01*
X946938Y3487794D01*
X942564Y3488137D01*
X940268Y3488180D01*
Y3498180D01*
X942564Y3498223D01*
X946938Y3498566D01*
X949017Y3498867D01*
X952955Y3499725D01*
X954815Y3500283D01*
X956602Y3500926D01*
X958317Y3501656D01*
X959959Y3502471D01*
Y3483889D01*
D02*
G37*
G36*
X911790Y3476554D02*
X912190Y3471744D01*
X912540Y3469790D01*
X912990Y3468137D01*
X913540Y3466784D01*
X914190Y3465732D01*
X914940Y3464980D01*
X915790Y3464529D01*
X916740Y3464379D01*
X896740D01*
X897690Y3464529D01*
X898540Y3464980D01*
X899290Y3465732D01*
X899940Y3466784D01*
X900490Y3468137D01*
X900940Y3469790D01*
X901290Y3471744D01*
X901540Y3473998D01*
X901740Y3479409D01*
X911740D01*
X911790Y3476554D01*
D02*
G37*
G36*
X527391Y3450310D02*
X527286Y3450975D01*
X526970Y3451570D01*
X526443Y3452095D01*
X525706Y3452550D01*
X524758Y3452935D01*
X523600Y3453250D01*
X522231Y3453495D01*
X520652Y3453670D01*
X518255Y3453759D01*
X511375Y3453335D01*
X510849Y3453189D01*
X510535Y3453025D01*
X510429Y3452841D01*
Y3461779D01*
X510535Y3461595D01*
X510849Y3461430D01*
X511375Y3461285D01*
X512109Y3461159D01*
X513055Y3461053D01*
X517150Y3460849D01*
X518365Y3460836D01*
X518861Y3460845D01*
X522231Y3461125D01*
X523600Y3461370D01*
X524758Y3461685D01*
X525706Y3462070D01*
X526443Y3462525D01*
X526970Y3463050D01*
X527286Y3463645D01*
X527391Y3464310D01*
Y3450310D01*
D02*
G37*
G36*
X538427Y3453772D02*
X538320Y3453779D01*
X536803Y3453796D01*
X528389Y3453810D01*
Y3460810D01*
X538427Y3460848D01*
Y3453772D01*
D02*
G37*
G36*
X500490Y3460443D02*
X502521Y3460440D01*
Y3453440D01*
X500490Y3453432D01*
Y3452841D01*
X500386Y3452954D01*
X500070Y3453056D01*
X499546Y3453146D01*
X498811Y3453224D01*
X495345Y3453386D01*
X493395Y3453406D01*
X492483Y3453402D01*
Y3453415D01*
X489991Y3453440D01*
Y3460440D01*
X491986Y3460453D01*
X498811Y3460922D01*
X499546Y3461096D01*
X500070Y3461297D01*
X500386Y3461525D01*
X500490Y3461779D01*
Y3460443D01*
D02*
G37*
G36*
X557449Y3463940D02*
X557900Y3463521D01*
X558649Y3463150D01*
X559700Y3462829D01*
X561049Y3462557D01*
X562700Y3462335D01*
X566899Y3462039D01*
X572299Y3461940D01*
Y3451940D01*
X569450Y3451915D01*
X561049Y3451323D01*
X559700Y3451051D01*
X558649Y3450730D01*
X557900Y3450359D01*
X557449Y3449940D01*
X557299Y3449471D01*
Y3464409D01*
X557449Y3463940D01*
D02*
G37*
G36*
X971815Y3459160D02*
X971141Y3458711D01*
X970545Y3457961D01*
X970029Y3456910D01*
X969592Y3455561D01*
X969235Y3453911D01*
X968957Y3451960D01*
X968893Y3451235D01*
X969235Y3447360D01*
X969592Y3445710D01*
X970029Y3444359D01*
X970545Y3443310D01*
X971141Y3442560D01*
X971815Y3442109D01*
X972570Y3441960D01*
X954631D01*
X955385Y3442109D01*
X956059Y3442560D01*
X956655Y3443310D01*
X957171Y3444359D01*
X957608Y3445710D01*
X957965Y3447360D01*
X958243Y3449309D01*
X958307Y3450035D01*
X957965Y3453911D01*
X957608Y3455561D01*
X957171Y3456910D01*
X956655Y3457961D01*
X956059Y3458711D01*
X955385Y3459160D01*
X954631Y3459311D01*
X972570D01*
X971815Y3459160D01*
D02*
G37*
G36*
X921756Y3412291D02*
X921988Y3412268D01*
X922916Y3412230D01*
X929412Y3412182D01*
Y3402182D01*
X921679Y3402047D01*
Y3412316D01*
X921756Y3412291D01*
D02*
G37*
G36*
X891770Y3398670D02*
X891620Y3399140D01*
X891171Y3399560D01*
X890421Y3399930D01*
X889370Y3400251D01*
X888020Y3400522D01*
X886370Y3400745D01*
X882170Y3401041D01*
X876770Y3401140D01*
Y3411140D01*
X879621Y3411165D01*
X888020Y3411758D01*
X889370Y3412029D01*
X890421Y3412350D01*
X891171Y3412721D01*
X891620Y3413140D01*
X891770Y3413610D01*
Y3398670D01*
D02*
G37*
G36*
X688619Y3398521D02*
X688011Y3398070D01*
X687474Y3397321D01*
X687009Y3396270D01*
X686615Y3394920D01*
X686293Y3393271D01*
X686042Y3391320D01*
X685756Y3386520D01*
X685720Y3383670D01*
X675720D01*
X675670Y3386520D01*
X675270Y3391320D01*
X674920Y3393271D01*
X674470Y3394920D01*
X673920Y3396270D01*
X673270Y3397321D01*
X672520Y3398070D01*
X671670Y3398521D01*
X670720Y3398670D01*
X689299D01*
X688619Y3398521D01*
D02*
G37*
G36*
X849254Y3349852D02*
X838568D01*
X838633Y3350182D01*
X838691Y3351076D01*
X838897Y3368310D01*
X838911Y3378575D01*
X848911D01*
X849254Y3349852D01*
D02*
G37*
G36*
X848911Y3305420D02*
X838911D01*
X838830Y3333970D01*
X848991D01*
X848911Y3305420D01*
D02*
G37*
G36*
X689435Y3463940D02*
X689840Y3463521D01*
X690515Y3463150D01*
X691460Y3462829D01*
X692675Y3462557D01*
X694161Y3462335D01*
X697941Y3462039D01*
X702802Y3461940D01*
Y3451940D01*
X700237Y3451915D01*
X692675Y3451323D01*
X691460Y3451051D01*
X690515Y3450730D01*
X689840Y3450359D01*
X689435Y3449940D01*
X689299Y3449471D01*
Y3464409D01*
X689435Y3463940D01*
D02*
G37*
G36*
X622060Y3284380D02*
X621910Y3285330D01*
X621459Y3286180D01*
X620707Y3286930D01*
X619655Y3287580D01*
X618302Y3288130D01*
X616649Y3288580D01*
X614695Y3288930D01*
X612440Y3289180D01*
X607029Y3289380D01*
Y3299380D01*
X609885Y3299430D01*
X614695Y3299830D01*
X616649Y3300180D01*
X618302Y3300630D01*
X619655Y3301180D01*
X620707Y3301830D01*
X621459Y3302580D01*
X621910Y3303430D01*
X622060Y3304380D01*
Y3284380D01*
D02*
G37*
G36*
X522093Y3295518D02*
X522978Y3295350D01*
X524385Y3295203D01*
X531735Y3294878D01*
X548839Y3294720D01*
Y3284720D01*
X521730Y3283735D01*
Y3295705D01*
X522093Y3295518D01*
D02*
G37*
G36*
X531032Y3212330D02*
X530257Y3211005D01*
X529574Y3209169D01*
X528981Y3206823D01*
X528480Y3203968D01*
X528069Y3200602D01*
X527522Y3192341D01*
X527340Y3182040D01*
X522840D01*
X522794Y3187446D01*
X521700Y3203968D01*
X521199Y3206823D01*
X520606Y3209169D01*
X519922Y3211005D01*
X519147Y3212330D01*
X518281Y3213146D01*
X531899D01*
X531032Y3212330D01*
D02*
G37*
G36*
X496181Y3195656D02*
X495669Y3194760D01*
X495217Y3193442D01*
X494825Y3191705D01*
X494493Y3189548D01*
X494011Y3183973D01*
X493770Y3176718D01*
X493740Y3172460D01*
X489240D01*
X489210Y3176718D01*
X488155Y3191705D01*
X487763Y3193442D01*
X487311Y3194760D01*
X486799Y3195656D01*
X486226Y3196133D01*
X496754D01*
X496181Y3195656D01*
D02*
G37*
G36*
X915384Y3171604D02*
X915058Y3171822D01*
X914367Y3172017D01*
X913314Y3172189D01*
X911897Y3172338D01*
X905465Y3172647D01*
X895762Y3172750D01*
Y3177250D01*
X899360Y3177261D01*
X915058Y3178178D01*
X915384Y3178396D01*
Y3171604D01*
D02*
G37*
D10*
X701040Y3844290D02*
X705080Y3848330D01*
Y3923850D01*
X705230Y3924000D01*
X711690Y3883170D02*
Y3924000D01*
X698500Y3918700D02*
X698730Y3918930D01*
X698500Y3886614D02*
Y3918700D01*
X693420Y3881534D02*
X698500Y3886614D01*
X693300Y3844290D02*
X701040D01*
X711690Y3883170D02*
X722877Y3871983D01*
X693300Y3873500D02*
X693420Y3873620D01*
Y3881534D01*
X740692Y3860027D02*
X741927Y3861262D01*
Y3862757D01*
X722877Y3860027D02*
Y3871983D01*
X596440Y3251020D02*
G03*
X596440Y3251020I-105000J0D01*
G01*
X1073380D02*
G03*
X1073380Y3251020I-105000J0D01*
G01*
D11*
X1066920Y3140980D02*
G03*
X1077440Y3151500I0J10520D01*
G01*
X384430D02*
G03*
X394950Y3140980I10520J0D01*
G01*
X1077440Y3959500D02*
G03*
X1066920Y3970020I-10520J0D01*
G01*
X394950Y3970000D02*
G03*
X384430Y3959480I0J-10520D01*
G01*
X1077400Y3151011D02*
Y3959500D01*
X394940Y3140990D02*
X1067380D01*
X384430Y3151500D02*
Y3959480D01*
X394950Y3970000D02*
X1067380D01*
D17*
X548839Y3289720D02*
X553499Y3294380D01*
X623570D02*
X626110Y3291840D01*
X553499Y3294380D02*
X623570D01*
X636270Y3197860D02*
X659622D01*
X469900Y3455670D02*
X471170Y3456940D01*
X665480Y3203718D02*
Y3310890D01*
X659622Y3197860D02*
X665480Y3203718D01*
X510190Y3289720D02*
X548839D01*
X892810Y3280410D02*
Y3315970D01*
X923496Y3263454D02*
X926430Y3260520D01*
X909766Y3263454D02*
X923496D01*
X892810Y3280410D02*
X909766Y3263454D01*
X718820Y3253740D02*
X817880D01*
X843911Y3279771D02*
Y3341997D01*
X817880Y3253740D02*
X843911Y3279771D01*
X680720Y3291840D02*
Y3403640D01*
Y3291840D02*
X718820Y3253740D01*
X819150Y3312160D02*
Y3455670D01*
X730250Y3302000D02*
X808990D01*
X819150Y3312160D01*
X843911Y3341997D02*
Y3378831D01*
X871220Y3406140D02*
X906740D01*
X843911Y3378831D02*
X871220Y3406140D01*
X819150Y3455670D02*
X881380Y3517900D01*
X1025565Y3345180D02*
X1045210Y3364825D01*
Y3519170D01*
X922020Y3345180D02*
X1025565D01*
X859790Y3533140D02*
X1031240D01*
X1045210Y3519170D01*
X1001412Y3395090D02*
X1007270Y3400948D01*
Y3499960D01*
X416560Y3761740D02*
X552450Y3897630D01*
Y3921760D01*
X542290Y3539490D02*
X557530Y3554730D01*
X416560Y3577590D02*
X454660Y3539490D01*
X542290D01*
X557530Y3554730D02*
Y3577590D01*
X416560D02*
Y3761740D01*
X598866Y3584514D02*
X599440Y3583940D01*
X596745Y3584514D02*
X598866D01*
X596049Y3585210D02*
X596745Y3584514D01*
X565150Y3585210D02*
X596049D01*
X557530Y3577590D02*
X565150Y3585210D01*
X802640Y3881120D02*
Y3935730D01*
Y3881120D02*
X812800Y3870960D01*
X734060Y3501390D02*
X828040D01*
X859790Y3533140D01*
X708660Y3385328D02*
Y3451082D01*
X767080Y3379470D02*
X781050Y3365500D01*
X708660Y3385328D02*
X714518Y3379470D01*
X767080D01*
X780411Y3341997D02*
X781050Y3342637D01*
Y3365500D01*
X734060Y3458210D02*
X771936D01*
X906740Y3406140D02*
X907782Y3407182D01*
X929412D01*
X953220Y3430990D01*
X961100D01*
X963600Y3433490D01*
X892810Y3315970D02*
X922020Y3345180D01*
X989330Y3517900D02*
X1007270Y3499960D01*
X881380Y3517900D02*
X989330D01*
X906740Y3463290D02*
Y3487322D01*
X912598Y3493180D01*
X963600D01*
X716911Y3315339D02*
X730250Y3302000D01*
X716911Y3315339D02*
Y3341997D01*
X595630Y3380740D02*
Y3436620D01*
Y3380740D02*
X665480Y3310890D01*
X471170Y3456940D02*
X488950D01*
X542330D02*
X575310D01*
X595630Y3436620D01*
X674330Y3456940D02*
X702802D01*
X708660Y3451082D01*
X678220Y3406140D02*
X680720Y3403640D01*
X674330Y3406140D02*
X678220D01*
X734060Y3458210D02*
Y3501390D01*
X963600Y3433490D02*
Y3467780D01*
X516890Y3406140D02*
X542330D01*
X541960Y3457310D02*
X542330Y3456940D01*
D20*
X525390Y3677920D02*
D03*
X508390D02*
D03*
D21*
X639300Y3735070D02*
D03*
X605300D02*
D03*
D22*
X853440Y3887320D02*
D03*
Y3900320D02*
D03*
X989330Y3408090D02*
D03*
Y3395090D02*
D03*
X751840Y3637130D02*
D03*
Y3650130D02*
D03*
X864870Y3651400D02*
D03*
Y3638400D02*
D03*
X976630Y3585060D02*
D03*
Y3598060D02*
D03*
D23*
X693300Y3844290D02*
D03*
X678300D02*
D03*
X693300Y3873500D02*
D03*
X678300D02*
D03*
D24*
X741927Y3862757D02*
D03*
Y3839757D02*
D03*
D25*
X722877Y3860027D02*
D03*
Y3845027D02*
D03*
D26*
X764787Y3840197D02*
D03*
Y3854697D02*
D03*
X744220Y3818520D02*
D03*
Y3804020D02*
D03*
D27*
X788917Y3839428D02*
D03*
Y3855466D02*
D03*
D28*
X813047Y3838850D02*
D03*
Y3855850D02*
D03*
D29*
X782320Y3702670D02*
D03*
X769620D02*
D03*
X693420D02*
D03*
X706120D02*
D03*
X718820D02*
D03*
X731520D02*
D03*
X744220D02*
D03*
X756920D02*
D03*
X782320Y3765930D02*
D03*
X769620D02*
D03*
X756920D02*
D03*
X744220D02*
D03*
X693420D02*
D03*
X706120D02*
D03*
X718820D02*
D03*
X731520D02*
D03*
D30*
X906740Y3456940D02*
D03*
Y3431540D02*
D03*
Y3406140D02*
D03*
X774740D02*
D03*
Y3431540D02*
D03*
Y3456940D02*
D03*
X674330D02*
D03*
Y3431540D02*
D03*
Y3406140D02*
D03*
X542330D02*
D03*
Y3431540D02*
D03*
Y3456940D02*
D03*
D31*
X606104Y3802941D02*
D03*
X620104D02*
D03*
X606104Y3787121D02*
D03*
X620104D02*
D03*
D32*
X652410Y3768090D02*
D03*
X637910D02*
D03*
D33*
X598170Y3867270D02*
D03*
Y3882270D02*
D03*
D34*
X614680Y3867770D02*
D03*
Y3881770D02*
D03*
D35*
X638872Y3786541D02*
D03*
X654366D02*
D03*
X638872Y3802361D02*
D03*
X654366D02*
D03*
D36*
X685690Y3924000D02*
D03*
X692230D02*
D03*
X698730D02*
D03*
X705230D02*
D03*
X711690D02*
D03*
D37*
X505460Y3443810D02*
D03*
Y3457310D02*
D03*
X734060Y3443810D02*
D03*
Y3457310D02*
D03*
D50*
X622300Y3735070D02*
D03*
D59*
X636270Y3293110D02*
D03*
D60*
Y3246120D02*
D03*
Y3199130D02*
D03*
D61*
X637117Y3609340D02*
D03*
X864870D02*
D03*
X750993D02*
D03*
X523240D02*
D03*
D62*
X637117Y3583940D02*
D03*
Y3558540D02*
D03*
X713317D02*
D03*
Y3583940D02*
D03*
Y3609340D02*
D03*
X864870Y3583940D02*
D03*
Y3558540D02*
D03*
X941070D02*
D03*
Y3583940D02*
D03*
Y3609340D02*
D03*
X750993Y3583940D02*
D03*
Y3558540D02*
D03*
X827193D02*
D03*
Y3583940D02*
D03*
Y3609340D02*
D03*
X523240Y3583940D02*
D03*
Y3558540D02*
D03*
X599440D02*
D03*
Y3583940D02*
D03*
Y3609340D02*
D03*
D66*
X751840Y3584787D02*
Y3595370D01*
X750993Y3583940D02*
X751840Y3584787D01*
X532130Y3175000D02*
X920750D01*
X525090Y3182040D02*
Y3224220D01*
Y3182040D02*
X532130Y3175000D01*
X501650Y3162300D02*
X949960D01*
X961390Y3173730D01*
X491490Y3172460D02*
X501650Y3162300D01*
X491490Y3172460D02*
Y3208020D01*
X605790Y3786450D02*
Y3802941D01*
Y3843020D01*
X961390Y3173730D02*
Y3196606D01*
X605790Y3843020D02*
X614680Y3851910D01*
Y3867770D01*
X695936Y3826510D02*
X695936D01*
X718820Y3765930D02*
Y3803626D01*
X695936Y3826510D02*
X718820Y3803626D01*
X693300Y3829146D02*
X695936Y3826510D01*
X446510Y3658130D02*
Y3672840D01*
X471170Y3633470D02*
X628227D01*
X446510Y3658130D02*
X471170Y3633470D01*
X637117Y3609340D02*
Y3624580D01*
X628227Y3633470D02*
X637117Y3624580D01*
X620684Y3786541D02*
X638115D01*
X620104Y3787121D02*
X620684Y3786541D01*
X620104Y3802941D02*
X637535D01*
X638115Y3802361D01*
X706120Y3743960D02*
Y3765930D01*
X639300Y3735070D02*
Y3739570D01*
X652410Y3752680D02*
Y3768090D01*
X639300Y3739570D02*
X652410Y3752680D01*
X639300Y3719340D02*
Y3735070D01*
Y3719340D02*
X648970Y3709670D01*
X782320Y3702670D02*
Y3723640D01*
Y3702670D02*
X784210Y3700780D01*
X614680Y3867770D02*
X614898Y3867552D01*
X632125D01*
X693360Y3860860D02*
X693420Y3860800D01*
X693360Y3860860D02*
Y3873440D01*
X693300Y3829146D02*
Y3845690D01*
X731520Y3765930D02*
Y3788410D01*
X693300Y3873500D02*
X693360Y3873440D01*
X744220Y3765930D02*
Y3804020D01*
X812800Y3856097D02*
Y3870960D01*
Y3856097D02*
X813047Y3855850D01*
X853440Y3868420D02*
Y3885247D01*
X854710Y3886518D01*
X864870Y3637130D02*
X866140Y3638400D01*
X751840Y3610187D02*
Y3637130D01*
X750993Y3609340D02*
X751840Y3610187D01*
X852805Y3888423D02*
X854710Y3886518D01*
D67*
X827385Y3547914D02*
X829459Y3545840D01*
X989330D02*
X1005840Y3562350D01*
X827385Y3547914D02*
Y3558348D01*
X829459Y3545840D02*
X989330D01*
X827193Y3558540D02*
X827385Y3558348D01*
X853440Y3901590D02*
X854710Y3900320D01*
X973940D02*
X1005840Y3868420D01*
X854710Y3900320D02*
X973940D01*
X1005840Y3562350D02*
Y3868420D01*
D68*
X864870Y3651400D02*
Y3832860D01*
X836930Y3860800D02*
X864870Y3832860D01*
X836930Y3860800D02*
Y3912870D01*
X828040Y3921760D02*
Y3935730D01*
Y3921760D02*
X836930Y3912870D01*
X598170Y3882270D02*
X614180D01*
X668412Y3802361D02*
X680720Y3790053D01*
Y3743960D02*
X694690Y3729990D01*
X680720Y3743960D02*
Y3790053D01*
X666750Y3663825D02*
X680295Y3650280D01*
X666750Y3663825D02*
Y3783265D01*
X680295Y3650280D02*
X751690D01*
X664114Y3785901D02*
X666750Y3783265D01*
X655005Y3785901D02*
X664114D01*
X654366Y3802361D02*
X668412D01*
X694690Y3729990D02*
X746760D01*
X756920Y3740150D01*
Y3765930D01*
X654366Y3786541D02*
X655005Y3785901D01*
X798880Y3671720D02*
Y3737664D01*
X796244Y3740300D02*
X798880Y3737664D01*
X776020Y3740300D02*
X796244D01*
X769670Y3746650D02*
Y3765880D01*
X777290Y3650130D02*
X798880Y3671720D01*
X769670Y3746650D02*
X776020Y3740300D01*
X751840Y3650130D02*
X777290D01*
X769620Y3765930D02*
X769670Y3765880D01*
X751690Y3650280D02*
X751840Y3650130D01*
X766483Y3795885D02*
X766483D01*
X756920Y3765930D02*
Y3786321D01*
X766483Y3795885D01*
X918210Y3564890D02*
Y3699510D01*
X924560Y3558540D02*
X941070D01*
X918210Y3564890D02*
X924560Y3558540D01*
X941070D02*
X967740D01*
X976630Y3567430D02*
Y3585060D01*
X967740Y3558540D02*
X976630Y3567430D01*
D69*
X963600Y3408090D02*
X989330D01*
Y3395090D02*
X1001412D01*
X446510Y3589020D02*
X477520D01*
X497840Y3609340D02*
X523240D01*
X477520Y3589020D02*
X497840Y3609340D01*
D70*
X707275Y3662003D02*
X744813D01*
X756920Y3674110D01*
Y3702670D01*
X685800Y3675380D02*
X736600D01*
X744220Y3683000D02*
Y3702670D01*
X736600Y3675380D02*
X744220Y3683000D01*
X864870Y3609340D02*
Y3637130D01*
D71*
X722877Y3860027D02*
X740692D01*
X853440Y3901590D02*
Y3935730D01*
D72*
X505460Y3417570D02*
Y3443810D01*
X505090Y3456940D02*
X505460Y3457310D01*
X488950Y3456940D02*
X505090D01*
X505460Y3457310D02*
X541960D01*
D73*
X535940Y3652520D02*
Y3674110D01*
X532212Y3677838D02*
X535940Y3674110D01*
X525390Y3677920D02*
X525472Y3677838D01*
X532212D01*
D74*
X525090Y3224220D02*
D03*
X491490Y3208020D02*
D03*
X457890Y3224220D02*
D03*
X533390Y3260520D02*
D03*
X449490D02*
D03*
X472790Y3289720D02*
D03*
X491490Y3251020D02*
D03*
X510190Y3289720D02*
D03*
X1002030Y3224220D02*
D03*
X968430Y3208020D02*
D03*
X934830Y3224220D02*
D03*
X1010330Y3260520D02*
D03*
X926430D02*
D03*
X949730Y3289720D02*
D03*
X968430Y3251020D02*
D03*
X987130Y3289720D02*
D03*
D75*
X500380Y3652520D02*
D03*
X535940D02*
D03*
X604520Y3763010D02*
D03*
X814070Y3761740D02*
D03*
X734060Y3501390D02*
D03*
X468630Y3456940D02*
D03*
X446510Y3614420D02*
D03*
Y3698240D02*
D03*
D76*
X963600Y3433490D02*
D03*
Y3467780D02*
D03*
D77*
Y3408090D02*
D03*
Y3493180D02*
D03*
D78*
X446510Y3589020D02*
D03*
Y3672840D02*
D03*
D79*
X777240Y3935730D02*
D03*
X802640D02*
D03*
X828040D02*
D03*
X853440D02*
D03*
X878840D02*
D03*
D80*
X904240D02*
D03*
D81*
X552450Y3921760D02*
D03*
X527050D02*
D03*
D82*
X716911Y3341997D02*
D03*
D83*
X843911D02*
D03*
X780411D02*
D03*
D84*
X678690Y3932200D02*
D03*
X718690D02*
D03*
D85*
X662940Y3919000D02*
D03*
Y3953500D02*
D03*
X734440Y3919000D02*
D03*
Y3953500D02*
D03*
D86*
X594881Y3280490D02*
D03*
X675228Y3193575D02*
D03*
X971550Y3312160D02*
D03*
X617571Y3315705D02*
D03*
X598638Y3308665D02*
D03*
X558237D02*
D03*
X538603Y3303920D02*
D03*
X519259Y3309740D02*
D03*
X499085Y3308715D02*
D03*
X815548Y3515455D02*
D03*
X754948D02*
D03*
X955923Y3359245D02*
D03*
X1031145Y3494381D02*
D03*
X1043151Y3342875D02*
D03*
X1048327Y3535943D02*
D03*
X1029944Y3514546D02*
D03*
X734921Y3518097D02*
D03*
X1010258Y3519075D02*
D03*
X1007435Y3547205D02*
D03*
X1031145Y3474182D02*
D03*
X1057102Y3357484D02*
D03*
X1031145Y3413581D02*
D03*
X1059275Y3438167D02*
D03*
X719995Y3466432D02*
D03*
X1033700Y3325400D02*
D03*
X775148Y3515455D02*
D03*
X1059275Y3458366D02*
D03*
X758565Y3487325D02*
D03*
X1031145Y3393381D02*
D03*
X1059275Y3377567D02*
D03*
X1031145Y3433781D02*
D03*
Y3453981D02*
D03*
X976123Y3359245D02*
D03*
X887201Y3252075D02*
D03*
X1059275Y3518966D02*
D03*
Y3417966D02*
D03*
X915591Y3357594D02*
D03*
X798965Y3487325D02*
D03*
X798707Y3453065D02*
D03*
X819165Y3487325D02*
D03*
X1031145Y3373181D02*
D03*
X1059275Y3478566D02*
D03*
X718203Y3506760D02*
D03*
X719912Y3486632D02*
D03*
X795348Y3515455D02*
D03*
X773204Y3473407D02*
D03*
X832770Y3526011D02*
D03*
X896620Y3356610D02*
D03*
X1031532Y3547166D02*
D03*
X996323Y3359245D02*
D03*
X778765Y3487325D02*
D03*
X1059275Y3498766D02*
D03*
Y3397766D02*
D03*
X793386Y3472552D02*
D03*
X935723Y3359245D02*
D03*
X650363Y3461942D02*
D03*
X750638Y3365405D02*
D03*
X761849Y3337775D02*
D03*
X722725Y3411082D02*
D03*
Y3431281D02*
D03*
X691651Y3473101D02*
D03*
X920750Y3175000D02*
D03*
X909046Y3308970D02*
D03*
X1060000Y3280000D02*
D03*
X1040000Y3240000D02*
D03*
X1060000Y3200000D02*
D03*
X1020000D02*
D03*
X940000Y3440000D02*
D03*
Y3200000D02*
D03*
X900000D02*
D03*
X860000Y3440000D02*
D03*
Y3360000D02*
D03*
Y3200000D02*
D03*
X800000Y3560000D02*
D03*
X820000Y3280000D02*
D03*
X780000Y3200000D02*
D03*
X740000D02*
D03*
X700000Y3520000D02*
D03*
Y3200000D02*
D03*
X660000Y3520000D02*
D03*
X640000Y3480000D02*
D03*
X660000Y3360000D02*
D03*
X600000Y3480000D02*
D03*
X620000Y3440000D02*
D03*
X580000Y3200000D02*
D03*
X540000Y3360000D02*
D03*
X480000Y3400000D02*
D03*
X500000Y3360000D02*
D03*
X480000Y3320000D02*
D03*
X440000Y3480000D02*
D03*
Y3400000D02*
D03*
X460000Y3360000D02*
D03*
X440000Y3320000D02*
D03*
Y3160000D02*
D03*
X400000Y3560000D02*
D03*
X420000Y3520000D02*
D03*
X400000Y3480000D02*
D03*
X420000Y3440000D02*
D03*
X400000Y3400000D02*
D03*
X420000Y3360000D02*
D03*
X400000Y3320000D02*
D03*
Y3240000D02*
D03*
Y3160000D02*
D03*
X725844Y3268900D02*
D03*
X798157Y3267630D02*
D03*
X694610Y3297593D02*
D03*
X681691Y3264885D02*
D03*
X712470Y3282950D02*
D03*
X753110Y3267710D02*
D03*
X778610Y3267630D02*
D03*
X787914Y3230785D02*
D03*
X767714D02*
D03*
X747514D02*
D03*
X808114D02*
D03*
X813492Y3469902D02*
D03*
X805085Y3431335D02*
D03*
Y3411135D02*
D03*
Y3370734D02*
D03*
Y3350534D02*
D03*
Y3330334D02*
D03*
X790788Y3316065D02*
D03*
X770588D02*
D03*
X750388D02*
D03*
X731024Y3321817D02*
D03*
X735377Y3341542D02*
D03*
X727825Y3360278D02*
D03*
X707626Y3360464D02*
D03*
X698444Y3342472D02*
D03*
X702700Y3322725D02*
D03*
X743741Y3287935D02*
D03*
X763941D02*
D03*
X784141D02*
D03*
X804341D02*
D03*
X822867Y3295987D02*
D03*
X833215Y3414336D02*
D03*
Y3434536D02*
D03*
X837620Y3454249D02*
D03*
X851903Y3468533D02*
D03*
X866187Y3482816D02*
D03*
X993205Y3488283D02*
D03*
Y3468083D02*
D03*
Y3447883D02*
D03*
X1012760Y3386547D02*
D03*
X986707Y3421307D02*
D03*
X902238Y3502710D02*
D03*
X892675Y3484917D02*
D03*
X883208Y3467073D02*
D03*
X883181Y3446873D02*
D03*
X930707Y3459054D02*
D03*
X928342Y3479115D02*
D03*
X886635Y3342158D02*
D03*
X872238Y3327988D02*
D03*
X857954Y3313705D02*
D03*
X646430Y3268980D02*
D03*
X618276Y3266598D02*
D03*
X605395Y3251038D02*
D03*
X609612Y3231283D02*
D03*
X648970Y3221990D02*
D03*
X687070Y3228340D02*
D03*
X707114Y3230785D02*
D03*
X727314D02*
D03*
X825350Y3241320D02*
D03*
X839634Y3255603D02*
D03*
X853917Y3269887D02*
D03*
X868201Y3284170D02*
D03*
X922020Y3322320D02*
D03*
X941070Y3326130D02*
D03*
X962660Y3327400D02*
D03*
X452057Y3454755D02*
D03*
X466259Y3440391D02*
D03*
X486306Y3442875D02*
D03*
X566693Y3442732D02*
D03*
X581565Y3429063D02*
D03*
Y3408863D02*
D03*
X601495Y3354984D02*
D03*
X615779Y3340701D02*
D03*
X630062Y3326417D02*
D03*
X627803Y3221772D02*
D03*
X609704Y3212802D02*
D03*
X605355Y3193075D02*
D03*
X679545Y3213309D02*
D03*
X666291Y3329969D02*
D03*
X652007Y3344253D02*
D03*
X637724Y3358537D02*
D03*
X623440Y3372820D02*
D03*
X609695Y3407822D02*
D03*
Y3428022D02*
D03*
X604577Y3447563D02*
D03*
X590294Y3461847D02*
D03*
X572289Y3471005D02*
D03*
X552232Y3473407D02*
D03*
X532032D02*
D03*
X512032Y3470570D02*
D03*
X491832Y3470607D02*
D03*
X471824Y3473380D02*
D03*
X789045Y3817995D02*
D03*
X707275Y3662003D02*
D03*
X685800Y3675380D02*
D03*
X706120Y3743960D02*
D03*
X766483Y3795885D02*
D03*
X648970Y3709670D02*
D03*
X782320Y3723640D02*
D03*
X632125Y3867552D02*
D03*
X693420Y3860800D02*
D03*
X731520Y3788410D02*
D03*
X853440Y3868420D02*
D03*
X918210Y3699510D02*
D03*
X516890Y3406140D02*
D03*
M02*
