G04*
G04 #@! TF.GenerationSoftware,Altium Limited,Altium Designer,20.0.10 (225)*
G04*
G04 Layer_Color=8388736*
%FSLAX44Y44*%
%MOMM*%
G71*
G01*
G75*
%ADD10C,0.2540*%
%ADD11C,0.2000*%
%ADD89C,0.1000*%
D10*
X596440Y3251020D02*
G03*
X596440Y3251020I-105000J0D01*
G01*
X1073380D02*
G03*
X1073380Y3251020I-105000J0D01*
G01*
D11*
X1066920Y3140980D02*
G03*
X1077440Y3151500I0J10520D01*
G01*
X384430D02*
G03*
X394950Y3140980I10520J0D01*
G01*
X1077440Y3959500D02*
G03*
X1066920Y3970020I-10520J0D01*
G01*
X394950Y3970000D02*
G03*
X384430Y3959480I0J-10520D01*
G01*
X1077400Y3151011D02*
Y3959500D01*
X394940Y3140990D02*
X1067380D01*
X384430Y3151500D02*
Y3959480D01*
X394950Y3970000D02*
X1067380D01*
D89*
X516890Y3672920D02*
Y3682920D01*
X511890Y3677920D02*
X521890D01*
X622300Y3730070D02*
Y3740070D01*
X617300Y3735070D02*
X627300D01*
X788917Y3842447D02*
Y3852447D01*
X783917Y3847447D02*
X793917D01*
X813047Y3842350D02*
Y3852350D01*
X808047Y3847350D02*
X818047D01*
X631270Y3246120D02*
X641270D01*
X636270Y3241120D02*
Y3251120D01*
M02*
