G04*
G04 #@! TF.GenerationSoftware,Altium Limited,Altium Designer,20.0.10 (225)*
G04*
G04 Layer_Color=65535*
%FSLAX44Y44*%
%MOMM*%
G71*
G01*
G75*
%ADD10C,0.2540*%
%ADD11C,0.2000*%
D10*
X596440Y3251020D02*
G03*
X596440Y3251020I-105000J0D01*
G01*
X1073380D02*
G03*
X1073380Y3251020I-105000J0D01*
G01*
D11*
X502890Y3672420D02*
Y3683420D01*
Y3672420D02*
X530890D01*
Y3683420D01*
X502890D02*
X530890D01*
X600300Y3720570D02*
Y3749570D01*
Y3720570D02*
X644300D01*
Y3749570D01*
X600300D02*
X644300D01*
X778856Y3828386D02*
Y3866508D01*
X798978D01*
Y3828386D02*
Y3866508D01*
X778856Y3828386D02*
X798978D01*
X807547Y3833350D02*
Y3861350D01*
X818547D01*
Y3833350D02*
Y3861350D01*
X807547Y3833350D02*
X818547D01*
X599710Y3311890D02*
X672830D01*
Y3180350D02*
Y3311890D01*
X599710Y3180350D02*
X672830D01*
X599710D02*
Y3311890D01*
X1066920Y3140980D02*
G03*
X1077440Y3151500I0J10520D01*
G01*
X384430D02*
G03*
X394950Y3140980I10520J0D01*
G01*
X1077440Y3959500D02*
G03*
X1066920Y3970020I-10520J0D01*
G01*
X394950Y3970000D02*
G03*
X384430Y3959480I0J-10520D01*
G01*
X1077400Y3151011D02*
Y3959500D01*
X394940Y3140990D02*
X1067380D01*
X384430Y3151500D02*
Y3959480D01*
X394950Y3970000D02*
X1067380D01*
M02*
