G04*
G04 #@! TF.GenerationSoftware,Altium Limited,Altium Designer,20.0.10 (225)*
G04*
G04 Layer_Color=32768*
%FSLAX44Y44*%
%MOMM*%
G71*
G01*
G75*
%ADD10C,0.2540*%
%ADD11C,0.2000*%
%ADD90C,0.0254*%
D10*
X596440Y3251020D02*
G03*
X596440Y3251020I-105000J0D01*
G01*
X1073380D02*
G03*
X1073380Y3251020I-105000J0D01*
G01*
D11*
X1066920Y3140980D02*
G03*
X1077440Y3151500I0J10520D01*
G01*
X384430D02*
G03*
X394950Y3140980I10520J0D01*
G01*
X1077440Y3959500D02*
G03*
X1066920Y3970020I-10520J0D01*
G01*
X394950Y3970000D02*
G03*
X384430Y3959480I0J-10520D01*
G01*
X1077400Y3151011D02*
Y3959500D01*
X394940Y3140990D02*
X1067380D01*
X384430Y3151500D02*
Y3959480D01*
X394950Y3970000D02*
X1067380D01*
D90*
X636078Y3814735D02*
Y3817275D01*
X638618Y3816005D01*
X636078Y3814735D02*
X638618Y3816005D01*
X657160Y3814735D02*
Y3817275D01*
X654620Y3816005D02*
X657160Y3817275D01*
X654620Y3816005D02*
X657160Y3814735D01*
X625918Y3816005D02*
X638618D01*
X654620D02*
X667320D01*
X638618Y3786541D02*
Y3819815D01*
X654620Y3786541D02*
Y3819815D01*
X561148Y3793145D02*
X563688D01*
X561148D02*
X562418Y3790605D01*
X563688Y3793145D01*
X561148Y3779937D02*
X563688D01*
X561148D02*
X562418Y3782477D01*
X563688Y3779937D01*
X562418Y3790605D02*
Y3803305D01*
Y3769777D02*
Y3782477D01*
X558608Y3790605D02*
X646619D01*
X558608Y3782477D02*
X646619D01*
X678750Y3792637D02*
X681290D01*
X678750D02*
X680020Y3790097D01*
X681290Y3792637D01*
X678750Y3780445D02*
X681290D01*
X678750D02*
X680020Y3782985D01*
X681290Y3780445D01*
X680020Y3790097D02*
Y3802797D01*
Y3770285D02*
Y3782985D01*
X654620Y3790097D02*
X683830D01*
X654620Y3782985D02*
X683830D01*
X611948Y3792637D02*
X614488D01*
X611948D02*
X613218Y3790097D01*
X614488Y3792637D01*
X611948Y3780445D02*
X614488D01*
X611948D02*
X613218Y3782985D01*
X614488Y3780445D01*
X613218Y3790097D02*
Y3802797D01*
Y3770285D02*
Y3782985D01*
X609408Y3790097D02*
X638618D01*
X609408Y3782985D02*
X638618D01*
X636078Y3768507D02*
Y3771047D01*
X638618Y3769777D01*
X636078Y3768507D02*
X638618Y3769777D01*
X645222Y3768507D02*
Y3771047D01*
X642682Y3769777D02*
X645222Y3771047D01*
X642682Y3769777D02*
X645222Y3768507D01*
X625918Y3769777D02*
X638618D01*
X642682D02*
X655382D01*
X638618Y3765967D02*
Y3786541D01*
X642682Y3765967D02*
Y3786541D01*
X648016Y3768507D02*
Y3771047D01*
X650556Y3769777D01*
X648016Y3768507D02*
X650556Y3769777D01*
X657160Y3768507D02*
Y3771047D01*
X654620Y3769777D02*
X657160Y3771047D01*
X654620Y3769777D02*
X657160Y3768507D01*
X637856Y3769777D02*
X650556D01*
X654620D02*
X667320D01*
X650556Y3765967D02*
Y3786541D01*
X654620Y3765967D02*
Y3786541D01*
X636078Y3743107D02*
Y3745647D01*
X638618Y3744377D01*
X636078Y3743107D02*
X638618Y3744377D01*
X657160Y3743107D02*
Y3745647D01*
X654620Y3744377D02*
X657160Y3745647D01*
X654620Y3744377D02*
X657160Y3743107D01*
X625918Y3744377D02*
X638618D01*
X654620D02*
X667320D01*
X638618Y3740567D02*
Y3786541D01*
X654620Y3740567D02*
Y3786541D01*
X636078Y3830555D02*
Y3833095D01*
X638618Y3831825D01*
X636078Y3830555D02*
X638618Y3831825D01*
X657160Y3830555D02*
Y3833095D01*
X654620Y3831825D02*
X657160Y3833095D01*
X654620Y3831825D02*
X657160Y3830555D01*
X625918Y3831825D02*
X638618D01*
X654620D02*
X667320D01*
X638618Y3802361D02*
Y3835635D01*
X654620Y3802361D02*
Y3835635D01*
X561148Y3808965D02*
X563688D01*
X561148D02*
X562418Y3806425D01*
X563688Y3808965D01*
X561148Y3795757D02*
X563688D01*
X561148D02*
X562418Y3798297D01*
X563688Y3795757D01*
X562418Y3806425D02*
Y3819125D01*
Y3785597D02*
Y3798297D01*
X558608Y3806425D02*
X646619D01*
X558608Y3798297D02*
X646619D01*
X678750Y3808457D02*
X681290D01*
X678750D02*
X680020Y3805917D01*
X681290Y3808457D01*
X678750Y3796265D02*
X681290D01*
X678750D02*
X680020Y3798805D01*
X681290Y3796265D01*
X680020Y3805917D02*
Y3818617D01*
Y3786105D02*
Y3798805D01*
X654620Y3805917D02*
X683830D01*
X654620Y3798805D02*
X683830D01*
X611948Y3808457D02*
X614488D01*
X611948D02*
X613218Y3805917D01*
X614488Y3808457D01*
X611948Y3796265D02*
X614488D01*
X611948D02*
X613218Y3798805D01*
X614488Y3796265D01*
X613218Y3805917D02*
Y3818617D01*
Y3786105D02*
Y3798805D01*
X609408Y3805917D02*
X638618D01*
X609408Y3798805D02*
X638618D01*
X636078Y3784327D02*
Y3786867D01*
X638618Y3785597D01*
X636078Y3784327D02*
X638618Y3785597D01*
X645222Y3784327D02*
Y3786867D01*
X642682Y3785597D02*
X645222Y3786867D01*
X642682Y3785597D02*
X645222Y3784327D01*
X625918Y3785597D02*
X638618D01*
X642682D02*
X655382D01*
X638618Y3781787D02*
Y3802361D01*
X642682Y3781787D02*
Y3802361D01*
X648016Y3784327D02*
Y3786867D01*
X650556Y3785597D01*
X648016Y3784327D02*
X650556Y3785597D01*
X657160Y3784327D02*
Y3786867D01*
X654620Y3785597D02*
X657160Y3786867D01*
X654620Y3785597D02*
X657160Y3784327D01*
X637856Y3785597D02*
X650556D01*
X654620D02*
X667320D01*
X650556Y3781787D02*
Y3802361D01*
X654620Y3781787D02*
Y3802361D01*
X636078Y3758927D02*
Y3761467D01*
X638618Y3760197D01*
X636078Y3758927D02*
X638618Y3760197D01*
X657160Y3758927D02*
Y3761467D01*
X654620Y3760197D02*
X657160Y3761467D01*
X654620Y3760197D02*
X657160Y3758927D01*
X625918Y3760197D02*
X638618D01*
X654620D02*
X667320D01*
X638618Y3756387D02*
Y3802361D01*
X654620Y3756387D02*
Y3802361D01*
M02*
