M48
;Layer_Color=9474304
;FILE_FORMAT=2:5
INCH,LZ
T14F00S00C0.01200
%
G90
G05
T14
G00X0420017Y123601
M15
G01X0420126Y1235976
G01X0421358Y1236158
G01X0422501Y1236654
G01X0423477Y1237429
G01X0424219Y123843
G01X0424677Y1239588
G01X042482Y124067
G01X0424773Y1240831
G01X0424773Y1558791
G01X042482Y1558937
G01X0424637Y1560169
G01X0424141Y1561312
G01X0423366Y1562288
G01X0422366Y156303
G01X0421207Y1563488
G01X0420126Y1563631
G01X0419992Y1563592
G01X015551Y1563592
G01X0155414Y1563623
G01X0154181Y156344
G01X0153038Y1562944
G01X0152062Y156217
G01X015132Y1561169
G01X0150862Y156001
G01X0150715Y155885
G01X015075Y1240766
G01X015072Y124067
G01X0150903Y1239437
G01X0151398Y1238294
G01X0152173Y1237318
G01X0153174Y1236576
G01X0154333Y1236118
G01X0155492Y1235971
G01X0420017Y123601
M16
M17
M30
