G04*
G04 #@! TF.GenerationSoftware,Altium Limited,Altium Designer,20.0.10 (225)*
G04*
G04 Layer_Physical_Order=2*
G04 Layer_Color=16711680*
%FSLAX44Y44*%
%MOMM*%
G71*
G01*
G75*
%ADD10C,0.2540*%
%ADD11C,0.2000*%
%ADD17C,1.0000*%
%ADD22R,0.9500X0.8500*%
%ADD50C,0.7500*%
%ADD59R,2.8542X2.8542*%
%ADD60C,2.8542*%
%ADD61R,1.3000X1.3000*%
%ADD62C,1.3000*%
%ADD66C,0.4500*%
%ADD68C,0.5500*%
%ADD73C,0.7540*%
%ADD74C,2.6000*%
%ADD75C,1.5500*%
%ADD76R,1.8000X1.7000*%
%ADD77O,1.9000X2.0000*%
%ADD78R,1.5500X1.5500*%
%ADD79C,1.5000*%
%ADD80R,1.5000X1.5000*%
%ADD81O,2.0000X3.0000*%
%ADD82R,1.9000X1.9000*%
%ADD83C,1.9000*%
%ADD84C,0.6500*%
G04:AMPARAMS|DCode=85|XSize=1.05mm|YSize=1.85mm|CornerRadius=0.2625mm|HoleSize=0mm|Usage=FLASHONLY|Rotation=180.000|XOffset=0mm|YOffset=0mm|HoleType=Round|Shape=RoundedRectangle|*
%AMROUNDEDRECTD85*
21,1,1.0500,1.3250,0,0,180.0*
21,1,0.5250,1.8500,0,0,180.0*
1,1,0.5250,-0.2625,0.6625*
1,1,0.5250,0.2625,0.6625*
1,1,0.5250,0.2625,-0.6625*
1,1,0.5250,-0.2625,-0.6625*
%
%ADD85ROUNDEDRECTD85*%
%ADD86C,1.2700*%
%ADD87R,0.5000X0.8000*%
G36*
X1067380Y3970000D02*
X1068622Y3969887D01*
X1069989Y3969616D01*
X1071903Y3968823D01*
X1073626Y3967672D01*
X1075091Y3966206D01*
X1076243Y3964483D01*
X1077036Y3962569D01*
X1077394Y3960768D01*
X1077400Y3959500D01*
X1077400D01*
Y3151011D01*
X1077297Y3149745D01*
X1077036Y3148431D01*
X1076243Y3146517D01*
X1075091Y3144794D01*
X1073626Y3143329D01*
X1071903Y3142177D01*
X1069989Y3141384D01*
X1068609Y3141110D01*
X1067380Y3140990D01*
X1067379Y3140990D01*
X394950Y3140980D01*
X393914D01*
X391881Y3141384D01*
X389967Y3142177D01*
X388244Y3143329D01*
X386779Y3144794D01*
X385627Y3146517D01*
X384834Y3148431D01*
X384430Y3150464D01*
Y3151500D01*
Y3959480D01*
Y3960516D01*
X384834Y3962549D01*
X385627Y3964463D01*
X386779Y3966186D01*
X388244Y3967651D01*
X389967Y3968803D01*
X391881Y3969596D01*
X393914Y3970000D01*
X1067379D01*
X1067380Y3970000D01*
D02*
G37*
%LPC*%
G36*
X737065Y3965391D02*
X731815D01*
X729800Y3964990D01*
X728091Y3963849D01*
X726950Y3962140D01*
X726549Y3960125D01*
Y3946875D01*
X726950Y3944860D01*
X728091Y3943151D01*
X729800Y3942010D01*
X731815Y3941609D01*
X737065D01*
X739080Y3942010D01*
X740789Y3943151D01*
X741930Y3944860D01*
X742331Y3946875D01*
Y3960125D01*
X741930Y3962140D01*
X740789Y3963849D01*
X739080Y3964990D01*
X737065Y3965391D01*
D02*
G37*
G36*
X665565D02*
X660315D01*
X658300Y3964990D01*
X656591Y3963849D01*
X655450Y3962140D01*
X655049Y3960125D01*
Y3946875D01*
X655450Y3944860D01*
X656591Y3943151D01*
X658300Y3942010D01*
X660315Y3941609D01*
X665565D01*
X667580Y3942010D01*
X669289Y3943151D01*
X670430Y3944860D01*
X670831Y3946875D01*
Y3960125D01*
X670430Y3962140D01*
X669289Y3963849D01*
X667580Y3964990D01*
X665565Y3965391D01*
D02*
G37*
G36*
X778510Y3945689D02*
Y3937000D01*
X787199D01*
X787022Y3938351D01*
X786010Y3940793D01*
X784401Y3942891D01*
X782303Y3944500D01*
X779861Y3945511D01*
X778510Y3945689D01*
D02*
G37*
G36*
X775970D02*
X774619Y3945511D01*
X772177Y3944500D01*
X770079Y3942891D01*
X768470Y3940793D01*
X767458Y3938351D01*
X767281Y3937000D01*
X775970D01*
Y3945689D01*
D02*
G37*
G36*
X552450Y3939408D02*
X549176Y3938977D01*
X546126Y3937714D01*
X543506Y3935704D01*
X541496Y3933084D01*
X540437Y3930527D01*
X539063D01*
X538004Y3933084D01*
X535994Y3935704D01*
X533374Y3937714D01*
X530324Y3938977D01*
X528320Y3939241D01*
Y3921760D01*
Y3904279D01*
X530324Y3904543D01*
X533374Y3905806D01*
X535994Y3907816D01*
X538004Y3910436D01*
X539063Y3912993D01*
X540437D01*
X541496Y3910436D01*
X543506Y3907816D01*
X546126Y3905806D01*
X549176Y3904543D01*
X552450Y3904112D01*
X555724Y3904543D01*
X558774Y3905806D01*
X561394Y3907816D01*
X563404Y3910436D01*
X564667Y3913486D01*
X565098Y3916760D01*
Y3926760D01*
X564667Y3930034D01*
X563404Y3933084D01*
X561394Y3935704D01*
X558774Y3937714D01*
X555724Y3938977D01*
X552450Y3939408D01*
D02*
G37*
G36*
X718690Y3938103D02*
X716431Y3937654D01*
X714516Y3936374D01*
X713236Y3934459D01*
X712787Y3932200D01*
X713236Y3929941D01*
X714516Y3928026D01*
X716431Y3926746D01*
X718690Y3926296D01*
X720949Y3926746D01*
X722864Y3928026D01*
X724144Y3929941D01*
X724593Y3932200D01*
X724144Y3934459D01*
X722864Y3936374D01*
X720949Y3937654D01*
X718690Y3938103D01*
D02*
G37*
G36*
X678690D02*
X676431Y3937654D01*
X674516Y3936374D01*
X673236Y3934459D01*
X672787Y3932200D01*
X673236Y3929941D01*
X674516Y3928026D01*
X676431Y3926746D01*
X678690Y3926296D01*
X680949Y3926746D01*
X682864Y3928026D01*
X684144Y3929941D01*
X684593Y3932200D01*
X684144Y3934459D01*
X682864Y3936374D01*
X680949Y3937654D01*
X678690Y3938103D01*
D02*
G37*
G36*
X787199Y3934460D02*
X778510D01*
Y3925771D01*
X779861Y3925948D01*
X782303Y3926960D01*
X784401Y3928569D01*
X786010Y3930667D01*
X787022Y3933109D01*
X787199Y3934460D01*
D02*
G37*
G36*
X775970D02*
X767281D01*
X767458Y3933109D01*
X768470Y3930667D01*
X770079Y3928569D01*
X772177Y3926960D01*
X774619Y3925948D01*
X775970Y3925771D01*
Y3934460D01*
D02*
G37*
G36*
X914280Y3945770D02*
X894200D01*
Y3925690D01*
X914280D01*
Y3945770D01*
D02*
G37*
G36*
X878840Y3945857D02*
X876219Y3945511D01*
X873777Y3944500D01*
X871679Y3942891D01*
X870070Y3940793D01*
X869058Y3938351D01*
X868713Y3935730D01*
X869058Y3933109D01*
X870070Y3930667D01*
X871679Y3928569D01*
X873777Y3926960D01*
X876219Y3925948D01*
X878840Y3925603D01*
X881461Y3925948D01*
X883903Y3926960D01*
X886001Y3928569D01*
X887610Y3930667D01*
X888622Y3933109D01*
X888967Y3935730D01*
X888622Y3938351D01*
X887610Y3940793D01*
X886001Y3942891D01*
X883903Y3944500D01*
X881461Y3945511D01*
X878840Y3945857D01*
D02*
G37*
G36*
X853440D02*
X850819Y3945511D01*
X848377Y3944500D01*
X846279Y3942891D01*
X844670Y3940793D01*
X843658Y3938351D01*
X843313Y3935730D01*
X843658Y3933109D01*
X844670Y3930667D01*
X846279Y3928569D01*
X848377Y3926960D01*
X850819Y3925948D01*
X853440Y3925603D01*
X856061Y3925948D01*
X858503Y3926960D01*
X860601Y3928569D01*
X862210Y3930667D01*
X863222Y3933109D01*
X863567Y3935730D01*
X863222Y3938351D01*
X862210Y3940793D01*
X860601Y3942891D01*
X858503Y3944500D01*
X856061Y3945511D01*
X853440Y3945857D01*
D02*
G37*
G36*
X828040D02*
X825419Y3945511D01*
X822977Y3944500D01*
X820879Y3942891D01*
X819270Y3940793D01*
X818258Y3938351D01*
X817913Y3935730D01*
X818258Y3933109D01*
X819270Y3930667D01*
X820879Y3928569D01*
X822977Y3926960D01*
X825419Y3925948D01*
X828040Y3925603D01*
X830661Y3925948D01*
X833103Y3926960D01*
X835201Y3928569D01*
X836810Y3930667D01*
X837822Y3933109D01*
X838167Y3935730D01*
X837822Y3938351D01*
X836810Y3940793D01*
X835201Y3942891D01*
X833103Y3944500D01*
X830661Y3945511D01*
X828040Y3945857D01*
D02*
G37*
G36*
X802640D02*
X800019Y3945511D01*
X797577Y3944500D01*
X795479Y3942891D01*
X793870Y3940793D01*
X792858Y3938351D01*
X792513Y3935730D01*
X792858Y3933109D01*
X793870Y3930667D01*
X795479Y3928569D01*
X797577Y3926960D01*
X800019Y3925948D01*
X802640Y3925603D01*
X805261Y3925948D01*
X807703Y3926960D01*
X809801Y3928569D01*
X811410Y3930667D01*
X812422Y3933109D01*
X812767Y3935730D01*
X812422Y3938351D01*
X811410Y3940793D01*
X809801Y3942891D01*
X807703Y3944500D01*
X805261Y3945511D01*
X802640Y3945857D01*
D02*
G37*
G36*
X525780Y3939241D02*
X523776Y3938977D01*
X520726Y3937714D01*
X518106Y3935704D01*
X516096Y3933084D01*
X514833Y3930034D01*
X514402Y3926760D01*
Y3923030D01*
X525780D01*
Y3939241D01*
D02*
G37*
G36*
X737065Y3930891D02*
X731815D01*
X729800Y3930490D01*
X728091Y3929349D01*
X726950Y3927640D01*
X726549Y3925625D01*
Y3912375D01*
X726950Y3910360D01*
X728091Y3908651D01*
X729800Y3907510D01*
X731815Y3907109D01*
X737065D01*
X739080Y3907510D01*
X740789Y3908651D01*
X741930Y3910360D01*
X742331Y3912375D01*
Y3925625D01*
X741930Y3927640D01*
X740789Y3929349D01*
X739080Y3930490D01*
X737065Y3930891D01*
D02*
G37*
G36*
X665565D02*
X660315D01*
X658300Y3930490D01*
X656591Y3929349D01*
X655450Y3927640D01*
X655049Y3925625D01*
Y3912375D01*
X655450Y3910360D01*
X656591Y3908651D01*
X658300Y3907510D01*
X660315Y3907109D01*
X665565D01*
X667580Y3907510D01*
X669289Y3908651D01*
X670430Y3910360D01*
X670831Y3912375D01*
Y3925625D01*
X670430Y3927640D01*
X669289Y3929349D01*
X667580Y3930490D01*
X665565Y3930891D01*
D02*
G37*
G36*
X525780Y3920490D02*
X514402D01*
Y3916760D01*
X514833Y3913486D01*
X516096Y3910436D01*
X518106Y3907816D01*
X520726Y3905806D01*
X523776Y3904543D01*
X525780Y3904279D01*
Y3920490D01*
D02*
G37*
G36*
X622300Y3741483D02*
X619846Y3740995D01*
X617765Y3739605D01*
X616375Y3737524D01*
X615887Y3735070D01*
X616375Y3732616D01*
X617765Y3730535D01*
X619846Y3729145D01*
X622300Y3728657D01*
X624754Y3729145D01*
X626835Y3730535D01*
X628225Y3732616D01*
X628713Y3735070D01*
X628225Y3737524D01*
X626835Y3739605D01*
X624754Y3740995D01*
X622300Y3741483D01*
D02*
G37*
G36*
X579120Y3886250D02*
X578129Y3886053D01*
X577289Y3885491D01*
X496009Y3804211D01*
X495447Y3803371D01*
X495250Y3802380D01*
X495250Y3778053D01*
X432509Y3715311D01*
X431947Y3714471D01*
X431750Y3713480D01*
X431750Y3651054D01*
X431800Y3650801D01*
X431201Y3650682D01*
X429617Y3649623D01*
X420727Y3640733D01*
X419668Y3639149D01*
X419296Y3637280D01*
Y3549650D01*
X419668Y3547781D01*
X420727Y3546197D01*
X439777Y3527147D01*
X441361Y3526088D01*
X443230Y3525716D01*
X617124D01*
X618993Y3526088D01*
X620577Y3527147D01*
X623213Y3529783D01*
X624272Y3531367D01*
X624644Y3533236D01*
Y3575567D01*
X628133Y3579056D01*
X629469D01*
X630669Y3577493D01*
X632558Y3576044D01*
X634757Y3575133D01*
X637117Y3574822D01*
X639477Y3575133D01*
X641676Y3576044D01*
X643564Y3577493D01*
X644085Y3578172D01*
X658591Y3579056D01*
X668020D01*
X669889Y3579428D01*
X671473Y3580486D01*
X684173Y3593187D01*
X685232Y3594771D01*
X685604Y3596640D01*
Y3650497D01*
X692226Y3657119D01*
X693823D01*
X699873Y3657046D01*
X700935Y3655663D01*
X702792Y3654237D01*
X704954Y3653342D01*
X707275Y3653036D01*
X709596Y3653342D01*
X711758Y3654237D01*
X713616Y3655663D01*
X715041Y3657520D01*
X715936Y3659682D01*
X716242Y3662003D01*
X715936Y3664324D01*
X715041Y3666486D01*
X713616Y3668344D01*
X711758Y3669768D01*
X709596Y3670664D01*
X707275Y3670970D01*
X704954Y3670664D01*
X702792Y3669768D01*
X700935Y3668344D01*
X699951Y3667062D01*
X692141Y3666887D01*
X691421D01*
X690990Y3668157D01*
X692140Y3669040D01*
X693565Y3670897D01*
X694461Y3673059D01*
X694767Y3675380D01*
X694461Y3677701D01*
X693565Y3679863D01*
X692140Y3681720D01*
X690283Y3683145D01*
X688121Y3684041D01*
X685800Y3684347D01*
X683479Y3684041D01*
X681317Y3683145D01*
X679460Y3681720D01*
X678973Y3681086D01*
X664893Y3680264D01*
X589280D01*
X587411Y3679892D01*
X585827Y3678833D01*
X562967Y3655974D01*
X561908Y3654389D01*
X561536Y3652520D01*
Y3615173D01*
X535187Y3588824D01*
X530887D01*
X529687Y3590387D01*
X527799Y3591837D01*
X525600Y3592747D01*
X523240Y3593058D01*
X520880Y3592747D01*
X518681Y3591837D01*
X516793Y3590387D01*
X516233Y3589659D01*
X516194Y3589633D01*
X515928Y3589380D01*
X515615Y3589208D01*
X514869Y3588941D01*
X513745Y3588663D01*
X512349Y3588422D01*
X503297Y3587825D01*
X501989D01*
X495654Y3594160D01*
X496280Y3595330D01*
X496530Y3595280D01*
X497521Y3595477D01*
X498361Y3596039D01*
X513027Y3610704D01*
X514200Y3610218D01*
Y3600300D01*
X532280D01*
Y3618380D01*
X516790D01*
Y3676697D01*
X595885Y3755792D01*
X597152Y3755709D01*
X597181Y3755671D01*
X599331Y3754022D01*
X601834Y3752985D01*
X604520Y3752631D01*
X607206Y3752985D01*
X609709Y3754022D01*
X611859Y3755671D01*
X613508Y3757821D01*
X614545Y3760324D01*
X614899Y3763010D01*
X614545Y3765696D01*
X613508Y3768199D01*
X611859Y3770349D01*
X611821Y3770378D01*
X611738Y3771646D01*
X627183Y3787090D01*
X668186D01*
X671780Y3783347D01*
Y3748844D01*
X662940D01*
X661071Y3748472D01*
X659487Y3747413D01*
X645517Y3733443D01*
X644458Y3731859D01*
X644086Y3729990D01*
Y3727494D01*
X643970Y3720873D01*
X643777Y3718033D01*
X643665Y3717108D01*
X643598Y3716754D01*
X642630Y3716010D01*
X641205Y3714153D01*
X640309Y3711991D01*
X640003Y3709670D01*
X640309Y3707349D01*
X641205Y3705186D01*
X642630Y3703329D01*
X644487Y3701905D01*
X646649Y3701009D01*
X648970Y3700703D01*
X651291Y3701009D01*
X653453Y3701905D01*
X655310Y3703329D01*
X656735Y3705186D01*
X657631Y3707349D01*
X657937Y3709670D01*
X657631Y3711991D01*
X656735Y3714153D01*
X655310Y3716010D01*
X654551Y3716593D01*
X653854Y3726861D01*
Y3727967D01*
X664963Y3739076D01*
X671780D01*
Y3714750D01*
X671977Y3713759D01*
X672539Y3712919D01*
X710639Y3674819D01*
X710984Y3674588D01*
X711312Y3674334D01*
X712582Y3673699D01*
X712672Y3673674D01*
X712749Y3673622D01*
X713156Y3673541D01*
X713556Y3673432D01*
X713649Y3673443D01*
X713740Y3673425D01*
X811092D01*
X864964Y3619553D01*
X864478Y3618380D01*
X855830D01*
Y3600300D01*
X873910D01*
Y3608948D01*
X875083Y3609434D01*
X928996Y3555521D01*
X929068Y3555473D01*
X929120Y3555405D01*
X929485Y3555194D01*
X929836Y3554960D01*
X929921Y3554943D01*
X929995Y3554900D01*
X930413Y3554845D01*
X930827Y3554763D01*
X930912Y3554779D01*
X930997Y3554768D01*
X931404Y3554877D01*
X931818Y3554960D01*
X932960Y3554497D01*
X933174Y3553981D01*
X934623Y3552093D01*
X936511Y3550644D01*
X938710Y3549733D01*
X941070Y3549422D01*
X943430Y3549733D01*
X945629Y3550644D01*
X947517Y3552093D01*
X947573Y3552166D01*
X947847Y3552363D01*
X948981Y3552577D01*
X949217Y3552479D01*
X949428Y3552337D01*
X949679Y3552288D01*
X949914Y3552190D01*
X950169D01*
X950420Y3552140D01*
X970280Y3552140D01*
X971271Y3552337D01*
X972111Y3552899D01*
X972673Y3553739D01*
X972870Y3554730D01*
X972870Y3622040D01*
X972673Y3623031D01*
X972111Y3623871D01*
X817287Y3778695D01*
X817216Y3788550D01*
X818111Y3789451D01*
X891561D01*
X911776Y3769235D01*
Y3705729D01*
X910445Y3703994D01*
X909549Y3701831D01*
X909243Y3699510D01*
X909549Y3697189D01*
X910445Y3695027D01*
X911870Y3693170D01*
X913727Y3691745D01*
X915889Y3690849D01*
X918210Y3690543D01*
X920531Y3690849D01*
X922693Y3691745D01*
X924550Y3693170D01*
X925975Y3695027D01*
X926871Y3697189D01*
X927177Y3699510D01*
X926871Y3701831D01*
X925975Y3703994D01*
X924644Y3705729D01*
Y3771900D01*
X924154Y3774362D01*
X922759Y3776449D01*
X898775Y3800434D01*
X896687Y3801829D01*
X894225Y3802318D01*
X818144D01*
X817145Y3803199D01*
X817110Y3803238D01*
X816660Y3865899D01*
X816560Y3866384D01*
X816463Y3866871D01*
X816457Y3866879D01*
X816455Y3866888D01*
X816177Y3867299D01*
X815901Y3867711D01*
X798121Y3885491D01*
X797281Y3886053D01*
X796290Y3886250D01*
X708660Y3886250D01*
X579120Y3886250D01*
D02*
G37*
G36*
X537210Y3662732D02*
Y3653790D01*
X546152D01*
X545965Y3655206D01*
X544928Y3657709D01*
X543279Y3659859D01*
X541129Y3661508D01*
X538626Y3662545D01*
X537210Y3662732D01*
D02*
G37*
G36*
X534670D02*
X533254Y3662545D01*
X530751Y3661508D01*
X528601Y3659859D01*
X526952Y3657709D01*
X525915Y3655206D01*
X525728Y3653790D01*
X534670D01*
Y3662732D01*
D02*
G37*
G36*
X546152Y3651250D02*
X537210D01*
Y3642308D01*
X538626Y3642495D01*
X541129Y3643532D01*
X543279Y3645181D01*
X544928Y3647331D01*
X545965Y3649834D01*
X546152Y3651250D01*
D02*
G37*
G36*
X534670D02*
X525728D01*
X525915Y3649834D01*
X526952Y3647331D01*
X528601Y3645181D01*
X530751Y3643532D01*
X533254Y3642495D01*
X534670Y3642308D01*
Y3651250D01*
D02*
G37*
G36*
X760033Y3618380D02*
X741953D01*
Y3600300D01*
X760033D01*
Y3618380D01*
D02*
G37*
G36*
X827193Y3618458D02*
X824833Y3618147D01*
X822634Y3617236D01*
X820746Y3615787D01*
X819297Y3613899D01*
X818386Y3611700D01*
X818075Y3609340D01*
X818386Y3606980D01*
X819297Y3604781D01*
X820746Y3602892D01*
X822634Y3601443D01*
X824833Y3600533D01*
X827193Y3600222D01*
X829553Y3600533D01*
X831752Y3601443D01*
X833641Y3602892D01*
X835090Y3604781D01*
X836001Y3606980D01*
X836311Y3609340D01*
X836001Y3611700D01*
X835090Y3613899D01*
X833641Y3615787D01*
X831752Y3617236D01*
X829553Y3618147D01*
X827193Y3618458D01*
D02*
G37*
G36*
X713317D02*
X710957Y3618147D01*
X708758Y3617236D01*
X706869Y3615787D01*
X705420Y3613899D01*
X704509Y3611700D01*
X704199Y3609340D01*
X704509Y3606980D01*
X705420Y3604781D01*
X706869Y3602892D01*
X708758Y3601443D01*
X710957Y3600533D01*
X713317Y3600222D01*
X715677Y3600533D01*
X717876Y3601443D01*
X719764Y3602892D01*
X721213Y3604781D01*
X722124Y3606980D01*
X722435Y3609340D01*
X722124Y3611700D01*
X721213Y3613899D01*
X719764Y3615787D01*
X717876Y3617236D01*
X715677Y3618147D01*
X713317Y3618458D01*
D02*
G37*
G36*
X827193Y3593058D02*
X824833Y3592747D01*
X822634Y3591837D01*
X820746Y3590387D01*
X819297Y3588499D01*
X818386Y3586300D01*
X818075Y3583940D01*
X818386Y3581580D01*
X819297Y3579381D01*
X820746Y3577493D01*
X822634Y3576044D01*
X824833Y3575133D01*
X827193Y3574822D01*
X829553Y3575133D01*
X831752Y3576044D01*
X833641Y3577493D01*
X835090Y3579381D01*
X836001Y3581580D01*
X836311Y3583940D01*
X836001Y3586300D01*
X835090Y3588499D01*
X833641Y3590387D01*
X831752Y3591837D01*
X829553Y3592747D01*
X827193Y3593058D01*
D02*
G37*
G36*
X750993D02*
X748633Y3592747D01*
X746434Y3591837D01*
X744546Y3590387D01*
X743097Y3588499D01*
X742186Y3586300D01*
X741875Y3583940D01*
X742186Y3581580D01*
X743097Y3579381D01*
X744546Y3577493D01*
X746434Y3576044D01*
X748633Y3575133D01*
X750993Y3574822D01*
X753353Y3575133D01*
X755552Y3576044D01*
X757441Y3577493D01*
X758890Y3579381D01*
X759801Y3581580D01*
X760111Y3583940D01*
X759801Y3586300D01*
X758890Y3588499D01*
X757441Y3590387D01*
X755552Y3591837D01*
X753353Y3592747D01*
X750993Y3593058D01*
D02*
G37*
G36*
X713317D02*
X710957Y3592747D01*
X708758Y3591837D01*
X708378Y3591545D01*
X695960D01*
X693992Y3591286D01*
X692158Y3590526D01*
X690582Y3589318D01*
X668992Y3567728D01*
X667784Y3566153D01*
X667024Y3564318D01*
X666765Y3562350D01*
Y3419186D01*
X666635Y3415057D01*
X666207Y3411021D01*
X665510Y3407534D01*
X664563Y3404604D01*
X663396Y3402227D01*
X662040Y3400378D01*
X660507Y3399002D01*
X658764Y3398033D01*
X656737Y3397437D01*
X654431Y3397235D01*
X601980D01*
X600012Y3396976D01*
X598177Y3396216D01*
X596602Y3395008D01*
X567392Y3365798D01*
X566184Y3364222D01*
X565424Y3362388D01*
X565165Y3360420D01*
Y3283560D01*
X549784Y3268179D01*
X546917D01*
X546373Y3269195D01*
X544432Y3271562D01*
X542065Y3273503D01*
X539366Y3274947D01*
X536436Y3275835D01*
X533390Y3276135D01*
X530344Y3275835D01*
X527414Y3274947D01*
X524715Y3273503D01*
X522348Y3271562D01*
X520406Y3269195D01*
X518964Y3266496D01*
X518075Y3263566D01*
X517775Y3260520D01*
X518075Y3257473D01*
X518964Y3254544D01*
X520406Y3251845D01*
X522348Y3249478D01*
X524715Y3247537D01*
X527414Y3246093D01*
X530344Y3245205D01*
X533390Y3244905D01*
X536436Y3245205D01*
X539366Y3246093D01*
X542065Y3247537D01*
X544432Y3249478D01*
X546373Y3251845D01*
X546974Y3252969D01*
X552934D01*
X554902Y3253228D01*
X556736Y3253988D01*
X558312Y3255197D01*
X578148Y3275032D01*
X579356Y3276607D01*
X580116Y3278442D01*
X580375Y3280410D01*
Y3357270D01*
X605130Y3382025D01*
X983640D01*
X1003315Y3362350D01*
Y3310367D01*
X1003145Y3294836D01*
X1001872Y3294654D01*
X1001556Y3295696D01*
X1000114Y3298395D01*
X998172Y3300762D01*
X996522Y3302116D01*
X996457Y3302206D01*
X996268Y3302780D01*
X994744Y3328552D01*
X994735Y3330816D01*
Y3334680D01*
X994476Y3336648D01*
X994031Y3337723D01*
X993716Y3338483D01*
X992508Y3340058D01*
X984548Y3348018D01*
X982973Y3349226D01*
X981138Y3349986D01*
X979170Y3350245D01*
X906780D01*
X904812Y3349986D01*
X903737Y3349541D01*
X902978Y3349226D01*
X901402Y3348018D01*
X805840Y3252455D01*
X689485D01*
X684866Y3252476D01*
X665659Y3253019D01*
X656937Y3253735D01*
X653877Y3254183D01*
X651712Y3254668D01*
X650646Y3255070D01*
X650471Y3255215D01*
X650315Y3255505D01*
X648215Y3258065D01*
X645655Y3260165D01*
X642734Y3261726D01*
X639566Y3262688D01*
X636270Y3263012D01*
X632975Y3262688D01*
X629806Y3261726D01*
X626885Y3260165D01*
X624325Y3258065D01*
X622225Y3255505D01*
X620663Y3252585D01*
X619702Y3249416D01*
X619642Y3248807D01*
X619524Y3248653D01*
X618764Y3246818D01*
X618505Y3244850D01*
X618764Y3242882D01*
X619524Y3241047D01*
X620732Y3239472D01*
X620782Y3239435D01*
X622225Y3236735D01*
X624325Y3234175D01*
X626885Y3232075D01*
X629806Y3230514D01*
X632975Y3229552D01*
X636270Y3229228D01*
X639566Y3229552D01*
X642734Y3230514D01*
X645655Y3232075D01*
X648215Y3234175D01*
X649440Y3235669D01*
X691543Y3237245D01*
X808990D01*
X810958Y3237504D01*
X812793Y3238264D01*
X814368Y3239472D01*
X909930Y3335035D01*
X976020D01*
X979482Y3331573D01*
X979149Y3313664D01*
X978667Y3306941D01*
X978368Y3304592D01*
X978047Y3302947D01*
X977803Y3302206D01*
X977738Y3302116D01*
X976088Y3300762D01*
X974146Y3298395D01*
X972703Y3295696D01*
X971815Y3292766D01*
X971515Y3289720D01*
X971815Y3286674D01*
X972703Y3283744D01*
X974146Y3281045D01*
X976088Y3278678D01*
X978455Y3276736D01*
X981154Y3275293D01*
X984084Y3274405D01*
X987130Y3274105D01*
X990176Y3274405D01*
X993106Y3275293D01*
X995805Y3276736D01*
X998172Y3278678D01*
X1000114Y3281045D01*
X1001421Y3283491D01*
X1002675Y3283143D01*
X1002466Y3278929D01*
X1002168Y3276179D01*
X1001843Y3274245D01*
X1001619Y3273474D01*
X999288Y3271562D01*
X997346Y3269195D01*
X997283Y3269077D01*
D01*
X995903Y3266496D01*
X995015Y3263566D01*
X994715Y3260520D01*
X995015Y3257473D01*
X995903Y3254544D01*
X997346Y3251845D01*
X999288Y3249478D01*
X1001655Y3247537D01*
X1004354Y3246093D01*
X1007284Y3245205D01*
X1010330Y3244905D01*
X1013376Y3245205D01*
X1016306Y3246093D01*
X1019005Y3247537D01*
X1021372Y3249478D01*
X1023314Y3251845D01*
X1024756Y3254544D01*
X1025645Y3257473D01*
X1025945Y3260520D01*
X1025645Y3263566D01*
X1024756Y3266496D01*
X1023314Y3269195D01*
X1021372Y3271562D01*
X1019951Y3272727D01*
X1018525Y3310895D01*
Y3365500D01*
X1018266Y3367468D01*
X1017506Y3369303D01*
X1016298Y3370878D01*
X992168Y3395008D01*
X990593Y3396216D01*
X988758Y3396976D01*
X986790Y3397235D01*
X971859D01*
X971450Y3398438D01*
X972187Y3399003D01*
X974117Y3401518D01*
X975330Y3404447D01*
X975744Y3407590D01*
Y3408590D01*
X975330Y3411733D01*
X974117Y3414662D01*
X972187Y3417177D01*
X969672Y3419107D01*
X966743Y3420320D01*
X963600Y3420734D01*
X960457Y3420320D01*
X957528Y3419107D01*
X955013Y3417177D01*
X953083Y3414662D01*
X951870Y3411733D01*
X951456Y3408590D01*
Y3407590D01*
X951870Y3404447D01*
X953083Y3401518D01*
X955013Y3399003D01*
X955750Y3398438D01*
X955341Y3397235D01*
X694309D01*
X692003Y3397437D01*
X689976Y3398033D01*
X688233Y3399002D01*
X686700Y3400378D01*
X685344Y3402227D01*
X684177Y3404604D01*
X683230Y3407534D01*
X682533Y3411021D01*
X682105Y3415057D01*
X681975Y3419186D01*
Y3559200D01*
X699110Y3576335D01*
X708378D01*
X708758Y3576044D01*
X710957Y3575133D01*
X713317Y3574822D01*
X715677Y3575133D01*
X717876Y3576044D01*
X719764Y3577493D01*
X721213Y3579381D01*
X722124Y3581580D01*
X722435Y3583940D01*
X722124Y3586300D01*
X721213Y3588499D01*
X719764Y3590387D01*
X717876Y3591837D01*
X715677Y3592747D01*
X713317Y3593058D01*
D02*
G37*
G36*
X864870Y3567658D02*
X862510Y3567347D01*
X860311Y3566436D01*
X858423Y3564987D01*
X856974Y3563099D01*
X856063Y3560900D01*
X855752Y3558540D01*
X856063Y3556180D01*
X856974Y3553981D01*
X858423Y3552093D01*
X860311Y3550644D01*
X862510Y3549733D01*
X864870Y3549422D01*
X867230Y3549733D01*
X869429Y3550644D01*
X871317Y3552093D01*
X872766Y3553981D01*
X873677Y3556180D01*
X873988Y3558540D01*
X873677Y3560900D01*
X872766Y3563099D01*
X871317Y3564987D01*
X869429Y3566436D01*
X867230Y3567347D01*
X864870Y3567658D01*
D02*
G37*
G36*
X827193D02*
X824833Y3567347D01*
X822634Y3566436D01*
X820746Y3564987D01*
X819297Y3563099D01*
X818386Y3560900D01*
X818075Y3558540D01*
X818386Y3556180D01*
X819297Y3553981D01*
X820746Y3552093D01*
X822634Y3550644D01*
X824833Y3549733D01*
X827193Y3549422D01*
X829553Y3549733D01*
X831752Y3550644D01*
X833641Y3552093D01*
X835090Y3553981D01*
X836001Y3556180D01*
X836311Y3558540D01*
X836001Y3560900D01*
X835090Y3563099D01*
X833641Y3564987D01*
X831752Y3566436D01*
X829553Y3567347D01*
X827193Y3567658D01*
D02*
G37*
G36*
X750993D02*
X748633Y3567347D01*
X746434Y3566436D01*
X744546Y3564987D01*
X743097Y3563099D01*
X742186Y3560900D01*
X741875Y3558540D01*
X742186Y3556180D01*
X743097Y3553981D01*
X744546Y3552093D01*
X746434Y3550644D01*
X748633Y3549733D01*
X750993Y3549422D01*
X753353Y3549733D01*
X755552Y3550644D01*
X757441Y3552093D01*
X758890Y3553981D01*
X759801Y3556180D01*
X760111Y3558540D01*
X759801Y3560900D01*
X758890Y3563099D01*
X757441Y3564987D01*
X755552Y3566436D01*
X753353Y3567347D01*
X750993Y3567658D01*
D02*
G37*
G36*
X637117D02*
X634757Y3567347D01*
X632558Y3566436D01*
X630669Y3564987D01*
X629220Y3563099D01*
X628309Y3560900D01*
X627999Y3558540D01*
X628309Y3556180D01*
X629220Y3553981D01*
X630669Y3552093D01*
X632558Y3550644D01*
X634757Y3549733D01*
X637117Y3549422D01*
X639477Y3549733D01*
X641676Y3550644D01*
X643564Y3552093D01*
X645013Y3553981D01*
X645924Y3556180D01*
X646235Y3558540D01*
X645924Y3560900D01*
X645013Y3563099D01*
X643564Y3564987D01*
X641676Y3566436D01*
X639477Y3567347D01*
X637117Y3567658D01*
D02*
G37*
G36*
X734060Y3511769D02*
X731374Y3511415D01*
X728871Y3510378D01*
X726721Y3508729D01*
X725072Y3506579D01*
X724035Y3504076D01*
X723681Y3501390D01*
X724035Y3498704D01*
X725072Y3496201D01*
X726721Y3494051D01*
X728871Y3492402D01*
X731374Y3491365D01*
X734060Y3491011D01*
X736746Y3491365D01*
X739249Y3492402D01*
X741399Y3494051D01*
X743048Y3496201D01*
X744085Y3498704D01*
X744439Y3501390D01*
X744085Y3504076D01*
X743048Y3506579D01*
X741399Y3508729D01*
X739249Y3510378D01*
X736746Y3511415D01*
X734060Y3511769D01*
D02*
G37*
G36*
X963600Y3505824D02*
X960457Y3505410D01*
X957528Y3504197D01*
X955013Y3502267D01*
X953083Y3499752D01*
X951870Y3496823D01*
X951456Y3493680D01*
Y3492680D01*
X951870Y3489537D01*
X953083Y3486608D01*
X955013Y3484093D01*
X957528Y3482163D01*
X960457Y3480950D01*
X963600Y3480536D01*
X966743Y3480950D01*
X969672Y3482163D01*
X972187Y3484093D01*
X974117Y3486608D01*
X975330Y3489537D01*
X975744Y3492680D01*
Y3493680D01*
X975330Y3496823D01*
X974117Y3499752D01*
X972187Y3502267D01*
X969672Y3504197D01*
X966743Y3505410D01*
X963600Y3505824D01*
D02*
G37*
G36*
X975140Y3478820D02*
X952060D01*
Y3456740D01*
X975140D01*
Y3478820D01*
D02*
G37*
G36*
X468630Y3467319D02*
X465944Y3466965D01*
X463441Y3465928D01*
X461291Y3464279D01*
X459642Y3462130D01*
X458605Y3459626D01*
X458251Y3456940D01*
X458605Y3454254D01*
X459642Y3451750D01*
X461291Y3449601D01*
X463441Y3447952D01*
X465944Y3446915D01*
X468630Y3446561D01*
X471316Y3446915D01*
X473819Y3447952D01*
X475969Y3449601D01*
X477618Y3451750D01*
X478655Y3454254D01*
X479009Y3456940D01*
X478655Y3459626D01*
X477618Y3462130D01*
X475969Y3464279D01*
X473819Y3465928D01*
X471316Y3466965D01*
X468630Y3467319D01*
D02*
G37*
G36*
X975140Y3444530D02*
X952060D01*
Y3422450D01*
X975140D01*
Y3444530D01*
D02*
G37*
G36*
X728951Y3354037D02*
X704871D01*
Y3329957D01*
X728951D01*
Y3354037D01*
D02*
G37*
G36*
X843911Y3354141D02*
X840768Y3353727D01*
X837839Y3352514D01*
X835324Y3350584D01*
X833394Y3348069D01*
X832181Y3345140D01*
X831767Y3341997D01*
X832181Y3338854D01*
X833394Y3335925D01*
X835324Y3333410D01*
X837839Y3331480D01*
X840768Y3330267D01*
X843911Y3329854D01*
X847054Y3330267D01*
X849983Y3331480D01*
X852498Y3333410D01*
X854428Y3335925D01*
X855641Y3338854D01*
X856055Y3341997D01*
X855641Y3345140D01*
X854428Y3348069D01*
X852498Y3350584D01*
X849983Y3352514D01*
X847054Y3353727D01*
X843911Y3354141D01*
D02*
G37*
G36*
X780411D02*
X777268Y3353727D01*
X774339Y3352514D01*
X771824Y3350584D01*
X769894Y3348069D01*
X768681Y3345140D01*
X768267Y3341997D01*
X768681Y3338854D01*
X769894Y3335925D01*
X771824Y3333410D01*
X774339Y3331480D01*
X777268Y3330267D01*
X780411Y3329854D01*
X783554Y3330267D01*
X786483Y3331480D01*
X788998Y3333410D01*
X790928Y3335925D01*
X792141Y3338854D01*
X792554Y3341997D01*
X792141Y3345140D01*
X790928Y3348069D01*
X788998Y3350584D01*
X786483Y3352514D01*
X783554Y3353727D01*
X780411Y3354141D01*
D02*
G37*
G36*
X653081Y3309921D02*
X619459D01*
Y3276299D01*
X653081D01*
Y3309921D01*
D02*
G37*
G36*
X510190Y3305335D02*
X507144Y3305035D01*
X504214Y3304146D01*
X501515Y3302704D01*
X499148Y3300762D01*
X497206Y3298395D01*
X495763Y3295696D01*
X494875Y3292766D01*
X494575Y3289720D01*
X494875Y3286674D01*
X495763Y3283744D01*
X497206Y3281045D01*
X499148Y3278678D01*
X501515Y3276736D01*
X504214Y3275293D01*
X507144Y3274405D01*
X510190Y3274105D01*
X513236Y3274405D01*
X516166Y3275293D01*
X518865Y3276736D01*
X521232Y3278678D01*
X523173Y3281045D01*
X524617Y3283744D01*
X525505Y3286674D01*
X525805Y3289720D01*
X525505Y3292766D01*
X524617Y3295696D01*
X523173Y3298395D01*
X521232Y3300762D01*
X518865Y3302704D01*
X516166Y3304146D01*
X513236Y3305035D01*
X510190Y3305335D01*
D02*
G37*
G36*
X949730D02*
X946684Y3305035D01*
X943754Y3304146D01*
X941055Y3302704D01*
X938688Y3300762D01*
X937406Y3299200D01*
X898980Y3297325D01*
X895770D01*
X893802Y3297066D01*
X891967Y3296306D01*
X890392Y3295098D01*
X765200Y3169905D01*
X467970D01*
X433055Y3204820D01*
Y3256790D01*
X434325Y3256978D01*
X435063Y3254544D01*
X436506Y3251845D01*
X438448Y3249478D01*
X440815Y3247537D01*
X443514Y3246093D01*
X446444Y3245205D01*
X449490Y3244905D01*
X452536Y3245205D01*
X455466Y3246093D01*
X458165Y3247537D01*
X460532Y3249478D01*
X462473Y3251845D01*
X463917Y3254544D01*
X464805Y3257473D01*
X465105Y3260520D01*
X464805Y3263566D01*
X463917Y3266496D01*
X462473Y3269195D01*
X460532Y3271562D01*
X458165Y3273503D01*
X455466Y3274947D01*
X452536Y3275835D01*
X449490Y3276135D01*
X446444Y3275835D01*
X443514Y3274947D01*
X440815Y3273503D01*
X438448Y3271562D01*
X436506Y3269195D01*
X435063Y3266496D01*
X434325Y3264062D01*
X433055Y3264250D01*
Y3283773D01*
X434419Y3285137D01*
X449512Y3284876D01*
X455193Y3284488D01*
X457105Y3284250D01*
X458280Y3284020D01*
X458363Y3283744D01*
X459806Y3281045D01*
X461748Y3278678D01*
X464115Y3276736D01*
X466814Y3275293D01*
X469744Y3274405D01*
X472790Y3274105D01*
X475836Y3274405D01*
X478766Y3275293D01*
X481465Y3276736D01*
X483832Y3278678D01*
X485774Y3281045D01*
X487216Y3283744D01*
X488105Y3286674D01*
X488405Y3289720D01*
X488105Y3292766D01*
X487216Y3295696D01*
X485774Y3298395D01*
X483832Y3300762D01*
X481465Y3302704D01*
X478766Y3304146D01*
X475836Y3305035D01*
X472790Y3305335D01*
X469744Y3305035D01*
X466814Y3304146D01*
X464115Y3302704D01*
X462573Y3301438D01*
X431713Y3300386D01*
X431308D01*
X429339Y3300127D01*
X428265Y3299682D01*
X427505Y3299368D01*
X425930Y3298159D01*
X420072Y3292301D01*
X418864Y3290726D01*
X418104Y3288892D01*
X417845Y3286924D01*
Y3201670D01*
X418104Y3199702D01*
X418864Y3197867D01*
X420072Y3196292D01*
X459442Y3156922D01*
X461017Y3155714D01*
X461777Y3155399D01*
X462852Y3154954D01*
X464820Y3154695D01*
X768350D01*
X770318Y3154954D01*
X772152Y3155714D01*
X773728Y3156922D01*
X898920Y3282115D01*
X899630D01*
X928009Y3281644D01*
X934354Y3281187D01*
X936267Y3280923D01*
X936990Y3280748D01*
X938688Y3278678D01*
X941055Y3276736D01*
X943754Y3275293D01*
X946684Y3274405D01*
X949730Y3274105D01*
X952776Y3274405D01*
X955706Y3275293D01*
X958405Y3276736D01*
X960772Y3278678D01*
X962713Y3281045D01*
X964156Y3283744D01*
X965045Y3286674D01*
X965345Y3289720D01*
X965045Y3292766D01*
X964156Y3295696D01*
X962713Y3298395D01*
X960772Y3300762D01*
X958405Y3302704D01*
X955706Y3304146D01*
X952776Y3305035D01*
X949730Y3305335D01*
D02*
G37*
G36*
X969700Y3266510D02*
Y3252290D01*
X983920D01*
X983745Y3254066D01*
X982857Y3256996D01*
X981414Y3259695D01*
X979472Y3262061D01*
X977105Y3264004D01*
X974406Y3265446D01*
X971476Y3266335D01*
X969700Y3266510D01*
D02*
G37*
G36*
X967160D02*
X965384Y3266335D01*
X962454Y3265446D01*
X959755Y3264004D01*
X957388Y3262061D01*
X955446Y3259695D01*
X954004Y3256996D01*
X953115Y3254066D01*
X952940Y3252290D01*
X967160D01*
Y3266510D01*
D02*
G37*
G36*
X492760D02*
Y3252290D01*
X506980D01*
X506805Y3254066D01*
X505916Y3256996D01*
X504473Y3259695D01*
X502532Y3262061D01*
X500165Y3264004D01*
X497466Y3265446D01*
X494536Y3266335D01*
X492760Y3266510D01*
D02*
G37*
G36*
X490220D02*
X488444Y3266335D01*
X485514Y3265446D01*
X482815Y3264004D01*
X480448Y3262061D01*
X478507Y3259695D01*
X477063Y3256996D01*
X476175Y3254066D01*
X476000Y3252290D01*
X490220D01*
Y3266510D01*
D02*
G37*
G36*
X926430Y3276135D02*
X923384Y3275835D01*
X920454Y3274947D01*
X917755Y3273503D01*
X915388Y3271562D01*
X913447Y3269195D01*
X912003Y3266496D01*
X911115Y3263566D01*
X910815Y3260520D01*
X911115Y3257473D01*
X912003Y3254544D01*
X913447Y3251845D01*
X915388Y3249478D01*
X917755Y3247537D01*
X920454Y3246093D01*
X923384Y3245205D01*
X926430Y3244905D01*
X929476Y3245205D01*
X932406Y3246093D01*
X935105Y3247537D01*
X937472Y3249478D01*
X939414Y3251845D01*
X940856Y3254544D01*
X941745Y3257473D01*
X942045Y3260520D01*
X941745Y3263566D01*
X940856Y3266496D01*
X939414Y3269195D01*
X937472Y3271562D01*
X935105Y3273503D01*
X932406Y3274947D01*
X929476Y3275835D01*
X926430Y3276135D01*
D02*
G37*
G36*
X983920Y3249750D02*
X969700D01*
Y3235530D01*
X971476Y3235705D01*
X974406Y3236594D01*
X977105Y3238036D01*
X979472Y3239978D01*
X981414Y3242345D01*
X982857Y3245044D01*
X983745Y3247974D01*
X983920Y3249750D01*
D02*
G37*
G36*
X967160D02*
X952940D01*
X953115Y3247974D01*
X954004Y3245044D01*
X955446Y3242345D01*
X957388Y3239978D01*
X959755Y3238036D01*
X962454Y3236594D01*
X965384Y3235705D01*
X967160Y3235530D01*
Y3249750D01*
D02*
G37*
G36*
X506980D02*
X492760D01*
Y3235530D01*
X494536Y3235705D01*
X497466Y3236594D01*
X500165Y3238036D01*
X502532Y3239978D01*
X504473Y3242345D01*
X505916Y3245044D01*
X506805Y3247974D01*
X506980Y3249750D01*
D02*
G37*
G36*
X490220D02*
X476000D01*
X476175Y3247974D01*
X477063Y3245044D01*
X478507Y3242345D01*
X480448Y3239978D01*
X482815Y3238036D01*
X485514Y3236594D01*
X488444Y3235705D01*
X490220Y3235530D01*
Y3249750D01*
D02*
G37*
G36*
X934830Y3239835D02*
X931784Y3239535D01*
X928854Y3238647D01*
X926155Y3237203D01*
X923788Y3235262D01*
X921846Y3232895D01*
X920404Y3230196D01*
X919515Y3227267D01*
X919215Y3224220D01*
X919515Y3221174D01*
X920404Y3218244D01*
X921846Y3215545D01*
X923788Y3213178D01*
X926155Y3211237D01*
X928854Y3209793D01*
X931784Y3208905D01*
X934830Y3208605D01*
X937876Y3208905D01*
X940806Y3209793D01*
X943505Y3211237D01*
X945872Y3213178D01*
X947813Y3215545D01*
X949257Y3218244D01*
X950145Y3221174D01*
X950445Y3224220D01*
X950145Y3227267D01*
X949257Y3230196D01*
X947813Y3232895D01*
X945872Y3235262D01*
X943505Y3237203D01*
X940806Y3238647D01*
X937876Y3239535D01*
X934830Y3239835D01*
D02*
G37*
G36*
X525090D02*
X522044Y3239535D01*
X519114Y3238647D01*
X516415Y3237203D01*
X514048Y3235262D01*
X512106Y3232895D01*
X510663Y3230196D01*
X509775Y3227267D01*
X509475Y3224220D01*
X509775Y3221174D01*
X510663Y3218244D01*
X512106Y3215545D01*
X514048Y3213178D01*
X516415Y3211237D01*
X519114Y3209793D01*
X522044Y3208905D01*
X525090Y3208605D01*
X528136Y3208905D01*
X531066Y3209793D01*
X533765Y3211237D01*
X536132Y3213178D01*
X538074Y3215545D01*
X539516Y3218244D01*
X540405Y3221174D01*
X540705Y3224220D01*
X540405Y3227267D01*
X539516Y3230196D01*
X538074Y3232895D01*
X536132Y3235262D01*
X533765Y3237203D01*
X531066Y3238647D01*
X528136Y3239535D01*
X525090Y3239835D01*
D02*
G37*
G36*
X457890D02*
X454844Y3239535D01*
X451914Y3238647D01*
X449215Y3237203D01*
X446848Y3235262D01*
X444907Y3232895D01*
X443464Y3230196D01*
X442575Y3227267D01*
X442275Y3224220D01*
X442575Y3221174D01*
X443464Y3218244D01*
X444907Y3215545D01*
X446848Y3213178D01*
X449215Y3211237D01*
X451914Y3209793D01*
X454844Y3208905D01*
X457890Y3208605D01*
X460936Y3208905D01*
X463866Y3209793D01*
X466565Y3211237D01*
X468932Y3213178D01*
X470873Y3215545D01*
X472317Y3218244D01*
X473205Y3221174D01*
X473505Y3224220D01*
X473205Y3227267D01*
X472317Y3230196D01*
X470873Y3232895D01*
X468932Y3235262D01*
X466565Y3237203D01*
X463866Y3238647D01*
X460936Y3239535D01*
X457890Y3239835D01*
D02*
G37*
G36*
X968430Y3223635D02*
X965384Y3223335D01*
X962454Y3222447D01*
X959755Y3221003D01*
X957388Y3219062D01*
X955446Y3216695D01*
X954004Y3213996D01*
X953115Y3211066D01*
X952815Y3208020D01*
X953115Y3204973D01*
X954004Y3202044D01*
X955446Y3199345D01*
X957388Y3196978D01*
X959755Y3195037D01*
X962454Y3193593D01*
X965384Y3192705D01*
X968430Y3192405D01*
X971476Y3192705D01*
X974406Y3193593D01*
X977105Y3195037D01*
X979472Y3196978D01*
X981414Y3199345D01*
X982857Y3202044D01*
X983745Y3204973D01*
X984045Y3208020D01*
X983745Y3211066D01*
X982857Y3213996D01*
X981414Y3216695D01*
X979472Y3219062D01*
X977105Y3221003D01*
X974406Y3222447D01*
X971476Y3223335D01*
X968430Y3223635D01*
D02*
G37*
G36*
X491490D02*
X488444Y3223335D01*
X485514Y3222447D01*
X482815Y3221003D01*
X480448Y3219062D01*
X478507Y3216695D01*
X477063Y3213996D01*
X476175Y3211066D01*
X475875Y3208020D01*
X476175Y3204973D01*
X477063Y3202044D01*
X478507Y3199345D01*
X480448Y3196978D01*
X482815Y3195037D01*
X485514Y3193593D01*
X488444Y3192705D01*
X491490Y3192405D01*
X494536Y3192705D01*
X497466Y3193593D01*
X500165Y3195037D01*
X502532Y3196978D01*
X504473Y3199345D01*
X505916Y3202044D01*
X506805Y3204973D01*
X507105Y3208020D01*
X506805Y3211066D01*
X505916Y3213996D01*
X504473Y3216695D01*
X502532Y3219062D01*
X500165Y3221003D01*
X497466Y3222447D01*
X494536Y3223335D01*
X491490Y3223635D01*
D02*
G37*
G36*
X636270Y3216022D02*
X632975Y3215698D01*
X629806Y3214737D01*
X626885Y3213175D01*
X624325Y3211075D01*
X622225Y3208515D01*
X620663Y3205594D01*
X619702Y3202426D01*
X619378Y3199130D01*
X619702Y3195834D01*
X620663Y3192666D01*
X622225Y3189745D01*
X624325Y3187185D01*
X626885Y3185085D01*
X629806Y3183524D01*
X632975Y3182562D01*
X636270Y3182238D01*
X639566Y3182562D01*
X642734Y3183524D01*
X645655Y3185085D01*
X648215Y3187185D01*
X650315Y3189745D01*
X651877Y3192666D01*
X652838Y3195834D01*
X653162Y3199130D01*
X652838Y3202426D01*
X651877Y3205594D01*
X650315Y3208515D01*
X648215Y3211075D01*
X645655Y3213175D01*
X642734Y3214737D01*
X639566Y3215698D01*
X636270Y3216022D01*
D02*
G37*
G36*
X1002030Y3239835D02*
X998984Y3239535D01*
X996054Y3238647D01*
X993355Y3237203D01*
X990988Y3235262D01*
X989046Y3232895D01*
X987604Y3230196D01*
X986715Y3227267D01*
X986415Y3224220D01*
X986715Y3221174D01*
X987604Y3218244D01*
X989046Y3215545D01*
X990988Y3213178D01*
X992243Y3212149D01*
X992265Y3212113D01*
X993013Y3211295D01*
X993633Y3210131D01*
X994290Y3208240D01*
X994903Y3205678D01*
X995428Y3202552D01*
X996636Y3183718D01*
Y3180314D01*
X939771D01*
X933406Y3180373D01*
X928255Y3180601D01*
X927606Y3180669D01*
X927090Y3181340D01*
X925233Y3182766D01*
X923071Y3183661D01*
X920750Y3183967D01*
X918429Y3183661D01*
X916267Y3182766D01*
X914410Y3181340D01*
X912985Y3179483D01*
X912089Y3177321D01*
X911783Y3175000D01*
X912089Y3172679D01*
X912985Y3170517D01*
X914410Y3168660D01*
X916267Y3167234D01*
X918429Y3166339D01*
X920750Y3166033D01*
X923071Y3166339D01*
X925233Y3167234D01*
X927090Y3168660D01*
X927378Y3169035D01*
X943733Y3169526D01*
X999394D01*
X1001458Y3169937D01*
X1003208Y3171106D01*
X1005844Y3173742D01*
X1007013Y3175492D01*
X1007424Y3177556D01*
Y3183781D01*
X1007824Y3194271D01*
X1008625Y3202509D01*
X1009157Y3205678D01*
X1009770Y3208240D01*
X1010427Y3210131D01*
X1011047Y3211295D01*
X1011795Y3212113D01*
X1011817Y3212149D01*
X1013072Y3213178D01*
X1015014Y3215545D01*
X1016457Y3218244D01*
X1017345Y3221174D01*
X1017645Y3224220D01*
X1017345Y3227267D01*
X1016457Y3230196D01*
X1015014Y3232895D01*
X1013072Y3235262D01*
X1010705Y3237203D01*
X1008006Y3238647D01*
X1005076Y3239535D01*
X1002030Y3239835D01*
D02*
G37*
%LPD*%
G36*
X708660Y3883660D02*
X796290Y3883660D01*
X814070Y3865880D01*
X814521Y3803220D01*
X813626Y3802318D01*
X772702D01*
X770967Y3803650D01*
X768804Y3804546D01*
X766483Y3804851D01*
X764163Y3804546D01*
X762000Y3803650D01*
X760143Y3802225D01*
X758718Y3800368D01*
X757822Y3798205D01*
X757517Y3795885D01*
X757822Y3793564D01*
X758718Y3791401D01*
X760143Y3789544D01*
X762000Y3788119D01*
X764163Y3787224D01*
X766483Y3786918D01*
X768804Y3787224D01*
X770967Y3788119D01*
X772702Y3789451D01*
X814620D01*
X814705Y3777615D01*
X970280Y3622040D01*
X970280Y3554730D01*
X950419Y3554730D01*
X949714Y3555786D01*
X949877Y3556180D01*
X950188Y3558540D01*
X949877Y3560900D01*
X948966Y3563099D01*
X947517Y3564987D01*
X945629Y3566436D01*
X943430Y3567347D01*
X941070Y3567658D01*
X938710Y3567347D01*
X936511Y3566436D01*
X934623Y3564987D01*
X933174Y3563099D01*
X932263Y3560900D01*
X931952Y3558540D01*
X932030Y3557946D01*
X930827Y3557352D01*
X873910Y3614270D01*
Y3618380D01*
X869800D01*
X812165Y3676015D01*
X713740D01*
X712470Y3676650D01*
X674370Y3714750D01*
Y3739076D01*
X685268D01*
X690759Y3739018D01*
X697069Y3738714D01*
X698339Y3738581D01*
X699143Y3738450D01*
X699780Y3737620D01*
X701637Y3736194D01*
X703799Y3735299D01*
X706120Y3734993D01*
X708441Y3735299D01*
X710603Y3736194D01*
X712460Y3737620D01*
X713885Y3739477D01*
X714781Y3741639D01*
X715087Y3743960D01*
X714781Y3746281D01*
X713885Y3748443D01*
X712460Y3750300D01*
X710603Y3751725D01*
X708441Y3752621D01*
X706120Y3752927D01*
X703799Y3752621D01*
X701637Y3751725D01*
X699780Y3750300D01*
X699293Y3749666D01*
X685212Y3748844D01*
X674370D01*
Y3784388D01*
X669290Y3789680D01*
X626110D01*
X608803Y3772373D01*
X607206Y3773035D01*
X605790Y3773222D01*
Y3763010D01*
X604520D01*
Y3761740D01*
X594308D01*
X594495Y3760324D01*
X595157Y3758727D01*
X514200Y3677770D01*
Y3618380D01*
Y3615540D01*
X496530Y3597870D01*
X495260Y3598396D01*
Y3599084D01*
X495279Y3599181D01*
X495260Y3599277D01*
Y3609690D01*
X485180D01*
Y3599277D01*
X485161Y3599181D01*
X485180Y3599084D01*
Y3596610D01*
X486300D01*
X486335Y3596156D01*
Y3594100D01*
X486631Y3592614D01*
X487473Y3591353D01*
X488743Y3590083D01*
X487680Y3589020D01*
X457698Y3589020D01*
X456800Y3589918D01*
Y3599310D01*
X436220D01*
Y3589715D01*
X435420Y3589459D01*
X434340Y3590329D01*
X434340Y3640328D01*
X435298Y3641286D01*
X462280D01*
X464149Y3641658D01*
X465733Y3642717D01*
X493673Y3670657D01*
X494732Y3672241D01*
X495104Y3674110D01*
Y3675350D01*
X495260D01*
Y3677736D01*
X495277Y3677804D01*
X495268Y3677862D01*
X495279Y3677921D01*
X495260Y3678017D01*
Y3688430D01*
X485180D01*
Y3678017D01*
X485161Y3677921D01*
X485172Y3677862D01*
X485163Y3677804D01*
X485180Y3677736D01*
Y3675977D01*
X460257Y3651054D01*
X434340D01*
X434340Y3713480D01*
X497840Y3776980D01*
X497840Y3802380D01*
X579120Y3883660D01*
X708660Y3883660D01*
D02*
G37*
G36*
X700754Y3740564D02*
X700427Y3740782D01*
X699737Y3740977D01*
X698684Y3741149D01*
X697267Y3741298D01*
X690835Y3741607D01*
X681132Y3741710D01*
Y3746210D01*
X684730Y3746222D01*
X700427Y3747138D01*
X700754Y3747356D01*
Y3740564D01*
D02*
G37*
G36*
X651230Y3727273D02*
X652038Y3715377D01*
X652230Y3715120D01*
X645710D01*
X645902Y3715377D01*
X646074Y3715908D01*
X646225Y3716711D01*
X646357Y3717789D01*
X646558Y3720763D01*
X646720Y3729990D01*
X651220D01*
X651230Y3727273D01*
D02*
G37*
G36*
X492648Y3677882D02*
X492611Y3677768D01*
X492578Y3677578D01*
X492549Y3677311D01*
X492490Y3676053D01*
X492470Y3674110D01*
X487970D01*
X487968Y3674834D01*
X487792Y3677882D01*
X487751Y3677921D01*
X492690D01*
X492648Y3677882D01*
D02*
G37*
G36*
X680434Y3671984D02*
X680107Y3672202D01*
X679417Y3672397D01*
X678364Y3672569D01*
X676947Y3672718D01*
X670515Y3673027D01*
X660812Y3673130D01*
Y3677630D01*
X664410Y3677642D01*
X680107Y3678558D01*
X680434Y3678776D01*
Y3671984D01*
D02*
G37*
G36*
X701439Y3659501D02*
X701307Y3659549D01*
X700955Y3659592D01*
X700382Y3659630D01*
X690203Y3659753D01*
Y3664253D01*
X701439Y3664505D01*
Y3659501D01*
D02*
G37*
G36*
X492462Y3599142D02*
X492258Y3599028D01*
X492078Y3598838D01*
X491922Y3598571D01*
X491790Y3598228D01*
X491682Y3597809D01*
X491598Y3597314D01*
X491538Y3596742D01*
X491490Y3595370D01*
X488950D01*
X488938Y3596094D01*
X488842Y3597314D01*
X488758Y3597809D01*
X488650Y3598228D01*
X488518Y3598571D01*
X488362Y3598838D01*
X488182Y3599028D01*
X487978Y3599142D01*
X487751Y3599181D01*
X492690D01*
X492462Y3599142D01*
D02*
G37*
G36*
X517979Y3585230D02*
X521544Y3585471D01*
X521650Y3585532D01*
Y3582348D01*
X521544Y3582409D01*
X521356Y3582464D01*
X521086Y3582512D01*
X520732Y3582554D01*
X519179Y3582641D01*
X517979Y3582656D01*
Y3580123D01*
X517470Y3580607D01*
X516684Y3581040D01*
X515619Y3581422D01*
X514276Y3581753D01*
X512655Y3582033D01*
X508579Y3582441D01*
X503391Y3582644D01*
X500380Y3582670D01*
Y3585210D01*
X503391Y3585236D01*
X512655Y3585847D01*
X514276Y3586127D01*
X515619Y3586458D01*
X516684Y3586840D01*
X517470Y3587273D01*
X517979Y3587757D01*
Y3585230D01*
D02*
G37*
G36*
X642950Y3587183D02*
X643662Y3586974D01*
X644744Y3586791D01*
X646199Y3586631D01*
X652787Y3586300D01*
X662715Y3586190D01*
Y3581690D01*
X659034Y3581678D01*
X642950Y3580697D01*
X642609Y3580464D01*
Y3587416D01*
X642950Y3587183D01*
D02*
G37*
G36*
X670439Y3670438D02*
X676749Y3670134D01*
X678019Y3670001D01*
X678823Y3669870D01*
X679460Y3669040D01*
X681317Y3667615D01*
X683479Y3666719D01*
X685800Y3666413D01*
X685995Y3666439D01*
X686169Y3666212D01*
X686520Y3665227D01*
X677267Y3655974D01*
X676208Y3654389D01*
X675836Y3652520D01*
Y3598663D01*
X665997Y3588824D01*
X658763D01*
X652866Y3588889D01*
X646404Y3589214D01*
X645103Y3589357D01*
X644244Y3589503D01*
X644243Y3589503D01*
X643564Y3590387D01*
X641676Y3591837D01*
X639477Y3592747D01*
X637117Y3593058D01*
X634757Y3592747D01*
X632558Y3591837D01*
X630669Y3590387D01*
X629469Y3588824D01*
X626110D01*
X624241Y3588452D01*
X622657Y3587393D01*
X616307Y3581043D01*
X615248Y3579459D01*
X614876Y3577590D01*
Y3535484D01*
X445253D01*
X429064Y3551673D01*
Y3635257D01*
X430577Y3636770D01*
X431750Y3636284D01*
X431750Y3590329D01*
X431777Y3590192D01*
X431765Y3590053D01*
X431875Y3589700D01*
X431947Y3589338D01*
X432025Y3589222D01*
X432067Y3589088D01*
X432304Y3588805D01*
X432509Y3588498D01*
X432625Y3588420D01*
X432715Y3588313D01*
X433795Y3587443D01*
X434029Y3587320D01*
X434235Y3587156D01*
X434472Y3587088D01*
X434690Y3586974D01*
X434953Y3586950D01*
X435207Y3586878D01*
X436018Y3586168D01*
X436219Y3585718D01*
X436220Y3585716D01*
Y3578730D01*
X456800D01*
Y3585693D01*
X457698Y3586430D01*
X487680Y3586431D01*
X488671Y3586628D01*
X489511Y3587189D01*
X490574Y3588252D01*
X497633Y3581193D01*
X498894Y3580351D01*
X500380Y3580055D01*
X503312D01*
X503330Y3580055D01*
X508399Y3579856D01*
X512305Y3579466D01*
X513745Y3579217D01*
X514869Y3578939D01*
X515615Y3578672D01*
X515928Y3578499D01*
X516194Y3578246D01*
X516233Y3578221D01*
X516793Y3577493D01*
X518681Y3576044D01*
X520880Y3575133D01*
X523240Y3574822D01*
X525600Y3575133D01*
X527799Y3576044D01*
X529687Y3577493D01*
X530887Y3579056D01*
X537210D01*
X539079Y3579428D01*
X540663Y3580486D01*
X569873Y3609697D01*
X570932Y3611281D01*
X571304Y3613150D01*
Y3650497D01*
X591303Y3670496D01*
X664948D01*
X670439Y3670438D01*
D02*
G37*
%LPC*%
G36*
X633395Y3876351D02*
Y3868821D01*
X640924D01*
X640786Y3869872D01*
X640074Y3871591D01*
X638121Y3869641D01*
X635167Y3873125D01*
X635248Y3873190D01*
X635470Y3873398D01*
X637057Y3874972D01*
X636608Y3875317D01*
X634445Y3876213D01*
X633395Y3876351D01*
D02*
G37*
G36*
X630855D02*
X629804Y3876213D01*
X627641Y3875317D01*
X625784Y3873892D01*
X624359Y3872035D01*
X623464Y3869872D01*
X623325Y3868821D01*
X630855D01*
Y3876351D01*
D02*
G37*
G36*
X640924Y3866281D02*
X633395D01*
Y3858752D01*
X634445Y3858890D01*
X636608Y3859786D01*
X638465Y3861211D01*
X639890Y3863068D01*
X640786Y3865231D01*
X640924Y3866281D01*
D02*
G37*
G36*
X630855D02*
X623325D01*
X623464Y3865231D01*
X624359Y3863068D01*
X625784Y3861211D01*
X627641Y3859786D01*
X629804Y3858890D01*
X630855Y3858752D01*
Y3866281D01*
D02*
G37*
G36*
X693420Y3869767D02*
X691099Y3869461D01*
X688937Y3868565D01*
X687080Y3867141D01*
X685655Y3865284D01*
X684759Y3863121D01*
X684453Y3860800D01*
X684759Y3858479D01*
X685655Y3856317D01*
X687080Y3854460D01*
X687714Y3853973D01*
X688536Y3839893D01*
Y3813810D01*
X688908Y3811941D01*
X689967Y3810357D01*
X701397Y3798927D01*
X702981Y3797868D01*
X704850Y3797496D01*
X726636D01*
Y3795868D01*
X725180Y3794750D01*
X723755Y3792893D01*
X722859Y3790731D01*
X722553Y3788410D01*
X722859Y3786089D01*
X723755Y3783927D01*
X725180Y3782070D01*
X727037Y3780645D01*
X729199Y3779749D01*
X731520Y3779443D01*
X733841Y3779749D01*
X736003Y3780645D01*
X737860Y3782070D01*
X739285Y3783927D01*
X740181Y3786089D01*
X740487Y3788410D01*
X740181Y3790731D01*
X739285Y3792893D01*
X737860Y3794750D01*
X736404Y3795868D01*
Y3799744D01*
X736032Y3801613D01*
X734973Y3803197D01*
X732337Y3805833D01*
X730753Y3806892D01*
X728884Y3807264D01*
X706873D01*
X698304Y3815833D01*
Y3839948D01*
X698362Y3845439D01*
X698666Y3851749D01*
X698799Y3853019D01*
X698930Y3853823D01*
X699760Y3854460D01*
X701185Y3856317D01*
X702081Y3858479D01*
X702387Y3860800D01*
X702081Y3863121D01*
X701185Y3865284D01*
X699760Y3867141D01*
X697903Y3868565D01*
X695741Y3869461D01*
X693420Y3869767D01*
D02*
G37*
G36*
X603250Y3773222D02*
X601834Y3773035D01*
X599331Y3771998D01*
X597181Y3770349D01*
X595532Y3768199D01*
X594495Y3765696D01*
X594308Y3764280D01*
X603250D01*
Y3773222D01*
D02*
G37*
G36*
X814070Y3772119D02*
X811384Y3771765D01*
X808881Y3770728D01*
X806731Y3769079D01*
X805082Y3766929D01*
X804045Y3764426D01*
X803691Y3761740D01*
X804045Y3759054D01*
X805082Y3756551D01*
X806731Y3754401D01*
X808881Y3752752D01*
X811384Y3751715D01*
X814070Y3751361D01*
X816756Y3751715D01*
X819259Y3752752D01*
X821409Y3754401D01*
X823058Y3756551D01*
X824095Y3759054D01*
X824449Y3761740D01*
X824095Y3764426D01*
X823058Y3766929D01*
X821409Y3769079D01*
X819259Y3770728D01*
X816756Y3771765D01*
X814070Y3772119D01*
D02*
G37*
G36*
X783590Y3732440D02*
Y3724910D01*
X791120D01*
X790981Y3725961D01*
X790085Y3728123D01*
X788660Y3729980D01*
X786803Y3731405D01*
X784641Y3732301D01*
X783590Y3732440D01*
D02*
G37*
G36*
X781050D02*
X779999Y3732301D01*
X777837Y3731405D01*
X775980Y3729980D01*
X774555Y3728123D01*
X773659Y3725961D01*
X773521Y3724910D01*
X781050D01*
Y3732440D01*
D02*
G37*
G36*
X791120Y3722370D02*
X783590D01*
Y3714840D01*
X784641Y3714979D01*
X786803Y3715875D01*
X788660Y3717299D01*
X790085Y3719156D01*
X790981Y3721319D01*
X791120Y3722370D01*
D02*
G37*
G36*
X781050D02*
X773521D01*
X773659Y3721319D01*
X774555Y3719156D01*
X775980Y3717299D01*
X777837Y3715875D01*
X779999Y3714979D01*
X781050Y3714840D01*
Y3722370D01*
D02*
G37*
G36*
X446510Y3708619D02*
X443824Y3708265D01*
X441321Y3707228D01*
X439171Y3705579D01*
X437522Y3703429D01*
X436485Y3700926D01*
X436131Y3698240D01*
X436485Y3695554D01*
X437522Y3693051D01*
X439171Y3690901D01*
X441321Y3689252D01*
X443824Y3688215D01*
X446510Y3687861D01*
X449196Y3688215D01*
X451699Y3689252D01*
X453849Y3690901D01*
X454825Y3692173D01*
X454852Y3692198D01*
X455058Y3692288D01*
X455715Y3692465D01*
X465256Y3693125D01*
X466420Y3691933D01*
Y3687930D01*
X473710D01*
X481000D01*
Y3695529D01*
X481413Y3695641D01*
X482061Y3695757D01*
X483740Y3695896D01*
X483773D01*
X485180Y3695828D01*
Y3695350D01*
X487645D01*
X487740Y3695331D01*
X487839Y3695350D01*
X495260D01*
Y3708430D01*
X485180D01*
Y3706031D01*
X484767Y3705919D01*
X484119Y3705803D01*
X482605Y3705677D01*
X481874Y3705694D01*
X481000Y3705767D01*
Y3706450D01*
X478535D01*
X478440Y3706469D01*
X478430Y3706467D01*
X478421Y3706469D01*
X478326Y3706450D01*
X466420D01*
Y3703491D01*
X466007Y3703379D01*
X465359Y3703263D01*
X464851Y3703221D01*
X463107Y3703254D01*
X458716Y3703558D01*
X457095Y3703756D01*
X455850Y3703979D01*
X455058Y3704192D01*
X454852Y3704283D01*
X454825Y3704307D01*
X453849Y3705579D01*
X451699Y3707228D01*
X449196Y3708265D01*
X446510Y3708619D01*
D02*
G37*
G36*
X481000Y3685390D02*
X474980D01*
Y3679870D01*
X481000D01*
Y3685390D01*
D02*
G37*
G36*
X472440D02*
X466420D01*
Y3679870D01*
X472440D01*
Y3685390D01*
D02*
G37*
G36*
X456800Y3683130D02*
X436220D01*
Y3662550D01*
X456800D01*
Y3683130D01*
D02*
G37*
G36*
X500380Y3662899D02*
X497694Y3662545D01*
X495191Y3661508D01*
X493041Y3659859D01*
X491392Y3657709D01*
X490355Y3655206D01*
X490001Y3652520D01*
X490355Y3649834D01*
X491392Y3647331D01*
X493041Y3645181D01*
X495191Y3643532D01*
X497694Y3642495D01*
X500380Y3642141D01*
X503066Y3642495D01*
X505569Y3643532D01*
X507719Y3645181D01*
X509368Y3647331D01*
X510405Y3649834D01*
X510759Y3652520D01*
X510405Y3655206D01*
X509368Y3657709D01*
X507719Y3659859D01*
X505569Y3661508D01*
X503066Y3662545D01*
X500380Y3662899D01*
D02*
G37*
G36*
X487751Y3629709D02*
X487654Y3629690D01*
X485180D01*
Y3628419D01*
X484979Y3628381D01*
X483528Y3628269D01*
X482270Y3628980D01*
Y3628980D01*
X479805D01*
X479710Y3628999D01*
X479701Y3628997D01*
X479691Y3628999D01*
X479596Y3628980D01*
X470357D01*
X470261Y3628999D01*
X470164Y3628980D01*
X467690D01*
Y3627384D01*
X467328Y3627298D01*
X466657Y3627192D01*
X465033Y3627074D01*
X454646D01*
X452777Y3626702D01*
X451193Y3625643D01*
X449761Y3624211D01*
X449196Y3624445D01*
X446510Y3624799D01*
X443824Y3624445D01*
X441321Y3623408D01*
X439171Y3621759D01*
X437522Y3619609D01*
X436485Y3617106D01*
X436131Y3614420D01*
X436485Y3611734D01*
X437522Y3609231D01*
X439171Y3607081D01*
X441321Y3605432D01*
X443824Y3604395D01*
X446510Y3604041D01*
X449196Y3604395D01*
X451699Y3605432D01*
X453849Y3607081D01*
X455498Y3609231D01*
X456535Y3611734D01*
X456889Y3614420D01*
X456676Y3616036D01*
X457775Y3617306D01*
X464829D01*
X465773Y3617276D01*
X466626Y3617193D01*
X467328Y3617082D01*
X467690Y3616996D01*
Y3610460D01*
X474980D01*
X482270D01*
Y3618059D01*
X482683Y3618171D01*
X483331Y3618287D01*
X483936Y3618337D01*
X484131Y3618319D01*
X484840Y3618213D01*
X485180Y3618135D01*
Y3616610D01*
X487654D01*
X487751Y3616591D01*
X487847Y3616610D01*
X495260D01*
Y3629690D01*
X487847D01*
X487751Y3629709D01*
D02*
G37*
G36*
X482270Y3607920D02*
X476250D01*
Y3602400D01*
X482270D01*
Y3607920D01*
D02*
G37*
G36*
X473710D02*
X467690D01*
Y3602400D01*
X473710D01*
Y3607920D01*
D02*
G37*
G36*
X941070Y3618458D02*
X938710Y3618147D01*
X936511Y3617236D01*
X934623Y3615787D01*
X933174Y3613899D01*
X932263Y3611700D01*
X931952Y3609340D01*
X932263Y3606980D01*
X933174Y3604781D01*
X934623Y3602892D01*
X936511Y3601443D01*
X938710Y3600533D01*
X941070Y3600222D01*
X943430Y3600533D01*
X945629Y3601443D01*
X947517Y3602892D01*
X948966Y3604781D01*
X949877Y3606980D01*
X950188Y3609340D01*
X949877Y3611700D01*
X948966Y3613899D01*
X947517Y3615787D01*
X945629Y3617236D01*
X943430Y3618147D01*
X941070Y3618458D01*
D02*
G37*
G36*
X942340Y3592891D02*
Y3585210D01*
X950021D01*
X949877Y3586300D01*
X948966Y3588499D01*
X947517Y3590387D01*
X945629Y3591837D01*
X943430Y3592747D01*
X942340Y3592891D01*
D02*
G37*
G36*
X939800D02*
X938710Y3592747D01*
X936511Y3591837D01*
X934623Y3590387D01*
X933174Y3588499D01*
X932263Y3586300D01*
X932119Y3585210D01*
X939800D01*
Y3592891D01*
D02*
G37*
G36*
X950021Y3582670D02*
X942340D01*
Y3574989D01*
X943430Y3575133D01*
X945629Y3576044D01*
X947517Y3577493D01*
X948966Y3579381D01*
X949877Y3581580D01*
X950021Y3582670D01*
D02*
G37*
G36*
X939800D02*
X932119D01*
X932263Y3581580D01*
X933174Y3579381D01*
X934623Y3577493D01*
X936511Y3576044D01*
X938710Y3575133D01*
X939800Y3574989D01*
Y3582670D01*
D02*
G37*
%LPD*%
G36*
X696598Y3855107D02*
X696403Y3854417D01*
X696231Y3853364D01*
X696083Y3851947D01*
X695773Y3845515D01*
X695670Y3835812D01*
X691170D01*
X691159Y3839410D01*
X690242Y3855107D01*
X690024Y3855434D01*
X696816D01*
X696598Y3855107D01*
D02*
G37*
G36*
X487751Y3697921D02*
X487683Y3698036D01*
X487481Y3698140D01*
X487143Y3698231D01*
X486670Y3698311D01*
X486063Y3698378D01*
X483708Y3698492D01*
X481725Y3698328D01*
X480844Y3698170D01*
X480099Y3697968D01*
X479488Y3697720D01*
X479013Y3697427D01*
X478673Y3697090D01*
X478469Y3696707D01*
X478399Y3696280D01*
X478429Y3703879D01*
X478497Y3703718D01*
X478699Y3703574D01*
X479037Y3703446D01*
X479510Y3703336D01*
X480117Y3703242D01*
X481737Y3703106D01*
X482684Y3703085D01*
X484455Y3703232D01*
X485336Y3703390D01*
X486081Y3703593D01*
X486692Y3703840D01*
X487167Y3704132D01*
X487507Y3704470D01*
X487711Y3704853D01*
X487781Y3705280D01*
X487751Y3697921D01*
D02*
G37*
G36*
X469012Y3700552D02*
X472290Y3700490D01*
Y3695990D01*
X468993Y3695971D01*
X468991Y3695440D01*
X468923Y3695545D01*
X468721Y3695638D01*
X468383Y3695721D01*
X467910Y3695792D01*
X467162Y3695853D01*
X455284Y3695031D01*
X454194Y3694738D01*
X453439Y3694405D01*
X453019Y3694033D01*
Y3702447D01*
X453439Y3702075D01*
X454194Y3701743D01*
X455284Y3701449D01*
X456709Y3701194D01*
X458469Y3700979D01*
X462993Y3700666D01*
X464934Y3700629D01*
X465695Y3700692D01*
X466576Y3700850D01*
X467321Y3701053D01*
X467932Y3701300D01*
X468407Y3701592D01*
X468747Y3701930D01*
X468951Y3702313D01*
X469021Y3702740D01*
X469012Y3700552D01*
D02*
G37*
G36*
X487751Y3619181D02*
X487683Y3619538D01*
X487481Y3619857D01*
X487143Y3620139D01*
X486670Y3620383D01*
X486063Y3620590D01*
X485321Y3620759D01*
X484443Y3620891D01*
X483949Y3620937D01*
X482995Y3620858D01*
X482114Y3620700D01*
X481369Y3620497D01*
X480758Y3620250D01*
X480283Y3619958D01*
X479943Y3619620D01*
X479739Y3619237D01*
X479669Y3618810D01*
X479700Y3626410D01*
X479767Y3626248D01*
X479969Y3626104D01*
X480307Y3625976D01*
X480779Y3625866D01*
X481387Y3625772D01*
X483007Y3625637D01*
X483059Y3625635D01*
X485321Y3625810D01*
X486063Y3625950D01*
X486670Y3626122D01*
X487143Y3626324D01*
X487481Y3626558D01*
X487683Y3626823D01*
X487751Y3627119D01*
Y3619181D01*
D02*
G37*
G36*
X470261Y3617971D02*
X470193Y3618345D01*
X469991Y3618680D01*
X469653Y3618975D01*
X469180Y3619231D01*
X468573Y3619448D01*
X467831Y3619625D01*
X466953Y3619763D01*
X465941Y3619861D01*
X463511Y3619940D01*
Y3624440D01*
X464793Y3624460D01*
X466953Y3624617D01*
X467831Y3624755D01*
X468573Y3624932D01*
X469180Y3625149D01*
X469653Y3625405D01*
X469991Y3625700D01*
X470193Y3626035D01*
X470261Y3626410D01*
Y3617971D01*
D02*
G37*
%LPC*%
G36*
X646157Y3618380D02*
X628077D01*
Y3600300D01*
X646157D01*
Y3618380D01*
D02*
G37*
G36*
X599440Y3618458D02*
X597080Y3618147D01*
X594881Y3617236D01*
X592993Y3615787D01*
X591544Y3613899D01*
X590633Y3611700D01*
X590322Y3609340D01*
X590633Y3606980D01*
X591544Y3604781D01*
X592993Y3602892D01*
X594881Y3601443D01*
X597080Y3600533D01*
X599440Y3600222D01*
X601800Y3600533D01*
X603999Y3601443D01*
X605887Y3602892D01*
X607336Y3604781D01*
X608247Y3606980D01*
X608558Y3609340D01*
X608247Y3611700D01*
X607336Y3613899D01*
X605887Y3615787D01*
X603999Y3617236D01*
X601800Y3618147D01*
X599440Y3618458D01*
D02*
G37*
G36*
Y3593058D02*
X597080Y3592747D01*
X594881Y3591837D01*
X592993Y3590387D01*
X591544Y3588499D01*
X590633Y3586300D01*
X590322Y3583940D01*
X590633Y3581580D01*
X591544Y3579381D01*
X592993Y3577493D01*
X594881Y3576044D01*
X597080Y3575133D01*
X599440Y3574822D01*
X601800Y3575133D01*
X603999Y3576044D01*
X605887Y3577493D01*
X607336Y3579381D01*
X608247Y3581580D01*
X608558Y3583940D01*
X608247Y3586300D01*
X607336Y3588499D01*
X605887Y3590387D01*
X603999Y3591837D01*
X601800Y3592747D01*
X599440Y3593058D01*
D02*
G37*
G36*
X523240Y3567658D02*
X520880Y3567347D01*
X518681Y3566436D01*
X516793Y3564987D01*
X515344Y3563099D01*
X514433Y3560900D01*
X514122Y3558540D01*
X514433Y3556180D01*
X515344Y3553981D01*
X516793Y3552093D01*
X518681Y3550644D01*
X520880Y3549733D01*
X523240Y3549422D01*
X525600Y3549733D01*
X527799Y3550644D01*
X529687Y3552093D01*
X531136Y3553981D01*
X532047Y3556180D01*
X532358Y3558540D01*
X532047Y3560900D01*
X531136Y3563099D01*
X529687Y3564987D01*
X527799Y3566436D01*
X525600Y3567347D01*
X523240Y3567658D01*
D02*
G37*
%LPD*%
G36*
X679520Y3414880D02*
X679970Y3410630D01*
X680720Y3406880D01*
X681770Y3403630D01*
X683120Y3400880D01*
X684770Y3398630D01*
X686720Y3396880D01*
X688970Y3395630D01*
X691520Y3394880D01*
X694370Y3394630D01*
X674370Y3384630D01*
X654370Y3394630D01*
X657220Y3394880D01*
X659770Y3395630D01*
X662020Y3396880D01*
X663970Y3398630D01*
X665620Y3400880D01*
X666970Y3403630D01*
X668020Y3406880D01*
X668770Y3410630D01*
X669220Y3414880D01*
X669370Y3419630D01*
X679370D01*
X679520Y3414880D01*
D02*
G37*
G36*
X992155Y3328470D02*
X993703Y3302292D01*
X994120Y3301021D01*
X994587Y3300368D01*
X979673D01*
X980140Y3301021D01*
X980557Y3302292D01*
X980926Y3304179D01*
X981245Y3306684D01*
X981737Y3313546D01*
X982130Y3334680D01*
X992130D01*
X992155Y3328470D01*
D02*
G37*
G36*
X1015920Y3311257D02*
X1017409Y3271424D01*
X1003501Y3271582D01*
X1003960Y3272252D01*
X1004372Y3273666D01*
X1004735Y3275824D01*
X1005049Y3278725D01*
X1005702Y3291891D01*
X1005920Y3311749D01*
X1015920Y3311257D01*
D02*
G37*
G36*
X649329Y3252799D02*
X650967Y3252180D01*
X653406Y3251634D01*
X656643Y3251161D01*
X665517Y3250433D01*
X684823Y3249886D01*
X692858Y3249850D01*
X691903Y3239850D01*
X648150Y3238212D01*
X648490Y3253492D01*
X649329Y3252799D01*
D02*
G37*
G36*
X460396Y3285797D02*
X459992Y3286174D01*
X459031Y3286512D01*
X457514Y3286809D01*
X455440Y3287067D01*
X449623Y3287464D01*
X431308Y3287781D01*
Y3297781D01*
X463566Y3298881D01*
X460396Y3285797D01*
D02*
G37*
G36*
X938745Y3282768D02*
X938122Y3283139D01*
X936749Y3283471D01*
X934625Y3283763D01*
X928124Y3284232D01*
X898730Y3284720D01*
Y3294720D01*
X938745Y3296672D01*
Y3282768D01*
D02*
G37*
G36*
X1008915Y3212802D02*
X1008047Y3211170D01*
X1007281Y3208968D01*
X1006618Y3206194D01*
X1006056Y3202849D01*
X1005239Y3194446D01*
X1004831Y3183757D01*
X1004780Y3177556D01*
X999280D01*
X999229Y3183757D01*
X998004Y3202849D01*
X997442Y3206194D01*
X996779Y3208968D01*
X996013Y3211170D01*
X995145Y3212802D01*
X994175Y3213861D01*
X1009885D01*
X1008915Y3212802D01*
D02*
G37*
G36*
X926401Y3178244D02*
X927046Y3178124D01*
X928063Y3178017D01*
X933337Y3177784D01*
X945561Y3177670D01*
X945484Y3172170D01*
X926105Y3171587D01*
X926126Y3178379D01*
X926401Y3178244D01*
D02*
G37*
D10*
X500380Y3583940D02*
X523240D01*
X490220Y3594100D02*
Y3604420D01*
Y3594100D02*
X500380Y3583940D01*
X596440Y3251020D02*
G03*
X596440Y3251020I-105000J0D01*
G01*
X1073380D02*
G03*
X1073380Y3251020I-105000J0D01*
G01*
D11*
X1066920Y3140980D02*
G03*
X1077440Y3151500I0J10520D01*
G01*
X384430D02*
G03*
X394950Y3140980I10520J0D01*
G01*
X1077440Y3959500D02*
G03*
X1066920Y3970020I-10520J0D01*
G01*
X394950Y3970000D02*
G03*
X384430Y3959480I0J-10520D01*
G01*
X1077400Y3151011D02*
Y3959500D01*
X394940Y3140990D02*
X1067380D01*
X384430Y3151500D02*
Y3959480D01*
X394950Y3970000D02*
X1067380D01*
D17*
X979170Y3342640D02*
X987130Y3334680D01*
Y3289720D02*
Y3334680D01*
X906780Y3342640D02*
X979170D01*
X986790Y3389630D02*
X1010920Y3365500D01*
X1010330Y3260520D02*
X1010920Y3261110D01*
Y3365500D01*
X425450Y3201670D02*
Y3286924D01*
X431308Y3292781D02*
X474995D01*
X425450Y3286924D02*
X431308Y3292781D01*
X572770Y3280410D02*
Y3360420D01*
X533390Y3260520D02*
X533444Y3260574D01*
X552934D01*
X572770Y3280410D01*
X425450Y3201670D02*
X464820Y3162300D01*
X808990Y3244850D02*
X906780Y3342640D01*
X895770Y3289720D02*
X949730D01*
X768350Y3162300D02*
X895770Y3289720D01*
X626110Y3244850D02*
X808990D01*
X601980Y3389630D02*
X674370D01*
X572770Y3360420D02*
X601980Y3389630D01*
X674370D02*
X986790D01*
X674370Y3562350D02*
X695960Y3583940D01*
X674370Y3389630D02*
Y3562350D01*
X464820Y3162300D02*
X768350D01*
X695960Y3583940D02*
X713317D01*
D22*
X474980Y3622190D02*
D03*
Y3609190D02*
D03*
X473710Y3699660D02*
D03*
Y3686660D02*
D03*
D50*
X622300Y3735070D02*
D03*
D59*
X636270Y3293110D02*
D03*
D60*
Y3246120D02*
D03*
Y3199130D02*
D03*
D61*
X637117Y3609340D02*
D03*
X864870D02*
D03*
X750993D02*
D03*
X523240D02*
D03*
D62*
X637117Y3583940D02*
D03*
Y3558540D02*
D03*
X713317D02*
D03*
Y3583940D02*
D03*
Y3609340D02*
D03*
X864870Y3583940D02*
D03*
Y3558540D02*
D03*
X941070D02*
D03*
Y3583940D02*
D03*
Y3609340D02*
D03*
X750993Y3583940D02*
D03*
Y3558540D02*
D03*
X827193D02*
D03*
Y3583940D02*
D03*
Y3609340D02*
D03*
X523240Y3583940D02*
D03*
Y3558540D02*
D03*
X599440D02*
D03*
Y3583940D02*
D03*
Y3609340D02*
D03*
D66*
X424180Y3637280D02*
X433070Y3646170D01*
X462280D02*
X490220Y3674110D01*
X433070Y3646170D02*
X462280D01*
X424180Y3549650D02*
Y3637280D01*
Y3549650D02*
X443230Y3530600D01*
X474830Y3700780D02*
X489970D01*
X490220Y3701030D02*
Y3701890D01*
X489970Y3700780D02*
X490220Y3701030D01*
X472290Y3698240D02*
X474830Y3700780D01*
X637117Y3583940D02*
X668020D01*
X680720Y3596640D02*
Y3652520D01*
X668020Y3583940D02*
X680720Y3596640D01*
Y3652520D02*
X690203Y3662003D01*
X707275D01*
X631256Y3868420D02*
X633730D01*
X765810Y3870960D02*
X789045Y3847725D01*
Y3817995D02*
Y3847725D01*
X537210Y3583940D02*
X566420Y3613150D01*
Y3652520D02*
X589280Y3675380D01*
X566420Y3613150D02*
Y3652520D01*
X523240Y3583940D02*
X537210D01*
X589280Y3675380D02*
X685800D01*
X648970Y3729990D02*
X662940Y3743960D01*
X706120D01*
X648970Y3709670D02*
Y3729990D01*
X631256Y3868420D02*
X632125Y3867552D01*
X643890Y3878580D02*
X726440D01*
X633730Y3868420D02*
X643890Y3878580D01*
X734060Y3870960D02*
X765810D01*
X726440Y3878580D02*
X734060Y3870960D01*
X693420Y3813810D02*
X704850Y3802380D01*
X693420Y3813810D02*
Y3860800D01*
X731520Y3788410D02*
Y3799744D01*
X728884Y3802380D02*
X731520Y3799744D01*
X704850Y3802380D02*
X728884D01*
X490220Y3674110D02*
Y3681890D01*
X626110Y3583940D02*
X637117D01*
X619760Y3577590D02*
X626110Y3583940D01*
X443230Y3530600D02*
X617124D01*
X619760Y3533236D01*
Y3577590D01*
X474980Y3622190D02*
X476100Y3623310D01*
X490060D02*
X490220Y3623150D01*
X476100Y3623310D02*
X490060D01*
X446510Y3614420D02*
X446876D01*
X454646Y3622190D01*
X474980D01*
X446510Y3698240D02*
X472290D01*
D68*
X1002030Y3177556D02*
Y3224220D01*
X920830Y3174920D02*
X999394D01*
X920750Y3175000D02*
X920830Y3174920D01*
X999394D02*
X1002030Y3177556D01*
D73*
X918210Y3699510D02*
Y3771900D01*
X766483Y3795885D02*
X894225D01*
X918210Y3771900D01*
D74*
X525090Y3224220D02*
D03*
X491490Y3208020D02*
D03*
X457890Y3224220D02*
D03*
X533390Y3260520D02*
D03*
X449490D02*
D03*
X472790Y3289720D02*
D03*
X491490Y3251020D02*
D03*
X510190Y3289720D02*
D03*
X1002030Y3224220D02*
D03*
X968430Y3208020D02*
D03*
X934830Y3224220D02*
D03*
X1010330Y3260520D02*
D03*
X926430D02*
D03*
X949730Y3289720D02*
D03*
X968430Y3251020D02*
D03*
X987130Y3289720D02*
D03*
D75*
X500380Y3652520D02*
D03*
X535940D02*
D03*
X604520Y3763010D02*
D03*
X814070Y3761740D02*
D03*
X734060Y3501390D02*
D03*
X468630Y3456940D02*
D03*
X446510Y3614420D02*
D03*
Y3698240D02*
D03*
D76*
X963600Y3433490D02*
D03*
Y3467780D02*
D03*
D77*
Y3408090D02*
D03*
Y3493180D02*
D03*
D78*
X446510Y3589020D02*
D03*
Y3672840D02*
D03*
D79*
X777240Y3935730D02*
D03*
X802640D02*
D03*
X828040D02*
D03*
X853440D02*
D03*
X878840D02*
D03*
D80*
X904240D02*
D03*
D81*
X552450Y3921760D02*
D03*
X527050D02*
D03*
D82*
X716911Y3341997D02*
D03*
D83*
X843911D02*
D03*
X780411D02*
D03*
D84*
X678690Y3932200D02*
D03*
X718690D02*
D03*
D85*
X662940Y3919000D02*
D03*
Y3953500D02*
D03*
X734440Y3919000D02*
D03*
Y3953500D02*
D03*
D86*
X594881Y3280490D02*
D03*
X675228Y3193575D02*
D03*
X971550Y3312160D02*
D03*
X617571Y3315705D02*
D03*
X598638Y3308665D02*
D03*
X558237D02*
D03*
X538603Y3303920D02*
D03*
X519259Y3309740D02*
D03*
X499085Y3308715D02*
D03*
X815548Y3515455D02*
D03*
X754948D02*
D03*
X955923Y3359245D02*
D03*
X1031145Y3494381D02*
D03*
X1043151Y3342875D02*
D03*
X1048327Y3535943D02*
D03*
X1029944Y3514546D02*
D03*
X734921Y3518097D02*
D03*
X1010258Y3519075D02*
D03*
X1007435Y3547205D02*
D03*
X1031145Y3474182D02*
D03*
X1057102Y3357484D02*
D03*
X1031145Y3413581D02*
D03*
X1059275Y3438167D02*
D03*
X719995Y3466432D02*
D03*
X1033700Y3325400D02*
D03*
X775148Y3515455D02*
D03*
X1059275Y3458366D02*
D03*
X758565Y3487325D02*
D03*
X1031145Y3393381D02*
D03*
X1059275Y3377567D02*
D03*
X1031145Y3433781D02*
D03*
Y3453981D02*
D03*
X976123Y3359245D02*
D03*
X887201Y3252075D02*
D03*
X1059275Y3518966D02*
D03*
Y3417966D02*
D03*
X915591Y3357594D02*
D03*
X798965Y3487325D02*
D03*
X798707Y3453065D02*
D03*
X819165Y3487325D02*
D03*
X1031145Y3373181D02*
D03*
X1059275Y3478566D02*
D03*
X718203Y3506760D02*
D03*
X719912Y3486632D02*
D03*
X795348Y3515455D02*
D03*
X773204Y3473407D02*
D03*
X832770Y3526011D02*
D03*
X896620Y3356610D02*
D03*
X1031532Y3547166D02*
D03*
X996323Y3359245D02*
D03*
X778765Y3487325D02*
D03*
X1059275Y3498766D02*
D03*
Y3397766D02*
D03*
X793386Y3472552D02*
D03*
X935723Y3359245D02*
D03*
X650363Y3461942D02*
D03*
X750638Y3365405D02*
D03*
X761849Y3337775D02*
D03*
X722725Y3411082D02*
D03*
Y3431281D02*
D03*
X691651Y3473101D02*
D03*
X920750Y3175000D02*
D03*
X909046Y3308970D02*
D03*
X1060000Y3280000D02*
D03*
X1040000Y3240000D02*
D03*
X1060000Y3200000D02*
D03*
X1020000D02*
D03*
X940000Y3440000D02*
D03*
Y3200000D02*
D03*
X900000D02*
D03*
X860000Y3440000D02*
D03*
Y3360000D02*
D03*
Y3200000D02*
D03*
X800000Y3560000D02*
D03*
X820000Y3280000D02*
D03*
X780000Y3200000D02*
D03*
X740000D02*
D03*
X700000Y3520000D02*
D03*
Y3200000D02*
D03*
X660000Y3520000D02*
D03*
X640000Y3480000D02*
D03*
X660000Y3360000D02*
D03*
X600000Y3480000D02*
D03*
X620000Y3440000D02*
D03*
X580000Y3200000D02*
D03*
X540000Y3360000D02*
D03*
X480000Y3400000D02*
D03*
X500000Y3360000D02*
D03*
X480000Y3320000D02*
D03*
X440000Y3480000D02*
D03*
Y3400000D02*
D03*
X460000Y3360000D02*
D03*
X440000Y3320000D02*
D03*
Y3160000D02*
D03*
X400000Y3560000D02*
D03*
X420000Y3520000D02*
D03*
X400000Y3480000D02*
D03*
X420000Y3440000D02*
D03*
X400000Y3400000D02*
D03*
X420000Y3360000D02*
D03*
X400000Y3320000D02*
D03*
Y3240000D02*
D03*
Y3160000D02*
D03*
X725844Y3268900D02*
D03*
X798157Y3267630D02*
D03*
X694610Y3297593D02*
D03*
X681691Y3264885D02*
D03*
X712470Y3282950D02*
D03*
X753110Y3267710D02*
D03*
X778610Y3267630D02*
D03*
X787914Y3230785D02*
D03*
X767714D02*
D03*
X747514D02*
D03*
X808114D02*
D03*
X813492Y3469902D02*
D03*
X805085Y3431335D02*
D03*
Y3411135D02*
D03*
Y3370734D02*
D03*
Y3350534D02*
D03*
Y3330334D02*
D03*
X790788Y3316065D02*
D03*
X770588D02*
D03*
X750388D02*
D03*
X731024Y3321817D02*
D03*
X735377Y3341542D02*
D03*
X727825Y3360278D02*
D03*
X707626Y3360464D02*
D03*
X698444Y3342472D02*
D03*
X702700Y3322725D02*
D03*
X743741Y3287935D02*
D03*
X763941D02*
D03*
X784141D02*
D03*
X804341D02*
D03*
X822867Y3295987D02*
D03*
X833215Y3414336D02*
D03*
Y3434536D02*
D03*
X837620Y3454249D02*
D03*
X851903Y3468533D02*
D03*
X866187Y3482816D02*
D03*
X993205Y3488283D02*
D03*
Y3468083D02*
D03*
Y3447883D02*
D03*
X1012760Y3386547D02*
D03*
X986707Y3421307D02*
D03*
X902238Y3502710D02*
D03*
X892675Y3484917D02*
D03*
X883208Y3467073D02*
D03*
X883181Y3446873D02*
D03*
X930707Y3459054D02*
D03*
X928342Y3479115D02*
D03*
X886635Y3342158D02*
D03*
X872238Y3327988D02*
D03*
X857954Y3313705D02*
D03*
X646430Y3268980D02*
D03*
X618276Y3266598D02*
D03*
X605395Y3251038D02*
D03*
X609612Y3231283D02*
D03*
X648970Y3221990D02*
D03*
X687070Y3228340D02*
D03*
X707114Y3230785D02*
D03*
X727314D02*
D03*
X825350Y3241320D02*
D03*
X839634Y3255603D02*
D03*
X853917Y3269887D02*
D03*
X868201Y3284170D02*
D03*
X922020Y3322320D02*
D03*
X941070Y3326130D02*
D03*
X962660Y3327400D02*
D03*
X452057Y3454755D02*
D03*
X466259Y3440391D02*
D03*
X486306Y3442875D02*
D03*
X566693Y3442732D02*
D03*
X581565Y3429063D02*
D03*
Y3408863D02*
D03*
X601495Y3354984D02*
D03*
X615779Y3340701D02*
D03*
X630062Y3326417D02*
D03*
X627803Y3221772D02*
D03*
X609704Y3212802D02*
D03*
X605355Y3193075D02*
D03*
X679545Y3213309D02*
D03*
X666291Y3329969D02*
D03*
X652007Y3344253D02*
D03*
X637724Y3358537D02*
D03*
X623440Y3372820D02*
D03*
X609695Y3407822D02*
D03*
Y3428022D02*
D03*
X604577Y3447563D02*
D03*
X590294Y3461847D02*
D03*
X572289Y3471005D02*
D03*
X552232Y3473407D02*
D03*
X532032D02*
D03*
X512032Y3470570D02*
D03*
X491832Y3470607D02*
D03*
X471824Y3473380D02*
D03*
X789045Y3817995D02*
D03*
X707275Y3662003D02*
D03*
X685800Y3675380D02*
D03*
X706120Y3743960D02*
D03*
X766483Y3795885D02*
D03*
X648970Y3709670D02*
D03*
X782320Y3723640D02*
D03*
X632125Y3867552D02*
D03*
X693420Y3860800D02*
D03*
X731520Y3788410D02*
D03*
X853440Y3868420D02*
D03*
X918210Y3699510D02*
D03*
X516890Y3406140D02*
D03*
D87*
X490220Y3623150D02*
D03*
Y3603150D02*
D03*
Y3701890D02*
D03*
Y3681890D02*
D03*
M02*
