G04*
G04 #@! TF.GenerationSoftware,Altium Limited,Altium Designer,20.0.10 (225)*
G04*
G04 Layer_Color=8421504*
%FSLAX44Y44*%
%MOMM*%
G71*
G01*
G75*
%ADD10C,0.2540*%
%ADD11C,0.2000*%
%ADD20R,0.9000X0.8000*%
%ADD21R,0.8000X1.7000*%
%ADD22R,0.9500X0.8500*%
%ADD23R,0.6000X0.9000*%
%ADD24R,0.5010X1.1112*%
%ADD25R,0.9000X0.6000*%
%ADD26R,1.0500X0.9500*%
%ADD27R,1.0121X1.2084*%
%ADD28R,0.8000X0.9000*%
%ADD29R,0.9000X2.5000*%
%ADD30R,3.0000X1.5000*%
%ADD31R,0.7000X0.9000*%
%ADD32R,0.9500X1.0500*%
%ADD33R,0.8000X0.8000*%
%ADD34R,0.9000X0.7000*%
%ADD35R,0.7620X0.7112*%
%ADD36R,0.4064X2.7000*%
%ADD37R,1.0000X0.9000*%
D10*
X596440Y3251020D02*
G03*
X596440Y3251020I-105000J0D01*
G01*
X1073380D02*
G03*
X1073380Y3251020I-105000J0D01*
G01*
D11*
X1066920Y3140980D02*
G03*
X1077440Y3151500I0J10520D01*
G01*
X384430D02*
G03*
X394950Y3140980I10520J0D01*
G01*
X1077440Y3959500D02*
G03*
X1066920Y3970020I-10520J0D01*
G01*
X394950Y3970000D02*
G03*
X384430Y3959480I0J-10520D01*
G01*
X1077400Y3151011D02*
Y3959500D01*
X394940Y3140990D02*
X1067380D01*
X384430Y3151500D02*
Y3959480D01*
X394950Y3970000D02*
X1067380D01*
D20*
X525390Y3677920D02*
D03*
X508390D02*
D03*
D21*
X639300Y3735070D02*
D03*
X605300D02*
D03*
D22*
X853440Y3887320D02*
D03*
Y3900320D02*
D03*
X989330Y3408090D02*
D03*
Y3395090D02*
D03*
X751840Y3637130D02*
D03*
Y3650130D02*
D03*
X864870Y3651400D02*
D03*
Y3638400D02*
D03*
X976630Y3585060D02*
D03*
Y3598060D02*
D03*
D23*
X693300Y3844290D02*
D03*
X678300D02*
D03*
X693300Y3873500D02*
D03*
X678300D02*
D03*
D24*
X741927Y3862757D02*
D03*
Y3839757D02*
D03*
D25*
X722877Y3860027D02*
D03*
Y3845027D02*
D03*
D26*
X764787Y3840197D02*
D03*
Y3854697D02*
D03*
X744220Y3818520D02*
D03*
Y3804020D02*
D03*
D27*
X788917Y3839428D02*
D03*
Y3855466D02*
D03*
D28*
X813047Y3838850D02*
D03*
Y3855850D02*
D03*
D29*
X782320Y3702670D02*
D03*
X769620D02*
D03*
X693420D02*
D03*
X706120D02*
D03*
X718820D02*
D03*
X731520D02*
D03*
X744220D02*
D03*
X756920D02*
D03*
X782320Y3765930D02*
D03*
X769620D02*
D03*
X756920D02*
D03*
X744220D02*
D03*
X693420D02*
D03*
X706120D02*
D03*
X718820D02*
D03*
X731520D02*
D03*
D30*
X906740Y3456940D02*
D03*
Y3431540D02*
D03*
Y3406140D02*
D03*
X774740D02*
D03*
Y3431540D02*
D03*
Y3456940D02*
D03*
X674330D02*
D03*
Y3431540D02*
D03*
Y3406140D02*
D03*
X542330D02*
D03*
Y3431540D02*
D03*
Y3456940D02*
D03*
D31*
X606104Y3802941D02*
D03*
X620104D02*
D03*
X606104Y3787121D02*
D03*
X620104D02*
D03*
D32*
X652410Y3768090D02*
D03*
X637910D02*
D03*
D33*
X598170Y3867270D02*
D03*
Y3882270D02*
D03*
D34*
X614680Y3867770D02*
D03*
Y3881770D02*
D03*
D35*
X638872Y3786541D02*
D03*
X654366D02*
D03*
X638872Y3802361D02*
D03*
X654366D02*
D03*
D36*
X685690Y3924000D02*
D03*
X692230D02*
D03*
X698730D02*
D03*
X705230D02*
D03*
X711690D02*
D03*
D37*
X505460Y3443810D02*
D03*
Y3457310D02*
D03*
X734060Y3443810D02*
D03*
Y3457310D02*
D03*
M02*
