G04*
G04 #@! TF.GenerationSoftware,Altium Limited,Altium Designer,20.0.10 (225)*
G04*
G04 Layer_Color=255*
%FSLAX44Y44*%
%MOMM*%
G71*
G01*
G75*
%ADD10C,0.2540*%
%ADD11C,0.2000*%
%ADD22R,0.9500X0.8500*%
%ADD50C,0.7500*%
%ADD59R,2.8542X2.8542*%
%ADD60C,2.8542*%
%ADD61R,1.3000X1.3000*%
%ADD62C,1.3000*%
%ADD74C,2.6000*%
%ADD75C,1.5500*%
%ADD76R,1.8000X1.7000*%
%ADD77O,1.9000X2.0000*%
%ADD78R,1.5500X1.5500*%
%ADD79C,1.5000*%
%ADD80R,1.5000X1.5000*%
%ADD81O,2.0000X3.0000*%
%ADD82R,1.9000X1.9000*%
%ADD83C,1.9000*%
%ADD84C,0.6500*%
G04:AMPARAMS|DCode=85|XSize=1.05mm|YSize=1.85mm|CornerRadius=0.2625mm|HoleSize=0mm|Usage=FLASHONLY|Rotation=180.000|XOffset=0mm|YOffset=0mm|HoleType=Round|Shape=RoundedRectangle|*
%AMROUNDEDRECTD85*
21,1,1.0500,1.3250,0,0,180.0*
21,1,0.5250,1.8500,0,0,180.0*
1,1,0.5250,-0.2625,0.6625*
1,1,0.5250,0.2625,0.6625*
1,1,0.5250,0.2625,-0.6625*
1,1,0.5250,-0.2625,-0.6625*
%
%ADD85ROUNDEDRECTD85*%
%ADD87R,0.5000X0.8000*%
D10*
X596440Y3251020D02*
G03*
X596440Y3251020I-105000J0D01*
G01*
X1073380D02*
G03*
X1073380Y3251020I-105000J0D01*
G01*
D11*
X1066920Y3140980D02*
G03*
X1077440Y3151500I0J10520D01*
G01*
X384430D02*
G03*
X394950Y3140980I10520J0D01*
G01*
X1077440Y3959500D02*
G03*
X1066920Y3970020I-10520J0D01*
G01*
X394950Y3970000D02*
G03*
X384430Y3959480I0J-10520D01*
G01*
X1077400Y3151011D02*
Y3959500D01*
X394940Y3140990D02*
X1067380D01*
X384430Y3151500D02*
Y3959480D01*
X394950Y3970000D02*
X1067380D01*
D22*
X474980Y3622190D02*
D03*
Y3609190D02*
D03*
X473710Y3699660D02*
D03*
Y3686660D02*
D03*
D50*
X622300Y3735070D02*
D03*
D59*
X636270Y3293110D02*
D03*
D60*
Y3246120D02*
D03*
Y3199130D02*
D03*
D61*
X637117Y3609340D02*
D03*
X864870D02*
D03*
X750993D02*
D03*
X523240D02*
D03*
D62*
X637117Y3583940D02*
D03*
Y3558540D02*
D03*
X713317D02*
D03*
Y3583940D02*
D03*
Y3609340D02*
D03*
X864870Y3583940D02*
D03*
Y3558540D02*
D03*
X941070D02*
D03*
Y3583940D02*
D03*
Y3609340D02*
D03*
X750993Y3583940D02*
D03*
Y3558540D02*
D03*
X827193D02*
D03*
Y3583940D02*
D03*
Y3609340D02*
D03*
X523240Y3583940D02*
D03*
Y3558540D02*
D03*
X599440D02*
D03*
Y3583940D02*
D03*
Y3609340D02*
D03*
D74*
X525090Y3224220D02*
D03*
X491490Y3208020D02*
D03*
X457890Y3224220D02*
D03*
X533390Y3260520D02*
D03*
X449490D02*
D03*
X472790Y3289720D02*
D03*
X491490Y3251020D02*
D03*
X510190Y3289720D02*
D03*
X1002030Y3224220D02*
D03*
X968430Y3208020D02*
D03*
X934830Y3224220D02*
D03*
X1010330Y3260520D02*
D03*
X926430D02*
D03*
X949730Y3289720D02*
D03*
X968430Y3251020D02*
D03*
X987130Y3289720D02*
D03*
D75*
X500380Y3652520D02*
D03*
X535940D02*
D03*
X604520Y3763010D02*
D03*
X814070Y3761740D02*
D03*
X734060Y3501390D02*
D03*
X468630Y3456940D02*
D03*
X446510Y3614420D02*
D03*
Y3698240D02*
D03*
D76*
X963600Y3433490D02*
D03*
Y3467780D02*
D03*
D77*
Y3408090D02*
D03*
Y3493180D02*
D03*
D78*
X446510Y3589020D02*
D03*
Y3672840D02*
D03*
D79*
X777240Y3935730D02*
D03*
X802640D02*
D03*
X828040D02*
D03*
X853440D02*
D03*
X878840D02*
D03*
D80*
X904240D02*
D03*
D81*
X552450Y3921760D02*
D03*
X527050D02*
D03*
D82*
X716911Y3341997D02*
D03*
D83*
X843911D02*
D03*
X780411D02*
D03*
D84*
X678690Y3932200D02*
D03*
X718690D02*
D03*
D85*
X662940Y3919000D02*
D03*
Y3953500D02*
D03*
X734440Y3919000D02*
D03*
Y3953500D02*
D03*
D87*
X490220Y3623150D02*
D03*
Y3603150D02*
D03*
Y3701890D02*
D03*
Y3681890D02*
D03*
M02*
