G04*
G04 #@! TF.GenerationSoftware,Altium Limited,Altium Designer,20.0.10 (225)*
G04*
G04 Layer_Color=32896*
%FSLAX44Y44*%
%MOMM*%
G71*
G01*
G75*
%ADD10C,0.2540*%
%ADD11C,0.2000*%
%ADD13C,0.1500*%
D10*
X596440Y3251020D02*
G03*
X596440Y3251020I-105000J0D01*
G01*
X1073380D02*
G03*
X1073380Y3251020I-105000J0D01*
G01*
D11*
X1066920Y3140980D02*
G03*
X1077440Y3151500I0J10520D01*
G01*
X384430D02*
G03*
X394950Y3140980I10520J0D01*
G01*
X1077440Y3959500D02*
G03*
X1066920Y3970020I-10520J0D01*
G01*
X394950Y3970000D02*
G03*
X384430Y3959480I0J-10520D01*
G01*
X1077400Y3151011D02*
Y3959500D01*
X394940Y3140990D02*
X1067380D01*
X384430Y3151500D02*
Y3959480D01*
X394950Y3970000D02*
X1067380D01*
D13*
X642717Y3619540D02*
X707717D01*
Y3548340D02*
Y3619540D01*
X642717Y3548340D02*
X707717D01*
X642717D02*
Y3619540D01*
X870470D02*
X935470D01*
Y3548340D02*
Y3619540D01*
X870470Y3548340D02*
X935470D01*
X870470D02*
Y3619540D01*
X756593D02*
X821593D01*
Y3548340D02*
Y3619540D01*
X756593Y3548340D02*
X821593D01*
X756593D02*
Y3619540D01*
X528840D02*
X593840D01*
Y3548340D02*
Y3619540D01*
X528840Y3548340D02*
X593840D01*
X528840D02*
Y3619540D01*
M02*
