G04*
G04 #@! TF.GenerationSoftware,Altium Limited,Altium Designer,20.0.10 (225)*
G04*
G04 Layer_Color=8388736*
%FSLAX44Y44*%
%MOMM*%
G71*
G01*
G75*
%ADD10C,0.2540*%
%ADD11C,0.2000*%
D10*
X596440Y3251020D02*
G03*
X596440Y3251020I-105000J0D01*
G01*
X1073380D02*
G03*
X1073380Y3251020I-105000J0D01*
G01*
D11*
X508390Y3673420D02*
Y3682420D01*
Y3673420D02*
X525390D01*
Y3682420D01*
X508390D02*
X525390D01*
X606300Y3721570D02*
Y3748570D01*
Y3721570D02*
X638300D01*
Y3748570D01*
X606300D02*
X638300D01*
X784917Y3839447D02*
Y3855447D01*
X792917D01*
Y3839447D02*
Y3855447D01*
X784917Y3839447D02*
X792917D01*
X808547Y3838850D02*
Y3855850D01*
X817547D01*
Y3838850D02*
Y3855850D01*
X808547Y3838850D02*
X817547D01*
X600710Y3310890D02*
X671830D01*
Y3181350D02*
Y3310890D01*
X600710Y3181350D02*
X671830D01*
X600710D02*
Y3310890D01*
X1066920Y3140980D02*
G03*
X1077440Y3151500I0J10520D01*
G01*
X384430D02*
G03*
X394950Y3140980I10520J0D01*
G01*
X1077440Y3959500D02*
G03*
X1066920Y3970020I-10520J0D01*
G01*
X394950Y3970000D02*
G03*
X384430Y3959480I0J-10520D01*
G01*
X1077400Y3151011D02*
Y3959500D01*
X394940Y3140990D02*
X1067380D01*
X384430Y3151500D02*
Y3959480D01*
X394950Y3970000D02*
X1067380D01*
M02*
