G04*
G04 #@! TF.GenerationSoftware,Altium Limited,Altium Designer,20.0.10 (225)*
G04*
G04 Layer_Color=32768*
%FSLAX44Y44*%
%MOMM*%
G71*
G01*
G75*
%ADD10C,0.2540*%
%ADD11C,0.2000*%
%ADD14C,0.0500*%
%ADD15C,0.1524*%
%ADD89C,0.1000*%
G36*
X657160Y3792637D02*
X660716D01*
Y3780445D01*
X657160D01*
Y3779937D01*
X636078D01*
Y3780445D01*
X632522D01*
Y3792637D01*
X636078D01*
Y3793145D01*
X657160D01*
Y3792637D01*
D02*
G37*
G36*
Y3808457D02*
X660716D01*
Y3796265D01*
X657160D01*
Y3795757D01*
X636078D01*
Y3796265D01*
X632522D01*
Y3808457D01*
X636078D01*
Y3808965D01*
X657160D01*
Y3808457D01*
D02*
G37*
G36*
X746471Y3839717D02*
Y3831661D01*
X737383D01*
Y3839717D01*
X732387D01*
Y3862797D01*
X737383D01*
Y3870853D01*
X746471D01*
Y3862797D01*
X751467D01*
Y3839717D01*
X746471D01*
D02*
G37*
G36*
X655319Y3893608D02*
X740917D01*
Y3964111D01*
X655319D01*
Y3893608D01*
D02*
G37*
D10*
X596440Y3251020D02*
G03*
X596440Y3251020I-105000J0D01*
G01*
X1073380D02*
G03*
X1073380Y3251020I-105000J0D01*
G01*
D11*
X506730Y3886200D02*
Y3957320D01*
X572770D01*
Y3911600D02*
Y3957320D01*
Y3886200D02*
Y3911600D01*
X529590Y3886200D02*
X572770D01*
X506730D02*
X529590D01*
X534670Y3921760D02*
X544830D01*
X539750Y3916680D02*
Y3926840D01*
X629617Y3622040D02*
X720817D01*
Y3545840D02*
Y3622040D01*
X629617Y3545840D02*
X720817D01*
X629617D02*
Y3622040D01*
X857370D02*
X948570D01*
Y3545840D02*
Y3622040D01*
X857370Y3545840D02*
X948570D01*
X857370D02*
Y3622040D01*
X743493D02*
X834693D01*
Y3545840D02*
Y3622040D01*
X743493Y3545840D02*
X834693D01*
X743493D02*
Y3622040D01*
X755740Y3374540D02*
Y3488540D01*
Y3374540D02*
X925740D01*
Y3488540D01*
X755740D02*
X925740D01*
X523330Y3374540D02*
Y3488540D01*
Y3374540D02*
X693330D01*
Y3488540D01*
X523330D02*
X693330D01*
X515740Y3622040D02*
X606940D01*
Y3545840D02*
Y3622040D01*
X515740Y3545840D02*
X606940D01*
X515740D02*
Y3622040D01*
X1066920Y3140980D02*
G03*
X1077440Y3151500I0J10520D01*
G01*
X384430D02*
G03*
X394950Y3140980I10520J0D01*
G01*
X1077440Y3959500D02*
G03*
X1066920Y3970020I-10520J0D01*
G01*
X394950Y3970000D02*
G03*
X384430Y3959480I0J-10520D01*
G01*
X1077400Y3151011D02*
Y3959500D01*
X394940Y3140990D02*
X1067380D01*
X384430Y3151500D02*
Y3959480D01*
X394950Y3970000D02*
X1067380D01*
D14*
X514080Y3652520D02*
G03*
X514080Y3652520I-13700J0D01*
G01*
X549640D02*
G03*
X549640Y3652520I-13700J0D01*
G01*
X618220Y3763010D02*
G03*
X618220Y3763010I-13700J0D01*
G01*
X827770Y3761740D02*
G03*
X827770Y3761740I-13700J0D01*
G01*
X747760Y3501390D02*
G03*
X747760Y3501390I-13700J0D01*
G01*
X482330Y3456940D02*
G03*
X482330Y3456940I-13700J0D01*
G01*
X476735Y3601720D02*
G03*
X476735Y3601720I-30225J0D01*
G01*
Y3685540D02*
G03*
X476735Y3685540I-30225J0D01*
G01*
X845940Y3880320D02*
Y3907320D01*
X860940Y3880320D02*
Y3907320D01*
X845940Y3880320D02*
X860940D01*
X845940Y3907320D02*
X860940D01*
X685800Y3843782D02*
Y3844798D01*
X685292Y3844290D02*
X686308D01*
X685800Y3872992D02*
Y3874008D01*
X685292Y3873500D02*
X686308D01*
X722369Y3852527D02*
X723385D01*
X722877Y3852019D02*
Y3853035D01*
X754287Y3830447D02*
Y3864447D01*
X775287Y3830447D02*
Y3864447D01*
X754287Y3830447D02*
X775287D01*
X754287Y3864447D02*
X775287D01*
X996830Y3388090D02*
Y3415090D01*
X981830Y3388090D02*
Y3415090D01*
X996830D01*
X981830Y3388090D02*
X996830D01*
X876661Y3149897D02*
Y3352497D01*
X684161Y3149897D02*
X876661D01*
X684161Y3352497D02*
X876661D01*
X684161Y3149897D02*
Y3352497D01*
X467480Y3629190D02*
X482480D01*
X467480Y3602190D02*
X482480D01*
X467480D02*
Y3629190D01*
X482480Y3602190D02*
Y3629190D01*
X485220Y3598150D02*
X495220D01*
X485220Y3628150D02*
X495220D01*
Y3598150D02*
Y3628150D01*
X485220Y3598150D02*
Y3628150D01*
Y3676890D02*
X495220D01*
X485220Y3706890D02*
X495220D01*
Y3676890D02*
Y3706890D01*
X485220Y3676890D02*
Y3706890D01*
X466210Y3706660D02*
X481210D01*
X466210Y3679660D02*
X481210D01*
X466210D02*
Y3706660D01*
X481210Y3679660D02*
Y3706660D01*
X754720Y3794270D02*
Y3828270D01*
X733720Y3794270D02*
Y3828270D01*
X754720D01*
X733720Y3794270D02*
X754720D01*
X600104Y3809941D02*
X626104D01*
X600104Y3795941D02*
X626104D01*
X600104D02*
Y3809941D01*
X626104Y3795941D02*
Y3809941D01*
X600104Y3794121D02*
X626104D01*
X600104Y3780121D02*
X626104D01*
X600104D02*
Y3794121D01*
X626104Y3780121D02*
Y3794121D01*
X628160Y3757590D02*
X662160D01*
X628160Y3778590D02*
X662160D01*
Y3757590D02*
Y3778590D01*
X628160Y3757590D02*
Y3778590D01*
X603170Y3862270D02*
Y3887270D01*
X593170D02*
X603170D01*
X593170Y3862270D02*
Y3887270D01*
Y3862270D02*
X603170D01*
X607680Y3861770D02*
Y3887770D01*
X621680Y3861770D02*
Y3887770D01*
X607680Y3861770D02*
X621680D01*
X607680Y3887770D02*
X621680D01*
X497960Y3437060D02*
X512960D01*
X497960Y3464060D02*
X512960D01*
X497960Y3437060D02*
Y3464060D01*
X512960Y3437060D02*
Y3464060D01*
X726560Y3437060D02*
X741560D01*
X726560Y3464060D02*
X741560D01*
X726560Y3437060D02*
Y3464060D01*
X741560Y3437060D02*
Y3464060D01*
X744340Y3630130D02*
X759340D01*
X744340Y3657130D02*
X759340D01*
X744340Y3630130D02*
Y3657130D01*
X759340Y3630130D02*
Y3657130D01*
X857370Y3658400D02*
X872370D01*
X857370Y3631400D02*
X872370D01*
Y3658400D01*
X857370Y3631400D02*
Y3658400D01*
X969130Y3578060D02*
X984130D01*
X969130Y3605060D02*
X984130D01*
X969130Y3578060D02*
Y3605060D01*
X984130Y3578060D02*
Y3605060D01*
D15*
X751467Y3839717D02*
Y3862797D01*
X746471D02*
X751467D01*
X732387D02*
X737383D01*
X732387Y3839717D02*
Y3862797D01*
Y3839717D02*
X737383D01*
X746471D02*
X751467D01*
X746471Y3831661D02*
Y3839717D01*
Y3862797D02*
Y3870853D01*
X737383D02*
X746471D01*
X737383Y3862797D02*
Y3870853D01*
Y3831661D02*
Y3839717D01*
Y3831661D02*
X746471D01*
X636078Y3793145D02*
X657160D01*
X636078Y3792637D02*
Y3793145D01*
Y3779937D02*
Y3780445D01*
Y3779937D02*
X657160D01*
Y3780445D01*
Y3792637D02*
Y3793145D01*
Y3792637D02*
X660716D01*
X632522D02*
X636078D01*
X632522Y3780445D02*
Y3792637D01*
Y3780445D02*
X636078D01*
X657160D02*
X660716D01*
Y3792637D01*
X636078Y3808965D02*
X657160D01*
X636078Y3808457D02*
Y3808965D01*
Y3795757D02*
Y3796265D01*
Y3795757D02*
X657160D01*
Y3796265D01*
Y3808457D02*
Y3808965D01*
Y3808457D02*
X660716D01*
X632522D02*
X636078D01*
X632522Y3796265D02*
Y3808457D01*
Y3796265D02*
X636078D01*
X657160D02*
X660716D01*
Y3808457D01*
X655319Y3964111D02*
X740917D01*
D89*
X495380Y3652520D02*
X505380D01*
X500380Y3647520D02*
Y3657520D01*
X495380Y3652520D02*
X505380D01*
X500380Y3647520D02*
Y3657520D01*
X530940Y3652520D02*
X540940D01*
X535940Y3647520D02*
Y3657520D01*
X530940Y3652520D02*
X540940D01*
X535940Y3647520D02*
Y3657520D01*
X604520Y3758010D02*
Y3768010D01*
X599520Y3763010D02*
X609520D01*
X604520Y3758010D02*
Y3768010D01*
X599520Y3763010D02*
X609520D01*
X814070Y3756740D02*
Y3766740D01*
X809070Y3761740D02*
X819070D01*
X814070Y3756740D02*
Y3766740D01*
X809070Y3761740D02*
X819070D01*
X729060Y3501390D02*
X739060D01*
X734060Y3496390D02*
Y3506390D01*
X729060Y3501390D02*
X739060D01*
X734060Y3496390D02*
Y3506390D01*
X463630Y3456940D02*
X473630D01*
X468630Y3451940D02*
Y3461940D01*
X463630Y3456940D02*
X473630D01*
X468630Y3451940D02*
Y3461940D01*
X848690Y3893820D02*
X858190D01*
X853440Y3889070D02*
Y3898570D01*
X760287Y3847447D02*
X769287D01*
X764787Y3842947D02*
Y3851947D01*
X984580Y3401590D02*
X994080D01*
X989330Y3396840D02*
Y3406340D01*
X780411Y3336997D02*
Y3346997D01*
X775411Y3341997D02*
X785411D01*
X474980Y3610940D02*
Y3620440D01*
X470230Y3615690D02*
X479730D01*
X487720Y3613150D02*
X492720D01*
X490220Y3610650D02*
Y3615650D01*
X487720Y3691890D02*
X492720D01*
X490220Y3689390D02*
Y3694390D01*
X473710Y3688410D02*
Y3697910D01*
X468960Y3693160D02*
X478460D01*
X739720Y3811270D02*
X748720D01*
X744220Y3806770D02*
Y3815770D01*
X670217Y3583940D02*
X680217D01*
X675217Y3578940D02*
Y3588940D01*
X897970Y3583940D02*
X907970D01*
X902970Y3578940D02*
Y3588940D01*
X784093Y3583940D02*
X794093D01*
X789093Y3578940D02*
Y3588940D01*
X556340Y3583940D02*
X566340D01*
X561340Y3578940D02*
Y3588940D01*
X613104Y3798441D02*
Y3807441D01*
X608604Y3802941D02*
X617604D01*
X613104Y3782621D02*
Y3791621D01*
X608604Y3787121D02*
X617604D01*
X645160Y3763590D02*
Y3772590D01*
X640660Y3768090D02*
X649660D01*
X598170Y3872270D02*
Y3877270D01*
X595670Y3874770D02*
X600670D01*
X610180D02*
X619180D01*
X614680Y3870270D02*
Y3879270D01*
X505460Y3445810D02*
Y3455310D01*
X500710Y3450560D02*
X510210D01*
X734060Y3445810D02*
Y3455310D01*
X729310Y3450560D02*
X738810D01*
X751840Y3638880D02*
Y3648380D01*
X747090Y3643630D02*
X756590D01*
X864870Y3640150D02*
Y3649650D01*
X860120Y3644900D02*
X869620D01*
X976630Y3586810D02*
Y3596310D01*
X971880Y3591560D02*
X981380D01*
M02*
