G04*
G04 #@! TF.GenerationSoftware,Altium Limited,Altium Designer,20.0.10 (225)*
G04*
G04 Layer_Color=2752767*
%FSLAX44Y44*%
%MOMM*%
G71*
G01*
G75*
%ADD10C,0.2540*%
%ADD11C,0.2000*%
%ADD92C,0.0508*%
%ADD93C,0.0677*%
%ADD94C,0.0339*%
D10*
X596440Y3251020D02*
G03*
X596440Y3251020I-105000J0D01*
G01*
X1073380D02*
G03*
X1073380Y3251020I-105000J0D01*
G01*
D11*
X1066920Y3140980D02*
G03*
X1077440Y3151500I0J10520D01*
G01*
X384430D02*
G03*
X394950Y3140980I10520J0D01*
G01*
X1077440Y3959500D02*
G03*
X1066920Y3970020I-10520J0D01*
G01*
X394950Y3970000D02*
G03*
X384430Y3959480I0J-10520D01*
G01*
X1077400Y3151011D02*
Y3959500D01*
X394940Y3140990D02*
X1067380D01*
X384430Y3151500D02*
Y3959480D01*
X394950Y3970000D02*
X1067380D01*
D92*
X523058Y3222188D02*
Y3226252D01*
X527122D01*
Y3222188D01*
X523058D01*
X489458Y3205988D02*
Y3210052D01*
X493522D01*
Y3205988D01*
X489458D01*
X455858Y3222188D02*
Y3226252D01*
X459922D01*
Y3222188D01*
X455858D01*
X531358Y3258488D02*
Y3262552D01*
X535422D01*
Y3258488D01*
X531358D01*
X447458D02*
Y3262552D01*
X451522D01*
Y3258488D01*
X447458D01*
X470758Y3287688D02*
Y3291752D01*
X474822D01*
Y3287688D01*
X470758D01*
X489458Y3248988D02*
Y3253052D01*
X493522D01*
Y3248988D01*
X489458D01*
X508158Y3287688D02*
Y3291752D01*
X512222D01*
Y3287688D01*
X508158D01*
X999998Y3222188D02*
Y3226252D01*
X1004062D01*
Y3222188D01*
X999998D01*
X966398Y3205988D02*
Y3210052D01*
X970462D01*
Y3205988D01*
X966398D01*
X932798Y3222188D02*
Y3226252D01*
X936862D01*
Y3222188D01*
X932798D01*
X1008298Y3258488D02*
Y3262552D01*
X1012362D01*
Y3258488D01*
X1008298D01*
X924398D02*
Y3262552D01*
X928462D01*
Y3258488D01*
X924398D01*
X947698Y3287688D02*
Y3291752D01*
X951762D01*
Y3287688D01*
X947698D01*
X966398Y3248988D02*
Y3253052D01*
X970462D01*
Y3248988D01*
X966398D01*
X985098Y3287688D02*
Y3291752D01*
X989162D01*
Y3287688D01*
X985098D01*
X622300Y3733038D02*
X620268Y3737102D01*
X624332D01*
X622300Y3733038D01*
X963600Y3431458D02*
X964616Y3432474D01*
X965632D01*
X964616Y3433490D01*
X965632Y3434506D01*
X964616D01*
X963600Y3435522D01*
X962584Y3434506D01*
X961568D01*
X962584Y3433490D01*
X961568Y3432474D01*
X962584D01*
X963600Y3431458D01*
Y3406058D02*
X964616Y3407074D01*
X965632D01*
X964616Y3408090D01*
X965632Y3409106D01*
X964616D01*
X963600Y3410122D01*
X962584Y3409106D01*
X961568D01*
X962584Y3408090D01*
X961568Y3407074D01*
X962584D01*
X963600Y3406058D01*
Y3465748D02*
X964616Y3466764D01*
X965632D01*
X964616Y3467780D01*
X965632Y3468796D01*
X964616D01*
X963600Y3469812D01*
X962584Y3468796D01*
X961568D01*
X962584Y3467780D01*
X961568Y3466764D01*
X962584D01*
X963600Y3465748D01*
Y3491148D02*
X964616Y3492164D01*
X965632D01*
X964616Y3493180D01*
X965632Y3494196D01*
X964616D01*
X963600Y3495212D01*
X962584Y3494196D01*
X961568D01*
X962584Y3493180D01*
X961568Y3492164D01*
X962584D01*
X963600Y3491148D01*
X444478Y3612388D02*
X445494Y3614420D01*
X444478Y3616452D01*
X446510Y3615436D01*
X448542Y3616452D01*
X447526Y3614420D01*
X448542Y3612388D01*
X446510Y3613404D01*
X444478Y3612388D01*
Y3586988D02*
X445494Y3589020D01*
X444478Y3591052D01*
X446510Y3590036D01*
X448542Y3591052D01*
X447526Y3589020D01*
X448542Y3586988D01*
X446510Y3588004D01*
X444478Y3586988D01*
Y3696208D02*
X445494Y3698240D01*
X444478Y3700272D01*
X446510Y3699256D01*
X448542Y3700272D01*
X447526Y3698240D01*
X448542Y3696208D01*
X446510Y3697224D01*
X444478Y3696208D01*
Y3670808D02*
X445494Y3672840D01*
X444478Y3674872D01*
X446510Y3673856D01*
X448542Y3674872D01*
X447526Y3672840D01*
X448542Y3670808D01*
X446510Y3671824D01*
X444478Y3670808D01*
X776224Y3934714D02*
Y3933698D01*
X778256D01*
Y3934714D01*
X779272D01*
Y3936746D01*
X778256D01*
Y3937762D01*
X776224D01*
Y3936746D01*
X775208D01*
Y3934714D01*
X776224D01*
X801624D02*
Y3933698D01*
X803656D01*
Y3934714D01*
X804672D01*
Y3936746D01*
X803656D01*
Y3937762D01*
X801624D01*
Y3936746D01*
X800608D01*
Y3934714D01*
X801624D01*
X827024D02*
Y3933698D01*
X829056D01*
Y3934714D01*
X830072D01*
Y3936746D01*
X829056D01*
Y3937762D01*
X827024D01*
Y3936746D01*
X826008D01*
Y3934714D01*
X827024D01*
X852424D02*
Y3933698D01*
X854456D01*
Y3934714D01*
X855472D01*
Y3936746D01*
X854456D01*
Y3937762D01*
X852424D01*
Y3936746D01*
X851408D01*
Y3934714D01*
X852424D01*
X877824D02*
Y3933698D01*
X879856D01*
Y3934714D01*
X880872D01*
Y3936746D01*
X879856D01*
Y3937762D01*
X877824D01*
Y3936746D01*
X876808D01*
Y3934714D01*
X877824D01*
X903224D02*
Y3933698D01*
X905256D01*
Y3934714D01*
X906272D01*
Y3936746D01*
X905256D01*
Y3937762D01*
X903224D01*
Y3936746D01*
X902208D01*
Y3934714D01*
X903224D01*
X550418Y3919728D02*
X551434D01*
X552450Y3920744D01*
X553466Y3919728D01*
X554482D01*
Y3920744D01*
X553466Y3921760D01*
X554482Y3922776D01*
Y3923792D01*
X553466D01*
X552450Y3922776D01*
X551434Y3923792D01*
X550418D01*
Y3922776D01*
X551434Y3921760D01*
X550418Y3920744D01*
Y3919728D01*
X525018D02*
X526034D01*
X527050Y3920744D01*
X528066Y3919728D01*
X529082D01*
Y3920744D01*
X528066Y3921760D01*
X529082Y3922776D01*
Y3923792D01*
X528066D01*
X527050Y3922776D01*
X526034Y3923792D01*
X525018D01*
Y3922776D01*
X526034Y3921760D01*
X525018Y3920744D01*
Y3919728D01*
X714879Y3341997D02*
X716911Y3344029D01*
X718943Y3341997D01*
X716911Y3339965D01*
X714879Y3341997D01*
X841879D02*
X843911Y3344029D01*
X845943Y3341997D01*
X843911Y3339965D01*
X841879Y3341997D01*
X778379D02*
X780411Y3344029D01*
X782443Y3341997D01*
X780411Y3339965D01*
X778379Y3341997D01*
X634238Y3291078D02*
Y3295142D01*
X638302D01*
Y3291078D01*
X634238D01*
X635254Y3292094D02*
Y3294126D01*
X637286D01*
Y3292094D01*
X635254D01*
X634238Y3244088D02*
Y3248152D01*
X638302D01*
Y3244088D01*
X634238D01*
X635254Y3245104D02*
Y3247136D01*
X637286D01*
Y3245104D01*
X635254D01*
X634238Y3197098D02*
Y3201162D01*
X638302D01*
Y3197098D01*
X634238D01*
X635254Y3198114D02*
Y3200146D01*
X637286D01*
Y3198114D01*
X635254D01*
X678690Y3930168D02*
X676658Y3934232D01*
X680722D01*
X678690Y3930168D01*
Y3931184D02*
X677674Y3933216D01*
X679706D01*
X678690Y3931184D01*
X718690Y3930168D02*
X716658Y3934232D01*
X720722D01*
X718690Y3930168D01*
Y3931184D02*
X717674Y3933216D01*
X719706D01*
X718690Y3931184D01*
X662940Y3916968D02*
X663956Y3917984D01*
X664972D01*
X663956Y3919000D01*
X664972Y3920016D01*
X663956D01*
X662940Y3921032D01*
X661924Y3920016D01*
X660908D01*
X661924Y3919000D01*
X660908Y3917984D01*
X661924D01*
X662940Y3916968D01*
Y3917984D02*
X663448Y3918492D01*
X663956D01*
X663448Y3919000D01*
X663956Y3919508D01*
X663448D01*
X662940Y3920016D01*
X662432Y3919508D01*
X661924D01*
X662432Y3919000D01*
X661924Y3918492D01*
X662432D01*
X662940Y3917984D01*
Y3951468D02*
X663956Y3952484D01*
X664972D01*
X663956Y3953500D01*
X664972Y3954516D01*
X663956D01*
X662940Y3955532D01*
X661924Y3954516D01*
X660908D01*
X661924Y3953500D01*
X660908Y3952484D01*
X661924D01*
X662940Y3951468D01*
Y3952484D02*
X663448Y3952992D01*
X663956D01*
X663448Y3953500D01*
X663956Y3954008D01*
X663448D01*
X662940Y3954516D01*
X662432Y3954008D01*
X661924D01*
X662432Y3953500D01*
X661924Y3952992D01*
X662432D01*
X662940Y3952484D01*
X734440Y3916968D02*
X735456Y3917984D01*
X736472D01*
X735456Y3919000D01*
X736472Y3920016D01*
X735456D01*
X734440Y3921032D01*
X733424Y3920016D01*
X732408D01*
X733424Y3919000D01*
X732408Y3917984D01*
X733424D01*
X734440Y3916968D01*
Y3917984D02*
X734948Y3918492D01*
X735456D01*
X734948Y3919000D01*
X735456Y3919508D01*
X734948D01*
X734440Y3920016D01*
X733932Y3919508D01*
X733424D01*
X733932Y3919000D01*
X733424Y3918492D01*
X733932D01*
X734440Y3917984D01*
Y3951468D02*
X735456Y3952484D01*
X736472D01*
X735456Y3953500D01*
X736472Y3954516D01*
X735456D01*
X734440Y3955532D01*
X733424Y3954516D01*
X732408D01*
X733424Y3953500D01*
X732408Y3952484D01*
X733424D01*
X734440Y3951468D01*
Y3952484D02*
X734948Y3952992D01*
X735456D01*
X734948Y3953500D01*
X735456Y3954008D01*
X734948D01*
X734440Y3954516D01*
X733932Y3954008D01*
X733424D01*
X733932Y3953500D01*
X733424Y3952992D01*
X733932D01*
X734440Y3952484D01*
X592849Y3278458D02*
X593865Y3280490D01*
X592849Y3282522D01*
X594881Y3281506D01*
X596913Y3282522D01*
X595897Y3280490D01*
X596913Y3278458D01*
X594881Y3279474D01*
X592849Y3278458D01*
X593865Y3279474D02*
X594373Y3280490D01*
X593865Y3281506D01*
X594881Y3280998D01*
X595897Y3281506D01*
X595389Y3280490D01*
X595897Y3279474D01*
X594881Y3279982D01*
X593865Y3279474D01*
X673196Y3191543D02*
X674212Y3193575D01*
X673196Y3195607D01*
X675228Y3194591D01*
X677260Y3195607D01*
X676244Y3193575D01*
X677260Y3191543D01*
X675228Y3192559D01*
X673196Y3191543D01*
X674212Y3192559D02*
X674720Y3193575D01*
X674212Y3194591D01*
X675228Y3194083D01*
X676244Y3194591D01*
X675736Y3193575D01*
X676244Y3192559D01*
X675228Y3193067D01*
X674212Y3192559D01*
X969518Y3310128D02*
X970534Y3312160D01*
X969518Y3314192D01*
X971550Y3313176D01*
X973582Y3314192D01*
X972566Y3312160D01*
X973582Y3310128D01*
X971550Y3311144D01*
X969518Y3310128D01*
X970534Y3311144D02*
X971042Y3312160D01*
X970534Y3313176D01*
X971550Y3312668D01*
X972566Y3313176D01*
X972058Y3312160D01*
X972566Y3311144D01*
X971550Y3311652D01*
X970534Y3311144D01*
X615539Y3313673D02*
X616555Y3315705D01*
X615539Y3317737D01*
X617571Y3316721D01*
X619603Y3317737D01*
X618587Y3315705D01*
X619603Y3313673D01*
X617571Y3314689D01*
X615539Y3313673D01*
X616555Y3314689D02*
X617063Y3315705D01*
X616555Y3316721D01*
X617571Y3316213D01*
X618587Y3316721D01*
X618079Y3315705D01*
X618587Y3314689D01*
X617571Y3315197D01*
X616555Y3314689D01*
X596606Y3306633D02*
X597622Y3308665D01*
X596606Y3310697D01*
X598638Y3309681D01*
X600670Y3310697D01*
X599654Y3308665D01*
X600670Y3306633D01*
X598638Y3307649D01*
X596606Y3306633D01*
X597622Y3307649D02*
X598130Y3308665D01*
X597622Y3309681D01*
X598638Y3309173D01*
X599654Y3309681D01*
X599146Y3308665D01*
X599654Y3307649D01*
X598638Y3308157D01*
X597622Y3307649D01*
X556205Y3306633D02*
X557221Y3308665D01*
X556205Y3310697D01*
X558237Y3309681D01*
X560270Y3310697D01*
X559254Y3308665D01*
X560270Y3306633D01*
X558237Y3307649D01*
X556205Y3306633D01*
X557221Y3307649D02*
X557729Y3308665D01*
X557221Y3309681D01*
X558237Y3309173D01*
X559254Y3309681D01*
X558745Y3308665D01*
X559254Y3307649D01*
X558237Y3308157D01*
X557221Y3307649D01*
X536571Y3301888D02*
X537587Y3303920D01*
X536571Y3305952D01*
X538603Y3304936D01*
X540635Y3305952D01*
X539619Y3303920D01*
X540635Y3301888D01*
X538603Y3302904D01*
X536571Y3301888D01*
X537587Y3302904D02*
X538095Y3303920D01*
X537587Y3304936D01*
X538603Y3304428D01*
X539619Y3304936D01*
X539111Y3303920D01*
X539619Y3302904D01*
X538603Y3303412D01*
X537587Y3302904D01*
X517227Y3307708D02*
X518243Y3309740D01*
X517227Y3311772D01*
X519259Y3310756D01*
X521291Y3311772D01*
X520275Y3309740D01*
X521291Y3307708D01*
X519259Y3308724D01*
X517227Y3307708D01*
X518243Y3308724D02*
X518751Y3309740D01*
X518243Y3310756D01*
X519259Y3310248D01*
X520275Y3310756D01*
X519767Y3309740D01*
X520275Y3308724D01*
X519259Y3309232D01*
X518243Y3308724D01*
X497053Y3306683D02*
X498069Y3308715D01*
X497053Y3310747D01*
X499085Y3309731D01*
X501117Y3310747D01*
X500101Y3308715D01*
X501117Y3306683D01*
X499085Y3307699D01*
X497053Y3306683D01*
X498069Y3307699D02*
X498577Y3308715D01*
X498069Y3309731D01*
X499085Y3309223D01*
X500101Y3309731D01*
X499593Y3308715D01*
X500101Y3307699D01*
X499085Y3308207D01*
X498069Y3307699D01*
X813516Y3513423D02*
X814532Y3515455D01*
X813516Y3517487D01*
X815548Y3516471D01*
X817580Y3517487D01*
X816564Y3515455D01*
X817580Y3513423D01*
X815548Y3514439D01*
X813516Y3513423D01*
X814532Y3514439D02*
X815040Y3515455D01*
X814532Y3516471D01*
X815548Y3515963D01*
X816564Y3516471D01*
X816056Y3515455D01*
X816564Y3514439D01*
X815548Y3514947D01*
X814532Y3514439D01*
X752916Y3513423D02*
X753932Y3515455D01*
X752916Y3517487D01*
X754948Y3516471D01*
X756980Y3517487D01*
X755964Y3515455D01*
X756980Y3513423D01*
X754948Y3514439D01*
X752916Y3513423D01*
X753932Y3514439D02*
X754440Y3515455D01*
X753932Y3516471D01*
X754948Y3515963D01*
X755964Y3516471D01*
X755456Y3515455D01*
X755964Y3514439D01*
X754948Y3514947D01*
X753932Y3514439D01*
X953891Y3357213D02*
X954907Y3359245D01*
X953891Y3361277D01*
X955923Y3360261D01*
X957955Y3361277D01*
X956939Y3359245D01*
X957955Y3357213D01*
X955923Y3358229D01*
X953891Y3357213D01*
X954907Y3358229D02*
X955415Y3359245D01*
X954907Y3360261D01*
X955923Y3359753D01*
X956939Y3360261D01*
X956431Y3359245D01*
X956939Y3358229D01*
X955923Y3358737D01*
X954907Y3358229D01*
X1029113Y3492350D02*
X1030129Y3494381D01*
X1029113Y3496413D01*
X1031145Y3495397D01*
X1033177Y3496413D01*
X1032161Y3494381D01*
X1033177Y3492350D01*
X1031145Y3493365D01*
X1029113Y3492350D01*
X1030129Y3493365D02*
X1030637Y3494381D01*
X1030129Y3495397D01*
X1031145Y3494890D01*
X1032161Y3495397D01*
X1031653Y3494381D01*
X1032161Y3493365D01*
X1031145Y3493873D01*
X1030129Y3493365D01*
X1041119Y3340844D02*
X1042135Y3342875D01*
X1041119Y3344908D01*
X1043151Y3343891D01*
X1045183Y3344908D01*
X1044167Y3342875D01*
X1045183Y3340844D01*
X1043151Y3341859D01*
X1041119Y3340844D01*
X1042135Y3341859D02*
X1042643Y3342875D01*
X1042135Y3343891D01*
X1043151Y3343383D01*
X1044167Y3343891D01*
X1043659Y3342875D01*
X1044167Y3341859D01*
X1043151Y3342367D01*
X1042135Y3341859D01*
X1046295Y3533911D02*
X1047311Y3535943D01*
X1046295Y3537975D01*
X1048327Y3536959D01*
X1050359Y3537975D01*
X1049343Y3535943D01*
X1050359Y3533911D01*
X1048327Y3534927D01*
X1046295Y3533911D01*
X1047311Y3534927D02*
X1047820Y3535943D01*
X1047311Y3536959D01*
X1048327Y3536451D01*
X1049343Y3536959D01*
X1048836Y3535943D01*
X1049343Y3534927D01*
X1048327Y3535435D01*
X1047311Y3534927D01*
X1027912Y3512514D02*
X1028928Y3514546D01*
X1027912Y3516577D01*
X1029944Y3515562D01*
X1031976Y3516577D01*
X1030960Y3514546D01*
X1031976Y3512514D01*
X1029944Y3513530D01*
X1027912Y3512514D01*
X1028928Y3513530D02*
X1029436Y3514546D01*
X1028928Y3515562D01*
X1029944Y3515054D01*
X1030960Y3515562D01*
X1030452Y3514546D01*
X1030960Y3513530D01*
X1029944Y3514037D01*
X1028928Y3513530D01*
X732889Y3516065D02*
X733905Y3518097D01*
X732889Y3520129D01*
X734921Y3519113D01*
X736953Y3520129D01*
X735937Y3518097D01*
X736953Y3516065D01*
X734921Y3517081D01*
X732889Y3516065D01*
X733905Y3517081D02*
X734413Y3518097D01*
X733905Y3519113D01*
X734921Y3518605D01*
X735937Y3519113D01*
X735429Y3518097D01*
X735937Y3517081D01*
X734921Y3517589D01*
X733905Y3517081D01*
X1008226Y3517043D02*
X1009242Y3519075D01*
X1008226Y3521107D01*
X1010258Y3520091D01*
X1012290Y3521107D01*
X1011274Y3519075D01*
X1012290Y3517043D01*
X1010258Y3518059D01*
X1008226Y3517043D01*
X1009242Y3518059D02*
X1009750Y3519075D01*
X1009242Y3520091D01*
X1010258Y3519583D01*
X1011274Y3520091D01*
X1010766Y3519075D01*
X1011274Y3518059D01*
X1010258Y3518567D01*
X1009242Y3518059D01*
X1005403Y3545173D02*
X1006419Y3547205D01*
X1005403Y3549237D01*
X1007435Y3548221D01*
X1009467Y3549237D01*
X1008451Y3547205D01*
X1009467Y3545173D01*
X1007435Y3546189D01*
X1005403Y3545173D01*
X1006419Y3546189D02*
X1006927Y3547205D01*
X1006419Y3548221D01*
X1007435Y3547713D01*
X1008451Y3548221D01*
X1007943Y3547205D01*
X1008451Y3546189D01*
X1007435Y3546697D01*
X1006419Y3546189D01*
X1029113Y3472149D02*
X1030129Y3474182D01*
X1029113Y3476213D01*
X1031145Y3475197D01*
X1033177Y3476213D01*
X1032161Y3474182D01*
X1033177Y3472149D01*
X1031145Y3473165D01*
X1029113Y3472149D01*
X1030129Y3473165D02*
X1030637Y3474182D01*
X1030129Y3475197D01*
X1031145Y3474689D01*
X1032161Y3475197D01*
X1031653Y3474182D01*
X1032161Y3473165D01*
X1031145Y3473673D01*
X1030129Y3473165D01*
X1055070Y3355451D02*
X1056086Y3357484D01*
X1055070Y3359515D01*
X1057102Y3358499D01*
X1059134Y3359515D01*
X1058118Y3357484D01*
X1059134Y3355451D01*
X1057102Y3356468D01*
X1055070Y3355451D01*
X1056086Y3356468D02*
X1056594Y3357484D01*
X1056086Y3358499D01*
X1057102Y3357992D01*
X1058118Y3358499D01*
X1057610Y3357484D01*
X1058118Y3356468D01*
X1057102Y3356975D01*
X1056086Y3356468D01*
X1029113Y3411549D02*
X1030129Y3413581D01*
X1029113Y3415613D01*
X1031145Y3414597D01*
X1033177Y3415613D01*
X1032161Y3413581D01*
X1033177Y3411549D01*
X1031145Y3412565D01*
X1029113Y3411549D01*
X1030129Y3412565D02*
X1030637Y3413581D01*
X1030129Y3414597D01*
X1031145Y3414089D01*
X1032161Y3414597D01*
X1031653Y3413581D01*
X1032161Y3412565D01*
X1031145Y3413073D01*
X1030129Y3412565D01*
X1057243Y3436134D02*
X1058259Y3438167D01*
X1057243Y3440198D01*
X1059275Y3439182D01*
X1061307Y3440198D01*
X1060291Y3438167D01*
X1061307Y3436134D01*
X1059275Y3437150D01*
X1057243Y3436134D01*
X1058259Y3437150D02*
X1058767Y3438167D01*
X1058259Y3439182D01*
X1059275Y3438674D01*
X1060291Y3439182D01*
X1059783Y3438167D01*
X1060291Y3437150D01*
X1059275Y3437658D01*
X1058259Y3437150D01*
X717963Y3464401D02*
X718979Y3466432D01*
X717963Y3468465D01*
X719995Y3467449D01*
X722027Y3468465D01*
X721011Y3466432D01*
X722027Y3464401D01*
X719995Y3465417D01*
X717963Y3464401D01*
X718979Y3465417D02*
X719487Y3466432D01*
X718979Y3467449D01*
X719995Y3466941D01*
X721011Y3467449D01*
X720503Y3466432D01*
X721011Y3465417D01*
X719995Y3465925D01*
X718979Y3465417D01*
X1031668Y3323369D02*
X1032684Y3325400D01*
X1031668Y3327433D01*
X1033700Y3326417D01*
X1035732Y3327433D01*
X1034716Y3325400D01*
X1035732Y3323369D01*
X1033700Y3324384D01*
X1031668Y3323369D01*
X1032684Y3324384D02*
X1033192Y3325400D01*
X1032684Y3326417D01*
X1033700Y3325909D01*
X1034716Y3326417D01*
X1034208Y3325400D01*
X1034716Y3324384D01*
X1033700Y3324893D01*
X1032684Y3324384D01*
X773116Y3513423D02*
X774132Y3515455D01*
X773116Y3517487D01*
X775148Y3516471D01*
X777180Y3517487D01*
X776164Y3515455D01*
X777180Y3513423D01*
X775148Y3514439D01*
X773116Y3513423D01*
X774132Y3514439D02*
X774640Y3515455D01*
X774132Y3516471D01*
X775148Y3515963D01*
X776164Y3516471D01*
X775656Y3515455D01*
X776164Y3514439D01*
X775148Y3514947D01*
X774132Y3514439D01*
X1057243Y3456335D02*
X1058259Y3458366D01*
X1057243Y3460398D01*
X1059275Y3459382D01*
X1061307Y3460398D01*
X1060291Y3458366D01*
X1061307Y3456335D01*
X1059275Y3457350D01*
X1057243Y3456335D01*
X1058259Y3457350D02*
X1058767Y3458366D01*
X1058259Y3459382D01*
X1059275Y3458875D01*
X1060291Y3459382D01*
X1059783Y3458366D01*
X1060291Y3457350D01*
X1059275Y3457858D01*
X1058259Y3457350D01*
X756533Y3485293D02*
X757549Y3487325D01*
X756533Y3489357D01*
X758565Y3488341D01*
X760597Y3489357D01*
X759581Y3487325D01*
X760597Y3485293D01*
X758565Y3486309D01*
X756533Y3485293D01*
X757549Y3486309D02*
X758057Y3487325D01*
X757549Y3488341D01*
X758565Y3487833D01*
X759581Y3488341D01*
X759073Y3487325D01*
X759581Y3486309D01*
X758565Y3486817D01*
X757549Y3486309D01*
X1029113Y3391349D02*
X1030129Y3393381D01*
X1029113Y3395413D01*
X1031145Y3394397D01*
X1033177Y3395413D01*
X1032161Y3393381D01*
X1033177Y3391349D01*
X1031145Y3392365D01*
X1029113Y3391349D01*
X1030129Y3392365D02*
X1030637Y3393381D01*
X1030129Y3394397D01*
X1031145Y3393889D01*
X1032161Y3394397D01*
X1031653Y3393381D01*
X1032161Y3392365D01*
X1031145Y3392873D01*
X1030129Y3392365D01*
X1057243Y3375534D02*
X1058259Y3377567D01*
X1057243Y3379598D01*
X1059275Y3378582D01*
X1061307Y3379598D01*
X1060291Y3377567D01*
X1061307Y3375534D01*
X1059275Y3376550D01*
X1057243Y3375534D01*
X1058259Y3376550D02*
X1058767Y3377567D01*
X1058259Y3378582D01*
X1059275Y3378074D01*
X1060291Y3378582D01*
X1059783Y3377567D01*
X1060291Y3376550D01*
X1059275Y3377058D01*
X1058259Y3376550D01*
X1029113Y3431749D02*
X1030129Y3433781D01*
X1029113Y3435813D01*
X1031145Y3434797D01*
X1033177Y3435813D01*
X1032161Y3433781D01*
X1033177Y3431749D01*
X1031145Y3432765D01*
X1029113Y3431749D01*
X1030129Y3432765D02*
X1030637Y3433781D01*
X1030129Y3434797D01*
X1031145Y3434289D01*
X1032161Y3434797D01*
X1031653Y3433781D01*
X1032161Y3432765D01*
X1031145Y3433273D01*
X1030129Y3432765D01*
X1029113Y3451949D02*
X1030129Y3453981D01*
X1029113Y3456013D01*
X1031145Y3454997D01*
X1033177Y3456013D01*
X1032161Y3453981D01*
X1033177Y3451949D01*
X1031145Y3452965D01*
X1029113Y3451949D01*
X1030129Y3452965D02*
X1030637Y3453981D01*
X1030129Y3454997D01*
X1031145Y3454489D01*
X1032161Y3454997D01*
X1031653Y3453981D01*
X1032161Y3452965D01*
X1031145Y3453474D01*
X1030129Y3452965D01*
X974091Y3357213D02*
X975107Y3359245D01*
X974091Y3361277D01*
X976123Y3360261D01*
X978155Y3361277D01*
X977139Y3359245D01*
X978155Y3357213D01*
X976123Y3358229D01*
X974091Y3357213D01*
X975107Y3358229D02*
X975615Y3359245D01*
X975107Y3360261D01*
X976123Y3359753D01*
X977139Y3360261D01*
X976631Y3359245D01*
X977139Y3358229D01*
X976123Y3358737D01*
X975107Y3358229D01*
X885169Y3250043D02*
X886185Y3252075D01*
X885169Y3254107D01*
X887201Y3253091D01*
X889233Y3254107D01*
X888217Y3252075D01*
X889233Y3250043D01*
X887201Y3251059D01*
X885169Y3250043D01*
X886185Y3251059D02*
X886693Y3252075D01*
X886185Y3253091D01*
X887201Y3252583D01*
X888217Y3253091D01*
X887709Y3252075D01*
X888217Y3251059D01*
X887201Y3251567D01*
X886185Y3251059D01*
X1057243Y3516935D02*
X1058259Y3518966D01*
X1057243Y3520999D01*
X1059275Y3519982D01*
X1061307Y3520999D01*
X1060291Y3518966D01*
X1061307Y3516935D01*
X1059275Y3517950D01*
X1057243Y3516935D01*
X1058259Y3517950D02*
X1058767Y3518966D01*
X1058259Y3519982D01*
X1059275Y3519474D01*
X1060291Y3519982D01*
X1059783Y3518966D01*
X1060291Y3517950D01*
X1059275Y3518458D01*
X1058259Y3517950D01*
X1057243Y3415934D02*
X1058259Y3417966D01*
X1057243Y3419998D01*
X1059275Y3418983D01*
X1061307Y3419998D01*
X1060291Y3417966D01*
X1061307Y3415934D01*
X1059275Y3416950D01*
X1057243Y3415934D01*
X1058259Y3416950D02*
X1058767Y3417966D01*
X1058259Y3418983D01*
X1059275Y3418474D01*
X1060291Y3418983D01*
X1059783Y3417966D01*
X1060291Y3416950D01*
X1059275Y3417458D01*
X1058259Y3416950D01*
X913559Y3355562D02*
X914575Y3357594D01*
X913559Y3359626D01*
X915591Y3358610D01*
X917623Y3359626D01*
X916607Y3357594D01*
X917623Y3355562D01*
X915591Y3356577D01*
X913559Y3355562D01*
X914575Y3356577D02*
X915083Y3357594D01*
X914575Y3358610D01*
X915591Y3358102D01*
X916607Y3358610D01*
X916099Y3357594D01*
X916607Y3356577D01*
X915591Y3357086D01*
X914575Y3356577D01*
X796933Y3485293D02*
X797949Y3487325D01*
X796933Y3489357D01*
X798965Y3488341D01*
X800997Y3489357D01*
X799981Y3487325D01*
X800997Y3485293D01*
X798965Y3486309D01*
X796933Y3485293D01*
X797949Y3486309D02*
X798457Y3487325D01*
X797949Y3488341D01*
X798965Y3487833D01*
X799981Y3488341D01*
X799473Y3487325D01*
X799981Y3486309D01*
X798965Y3486817D01*
X797949Y3486309D01*
X796675Y3451034D02*
X797691Y3453065D01*
X796675Y3455098D01*
X798707Y3454082D01*
X800739Y3455098D01*
X799723Y3453065D01*
X800739Y3451034D01*
X798707Y3452050D01*
X796675Y3451034D01*
X797691Y3452050D02*
X798199Y3453065D01*
X797691Y3454082D01*
X798707Y3453574D01*
X799723Y3454082D01*
X799215Y3453065D01*
X799723Y3452050D01*
X798707Y3452558D01*
X797691Y3452050D01*
X817133Y3485293D02*
X818149Y3487325D01*
X817133Y3489357D01*
X819165Y3488341D01*
X821197Y3489357D01*
X820181Y3487325D01*
X821197Y3485293D01*
X819165Y3486309D01*
X817133Y3485293D01*
X818149Y3486309D02*
X818657Y3487325D01*
X818149Y3488341D01*
X819165Y3487833D01*
X820181Y3488341D01*
X819673Y3487325D01*
X820181Y3486309D01*
X819165Y3486817D01*
X818149Y3486309D01*
X1029113Y3371149D02*
X1030129Y3373181D01*
X1029113Y3375213D01*
X1031145Y3374197D01*
X1033177Y3375213D01*
X1032161Y3373181D01*
X1033177Y3371149D01*
X1031145Y3372165D01*
X1029113Y3371149D01*
X1030129Y3372165D02*
X1030637Y3373181D01*
X1030129Y3374197D01*
X1031145Y3373689D01*
X1032161Y3374197D01*
X1031653Y3373181D01*
X1032161Y3372165D01*
X1031145Y3372673D01*
X1030129Y3372165D01*
X1057243Y3476534D02*
X1058259Y3478566D01*
X1057243Y3480598D01*
X1059275Y3479583D01*
X1061307Y3480598D01*
X1060291Y3478566D01*
X1061307Y3476534D01*
X1059275Y3477550D01*
X1057243Y3476534D01*
X1058259Y3477550D02*
X1058767Y3478566D01*
X1058259Y3479583D01*
X1059275Y3479074D01*
X1060291Y3479583D01*
X1059783Y3478566D01*
X1060291Y3477550D01*
X1059275Y3478058D01*
X1058259Y3477550D01*
X716171Y3504728D02*
X717187Y3506760D01*
X716171Y3508792D01*
X718203Y3507776D01*
X720235Y3508792D01*
X719219Y3506760D01*
X720235Y3504728D01*
X718203Y3505744D01*
X716171Y3504728D01*
X717187Y3505744D02*
X717695Y3506760D01*
X717187Y3507776D01*
X718203Y3507268D01*
X719219Y3507776D01*
X718711Y3506760D01*
X719219Y3505744D01*
X718203Y3506252D01*
X717187Y3505744D01*
X717880Y3484601D02*
X718896Y3486632D01*
X717880Y3488665D01*
X719912Y3487648D01*
X721944Y3488665D01*
X720928Y3486632D01*
X721944Y3484601D01*
X719912Y3485616D01*
X717880Y3484601D01*
X718896Y3485616D02*
X719404Y3486632D01*
X718896Y3487648D01*
X719912Y3487141D01*
X720928Y3487648D01*
X720420Y3486632D01*
X720928Y3485616D01*
X719912Y3486124D01*
X718896Y3485616D01*
X793316Y3513423D02*
X794332Y3515455D01*
X793316Y3517487D01*
X795348Y3516471D01*
X797380Y3517487D01*
X796364Y3515455D01*
X797380Y3513423D01*
X795348Y3514439D01*
X793316Y3513423D01*
X794332Y3514439D02*
X794840Y3515455D01*
X794332Y3516471D01*
X795348Y3515963D01*
X796364Y3516471D01*
X795856Y3515455D01*
X796364Y3514439D01*
X795348Y3514947D01*
X794332Y3514439D01*
X771172Y3471375D02*
X772188Y3473407D01*
X771172Y3475439D01*
X773204Y3474423D01*
X775236Y3475439D01*
X774220Y3473407D01*
X775236Y3471375D01*
X773204Y3472391D01*
X771172Y3471375D01*
X772188Y3472391D02*
X772696Y3473407D01*
X772188Y3474423D01*
X773204Y3473915D01*
X774220Y3474423D01*
X773712Y3473407D01*
X774220Y3472391D01*
X773204Y3472899D01*
X772188Y3472391D01*
X830738Y3523979D02*
X831754Y3526011D01*
X830738Y3528043D01*
X832770Y3527027D01*
X834802Y3528043D01*
X833786Y3526011D01*
X834802Y3523979D01*
X832770Y3524995D01*
X830738Y3523979D01*
X831754Y3524995D02*
X832262Y3526011D01*
X831754Y3527027D01*
X832770Y3526519D01*
X833786Y3527027D01*
X833278Y3526011D01*
X833786Y3524995D01*
X832770Y3525503D01*
X831754Y3524995D01*
X894588Y3354578D02*
X895604Y3356610D01*
X894588Y3358642D01*
X896620Y3357626D01*
X898652Y3358642D01*
X897636Y3356610D01*
X898652Y3354578D01*
X896620Y3355594D01*
X894588Y3354578D01*
X895604Y3355594D02*
X896112Y3356610D01*
X895604Y3357626D01*
X896620Y3357118D01*
X897636Y3357626D01*
X897128Y3356610D01*
X897636Y3355594D01*
X896620Y3356102D01*
X895604Y3355594D01*
X1029500Y3545134D02*
X1030516Y3547166D01*
X1029500Y3549198D01*
X1031532Y3548182D01*
X1033564Y3549198D01*
X1032548Y3547166D01*
X1033564Y3545134D01*
X1031532Y3546150D01*
X1029500Y3545134D01*
X1030516Y3546150D02*
X1031024Y3547166D01*
X1030516Y3548182D01*
X1031532Y3547674D01*
X1032548Y3548182D01*
X1032040Y3547166D01*
X1032548Y3546150D01*
X1031532Y3546658D01*
X1030516Y3546150D01*
X994291Y3357213D02*
X995307Y3359245D01*
X994291Y3361277D01*
X996323Y3360261D01*
X998355Y3361277D01*
X997339Y3359245D01*
X998355Y3357213D01*
X996323Y3358229D01*
X994291Y3357213D01*
X995307Y3358229D02*
X995815Y3359245D01*
X995307Y3360261D01*
X996323Y3359753D01*
X997339Y3360261D01*
X996831Y3359245D01*
X997339Y3358229D01*
X996323Y3358737D01*
X995307Y3358229D01*
X776733Y3485293D02*
X777749Y3487325D01*
X776733Y3489357D01*
X778765Y3488341D01*
X780797Y3489357D01*
X779781Y3487325D01*
X780797Y3485293D01*
X778765Y3486309D01*
X776733Y3485293D01*
X777749Y3486309D02*
X778257Y3487325D01*
X777749Y3488341D01*
X778765Y3487833D01*
X779781Y3488341D01*
X779273Y3487325D01*
X779781Y3486309D01*
X778765Y3486817D01*
X777749Y3486309D01*
X1057243Y3496734D02*
X1058259Y3498766D01*
X1057243Y3500798D01*
X1059275Y3499782D01*
X1061307Y3500798D01*
X1060291Y3498766D01*
X1061307Y3496734D01*
X1059275Y3497751D01*
X1057243Y3496734D01*
X1058259Y3497751D02*
X1058767Y3498766D01*
X1058259Y3499782D01*
X1059275Y3499274D01*
X1060291Y3499782D01*
X1059783Y3498766D01*
X1060291Y3497751D01*
X1059275Y3498258D01*
X1058259Y3497751D01*
X1057243Y3395734D02*
X1058259Y3397766D01*
X1057243Y3399798D01*
X1059275Y3398782D01*
X1061307Y3399798D01*
X1060291Y3397766D01*
X1061307Y3395734D01*
X1059275Y3396750D01*
X1057243Y3395734D01*
X1058259Y3396750D02*
X1058767Y3397766D01*
X1058259Y3398782D01*
X1059275Y3398275D01*
X1060291Y3398782D01*
X1059783Y3397766D01*
X1060291Y3396750D01*
X1059275Y3397258D01*
X1058259Y3396750D01*
X791354Y3470520D02*
X792370Y3472552D01*
X791354Y3474584D01*
X793386Y3473568D01*
X795418Y3474584D01*
X794402Y3472552D01*
X795418Y3470520D01*
X793386Y3471536D01*
X791354Y3470520D01*
X792370Y3471536D02*
X792878Y3472552D01*
X792370Y3473568D01*
X793386Y3473060D01*
X794402Y3473568D01*
X793894Y3472552D01*
X794402Y3471536D01*
X793386Y3472044D01*
X792370Y3471536D01*
X933691Y3357213D02*
X934707Y3359245D01*
X933691Y3361277D01*
X935723Y3360261D01*
X937755Y3361277D01*
X936739Y3359245D01*
X937755Y3357213D01*
X935723Y3358229D01*
X933691Y3357213D01*
X934707Y3358229D02*
X935215Y3359245D01*
X934707Y3360261D01*
X935723Y3359753D01*
X936739Y3360261D01*
X936231Y3359245D01*
X936739Y3358229D01*
X935723Y3358737D01*
X934707Y3358229D01*
X648331Y3459910D02*
X649347Y3461942D01*
X648331Y3463974D01*
X650363Y3462958D01*
X652395Y3463974D01*
X651379Y3461942D01*
X652395Y3459910D01*
X650363Y3460926D01*
X648331Y3459910D01*
X649347Y3460926D02*
X649855Y3461942D01*
X649347Y3462958D01*
X650363Y3462450D01*
X651379Y3462958D01*
X650871Y3461942D01*
X651379Y3460926D01*
X650363Y3461434D01*
X649347Y3460926D01*
X748606Y3363373D02*
X749622Y3365405D01*
X748606Y3367437D01*
X750638Y3366421D01*
X752670Y3367437D01*
X751654Y3365405D01*
X752670Y3363373D01*
X750638Y3364389D01*
X748606Y3363373D01*
X749622Y3364389D02*
X750130Y3365405D01*
X749622Y3366421D01*
X750638Y3365913D01*
X751654Y3366421D01*
X751146Y3365405D01*
X751654Y3364389D01*
X750638Y3364897D01*
X749622Y3364389D01*
X759817Y3335743D02*
X760833Y3337775D01*
X759817Y3339807D01*
X761849Y3338791D01*
X763881Y3339807D01*
X762865Y3337775D01*
X763881Y3335743D01*
X761849Y3336759D01*
X759817Y3335743D01*
X760833Y3336759D02*
X761341Y3337775D01*
X760833Y3338791D01*
X761849Y3338283D01*
X762865Y3338791D01*
X762357Y3337775D01*
X762865Y3336759D01*
X761849Y3337267D01*
X760833Y3336759D01*
X720693Y3409049D02*
X721709Y3411082D01*
X720693Y3413113D01*
X722725Y3412097D01*
X724757Y3413113D01*
X723741Y3411082D01*
X724757Y3409049D01*
X722725Y3410066D01*
X720693Y3409049D01*
X721709Y3410066D02*
X722217Y3411082D01*
X721709Y3412097D01*
X722725Y3411589D01*
X723741Y3412097D01*
X723233Y3411082D01*
X723741Y3410066D01*
X722725Y3410573D01*
X721709Y3410066D01*
X720693Y3429250D02*
X721709Y3431281D01*
X720693Y3433314D01*
X722725Y3432297D01*
X724757Y3433314D01*
X723741Y3431281D01*
X724757Y3429250D01*
X722725Y3430266D01*
X720693Y3429250D01*
X721709Y3430266D02*
X722217Y3431281D01*
X721709Y3432297D01*
X722725Y3431790D01*
X723741Y3432297D01*
X723233Y3431281D01*
X723741Y3430266D01*
X722725Y3430774D01*
X721709Y3430266D01*
X689619Y3471069D02*
X690635Y3473101D01*
X689619Y3475133D01*
X691651Y3474117D01*
X693683Y3475133D01*
X692667Y3473101D01*
X693683Y3471069D01*
X691651Y3472085D01*
X689619Y3471069D01*
X690635Y3472085D02*
X691143Y3473101D01*
X690635Y3474117D01*
X691651Y3473609D01*
X692667Y3474117D01*
X692159Y3473101D01*
X692667Y3472085D01*
X691651Y3472593D01*
X690635Y3472085D01*
X919734Y3173984D02*
Y3172968D01*
X921766D01*
Y3173984D01*
X922782D01*
Y3176016D01*
X921766D01*
Y3177032D01*
X919734D01*
Y3176016D01*
X918718D01*
Y3173984D01*
X919734D01*
X920242Y3174492D02*
Y3173984D01*
X921258D01*
Y3174492D01*
X921766D01*
Y3175508D01*
X921258D01*
Y3176016D01*
X920242D01*
Y3175508D01*
X919734D01*
Y3174492D01*
X920242D01*
X907014Y3306938D02*
X908030Y3308970D01*
X907014Y3311002D01*
X909046Y3309986D01*
X911078Y3311002D01*
X910062Y3308970D01*
X911078Y3306938D01*
X909046Y3307954D01*
X907014Y3306938D01*
X908030Y3307954D02*
X908538Y3308970D01*
X908030Y3309986D01*
X909046Y3309478D01*
X910062Y3309986D01*
X909554Y3308970D01*
X910062Y3307954D01*
X909046Y3308462D01*
X908030Y3307954D01*
X1057968Y3277968D02*
X1058984Y3280000D01*
X1057968Y3282032D01*
X1060000Y3281016D01*
X1062032Y3282032D01*
X1061016Y3280000D01*
X1062032Y3277968D01*
X1060000Y3278984D01*
X1057968Y3277968D01*
X1058984Y3278984D02*
X1059492Y3280000D01*
X1058984Y3281016D01*
X1060000Y3280508D01*
X1061016Y3281016D01*
X1060508Y3280000D01*
X1061016Y3278984D01*
X1060000Y3279492D01*
X1058984Y3278984D01*
X1037968Y3237968D02*
X1038984Y3240000D01*
X1037968Y3242032D01*
X1040000Y3241016D01*
X1042032Y3242032D01*
X1041016Y3240000D01*
X1042032Y3237968D01*
X1040000Y3238984D01*
X1037968Y3237968D01*
X1038984Y3238984D02*
X1039492Y3240000D01*
X1038984Y3241016D01*
X1040000Y3240508D01*
X1041016Y3241016D01*
X1040508Y3240000D01*
X1041016Y3238984D01*
X1040000Y3239492D01*
X1038984Y3238984D01*
X1057968Y3197968D02*
X1058984Y3200000D01*
X1057968Y3202032D01*
X1060000Y3201016D01*
X1062032Y3202032D01*
X1061016Y3200000D01*
X1062032Y3197968D01*
X1060000Y3198984D01*
X1057968Y3197968D01*
X1058984Y3198984D02*
X1059492Y3200000D01*
X1058984Y3201016D01*
X1060000Y3200508D01*
X1061016Y3201016D01*
X1060508Y3200000D01*
X1061016Y3198984D01*
X1060000Y3199492D01*
X1058984Y3198984D01*
X1017968Y3197968D02*
X1018984Y3200000D01*
X1017968Y3202032D01*
X1020000Y3201016D01*
X1022032Y3202032D01*
X1021016Y3200000D01*
X1022032Y3197968D01*
X1020000Y3198984D01*
X1017968Y3197968D01*
X1018984Y3198984D02*
X1019492Y3200000D01*
X1018984Y3201016D01*
X1020000Y3200508D01*
X1021016Y3201016D01*
X1020508Y3200000D01*
X1021016Y3198984D01*
X1020000Y3199492D01*
X1018984Y3198984D01*
X937968Y3437968D02*
X938984Y3440000D01*
X937968Y3442032D01*
X940000Y3441016D01*
X942032Y3442032D01*
X941016Y3440000D01*
X942032Y3437968D01*
X940000Y3438984D01*
X937968Y3437968D01*
X938984Y3438984D02*
X939492Y3440000D01*
X938984Y3441016D01*
X940000Y3440508D01*
X941016Y3441016D01*
X940508Y3440000D01*
X941016Y3438984D01*
X940000Y3439492D01*
X938984Y3438984D01*
X937968Y3197968D02*
X938984Y3200000D01*
X937968Y3202032D01*
X940000Y3201016D01*
X942032Y3202032D01*
X941016Y3200000D01*
X942032Y3197968D01*
X940000Y3198984D01*
X937968Y3197968D01*
X938984Y3198984D02*
X939492Y3200000D01*
X938984Y3201016D01*
X940000Y3200508D01*
X941016Y3201016D01*
X940508Y3200000D01*
X941016Y3198984D01*
X940000Y3199492D01*
X938984Y3198984D01*
X897968Y3197968D02*
X898984Y3200000D01*
X897968Y3202032D01*
X900000Y3201016D01*
X902032Y3202032D01*
X901016Y3200000D01*
X902032Y3197968D01*
X900000Y3198984D01*
X897968Y3197968D01*
X898984Y3198984D02*
X899492Y3200000D01*
X898984Y3201016D01*
X900000Y3200508D01*
X901016Y3201016D01*
X900508Y3200000D01*
X901016Y3198984D01*
X900000Y3199492D01*
X898984Y3198984D01*
X857968Y3437968D02*
X858984Y3440000D01*
X857968Y3442032D01*
X860000Y3441016D01*
X862032Y3442032D01*
X861016Y3440000D01*
X862032Y3437968D01*
X860000Y3438984D01*
X857968Y3437968D01*
X858984Y3438984D02*
X859492Y3440000D01*
X858984Y3441016D01*
X860000Y3440508D01*
X861016Y3441016D01*
X860508Y3440000D01*
X861016Y3438984D01*
X860000Y3439492D01*
X858984Y3438984D01*
X857968Y3357968D02*
X858984Y3360000D01*
X857968Y3362032D01*
X860000Y3361016D01*
X862032Y3362032D01*
X861016Y3360000D01*
X862032Y3357968D01*
X860000Y3358984D01*
X857968Y3357968D01*
X858984Y3358984D02*
X859492Y3360000D01*
X858984Y3361016D01*
X860000Y3360508D01*
X861016Y3361016D01*
X860508Y3360000D01*
X861016Y3358984D01*
X860000Y3359492D01*
X858984Y3358984D01*
X857968Y3197968D02*
X858984Y3200000D01*
X857968Y3202032D01*
X860000Y3201016D01*
X862032Y3202032D01*
X861016Y3200000D01*
X862032Y3197968D01*
X860000Y3198984D01*
X857968Y3197968D01*
X858984Y3198984D02*
X859492Y3200000D01*
X858984Y3201016D01*
X860000Y3200508D01*
X861016Y3201016D01*
X860508Y3200000D01*
X861016Y3198984D01*
X860000Y3199492D01*
X858984Y3198984D01*
X797968Y3557968D02*
X798984Y3560000D01*
X797968Y3562032D01*
X800000Y3561016D01*
X802032Y3562032D01*
X801016Y3560000D01*
X802032Y3557968D01*
X800000Y3558984D01*
X797968Y3557968D01*
X798984Y3558984D02*
X799492Y3560000D01*
X798984Y3561016D01*
X800000Y3560508D01*
X801016Y3561016D01*
X800508Y3560000D01*
X801016Y3558984D01*
X800000Y3559492D01*
X798984Y3558984D01*
X817968Y3277968D02*
X818984Y3280000D01*
X817968Y3282032D01*
X820000Y3281016D01*
X822032Y3282032D01*
X821016Y3280000D01*
X822032Y3277968D01*
X820000Y3278984D01*
X817968Y3277968D01*
X818984Y3278984D02*
X819492Y3280000D01*
X818984Y3281016D01*
X820000Y3280508D01*
X821016Y3281016D01*
X820508Y3280000D01*
X821016Y3278984D01*
X820000Y3279492D01*
X818984Y3278984D01*
X777968Y3197968D02*
X778984Y3200000D01*
X777968Y3202032D01*
X780000Y3201016D01*
X782032Y3202032D01*
X781016Y3200000D01*
X782032Y3197968D01*
X780000Y3198984D01*
X777968Y3197968D01*
X778984Y3198984D02*
X779492Y3200000D01*
X778984Y3201016D01*
X780000Y3200508D01*
X781016Y3201016D01*
X780508Y3200000D01*
X781016Y3198984D01*
X780000Y3199492D01*
X778984Y3198984D01*
X737968Y3197968D02*
X738984Y3200000D01*
X737968Y3202032D01*
X740000Y3201016D01*
X742032Y3202032D01*
X741016Y3200000D01*
X742032Y3197968D01*
X740000Y3198984D01*
X737968Y3197968D01*
X738984Y3198984D02*
X739492Y3200000D01*
X738984Y3201016D01*
X740000Y3200508D01*
X741016Y3201016D01*
X740508Y3200000D01*
X741016Y3198984D01*
X740000Y3199492D01*
X738984Y3198984D01*
X697968Y3517968D02*
X698984Y3520000D01*
X697968Y3522032D01*
X700000Y3521016D01*
X702032Y3522032D01*
X701016Y3520000D01*
X702032Y3517968D01*
X700000Y3518984D01*
X697968Y3517968D01*
X698984Y3518984D02*
X699492Y3520000D01*
X698984Y3521016D01*
X700000Y3520508D01*
X701016Y3521016D01*
X700508Y3520000D01*
X701016Y3518984D01*
X700000Y3519492D01*
X698984Y3518984D01*
X697968Y3197968D02*
X698984Y3200000D01*
X697968Y3202032D01*
X700000Y3201016D01*
X702032Y3202032D01*
X701016Y3200000D01*
X702032Y3197968D01*
X700000Y3198984D01*
X697968Y3197968D01*
X698984Y3198984D02*
X699492Y3200000D01*
X698984Y3201016D01*
X700000Y3200508D01*
X701016Y3201016D01*
X700508Y3200000D01*
X701016Y3198984D01*
X700000Y3199492D01*
X698984Y3198984D01*
X657968Y3517968D02*
X658984Y3520000D01*
X657968Y3522032D01*
X660000Y3521016D01*
X662032Y3522032D01*
X661016Y3520000D01*
X662032Y3517968D01*
X660000Y3518984D01*
X657968Y3517968D01*
X658984Y3518984D02*
X659492Y3520000D01*
X658984Y3521016D01*
X660000Y3520508D01*
X661016Y3521016D01*
X660508Y3520000D01*
X661016Y3518984D01*
X660000Y3519492D01*
X658984Y3518984D01*
X637968Y3477968D02*
X638984Y3480000D01*
X637968Y3482032D01*
X640000Y3481016D01*
X642032Y3482032D01*
X641016Y3480000D01*
X642032Y3477968D01*
X640000Y3478984D01*
X637968Y3477968D01*
X638984Y3478984D02*
X639492Y3480000D01*
X638984Y3481016D01*
X640000Y3480508D01*
X641016Y3481016D01*
X640508Y3480000D01*
X641016Y3478984D01*
X640000Y3479492D01*
X638984Y3478984D01*
X657968Y3357968D02*
X658984Y3360000D01*
X657968Y3362032D01*
X660000Y3361016D01*
X662032Y3362032D01*
X661016Y3360000D01*
X662032Y3357968D01*
X660000Y3358984D01*
X657968Y3357968D01*
X658984Y3358984D02*
X659492Y3360000D01*
X658984Y3361016D01*
X660000Y3360508D01*
X661016Y3361016D01*
X660508Y3360000D01*
X661016Y3358984D01*
X660000Y3359492D01*
X658984Y3358984D01*
X597968Y3477968D02*
X598984Y3480000D01*
X597968Y3482032D01*
X600000Y3481016D01*
X602032Y3482032D01*
X601016Y3480000D01*
X602032Y3477968D01*
X600000Y3478984D01*
X597968Y3477968D01*
X598984Y3478984D02*
X599492Y3480000D01*
X598984Y3481016D01*
X600000Y3480508D01*
X601016Y3481016D01*
X600508Y3480000D01*
X601016Y3478984D01*
X600000Y3479492D01*
X598984Y3478984D01*
X617968Y3437968D02*
X618984Y3440000D01*
X617968Y3442032D01*
X620000Y3441016D01*
X622032Y3442032D01*
X621016Y3440000D01*
X622032Y3437968D01*
X620000Y3438984D01*
X617968Y3437968D01*
X618984Y3438984D02*
X619492Y3440000D01*
X618984Y3441016D01*
X620000Y3440508D01*
X621016Y3441016D01*
X620508Y3440000D01*
X621016Y3438984D01*
X620000Y3439492D01*
X618984Y3438984D01*
X577968Y3197968D02*
X578984Y3200000D01*
X577968Y3202032D01*
X580000Y3201016D01*
X582032Y3202032D01*
X581016Y3200000D01*
X582032Y3197968D01*
X580000Y3198984D01*
X577968Y3197968D01*
X578984Y3198984D02*
X579492Y3200000D01*
X578984Y3201016D01*
X580000Y3200508D01*
X581016Y3201016D01*
X580508Y3200000D01*
X581016Y3198984D01*
X580000Y3199492D01*
X578984Y3198984D01*
X537968Y3357968D02*
X538984Y3360000D01*
X537968Y3362032D01*
X540000Y3361016D01*
X542032Y3362032D01*
X541016Y3360000D01*
X542032Y3357968D01*
X540000Y3358984D01*
X537968Y3357968D01*
X538984Y3358984D02*
X539492Y3360000D01*
X538984Y3361016D01*
X540000Y3360508D01*
X541016Y3361016D01*
X540508Y3360000D01*
X541016Y3358984D01*
X540000Y3359492D01*
X538984Y3358984D01*
X477968Y3397968D02*
X478984Y3400000D01*
X477968Y3402032D01*
X480000Y3401016D01*
X482032Y3402032D01*
X481016Y3400000D01*
X482032Y3397968D01*
X480000Y3398984D01*
X477968Y3397968D01*
X478984Y3398984D02*
X479492Y3400000D01*
X478984Y3401016D01*
X480000Y3400508D01*
X481016Y3401016D01*
X480508Y3400000D01*
X481016Y3398984D01*
X480000Y3399492D01*
X478984Y3398984D01*
X497968Y3357968D02*
X498984Y3360000D01*
X497968Y3362032D01*
X500000Y3361016D01*
X502032Y3362032D01*
X501016Y3360000D01*
X502032Y3357968D01*
X500000Y3358984D01*
X497968Y3357968D01*
X498984Y3358984D02*
X499492Y3360000D01*
X498984Y3361016D01*
X500000Y3360508D01*
X501016Y3361016D01*
X500508Y3360000D01*
X501016Y3358984D01*
X500000Y3359492D01*
X498984Y3358984D01*
X477968Y3317968D02*
X478984Y3320000D01*
X477968Y3322032D01*
X480000Y3321016D01*
X482032Y3322032D01*
X481016Y3320000D01*
X482032Y3317968D01*
X480000Y3318984D01*
X477968Y3317968D01*
X478984Y3318984D02*
X479492Y3320000D01*
X478984Y3321016D01*
X480000Y3320508D01*
X481016Y3321016D01*
X480508Y3320000D01*
X481016Y3318984D01*
X480000Y3319492D01*
X478984Y3318984D01*
X437968Y3477968D02*
X438984Y3480000D01*
X437968Y3482032D01*
X440000Y3481016D01*
X442032Y3482032D01*
X441016Y3480000D01*
X442032Y3477968D01*
X440000Y3478984D01*
X437968Y3477968D01*
X438984Y3478984D02*
X439492Y3480000D01*
X438984Y3481016D01*
X440000Y3480508D01*
X441016Y3481016D01*
X440508Y3480000D01*
X441016Y3478984D01*
X440000Y3479492D01*
X438984Y3478984D01*
X437968Y3397968D02*
X438984Y3400000D01*
X437968Y3402032D01*
X440000Y3401016D01*
X442032Y3402032D01*
X441016Y3400000D01*
X442032Y3397968D01*
X440000Y3398984D01*
X437968Y3397968D01*
X438984Y3398984D02*
X439492Y3400000D01*
X438984Y3401016D01*
X440000Y3400508D01*
X441016Y3401016D01*
X440508Y3400000D01*
X441016Y3398984D01*
X440000Y3399492D01*
X438984Y3398984D01*
X457968Y3357968D02*
X458984Y3360000D01*
X457968Y3362032D01*
X460000Y3361016D01*
X462032Y3362032D01*
X461016Y3360000D01*
X462032Y3357968D01*
X460000Y3358984D01*
X457968Y3357968D01*
X458984Y3358984D02*
X459492Y3360000D01*
X458984Y3361016D01*
X460000Y3360508D01*
X461016Y3361016D01*
X460508Y3360000D01*
X461016Y3358984D01*
X460000Y3359492D01*
X458984Y3358984D01*
X437968Y3317968D02*
X438984Y3320000D01*
X437968Y3322032D01*
X440000Y3321016D01*
X442032Y3322032D01*
X441016Y3320000D01*
X442032Y3317968D01*
X440000Y3318984D01*
X437968Y3317968D01*
X438984Y3318984D02*
X439492Y3320000D01*
X438984Y3321016D01*
X440000Y3320508D01*
X441016Y3321016D01*
X440508Y3320000D01*
X441016Y3318984D01*
X440000Y3319492D01*
X438984Y3318984D01*
X437968Y3157968D02*
X438984Y3160000D01*
X437968Y3162032D01*
X440000Y3161016D01*
X442032Y3162032D01*
X441016Y3160000D01*
X442032Y3157968D01*
X440000Y3158984D01*
X437968Y3157968D01*
X438984Y3158984D02*
X439492Y3160000D01*
X438984Y3161016D01*
X440000Y3160508D01*
X441016Y3161016D01*
X440508Y3160000D01*
X441016Y3158984D01*
X440000Y3159492D01*
X438984Y3158984D01*
X397968Y3557968D02*
X398984Y3560000D01*
X397968Y3562032D01*
X400000Y3561016D01*
X402032Y3562032D01*
X401016Y3560000D01*
X402032Y3557968D01*
X400000Y3558984D01*
X397968Y3557968D01*
X398984Y3558984D02*
X399492Y3560000D01*
X398984Y3561016D01*
X400000Y3560508D01*
X401016Y3561016D01*
X400508Y3560000D01*
X401016Y3558984D01*
X400000Y3559492D01*
X398984Y3558984D01*
X417968Y3517968D02*
X418984Y3520000D01*
X417968Y3522032D01*
X420000Y3521016D01*
X422032Y3522032D01*
X421016Y3520000D01*
X422032Y3517968D01*
X420000Y3518984D01*
X417968Y3517968D01*
X418984Y3518984D02*
X419492Y3520000D01*
X418984Y3521016D01*
X420000Y3520508D01*
X421016Y3521016D01*
X420508Y3520000D01*
X421016Y3518984D01*
X420000Y3519492D01*
X418984Y3518984D01*
X397968Y3477968D02*
X398984Y3480000D01*
X397968Y3482032D01*
X400000Y3481016D01*
X402032Y3482032D01*
X401016Y3480000D01*
X402032Y3477968D01*
X400000Y3478984D01*
X397968Y3477968D01*
X398984Y3478984D02*
X399492Y3480000D01*
X398984Y3481016D01*
X400000Y3480508D01*
X401016Y3481016D01*
X400508Y3480000D01*
X401016Y3478984D01*
X400000Y3479492D01*
X398984Y3478984D01*
X417968Y3437968D02*
X418984Y3440000D01*
X417968Y3442032D01*
X420000Y3441016D01*
X422032Y3442032D01*
X421016Y3440000D01*
X422032Y3437968D01*
X420000Y3438984D01*
X417968Y3437968D01*
X418984Y3438984D02*
X419492Y3440000D01*
X418984Y3441016D01*
X420000Y3440508D01*
X421016Y3441016D01*
X420508Y3440000D01*
X421016Y3438984D01*
X420000Y3439492D01*
X418984Y3438984D01*
X397968Y3397968D02*
X398984Y3400000D01*
X397968Y3402032D01*
X400000Y3401016D01*
X402032Y3402032D01*
X401016Y3400000D01*
X402032Y3397968D01*
X400000Y3398984D01*
X397968Y3397968D01*
X398984Y3398984D02*
X399492Y3400000D01*
X398984Y3401016D01*
X400000Y3400508D01*
X401016Y3401016D01*
X400508Y3400000D01*
X401016Y3398984D01*
X400000Y3399492D01*
X398984Y3398984D01*
X417968Y3357968D02*
X418984Y3360000D01*
X417968Y3362032D01*
X420000Y3361016D01*
X422032Y3362032D01*
X421016Y3360000D01*
X422032Y3357968D01*
X420000Y3358984D01*
X417968Y3357968D01*
X418984Y3358984D02*
X419492Y3360000D01*
X418984Y3361016D01*
X420000Y3360508D01*
X421016Y3361016D01*
X420508Y3360000D01*
X421016Y3358984D01*
X420000Y3359492D01*
X418984Y3358984D01*
X397968Y3317968D02*
X398984Y3320000D01*
X397968Y3322032D01*
X400000Y3321016D01*
X402032Y3322032D01*
X401016Y3320000D01*
X402032Y3317968D01*
X400000Y3318984D01*
X397968Y3317968D01*
X398984Y3318984D02*
X399492Y3320000D01*
X398984Y3321016D01*
X400000Y3320508D01*
X401016Y3321016D01*
X400508Y3320000D01*
X401016Y3318984D01*
X400000Y3319492D01*
X398984Y3318984D01*
X397968Y3237968D02*
X398984Y3240000D01*
X397968Y3242032D01*
X400000Y3241016D01*
X402032Y3242032D01*
X401016Y3240000D01*
X402032Y3237968D01*
X400000Y3238984D01*
X397968Y3237968D01*
X398984Y3238984D02*
X399492Y3240000D01*
X398984Y3241016D01*
X400000Y3240508D01*
X401016Y3241016D01*
X400508Y3240000D01*
X401016Y3238984D01*
X400000Y3239492D01*
X398984Y3238984D01*
X397968Y3157968D02*
X398984Y3160000D01*
X397968Y3162032D01*
X400000Y3161016D01*
X402032Y3162032D01*
X401016Y3160000D01*
X402032Y3157968D01*
X400000Y3158984D01*
X397968Y3157968D01*
X398984Y3158984D02*
X399492Y3160000D01*
X398984Y3161016D01*
X400000Y3160508D01*
X401016Y3161016D01*
X400508Y3160000D01*
X401016Y3158984D01*
X400000Y3159492D01*
X398984Y3158984D01*
X723811Y3266868D02*
X724827Y3268900D01*
X723811Y3270932D01*
X725844Y3269916D01*
X727876Y3270932D01*
X726860Y3268900D01*
X727876Y3266868D01*
X725844Y3267884D01*
X723811Y3266868D01*
X724827Y3267884D02*
X725335Y3268900D01*
X724827Y3269916D01*
X725844Y3269408D01*
X726860Y3269916D01*
X726351Y3268900D01*
X726860Y3267884D01*
X725844Y3268392D01*
X724827Y3267884D01*
X796125Y3265598D02*
X797141Y3267630D01*
X796125Y3269662D01*
X798157Y3268646D01*
X800189Y3269662D01*
X799173Y3267630D01*
X800189Y3265598D01*
X798157Y3266614D01*
X796125Y3265598D01*
X797141Y3266614D02*
X797649Y3267630D01*
X797141Y3268646D01*
X798157Y3268138D01*
X799173Y3268646D01*
X798665Y3267630D01*
X799173Y3266614D01*
X798157Y3267122D01*
X797141Y3266614D01*
X692578Y3295562D02*
X693594Y3297593D01*
X692578Y3299626D01*
X694610Y3298610D01*
X696642Y3299626D01*
X695626Y3297593D01*
X696642Y3295562D01*
X694610Y3296577D01*
X692578Y3295562D01*
X693594Y3296577D02*
X694102Y3297593D01*
X693594Y3298610D01*
X694610Y3298102D01*
X695626Y3298610D01*
X695118Y3297593D01*
X695626Y3296577D01*
X694610Y3297086D01*
X693594Y3296577D01*
X679659Y3262853D02*
X680675Y3264885D01*
X679659Y3266917D01*
X681691Y3265901D01*
X683723Y3266917D01*
X682707Y3264885D01*
X683723Y3262853D01*
X681691Y3263869D01*
X679659Y3262853D01*
X680675Y3263869D02*
X681183Y3264885D01*
X680675Y3265901D01*
X681691Y3265393D01*
X682707Y3265901D01*
X682199Y3264885D01*
X682707Y3263869D01*
X681691Y3264377D01*
X680675Y3263869D01*
X710438Y3280918D02*
X711454Y3282950D01*
X710438Y3284982D01*
X712470Y3283966D01*
X714502Y3284982D01*
X713486Y3282950D01*
X714502Y3280918D01*
X712470Y3281934D01*
X710438Y3280918D01*
X711454Y3281934D02*
X711962Y3282950D01*
X711454Y3283966D01*
X712470Y3283458D01*
X713486Y3283966D01*
X712978Y3282950D01*
X713486Y3281934D01*
X712470Y3282442D01*
X711454Y3281934D01*
X751078Y3265678D02*
X752094Y3267710D01*
X751078Y3269742D01*
X753110Y3268726D01*
X755142Y3269742D01*
X754126Y3267710D01*
X755142Y3265678D01*
X753110Y3266694D01*
X751078Y3265678D01*
X752094Y3266694D02*
X752602Y3267710D01*
X752094Y3268726D01*
X753110Y3268218D01*
X754126Y3268726D01*
X753618Y3267710D01*
X754126Y3266694D01*
X753110Y3267202D01*
X752094Y3266694D01*
X776578Y3265598D02*
X777594Y3267630D01*
X776578Y3269662D01*
X778610Y3268646D01*
X780642Y3269662D01*
X779626Y3267630D01*
X780642Y3265598D01*
X778610Y3266614D01*
X776578Y3265598D01*
X777594Y3266614D02*
X778102Y3267630D01*
X777594Y3268646D01*
X778610Y3268138D01*
X779626Y3268646D01*
X779118Y3267630D01*
X779626Y3266614D01*
X778610Y3267122D01*
X777594Y3266614D01*
X785882Y3228753D02*
X786898Y3230785D01*
X785882Y3232817D01*
X787914Y3231801D01*
X789946Y3232817D01*
X788930Y3230785D01*
X789946Y3228753D01*
X787914Y3229769D01*
X785882Y3228753D01*
X786898Y3229769D02*
X787406Y3230785D01*
X786898Y3231801D01*
X787914Y3231293D01*
X788930Y3231801D01*
X788422Y3230785D01*
X788930Y3229769D01*
X787914Y3230277D01*
X786898Y3229769D01*
X765682Y3228753D02*
X766698Y3230785D01*
X765682Y3232817D01*
X767714Y3231801D01*
X769746Y3232817D01*
X768730Y3230785D01*
X769746Y3228753D01*
X767714Y3229769D01*
X765682Y3228753D01*
X766698Y3229769D02*
X767206Y3230785D01*
X766698Y3231801D01*
X767714Y3231293D01*
X768730Y3231801D01*
X768222Y3230785D01*
X768730Y3229769D01*
X767714Y3230277D01*
X766698Y3229769D01*
X745482Y3228753D02*
X746498Y3230785D01*
X745482Y3232817D01*
X747514Y3231801D01*
X749546Y3232817D01*
X748530Y3230785D01*
X749546Y3228753D01*
X747514Y3229769D01*
X745482Y3228753D01*
X746498Y3229769D02*
X747006Y3230785D01*
X746498Y3231801D01*
X747514Y3231293D01*
X748530Y3231801D01*
X748022Y3230785D01*
X748530Y3229769D01*
X747514Y3230277D01*
X746498Y3229769D01*
X806082Y3228753D02*
X807098Y3230785D01*
X806082Y3232817D01*
X808114Y3231801D01*
X810146Y3232817D01*
X809130Y3230785D01*
X810146Y3228753D01*
X808114Y3229769D01*
X806082Y3228753D01*
X807098Y3229769D02*
X807606Y3230785D01*
X807098Y3231801D01*
X808114Y3231293D01*
X809130Y3231801D01*
X808622Y3230785D01*
X809130Y3229769D01*
X808114Y3230277D01*
X807098Y3229769D01*
X811460Y3467870D02*
X812476Y3469902D01*
X811460Y3471934D01*
X813492Y3470918D01*
X815524Y3471934D01*
X814508Y3469902D01*
X815524Y3467870D01*
X813492Y3468886D01*
X811460Y3467870D01*
X812476Y3468886D02*
X812984Y3469902D01*
X812476Y3470918D01*
X813492Y3470410D01*
X814508Y3470918D01*
X814000Y3469902D01*
X814508Y3468886D01*
X813492Y3469394D01*
X812476Y3468886D01*
X803053Y3429302D02*
X804069Y3431335D01*
X803053Y3433366D01*
X805085Y3432350D01*
X807117Y3433366D01*
X806101Y3431335D01*
X807117Y3429302D01*
X805085Y3430319D01*
X803053Y3429302D01*
X804069Y3430319D02*
X804577Y3431335D01*
X804069Y3432350D01*
X805085Y3431843D01*
X806101Y3432350D01*
X805593Y3431335D01*
X806101Y3430319D01*
X805085Y3430826D01*
X804069Y3430319D01*
X803053Y3409102D02*
X804069Y3411135D01*
X803053Y3413167D01*
X805085Y3412151D01*
X807117Y3413167D01*
X806101Y3411135D01*
X807117Y3409102D01*
X805085Y3410118D01*
X803053Y3409102D01*
X804069Y3410118D02*
X804577Y3411135D01*
X804069Y3412151D01*
X805085Y3411642D01*
X806101Y3412151D01*
X805593Y3411135D01*
X806101Y3410118D01*
X805085Y3410627D01*
X804069Y3410118D01*
X803053Y3368702D02*
X804069Y3370734D01*
X803053Y3372766D01*
X805085Y3371750D01*
X807117Y3372766D01*
X806101Y3370734D01*
X807117Y3368702D01*
X805085Y3369718D01*
X803053Y3368702D01*
X804069Y3369718D02*
X804577Y3370734D01*
X804069Y3371750D01*
X805085Y3371242D01*
X806101Y3371750D01*
X805593Y3370734D01*
X806101Y3369718D01*
X805085Y3370226D01*
X804069Y3369718D01*
X803053Y3348503D02*
X804069Y3350534D01*
X803053Y3352567D01*
X805085Y3351550D01*
X807117Y3352567D01*
X806101Y3350534D01*
X807117Y3348503D01*
X805085Y3349518D01*
X803053Y3348503D01*
X804069Y3349518D02*
X804577Y3350534D01*
X804069Y3351550D01*
X805085Y3351042D01*
X806101Y3351550D01*
X805593Y3350534D01*
X806101Y3349518D01*
X805085Y3350027D01*
X804069Y3349518D01*
X803053Y3328302D02*
X804069Y3330334D01*
X803053Y3332366D01*
X805085Y3331350D01*
X807117Y3332366D01*
X806101Y3330334D01*
X807117Y3328302D01*
X805085Y3329319D01*
X803053Y3328302D01*
X804069Y3329319D02*
X804577Y3330334D01*
X804069Y3331350D01*
X805085Y3330842D01*
X806101Y3331350D01*
X805593Y3330334D01*
X806101Y3329319D01*
X805085Y3329826D01*
X804069Y3329319D01*
X788756Y3314033D02*
X789772Y3316065D01*
X788756Y3318097D01*
X790788Y3317081D01*
X792820Y3318097D01*
X791804Y3316065D01*
X792820Y3314033D01*
X790788Y3315049D01*
X788756Y3314033D01*
X789772Y3315049D02*
X790280Y3316065D01*
X789772Y3317081D01*
X790788Y3316573D01*
X791804Y3317081D01*
X791296Y3316065D01*
X791804Y3315049D01*
X790788Y3315557D01*
X789772Y3315049D01*
X768556Y3314033D02*
X769572Y3316065D01*
X768556Y3318097D01*
X770588Y3317081D01*
X772620Y3318097D01*
X771604Y3316065D01*
X772620Y3314033D01*
X770588Y3315049D01*
X768556Y3314033D01*
X769572Y3315049D02*
X770080Y3316065D01*
X769572Y3317081D01*
X770588Y3316573D01*
X771604Y3317081D01*
X771096Y3316065D01*
X771604Y3315049D01*
X770588Y3315557D01*
X769572Y3315049D01*
X748356Y3314033D02*
X749372Y3316065D01*
X748356Y3318097D01*
X750388Y3317081D01*
X752420Y3318097D01*
X751404Y3316065D01*
X752420Y3314033D01*
X750388Y3315049D01*
X748356Y3314033D01*
X749372Y3315049D02*
X749880Y3316065D01*
X749372Y3317081D01*
X750388Y3316573D01*
X751404Y3317081D01*
X750896Y3316065D01*
X751404Y3315049D01*
X750388Y3315557D01*
X749372Y3315049D01*
X728992Y3319785D02*
X730008Y3321817D01*
X728992Y3323849D01*
X731024Y3322833D01*
X733056Y3323849D01*
X732040Y3321817D01*
X733056Y3319785D01*
X731024Y3320801D01*
X728992Y3319785D01*
X730008Y3320801D02*
X730516Y3321817D01*
X730008Y3322833D01*
X731024Y3322325D01*
X732040Y3322833D01*
X731532Y3321817D01*
X732040Y3320801D01*
X731024Y3321309D01*
X730008Y3320801D01*
X733345Y3339510D02*
X734361Y3341542D01*
X733345Y3343575D01*
X735377Y3342558D01*
X737409Y3343575D01*
X736393Y3341542D01*
X737409Y3339510D01*
X735377Y3340526D01*
X733345Y3339510D01*
X734361Y3340526D02*
X734869Y3341542D01*
X734361Y3342558D01*
X735377Y3342050D01*
X736393Y3342558D01*
X735885Y3341542D01*
X736393Y3340526D01*
X735377Y3341035D01*
X734361Y3340526D01*
X725794Y3358246D02*
X726809Y3360278D01*
X725794Y3362310D01*
X727825Y3361294D01*
X729857Y3362310D01*
X728841Y3360278D01*
X729857Y3358246D01*
X727825Y3359262D01*
X725794Y3358246D01*
X726809Y3359262D02*
X727318Y3360278D01*
X726809Y3361294D01*
X727825Y3360786D01*
X728841Y3361294D01*
X728334Y3360278D01*
X728841Y3359262D01*
X727825Y3359770D01*
X726809Y3359262D01*
X705594Y3358432D02*
X706610Y3360464D01*
X705594Y3362496D01*
X707626Y3361480D01*
X709658Y3362496D01*
X708642Y3360464D01*
X709658Y3358432D01*
X707626Y3359448D01*
X705594Y3358432D01*
X706610Y3359448D02*
X707118Y3360464D01*
X706610Y3361480D01*
X707626Y3360972D01*
X708642Y3361480D01*
X708134Y3360464D01*
X708642Y3359448D01*
X707626Y3359956D01*
X706610Y3359448D01*
X696412Y3340439D02*
X697428Y3342472D01*
X696412Y3344503D01*
X698444Y3343488D01*
X700476Y3344503D01*
X699460Y3342472D01*
X700476Y3340439D01*
X698444Y3341456D01*
X696412Y3340439D01*
X697428Y3341456D02*
X697936Y3342472D01*
X697428Y3343488D01*
X698444Y3342980D01*
X699460Y3343488D01*
X698952Y3342472D01*
X699460Y3341456D01*
X698444Y3341964D01*
X697428Y3341456D01*
X700668Y3320693D02*
X701684Y3322725D01*
X700668Y3324757D01*
X702700Y3323741D01*
X704732Y3324757D01*
X703716Y3322725D01*
X704732Y3320693D01*
X702700Y3321709D01*
X700668Y3320693D01*
X701684Y3321709D02*
X702192Y3322725D01*
X701684Y3323741D01*
X702700Y3323233D01*
X703716Y3323741D01*
X703208Y3322725D01*
X703716Y3321709D01*
X702700Y3322217D01*
X701684Y3321709D01*
X741709Y3285903D02*
X742725Y3287935D01*
X741709Y3289967D01*
X743741Y3288951D01*
X745773Y3289967D01*
X744757Y3287935D01*
X745773Y3285903D01*
X743741Y3286919D01*
X741709Y3285903D01*
X742725Y3286919D02*
X743233Y3287935D01*
X742725Y3288951D01*
X743741Y3288443D01*
X744757Y3288951D01*
X744249Y3287935D01*
X744757Y3286919D01*
X743741Y3287427D01*
X742725Y3286919D01*
X761909Y3285903D02*
X762925Y3287935D01*
X761909Y3289967D01*
X763941Y3288951D01*
X765973Y3289967D01*
X764957Y3287935D01*
X765973Y3285903D01*
X763941Y3286919D01*
X761909Y3285903D01*
X762925Y3286919D02*
X763433Y3287935D01*
X762925Y3288951D01*
X763941Y3288443D01*
X764957Y3288951D01*
X764449Y3287935D01*
X764957Y3286919D01*
X763941Y3287427D01*
X762925Y3286919D01*
X782109Y3285903D02*
X783125Y3287935D01*
X782109Y3289967D01*
X784141Y3288951D01*
X786173Y3289967D01*
X785157Y3287935D01*
X786173Y3285903D01*
X784141Y3286919D01*
X782109Y3285903D01*
X783125Y3286919D02*
X783633Y3287935D01*
X783125Y3288951D01*
X784141Y3288443D01*
X785157Y3288951D01*
X784649Y3287935D01*
X785157Y3286919D01*
X784141Y3287427D01*
X783125Y3286919D01*
X802309Y3285903D02*
X803325Y3287935D01*
X802309Y3289967D01*
X804341Y3288951D01*
X806373Y3289967D01*
X805357Y3287935D01*
X806373Y3285903D01*
X804341Y3286919D01*
X802309Y3285903D01*
X803325Y3286919D02*
X803833Y3287935D01*
X803325Y3288951D01*
X804341Y3288443D01*
X805357Y3288951D01*
X804849Y3287935D01*
X805357Y3286919D01*
X804341Y3287427D01*
X803325Y3286919D01*
X820835Y3293955D02*
X821851Y3295987D01*
X820835Y3298019D01*
X822867Y3297003D01*
X824899Y3298019D01*
X823883Y3295987D01*
X824899Y3293955D01*
X822867Y3294971D01*
X820835Y3293955D01*
X821851Y3294971D02*
X822359Y3295987D01*
X821851Y3297003D01*
X822867Y3296495D01*
X823883Y3297003D01*
X823375Y3295987D01*
X823883Y3294971D01*
X822867Y3295479D01*
X821851Y3294971D01*
X831183Y3412303D02*
X832199Y3414336D01*
X831183Y3416367D01*
X833215Y3415352D01*
X835247Y3416367D01*
X834231Y3414336D01*
X835247Y3412303D01*
X833215Y3413319D01*
X831183Y3412303D01*
X832199Y3413319D02*
X832707Y3414336D01*
X832199Y3415352D01*
X833215Y3414843D01*
X834231Y3415352D01*
X833723Y3414336D01*
X834231Y3413319D01*
X833215Y3413828D01*
X832199Y3413319D01*
X831183Y3432503D02*
X832199Y3434536D01*
X831183Y3436567D01*
X833215Y3435551D01*
X835247Y3436567D01*
X834231Y3434536D01*
X835247Y3432503D01*
X833215Y3433520D01*
X831183Y3432503D01*
X832199Y3433520D02*
X832707Y3434536D01*
X832199Y3435551D01*
X833215Y3435044D01*
X834231Y3435551D01*
X833723Y3434536D01*
X834231Y3433520D01*
X833215Y3434027D01*
X832199Y3433520D01*
X835588Y3452217D02*
X836604Y3454249D01*
X835588Y3456281D01*
X837620Y3455265D01*
X839652Y3456281D01*
X838636Y3454249D01*
X839652Y3452217D01*
X837620Y3453233D01*
X835588Y3452217D01*
X836604Y3453233D02*
X837112Y3454249D01*
X836604Y3455265D01*
X837620Y3454757D01*
X838636Y3455265D01*
X838128Y3454249D01*
X838636Y3453233D01*
X837620Y3453741D01*
X836604Y3453233D01*
X849871Y3466501D02*
X850887Y3468533D01*
X849871Y3470565D01*
X851903Y3469549D01*
X853935Y3470565D01*
X852919Y3468533D01*
X853935Y3466501D01*
X851903Y3467517D01*
X849871Y3466501D01*
X850887Y3467517D02*
X851395Y3468533D01*
X850887Y3469549D01*
X851903Y3469041D01*
X852919Y3469549D01*
X852411Y3468533D01*
X852919Y3467517D01*
X851903Y3468025D01*
X850887Y3467517D01*
X864155Y3480785D02*
X865171Y3482816D01*
X864155Y3484849D01*
X866187Y3483832D01*
X868219Y3484849D01*
X867203Y3482816D01*
X868219Y3480785D01*
X866187Y3481801D01*
X864155Y3480785D01*
X865171Y3481801D02*
X865679Y3482816D01*
X865171Y3483832D01*
X866187Y3483325D01*
X867203Y3483832D01*
X866695Y3482816D01*
X867203Y3481801D01*
X866187Y3482308D01*
X865171Y3481801D01*
X991173Y3486251D02*
X992189Y3488283D01*
X991173Y3490315D01*
X993205Y3489299D01*
X995237Y3490315D01*
X994221Y3488283D01*
X995237Y3486251D01*
X993205Y3487267D01*
X991173Y3486251D01*
X992189Y3487267D02*
X992697Y3488283D01*
X992189Y3489299D01*
X993205Y3488791D01*
X994221Y3489299D01*
X993713Y3488283D01*
X994221Y3487267D01*
X993205Y3487775D01*
X992189Y3487267D01*
X991173Y3466051D02*
X992189Y3468083D01*
X991173Y3470115D01*
X993205Y3469099D01*
X995237Y3470115D01*
X994221Y3468083D01*
X995237Y3466051D01*
X993205Y3467067D01*
X991173Y3466051D01*
X992189Y3467067D02*
X992697Y3468083D01*
X992189Y3469099D01*
X993205Y3468591D01*
X994221Y3469099D01*
X993713Y3468083D01*
X994221Y3467067D01*
X993205Y3467575D01*
X992189Y3467067D01*
X991173Y3445851D02*
X992189Y3447883D01*
X991173Y3449915D01*
X993205Y3448899D01*
X995237Y3449915D01*
X994221Y3447883D01*
X995237Y3445851D01*
X993205Y3446867D01*
X991173Y3445851D01*
X992189Y3446867D02*
X992697Y3447883D01*
X992189Y3448899D01*
X993205Y3448391D01*
X994221Y3448899D01*
X993713Y3447883D01*
X994221Y3446867D01*
X993205Y3447375D01*
X992189Y3446867D01*
X1010728Y3384515D02*
X1011744Y3386547D01*
X1010728Y3388579D01*
X1012760Y3387563D01*
X1014792Y3388579D01*
X1013776Y3386547D01*
X1014792Y3384515D01*
X1012760Y3385531D01*
X1010728Y3384515D01*
X1011744Y3385531D02*
X1012252Y3386547D01*
X1011744Y3387563D01*
X1012760Y3387055D01*
X1013776Y3387563D01*
X1013268Y3386547D01*
X1013776Y3385531D01*
X1012760Y3386039D01*
X1011744Y3385531D01*
X984675Y3419275D02*
X985691Y3421307D01*
X984675Y3423339D01*
X986707Y3422323D01*
X988739Y3423339D01*
X987723Y3421307D01*
X988739Y3419275D01*
X986707Y3420291D01*
X984675Y3419275D01*
X985691Y3420291D02*
X986199Y3421307D01*
X985691Y3422323D01*
X986707Y3421815D01*
X987723Y3422323D01*
X987215Y3421307D01*
X987723Y3420291D01*
X986707Y3420799D01*
X985691Y3420291D01*
X900206Y3500678D02*
X901222Y3502710D01*
X900206Y3504742D01*
X902238Y3503726D01*
X904270Y3504742D01*
X903254Y3502710D01*
X904270Y3500678D01*
X902238Y3501694D01*
X900206Y3500678D01*
X901222Y3501694D02*
X901730Y3502710D01*
X901222Y3503726D01*
X902238Y3503218D01*
X903254Y3503726D01*
X902746Y3502710D01*
X903254Y3501694D01*
X902238Y3502202D01*
X901222Y3501694D01*
X890643Y3482885D02*
X891659Y3484917D01*
X890643Y3486949D01*
X892675Y3485933D01*
X894707Y3486949D01*
X893691Y3484917D01*
X894707Y3482885D01*
X892675Y3483901D01*
X890643Y3482885D01*
X891659Y3483901D02*
X892167Y3484917D01*
X891659Y3485933D01*
X892675Y3485425D01*
X893691Y3485933D01*
X893183Y3484917D01*
X893691Y3483901D01*
X892675Y3484409D01*
X891659Y3483901D01*
X881176Y3465041D02*
X882192Y3467073D01*
X881176Y3469105D01*
X883208Y3468089D01*
X885240Y3469105D01*
X884224Y3467073D01*
X885240Y3465041D01*
X883208Y3466057D01*
X881176Y3465041D01*
X882192Y3466057D02*
X882700Y3467073D01*
X882192Y3468089D01*
X883208Y3467581D01*
X884224Y3468089D01*
X883716Y3467073D01*
X884224Y3466057D01*
X883208Y3466565D01*
X882192Y3466057D01*
X881149Y3444841D02*
X882165Y3446873D01*
X881149Y3448905D01*
X883181Y3447889D01*
X885213Y3448905D01*
X884197Y3446873D01*
X885213Y3444841D01*
X883181Y3445857D01*
X881149Y3444841D01*
X882165Y3445857D02*
X882673Y3446873D01*
X882165Y3447889D01*
X883181Y3447381D01*
X884197Y3447889D01*
X883689Y3446873D01*
X884197Y3445857D01*
X883181Y3446365D01*
X882165Y3445857D01*
X928675Y3457022D02*
X929691Y3459054D01*
X928675Y3461086D01*
X930707Y3460070D01*
X932739Y3461086D01*
X931723Y3459054D01*
X932739Y3457022D01*
X930707Y3458038D01*
X928675Y3457022D01*
X929691Y3458038D02*
X930199Y3459054D01*
X929691Y3460070D01*
X930707Y3459562D01*
X931723Y3460070D01*
X931215Y3459054D01*
X931723Y3458038D01*
X930707Y3458546D01*
X929691Y3458038D01*
X926310Y3477083D02*
X927326Y3479115D01*
X926310Y3481147D01*
X928342Y3480131D01*
X930374Y3481147D01*
X929358Y3479115D01*
X930374Y3477083D01*
X928342Y3478099D01*
X926310Y3477083D01*
X927326Y3478099D02*
X927834Y3479115D01*
X927326Y3480131D01*
X928342Y3479623D01*
X929358Y3480131D01*
X928850Y3479115D01*
X929358Y3478099D01*
X928342Y3478607D01*
X927326Y3478099D01*
X884603Y3340125D02*
X885619Y3342158D01*
X884603Y3344189D01*
X886635Y3343174D01*
X888667Y3344189D01*
X887651Y3342158D01*
X888667Y3340125D01*
X886635Y3341141D01*
X884603Y3340125D01*
X885619Y3341141D02*
X886127Y3342158D01*
X885619Y3343174D01*
X886635Y3342665D01*
X887651Y3343174D01*
X887143Y3342158D01*
X887651Y3341141D01*
X886635Y3341649D01*
X885619Y3341141D01*
X870206Y3325956D02*
X871222Y3327988D01*
X870206Y3330020D01*
X872238Y3329004D01*
X874270Y3330020D01*
X873254Y3327988D01*
X874270Y3325956D01*
X872238Y3326972D01*
X870206Y3325956D01*
X871222Y3326972D02*
X871730Y3327988D01*
X871222Y3329004D01*
X872238Y3328496D01*
X873254Y3329004D01*
X872746Y3327988D01*
X873254Y3326972D01*
X872238Y3327480D01*
X871222Y3326972D01*
X855922Y3311673D02*
X856938Y3313705D01*
X855922Y3315737D01*
X857954Y3314721D01*
X859986Y3315737D01*
X858970Y3313705D01*
X859986Y3311673D01*
X857954Y3312689D01*
X855922Y3311673D01*
X856938Y3312689D02*
X857446Y3313705D01*
X856938Y3314721D01*
X857954Y3314213D01*
X858970Y3314721D01*
X858462Y3313705D01*
X858970Y3312689D01*
X857954Y3313197D01*
X856938Y3312689D01*
X644398Y3266948D02*
X645414Y3268980D01*
X644398Y3271012D01*
X646430Y3269996D01*
X648462Y3271012D01*
X647446Y3268980D01*
X648462Y3266948D01*
X646430Y3267964D01*
X644398Y3266948D01*
X645414Y3267964D02*
X645922Y3268980D01*
X645414Y3269996D01*
X646430Y3269488D01*
X647446Y3269996D01*
X646938Y3268980D01*
X647446Y3267964D01*
X646430Y3268472D01*
X645414Y3267964D01*
X616245Y3264565D02*
X617261Y3266598D01*
X616245Y3268629D01*
X618276Y3267614D01*
X620308Y3268629D01*
X619292Y3266598D01*
X620308Y3264565D01*
X618276Y3265581D01*
X616245Y3264565D01*
X617261Y3265581D02*
X617769Y3266598D01*
X617261Y3267614D01*
X618276Y3267105D01*
X619292Y3267614D01*
X618784Y3266598D01*
X619292Y3265581D01*
X618276Y3266089D01*
X617261Y3265581D01*
X603363Y3249006D02*
X604379Y3251038D01*
X603363Y3253070D01*
X605395Y3252054D01*
X607427Y3253070D01*
X606411Y3251038D01*
X607427Y3249006D01*
X605395Y3250022D01*
X603363Y3249006D01*
X604379Y3250022D02*
X604887Y3251038D01*
X604379Y3252054D01*
X605395Y3251546D01*
X606411Y3252054D01*
X605903Y3251038D01*
X606411Y3250022D01*
X605395Y3250530D01*
X604379Y3250022D01*
X607580Y3229251D02*
X608596Y3231283D01*
X607580Y3233315D01*
X609612Y3232299D01*
X611644Y3233315D01*
X610628Y3231283D01*
X611644Y3229251D01*
X609612Y3230267D01*
X607580Y3229251D01*
X608596Y3230267D02*
X609104Y3231283D01*
X608596Y3232299D01*
X609612Y3231791D01*
X610628Y3232299D01*
X610120Y3231283D01*
X610628Y3230267D01*
X609612Y3230775D01*
X608596Y3230267D01*
X646938Y3219958D02*
X647954Y3221990D01*
X646938Y3224022D01*
X648970Y3223006D01*
X651002Y3224022D01*
X649986Y3221990D01*
X651002Y3219958D01*
X648970Y3220974D01*
X646938Y3219958D01*
X647954Y3220974D02*
X648462Y3221990D01*
X647954Y3223006D01*
X648970Y3222498D01*
X649986Y3223006D01*
X649478Y3221990D01*
X649986Y3220974D01*
X648970Y3221482D01*
X647954Y3220974D01*
X685038Y3226308D02*
X686054Y3228340D01*
X685038Y3230372D01*
X687070Y3229356D01*
X689102Y3230372D01*
X688086Y3228340D01*
X689102Y3226308D01*
X687070Y3227324D01*
X685038Y3226308D01*
X686054Y3227324D02*
X686562Y3228340D01*
X686054Y3229356D01*
X687070Y3228848D01*
X688086Y3229356D01*
X687578Y3228340D01*
X688086Y3227324D01*
X687070Y3227832D01*
X686054Y3227324D01*
X705082Y3228753D02*
X706098Y3230785D01*
X705082Y3232817D01*
X707114Y3231801D01*
X709146Y3232817D01*
X708130Y3230785D01*
X709146Y3228753D01*
X707114Y3229769D01*
X705082Y3228753D01*
X706098Y3229769D02*
X706606Y3230785D01*
X706098Y3231801D01*
X707114Y3231293D01*
X708130Y3231801D01*
X707622Y3230785D01*
X708130Y3229769D01*
X707114Y3230277D01*
X706098Y3229769D01*
X725282Y3228753D02*
X726298Y3230785D01*
X725282Y3232817D01*
X727314Y3231801D01*
X729346Y3232817D01*
X728330Y3230785D01*
X729346Y3228753D01*
X727314Y3229769D01*
X725282Y3228753D01*
X726298Y3229769D02*
X726806Y3230785D01*
X726298Y3231801D01*
X727314Y3231293D01*
X728330Y3231801D01*
X727822Y3230785D01*
X728330Y3229769D01*
X727314Y3230277D01*
X726298Y3229769D01*
X823318Y3239288D02*
X824334Y3241320D01*
X823318Y3243352D01*
X825350Y3242336D01*
X827382Y3243352D01*
X826366Y3241320D01*
X827382Y3239288D01*
X825350Y3240304D01*
X823318Y3239288D01*
X824334Y3240304D02*
X824842Y3241320D01*
X824334Y3242336D01*
X825350Y3241828D01*
X826366Y3242336D01*
X825858Y3241320D01*
X826366Y3240304D01*
X825350Y3240811D01*
X824334Y3240304D01*
X837602Y3253571D02*
X838618Y3255603D01*
X837602Y3257635D01*
X839634Y3256619D01*
X841666Y3257635D01*
X840650Y3255603D01*
X841666Y3253571D01*
X839634Y3254587D01*
X837602Y3253571D01*
X838618Y3254587D02*
X839126Y3255603D01*
X838618Y3256619D01*
X839634Y3256111D01*
X840650Y3256619D01*
X840142Y3255603D01*
X840650Y3254587D01*
X839634Y3255095D01*
X838618Y3254587D01*
X851885Y3267855D02*
X852901Y3269887D01*
X851885Y3271919D01*
X853917Y3270903D01*
X855949Y3271919D01*
X854933Y3269887D01*
X855949Y3267855D01*
X853917Y3268871D01*
X851885Y3267855D01*
X852901Y3268871D02*
X853409Y3269887D01*
X852901Y3270903D01*
X853917Y3270395D01*
X854933Y3270903D01*
X854425Y3269887D01*
X854933Y3268871D01*
X853917Y3269379D01*
X852901Y3268871D01*
X866169Y3282138D02*
X867185Y3284170D01*
X866169Y3286202D01*
X868201Y3285186D01*
X870233Y3286202D01*
X869217Y3284170D01*
X870233Y3282138D01*
X868201Y3283154D01*
X866169Y3282138D01*
X867185Y3283154D02*
X867693Y3284170D01*
X867185Y3285186D01*
X868201Y3284678D01*
X869217Y3285186D01*
X868709Y3284170D01*
X869217Y3283154D01*
X868201Y3283662D01*
X867185Y3283154D01*
X919988Y3320288D02*
X921004Y3322320D01*
X919988Y3324352D01*
X922020Y3323336D01*
X924052Y3324352D01*
X923036Y3322320D01*
X924052Y3320288D01*
X922020Y3321304D01*
X919988Y3320288D01*
X921004Y3321304D02*
X921512Y3322320D01*
X921004Y3323336D01*
X922020Y3322828D01*
X923036Y3323336D01*
X922528Y3322320D01*
X923036Y3321304D01*
X922020Y3321812D01*
X921004Y3321304D01*
X939038Y3324098D02*
X940054Y3326130D01*
X939038Y3328162D01*
X941070Y3327146D01*
X943102Y3328162D01*
X942086Y3326130D01*
X943102Y3324098D01*
X941070Y3325114D01*
X939038Y3324098D01*
X940054Y3325114D02*
X940562Y3326130D01*
X940054Y3327146D01*
X941070Y3326638D01*
X942086Y3327146D01*
X941578Y3326130D01*
X942086Y3325114D01*
X941070Y3325622D01*
X940054Y3325114D01*
X960628Y3325368D02*
X961644Y3327400D01*
X960628Y3329432D01*
X962660Y3328416D01*
X964692Y3329432D01*
X963676Y3327400D01*
X964692Y3325368D01*
X962660Y3326384D01*
X960628Y3325368D01*
X961644Y3326384D02*
X962152Y3327400D01*
X961644Y3328416D01*
X962660Y3327908D01*
X963676Y3328416D01*
X963168Y3327400D01*
X963676Y3326384D01*
X962660Y3326892D01*
X961644Y3326384D01*
X450025Y3452723D02*
X451041Y3454755D01*
X450025Y3456787D01*
X452057Y3455771D01*
X454089Y3456787D01*
X453073Y3454755D01*
X454089Y3452723D01*
X452057Y3453739D01*
X450025Y3452723D01*
X451041Y3453739D02*
X451549Y3454755D01*
X451041Y3455771D01*
X452057Y3455263D01*
X453073Y3455771D01*
X452565Y3454755D01*
X453073Y3453739D01*
X452057Y3454247D01*
X451041Y3453739D01*
X464227Y3438359D02*
X465243Y3440391D01*
X464227Y3442423D01*
X466259Y3441407D01*
X468291Y3442423D01*
X467275Y3440391D01*
X468291Y3438359D01*
X466259Y3439375D01*
X464227Y3438359D01*
X465243Y3439375D02*
X465751Y3440391D01*
X465243Y3441407D01*
X466259Y3440899D01*
X467275Y3441407D01*
X466767Y3440391D01*
X467275Y3439375D01*
X466259Y3439883D01*
X465243Y3439375D01*
X484274Y3440843D02*
X485290Y3442875D01*
X484274Y3444907D01*
X486306Y3443891D01*
X488338Y3444907D01*
X487322Y3442875D01*
X488338Y3440843D01*
X486306Y3441859D01*
X484274Y3440843D01*
X485290Y3441859D02*
X485798Y3442875D01*
X485290Y3443891D01*
X486306Y3443383D01*
X487322Y3443891D01*
X486814Y3442875D01*
X487322Y3441859D01*
X486306Y3442367D01*
X485290Y3441859D01*
X564660Y3440700D02*
X565676Y3442732D01*
X564660Y3444764D01*
X566693Y3443748D01*
X568725Y3444764D01*
X567709Y3442732D01*
X568725Y3440700D01*
X566693Y3441716D01*
X564660Y3440700D01*
X565676Y3441716D02*
X566185Y3442732D01*
X565676Y3443748D01*
X566693Y3443240D01*
X567709Y3443748D01*
X567201Y3442732D01*
X567709Y3441716D01*
X566693Y3442224D01*
X565676Y3441716D01*
X579533Y3427031D02*
X580549Y3429063D01*
X579533Y3431095D01*
X581565Y3430079D01*
X583597Y3431095D01*
X582581Y3429063D01*
X583597Y3427031D01*
X581565Y3428047D01*
X579533Y3427031D01*
X580549Y3428047D02*
X581057Y3429063D01*
X580549Y3430079D01*
X581565Y3429571D01*
X582581Y3430079D01*
X582073Y3429063D01*
X582581Y3428047D01*
X581565Y3428555D01*
X580549Y3428047D01*
X579533Y3406831D02*
X580549Y3408863D01*
X579533Y3410895D01*
X581565Y3409879D01*
X583597Y3410895D01*
X582581Y3408863D01*
X583597Y3406831D01*
X581565Y3407847D01*
X579533Y3406831D01*
X580549Y3407847D02*
X581057Y3408863D01*
X580549Y3409879D01*
X581565Y3409371D01*
X582581Y3409879D01*
X582073Y3408863D01*
X582581Y3407847D01*
X581565Y3408355D01*
X580549Y3407847D01*
X599463Y3352952D02*
X600479Y3354984D01*
X599463Y3357016D01*
X601495Y3356000D01*
X603527Y3357016D01*
X602511Y3354984D01*
X603527Y3352952D01*
X601495Y3353969D01*
X599463Y3352952D01*
X600479Y3353969D02*
X600987Y3354984D01*
X600479Y3356000D01*
X601495Y3355492D01*
X602511Y3356000D01*
X602003Y3354984D01*
X602511Y3353969D01*
X601495Y3354476D01*
X600479Y3353969D01*
X613747Y3338669D02*
X614763Y3340701D01*
X613747Y3342733D01*
X615779Y3341717D01*
X617811Y3342733D01*
X616795Y3340701D01*
X617811Y3338669D01*
X615779Y3339685D01*
X613747Y3338669D01*
X614763Y3339685D02*
X615271Y3340701D01*
X614763Y3341717D01*
X615779Y3341209D01*
X616795Y3341717D01*
X616287Y3340701D01*
X616795Y3339685D01*
X615779Y3340193D01*
X614763Y3339685D01*
X628030Y3324385D02*
X629046Y3326417D01*
X628030Y3328449D01*
X630062Y3327433D01*
X632094Y3328449D01*
X631078Y3326417D01*
X632094Y3324385D01*
X630062Y3325401D01*
X628030Y3324385D01*
X629046Y3325401D02*
X629554Y3326417D01*
X629046Y3327433D01*
X630062Y3326925D01*
X631078Y3327433D01*
X630570Y3326417D01*
X631078Y3325401D01*
X630062Y3325909D01*
X629046Y3325401D01*
X625771Y3219739D02*
X626787Y3221772D01*
X625771Y3223803D01*
X627803Y3222787D01*
X629835Y3223803D01*
X628819Y3221772D01*
X629835Y3219739D01*
X627803Y3220755D01*
X625771Y3219739D01*
X626787Y3220755D02*
X627295Y3221772D01*
X626787Y3222787D01*
X627803Y3222279D01*
X628819Y3222787D01*
X628311Y3221772D01*
X628819Y3220755D01*
X627803Y3221263D01*
X626787Y3220755D01*
X607672Y3210769D02*
X608688Y3212802D01*
X607672Y3214833D01*
X609704Y3213817D01*
X611736Y3214833D01*
X610720Y3212802D01*
X611736Y3210769D01*
X609704Y3211786D01*
X607672Y3210769D01*
X608688Y3211786D02*
X609196Y3212802D01*
X608688Y3213817D01*
X609704Y3213310D01*
X610720Y3213817D01*
X610212Y3212802D01*
X610720Y3211786D01*
X609704Y3212293D01*
X608688Y3211786D01*
X603323Y3191043D02*
X604339Y3193075D01*
X603323Y3195107D01*
X605355Y3194091D01*
X607387Y3195107D01*
X606371Y3193075D01*
X607387Y3191043D01*
X605355Y3192059D01*
X603323Y3191043D01*
X604339Y3192059D02*
X604847Y3193075D01*
X604339Y3194091D01*
X605355Y3193583D01*
X606371Y3194091D01*
X605863Y3193075D01*
X606371Y3192059D01*
X605355Y3192567D01*
X604339Y3192059D01*
X677513Y3211277D02*
X678529Y3213309D01*
X677513Y3215341D01*
X679545Y3214325D01*
X681577Y3215341D01*
X680561Y3213309D01*
X681577Y3211277D01*
X679545Y3212292D01*
X677513Y3211277D01*
X678529Y3212292D02*
X679037Y3213309D01*
X678529Y3214325D01*
X679545Y3213817D01*
X680561Y3214325D01*
X680053Y3213309D01*
X680561Y3212292D01*
X679545Y3212801D01*
X678529Y3212292D01*
X664259Y3327938D02*
X665275Y3329969D01*
X664259Y3332002D01*
X666291Y3330985D01*
X668323Y3332002D01*
X667307Y3329969D01*
X668323Y3327938D01*
X666291Y3328954D01*
X664259Y3327938D01*
X665275Y3328954D02*
X665783Y3329969D01*
X665275Y3330985D01*
X666291Y3330478D01*
X667307Y3330985D01*
X666799Y3329969D01*
X667307Y3328954D01*
X666291Y3329461D01*
X665275Y3328954D01*
X649975Y3342221D02*
X650991Y3344253D01*
X649975Y3346285D01*
X652007Y3345269D01*
X654039Y3346285D01*
X653023Y3344253D01*
X654039Y3342221D01*
X652007Y3343237D01*
X649975Y3342221D01*
X650991Y3343237D02*
X651499Y3344253D01*
X650991Y3345269D01*
X652007Y3344761D01*
X653023Y3345269D01*
X652515Y3344253D01*
X653023Y3343237D01*
X652007Y3343745D01*
X650991Y3343237D01*
X635692Y3356505D02*
X636708Y3358537D01*
X635692Y3360569D01*
X637724Y3359553D01*
X639756Y3360569D01*
X638740Y3358537D01*
X639756Y3356505D01*
X637724Y3357521D01*
X635692Y3356505D01*
X636708Y3357521D02*
X637216Y3358537D01*
X636708Y3359553D01*
X637724Y3359045D01*
X638740Y3359553D01*
X638232Y3358537D01*
X638740Y3357521D01*
X637724Y3358029D01*
X636708Y3357521D01*
X621408Y3370788D02*
X622424Y3372820D01*
X621408Y3374852D01*
X623440Y3373836D01*
X625472Y3374852D01*
X624456Y3372820D01*
X625472Y3370788D01*
X623440Y3371804D01*
X621408Y3370788D01*
X622424Y3371804D02*
X622932Y3372820D01*
X622424Y3373836D01*
X623440Y3373328D01*
X624456Y3373836D01*
X623948Y3372820D01*
X624456Y3371804D01*
X623440Y3372312D01*
X622424Y3371804D01*
X607663Y3405790D02*
X608679Y3407822D01*
X607663Y3409854D01*
X609695Y3408838D01*
X611727Y3409854D01*
X610711Y3407822D01*
X611727Y3405790D01*
X609695Y3406806D01*
X607663Y3405790D01*
X608679Y3406806D02*
X609187Y3407822D01*
X608679Y3408838D01*
X609695Y3408330D01*
X610711Y3408838D01*
X610203Y3407822D01*
X610711Y3406806D01*
X609695Y3407314D01*
X608679Y3406806D01*
X607663Y3425990D02*
X608679Y3428022D01*
X607663Y3430054D01*
X609695Y3429038D01*
X611727Y3430054D01*
X610711Y3428022D01*
X611727Y3425990D01*
X609695Y3427006D01*
X607663Y3425990D01*
X608679Y3427006D02*
X609187Y3428022D01*
X608679Y3429038D01*
X609695Y3428530D01*
X610711Y3429038D01*
X610203Y3428022D01*
X610711Y3427006D01*
X609695Y3427514D01*
X608679Y3427006D01*
X602545Y3445531D02*
X603561Y3447563D01*
X602545Y3449595D01*
X604577Y3448579D01*
X606609Y3449595D01*
X605593Y3447563D01*
X606609Y3445531D01*
X604577Y3446547D01*
X602545Y3445531D01*
X603561Y3446547D02*
X604069Y3447563D01*
X603561Y3448579D01*
X604577Y3448071D01*
X605593Y3448579D01*
X605085Y3447563D01*
X605593Y3446547D01*
X604577Y3447055D01*
X603561Y3446547D01*
X588261Y3459815D02*
X589277Y3461847D01*
X588261Y3463879D01*
X590294Y3462863D01*
X592326Y3463879D01*
X591310Y3461847D01*
X592326Y3459815D01*
X590294Y3460831D01*
X588261Y3459815D01*
X589277Y3460831D02*
X589785Y3461847D01*
X589277Y3462863D01*
X590294Y3462355D01*
X591310Y3462863D01*
X590802Y3461847D01*
X591310Y3460831D01*
X590294Y3461339D01*
X589277Y3460831D01*
X570257Y3468973D02*
X571273Y3471005D01*
X570257Y3473037D01*
X572289Y3472021D01*
X574321Y3473037D01*
X573305Y3471005D01*
X574321Y3468973D01*
X572289Y3469989D01*
X570257Y3468973D01*
X571273Y3469989D02*
X571781Y3471005D01*
X571273Y3472021D01*
X572289Y3471513D01*
X573305Y3472021D01*
X572797Y3471005D01*
X573305Y3469989D01*
X572289Y3470497D01*
X571273Y3469989D01*
X550200Y3471375D02*
X551216Y3473407D01*
X550200Y3475439D01*
X552232Y3474423D01*
X554264Y3475439D01*
X553248Y3473407D01*
X554264Y3471375D01*
X552232Y3472391D01*
X550200Y3471375D01*
X551216Y3472391D02*
X551724Y3473407D01*
X551216Y3474423D01*
X552232Y3473915D01*
X553248Y3474423D01*
X552740Y3473407D01*
X553248Y3472391D01*
X552232Y3472899D01*
X551216Y3472391D01*
X530000Y3471375D02*
X531016Y3473407D01*
X530000Y3475439D01*
X532032Y3474423D01*
X534064Y3475439D01*
X533048Y3473407D01*
X534064Y3471375D01*
X532032Y3472391D01*
X530000Y3471375D01*
X531016Y3472391D02*
X531524Y3473407D01*
X531016Y3474423D01*
X532032Y3473915D01*
X533048Y3474423D01*
X532540Y3473407D01*
X533048Y3472391D01*
X532032Y3472899D01*
X531016Y3472391D01*
X510000Y3468538D02*
X511016Y3470570D01*
X510000Y3472602D01*
X512032Y3471586D01*
X514064Y3472602D01*
X513048Y3470570D01*
X514064Y3468538D01*
X512032Y3469554D01*
X510000Y3468538D01*
X511016Y3469554D02*
X511524Y3470570D01*
X511016Y3471586D01*
X512032Y3471078D01*
X513048Y3471586D01*
X512540Y3470570D01*
X513048Y3469554D01*
X512032Y3470062D01*
X511016Y3469554D01*
X489800Y3468575D02*
X490816Y3470607D01*
X489800Y3472639D01*
X491832Y3471623D01*
X493864Y3472639D01*
X492848Y3470607D01*
X493864Y3468575D01*
X491832Y3469591D01*
X489800Y3468575D01*
X490816Y3469591D02*
X491324Y3470607D01*
X490816Y3471623D01*
X491832Y3471115D01*
X492848Y3471623D01*
X492340Y3470607D01*
X492848Y3469591D01*
X491832Y3470099D01*
X490816Y3469591D01*
X469791Y3471349D02*
X470807Y3473380D01*
X469791Y3475413D01*
X471824Y3474396D01*
X473856Y3475413D01*
X472840Y3473380D01*
X473856Y3471349D01*
X471824Y3472365D01*
X469791Y3471349D01*
X470807Y3472365D02*
X471315Y3473380D01*
X470807Y3474396D01*
X471824Y3473889D01*
X472840Y3474396D01*
X472332Y3473380D01*
X472840Y3472365D01*
X471824Y3472873D01*
X470807Y3472365D01*
X788029Y3816979D02*
Y3815963D01*
X790061D01*
Y3816979D01*
X791077D01*
Y3819011D01*
X790061D01*
Y3820027D01*
X788029D01*
Y3819011D01*
X787013D01*
Y3816979D01*
X788029D01*
X788537Y3817487D02*
Y3816979D01*
X789553D01*
Y3817487D01*
X790061D01*
Y3818503D01*
X789553D01*
Y3819011D01*
X788537D01*
Y3818503D01*
X788029D01*
Y3817487D01*
X788537D01*
X706259Y3660987D02*
Y3659971D01*
X708291D01*
Y3660987D01*
X709307D01*
Y3663019D01*
X708291D01*
Y3664035D01*
X706259D01*
Y3663019D01*
X705243D01*
Y3660987D01*
X706259D01*
X706767Y3661495D02*
Y3660987D01*
X707783D01*
Y3661495D01*
X708291D01*
Y3662511D01*
X707783D01*
Y3663019D01*
X706767D01*
Y3662511D01*
X706259D01*
Y3661495D01*
X706767D01*
X684784Y3674364D02*
Y3673348D01*
X686816D01*
Y3674364D01*
X687832D01*
Y3676396D01*
X686816D01*
Y3677412D01*
X684784D01*
Y3676396D01*
X683768D01*
Y3674364D01*
X684784D01*
X685292Y3674872D02*
Y3674364D01*
X686308D01*
Y3674872D01*
X686816D01*
Y3675888D01*
X686308D01*
Y3676396D01*
X685292D01*
Y3675888D01*
X684784D01*
Y3674872D01*
X685292D01*
X705104Y3742944D02*
Y3741928D01*
X707136D01*
Y3742944D01*
X708152D01*
Y3744976D01*
X707136D01*
Y3745992D01*
X705104D01*
Y3744976D01*
X704088D01*
Y3742944D01*
X705104D01*
X705612Y3743452D02*
Y3742944D01*
X706628D01*
Y3743452D01*
X707136D01*
Y3744468D01*
X706628D01*
Y3744976D01*
X705612D01*
Y3744468D01*
X705104D01*
Y3743452D01*
X705612D01*
X765467Y3794868D02*
Y3793853D01*
X767499D01*
Y3794868D01*
X768515D01*
Y3796901D01*
X767499D01*
Y3797917D01*
X765467D01*
Y3796901D01*
X764451D01*
Y3794868D01*
X765467D01*
X765975Y3795377D02*
Y3794868D01*
X766991D01*
Y3795377D01*
X767499D01*
Y3796393D01*
X766991D01*
Y3796901D01*
X765975D01*
Y3796393D01*
X765467D01*
Y3795377D01*
X765975D01*
X647954Y3708654D02*
Y3707638D01*
X649986D01*
Y3708654D01*
X651002D01*
Y3710686D01*
X649986D01*
Y3711702D01*
X647954D01*
Y3710686D01*
X646938D01*
Y3708654D01*
X647954D01*
X648462Y3709162D02*
Y3708654D01*
X649478D01*
Y3709162D01*
X649986D01*
Y3710178D01*
X649478D01*
Y3710686D01*
X648462D01*
Y3710178D01*
X647954D01*
Y3709162D01*
X648462D01*
X781304Y3722624D02*
Y3721608D01*
X783336D01*
Y3722624D01*
X784352D01*
Y3724656D01*
X783336D01*
Y3725672D01*
X781304D01*
Y3724656D01*
X780288D01*
Y3722624D01*
X781304D01*
X781812Y3723132D02*
Y3722624D01*
X782828D01*
Y3723132D01*
X783336D01*
Y3724148D01*
X782828D01*
Y3724656D01*
X781812D01*
Y3724148D01*
X781304D01*
Y3723132D01*
X781812D01*
X631109Y3866536D02*
Y3865519D01*
X633141D01*
Y3866536D01*
X634157D01*
Y3868568D01*
X633141D01*
Y3869583D01*
X631109D01*
Y3868568D01*
X630093D01*
Y3866536D01*
X631109D01*
X631617Y3867043D02*
Y3866536D01*
X632633D01*
Y3867043D01*
X633141D01*
Y3868059D01*
X632633D01*
Y3868568D01*
X631617D01*
Y3868059D01*
X631109D01*
Y3867043D01*
X631617D01*
X692404Y3859784D02*
Y3858768D01*
X694436D01*
Y3859784D01*
X695452D01*
Y3861816D01*
X694436D01*
Y3862832D01*
X692404D01*
Y3861816D01*
X691388D01*
Y3859784D01*
X692404D01*
X692912Y3860292D02*
Y3859784D01*
X693928D01*
Y3860292D01*
X694436D01*
Y3861308D01*
X693928D01*
Y3861816D01*
X692912D01*
Y3861308D01*
X692404D01*
Y3860292D01*
X692912D01*
X730504Y3787394D02*
Y3786378D01*
X732536D01*
Y3787394D01*
X733552D01*
Y3789426D01*
X732536D01*
Y3790442D01*
X730504D01*
Y3789426D01*
X729488D01*
Y3787394D01*
X730504D01*
X731012Y3787902D02*
Y3787394D01*
X732028D01*
Y3787902D01*
X732536D01*
Y3788918D01*
X732028D01*
Y3789426D01*
X731012D01*
Y3788918D01*
X730504D01*
Y3787902D01*
X731012D01*
X852424Y3867404D02*
Y3866388D01*
X854456D01*
Y3867404D01*
X855472D01*
Y3869436D01*
X854456D01*
Y3870452D01*
X852424D01*
Y3869436D01*
X851408D01*
Y3867404D01*
X852424D01*
X852932Y3867912D02*
Y3867404D01*
X853948D01*
Y3867912D01*
X854456D01*
Y3868928D01*
X853948D01*
Y3869436D01*
X852932D01*
Y3868928D01*
X852424D01*
Y3867912D01*
X852932D01*
X917194Y3698494D02*
Y3697478D01*
X919226D01*
Y3698494D01*
X920242D01*
Y3700526D01*
X919226D01*
Y3701542D01*
X917194D01*
Y3700526D01*
X916178D01*
Y3698494D01*
X917194D01*
X917702Y3699002D02*
Y3698494D01*
X918718D01*
Y3699002D01*
X919226D01*
Y3700018D01*
X918718D01*
Y3700526D01*
X917702D01*
Y3700018D01*
X917194D01*
Y3699002D01*
X917702D01*
X515874Y3405124D02*
Y3404108D01*
X517906D01*
Y3405124D01*
X518922D01*
Y3407156D01*
X517906D01*
Y3408172D01*
X515874D01*
Y3407156D01*
X514858D01*
Y3405124D01*
X515874D01*
X516382Y3405632D02*
Y3405124D01*
X517398D01*
Y3405632D01*
X517906D01*
Y3406648D01*
X517398D01*
Y3407156D01*
X516382D01*
Y3406648D01*
X515874D01*
Y3405632D01*
X516382D01*
D93*
X502412Y3652520D02*
G03*
X502412Y3652520I-2032J0D01*
G01*
X537972D02*
G03*
X537972Y3652520I-2032J0D01*
G01*
X606552Y3763010D02*
G03*
X606552Y3763010I-2032J0D01*
G01*
X816102Y3761740D02*
G03*
X816102Y3761740I-2032J0D01*
G01*
X736092Y3501390D02*
G03*
X736092Y3501390I-2032J0D01*
G01*
X470662Y3456940D02*
G03*
X470662Y3456940I-2032J0D01*
G01*
X639149Y3609340D02*
G03*
X639149Y3609340I-2032J0D01*
G01*
Y3583940D02*
G03*
X639149Y3583940I-2032J0D01*
G01*
Y3558540D02*
G03*
X639149Y3558540I-2032J0D01*
G01*
X715349D02*
G03*
X715349Y3558540I-2032J0D01*
G01*
Y3583940D02*
G03*
X715349Y3583940I-2032J0D01*
G01*
Y3609340D02*
G03*
X715349Y3609340I-2032J0D01*
G01*
X866902D02*
G03*
X866902Y3609340I-2032J0D01*
G01*
Y3583940D02*
G03*
X866902Y3583940I-2032J0D01*
G01*
Y3558540D02*
G03*
X866902Y3558540I-2032J0D01*
G01*
X943102D02*
G03*
X943102Y3558540I-2032J0D01*
G01*
Y3583940D02*
G03*
X943102Y3583940I-2032J0D01*
G01*
Y3609340D02*
G03*
X943102Y3609340I-2032J0D01*
G01*
X753025D02*
G03*
X753025Y3609340I-2032J0D01*
G01*
Y3583940D02*
G03*
X753025Y3583940I-2032J0D01*
G01*
Y3558540D02*
G03*
X753025Y3558540I-2032J0D01*
G01*
X829225D02*
G03*
X829225Y3558540I-2032J0D01*
G01*
Y3583940D02*
G03*
X829225Y3583940I-2032J0D01*
G01*
Y3609340D02*
G03*
X829225Y3609340I-2032J0D01*
G01*
X525272D02*
G03*
X525272Y3609340I-2032J0D01*
G01*
Y3583940D02*
G03*
X525272Y3583940I-2032J0D01*
G01*
Y3558540D02*
G03*
X525272Y3558540I-2032J0D01*
G01*
X601472D02*
G03*
X601472Y3558540I-2032J0D01*
G01*
Y3583940D02*
G03*
X601472Y3583940I-2032J0D01*
G01*
Y3609340D02*
G03*
X601472Y3609340I-2032J0D01*
G01*
D94*
X638133D02*
G03*
X638133Y3609340I-1016J0D01*
G01*
Y3583940D02*
G03*
X638133Y3583940I-1016J0D01*
G01*
Y3558540D02*
G03*
X638133Y3558540I-1016J0D01*
G01*
X714333D02*
G03*
X714333Y3558540I-1016J0D01*
G01*
Y3583940D02*
G03*
X714333Y3583940I-1016J0D01*
G01*
Y3609340D02*
G03*
X714333Y3609340I-1016J0D01*
G01*
X865886D02*
G03*
X865886Y3609340I-1016J0D01*
G01*
Y3583940D02*
G03*
X865886Y3583940I-1016J0D01*
G01*
Y3558540D02*
G03*
X865886Y3558540I-1016J0D01*
G01*
X942086D02*
G03*
X942086Y3558540I-1016J0D01*
G01*
Y3583940D02*
G03*
X942086Y3583940I-1016J0D01*
G01*
Y3609340D02*
G03*
X942086Y3609340I-1016J0D01*
G01*
X752009D02*
G03*
X752009Y3609340I-1016J0D01*
G01*
Y3583940D02*
G03*
X752009Y3583940I-1016J0D01*
G01*
Y3558540D02*
G03*
X752009Y3558540I-1016J0D01*
G01*
X828209D02*
G03*
X828209Y3558540I-1016J0D01*
G01*
Y3583940D02*
G03*
X828209Y3583940I-1016J0D01*
G01*
Y3609340D02*
G03*
X828209Y3609340I-1016J0D01*
G01*
X524256D02*
G03*
X524256Y3609340I-1016J0D01*
G01*
Y3583940D02*
G03*
X524256Y3583940I-1016J0D01*
G01*
Y3558540D02*
G03*
X524256Y3558540I-1016J0D01*
G01*
X600456D02*
G03*
X600456Y3558540I-1016J0D01*
G01*
Y3583940D02*
G03*
X600456Y3583940I-1016J0D01*
G01*
Y3609340D02*
G03*
X600456Y3609340I-1016J0D01*
G01*
M02*
