G04*
G04 #@! TF.GenerationSoftware,Altium Limited,Altium Designer,20.0.10 (225)*
G04*
G04 Layer_Color=8388736*
%FSLAX44Y44*%
%MOMM*%
G71*
G01*
G75*
%ADD10C,0.2540*%
%ADD11C,0.2000*%
%ADD20R,0.9000X0.8000*%
%ADD21R,0.8000X1.7000*%
%ADD24R,0.5010X1.1112*%
%ADD27R,1.0121X1.2084*%
%ADD28R,0.8000X0.9000*%
%ADD30R,3.0000X1.5000*%
%ADD35R,0.7620X0.7112*%
%ADD36R,0.4064X2.7000*%
%ADD38R,1.1532X1.0532*%
%ADD39R,0.6200X0.9200*%
%ADD40R,0.9200X0.6200*%
%ADD41R,1.2532X1.1532*%
%ADD42R,1.1032X2.7032*%
%ADD43R,0.9032X1.1032*%
%ADD44R,1.1532X1.2532*%
%ADD45R,1.0032X1.0032*%
%ADD46R,1.1032X0.9032*%
%ADD47R,1.2032X1.1032*%
%ADD48C,2.8032*%
%ADD49C,1.7532*%
%ADD50C,0.7500*%
%ADD51R,2.0032X1.9032*%
%ADD52O,2.1032X2.2032*%
%ADD53R,1.7532X1.7532*%
%ADD54C,1.7032*%
%ADD55R,1.7032X1.7032*%
%ADD56O,2.2032X3.2032*%
%ADD57R,2.1032X2.1032*%
%ADD58C,2.1032*%
%ADD59R,2.8542X2.8542*%
%ADD60C,2.8542*%
%ADD61R,1.3000X1.3000*%
%ADD62C,1.3000*%
%ADD63C,0.8532*%
G04:AMPARAMS|DCode=64|XSize=1.2532mm|YSize=2.0532mm|CornerRadius=0.3641mm|HoleSize=0mm|Usage=FLASHONLY|Rotation=180.000|XOffset=0mm|YOffset=0mm|HoleType=Round|Shape=RoundedRectangle|*
%AMROUNDEDRECTD64*
21,1,1.2532,1.3250,0,0,180.0*
21,1,0.5250,2.0532,0,0,180.0*
1,1,0.7282,-0.2625,0.6625*
1,1,0.7282,0.2625,0.6625*
1,1,0.7282,0.2625,-0.6625*
1,1,0.7282,-0.2625,-0.6625*
%
%ADD64ROUNDEDRECTD64*%
%ADD65C,1.4732*%
D10*
X596440Y3251020D02*
G03*
X596440Y3251020I-105000J0D01*
G01*
X1073380D02*
G03*
X1073380Y3251020I-105000J0D01*
G01*
D11*
X1066920Y3140980D02*
G03*
X1077440Y3151500I0J10520D01*
G01*
X384430D02*
G03*
X394950Y3140980I10520J0D01*
G01*
X1077440Y3959500D02*
G03*
X1066920Y3970020I-10520J0D01*
G01*
X394950Y3970000D02*
G03*
X384430Y3959480I0J-10520D01*
G01*
X1077400Y3151011D02*
Y3959500D01*
X394940Y3140990D02*
X1067380D01*
X384430Y3151500D02*
Y3959480D01*
X394950Y3970000D02*
X1067380D01*
D20*
X525390Y3677920D02*
D03*
X508390D02*
D03*
D21*
X639300Y3735070D02*
D03*
X605300D02*
D03*
D24*
X741927Y3862757D02*
D03*
Y3839757D02*
D03*
D27*
X788917Y3839428D02*
D03*
Y3855466D02*
D03*
D28*
X813047Y3838850D02*
D03*
Y3855850D02*
D03*
D30*
X906740Y3456940D02*
D03*
Y3431540D02*
D03*
Y3406140D02*
D03*
X774740D02*
D03*
Y3431540D02*
D03*
Y3456940D02*
D03*
X674330D02*
D03*
Y3431540D02*
D03*
Y3406140D02*
D03*
X542330D02*
D03*
Y3431540D02*
D03*
Y3456940D02*
D03*
D35*
X638872Y3786541D02*
D03*
X654366D02*
D03*
X638872Y3802361D02*
D03*
X654366D02*
D03*
D36*
X685690Y3924000D02*
D03*
X692230D02*
D03*
X698730D02*
D03*
X705230D02*
D03*
X711690D02*
D03*
D38*
X853440Y3887320D02*
D03*
Y3900320D02*
D03*
X989330Y3408090D02*
D03*
Y3395090D02*
D03*
X751840Y3637130D02*
D03*
Y3650130D02*
D03*
X864870Y3651400D02*
D03*
Y3638400D02*
D03*
X976630Y3585060D02*
D03*
Y3598060D02*
D03*
D39*
X693300Y3844290D02*
D03*
X678300D02*
D03*
X693300Y3873500D02*
D03*
X678300D02*
D03*
D40*
X722877Y3860027D02*
D03*
Y3845027D02*
D03*
D41*
X764787Y3840197D02*
D03*
Y3854697D02*
D03*
X744220Y3818520D02*
D03*
Y3804020D02*
D03*
D42*
X782320Y3702670D02*
D03*
X769620D02*
D03*
X693420D02*
D03*
X706120D02*
D03*
X718820D02*
D03*
X731520D02*
D03*
X744220D02*
D03*
X756920D02*
D03*
X782320Y3765930D02*
D03*
X769620D02*
D03*
X756920D02*
D03*
X744220D02*
D03*
X693420D02*
D03*
X706120D02*
D03*
X718820D02*
D03*
X731520D02*
D03*
D43*
X606104Y3802941D02*
D03*
X620104D02*
D03*
X606104Y3787121D02*
D03*
X620104D02*
D03*
D44*
X652410Y3768090D02*
D03*
X637910D02*
D03*
D45*
X598170Y3867270D02*
D03*
Y3882270D02*
D03*
D46*
X614680Y3867770D02*
D03*
Y3881770D02*
D03*
D47*
X505460Y3443810D02*
D03*
Y3457310D02*
D03*
X734060Y3443810D02*
D03*
Y3457310D02*
D03*
D48*
X525090Y3224220D02*
D03*
X491490Y3208020D02*
D03*
X457890Y3224220D02*
D03*
X533390Y3260520D02*
D03*
X449490D02*
D03*
X472790Y3289720D02*
D03*
X491490Y3251020D02*
D03*
X510190Y3289720D02*
D03*
X1002030Y3224220D02*
D03*
X968430Y3208020D02*
D03*
X934830Y3224220D02*
D03*
X1010330Y3260520D02*
D03*
X926430D02*
D03*
X949730Y3289720D02*
D03*
X968430Y3251020D02*
D03*
X987130Y3289720D02*
D03*
D49*
X500380Y3652520D02*
D03*
X535940D02*
D03*
X604520Y3763010D02*
D03*
X814070Y3761740D02*
D03*
X734060Y3501390D02*
D03*
X468630Y3456940D02*
D03*
X446510Y3614420D02*
D03*
Y3698240D02*
D03*
D50*
X622300Y3735070D02*
D03*
D51*
X963600Y3433490D02*
D03*
Y3467780D02*
D03*
D52*
Y3408090D02*
D03*
Y3493180D02*
D03*
D53*
X446510Y3589020D02*
D03*
Y3672840D02*
D03*
D54*
X777240Y3935730D02*
D03*
X802640D02*
D03*
X828040D02*
D03*
X853440D02*
D03*
X878840D02*
D03*
D55*
X904240D02*
D03*
D56*
X552450Y3921760D02*
D03*
X527050D02*
D03*
D57*
X716911Y3341997D02*
D03*
D58*
X843911D02*
D03*
X780411D02*
D03*
D59*
X636270Y3293110D02*
D03*
D60*
Y3246120D02*
D03*
Y3199130D02*
D03*
D61*
X637117Y3609340D02*
D03*
X864870D02*
D03*
X750993D02*
D03*
X523240D02*
D03*
D62*
X637117Y3583940D02*
D03*
Y3558540D02*
D03*
X713317D02*
D03*
Y3583940D02*
D03*
Y3609340D02*
D03*
X864870Y3583940D02*
D03*
Y3558540D02*
D03*
X941070D02*
D03*
Y3583940D02*
D03*
Y3609340D02*
D03*
X750993Y3583940D02*
D03*
Y3558540D02*
D03*
X827193D02*
D03*
Y3583940D02*
D03*
Y3609340D02*
D03*
X523240Y3583940D02*
D03*
Y3558540D02*
D03*
X599440D02*
D03*
Y3583940D02*
D03*
Y3609340D02*
D03*
D63*
X678690Y3932200D02*
D03*
X718690D02*
D03*
D64*
X662940Y3919000D02*
D03*
Y3953500D02*
D03*
X734440Y3919000D02*
D03*
Y3953500D02*
D03*
D65*
X920750Y3175000D02*
D03*
X789045Y3817995D02*
D03*
X707275Y3662003D02*
D03*
X685800Y3675380D02*
D03*
X706120Y3743960D02*
D03*
X766483Y3795885D02*
D03*
X648970Y3709670D02*
D03*
X782320Y3723640D02*
D03*
X632125Y3867552D02*
D03*
X693420Y3860800D02*
D03*
X731520Y3788410D02*
D03*
X853440Y3868420D02*
D03*
X918210Y3699510D02*
D03*
X516890Y3406140D02*
D03*
M02*
