G04*
G04 #@! TF.GenerationSoftware,Altium Limited,Altium Designer,20.0.10 (225)*
G04*
G04 Layer_Color=32896*
%FSLAX44Y44*%
%MOMM*%
G71*
G01*
G75*
%ADD10C,0.2540*%
%ADD11C,0.2000*%
G36*
X525288Y3684348D02*
X525366Y3684338D01*
X525453Y3684328D01*
X525551Y3684318D01*
X525658Y3684289D01*
X525892Y3684231D01*
X526136Y3684143D01*
X526263Y3684084D01*
X526380Y3684016D01*
X526487Y3683928D01*
X526595Y3683840D01*
X526604Y3683831D01*
X526614Y3683821D01*
X526643Y3683792D01*
X526683Y3683752D01*
X526721Y3683694D01*
X526770Y3683636D01*
X526868Y3683489D01*
X526965Y3683304D01*
X527053Y3683089D01*
X527121Y3682845D01*
X527131Y3682709D01*
X527141Y3682572D01*
Y3682553D01*
Y3682504D01*
X527131Y3682426D01*
X527121Y3682328D01*
X527102Y3682212D01*
X527073Y3682085D01*
X527034Y3681948D01*
X526975Y3681812D01*
X526965Y3681792D01*
X526946Y3681743D01*
X526907Y3681675D01*
X526848Y3681577D01*
X526780Y3681460D01*
X526692Y3681324D01*
X526575Y3681187D01*
X526448Y3681031D01*
X526429Y3681012D01*
X526380Y3680953D01*
X526292Y3680865D01*
X526234Y3680807D01*
X526166Y3680739D01*
X526087Y3680661D01*
X525990Y3680573D01*
X525892Y3680485D01*
X525785Y3680378D01*
X525668Y3680270D01*
X525532Y3680154D01*
X525395Y3680036D01*
X525239Y3679900D01*
X525229Y3679890D01*
X525210Y3679871D01*
X525171Y3679841D01*
X525122Y3679802D01*
X525005Y3679705D01*
X524859Y3679578D01*
X524712Y3679442D01*
X524556Y3679305D01*
X524429Y3679188D01*
X524381Y3679139D01*
X524332Y3679090D01*
X524322Y3679081D01*
X524303Y3679051D01*
X524264Y3679012D01*
X524215Y3678954D01*
X524108Y3678827D01*
X524000Y3678671D01*
X527151D01*
Y3677920D01*
X522908D01*
Y3677930D01*
Y3677969D01*
Y3678027D01*
X522918Y3678095D01*
X522927Y3678174D01*
X522937Y3678261D01*
X522966Y3678359D01*
X522996Y3678456D01*
Y3678466D01*
X523005Y3678476D01*
X523025Y3678534D01*
X523064Y3678612D01*
X523122Y3678729D01*
X523191Y3678856D01*
X523288Y3679002D01*
X523386Y3679149D01*
X523513Y3679305D01*
Y3679315D01*
X523532Y3679324D01*
X523581Y3679383D01*
X523659Y3679471D01*
X523776Y3679588D01*
X523922Y3679724D01*
X524098Y3679890D01*
X524312Y3680075D01*
X524546Y3680280D01*
X524556Y3680290D01*
X524595Y3680319D01*
X524644Y3680358D01*
X524712Y3680427D01*
X524800Y3680495D01*
X524898Y3680583D01*
X525112Y3680768D01*
X525346Y3680992D01*
X525580Y3681217D01*
X525697Y3681324D01*
X525795Y3681431D01*
X525883Y3681538D01*
X525961Y3681636D01*
Y3681646D01*
X525980Y3681656D01*
X526000Y3681685D01*
X526019Y3681724D01*
X526078Y3681821D01*
X526146Y3681948D01*
X526214Y3682094D01*
X526273Y3682250D01*
X526312Y3682426D01*
X526331Y3682592D01*
Y3682602D01*
Y3682611D01*
X526322Y3682670D01*
X526312Y3682758D01*
X526292Y3682865D01*
X526244Y3682992D01*
X526185Y3683119D01*
X526107Y3683255D01*
X525990Y3683382D01*
X525970Y3683392D01*
X525932Y3683431D01*
X525853Y3683479D01*
X525756Y3683548D01*
X525629Y3683606D01*
X525483Y3683655D01*
X525307Y3683694D01*
X525112Y3683704D01*
X525054D01*
X525015Y3683694D01*
X524917Y3683684D01*
X524790Y3683665D01*
X524644Y3683616D01*
X524488Y3683557D01*
X524342Y3683470D01*
X524205Y3683353D01*
X524195Y3683333D01*
X524156Y3683294D01*
X524098Y3683216D01*
X524039Y3683109D01*
X523971Y3682972D01*
X523922Y3682816D01*
X523883Y3682631D01*
X523864Y3682416D01*
X523054Y3682504D01*
Y3682514D01*
Y3682543D01*
X523064Y3682592D01*
X523074Y3682650D01*
X523093Y3682728D01*
X523103Y3682816D01*
X523161Y3683011D01*
X523240Y3683235D01*
X523347Y3683460D01*
X523493Y3683684D01*
X523571Y3683782D01*
X523669Y3683879D01*
X523678Y3683889D01*
X523698Y3683899D01*
X523727Y3683928D01*
X523766Y3683958D01*
X523825Y3683987D01*
X523893Y3684035D01*
X523971Y3684074D01*
X524059Y3684123D01*
X524156Y3684162D01*
X524264Y3684211D01*
X524390Y3684250D01*
X524517Y3684279D01*
X524810Y3684338D01*
X524966Y3684348D01*
X525132Y3684357D01*
X525219D01*
X525288Y3684348D01*
D02*
G37*
G36*
X519943Y3684318D02*
X520021D01*
X520216Y3684308D01*
X520421Y3684289D01*
X520635Y3684250D01*
X520840Y3684211D01*
X520938Y3684182D01*
X521025Y3684153D01*
X521035D01*
X521045Y3684143D01*
X521103Y3684123D01*
X521181Y3684074D01*
X521279Y3684006D01*
X521396Y3683928D01*
X521513Y3683821D01*
X521630Y3683694D01*
X521737Y3683538D01*
X521747Y3683518D01*
X521776Y3683460D01*
X521825Y3683372D01*
X521874Y3683255D01*
X521923Y3683109D01*
X521972Y3682943D01*
X522001Y3682767D01*
X522010Y3682572D01*
Y3682563D01*
Y3682543D01*
Y3682504D01*
X522001Y3682455D01*
Y3682397D01*
X521991Y3682328D01*
X521952Y3682173D01*
X521903Y3681987D01*
X521825Y3681802D01*
X521708Y3681607D01*
X521640Y3681509D01*
X521562Y3681422D01*
X521542Y3681402D01*
X521513Y3681382D01*
X521484Y3681343D01*
X521435Y3681314D01*
X521376Y3681265D01*
X521308Y3681226D01*
X521230Y3681178D01*
X521142Y3681129D01*
X521035Y3681080D01*
X520928Y3681031D01*
X520801Y3680982D01*
X520674Y3680934D01*
X520528Y3680895D01*
X520372Y3680865D01*
X520206Y3680836D01*
X520226Y3680826D01*
X520265Y3680807D01*
X520323Y3680778D01*
X520391Y3680739D01*
X520557Y3680631D01*
X520645Y3680573D01*
X520713Y3680514D01*
X520733Y3680495D01*
X520782Y3680456D01*
X520850Y3680378D01*
X520938Y3680280D01*
X521045Y3680154D01*
X521162Y3680007D01*
X521289Y3679841D01*
X521415Y3679656D01*
X522528Y3677920D01*
X521464D01*
X520616Y3679247D01*
Y3679256D01*
X520596Y3679276D01*
X520577Y3679305D01*
X520557Y3679344D01*
X520489Y3679442D01*
X520401Y3679568D01*
X520304Y3679714D01*
X520196Y3679861D01*
X520099Y3679997D01*
X520001Y3680124D01*
X519991Y3680134D01*
X519962Y3680173D01*
X519913Y3680232D01*
X519865Y3680300D01*
X519718Y3680436D01*
X519650Y3680504D01*
X519572Y3680553D01*
X519562Y3680563D01*
X519543Y3680573D01*
X519504Y3680592D01*
X519455Y3680622D01*
X519338Y3680680D01*
X519192Y3680729D01*
X519182D01*
X519162Y3680739D01*
X519123D01*
X519075Y3680748D01*
X519006Y3680758D01*
X518928D01*
X518831Y3680768D01*
X517738D01*
Y3677920D01*
X516890D01*
Y3684328D01*
X519865D01*
X519943Y3684318D01*
D02*
G37*
G36*
X624972Y3741683D02*
X625041D01*
X625206Y3741663D01*
X625401Y3741634D01*
X625616Y3741595D01*
X625831Y3741537D01*
X626035Y3741458D01*
X626045D01*
X626055Y3741449D01*
X626084Y3741439D01*
X626123Y3741419D01*
X626221Y3741361D01*
X626348Y3741293D01*
X626484Y3741195D01*
X626621Y3741078D01*
X626757Y3740941D01*
X626874Y3740786D01*
X626884Y3740766D01*
X626923Y3740707D01*
X626972Y3740610D01*
X627021Y3740493D01*
X627079Y3740347D01*
X627138Y3740171D01*
X627177Y3739986D01*
X627196Y3739781D01*
X626387Y3739722D01*
Y3739732D01*
Y3739752D01*
X626377Y3739781D01*
X626367Y3739820D01*
X626348Y3739927D01*
X626309Y3740064D01*
X626250Y3740210D01*
X626172Y3740356D01*
X626065Y3740503D01*
X625938Y3740629D01*
X625919Y3740639D01*
X625870Y3740678D01*
X625782Y3740727D01*
X625665Y3740786D01*
X625509Y3740844D01*
X625314Y3740893D01*
X625089Y3740932D01*
X624826Y3740941D01*
X624699D01*
X624641Y3740932D01*
X624563D01*
X624397Y3740902D01*
X624212Y3740873D01*
X624026Y3740825D01*
X623851Y3740756D01*
X623773Y3740707D01*
X623704Y3740659D01*
X623695Y3740649D01*
X623656Y3740610D01*
X623597Y3740551D01*
X623539Y3740464D01*
X623470Y3740366D01*
X623422Y3740249D01*
X623382Y3740122D01*
X623363Y3739976D01*
Y3739956D01*
Y3739917D01*
X623373Y3739849D01*
X623392Y3739771D01*
X623422Y3739683D01*
X623470Y3739586D01*
X623529Y3739498D01*
X623607Y3739410D01*
X623617Y3739401D01*
X623665Y3739371D01*
X623695Y3739352D01*
X623734Y3739323D01*
X623792Y3739303D01*
X623860Y3739274D01*
X623938Y3739235D01*
X624026Y3739196D01*
X624124Y3739166D01*
X624241Y3739128D01*
X624377Y3739079D01*
X624524Y3739040D01*
X624689Y3739001D01*
X624875Y3738952D01*
X624885D01*
X624924Y3738942D01*
X624972Y3738932D01*
X625041Y3738913D01*
X625128Y3738893D01*
X625226Y3738864D01*
X625440Y3738815D01*
X625675Y3738747D01*
X625909Y3738679D01*
X626026Y3738649D01*
X626123Y3738611D01*
X626221Y3738571D01*
X626299Y3738542D01*
X626309D01*
X626328Y3738532D01*
X626348Y3738513D01*
X626387Y3738493D01*
X626484Y3738435D01*
X626611Y3738367D01*
X626748Y3738269D01*
X626884Y3738152D01*
X627011Y3738025D01*
X627118Y3737889D01*
X627128Y3737869D01*
X627157Y3737820D01*
X627206Y3737742D01*
X627255Y3737625D01*
X627304Y3737498D01*
X627352Y3737343D01*
X627382Y3737167D01*
X627391Y3736982D01*
Y3736972D01*
Y3736962D01*
Y3736933D01*
Y3736894D01*
X627372Y3736796D01*
X627352Y3736670D01*
X627323Y3736523D01*
X627265Y3736357D01*
X627196Y3736182D01*
X627099Y3736016D01*
X627089Y3735996D01*
X627040Y3735938D01*
X626982Y3735860D01*
X626884Y3735762D01*
X626767Y3735645D01*
X626621Y3735528D01*
X626445Y3735421D01*
X626250Y3735314D01*
X626240D01*
X626221Y3735304D01*
X626192Y3735294D01*
X626152Y3735275D01*
X626104Y3735255D01*
X626045Y3735236D01*
X625889Y3735197D01*
X625714Y3735148D01*
X625499Y3735109D01*
X625275Y3735080D01*
X625021Y3735070D01*
X624875D01*
X624807Y3735080D01*
X624719D01*
X624621Y3735089D01*
X624514Y3735099D01*
X624290Y3735128D01*
X624046Y3735177D01*
X623802Y3735236D01*
X623568Y3735314D01*
X623558D01*
X623539Y3735323D01*
X623509Y3735343D01*
X623470Y3735363D01*
X623363Y3735421D01*
X623236Y3735509D01*
X623080Y3735616D01*
X622934Y3735743D01*
X622778Y3735899D01*
X622641Y3736075D01*
Y3736084D01*
X622631Y3736094D01*
X622612Y3736123D01*
X622593Y3736162D01*
X622563Y3736211D01*
X622534Y3736270D01*
X622475Y3736416D01*
X622417Y3736582D01*
X622358Y3736786D01*
X622319Y3737001D01*
X622300Y3737235D01*
X623100Y3737303D01*
Y3737294D01*
Y3737284D01*
X623109Y3737225D01*
X623129Y3737137D01*
X623148Y3737021D01*
X623187Y3736894D01*
X623227Y3736757D01*
X623285Y3736630D01*
X623353Y3736504D01*
X623363Y3736494D01*
X623392Y3736455D01*
X623441Y3736396D01*
X623519Y3736328D01*
X623607Y3736250D01*
X623714Y3736162D01*
X623851Y3736084D01*
X623997Y3736006D01*
X624007D01*
X624016Y3735996D01*
X624075Y3735977D01*
X624163Y3735948D01*
X624290Y3735918D01*
X624426Y3735880D01*
X624602Y3735850D01*
X624787Y3735831D01*
X624982Y3735821D01*
X625060D01*
X625158Y3735831D01*
X625265Y3735840D01*
X625401Y3735850D01*
X625538Y3735880D01*
X625684Y3735909D01*
X625831Y3735958D01*
X625850Y3735967D01*
X625889Y3735987D01*
X625957Y3736016D01*
X626035Y3736065D01*
X626133Y3736123D01*
X626221Y3736191D01*
X626309Y3736270D01*
X626387Y3736357D01*
X626396Y3736367D01*
X626416Y3736406D01*
X626445Y3736455D01*
X626484Y3736523D01*
X626513Y3736601D01*
X626543Y3736699D01*
X626562Y3736796D01*
X626572Y3736903D01*
Y3736913D01*
Y3736952D01*
X626562Y3737011D01*
X626552Y3737079D01*
X626533Y3737167D01*
X626494Y3737255D01*
X626455Y3737343D01*
X626396Y3737430D01*
X626387Y3737440D01*
X626367Y3737469D01*
X626318Y3737508D01*
X626260Y3737567D01*
X626182Y3737625D01*
X626084Y3737684D01*
X625957Y3737752D01*
X625821Y3737811D01*
X625811Y3737820D01*
X625772Y3737830D01*
X625694Y3737850D01*
X625645Y3737869D01*
X625587Y3737889D01*
X625509Y3737908D01*
X625431Y3737928D01*
X625333Y3737957D01*
X625236Y3737986D01*
X625119Y3738015D01*
X624982Y3738045D01*
X624836Y3738084D01*
X624680Y3738123D01*
X624670D01*
X624641Y3738133D01*
X624592Y3738142D01*
X624533Y3738162D01*
X624465Y3738181D01*
X624387Y3738201D01*
X624202Y3738250D01*
X623997Y3738318D01*
X623792Y3738386D01*
X623607Y3738454D01*
X623519Y3738484D01*
X623451Y3738523D01*
X623441D01*
X623431Y3738532D01*
X623373Y3738571D01*
X623295Y3738620D01*
X623197Y3738688D01*
X623080Y3738776D01*
X622973Y3738874D01*
X622866Y3738991D01*
X622768Y3739118D01*
X622758Y3739137D01*
X622729Y3739186D01*
X622700Y3739254D01*
X622661Y3739352D01*
X622612Y3739469D01*
X622583Y3739605D01*
X622553Y3739761D01*
X622544Y3739917D01*
Y3739927D01*
Y3739937D01*
Y3739966D01*
Y3740005D01*
X622563Y3740093D01*
X622583Y3740210D01*
X622612Y3740356D01*
X622661Y3740503D01*
X622729Y3740668D01*
X622817Y3740825D01*
Y3740834D01*
X622827Y3740844D01*
X622866Y3740893D01*
X622934Y3740971D01*
X623022Y3741068D01*
X623129Y3741166D01*
X623265Y3741273D01*
X623431Y3741381D01*
X623617Y3741468D01*
X623626D01*
X623636Y3741478D01*
X623665Y3741488D01*
X623714Y3741507D01*
X623763Y3741517D01*
X623821Y3741537D01*
X623958Y3741585D01*
X624133Y3741624D01*
X624329Y3741654D01*
X624553Y3741683D01*
X624787Y3741693D01*
X624904D01*
X624972Y3741683D01*
D02*
G37*
G36*
X634453Y3735177D02*
X633624D01*
X632278Y3740054D01*
Y3740064D01*
X632268Y3740083D01*
X632258Y3740113D01*
X632248Y3740151D01*
X632219Y3740259D01*
X632190Y3740376D01*
X632151Y3740512D01*
X632122Y3740629D01*
X632093Y3740737D01*
X632083Y3740776D01*
X632073Y3740805D01*
Y3740786D01*
X632053Y3740737D01*
X632034Y3740649D01*
X632005Y3740551D01*
X631975Y3740424D01*
X631946Y3740308D01*
X631907Y3740181D01*
X631878Y3740054D01*
X630532Y3735177D01*
X629644D01*
X627967Y3741585D01*
X628835D01*
X629800Y3737372D01*
Y3737362D01*
X629810Y3737343D01*
X629820Y3737303D01*
X629830Y3737264D01*
X629839Y3737196D01*
X629859Y3737128D01*
X629898Y3736962D01*
X629937Y3736767D01*
X629986Y3736543D01*
X630025Y3736309D01*
X630074Y3736065D01*
Y3736075D01*
X630083Y3736114D01*
X630093Y3736162D01*
X630112Y3736230D01*
X630132Y3736309D01*
X630151Y3736396D01*
X630210Y3736601D01*
X630259Y3736806D01*
X630308Y3737001D01*
X630327Y3737079D01*
X630347Y3737157D01*
X630356Y3737216D01*
X630366Y3737255D01*
X631585Y3741585D01*
X632609D01*
X633526Y3738337D01*
Y3738328D01*
X633546Y3738279D01*
X633555Y3738220D01*
X633585Y3738133D01*
X633604Y3738025D01*
X633643Y3737898D01*
X633673Y3737752D01*
X633712Y3737596D01*
X633751Y3737430D01*
X633790Y3737255D01*
X633877Y3736865D01*
X633955Y3736465D01*
X634024Y3736065D01*
Y3736075D01*
X634034Y3736094D01*
Y3736123D01*
X634043Y3736172D01*
X634063Y3736230D01*
X634072Y3736299D01*
X634092Y3736377D01*
X634112Y3736465D01*
X634160Y3736670D01*
X634209Y3736913D01*
X634277Y3737177D01*
X634346Y3737459D01*
X635340Y3741585D01*
X636199D01*
X634453Y3735177D01*
D02*
G37*
G36*
X639642D02*
X638852D01*
Y3740190D01*
X638842Y3740181D01*
X638803Y3740142D01*
X638735Y3740093D01*
X638647Y3740025D01*
X638540Y3739937D01*
X638413Y3739849D01*
X638266Y3739742D01*
X638101Y3739644D01*
X638091D01*
X638081Y3739635D01*
X638023Y3739596D01*
X637935Y3739547D01*
X637828Y3739488D01*
X637701Y3739420D01*
X637564Y3739362D01*
X637418Y3739293D01*
X637281Y3739235D01*
Y3740005D01*
X637291D01*
X637311Y3740015D01*
X637350Y3740034D01*
X637389Y3740064D01*
X637447Y3740093D01*
X637515Y3740122D01*
X637672Y3740210D01*
X637847Y3740317D01*
X638042Y3740444D01*
X638237Y3740591D01*
X638423Y3740746D01*
X638432Y3740756D01*
X638442Y3740766D01*
X638501Y3740825D01*
X638588Y3740912D01*
X638696Y3741020D01*
X638813Y3741156D01*
X638930Y3741302D01*
X639037Y3741458D01*
X639125Y3741614D01*
X639642D01*
Y3735177D01*
D02*
G37*
G36*
X788810Y3853718D02*
X788800D01*
X788761D01*
X788702D01*
X788634Y3853728D01*
X788556Y3853738D01*
X788468Y3853748D01*
X788371Y3853777D01*
X788273Y3853806D01*
X788264D01*
X788254Y3853816D01*
X788195Y3853835D01*
X788117Y3853875D01*
X788000Y3853933D01*
X787874Y3854001D01*
X787727Y3854099D01*
X787581Y3854196D01*
X787425Y3854323D01*
X787415D01*
X787405Y3854343D01*
X787347Y3854391D01*
X787259Y3854469D01*
X787142Y3854586D01*
X787005Y3854733D01*
X786840Y3854908D01*
X786654Y3855123D01*
X786449Y3855357D01*
X786440Y3855367D01*
X786410Y3855406D01*
X786371Y3855454D01*
X786303Y3855523D01*
X786235Y3855611D01*
X786147Y3855708D01*
X785962Y3855923D01*
X785737Y3856157D01*
X785513Y3856391D01*
X785406Y3856508D01*
X785298Y3856606D01*
X785191Y3856693D01*
X785094Y3856771D01*
X785084D01*
X785074Y3856791D01*
X785045Y3856810D01*
X785006Y3856830D01*
X784908Y3856888D01*
X784782Y3856956D01*
X784635Y3857025D01*
X784479Y3857083D01*
X784304Y3857122D01*
X784138Y3857142D01*
X784128D01*
X784118D01*
X784060Y3857132D01*
X783972Y3857122D01*
X783865Y3857103D01*
X783738Y3857054D01*
X783611Y3856996D01*
X783475Y3856918D01*
X783348Y3856801D01*
X783338Y3856781D01*
X783299Y3856742D01*
X783250Y3856664D01*
X783182Y3856566D01*
X783123Y3856440D01*
X783075Y3856293D01*
X783036Y3856118D01*
X783026Y3855923D01*
Y3855864D01*
X783036Y3855825D01*
X783045Y3855728D01*
X783065Y3855601D01*
X783114Y3855454D01*
X783172Y3855298D01*
X783260Y3855152D01*
X783377Y3855016D01*
X783397Y3855006D01*
X783436Y3854967D01*
X783514Y3854908D01*
X783621Y3854850D01*
X783757Y3854781D01*
X783913Y3854733D01*
X784099Y3854694D01*
X784313Y3854674D01*
X784226Y3853865D01*
X784216D01*
X784187D01*
X784138Y3853875D01*
X784079Y3853884D01*
X784001Y3853904D01*
X783913Y3853914D01*
X783718Y3853972D01*
X783494Y3854050D01*
X783270Y3854157D01*
X783045Y3854304D01*
X782948Y3854382D01*
X782850Y3854479D01*
X782841Y3854489D01*
X782831Y3854508D01*
X782802Y3854538D01*
X782772Y3854577D01*
X782743Y3854635D01*
X782694Y3854703D01*
X782655Y3854781D01*
X782607Y3854869D01*
X782568Y3854967D01*
X782519Y3855074D01*
X782480Y3855201D01*
X782450Y3855328D01*
X782392Y3855620D01*
X782382Y3855776D01*
X782372Y3855942D01*
Y3856030D01*
X782382Y3856098D01*
X782392Y3856176D01*
X782402Y3856264D01*
X782411Y3856362D01*
X782441Y3856469D01*
X782499Y3856703D01*
X782587Y3856947D01*
X782645Y3857074D01*
X782714Y3857191D01*
X782802Y3857298D01*
X782889Y3857405D01*
X782899Y3857415D01*
X782909Y3857425D01*
X782938Y3857454D01*
X782977Y3857493D01*
X783036Y3857532D01*
X783094Y3857581D01*
X783241Y3857679D01*
X783426Y3857776D01*
X783640Y3857864D01*
X783884Y3857932D01*
X784021Y3857942D01*
X784157Y3857951D01*
X784177D01*
X784226D01*
X784304Y3857942D01*
X784401Y3857932D01*
X784518Y3857913D01*
X784645Y3857883D01*
X784782Y3857844D01*
X784918Y3857786D01*
X784938Y3857776D01*
X784986Y3857756D01*
X785055Y3857717D01*
X785152Y3857659D01*
X785269Y3857591D01*
X785406Y3857503D01*
X785542Y3857386D01*
X785698Y3857259D01*
X785718Y3857239D01*
X785776Y3857191D01*
X785864Y3857103D01*
X785923Y3857044D01*
X785991Y3856976D01*
X786069Y3856898D01*
X786157Y3856801D01*
X786245Y3856703D01*
X786352Y3856596D01*
X786459Y3856479D01*
X786576Y3856342D01*
X786693Y3856206D01*
X786830Y3856049D01*
X786840Y3856040D01*
X786859Y3856020D01*
X786888Y3855981D01*
X786927Y3855933D01*
X787025Y3855815D01*
X787152Y3855669D01*
X787288Y3855523D01*
X787425Y3855367D01*
X787542Y3855240D01*
X787591Y3855191D01*
X787639Y3855143D01*
X787649Y3855133D01*
X787678Y3855113D01*
X787717Y3855074D01*
X787776Y3855025D01*
X787903Y3854918D01*
X788059Y3854811D01*
Y3857961D01*
X788810D01*
Y3853718D01*
D02*
G37*
G36*
X786830Y3853094D02*
X786879Y3853075D01*
X786957Y3853055D01*
X787035Y3853016D01*
X787142Y3852977D01*
X787249Y3852938D01*
X787366Y3852880D01*
X787630Y3852753D01*
X787893Y3852577D01*
X788147Y3852382D01*
X788264Y3852265D01*
X788371Y3852138D01*
X788381Y3852129D01*
X788390Y3852109D01*
X788420Y3852070D01*
X788459Y3852011D01*
X788498Y3851943D01*
X788547Y3851865D01*
X788595Y3851777D01*
X788644Y3851670D01*
X788693Y3851553D01*
X788742Y3851426D01*
X788790Y3851280D01*
X788829Y3851134D01*
X788898Y3850812D01*
X788907Y3850636D01*
X788917Y3850451D01*
Y3850353D01*
X788907Y3850275D01*
Y3850188D01*
X788898Y3850090D01*
X788878Y3849973D01*
X788868Y3849856D01*
X788810Y3849583D01*
X788742Y3849300D01*
X788634Y3849027D01*
X788576Y3848890D01*
X788498Y3848764D01*
X788488Y3848754D01*
X788478Y3848734D01*
X788449Y3848705D01*
X788420Y3848656D01*
X788322Y3848539D01*
X788186Y3848403D01*
X788020Y3848237D01*
X787805Y3848081D01*
X787561Y3847915D01*
X787279Y3847779D01*
X787269D01*
X787240Y3847769D01*
X787200Y3847749D01*
X787142Y3847730D01*
X787064Y3847701D01*
X786976Y3847671D01*
X786879Y3847642D01*
X786761Y3847613D01*
X786645Y3847583D01*
X786508Y3847554D01*
X786215Y3847496D01*
X785903Y3847457D01*
X785562Y3847447D01*
X785552D01*
X785513D01*
X785464D01*
X785396Y3847457D01*
X785308D01*
X785201Y3847466D01*
X785094Y3847476D01*
X784967Y3847496D01*
X784694Y3847544D01*
X784401Y3847603D01*
X784099Y3847701D01*
X783816Y3847827D01*
X783806D01*
X783787Y3847847D01*
X783748Y3847866D01*
X783689Y3847896D01*
X783631Y3847935D01*
X783562Y3847983D01*
X783397Y3848110D01*
X783211Y3848257D01*
X783026Y3848442D01*
X782841Y3848666D01*
X782684Y3848910D01*
Y3848920D01*
X782665Y3848939D01*
X782645Y3848978D01*
X782626Y3849037D01*
X782597Y3849095D01*
X782558Y3849173D01*
X782529Y3849271D01*
X782489Y3849368D01*
X782450Y3849476D01*
X782421Y3849593D01*
X782353Y3849856D01*
X782314Y3850149D01*
X782294Y3850461D01*
Y3850558D01*
X782304Y3850627D01*
X782314Y3850705D01*
X782324Y3850802D01*
X782333Y3850909D01*
X782353Y3851026D01*
X782411Y3851280D01*
X782499Y3851553D01*
X782558Y3851690D01*
X782626Y3851826D01*
X782704Y3851953D01*
X782792Y3852080D01*
X782802Y3852090D01*
X782811Y3852109D01*
X782841Y3852138D01*
X782880Y3852187D01*
X782928Y3852236D01*
X782997Y3852304D01*
X783065Y3852372D01*
X783143Y3852441D01*
X783241Y3852519D01*
X783338Y3852587D01*
X783455Y3852665D01*
X783582Y3852743D01*
X783709Y3852811D01*
X783855Y3852880D01*
X784167Y3852997D01*
X784362Y3852158D01*
X784352D01*
X784333Y3852148D01*
X784294Y3852138D01*
X784245Y3852119D01*
X784187Y3852090D01*
X784118Y3852060D01*
X783972Y3851992D01*
X783806Y3851904D01*
X783631Y3851787D01*
X783475Y3851660D01*
X783338Y3851504D01*
X783328Y3851485D01*
X783289Y3851426D01*
X783241Y3851339D01*
X783172Y3851212D01*
X783114Y3851065D01*
X783065Y3850880D01*
X783026Y3850675D01*
X783016Y3850441D01*
Y3850373D01*
X783026Y3850324D01*
Y3850256D01*
X783036Y3850188D01*
X783065Y3850012D01*
X783104Y3849817D01*
X783172Y3849612D01*
X783260Y3849407D01*
X783377Y3849212D01*
Y3849203D01*
X783397Y3849193D01*
X783445Y3849134D01*
X783523Y3849046D01*
X783631Y3848939D01*
X783767Y3848832D01*
X783923Y3848715D01*
X784118Y3848607D01*
X784333Y3848520D01*
X784343D01*
X784362Y3848510D01*
X784391Y3848500D01*
X784440Y3848491D01*
X784489Y3848471D01*
X784557Y3848461D01*
X784713Y3848422D01*
X784899Y3848383D01*
X785103Y3848354D01*
X785328Y3848334D01*
X785562Y3848325D01*
X785572D01*
X785601D01*
X785640D01*
X785698D01*
X785767Y3848334D01*
X785854D01*
X785942Y3848344D01*
X786040Y3848354D01*
X786264Y3848383D01*
X786508Y3848422D01*
X786752Y3848481D01*
X786986Y3848559D01*
X786996D01*
X787015Y3848568D01*
X787044Y3848588D01*
X787083Y3848607D01*
X787200Y3848656D01*
X787327Y3848734D01*
X787483Y3848842D01*
X787630Y3848969D01*
X787776Y3849115D01*
X787903Y3849290D01*
Y3849300D01*
X787913Y3849310D01*
X787932Y3849339D01*
X787952Y3849378D01*
X787990Y3849485D01*
X788049Y3849622D01*
X788098Y3849778D01*
X788147Y3849963D01*
X788186Y3850168D01*
X788195Y3850383D01*
Y3850451D01*
X788186Y3850500D01*
Y3850558D01*
X788176Y3850636D01*
X788147Y3850802D01*
X788098Y3850988D01*
X788020Y3851192D01*
X787922Y3851387D01*
X787786Y3851582D01*
X787776Y3851592D01*
X787766Y3851602D01*
X787708Y3851660D01*
X787610Y3851748D01*
X787483Y3851855D01*
X787308Y3851963D01*
X787103Y3852080D01*
X786849Y3852177D01*
X786566Y3852255D01*
X786781Y3853104D01*
X786791D01*
X786830Y3853094D01*
D02*
G37*
G36*
X813047Y3855650D02*
X808034D01*
X808044Y3855640D01*
X808083Y3855602D01*
X808131Y3855533D01*
X808199Y3855445D01*
X808287Y3855338D01*
X808375Y3855211D01*
X808482Y3855065D01*
X808580Y3854899D01*
Y3854890D01*
X808590Y3854879D01*
X808629Y3854821D01*
X808678Y3854733D01*
X808736Y3854626D01*
X808804Y3854499D01*
X808863Y3854363D01*
X808931Y3854216D01*
X808990Y3854080D01*
X808219D01*
Y3854090D01*
X808209Y3854109D01*
X808190Y3854148D01*
X808160Y3854187D01*
X808131Y3854246D01*
X808102Y3854314D01*
X808014Y3854470D01*
X807907Y3854646D01*
X807780Y3854841D01*
X807634Y3855036D01*
X807478Y3855221D01*
X807468Y3855231D01*
X807458Y3855240D01*
X807400Y3855299D01*
X807312Y3855387D01*
X807205Y3855494D01*
X807068Y3855611D01*
X806922Y3855728D01*
X806766Y3855836D01*
X806610Y3855923D01*
Y3856440D01*
X813047D01*
Y3855650D01*
D02*
G37*
G36*
Y3851924D02*
X811721Y3851076D01*
X811711D01*
X811691Y3851056D01*
X811662Y3851037D01*
X811623Y3851017D01*
X811525Y3850949D01*
X811399Y3850861D01*
X811252Y3850764D01*
X811106Y3850656D01*
X810969Y3850559D01*
X810843Y3850461D01*
X810833Y3850451D01*
X810794Y3850422D01*
X810735Y3850374D01*
X810667Y3850325D01*
X810531Y3850179D01*
X810462Y3850110D01*
X810414Y3850032D01*
X810404Y3850022D01*
X810394Y3850003D01*
X810375Y3849964D01*
X810345Y3849915D01*
X810287Y3849798D01*
X810238Y3849652D01*
Y3849642D01*
X810228Y3849622D01*
Y3849583D01*
X810219Y3849535D01*
X810209Y3849466D01*
Y3849388D01*
X810199Y3849291D01*
Y3848199D01*
X813047D01*
Y3847350D01*
X806639D01*
Y3850325D01*
X806649Y3850403D01*
Y3850481D01*
X806658Y3850676D01*
X806678Y3850881D01*
X806717Y3851095D01*
X806756Y3851300D01*
X806785Y3851398D01*
X806814Y3851485D01*
Y3851495D01*
X806824Y3851505D01*
X806844Y3851563D01*
X806892Y3851642D01*
X806961Y3851739D01*
X807039Y3851856D01*
X807146Y3851973D01*
X807273Y3852090D01*
X807429Y3852197D01*
X807449Y3852207D01*
X807507Y3852236D01*
X807595Y3852285D01*
X807712Y3852334D01*
X807858Y3852383D01*
X808024Y3852432D01*
X808199Y3852461D01*
X808395Y3852470D01*
X808404D01*
X808424D01*
X808463D01*
X808512Y3852461D01*
X808570D01*
X808638Y3852451D01*
X808794Y3852412D01*
X808980Y3852363D01*
X809165Y3852285D01*
X809360Y3852168D01*
X809458Y3852100D01*
X809546Y3852022D01*
X809565Y3852002D01*
X809585Y3851973D01*
X809624Y3851944D01*
X809653Y3851895D01*
X809702Y3851837D01*
X809741Y3851768D01*
X809789Y3851690D01*
X809838Y3851602D01*
X809887Y3851495D01*
X809936Y3851388D01*
X809984Y3851261D01*
X810033Y3851134D01*
X810072Y3850988D01*
X810101Y3850832D01*
X810131Y3850666D01*
X810141Y3850686D01*
X810160Y3850724D01*
X810189Y3850783D01*
X810228Y3850851D01*
X810336Y3851017D01*
X810394Y3851105D01*
X810453Y3851173D01*
X810472Y3851193D01*
X810511Y3851241D01*
X810589Y3851310D01*
X810687Y3851398D01*
X810814Y3851505D01*
X810960Y3851622D01*
X811126Y3851749D01*
X811311Y3851876D01*
X813047Y3852987D01*
Y3851924D01*
D02*
G37*
G36*
X638942Y3250851D02*
X639011D01*
X639177Y3250831D01*
X639372Y3250802D01*
X639586Y3250763D01*
X639801Y3250704D01*
X640006Y3250626D01*
X640015D01*
X640025Y3250616D01*
X640054Y3250607D01*
X640093Y3250587D01*
X640191Y3250529D01*
X640318Y3250461D01*
X640454Y3250363D01*
X640591Y3250246D01*
X640727Y3250109D01*
X640844Y3249953D01*
X640854Y3249934D01*
X640893Y3249875D01*
X640942Y3249778D01*
X640991Y3249661D01*
X641049Y3249514D01*
X641108Y3249339D01*
X641147Y3249153D01*
X641166Y3248948D01*
X640357Y3248890D01*
Y3248900D01*
Y3248919D01*
X640347Y3248948D01*
X640337Y3248988D01*
X640318Y3249095D01*
X640279Y3249231D01*
X640220Y3249378D01*
X640142Y3249524D01*
X640035Y3249670D01*
X639908Y3249797D01*
X639889Y3249807D01*
X639840Y3249846D01*
X639752Y3249895D01*
X639635Y3249953D01*
X639479Y3250012D01*
X639284Y3250060D01*
X639059Y3250099D01*
X638796Y3250109D01*
X638669D01*
X638611Y3250099D01*
X638533D01*
X638367Y3250070D01*
X638182Y3250041D01*
X637996Y3249992D01*
X637821Y3249924D01*
X637743Y3249875D01*
X637674Y3249826D01*
X637665Y3249817D01*
X637626Y3249778D01*
X637567Y3249719D01*
X637509Y3249631D01*
X637440Y3249534D01*
X637392Y3249417D01*
X637353Y3249290D01*
X637333Y3249144D01*
Y3249124D01*
Y3249085D01*
X637343Y3249017D01*
X637362Y3248939D01*
X637392Y3248851D01*
X637440Y3248753D01*
X637499Y3248666D01*
X637577Y3248578D01*
X637587Y3248568D01*
X637635Y3248539D01*
X637665Y3248519D01*
X637704Y3248490D01*
X637762Y3248470D01*
X637831Y3248441D01*
X637909Y3248402D01*
X637996Y3248363D01*
X638094Y3248334D01*
X638211Y3248295D01*
X638348Y3248246D01*
X638494Y3248207D01*
X638660Y3248168D01*
X638845Y3248120D01*
X638855D01*
X638894Y3248110D01*
X638942Y3248100D01*
X639011Y3248080D01*
X639099Y3248061D01*
X639196Y3248032D01*
X639411Y3247983D01*
X639645Y3247915D01*
X639879Y3247846D01*
X639996Y3247817D01*
X640093Y3247778D01*
X640191Y3247739D01*
X640269Y3247710D01*
X640279D01*
X640298Y3247700D01*
X640318Y3247681D01*
X640357Y3247661D01*
X640454Y3247603D01*
X640581Y3247534D01*
X640718Y3247437D01*
X640854Y3247320D01*
X640981Y3247193D01*
X641088Y3247056D01*
X641098Y3247037D01*
X641127Y3246988D01*
X641176Y3246910D01*
X641225Y3246793D01*
X641274Y3246666D01*
X641322Y3246510D01*
X641352Y3246335D01*
X641361Y3246149D01*
Y3246140D01*
Y3246130D01*
Y3246100D01*
Y3246061D01*
X641342Y3245964D01*
X641322Y3245837D01*
X641293Y3245691D01*
X641235Y3245525D01*
X641166Y3245349D01*
X641069Y3245184D01*
X641059Y3245164D01*
X641010Y3245106D01*
X640952Y3245027D01*
X640854Y3244930D01*
X640737Y3244813D01*
X640591Y3244696D01*
X640415Y3244589D01*
X640220Y3244482D01*
X640210D01*
X640191Y3244472D01*
X640162Y3244462D01*
X640123Y3244442D01*
X640074Y3244423D01*
X640015Y3244403D01*
X639859Y3244364D01*
X639684Y3244315D01*
X639469Y3244277D01*
X639245Y3244247D01*
X638991Y3244238D01*
X638845D01*
X638777Y3244247D01*
X638689D01*
X638591Y3244257D01*
X638484Y3244267D01*
X638260Y3244296D01*
X638016Y3244345D01*
X637772Y3244403D01*
X637538Y3244482D01*
X637528D01*
X637509Y3244491D01*
X637479Y3244511D01*
X637440Y3244530D01*
X637333Y3244589D01*
X637206Y3244677D01*
X637050Y3244784D01*
X636904Y3244911D01*
X636748Y3245067D01*
X636611Y3245242D01*
Y3245252D01*
X636602Y3245262D01*
X636582Y3245291D01*
X636563Y3245330D01*
X636533Y3245379D01*
X636504Y3245437D01*
X636446Y3245583D01*
X636387Y3245750D01*
X636329Y3245954D01*
X636289Y3246169D01*
X636270Y3246403D01*
X637070Y3246471D01*
Y3246461D01*
Y3246452D01*
X637080Y3246393D01*
X637099Y3246305D01*
X637119Y3246188D01*
X637158Y3246061D01*
X637197Y3245925D01*
X637255Y3245798D01*
X637323Y3245671D01*
X637333Y3245662D01*
X637362Y3245623D01*
X637411Y3245564D01*
X637489Y3245496D01*
X637577Y3245418D01*
X637684Y3245330D01*
X637821Y3245252D01*
X637967Y3245174D01*
X637977D01*
X637987Y3245164D01*
X638045Y3245145D01*
X638133Y3245115D01*
X638260Y3245086D01*
X638396Y3245047D01*
X638572Y3245018D01*
X638757Y3244998D01*
X638952Y3244989D01*
X639030D01*
X639128Y3244998D01*
X639235Y3245008D01*
X639372Y3245018D01*
X639508Y3245047D01*
X639655Y3245076D01*
X639801Y3245125D01*
X639820Y3245135D01*
X639859Y3245154D01*
X639928Y3245184D01*
X640006Y3245233D01*
X640103Y3245291D01*
X640191Y3245359D01*
X640279Y3245437D01*
X640357Y3245525D01*
X640367Y3245535D01*
X640386Y3245574D01*
X640415Y3245623D01*
X640454Y3245691D01*
X640484Y3245769D01*
X640513Y3245866D01*
X640532Y3245964D01*
X640542Y3246071D01*
Y3246081D01*
Y3246120D01*
X640532Y3246179D01*
X640523Y3246247D01*
X640503Y3246335D01*
X640464Y3246422D01*
X640425Y3246510D01*
X640367Y3246598D01*
X640357Y3246608D01*
X640337Y3246637D01*
X640288Y3246676D01*
X640230Y3246735D01*
X640152Y3246793D01*
X640054Y3246852D01*
X639928Y3246920D01*
X639791Y3246978D01*
X639781Y3246988D01*
X639742Y3246998D01*
X639664Y3247017D01*
X639616Y3247037D01*
X639557Y3247056D01*
X639479Y3247076D01*
X639401Y3247095D01*
X639303Y3247125D01*
X639206Y3247154D01*
X639089Y3247183D01*
X638952Y3247213D01*
X638806Y3247251D01*
X638650Y3247290D01*
X638640D01*
X638611Y3247300D01*
X638562Y3247310D01*
X638504Y3247329D01*
X638435Y3247349D01*
X638357Y3247368D01*
X638172Y3247417D01*
X637967Y3247485D01*
X637762Y3247554D01*
X637577Y3247622D01*
X637489Y3247651D01*
X637421Y3247690D01*
X637411D01*
X637401Y3247700D01*
X637343Y3247739D01*
X637265Y3247788D01*
X637167Y3247856D01*
X637050Y3247944D01*
X636943Y3248041D01*
X636836Y3248159D01*
X636738Y3248285D01*
X636728Y3248305D01*
X636699Y3248354D01*
X636670Y3248422D01*
X636631Y3248519D01*
X636582Y3248636D01*
X636553Y3248773D01*
X636524Y3248929D01*
X636514Y3249085D01*
Y3249095D01*
Y3249105D01*
Y3249134D01*
Y3249173D01*
X636533Y3249261D01*
X636553Y3249378D01*
X636582Y3249524D01*
X636631Y3249670D01*
X636699Y3249836D01*
X636787Y3249992D01*
Y3250002D01*
X636797Y3250012D01*
X636836Y3250060D01*
X636904Y3250139D01*
X636992Y3250236D01*
X637099Y3250334D01*
X637236Y3250441D01*
X637401Y3250548D01*
X637587Y3250636D01*
X637597D01*
X637606Y3250646D01*
X637635Y3250656D01*
X637684Y3250675D01*
X637733Y3250685D01*
X637792Y3250704D01*
X637928Y3250753D01*
X638104Y3250792D01*
X638299Y3250821D01*
X638523Y3250851D01*
X638757Y3250860D01*
X638874D01*
X638942Y3250851D01*
D02*
G37*
G36*
X648423Y3244345D02*
X647594D01*
X646248Y3249221D01*
Y3249231D01*
X646238Y3249251D01*
X646228Y3249280D01*
X646219Y3249319D01*
X646189Y3249427D01*
X646160Y3249543D01*
X646121Y3249680D01*
X646092Y3249797D01*
X646063Y3249904D01*
X646053Y3249944D01*
X646043Y3249973D01*
Y3249953D01*
X646024Y3249904D01*
X646004Y3249817D01*
X645975Y3249719D01*
X645946Y3249592D01*
X645916Y3249475D01*
X645877Y3249348D01*
X645848Y3249221D01*
X644502Y3244345D01*
X643615D01*
X641937Y3250753D01*
X642805D01*
X643771Y3246539D01*
Y3246530D01*
X643780Y3246510D01*
X643790Y3246471D01*
X643800Y3246432D01*
X643810Y3246364D01*
X643829Y3246295D01*
X643868Y3246130D01*
X643907Y3245935D01*
X643956Y3245710D01*
X643995Y3245476D01*
X644044Y3245233D01*
Y3245242D01*
X644053Y3245281D01*
X644063Y3245330D01*
X644083Y3245398D01*
X644102Y3245476D01*
X644122Y3245564D01*
X644180Y3245769D01*
X644229Y3245974D01*
X644278Y3246169D01*
X644297Y3246247D01*
X644317Y3246325D01*
X644326Y3246383D01*
X644336Y3246422D01*
X645555Y3250753D01*
X646580D01*
X647496Y3247505D01*
Y3247495D01*
X647516Y3247447D01*
X647526Y3247388D01*
X647555Y3247300D01*
X647574Y3247193D01*
X647613Y3247066D01*
X647643Y3246920D01*
X647682Y3246764D01*
X647721Y3246598D01*
X647760Y3246422D01*
X647848Y3246032D01*
X647926Y3245632D01*
X647994Y3245233D01*
Y3245242D01*
X648004Y3245262D01*
Y3245291D01*
X648013Y3245340D01*
X648033Y3245398D01*
X648043Y3245467D01*
X648062Y3245544D01*
X648082Y3245632D01*
X648130Y3245837D01*
X648179Y3246081D01*
X648247Y3246344D01*
X648316Y3246627D01*
X649311Y3250753D01*
X650169D01*
X648423Y3244345D01*
D02*
G37*
G36*
X652919Y3250772D02*
X652997Y3250763D01*
X653085Y3250753D01*
X653183Y3250743D01*
X653290Y3250714D01*
X653524Y3250656D01*
X653768Y3250568D01*
X653895Y3250509D01*
X654012Y3250441D01*
X654119Y3250353D01*
X654226Y3250265D01*
X654236Y3250255D01*
X654246Y3250246D01*
X654275Y3250216D01*
X654314Y3250178D01*
X654353Y3250119D01*
X654402Y3250060D01*
X654500Y3249914D01*
X654597Y3249729D01*
X654685Y3249514D01*
X654753Y3249270D01*
X654763Y3249134D01*
X654773Y3248997D01*
Y3248978D01*
Y3248929D01*
X654763Y3248851D01*
X654753Y3248753D01*
X654734Y3248636D01*
X654704Y3248510D01*
X654665Y3248373D01*
X654607Y3248236D01*
X654597Y3248217D01*
X654577Y3248168D01*
X654538Y3248100D01*
X654480Y3248002D01*
X654412Y3247885D01*
X654324Y3247749D01*
X654207Y3247612D01*
X654080Y3247456D01*
X654061Y3247437D01*
X654012Y3247378D01*
X653924Y3247290D01*
X653866Y3247232D01*
X653797Y3247164D01*
X653719Y3247086D01*
X653622Y3246998D01*
X653524Y3246910D01*
X653417Y3246803D01*
X653300Y3246696D01*
X653163Y3246578D01*
X653027Y3246461D01*
X652871Y3246325D01*
X652861Y3246315D01*
X652841Y3246295D01*
X652802Y3246266D01*
X652754Y3246227D01*
X652636Y3246130D01*
X652490Y3246003D01*
X652344Y3245866D01*
X652188Y3245730D01*
X652061Y3245613D01*
X652012Y3245564D01*
X651964Y3245515D01*
X651954Y3245505D01*
X651934Y3245476D01*
X651895Y3245437D01*
X651846Y3245379D01*
X651739Y3245252D01*
X651632Y3245096D01*
X654782D01*
Y3244345D01*
X650539D01*
Y3244355D01*
Y3244394D01*
Y3244452D01*
X650549Y3244520D01*
X650559Y3244598D01*
X650569Y3244686D01*
X650598Y3244784D01*
X650627Y3244881D01*
Y3244891D01*
X650637Y3244901D01*
X650657Y3244959D01*
X650696Y3245038D01*
X650754Y3245154D01*
X650822Y3245281D01*
X650920Y3245428D01*
X651017Y3245574D01*
X651144Y3245730D01*
Y3245740D01*
X651164Y3245750D01*
X651212Y3245808D01*
X651291Y3245896D01*
X651408Y3246013D01*
X651554Y3246149D01*
X651730Y3246315D01*
X651944Y3246501D01*
X652178Y3246705D01*
X652188Y3246715D01*
X652227Y3246744D01*
X652276Y3246783D01*
X652344Y3246852D01*
X652432Y3246920D01*
X652529Y3247008D01*
X652744Y3247193D01*
X652978Y3247417D01*
X653212Y3247642D01*
X653329Y3247749D01*
X653427Y3247856D01*
X653514Y3247963D01*
X653592Y3248061D01*
Y3248071D01*
X653612Y3248080D01*
X653631Y3248110D01*
X653651Y3248149D01*
X653709Y3248246D01*
X653778Y3248373D01*
X653846Y3248519D01*
X653904Y3248676D01*
X653943Y3248851D01*
X653963Y3249017D01*
Y3249026D01*
Y3249036D01*
X653953Y3249095D01*
X653943Y3249183D01*
X653924Y3249290D01*
X653875Y3249417D01*
X653817Y3249543D01*
X653739Y3249680D01*
X653622Y3249807D01*
X653602Y3249817D01*
X653563Y3249856D01*
X653485Y3249904D01*
X653388Y3249973D01*
X653261Y3250031D01*
X653114Y3250080D01*
X652939Y3250119D01*
X652744Y3250129D01*
X652685D01*
X652646Y3250119D01*
X652549Y3250109D01*
X652422Y3250090D01*
X652276Y3250041D01*
X652120Y3249982D01*
X651973Y3249895D01*
X651837Y3249778D01*
X651827Y3249758D01*
X651788Y3249719D01*
X651730Y3249641D01*
X651671Y3249534D01*
X651603Y3249397D01*
X651554Y3249241D01*
X651515Y3249056D01*
X651495Y3248841D01*
X650686Y3248929D01*
Y3248939D01*
Y3248968D01*
X650696Y3249017D01*
X650705Y3249075D01*
X650725Y3249153D01*
X650735Y3249241D01*
X650793Y3249436D01*
X650871Y3249661D01*
X650978Y3249885D01*
X651125Y3250109D01*
X651203Y3250207D01*
X651300Y3250304D01*
X651310Y3250314D01*
X651330Y3250324D01*
X651359Y3250353D01*
X651398Y3250382D01*
X651456Y3250412D01*
X651525Y3250461D01*
X651603Y3250499D01*
X651690Y3250548D01*
X651788Y3250587D01*
X651895Y3250636D01*
X652022Y3250675D01*
X652149Y3250704D01*
X652441Y3250763D01*
X652598Y3250772D01*
X652763Y3250782D01*
X652851D01*
X652919Y3250772D01*
D02*
G37*
%LPC*%
G36*
X519757Y3683616D02*
X517738D01*
Y3681499D01*
X519650D01*
X519757Y3681509D01*
X519884Y3681519D01*
X520031Y3681529D01*
X520187Y3681548D01*
X520333Y3681577D01*
X520460Y3681617D01*
X520479Y3681626D01*
X520518Y3681636D01*
X520577Y3681665D01*
X520645Y3681704D01*
X520723Y3681763D01*
X520811Y3681831D01*
X520889Y3681909D01*
X520957Y3681997D01*
X520967Y3682007D01*
X520986Y3682046D01*
X521016Y3682094D01*
X521045Y3682173D01*
X521074Y3682250D01*
X521103Y3682348D01*
X521123Y3682455D01*
X521133Y3682572D01*
Y3682582D01*
Y3682592D01*
Y3682650D01*
X521113Y3682728D01*
X521094Y3682836D01*
X521055Y3682953D01*
X520996Y3683080D01*
X520908Y3683206D01*
X520801Y3683323D01*
X520782Y3683333D01*
X520742Y3683372D01*
X520655Y3683421D01*
X520547Y3683470D01*
X520401Y3683528D01*
X520226Y3683567D01*
X520011Y3683606D01*
X519757Y3683616D01*
D02*
G37*
G36*
X808395Y3851593D02*
X808385D01*
X808375D01*
X808317D01*
X808239Y3851573D01*
X808131Y3851554D01*
X808014Y3851515D01*
X807887Y3851456D01*
X807761Y3851368D01*
X807644Y3851261D01*
X807634Y3851241D01*
X807595Y3851202D01*
X807546Y3851115D01*
X807497Y3851007D01*
X807439Y3850861D01*
X807400Y3850686D01*
X807361Y3850471D01*
X807351Y3850217D01*
Y3848199D01*
X809467D01*
Y3850110D01*
X809458Y3850217D01*
X809448Y3850344D01*
X809438Y3850490D01*
X809419Y3850647D01*
X809389Y3850793D01*
X809351Y3850920D01*
X809341Y3850939D01*
X809331Y3850978D01*
X809302Y3851037D01*
X809263Y3851105D01*
X809204Y3851183D01*
X809136Y3851271D01*
X809058Y3851349D01*
X808970Y3851417D01*
X808960Y3851427D01*
X808921Y3851447D01*
X808873Y3851476D01*
X808794Y3851505D01*
X808717Y3851534D01*
X808619Y3851563D01*
X808512Y3851583D01*
X808395Y3851593D01*
D02*
G37*
%LPD*%
D10*
X596440Y3251020D02*
G03*
X596440Y3251020I-105000J0D01*
G01*
X1073380D02*
G03*
X1073380Y3251020I-105000J0D01*
G01*
D11*
X502890Y3672420D02*
Y3683420D01*
Y3672420D02*
X530890D01*
Y3683420D01*
X502890D02*
X530890D01*
X600300Y3720570D02*
Y3749570D01*
Y3720570D02*
X644300D01*
Y3749570D01*
X600300D02*
X644300D01*
X778856Y3828386D02*
Y3866508D01*
X798978D01*
Y3828386D02*
Y3866508D01*
X778856Y3828386D02*
X798978D01*
X807547Y3833350D02*
Y3861350D01*
X818547D01*
Y3833350D02*
Y3861350D01*
X807547Y3833350D02*
X818547D01*
X599710Y3311890D02*
X672830D01*
Y3180350D02*
Y3311890D01*
X599710Y3180350D02*
X672830D01*
X599710D02*
Y3311890D01*
X1066920Y3140980D02*
G03*
X1077440Y3151500I0J10520D01*
G01*
X384430D02*
G03*
X394950Y3140980I10520J0D01*
G01*
X1077440Y3959500D02*
G03*
X1066920Y3970020I-10520J0D01*
G01*
X394950Y3970000D02*
G03*
X384430Y3959480I0J-10520D01*
G01*
X1077400Y3151011D02*
Y3959500D01*
X394940Y3140990D02*
X1067380D01*
X384430Y3151500D02*
Y3959480D01*
X394950Y3970000D02*
X1067380D01*
M02*
