G04*
G04 #@! TF.GenerationSoftware,Altium Limited,Altium Designer,20.0.10 (225)*
G04*
G04 Layer_Color=128*
%FSLAX25Y25*%
%MOIN*%
G70*
G01*
G75*
%ADD13C,0.00200*%
D13*
X306547Y331500D02*
X312453D01*
X309500Y328547D02*
Y334453D01*
X294547Y314000D02*
X300453D01*
X297500Y311047D02*
Y316953D01*
X282047Y331000D02*
X287953D01*
X285000Y328047D02*
Y333953D01*
X273287Y316500D02*
X279193D01*
X276240Y313547D02*
Y319453D01*
X315807Y316500D02*
X321713D01*
X318760Y313547D02*
Y319453D01*
X278799Y299787D02*
X284705D01*
X281752Y296835D02*
Y302740D01*
X294547Y294315D02*
X300453D01*
X297500Y291362D02*
Y297268D01*
X310295Y299787D02*
X316201D01*
X313248Y296835D02*
Y302740D01*
X401047Y333500D02*
X406953D01*
X404000Y330547D02*
Y336453D01*
X389047Y316000D02*
X394953D01*
X392000Y313047D02*
Y318953D01*
X376547Y333000D02*
X382453D01*
X379500Y330047D02*
Y335953D01*
X367787Y318500D02*
X373693D01*
X370740Y315547D02*
Y321453D01*
X410307Y318500D02*
X416213D01*
X413260Y315547D02*
Y321453D01*
X373299Y301787D02*
X379205D01*
X376252Y298835D02*
Y304740D01*
X389047Y296315D02*
X394953D01*
X392000Y293362D02*
Y299268D01*
X404795Y301787D02*
X410701D01*
X407748Y298835D02*
Y304740D01*
M02*
