M48
;Layer_Color=9474304
;FILE_FORMAT=2:5
INCH,LZ
T14F00S00C0.01200
%
G90
G05
T14
G00X0421211Y1236006
M15
G01X0421307Y1235976
G01X0422539Y1236158
G01X0423682Y1236654
G01X0424658Y1237429
G01X04254Y123843
G01X0425858Y1239588
G01X0425958Y1240387
G01X042597Y1558842
G01X0426Y1558937
G01X0425818Y1560164
G01X0425323Y1561306
G01X0424549Y1562281
G01X0423549Y1563023
G01X0422391Y156348
G01X0421232Y1563628
G01X015551Y1563592
G01X0155414Y1563623
G01X0154181Y156344
G01X0153038Y1562944
G01X0152062Y156217
G01X015132Y1561169
G01X0150862Y156001
G01X0150715Y155885
G01X015075Y1240766
G01X015072Y124067
G01X0150903Y1239437
G01X0151398Y1238294
G01X0152173Y1237318
G01X0153174Y1236576
G01X0154333Y1236118
G01X0155492Y1235971
G01X0421211Y1236006
M16
M17
M30
