M48
;Layer_Color=9474304
;FILE_FORMAT=2:5
INCH,LZ
;TYPE=PLATED
T2F00S00C0.02000
T3F00S00C0.02559
T4F00S00C0.02800
T5F00S00C0.03150
T6F00S00C0.03543
T7F00S00C0.04000
T8F00S00C0.04134
T9F00S00C0.04331
T10F00S00C0.04724
T11F00S00C0.05512
T12F00S00C0.05906
T13F00S00C0.07300
;TYPE=NON_PLATED
T15F00S00C0.02953
%
T02
X015748Y1244094
X0173228
X0188976Y127559
X019685Y1291339
X0204658Y1294369
X0205428Y1302284
X0213942Y1305716
X0212598Y1322834
X019685
X0181102
X0165354
X015748Y1338583
X0173228
X0188976
X0191459Y1355463
X0183567Y1354485
X0177975Y136014
X0173228Y1370079
X0185757Y1367473
X0193635Y1366381
X0201588Y1366366
X0209461Y1367483
X0217414
X022531Y1366537
X0232399Y1362932
X023622Y1370079
X0238022Y1357308
X0244094Y1354331
X0240037Y1349615
Y1341662
X0228963Y1342072
Y1350025
X0223107Y1355406
X0256048Y1362969
X0251969Y1370079
X0272303Y1367363
X0283463Y1364737
X028343Y137269
X0282757Y1380614
X0289339Y1385077
X0297224Y1384037
X0305176
X03066Y1372963
X0304411Y1367483
X0312357Y1367147
X0298647Y1372963
X027559Y1385827
X0259842
X0284537Y1350898
Y1342945
X0286545Y1322944
X0278593Y1323017
X0274978Y1315934
X0276653Y1308159
X0287805Y1307802
X0289519Y1315568
X0300691Y1318915
X0301706Y1311027
X0303381Y1305537
X0311334
X0308717Y1294463
X0300764
X0292811
X02965Y12865
X0306539Y1286469
X0310203Y1271963
X030225
X0294297
X0286344
X0278392
X0270439
X0267537Y1265082
X0265838Y1257313
X027559Y1259842
X0291338
X0307087
X0285765Y1286969
X02805Y12925
X0273468Y1298265
X0268382Y1285388
X0256463Y1288587
X0251368Y1285943
X0243416Y1286062
X0238345Y1279936
X0240005Y1272159
X0240041Y1264882
X0238329Y1257116
X0228346Y1259842
X0247167Y1268414
X0254556Y1271366
X0254356Y1265013
X0256463Y129654
X0262319Y1311012
X0256696Y1316635
X0259842Y1322834
X0251072Y1322258
X0245449Y1327882
X0236809Y132086
X0242433Y1315236
X0248056Y1309613
X0237226Y1302648
X0234571Y1291549
X0210917Y1289463
X0188976Y1307086
X0173228
X015748
Y127559
X0165354Y1354331
X015748Y1370079
X0165354Y1385827
X015748Y1401575
X0295527Y1324963
X0295428Y1305537
X0316963Y1311155
Y1319108
Y1327061
Y1342966
Y1350919
X0314452Y1359475
X0320272Y1366103
X0322506Y1372963
X0314553
X0313129Y1384037
X0321082
X0327862Y1388193
X0314961Y1401575
X0329772Y1359941
X0328037Y1352179
Y1344227
X0338583Y1354331
X0347709Y1357036
X034772Y1364989
X0351447Y1372015
X0355212Y137902
X0365489Y136973
X036642Y1361832
X0370079Y1354331
X0391026Y1357434
Y1365387
Y137334
X0405963Y1375741
Y1367788
Y1359835
Y1351882
Y134393
Y1335977
Y1328024
X0398724Y1333286
X0392253Y1322537
X03843
X0376348
X0368395
X0360469Y1321887
X0353Y13215
X0349069Y131581
X0343401Y1310232
X0337777Y1304608
X0341811Y129298
X0336188Y1287357
X0330564Y1281734
X0324941Y127611
X0318155Y1271963
X0314235Y1286469
X031667Y1294463
X0322835Y1291339
X0323963Y1297633
X0338583Y1322834
X0360819Y1305963
X0368772
X0376725
X0384463Y1304126
X0382325Y1296466
X0387083Y1290094
X0393701Y127559
X0409449
X0417323Y1291339
X0405714Y1309213
X0410689Y1316093
X0416182Y1321844
X0417037Y1329751
Y1337703
Y1345656
Y1353609
Y1361562
Y1369514
Y1377467
Y138542
X0412727Y1392103
X0406115Y1396522
X0396628Y1396537
X039774Y1385463
X040549Y1383679
X0388467Y1346971
X0335395Y1365564
X0341019Y1371188
X0349292Y1280344
X0354882Y1274688
X0362656Y1276364
X0365407Y1283826
X0360595Y1290158
X0354331Y1259842
X0370079
X0401575
X0417323
X0338583
T03
X0267201Y1542614
X0282949
T04
X02035Y1341
X03625Y125
X03615Y14565
X0336Y1523
X0310648Y1503148
X0301765Y1494443
X0288Y14915
X0278Y1474
X0278455Y1441733
X027Y1447
X02555Y14605
X0308Y1466
X0273Y152
X0248868Y1522658
T05
X0206Y1401
X0236
X0250833
X0280833
X0295667
X0325667
X03405
X03705
Y1411
Y1421
X03405
Y1411
X0325667
Y1421
X0295667
Y1411
X0280833
Y1421
X0250833
Y1411
X0236
Y1421
X0206
Y1411
T06
X0316Y15495
X0326
X0336
X0346
X0356
X0306
T07
X01845Y1361
X0289Y13785
X03205Y1481
X0238Y14815
X0211Y1438
X0197
T08
X0175791Y1413
Y1423
Y1446
Y1456
T09
X037937Y1341768
Y1351768
Y1365268
Y1375268
T10
X02075Y1544
X02175
T11
X0282248Y1315747
X0307248
X0332248
T12
X01845Y1265901
X0200248Y1260428
Y1280113
X0221508Y1282613
X0215996Y1265901
X0212248Y1297613
X0187748Y1297113
X0178989Y1282613
X035724
X0362752Y1265901
X03785Y1260428
Y1280113
X039976Y1282613
X0394248Y1265901
X03905Y1297613
X0366Y1297113
T13
X0247248Y1259247
Y1277747
Y1296247
T15
X0245Y14705
M30
