G04*
G04 #@! TF.GenerationSoftware,Altium Limited,Altium Designer,20.0.10 (225)*
G04*
G04 Layer_Physical_Order=1*
G04 Layer_Color=255*
%FSLAX25Y25*%
%MOIN*%
G70*
G01*
G75*
%ADD10C,0.00787*%
%ADD11C,0.01000*%
%ADD17C,0.03937*%
%ADD20R,0.03543X0.03150*%
%ADD21R,0.03150X0.06693*%
%ADD22R,0.03740X0.03347*%
%ADD23R,0.02362X0.03543*%
%ADD24R,0.01972X0.04375*%
%ADD25R,0.03543X0.02362*%
%ADD26R,0.04134X0.03740*%
%ADD27R,0.03985X0.04758*%
%ADD28R,0.03150X0.03543*%
%ADD29R,0.03543X0.09843*%
%ADD30R,0.11811X0.05906*%
%ADD31R,0.02756X0.03543*%
%ADD32R,0.03740X0.04134*%
%ADD33R,0.03150X0.03150*%
%ADD34R,0.03543X0.02756*%
%ADD35R,0.03000X0.02800*%
%ADD36R,0.01600X0.09055*%
%ADD37R,0.03937X0.03543*%
%ADD49C,0.02953*%
%ADD59R,0.11237X0.11237*%
%ADD60C,0.11237*%
%ADD61R,0.05118X0.05118*%
%ADD62C,0.05118*%
%ADD66C,0.01394*%
%ADD67C,0.01772*%
%ADD68C,0.02165*%
%ADD69C,0.02953*%
%ADD70C,0.02559*%
%ADD71C,0.02126*%
%ADD72C,0.02756*%
%ADD73C,0.02969*%
%ADD74C,0.06102*%
%ADD75C,0.09449*%
%ADD76R,0.07087X0.06693*%
%ADD77O,0.07480X0.07874*%
%ADD78R,0.06102X0.06102*%
%ADD79C,0.05906*%
%ADD80R,0.05906X0.05906*%
%ADD81O,0.07874X0.11811*%
%ADD82R,0.07480X0.07480*%
%ADD83C,0.07480*%
%ADD84C,0.02559*%
G04:AMPARAMS|DCode=85|XSize=41.34mil|YSize=72.84mil|CornerRadius=10.34mil|HoleSize=0mil|Usage=FLASHONLY|Rotation=180.000|XOffset=0mil|YOffset=0mil|HoleType=Round|Shape=RoundedRectangle|*
%AMROUNDEDRECTD85*
21,1,0.04134,0.05217,0,0,180.0*
21,1,0.02067,0.07284,0,0,180.0*
1,1,0.02067,-0.01034,0.02608*
1,1,0.02067,0.01034,0.02608*
1,1,0.02067,0.01034,-0.02608*
1,1,0.02067,-0.01034,-0.02608*
%
%ADD85ROUNDEDRECTD85*%
%ADD86C,0.05000*%
G36*
X318048Y1547314D02*
X318032Y1547120D01*
X317993Y1545844D01*
X317969Y1541394D01*
X314032D01*
X313933Y1547391D01*
X318067D01*
X318048Y1547314D01*
D02*
G37*
G36*
X337876Y1547149D02*
X337705Y1546814D01*
X337555Y1546388D01*
X337424Y1545871D01*
X337314Y1545261D01*
X337153Y1543768D01*
X337073Y1541907D01*
X337063Y1540840D01*
X334937D01*
X334927Y1541907D01*
X334686Y1545261D01*
X334576Y1545871D01*
X334445Y1546388D01*
X334295Y1546814D01*
X334124Y1547149D01*
X333933Y1547391D01*
X338067D01*
X337876Y1547149D01*
D02*
G37*
G36*
X337071Y1539803D02*
X337190Y1538368D01*
X337262Y1538017D01*
X337349Y1537731D01*
X337453Y1537507D01*
X337572Y1537348D01*
X337707Y1537252D01*
X337858Y1537220D01*
X334142D01*
X334293Y1537252D01*
X334428Y1537348D01*
X334547Y1537507D01*
X334651Y1537731D01*
X334738Y1538017D01*
X334810Y1538368D01*
X334865Y1538783D01*
X334929Y1539803D01*
X334937Y1540409D01*
X337063D01*
X337071Y1539803D01*
D02*
G37*
G36*
X219805Y1538882D02*
X219735Y1538749D01*
X219672Y1538528D01*
X219618Y1538218D01*
X219572Y1537819D01*
X219485Y1536093D01*
X219468Y1534500D01*
X215531D01*
X215527Y1535341D01*
X215328Y1538528D01*
X215265Y1538749D01*
X215195Y1538882D01*
X215116Y1538926D01*
X219884D01*
X219805Y1538882D01*
D02*
G37*
G36*
X337867Y1536820D02*
X337930Y1536702D01*
X338035Y1536597D01*
X338182Y1536507D01*
X338372Y1536430D01*
X338603Y1536367D01*
X338876Y1536319D01*
X339192Y1536284D01*
X339949Y1536256D01*
Y1534862D01*
X339549Y1534855D01*
X338876Y1534799D01*
X338603Y1534751D01*
X338372Y1534688D01*
X338182Y1534611D01*
X338035Y1534521D01*
X337930Y1534416D01*
X337867Y1534298D01*
X337846Y1534165D01*
Y1536953D01*
X337867Y1536820D01*
D02*
G37*
G36*
X336891Y1528825D02*
X336894Y1528780D01*
X337772D01*
X337603Y1528753D01*
X337453Y1528673D01*
X337320Y1528541D01*
X337205Y1528354D01*
X337107Y1528115D01*
X337028Y1527823D01*
X336979Y1527549D01*
X337087Y1525964D01*
X337159Y1525619D01*
X337243Y1525351D01*
X337338Y1525158D01*
X337444Y1525041D01*
X334556D01*
X334662Y1525158D01*
X334757Y1525351D01*
X334841Y1525619D01*
X334913Y1525964D01*
X334975Y1526384D01*
X335050Y1527288D01*
X335034Y1527478D01*
X334972Y1527823D01*
X334893Y1528115D01*
X334795Y1528354D01*
X334680Y1528541D01*
X334547Y1528673D01*
X334397Y1528753D01*
X334228Y1528780D01*
X335095D01*
X335114Y1529625D01*
X336886D01*
X336891Y1528825D01*
D02*
G37*
G36*
X291123Y1518595D02*
X291091Y1518602D01*
X290996Y1518609D01*
X289391Y1518627D01*
X286357Y1518527D01*
Y1520865D01*
X286389Y1520845D01*
X286485Y1520827D01*
X286644Y1520811D01*
X287505Y1520776D01*
X288453Y1520768D01*
X288542Y1520769D01*
X289565Y1520854D01*
X289981Y1520929D01*
X290333Y1521024D01*
X290621Y1521141D01*
X290845Y1521280D01*
X291006Y1521439D01*
X291102Y1521620D01*
X291135Y1521822D01*
X291123Y1518595D01*
D02*
G37*
G36*
X274073Y1523214D02*
X274028Y1523134D01*
X273989Y1523001D01*
X273956Y1522815D01*
X273927Y1522576D01*
X273886Y1521938D01*
X273862Y1520583D01*
X272091D01*
X272088Y1521088D01*
X271980Y1522815D01*
X271940Y1523001D01*
X271894Y1523134D01*
X271842Y1523214D01*
X271784Y1523240D01*
X274122D01*
X274073Y1523214D01*
D02*
G37*
G36*
X285100Y1522366D02*
X285150Y1521549D01*
X285177Y1521397D01*
X285222Y1521231D01*
X285277Y1521095D01*
X285342Y1520989D01*
X285417Y1520913D01*
X285502Y1520868D01*
X285597Y1520853D01*
X285204D01*
X285221Y1520761D01*
X285259Y1520620D01*
X285301Y1520515D01*
X285349Y1520447D01*
X283845D01*
X283893Y1520515D01*
X283936Y1520620D01*
X283974Y1520761D01*
X283991Y1520853D01*
X283597D01*
X283692Y1520868D01*
X283777Y1520913D01*
X283852Y1520989D01*
X283917Y1521095D01*
X283972Y1521231D01*
X284017Y1521397D01*
X284052Y1521594D01*
X284077Y1521820D01*
X284078Y1521830D01*
X284097Y1522760D01*
X285097D01*
X285100Y1522366D01*
D02*
G37*
G36*
X321302Y1522479D02*
X321215Y1522277D01*
X321137Y1522010D01*
X321071Y1521677D01*
X321014Y1521278D01*
X320985Y1520925D01*
X321010Y1520767D01*
X321079Y1520475D01*
X321164Y1520236D01*
X321265Y1520050D01*
X321381Y1519917D01*
X321513Y1519837D01*
X321660Y1519811D01*
X320921D01*
X320886Y1518305D01*
X319114D01*
X319109Y1519031D01*
X319056Y1519811D01*
X318534D01*
X318645Y1519837D01*
X318743Y1519917D01*
X318830Y1520050D01*
X318905Y1520236D01*
X318969Y1520475D01*
X318999Y1520644D01*
X318929Y1521677D01*
X318863Y1522010D01*
X318785Y1522277D01*
X318698Y1522479D01*
X318601Y1522616D01*
X321399D01*
X321302Y1522479D01*
D02*
G37*
G36*
X274068Y1511714D02*
X274020Y1511634D01*
X273977Y1511501D01*
X273941Y1511315D01*
X273909Y1511076D01*
X273864Y1510438D01*
X273839Y1509083D01*
X272067D01*
X272064Y1509588D01*
X271928Y1511501D01*
X271886Y1511634D01*
X271837Y1511714D01*
X271784Y1511740D01*
X274122D01*
X274068Y1511714D01*
D02*
G37*
G36*
X298030Y1515500D02*
Y1512389D01*
X304164D01*
Y1515500D01*
X307605D01*
Y1512086D01*
X310597D01*
Y1511586D01*
X311097D01*
Y1508207D01*
X313590D01*
X313980Y1507944D01*
Y1498500D01*
X306000Y1498500D01*
X306000Y1507500D01*
X289500Y1507500D01*
X289500Y1515500D01*
X298030D01*
D02*
G37*
G36*
X259145Y1498322D02*
X259242Y1498271D01*
X259405Y1498225D01*
X259632Y1498185D01*
X259924Y1498151D01*
X261191Y1498087D01*
X262360Y1498075D01*
Y1495910D01*
X261743Y1495907D01*
X259405Y1495760D01*
X259242Y1495714D01*
X259145Y1495663D01*
X259112Y1495605D01*
Y1498380D01*
X259145Y1498322D01*
D02*
G37*
G36*
X294603Y1495773D02*
X294453Y1495693D01*
X294320Y1495559D01*
X294205Y1495372D01*
X294107Y1495132D01*
X294028Y1494839D01*
X293966Y1494491D01*
X293921Y1494091D01*
X293886Y1493130D01*
X292114D01*
X292105Y1493637D01*
X292035Y1494491D01*
X291972Y1494839D01*
X291893Y1495132D01*
X291795Y1495372D01*
X291680Y1495559D01*
X291547Y1495693D01*
X291397Y1495773D01*
X291228Y1495800D01*
X294772D01*
X294603Y1495773D01*
D02*
G37*
G36*
X259124Y1491987D02*
X259196Y1491905D01*
X259314Y1491832D01*
X259479Y1491769D01*
X259692Y1491716D01*
X259952Y1491673D01*
X260259Y1491639D01*
X261014Y1491600D01*
X261462Y1491595D01*
Y1489430D01*
X259112Y1489376D01*
X259100Y1492079D01*
X259124Y1491987D01*
D02*
G37*
G36*
X299089Y1490085D02*
X299191Y1488682D01*
X299252Y1488339D01*
X299326Y1488058D01*
X299414Y1487840D01*
X299516Y1487684D01*
X299631Y1487590D01*
X299760Y1487559D01*
X296240D01*
X296369Y1487590D01*
X296484Y1487684D01*
X296586Y1487840D01*
X296674Y1488058D01*
X296748Y1488339D01*
X296809Y1488682D01*
X296856Y1489087D01*
X296911Y1490085D01*
X296917Y1490678D01*
X299083D01*
X299089Y1490085D01*
D02*
G37*
G36*
X293895Y1489711D02*
X293965Y1488861D01*
X294026Y1488516D01*
X294104Y1488223D01*
X294200Y1487984D01*
X294314Y1487798D01*
X294445Y1487665D01*
X294594Y1487585D01*
X294760Y1487559D01*
X291240D01*
X291406Y1487585D01*
X291555Y1487665D01*
X291686Y1487798D01*
X291800Y1487984D01*
X291896Y1488223D01*
X291974Y1488516D01*
X292036Y1488861D01*
X292079Y1489260D01*
X292114Y1490216D01*
X293886D01*
X293895Y1489711D01*
D02*
G37*
G36*
X283895D02*
X283964Y1488861D01*
X284026Y1488516D01*
X284104Y1488223D01*
X284200Y1487984D01*
X284314Y1487798D01*
X284445Y1487665D01*
X284594Y1487585D01*
X284760Y1487559D01*
X281240D01*
X281406Y1487585D01*
X281555Y1487665D01*
X281686Y1487798D01*
X281800Y1487984D01*
X281896Y1488223D01*
X281974Y1488516D01*
X282035Y1488861D01*
X282079Y1489260D01*
X282114Y1490216D01*
X283886D01*
X283895Y1489711D01*
D02*
G37*
G36*
X288895Y1489715D02*
X289750D01*
X289586Y1489507D01*
X289439Y1489221D01*
X289309Y1488859D01*
X289197Y1488420D01*
X289143Y1488127D01*
X289200Y1487984D01*
X289314Y1487798D01*
X289445Y1487665D01*
X289594Y1487585D01*
X289760Y1487559D01*
X289064D01*
X288964Y1486638D01*
X288895Y1485065D01*
X288886Y1484162D01*
X287114D01*
X287105Y1485065D01*
X286923Y1487559D01*
X286240D01*
X286406Y1487585D01*
X286555Y1487665D01*
X286686Y1487798D01*
X286800Y1487984D01*
X286857Y1488127D01*
X286803Y1488420D01*
X286691Y1488859D01*
X286561Y1489221D01*
X286414Y1489507D01*
X286250Y1489715D01*
X287096D01*
X287114Y1490216D01*
X288886D01*
X288895Y1489715D01*
D02*
G37*
G36*
X278894Y1480435D02*
X279091Y1477740D01*
X279760D01*
X279594Y1477714D01*
X279445Y1477634D01*
X279314Y1477501D01*
X279200Y1477315D01*
X279168Y1477236D01*
X279197Y1477080D01*
X279309Y1476641D01*
X279439Y1476278D01*
X279586Y1475993D01*
X279750Y1475785D01*
X278911D01*
X278886Y1475083D01*
X277114D01*
X277105Y1475588D01*
X277089Y1475785D01*
X276250D01*
X276414Y1475993D01*
X276561Y1476278D01*
X276691Y1476641D01*
X276803Y1477080D01*
X276832Y1477236D01*
X276800Y1477315D01*
X276686Y1477501D01*
X276555Y1477634D01*
X276406Y1477714D01*
X276240Y1477740D01*
X276914D01*
X277036Y1478862D01*
X277105Y1480435D01*
X277114Y1481338D01*
X278886D01*
X278894Y1480435D01*
D02*
G37*
G36*
X304635Y1477713D02*
X304523Y1477633D01*
X304425Y1477499D01*
X304339Y1477311D01*
X304267Y1477070D01*
X304208Y1476775D01*
X304162Y1476427D01*
X304109Y1475568D01*
X304102Y1475059D01*
X301937D01*
X301930Y1475568D01*
X301826Y1476775D01*
X301763Y1477070D01*
X301686Y1477311D01*
X301596Y1477499D01*
X301491Y1477633D01*
X301373Y1477713D01*
X301240Y1477740D01*
X304760D01*
X304635Y1477713D01*
D02*
G37*
G36*
X299631Y1477708D02*
X299516Y1477610D01*
X299414Y1477448D01*
X299326Y1477221D01*
X299252Y1476928D01*
X299191Y1476571D01*
X299144Y1476149D01*
X299089Y1475109D01*
X299083Y1474492D01*
X296917D01*
X296911Y1475109D01*
X296809Y1476571D01*
X296748Y1476928D01*
X296674Y1477221D01*
X296586Y1477448D01*
X296484Y1477610D01*
X296369Y1477708D01*
X296240Y1477740D01*
X299760D01*
X299631Y1477708D01*
D02*
G37*
G36*
X308895Y1464806D02*
X308943Y1464215D01*
X309750D01*
X309586Y1464007D01*
X309439Y1463721D01*
X309309Y1463359D01*
X309227Y1463036D01*
X309314Y1462893D01*
X309445Y1462760D01*
X309594Y1462680D01*
X309760Y1462653D01*
X309148D01*
X309102Y1462403D01*
X308964Y1461138D01*
X308894Y1459565D01*
X308886Y1458662D01*
X307114D01*
X307105Y1459565D01*
X306898Y1462403D01*
X306852Y1462653D01*
X306240D01*
X306406Y1462680D01*
X306555Y1462760D01*
X306686Y1462893D01*
X306773Y1463036D01*
X306691Y1463359D01*
X306561Y1463721D01*
X306414Y1464007D01*
X306250Y1464215D01*
X307064D01*
X307079Y1464354D01*
X307114Y1465311D01*
X308886D01*
X308895Y1464806D01*
D02*
G37*
G36*
X294668Y1452806D02*
X294587Y1452722D01*
X294515Y1452580D01*
X294452Y1452381D01*
X294400Y1452126D01*
X294356Y1451814D01*
X294299Y1451021D01*
X294280Y1450000D01*
X291721D01*
X291716Y1450539D01*
X291600Y1452126D01*
X291548Y1452381D01*
X291485Y1452580D01*
X291413Y1452722D01*
X291332Y1452806D01*
X291240Y1452835D01*
X294760D01*
X294668Y1452806D01*
D02*
G37*
G36*
X363123Y1454542D02*
X363010Y1454287D01*
X362910Y1453948D01*
X362823Y1453526D01*
X362750Y1453021D01*
X362643Y1451761D01*
X362583Y1449247D01*
X360417D01*
X360411Y1450168D01*
X360177Y1453526D01*
X360090Y1453948D01*
X359990Y1454287D01*
X359877Y1454542D01*
X359750Y1454715D01*
X363250D01*
X363123Y1454542D01*
D02*
G37*
G36*
X299668Y1452796D02*
X299587Y1452681D01*
X299515Y1452489D01*
X299452Y1452221D01*
X299400Y1451875D01*
X299323Y1450954D01*
X299279Y1448996D01*
X296721D01*
X296716Y1449726D01*
X296548Y1452221D01*
X296485Y1452489D01*
X296413Y1452681D01*
X296332Y1452796D01*
X296240Y1452835D01*
X299760D01*
X299668Y1452796D01*
D02*
G37*
G36*
X271922Y1448661D02*
X272147Y1448581D01*
X272462Y1448510D01*
X272865Y1448449D01*
X273937Y1448355D01*
X276212Y1448284D01*
X277148Y1448279D01*
Y1445720D01*
X276212Y1445716D01*
X272462Y1445490D01*
X272147Y1445419D01*
X271922Y1445339D01*
X271785Y1445250D01*
Y1448750D01*
X271922Y1448661D01*
D02*
G37*
G36*
X280377Y1443394D02*
X280602Y1443314D01*
X280916Y1443244D01*
X281319Y1443182D01*
X282392Y1443088D01*
X284667Y1443018D01*
X285602Y1443013D01*
Y1440454D01*
X284667Y1440449D01*
X280916Y1440223D01*
X280602Y1440153D01*
X280377Y1440073D01*
X280240Y1439983D01*
Y1443483D01*
X280377Y1443394D01*
D02*
G37*
G36*
X297891Y1438610D02*
X297988Y1438512D01*
X298150Y1438425D01*
X298378Y1438350D01*
X298670Y1438286D01*
X299027Y1438234D01*
X299937Y1438165D01*
X301106Y1438142D01*
Y1435976D01*
X300489Y1435971D01*
X298670Y1435832D01*
X298378Y1435768D01*
X298150Y1435693D01*
X297988Y1435606D01*
X297891Y1435508D01*
X297858Y1435398D01*
Y1438720D01*
X297891Y1438610D01*
D02*
G37*
G36*
X294142Y1435398D02*
X294109Y1435519D01*
X294012Y1435627D01*
X293850Y1435723D01*
X293622Y1435806D01*
X293330Y1435876D01*
X292973Y1435933D01*
X292550Y1435978D01*
X291511Y1436029D01*
X290894Y1436035D01*
Y1438201D01*
X291511Y1438206D01*
X293330Y1438331D01*
X293622Y1438388D01*
X293850Y1438455D01*
X294012Y1438533D01*
X294109Y1438622D01*
X294142Y1438720D01*
Y1435398D01*
D02*
G37*
G36*
X297603Y1430265D02*
X297453Y1430185D01*
X297320Y1430052D01*
X297205Y1429865D01*
X297107Y1429624D01*
X297028Y1429331D01*
X296966Y1428984D01*
X296921Y1428583D01*
X296886Y1427622D01*
X295114D01*
X295105Y1428129D01*
X295035Y1428984D01*
X294972Y1429331D01*
X294893Y1429624D01*
X294795Y1429865D01*
X294680Y1430052D01*
X294547Y1430185D01*
X294397Y1430265D01*
X294228Y1430292D01*
X297772D01*
X297603Y1430265D01*
D02*
G37*
G36*
X296895Y1425697D02*
X296966Y1424843D01*
X297028Y1424496D01*
X297107Y1424202D01*
X297205Y1423962D01*
X297320Y1423775D01*
X297453Y1423642D01*
X297603Y1423562D01*
X297772Y1423535D01*
X294228D01*
X294397Y1423562D01*
X294547Y1423642D01*
X294680Y1423775D01*
X294795Y1423962D01*
X294893Y1424202D01*
X294972Y1424496D01*
X295035Y1424843D01*
X295079Y1425243D01*
X295114Y1426204D01*
X296886D01*
X296895Y1425697D01*
D02*
G37*
G36*
X203453Y1418453D02*
X203409Y1418656D01*
X203276Y1418838D01*
X203054Y1418999D01*
X202744Y1419138D01*
X202346Y1419256D01*
X201858Y1419352D01*
X201283Y1419427D01*
X199865Y1419513D01*
X199024Y1419524D01*
Y1422476D01*
X199865Y1422487D01*
X201858Y1422648D01*
X202346Y1422744D01*
X202744Y1422862D01*
X203054Y1423001D01*
X203276Y1423162D01*
X203409Y1423344D01*
X203453Y1423547D01*
Y1418453D01*
D02*
G37*
G36*
X422874Y1562992D02*
X422874Y1562992D01*
X423367Y1562976D01*
X424081Y1562834D01*
X424834Y1562523D01*
X425513Y1562071D01*
X426089Y1561495D01*
X426543Y1560818D01*
X426856Y1560065D01*
X427015Y1559266D01*
X427016Y1558858D01*
X427008Y1412502D01*
X398084Y1412502D01*
X397730Y1412855D01*
Y1523000D01*
X397598Y1523662D01*
X397223Y1524223D01*
X384664Y1536782D01*
X384103Y1537158D01*
X383441Y1537289D01*
X339597D01*
X339266Y1537301D01*
X339022Y1537328D01*
X338870Y1537355D01*
Y1538232D01*
X338262D01*
X338251Y1538269D01*
X338201Y1538513D01*
X338103Y1539691D01*
Y1542135D01*
X338171Y1543691D01*
X338324Y1545116D01*
X338422Y1545655D01*
X338532Y1546093D01*
X338644Y1546411D01*
X338739Y1546597D01*
X338784Y1546654D01*
X338819Y1546681D01*
X339453Y1547507D01*
X339851Y1548468D01*
X339987Y1549500D01*
X339851Y1550532D01*
X339453Y1551493D01*
X338819Y1552319D01*
X337993Y1552953D01*
X337032Y1553351D01*
X336000Y1553487D01*
X334968Y1553351D01*
X334007Y1552953D01*
X333181Y1552319D01*
X332547Y1551493D01*
X332149Y1550532D01*
X332013Y1549500D01*
X332149Y1548468D01*
X332547Y1547507D01*
X333181Y1546681D01*
X333216Y1546654D01*
X333261Y1546597D01*
X333356Y1546411D01*
X333468Y1546093D01*
X333578Y1545655D01*
X333673Y1545134D01*
X333897Y1542021D01*
Y1539628D01*
X333850Y1538883D01*
X333804Y1538538D01*
X333749Y1538268D01*
X333738Y1538232D01*
X333130D01*
Y1537259D01*
X333122Y1537220D01*
X333130Y1537182D01*
Y1532886D01*
Y1527768D01*
X333931D01*
X333977Y1527598D01*
X334022Y1527345D01*
X334027Y1527289D01*
X333961Y1526501D01*
X333909Y1526143D01*
X333853Y1525877D01*
X333809Y1525735D01*
X333801Y1525726D01*
X333799Y1525723D01*
X333504Y1525496D01*
X332943Y1524765D01*
X332590Y1523914D01*
X332470Y1523000D01*
X332590Y1522086D01*
X332943Y1521235D01*
X333504Y1520504D01*
X334235Y1519943D01*
X335086Y1519590D01*
X336000Y1519470D01*
X336914Y1519590D01*
X337765Y1519943D01*
X338496Y1520504D01*
X339057Y1521235D01*
X339410Y1522086D01*
X339530Y1523000D01*
X339410Y1523914D01*
X339057Y1524765D01*
X338496Y1525496D01*
X338201Y1525723D01*
X338199Y1525726D01*
X338191Y1525735D01*
X338147Y1525877D01*
X338099Y1526104D01*
X338018Y1527289D01*
X338384Y1527768D01*
X338870D01*
Y1533763D01*
X339008Y1533787D01*
X339511Y1533829D01*
X382724D01*
X394270Y1522283D01*
Y1412502D01*
X387724Y1412501D01*
X387370Y1412855D01*
Y1416059D01*
X384500D01*
X381630D01*
Y1413886D01*
Y1412501D01*
X373730Y1412501D01*
X373609Y1412795D01*
X373038Y1413538D01*
X372295Y1414109D01*
X371429Y1414467D01*
X370500Y1414590D01*
X369571Y1414467D01*
X368705Y1414109D01*
X367962Y1413538D01*
X367391Y1412795D01*
X367269Y1412501D01*
X363977Y1412501D01*
X363623Y1412855D01*
Y1450122D01*
X363661Y1451705D01*
X363763Y1452904D01*
X363828Y1453350D01*
X363900Y1453700D01*
X363969Y1453934D01*
X364004Y1454015D01*
X364557Y1454735D01*
X364910Y1455586D01*
X365030Y1456500D01*
X364910Y1457414D01*
X364557Y1458265D01*
X363996Y1458996D01*
X363265Y1459557D01*
X362414Y1459910D01*
X361500Y1460030D01*
X360586Y1459910D01*
X359735Y1459557D01*
X359004Y1458996D01*
X358443Y1458265D01*
X358090Y1457414D01*
X357970Y1456500D01*
X358090Y1455586D01*
X358443Y1454735D01*
X358996Y1454015D01*
X359031Y1453934D01*
X359100Y1453700D01*
X359165Y1453387D01*
X359377Y1450341D01*
Y1412501D01*
X343731Y1412501D01*
X343609Y1412795D01*
X343038Y1413538D01*
X342295Y1414109D01*
X341429Y1414467D01*
X340500Y1414590D01*
X339571Y1414467D01*
X338705Y1414109D01*
X337962Y1413538D01*
X337391Y1412795D01*
X337269Y1412501D01*
X332373Y1412501D01*
X332020Y1412854D01*
Y1422000D01*
X331985Y1422174D01*
X331958Y1422349D01*
X331946Y1422368D01*
X331942Y1422390D01*
X331843Y1422538D01*
X331752Y1422689D01*
X326520Y1428397D01*
X326520Y1473578D01*
X327221Y1474279D01*
X327442Y1474610D01*
X327520Y1475000D01*
Y1513000D01*
X327520Y1513500D01*
X327442Y1513890D01*
X327221Y1514221D01*
X325221Y1516221D01*
X324890Y1516442D01*
X324500Y1516520D01*
X322672D01*
Y1519773D01*
X322680Y1519811D01*
X322672Y1519849D01*
Y1520823D01*
X322459D01*
X322268Y1520974D01*
X322050Y1521323D01*
X322076Y1521505D01*
X322129Y1521768D01*
X322176Y1521932D01*
X322195Y1521975D01*
X322229Y1522023D01*
X322235Y1522037D01*
X322593Y1522503D01*
X322892Y1523225D01*
X322994Y1524000D01*
X322892Y1524775D01*
X322593Y1525497D01*
X322117Y1526117D01*
X318994Y1529240D01*
Y1542482D01*
X319013Y1545825D01*
X319047Y1546978D01*
X319453Y1547507D01*
X319851Y1548468D01*
X319987Y1549500D01*
X319851Y1550532D01*
X319453Y1551493D01*
X318819Y1552319D01*
X317993Y1552953D01*
X317032Y1553351D01*
X316000Y1553487D01*
X314968Y1553351D01*
X314007Y1552953D01*
X313181Y1552319D01*
X312547Y1551493D01*
X312149Y1550532D01*
X312013Y1549500D01*
X312149Y1548468D01*
X312547Y1547507D01*
X312919Y1547022D01*
X313006Y1541753D01*
Y1528000D01*
X313108Y1527225D01*
X313407Y1526503D01*
X313883Y1525883D01*
X317816Y1521949D01*
X317824Y1521932D01*
X317871Y1521768D01*
X317916Y1521541D01*
X317940Y1521188D01*
X317599Y1520823D01*
X317522D01*
Y1519849D01*
X317515Y1519811D01*
X317522Y1519773D01*
Y1516780D01*
X317492Y1516299D01*
X317314Y1516258D01*
X317132Y1516222D01*
X317120Y1516213D01*
X317105Y1516210D01*
X316673Y1516016D01*
X316525Y1515910D01*
X316373Y1515810D01*
X314282Y1513737D01*
X314258Y1513732D01*
X313774Y1513691D01*
X313673Y1513721D01*
X313590Y1513781D01*
Y1517400D01*
X310597D01*
X307605D01*
Y1516520D01*
X304164D01*
Y1517097D01*
X298030D01*
Y1516520D01*
X289500D01*
X289110Y1516442D01*
X288779Y1516221D01*
X288558Y1515890D01*
X288480Y1515500D01*
X288480Y1507500D01*
X288558Y1507110D01*
X288779Y1506779D01*
X289110Y1506558D01*
X289500Y1506480D01*
X289539D01*
X289933Y1506224D01*
Y1503854D01*
X293000D01*
X296067D01*
Y1505980D01*
X296461Y1506480D01*
X304980Y1506480D01*
X304980Y1498500D01*
X305058Y1498110D01*
X305279Y1497779D01*
X305610Y1497558D01*
X306000Y1497480D01*
X313910Y1497480D01*
X313980Y1496980D01*
X313980Y1476000D01*
X314058Y1475610D01*
X314279Y1475279D01*
X314721Y1474838D01*
X314402Y1474449D01*
X314295Y1474521D01*
X313482Y1474683D01*
X306399D01*
X305153Y1475929D01*
X305177Y1476328D01*
X305214Y1476608D01*
X305238Y1476728D01*
X307500D01*
Y1482650D01*
Y1488571D01*
X300246D01*
X300204Y1488808D01*
X300132Y1489806D01*
X301299Y1490974D01*
X301765Y1490913D01*
X302679Y1491033D01*
X303530Y1491385D01*
X304261Y1491947D01*
X304822Y1492678D01*
X305175Y1493529D01*
X305295Y1494443D01*
X305175Y1495356D01*
X304822Y1496208D01*
X304261Y1496939D01*
X303530Y1497500D01*
X302679Y1497853D01*
X301765Y1497973D01*
X300851Y1497853D01*
X300000Y1497500D01*
X299269Y1496939D01*
X298708Y1496208D01*
X298355Y1495356D01*
X298235Y1494443D01*
X298296Y1493977D01*
X296498Y1492179D01*
X296038Y1491490D01*
X295877Y1490678D01*
Y1489847D01*
X295840Y1489174D01*
X295800Y1488830D01*
X295754Y1488571D01*
X295067D01*
X295022Y1488737D01*
X294977Y1488992D01*
X294923Y1489648D01*
Y1493582D01*
X294939Y1494016D01*
X294975Y1494346D01*
X295023Y1494615D01*
X295067Y1494776D01*
X296067D01*
Y1500484D01*
Y1502855D01*
X293000D01*
X289933D01*
Y1500484D01*
Y1495029D01*
X289474Y1494678D01*
X288914Y1494910D01*
X288000Y1495030D01*
X287086Y1494910D01*
X286235Y1494557D01*
X285504Y1493996D01*
X285423Y1493891D01*
X284923Y1494060D01*
Y1497491D01*
X284776Y1498226D01*
X284360Y1498850D01*
X275350Y1507860D01*
X274875Y1508334D01*
Y1509996D01*
X274883Y1510392D01*
X274907Y1510728D01*
X275134D01*
Y1511702D01*
X275141Y1511740D01*
X275135Y1511774D01*
X275139Y1511808D01*
X275134Y1511827D01*
Y1514069D01*
X278581Y1517517D01*
X278913Y1518013D01*
X279029Y1518598D01*
Y1527123D01*
X279092Y1527171D01*
X279529Y1527308D01*
X283068Y1523769D01*
Y1522307D01*
X283059Y1521889D01*
X283058Y1521877D01*
X281826D01*
Y1517515D01*
X286319D01*
X286357Y1517507D01*
X286374Y1517510D01*
X286391Y1517507D01*
X286602Y1517515D01*
X287369D01*
Y1517540D01*
X288937Y1517592D01*
X290111D01*
Y1517583D01*
X291082D01*
X291119Y1517575D01*
X291158Y1517583D01*
X294083D01*
Y1523958D01*
X290111D01*
Y1522035D01*
X290006Y1521992D01*
X289757Y1521924D01*
X289433Y1521867D01*
X288622Y1521799D01*
X287431D01*
X287369Y1521802D01*
Y1521877D01*
X286395D01*
X286357Y1521884D01*
X286127Y1522304D01*
Y1524403D01*
X286010Y1524988D01*
X285679Y1525484D01*
X282029Y1529134D01*
Y1533788D01*
X282022Y1533824D01*
Y1539086D01*
X281993Y1539234D01*
Y1539970D01*
X282493Y1540381D01*
X282949Y1540290D01*
X283838Y1540467D01*
X284592Y1540971D01*
X285096Y1541725D01*
X285273Y1542614D01*
X285096Y1543504D01*
X284592Y1544258D01*
X283838Y1544761D01*
X282949Y1544938D01*
X282059Y1544761D01*
X281305Y1544258D01*
X281086Y1543929D01*
X269064D01*
X268844Y1544258D01*
X268090Y1544761D01*
X267201Y1544938D01*
X266311Y1544761D01*
X265557Y1544258D01*
X265054Y1543504D01*
X264877Y1542614D01*
X265054Y1541725D01*
X265557Y1540971D01*
X266311Y1540467D01*
X267201Y1540290D01*
X267657Y1540381D01*
X268157Y1539970D01*
Y1538902D01*
X269957D01*
Y1538402D01*
X270457D01*
Y1532874D01*
X273471D01*
Y1530796D01*
X271919Y1529244D01*
X271587Y1528748D01*
X271471Y1528163D01*
Y1527772D01*
X270772D01*
Y1523306D01*
X270765Y1523276D01*
X270768Y1523258D01*
X270764Y1523240D01*
X270772Y1523202D01*
Y1522702D01*
X270504Y1522496D01*
X269943Y1521765D01*
X269590Y1520914D01*
X269470Y1520000D01*
X269590Y1519086D01*
X269943Y1518235D01*
X270504Y1517504D01*
X271235Y1516943D01*
X271648Y1516772D01*
X271549Y1516272D01*
X270772D01*
Y1511827D01*
X270766Y1511808D01*
X270771Y1511774D01*
X270764Y1511740D01*
X270772Y1511702D01*
Y1510728D01*
X270961D01*
X271030Y1509756D01*
Y1507538D01*
X271176Y1506802D01*
X271593Y1506178D01*
X272631Y1505140D01*
X272631Y1505140D01*
X281077Y1496694D01*
Y1489760D01*
X281062Y1489334D01*
X281026Y1489005D01*
X280978Y1488737D01*
X280933Y1488571D01*
X270228D01*
X270124Y1489027D01*
Y1492147D01*
X269962Y1492960D01*
X269501Y1493649D01*
X264656Y1498494D01*
X263967Y1498954D01*
X263155Y1499116D01*
X261039D01*
X260124Y1499162D01*
Y1499393D01*
X259151D01*
X259112Y1499400D01*
X259074Y1499393D01*
X258999D01*
X258993Y1499393D01*
X258991Y1499393D01*
X255124D01*
Y1494592D01*
X258991D01*
X258993Y1494592D01*
X258999Y1494592D01*
X259074D01*
X259112Y1494585D01*
X259151Y1494592D01*
X260124D01*
Y1494784D01*
X261486Y1494869D01*
X262275D01*
X265877Y1491267D01*
Y1474000D01*
X266038Y1473187D01*
X266498Y1472499D01*
X271999Y1466998D01*
X272687Y1466538D01*
X273500Y1466376D01*
X294000D01*
X294813Y1466538D01*
X295501Y1466998D01*
X299501Y1470998D01*
X299962Y1471687D01*
X300124Y1472500D01*
Y1475360D01*
X300160Y1476065D01*
X300201Y1476428D01*
X300250Y1476717D01*
X300253Y1476728D01*
X300793D01*
X300815Y1476625D01*
X300896Y1475689D01*
Y1475059D01*
X301058Y1474246D01*
X301518Y1473557D01*
X304018Y1471058D01*
X304707Y1470597D01*
X305520Y1470436D01*
X312396D01*
Y1446439D01*
X305140Y1439182D01*
X300045D01*
X299986Y1439184D01*
X299140Y1439248D01*
X298870Y1439288D01*
Y1439732D01*
X297972D01*
X297965Y1439734D01*
X297944Y1439732D01*
X297896D01*
X297858Y1439740D01*
X297820Y1439732D01*
X295220D01*
X295019Y1440232D01*
X299643Y1444857D01*
X300147Y1445611D01*
X300324Y1446500D01*
Y1450121D01*
X300341Y1450900D01*
X300413Y1451756D01*
X300423Y1451823D01*
X310772D01*
Y1462615D01*
X310779Y1462653D01*
X310772Y1462691D01*
Y1463665D01*
X310772Y1463665D01*
X310772D01*
X310951Y1464097D01*
X311057Y1464235D01*
X311410Y1465086D01*
X311530Y1466000D01*
X311410Y1466914D01*
X311057Y1467765D01*
X310496Y1468496D01*
X309765Y1469057D01*
X308914Y1469410D01*
X308000Y1469530D01*
X307086Y1469410D01*
X306235Y1469057D01*
X305504Y1468496D01*
X304943Y1467765D01*
X304590Y1466914D01*
X304470Y1466000D01*
X304590Y1465086D01*
X304943Y1464235D01*
X305036Y1464114D01*
X304815Y1463665D01*
X270228D01*
Y1451823D01*
X290600D01*
X290664Y1450950D01*
X289037Y1449324D01*
X275571D01*
X273998Y1449373D01*
X272986Y1449462D01*
X272650Y1449513D01*
X272431Y1449562D01*
X272393Y1449575D01*
X271765Y1450057D01*
X270914Y1450410D01*
X270000Y1450530D01*
X269086Y1450410D01*
X268235Y1450057D01*
X267504Y1449496D01*
X266943Y1448765D01*
X266590Y1447914D01*
X266470Y1447000D01*
X266590Y1446086D01*
X266943Y1445235D01*
X267504Y1444504D01*
X268235Y1443943D01*
X269086Y1443590D01*
X270000Y1443470D01*
X270914Y1443590D01*
X271765Y1443943D01*
X272393Y1444425D01*
X272431Y1444438D01*
X272605Y1444477D01*
X275703Y1444664D01*
X275865Y1444388D01*
X275917Y1444176D01*
X275397Y1443499D01*
X275045Y1442647D01*
X274925Y1441733D01*
X275045Y1440820D01*
X275397Y1439968D01*
X275611Y1439690D01*
X275390Y1439242D01*
X268712D01*
X264623Y1443330D01*
Y1489475D01*
X264462Y1490287D01*
X264001Y1490976D01*
X262964Y1492014D01*
X262275Y1492474D01*
X261462Y1492636D01*
X260720D01*
X260341Y1492655D01*
X260124Y1492679D01*
Y1493164D01*
X255124D01*
Y1488364D01*
X259078D01*
X259117Y1488357D01*
X259126Y1488358D01*
X259136Y1488357D01*
X259457Y1488364D01*
X260124D01*
X260377Y1487969D01*
Y1442451D01*
X260538Y1441638D01*
X260999Y1440949D01*
X266331Y1435617D01*
X267020Y1435156D01*
X267833Y1434995D01*
X291788D01*
X292472Y1434961D01*
X292838Y1434922D01*
X293130Y1434875D01*
Y1429268D01*
X293933D01*
X293977Y1429107D01*
X294022Y1428852D01*
X294077Y1428190D01*
Y1425753D01*
X294061Y1425318D01*
X294025Y1424989D01*
X293977Y1424720D01*
X293933Y1424559D01*
X292108D01*
Y1417441D01*
X299226D01*
Y1424559D01*
X298067D01*
X298023Y1424720D01*
X297978Y1424975D01*
X297923Y1425637D01*
Y1428074D01*
X297939Y1428508D01*
X297975Y1428838D01*
X298023Y1429107D01*
X298067Y1429268D01*
X298870D01*
Y1434824D01*
X300326Y1434936D01*
X306020D01*
X306832Y1435097D01*
X307521Y1435557D01*
X315518Y1443555D01*
X315980Y1443363D01*
X315980Y1423422D01*
X314279Y1421721D01*
X314058Y1421390D01*
X313980Y1421000D01*
X313980Y1412500D01*
X298898Y1412500D01*
X298776Y1412795D01*
X298205Y1413538D01*
X297462Y1414109D01*
X296596Y1414467D01*
X296167Y1414524D01*
Y1411000D01*
X295167D01*
Y1414524D01*
X294738Y1414467D01*
X293872Y1414109D01*
X293128Y1413538D01*
X292558Y1412795D01*
X292436Y1412500D01*
X284064Y1412500D01*
X283942Y1412795D01*
X283372Y1413538D01*
X282628Y1414109D01*
X281762Y1414467D01*
X280833Y1414590D01*
X279904Y1414467D01*
X279039Y1414109D01*
X278295Y1413538D01*
X277725Y1412795D01*
X277602Y1412500D01*
X254064Y1412500D01*
X253942Y1412795D01*
X253372Y1413538D01*
X252628Y1414109D01*
X251762Y1414467D01*
X250833Y1414590D01*
X249904Y1414467D01*
X249039Y1414109D01*
X248295Y1413538D01*
X247725Y1412795D01*
X247602Y1412499D01*
X239231Y1412499D01*
X239109Y1412795D01*
X238538Y1413538D01*
X237795Y1414109D01*
X236929Y1414467D01*
X236000Y1414590D01*
X235071Y1414467D01*
X235022Y1414447D01*
X234665Y1414494D01*
X222500D01*
X221725Y1414392D01*
X221302Y1414217D01*
X221003Y1414093D01*
X220383Y1413617D01*
X219265Y1412499D01*
X209231Y1412499D01*
X209109Y1412795D01*
X208538Y1413538D01*
X207795Y1414109D01*
X206929Y1414467D01*
X206000Y1414590D01*
X205071Y1414467D01*
X204205Y1414109D01*
X203462Y1413538D01*
X202891Y1412795D01*
X202768Y1412499D01*
X191723Y1412499D01*
X191531Y1412961D01*
X197046Y1418475D01*
X200136D01*
X201186Y1418412D01*
X201694Y1418346D01*
X202102Y1418265D01*
X202390Y1418180D01*
X202441Y1418157D01*
Y1417441D01*
X203415D01*
X203453Y1417433D01*
X203491Y1417441D01*
X209559D01*
Y1424559D01*
X203491D01*
X203453Y1424567D01*
X203415Y1424559D01*
X202441D01*
Y1423843D01*
X202390Y1423820D01*
X202102Y1423735D01*
X201718Y1423659D01*
X200050Y1423525D01*
X196000D01*
X195034Y1423333D01*
X194215Y1422785D01*
X186954Y1415525D01*
X182495D01*
X181736Y1415553D01*
X181141Y1415619D01*
X180641Y1415708D01*
X180256Y1415813D01*
X179992Y1415920D01*
X179855Y1416005D01*
X179842Y1416017D01*
Y1417051D01*
X171740D01*
Y1412498D01*
X167348Y1412498D01*
X166994Y1412852D01*
Y1479760D01*
X219617Y1532383D01*
X220093Y1533003D01*
X220392Y1533725D01*
X220494Y1534500D01*
Y1535073D01*
X220504Y1536062D01*
X220589Y1537736D01*
X220628Y1538072D01*
X220655Y1538229D01*
X221021Y1538510D01*
X221813Y1539542D01*
X222310Y1540743D01*
X222480Y1542031D01*
Y1545969D01*
X222310Y1547257D01*
X221813Y1548458D01*
X221021Y1549490D01*
X219990Y1550281D01*
X218789Y1550778D01*
X217500Y1550948D01*
X216211Y1550778D01*
X215010Y1550281D01*
X213979Y1549490D01*
X213188Y1548458D01*
X212771Y1547452D01*
X212229D01*
X211812Y1548458D01*
X211021Y1549490D01*
X209990Y1550281D01*
X208789Y1550778D01*
X207500Y1550948D01*
X206211Y1550778D01*
X205010Y1550281D01*
X203979Y1549490D01*
X203187Y1548458D01*
X202690Y1547257D01*
X202520Y1545969D01*
Y1542031D01*
X202690Y1540743D01*
X203187Y1539542D01*
X203979Y1538510D01*
X205010Y1537719D01*
X206211Y1537222D01*
X207500Y1537052D01*
X208789Y1537222D01*
X209990Y1537719D01*
X211021Y1538510D01*
X211812Y1539542D01*
X212229Y1540548D01*
X212771D01*
X213188Y1539542D01*
X213979Y1538510D01*
X214324Y1538246D01*
X214482Y1535717D01*
X161883Y1483117D01*
X161407Y1482497D01*
X161108Y1481775D01*
X161006Y1481000D01*
Y1412498D01*
X151704Y1412498D01*
X151350Y1412852D01*
X151350Y1558850D01*
Y1559258D01*
X151509Y1560058D01*
X151822Y1560812D01*
X152275Y1561491D01*
X152852Y1562068D01*
X153530Y1562521D01*
X154284Y1562833D01*
X155084Y1562992D01*
X422874D01*
X422874Y1562992D01*
D02*
G37*
G36*
X178863Y1415672D02*
X178996Y1415421D01*
X179218Y1415200D01*
X179529Y1415008D01*
X179929Y1414845D01*
X180417Y1414713D01*
X180995Y1414609D01*
X181661Y1414535D01*
X183260Y1414476D01*
Y1411524D01*
X182416Y1411509D01*
X180995Y1411391D01*
X180417Y1411287D01*
X179929Y1411154D01*
X179529Y1410992D01*
X179218Y1410800D01*
X178996Y1410579D01*
X178863Y1410328D01*
X178819Y1410047D01*
Y1415953D01*
X178863Y1415672D01*
D02*
G37*
G36*
X359377Y1403500D02*
X359538Y1402687D01*
X359998Y1401999D01*
X362498Y1399498D01*
X363187Y1399038D01*
X364000Y1398876D01*
X365192D01*
X366646Y1398851D01*
X367462Y1398795D01*
X367717Y1398764D01*
X367732Y1398761D01*
X367962Y1398462D01*
X368263Y1398230D01*
X368094Y1397730D01*
X342906D01*
X342737Y1398230D01*
X343038Y1398462D01*
X343609Y1399205D01*
X343967Y1400071D01*
X344090Y1401000D01*
X343967Y1401929D01*
X343609Y1402795D01*
X343038Y1403538D01*
X342295Y1404109D01*
X341429Y1404467D01*
X340500Y1404590D01*
X339571Y1404467D01*
X338705Y1404109D01*
X337962Y1403538D01*
X337391Y1402795D01*
X337033Y1401929D01*
X336910Y1401000D01*
X337033Y1400071D01*
X337391Y1399205D01*
X337962Y1398462D01*
X338263Y1398230D01*
X338094Y1397730D01*
X328073D01*
X327903Y1398230D01*
X328205Y1398462D01*
X328776Y1399205D01*
X329134Y1400071D01*
X329256Y1401000D01*
X329134Y1401929D01*
X328776Y1402795D01*
X328205Y1403538D01*
X327629Y1403980D01*
X327799Y1404480D01*
X328500D01*
X328890Y1404558D01*
X329221Y1404779D01*
X329221Y1404779D01*
X329721Y1405279D01*
X331721Y1407279D01*
X331942Y1407610D01*
X332020Y1408000D01*
Y1411000D01*
X336910D01*
X336910Y1411000D01*
X337033Y1410071D01*
X337391Y1409205D01*
X337962Y1408462D01*
X338705Y1407891D01*
X339571Y1407533D01*
X340000Y1407476D01*
Y1411000D01*
X341000D01*
Y1407476D01*
X341429Y1407533D01*
X342295Y1407891D01*
X343038Y1408462D01*
X343609Y1409205D01*
X343967Y1410071D01*
X344090Y1411000D01*
X344090Y1411000D01*
X359377D01*
Y1403500D01*
D02*
G37*
G36*
X386211Y1409747D02*
X386079Y1409650D01*
X385963Y1409487D01*
X385862Y1409260D01*
X385776Y1408968D01*
X385707Y1408610D01*
X385652Y1408188D01*
X385590Y1407149D01*
X385583Y1406532D01*
X383417D01*
X383410Y1407149D01*
X383293Y1408610D01*
X383224Y1408968D01*
X383138Y1409260D01*
X383037Y1409487D01*
X382921Y1409650D01*
X382789Y1409747D01*
X382642Y1409780D01*
X386358D01*
X386211Y1409747D01*
D02*
G37*
G36*
X326500Y1513500D02*
X326500Y1513000D01*
Y1475000D01*
X325500Y1474000D01*
X325500Y1428000D01*
X331000Y1422000D01*
Y1408000D01*
X329000Y1406000D01*
X328500Y1405500D01*
X317000Y1405500D01*
X315000Y1407500D01*
X315000Y1421000D01*
X317000Y1423000D01*
X317000Y1474000D01*
X315000Y1476000D01*
X315000Y1513013D01*
X317091Y1515086D01*
X317523Y1515279D01*
X317522Y1515279D01*
X317523Y1515279D01*
X322672D01*
Y1515500D01*
X324500D01*
X326500Y1513500D01*
D02*
G37*
G36*
X368344Y1399621D02*
X368267Y1399677D01*
X368110Y1399728D01*
X367874Y1399772D01*
X367558Y1399811D01*
X366689Y1399870D01*
X364000Y1399917D01*
Y1402083D01*
X364791Y1402086D01*
X368110Y1402273D01*
X368267Y1402323D01*
X368344Y1402379D01*
Y1399621D01*
D02*
G37*
G36*
X372509Y1402657D02*
X372774Y1402536D01*
X373124Y1402430D01*
X373558Y1402338D01*
X374077Y1402260D01*
X375368Y1402147D01*
X376996Y1402090D01*
X377937Y1402083D01*
Y1399917D01*
X376996Y1399910D01*
X373558Y1399662D01*
X373124Y1399570D01*
X372774Y1399464D01*
X372509Y1399343D01*
X372327Y1399209D01*
Y1402791D01*
X372509Y1402657D01*
D02*
G37*
G36*
X389648Y1398594D02*
X388783Y1397730D01*
X372906D01*
X372737Y1398230D01*
X373038Y1398462D01*
X373041Y1398465D01*
X373135Y1398508D01*
X373378Y1398582D01*
X373702Y1398650D01*
X376837Y1398876D01*
X381000D01*
X381813Y1399038D01*
X381840Y1399056D01*
X389456D01*
X389648Y1398594D01*
D02*
G37*
G36*
X291271Y1380604D02*
X291482Y1380576D01*
X291811Y1380550D01*
X295234Y1380475D01*
X297434Y1380468D01*
Y1376532D01*
X291179Y1376364D01*
Y1380636D01*
X291271Y1380604D01*
D02*
G37*
G36*
X291104Y1376229D02*
X291076Y1376018D01*
X291051Y1375689D01*
X290975Y1372266D01*
X290968Y1370066D01*
X287032D01*
X286864Y1376321D01*
X291136D01*
X291104Y1376229D01*
D02*
G37*
G36*
X299122Y1358059D02*
X299063Y1358339D01*
X298886Y1358589D01*
X298591Y1358810D01*
X298177Y1359002D01*
X297646Y1359163D01*
X296996Y1359296D01*
X296229Y1359399D01*
X294339Y1359517D01*
X293217Y1359531D01*
Y1363468D01*
X294339Y1363473D01*
X298886Y1363771D01*
X299063Y1363851D01*
X299122Y1363941D01*
Y1358059D01*
D02*
G37*
G36*
X381935Y1344433D02*
X382098Y1344183D01*
X382369Y1343963D01*
X382749Y1343772D01*
X383238Y1343611D01*
X383834Y1343479D01*
X384540Y1343376D01*
X385121Y1343324D01*
X387642Y1343429D01*
Y1340106D01*
X387598Y1340142D01*
X387465Y1340173D01*
X387243Y1340201D01*
X386535Y1340245D01*
X385933Y1340254D01*
X384540Y1340159D01*
X383834Y1340057D01*
X383238Y1339925D01*
X382749Y1339763D01*
X382369Y1339573D01*
X382098Y1339352D01*
X381935Y1339103D01*
X381881Y1338824D01*
Y1344711D01*
X381935Y1344433D01*
D02*
G37*
G36*
X391387Y1338276D02*
X391474Y1338244D01*
X391619Y1338217D01*
X391822Y1338192D01*
X392402Y1338156D01*
X392484Y1338154D01*
X392993Y1338159D01*
Y1338146D01*
X394257Y1338126D01*
Y1335173D01*
X393706Y1335171D01*
X391387Y1335023D01*
X391358Y1334988D01*
Y1335161D01*
X389500Y1335173D01*
Y1338126D01*
X391358Y1338144D01*
Y1338311D01*
X391387Y1338276D01*
D02*
G37*
G36*
X285642Y1311960D02*
X285343Y1311783D01*
X285079Y1311487D01*
X284850Y1311074D01*
X284657Y1310542D01*
X284498Y1309893D01*
X284375Y1309125D01*
X284287Y1308239D01*
X284217Y1306113D01*
X280280D01*
X280262Y1307235D01*
X280121Y1309125D01*
X279998Y1309893D01*
X279840Y1310542D01*
X279646Y1311074D01*
X279418Y1311487D01*
X279154Y1311783D01*
X278854Y1311960D01*
X278520Y1312019D01*
X285977D01*
X285642Y1311960D01*
D02*
G37*
G36*
X427008Y1410647D02*
X427000Y1240555D01*
X426960Y1240057D01*
X426857Y1239540D01*
X426544Y1238786D01*
X426091Y1238108D01*
X425514Y1237531D01*
X424836Y1237078D01*
X424082Y1236765D01*
X423539Y1236657D01*
X423055Y1236610D01*
X423054Y1236610D01*
X155492Y1236606D01*
X155084D01*
X154284Y1236765D01*
X153530Y1237078D01*
X152852Y1237531D01*
X152275Y1238108D01*
X151822Y1238786D01*
X151509Y1239540D01*
X151350Y1240340D01*
Y1240748D01*
X151350Y1411000D01*
X161006D01*
Y1408500D01*
X161108Y1407725D01*
X161407Y1407003D01*
X161883Y1406383D01*
X176883Y1391383D01*
X177503Y1390907D01*
X177802Y1390783D01*
X178225Y1390608D01*
X179000Y1390506D01*
X213500D01*
X214275Y1390608D01*
X214997Y1390907D01*
X215617Y1391383D01*
X221617Y1397383D01*
X222093Y1398003D01*
X222217Y1398302D01*
X222392Y1398725D01*
X222494Y1399500D01*
Y1407260D01*
X223740Y1408506D01*
X233428D01*
X233462Y1408462D01*
X234205Y1407891D01*
X235071Y1407533D01*
X236000Y1407410D01*
X236929Y1407533D01*
X237795Y1407891D01*
X238538Y1408462D01*
X239109Y1409205D01*
X239467Y1410071D01*
X239590Y1411000D01*
X239590Y1411000D01*
X247243D01*
X247244Y1411000D01*
X247366Y1410071D01*
X247725Y1409205D01*
X248295Y1408462D01*
X249039Y1407891D01*
X249904Y1407533D01*
X250833Y1407410D01*
X251762Y1407533D01*
X252628Y1407891D01*
X253372Y1408462D01*
X253942Y1409205D01*
X254301Y1410071D01*
X254423Y1411000D01*
X254423Y1411000D01*
X277243D01*
X277244Y1411000D01*
X277366Y1410071D01*
X277725Y1409205D01*
X278295Y1408462D01*
X279039Y1407891D01*
X279904Y1407533D01*
X280833Y1407410D01*
X281762Y1407533D01*
X282628Y1407891D01*
X283372Y1408462D01*
X283942Y1409205D01*
X284301Y1410071D01*
X284423Y1411000D01*
X284423Y1411000D01*
X292077Y1411000D01*
X292077Y1411000D01*
X292199Y1410071D01*
X292558Y1409205D01*
X293128Y1408462D01*
X293872Y1407891D01*
X294738Y1407533D01*
X295667Y1407410D01*
X296596Y1407533D01*
X297462Y1407891D01*
X298205Y1408462D01*
X298776Y1409205D01*
X299134Y1410071D01*
X299256Y1411000D01*
X299256Y1411000D01*
X313980D01*
Y1407500D01*
X314058Y1407110D01*
X314279Y1406779D01*
X316279Y1404779D01*
X316279Y1404779D01*
X316610Y1404558D01*
X317000Y1404480D01*
X323535Y1404480D01*
X323704Y1403980D01*
X323128Y1403538D01*
X322558Y1402795D01*
X322199Y1401929D01*
X322077Y1401000D01*
X322199Y1400071D01*
X322558Y1399205D01*
X323128Y1398462D01*
X323872Y1397891D01*
X324012Y1397833D01*
Y1396816D01*
X324144Y1396154D01*
X324519Y1395593D01*
X325335Y1394777D01*
X325896Y1394402D01*
X326558Y1394270D01*
X337331D01*
X337513Y1393804D01*
X337003Y1393593D01*
X336383Y1393117D01*
X324760Y1381494D01*
X295458D01*
X295247Y1381495D01*
X291861Y1381569D01*
X291632Y1381587D01*
X291043Y1382039D01*
X290058Y1382447D01*
X289000Y1382586D01*
X287942Y1382447D01*
X286957Y1382039D01*
X286111Y1381389D01*
X285461Y1380543D01*
X285053Y1379558D01*
X284914Y1378500D01*
X285053Y1377442D01*
X285461Y1376457D01*
X285854Y1375945D01*
X286006Y1370278D01*
Y1361500D01*
X286032Y1361305D01*
Y1358374D01*
Y1356331D01*
X289000D01*
X291968D01*
Y1358506D01*
X293670D01*
X294300Y1358498D01*
X296129Y1358384D01*
X296826Y1358290D01*
X297395Y1358174D01*
X297813Y1358047D01*
X298065Y1357930D01*
X298110Y1357896D01*
Y1357047D01*
X299084D01*
X299122Y1357040D01*
X299160Y1357047D01*
X311921D01*
Y1364953D01*
X299160D01*
X299122Y1364960D01*
X299084Y1364953D01*
X298110D01*
Y1364742D01*
X294325Y1364494D01*
X291994D01*
Y1372042D01*
X291995Y1372253D01*
X292063Y1375368D01*
X297222Y1375506D01*
X326000D01*
X326775Y1375608D01*
X327497Y1375907D01*
X328117Y1376383D01*
X339740Y1388006D01*
X345259D01*
X345389Y1387506D01*
X344883Y1387117D01*
X320383Y1362617D01*
X319907Y1361997D01*
X319608Y1361275D01*
X319506Y1360500D01*
Y1305240D01*
X317260Y1302994D01*
X288740D01*
X285249Y1306485D01*
X285305Y1308172D01*
X285387Y1308994D01*
X285499Y1309691D01*
X285634Y1310246D01*
X285781Y1310650D01*
X285916Y1310893D01*
X285998Y1310986D01*
X286002Y1310988D01*
X286109Y1311007D01*
X286988D01*
Y1311981D01*
X286996Y1312019D01*
X286988Y1312057D01*
Y1320487D01*
X277508D01*
Y1312057D01*
X277501Y1312019D01*
X277508Y1311981D01*
Y1311007D01*
X278388D01*
X278495Y1310988D01*
X278499Y1310986D01*
X278581Y1310893D01*
X278716Y1310650D01*
X278863Y1310246D01*
X278998Y1309691D01*
X279108Y1309006D01*
X279243Y1307189D01*
X279254Y1306490D01*
Y1305252D01*
X279356Y1304477D01*
X279655Y1303755D01*
X280131Y1303135D01*
X285383Y1297883D01*
X286003Y1297407D01*
X286725Y1297108D01*
X287500Y1297006D01*
X318500D01*
X319275Y1297108D01*
X319997Y1297407D01*
X320617Y1297883D01*
X324617Y1301883D01*
X325093Y1302503D01*
X325392Y1303225D01*
X325494Y1304000D01*
Y1359260D01*
X348240Y1382006D01*
X388260D01*
X393569Y1376697D01*
Y1340196D01*
X392870Y1339497D01*
X392370Y1339704D01*
Y1344441D01*
X387680D01*
X387642Y1344448D01*
X387621Y1344444D01*
X387599Y1344448D01*
X387439Y1344441D01*
X386630D01*
Y1344407D01*
X385146Y1344345D01*
X384659Y1344389D01*
X384018Y1344482D01*
X383508Y1344595D01*
X383264Y1344676D01*
X382751Y1345345D01*
X381761Y1346105D01*
X380608Y1346583D01*
X379370Y1346746D01*
X378133Y1346583D01*
X376980Y1346105D01*
X375989Y1345345D01*
X375230Y1344355D01*
X374752Y1343202D01*
X374589Y1341965D01*
Y1341571D01*
X374752Y1340333D01*
X375230Y1339180D01*
X375989Y1338190D01*
X376980Y1337430D01*
X378133Y1336953D01*
X379370Y1336790D01*
X380608Y1336953D01*
X381761Y1337430D01*
X382751Y1338190D01*
X383264Y1338860D01*
X383508Y1338940D01*
X384018Y1339053D01*
X384648Y1339145D01*
X385961Y1339233D01*
X386496Y1339226D01*
X386630Y1339218D01*
Y1333976D01*
X391320D01*
X391358Y1333969D01*
X391396Y1333976D01*
X391426D01*
X391455Y1333973D01*
X391465Y1333976D01*
X392370D01*
X392370Y1333976D01*
X392870Y1334011D01*
X393482Y1333757D01*
X394257Y1333655D01*
X395032Y1333757D01*
X395754Y1334057D01*
X396374Y1334533D01*
X398680Y1336839D01*
X399156Y1337459D01*
X399280Y1337758D01*
X399455Y1338181D01*
X399557Y1338956D01*
Y1377937D01*
X399455Y1378712D01*
X399156Y1379434D01*
X398680Y1380054D01*
X391617Y1387117D01*
X391111Y1387506D01*
X391241Y1388006D01*
X404760D01*
X408506Y1384260D01*
Y1325974D01*
X402526Y1319994D01*
X363000D01*
X362225Y1319892D01*
X361503Y1319593D01*
X360883Y1319117D01*
X349383Y1307617D01*
X348907Y1306997D01*
X348608Y1306275D01*
X348506Y1305500D01*
Y1288354D01*
X348608Y1287579D01*
X348907Y1286856D01*
X349383Y1286236D01*
X351646Y1283974D01*
X351467Y1282613D01*
X351663Y1281119D01*
X352240Y1279726D01*
X353158Y1278530D01*
X354353Y1277613D01*
X355746Y1277036D01*
X357240Y1276839D01*
X358735Y1277036D01*
X360127Y1277613D01*
X361323Y1278530D01*
X362241Y1279726D01*
X362818Y1281119D01*
X363014Y1282613D01*
X362818Y1284107D01*
X362241Y1285500D01*
X361323Y1286696D01*
X360127Y1287613D01*
X358735Y1288190D01*
X357240Y1288387D01*
X355880Y1288208D01*
X354494Y1289594D01*
Y1304260D01*
X364240Y1314006D01*
X403766D01*
X404541Y1314108D01*
X405263Y1314407D01*
X405883Y1314883D01*
X413617Y1322617D01*
X414093Y1323237D01*
X414217Y1323536D01*
X414392Y1323959D01*
X414494Y1324734D01*
Y1385500D01*
X414392Y1386275D01*
X414093Y1386997D01*
X413617Y1387617D01*
X408117Y1393117D01*
X407497Y1393593D01*
X406775Y1393892D01*
X406000Y1393994D01*
X390452D01*
X390300Y1394494D01*
X390723Y1394777D01*
X397223Y1401277D01*
X397598Y1401838D01*
X397730Y1402500D01*
Y1411000D01*
X426655D01*
X427008Y1410647D01*
D02*
G37*
%LPC*%
G36*
X294083Y1514903D02*
X292597D01*
Y1512215D01*
X294083D01*
Y1514903D01*
D02*
G37*
G36*
X291597D02*
X290111D01*
Y1512215D01*
X291597D01*
Y1514903D01*
D02*
G37*
G36*
X304164Y1511389D02*
X301597D01*
Y1509019D01*
X304164D01*
Y1511389D01*
D02*
G37*
G36*
X300597D02*
X298030D01*
Y1509019D01*
X300597D01*
Y1511389D01*
D02*
G37*
G36*
X294083Y1511215D02*
X292597D01*
Y1508528D01*
X294083D01*
Y1511215D01*
D02*
G37*
G36*
X291597D02*
X290111D01*
Y1508528D01*
X291597D01*
Y1511215D01*
D02*
G37*
G36*
X310097Y1511086D02*
X307605D01*
Y1508207D01*
X310097D01*
Y1511086D01*
D02*
G37*
G36*
X262034Y1555682D02*
X261500D01*
Y1551500D01*
X264107D01*
Y1553608D01*
X263949Y1554402D01*
X263499Y1555074D01*
X262827Y1555524D01*
X262034Y1555682D01*
D02*
G37*
G36*
X290183D02*
X289650D01*
Y1551500D01*
X292256D01*
Y1553608D01*
X292099Y1554402D01*
X291649Y1555074D01*
X290977Y1555524D01*
X290183Y1555682D01*
D02*
G37*
G36*
X288650D02*
X288116D01*
X287323Y1555524D01*
X286650Y1555074D01*
X286201Y1554402D01*
X286043Y1553608D01*
Y1551500D01*
X288650D01*
Y1555682D01*
D02*
G37*
G36*
X260500D02*
X259966D01*
X259173Y1555524D01*
X258501Y1555074D01*
X258051Y1554402D01*
X257893Y1553608D01*
Y1551500D01*
X260500D01*
Y1555682D01*
D02*
G37*
G36*
X292256Y1550500D02*
X289650D01*
Y1546318D01*
X290183D01*
X290977Y1546476D01*
X291649Y1546926D01*
X292099Y1547598D01*
X292256Y1548392D01*
Y1550500D01*
D02*
G37*
G36*
X288650D02*
X286043D01*
Y1548392D01*
X286201Y1547598D01*
X286650Y1546926D01*
X287323Y1546476D01*
X288116Y1546318D01*
X288650D01*
Y1550500D01*
D02*
G37*
G36*
X264107D02*
X261500D01*
Y1546318D01*
X262034D01*
X262827Y1546476D01*
X263499Y1546926D01*
X263949Y1547598D01*
X264107Y1548392D01*
Y1550500D01*
D02*
G37*
G36*
X260500D02*
X257893D01*
Y1548392D01*
X258051Y1547598D01*
X258501Y1546926D01*
X259173Y1546476D01*
X259966Y1546318D01*
X260500D01*
Y1550500D01*
D02*
G37*
G36*
X359953Y1553453D02*
X352047D01*
Y1545547D01*
X359953D01*
Y1553453D01*
D02*
G37*
G36*
X346000Y1553487D02*
X344968Y1553351D01*
X344007Y1552953D01*
X343181Y1552319D01*
X342547Y1551493D01*
X342149Y1550532D01*
X342013Y1549500D01*
X342149Y1548468D01*
X342547Y1547507D01*
X343181Y1546681D01*
X344007Y1546047D01*
X344968Y1545649D01*
X346000Y1545513D01*
X347032Y1545649D01*
X347993Y1546047D01*
X348819Y1546681D01*
X349453Y1547507D01*
X349851Y1548468D01*
X349987Y1549500D01*
X349851Y1550532D01*
X349453Y1551493D01*
X348819Y1552319D01*
X347993Y1552953D01*
X347032Y1553351D01*
X346000Y1553487D01*
D02*
G37*
G36*
X306000D02*
X304968Y1553351D01*
X304007Y1552953D01*
X303181Y1552319D01*
X302547Y1551493D01*
X302149Y1550532D01*
X302013Y1549500D01*
X302149Y1548468D01*
X302547Y1547507D01*
X303181Y1546681D01*
X304007Y1546047D01*
X304968Y1545649D01*
X306000Y1545513D01*
X307032Y1545649D01*
X307993Y1546047D01*
X308819Y1546681D01*
X309453Y1547507D01*
X309851Y1548468D01*
X309987Y1549500D01*
X309851Y1550532D01*
X309453Y1551493D01*
X308819Y1552319D01*
X307993Y1552953D01*
X307032Y1553351D01*
X306000Y1553487D01*
D02*
G37*
G36*
X262034Y1542099D02*
X261500D01*
Y1537917D01*
X264107D01*
Y1540026D01*
X263949Y1540819D01*
X263499Y1541492D01*
X262827Y1541941D01*
X262034Y1542099D01*
D02*
G37*
G36*
X290183D02*
X289650D01*
Y1537917D01*
X292256D01*
Y1540026D01*
X292099Y1540819D01*
X291649Y1541492D01*
X290977Y1541941D01*
X290183Y1542099D01*
D02*
G37*
G36*
X288650D02*
X288116D01*
X287323Y1541941D01*
X286650Y1541492D01*
X286201Y1540819D01*
X286043Y1540026D01*
Y1537917D01*
X288650D01*
Y1542099D01*
D02*
G37*
G36*
X260500D02*
X259966D01*
X259173Y1541941D01*
X258501Y1541492D01*
X258051Y1540819D01*
X257893Y1540026D01*
Y1537917D01*
X260500D01*
Y1542099D01*
D02*
G37*
G36*
X269457Y1537902D02*
X268157D01*
Y1532874D01*
X269457D01*
Y1537902D01*
D02*
G37*
G36*
X292256Y1536917D02*
X289650D01*
Y1532736D01*
X290183D01*
X290977Y1532894D01*
X291649Y1533343D01*
X292099Y1534016D01*
X292256Y1534809D01*
Y1536917D01*
D02*
G37*
G36*
X288650D02*
X286043D01*
Y1534809D01*
X286201Y1534016D01*
X286650Y1533343D01*
X287323Y1532894D01*
X288116Y1532736D01*
X288650D01*
Y1536917D01*
D02*
G37*
G36*
X264107D02*
X261500D01*
Y1532736D01*
X262034D01*
X262827Y1532894D01*
X263499Y1533343D01*
X263949Y1534016D01*
X264107Y1534809D01*
Y1536917D01*
D02*
G37*
G36*
X260500D02*
X257893D01*
Y1534809D01*
X258051Y1534016D01*
X258501Y1533343D01*
X259173Y1532894D01*
X259966Y1532736D01*
X260500D01*
Y1536917D01*
D02*
G37*
G36*
X237063Y1531035D02*
X237025Y1531028D01*
X232925D01*
Y1525878D01*
X237025D01*
X237063Y1525870D01*
X237088Y1525875D01*
X237114Y1525872D01*
X237139Y1525878D01*
X238075D01*
Y1526241D01*
X238743Y1526283D01*
X239228Y1526072D01*
Y1525878D01*
X240164D01*
X240189Y1525872D01*
X240215Y1525875D01*
X240240Y1525870D01*
X240279Y1525878D01*
X244772D01*
Y1530634D01*
X240279D01*
X240240Y1530641D01*
X240227Y1530639D01*
X240213Y1530641D01*
X239942Y1530634D01*
X239228D01*
Y1530615D01*
X238738Y1530602D01*
X238326Y1530628D01*
X238075Y1530658D01*
Y1531028D01*
X237139D01*
X237114Y1531034D01*
X237088Y1531030D01*
X237063Y1531035D01*
D02*
G37*
G36*
X269228Y1527772D02*
X267547D01*
Y1525500D01*
X269228D01*
Y1527772D01*
D02*
G37*
G36*
X266547D02*
X264866D01*
Y1525500D01*
X266547D01*
Y1527772D01*
D02*
G37*
G36*
X248868Y1526188D02*
X247954Y1526068D01*
X247103Y1525715D01*
X246372Y1525154D01*
X246192Y1524920D01*
X246188Y1524917D01*
X246159Y1524891D01*
X246142Y1524883D01*
X245977Y1524829D01*
X245735Y1524776D01*
X245138Y1524733D01*
X244772Y1525074D01*
Y1525122D01*
X243798D01*
X243760Y1525130D01*
X243722Y1525122D01*
X239228D01*
Y1521416D01*
X239221Y1521378D01*
X239228Y1521340D01*
Y1520366D01*
X239933D01*
X239978Y1520200D01*
X240023Y1519945D01*
X240077Y1519289D01*
Y1517296D01*
X237140Y1514360D01*
X236724Y1513736D01*
X236577Y1513000D01*
Y1500848D01*
X236540Y1500016D01*
X236538Y1499992D01*
X236245D01*
Y1499034D01*
X236238Y1499000D01*
X236240Y1498990D01*
X236238Y1498981D01*
X236245Y1498942D01*
Y1495499D01*
X236238Y1495461D01*
X236240Y1495452D01*
X236238Y1495442D01*
X236245Y1495408D01*
Y1494449D01*
X236245D01*
X236347Y1493949D01*
X236245Y1493764D01*
X236245D01*
Y1492805D01*
X236238Y1492772D01*
X236240Y1492762D01*
X236238Y1492752D01*
X236245Y1492714D01*
Y1488221D01*
X241001D01*
Y1492714D01*
X241009Y1492752D01*
X241001Y1492790D01*
Y1493764D01*
X240959D01*
X240868Y1493949D01*
X241001Y1494449D01*
X241001D01*
Y1495423D01*
X241009Y1495461D01*
X241001Y1495499D01*
Y1498942D01*
X241009Y1498981D01*
X241001Y1499019D01*
Y1499992D01*
X240509D01*
X240495Y1500069D01*
X240423Y1501022D01*
Y1512204D01*
X243360Y1515140D01*
X243776Y1515764D01*
X243923Y1516500D01*
Y1519177D01*
X243938Y1519603D01*
X243974Y1519932D01*
X244022Y1520200D01*
X244067Y1520366D01*
X244772D01*
Y1520366D01*
X245059Y1520629D01*
X245320Y1520606D01*
X245695Y1520549D01*
X245977Y1520487D01*
X246142Y1520434D01*
X246159Y1520425D01*
X246188Y1520399D01*
X246192Y1520397D01*
X246372Y1520162D01*
X247103Y1519601D01*
X247954Y1519248D01*
X248868Y1519128D01*
X249782Y1519248D01*
X250633Y1519601D01*
X251364Y1520162D01*
X251925Y1520893D01*
X252278Y1521744D01*
X252398Y1522658D01*
X252278Y1523572D01*
X251925Y1524423D01*
X251364Y1525154D01*
X250633Y1525715D01*
X249782Y1526068D01*
X248868Y1526188D01*
D02*
G37*
G36*
X238075Y1525122D02*
X236000D01*
Y1523047D01*
X238075D01*
Y1525122D01*
D02*
G37*
G36*
X235000D02*
X232925D01*
Y1523047D01*
X235000D01*
Y1525122D01*
D02*
G37*
G36*
X269228Y1524500D02*
X267547D01*
Y1522228D01*
X269228D01*
Y1524500D01*
D02*
G37*
G36*
X266547D02*
X264866D01*
Y1522228D01*
X266547D01*
Y1524500D01*
D02*
G37*
G36*
X238075Y1522047D02*
X236000D01*
Y1519972D01*
X238075D01*
Y1522047D01*
D02*
G37*
G36*
X235000D02*
X232925D01*
Y1519972D01*
X235000D01*
Y1522047D01*
D02*
G37*
G36*
X313590Y1521279D02*
X311097D01*
Y1518400D01*
X313590D01*
Y1521279D01*
D02*
G37*
G36*
X310097D02*
X307605D01*
Y1518400D01*
X310097D01*
Y1521279D01*
D02*
G37*
G36*
X304164Y1520467D02*
X301597D01*
Y1518097D01*
X304164D01*
Y1520467D01*
D02*
G37*
G36*
X300597D02*
X298030D01*
Y1518097D01*
X300597D01*
Y1520467D01*
D02*
G37*
G36*
X287369Y1515971D02*
X285097D01*
Y1514290D01*
X287369D01*
Y1515971D01*
D02*
G37*
G36*
X284097D02*
X281826D01*
Y1514290D01*
X284097D01*
Y1515971D01*
D02*
G37*
G36*
X269228Y1516272D02*
X267547D01*
Y1514000D01*
X269228D01*
Y1516272D01*
D02*
G37*
G36*
X266547D02*
X264866D01*
Y1514000D01*
X266547D01*
Y1516272D01*
D02*
G37*
G36*
X287369Y1513290D02*
X285097D01*
Y1511609D01*
X287369D01*
Y1513290D01*
D02*
G37*
G36*
X284097D02*
X281826D01*
Y1511609D01*
X284097D01*
Y1513290D01*
D02*
G37*
G36*
X269228Y1513000D02*
X267547D01*
Y1510728D01*
X269228D01*
Y1513000D01*
D02*
G37*
G36*
X266547D02*
X264866D01*
Y1510728D01*
X266547D01*
Y1513000D01*
D02*
G37*
G36*
X245501Y1500000D02*
X245463Y1499992D01*
X241757D01*
Y1494449D01*
X245463D01*
X245501Y1494442D01*
X245539Y1494449D01*
X246513D01*
Y1495154D01*
X246680Y1495199D01*
X246934Y1495244D01*
X247591Y1495298D01*
X247932D01*
X248273Y1495288D01*
X248613Y1495257D01*
X248893Y1495215D01*
X249024Y1495186D01*
Y1494592D01*
X249998D01*
X250036Y1494585D01*
X250075Y1494592D01*
X254024D01*
Y1499393D01*
X250133D01*
X250117Y1499397D01*
X250080Y1499393D01*
X250075D01*
X250036Y1499400D01*
X249998Y1499393D01*
X249024D01*
Y1499210D01*
X248062Y1499144D01*
X247702D01*
X247276Y1499159D01*
X246948Y1499195D01*
X246680Y1499243D01*
X246513Y1499288D01*
Y1499992D01*
X245539D01*
X245501Y1500000D01*
D02*
G37*
G36*
X246513Y1493764D02*
X241757D01*
Y1488221D01*
X245466D01*
X245505Y1488213D01*
X245542Y1488221D01*
X246513D01*
Y1488747D01*
X246599Y1488764D01*
X247560Y1488841D01*
X248195D01*
X248284Y1488840D01*
X248960Y1488785D01*
X249024Y1488775D01*
Y1488364D01*
X249913D01*
X249913Y1488364D01*
X249915Y1488364D01*
X249998D01*
X250036Y1488357D01*
X250075Y1488364D01*
X254024D01*
Y1493164D01*
X250075D01*
X250036Y1493172D01*
X249998Y1493164D01*
X249915D01*
X249913Y1493164D01*
X249913Y1493164D01*
X249024D01*
Y1492754D01*
X248970Y1492745D01*
X248048Y1492687D01*
X247708D01*
X247274Y1492703D01*
X246944Y1492739D01*
X246676Y1492787D01*
X246513Y1492832D01*
Y1493764D01*
D02*
G37*
G36*
X250646Y1486567D02*
X248276D01*
Y1484000D01*
X250646D01*
Y1486567D01*
D02*
G37*
G36*
X310772Y1488571D02*
X308500D01*
Y1483150D01*
X310772D01*
Y1488571D01*
D02*
G37*
G36*
X250646Y1483000D02*
X248276D01*
Y1480433D01*
X250646D01*
Y1483000D01*
D02*
G37*
G36*
X238000Y1485586D02*
X236942Y1485447D01*
X235957Y1485039D01*
X235111Y1484389D01*
X234461Y1483543D01*
X234053Y1482558D01*
X233914Y1481500D01*
X234053Y1480442D01*
X234461Y1479457D01*
X235111Y1478611D01*
X235957Y1477961D01*
X236942Y1477553D01*
X238000Y1477414D01*
X239058Y1477553D01*
X240043Y1477961D01*
X240889Y1478611D01*
X241539Y1479457D01*
X241947Y1480442D01*
X242086Y1481500D01*
X241947Y1482558D01*
X241539Y1483543D01*
X240889Y1484389D01*
X240043Y1485039D01*
X239058Y1485447D01*
X238000Y1485586D01*
D02*
G37*
G36*
X310772Y1482150D02*
X308500D01*
Y1476728D01*
X310772D01*
Y1482150D01*
D02*
G37*
G36*
X240882Y1474846D02*
X238807D01*
Y1471000D01*
X240882D01*
Y1474846D01*
D02*
G37*
G36*
X237807D02*
X235732D01*
Y1471000D01*
X237807D01*
Y1474846D01*
D02*
G37*
G36*
X245000Y1473025D02*
X244034Y1472833D01*
X243215Y1472285D01*
X242667Y1471466D01*
X242475Y1470500D01*
X242667Y1469534D01*
X243215Y1468715D01*
X244034Y1468167D01*
X245000Y1467975D01*
X245966Y1468167D01*
X246785Y1468715D01*
X247333Y1469534D01*
X247525Y1470500D01*
X247333Y1471466D01*
X246785Y1472285D01*
X245966Y1472833D01*
X245000Y1473025D01*
D02*
G37*
G36*
X240882Y1470000D02*
X238807D01*
Y1466154D01*
X240882D01*
Y1470000D01*
D02*
G37*
G36*
X237807D02*
X235732D01*
Y1466154D01*
X237807D01*
Y1470000D01*
D02*
G37*
G36*
X259724Y1486567D02*
X251646D01*
Y1483500D01*
Y1480433D01*
X254787D01*
X254831Y1480272D01*
X254877Y1480017D01*
X254932Y1479355D01*
Y1478230D01*
X252596Y1475894D01*
X251897Y1475276D01*
X251583Y1475036D01*
X251319Y1474861D01*
X251292Y1474846D01*
X249118D01*
Y1467204D01*
X249111Y1467166D01*
X249118Y1467127D01*
Y1466154D01*
X249669D01*
X249688Y1466061D01*
X249770Y1465094D01*
Y1464307D01*
X249917Y1463571D01*
X250333Y1462947D01*
X251240Y1462041D01*
X251921Y1461341D01*
X252060Y1461185D01*
X251970Y1460500D01*
X252090Y1459586D01*
X252443Y1458735D01*
X253004Y1458004D01*
X253735Y1457443D01*
X254586Y1457090D01*
X255500Y1456970D01*
X256414Y1457090D01*
X257265Y1457443D01*
X257996Y1458004D01*
X258557Y1458735D01*
X258910Y1459586D01*
X259030Y1460500D01*
X258910Y1461414D01*
X258557Y1462265D01*
X257996Y1462996D01*
X257265Y1463557D01*
X256414Y1463910D01*
X255500Y1464030D01*
X254888Y1463950D01*
X253616Y1465124D01*
Y1465147D01*
X253655Y1465762D01*
X253692Y1466035D01*
X253717Y1466154D01*
X254268D01*
Y1467127D01*
X254275Y1467166D01*
X254268Y1467204D01*
Y1471871D01*
X254282Y1471898D01*
X254443Y1472141D01*
X255347Y1473206D01*
X258214Y1476073D01*
X258631Y1476697D01*
X258777Y1477433D01*
Y1479239D01*
X258793Y1479674D01*
X258830Y1480003D01*
X258878Y1480272D01*
X258921Y1480433D01*
X259724D01*
Y1486567D01*
D02*
G37*
G36*
X175791Y1460086D02*
X174734Y1459947D01*
X173748Y1459539D01*
X172902Y1458889D01*
X172253Y1458043D01*
X171844Y1457058D01*
X171705Y1456000D01*
X171844Y1454942D01*
X172253Y1453957D01*
X172902Y1453111D01*
X173748Y1452461D01*
X174734Y1452053D01*
X175791Y1451914D01*
X176849Y1452053D01*
X177834Y1452461D01*
X178681Y1453111D01*
X179330Y1453957D01*
X179738Y1454942D01*
X179877Y1456000D01*
X179738Y1457058D01*
X179330Y1458043D01*
X178681Y1458889D01*
X177834Y1459539D01*
X176849Y1459947D01*
X175791Y1460086D01*
D02*
G37*
G36*
X202925Y1450575D02*
X200654D01*
Y1448500D01*
X202925D01*
Y1450575D01*
D02*
G37*
G36*
X199653D02*
X197382D01*
Y1448500D01*
X199653D01*
Y1450575D01*
D02*
G37*
G36*
X202925Y1447500D02*
X200654D01*
Y1445425D01*
X202925D01*
Y1447500D01*
D02*
G37*
G36*
X199653D02*
X197382D01*
Y1445425D01*
X199653D01*
Y1447500D01*
D02*
G37*
G36*
X197500Y1442020D02*
Y1438500D01*
X201020D01*
X200947Y1439058D01*
X200539Y1440043D01*
X199889Y1440889D01*
X199043Y1441539D01*
X198058Y1441947D01*
X197500Y1442020D01*
D02*
G37*
G36*
X196500D02*
X195942Y1441947D01*
X194957Y1441539D01*
X194111Y1440889D01*
X193461Y1440043D01*
X193053Y1439058D01*
X192980Y1438500D01*
X196500D01*
Y1442020D01*
D02*
G37*
G36*
X201020Y1437500D02*
X197500D01*
Y1433980D01*
X198058Y1434053D01*
X199043Y1434461D01*
X199889Y1435111D01*
X200539Y1435957D01*
X200947Y1436942D01*
X201020Y1437500D01*
D02*
G37*
G36*
X196500D02*
X192980D01*
X193053Y1436942D01*
X193461Y1435957D01*
X194111Y1435111D01*
X194957Y1434461D01*
X195942Y1434053D01*
X196500Y1433980D01*
Y1437500D01*
D02*
G37*
G36*
X209618Y1450575D02*
X204075D01*
Y1445425D01*
X208467D01*
Y1444896D01*
X208429Y1442791D01*
X208348Y1441621D01*
X208300Y1441230D01*
X208258Y1441002D01*
X208111Y1440889D01*
X207461Y1440043D01*
X207053Y1439058D01*
X206914Y1438000D01*
X207053Y1436942D01*
X207461Y1435957D01*
X208111Y1435111D01*
X208957Y1434461D01*
X209942Y1434053D01*
X211000Y1433914D01*
X212058Y1434053D01*
X213043Y1434461D01*
X213889Y1435111D01*
X214539Y1435957D01*
X214947Y1436942D01*
X215086Y1438000D01*
X214947Y1439058D01*
X214539Y1440043D01*
X213889Y1440889D01*
X213762Y1440987D01*
X213533Y1444993D01*
Y1446500D01*
X213340Y1447469D01*
X212791Y1448291D01*
X211323Y1449759D01*
X210502Y1450308D01*
X209618Y1450484D01*
Y1450575D01*
D02*
G37*
G36*
X175791Y1427086D02*
X174734Y1426947D01*
X173748Y1426539D01*
X172902Y1425889D01*
X172253Y1425043D01*
X171844Y1424058D01*
X171705Y1423000D01*
X171844Y1421942D01*
X172253Y1420957D01*
X172902Y1420111D01*
X173748Y1419461D01*
X174734Y1419053D01*
X175791Y1418914D01*
X176849Y1419053D01*
X177834Y1419461D01*
X178681Y1420111D01*
X179330Y1420957D01*
X179738Y1421942D01*
X179877Y1423000D01*
X179738Y1424058D01*
X179330Y1425043D01*
X178681Y1425889D01*
X177834Y1426539D01*
X176849Y1426947D01*
X175791Y1427086D01*
D02*
G37*
G36*
X326000Y1553487D02*
X324968Y1553351D01*
X324007Y1552953D01*
X323181Y1552319D01*
X322547Y1551493D01*
X322149Y1550532D01*
X322013Y1549500D01*
X322149Y1548468D01*
X322547Y1547507D01*
X323181Y1546681D01*
X323877Y1546147D01*
Y1544000D01*
X324038Y1543187D01*
X324499Y1542498D01*
X327377Y1539620D01*
Y1520000D01*
X327538Y1519187D01*
X327998Y1518499D01*
X338376Y1508120D01*
Y1441656D01*
X338332Y1440907D01*
X338286Y1440553D01*
X338232Y1440273D01*
X338220Y1440232D01*
X337630D01*
Y1439258D01*
X337622Y1439220D01*
X337630Y1439182D01*
Y1434886D01*
Y1430818D01*
X337622Y1430780D01*
X337628Y1430751D01*
X337624Y1430722D01*
X337630Y1430699D01*
Y1429768D01*
X338049D01*
X338062Y1429694D01*
X338176Y1427936D01*
Y1426721D01*
X338152Y1426078D01*
X338097Y1425573D01*
X338022Y1425152D01*
X337935Y1424832D01*
X337850Y1424622D01*
X337812Y1424559D01*
X336941D01*
Y1423585D01*
X336933Y1423547D01*
X336941Y1423509D01*
Y1417441D01*
X344059D01*
Y1423509D01*
X344067Y1423547D01*
X344059Y1423585D01*
Y1424559D01*
X343188D01*
X343149Y1424622D01*
X343065Y1424832D01*
X342978Y1425152D01*
X342906Y1425560D01*
X342824Y1426548D01*
Y1428320D01*
X342888Y1429303D01*
X342932Y1429665D01*
X342951Y1429768D01*
X343370D01*
Y1430699D01*
X343376Y1430722D01*
X343372Y1430751D01*
X343378Y1430780D01*
X343370Y1430818D01*
Y1434886D01*
Y1439182D01*
X343378Y1439220D01*
X343370Y1439258D01*
Y1440232D01*
X342780D01*
X342768Y1440273D01*
X342719Y1440528D01*
X342623Y1441723D01*
Y1509000D01*
X342462Y1509813D01*
X342002Y1510501D01*
X331624Y1520880D01*
Y1540500D01*
X331462Y1541313D01*
X331001Y1542002D01*
X328123Y1544880D01*
Y1546147D01*
X328819Y1546681D01*
X329453Y1547507D01*
X329851Y1548468D01*
X329987Y1549500D01*
X329851Y1550532D01*
X329453Y1551493D01*
X328819Y1552319D01*
X327993Y1552953D01*
X327032Y1553351D01*
X326000Y1553487D01*
D02*
G37*
G36*
X179842Y1450051D02*
X171740D01*
Y1441949D01*
X173722D01*
X173768Y1441779D01*
X173814Y1441526D01*
X173869Y1440868D01*
Y1440209D01*
X174015Y1439473D01*
X174432Y1438849D01*
X184140Y1429140D01*
X184764Y1428724D01*
X185500Y1428577D01*
X246537D01*
X248911Y1426204D01*
Y1425753D01*
X248895Y1425318D01*
X248858Y1424989D01*
X248810Y1424720D01*
X248766Y1424559D01*
X247274D01*
Y1417441D01*
X254392D01*
Y1424559D01*
X252900D01*
X252857Y1424720D01*
X252811Y1424975D01*
X252756Y1425637D01*
Y1427000D01*
X252610Y1427736D01*
X252193Y1428360D01*
X248693Y1431860D01*
X248069Y1432276D01*
X247333Y1432423D01*
X186296D01*
X177723Y1440996D01*
X177730Y1441185D01*
X177767Y1441512D01*
X177814Y1441779D01*
X177861Y1441949D01*
X179842D01*
Y1450051D01*
D02*
G37*
G36*
X370500Y1424590D02*
X369571Y1424467D01*
X368705Y1424109D01*
X367962Y1423538D01*
X367391Y1422795D01*
X367033Y1421929D01*
X366910Y1421000D01*
X367033Y1420071D01*
X367391Y1419205D01*
X367962Y1418462D01*
X368705Y1417891D01*
X369571Y1417533D01*
X370500Y1417410D01*
X371429Y1417533D01*
X372295Y1417891D01*
X373038Y1418462D01*
X373609Y1419205D01*
X373967Y1420071D01*
X374090Y1421000D01*
X373967Y1421929D01*
X373609Y1422795D01*
X373038Y1423538D01*
X372295Y1424109D01*
X371429Y1424467D01*
X370500Y1424590D01*
D02*
G37*
G36*
X280833D02*
X279904Y1424467D01*
X279039Y1424109D01*
X278295Y1423538D01*
X277725Y1422795D01*
X277366Y1421929D01*
X277244Y1421000D01*
X277366Y1420071D01*
X277725Y1419205D01*
X278295Y1418462D01*
X279039Y1417891D01*
X279904Y1417533D01*
X280833Y1417410D01*
X281762Y1417533D01*
X282628Y1417891D01*
X283372Y1418462D01*
X283942Y1419205D01*
X284301Y1420071D01*
X284423Y1421000D01*
X284301Y1421929D01*
X283942Y1422795D01*
X283372Y1423538D01*
X282628Y1424109D01*
X281762Y1424467D01*
X280833Y1424590D01*
D02*
G37*
G36*
X236000D02*
X235071Y1424467D01*
X234205Y1424109D01*
X233462Y1423538D01*
X232891Y1422795D01*
X232533Y1421929D01*
X232410Y1421000D01*
X232533Y1420071D01*
X232891Y1419205D01*
X233462Y1418462D01*
X234205Y1417891D01*
X235071Y1417533D01*
X236000Y1417410D01*
X236929Y1417533D01*
X237795Y1417891D01*
X238538Y1418462D01*
X239109Y1419205D01*
X239467Y1420071D01*
X239590Y1421000D01*
X239467Y1421929D01*
X239109Y1422795D01*
X238538Y1423538D01*
X237795Y1424109D01*
X236929Y1424467D01*
X236000Y1424590D01*
D02*
G37*
G36*
X387370Y1419232D02*
X385000D01*
Y1417059D01*
X387370D01*
Y1419232D01*
D02*
G37*
G36*
X384000D02*
X381630D01*
Y1417059D01*
X384000D01*
Y1419232D01*
D02*
G37*
%LPD*%
G36*
X237095Y1529924D02*
X237193Y1529843D01*
X237355Y1529771D01*
X237582Y1529708D01*
X237875Y1529655D01*
X238232Y1529612D01*
X238719Y1529581D01*
X240240Y1529622D01*
Y1529537D01*
X240311Y1529535D01*
Y1527370D01*
X240240Y1527369D01*
Y1526890D01*
X240208Y1526981D01*
X240110Y1527063D01*
X239948Y1527135D01*
X239721Y1527197D01*
X239428Y1527250D01*
X239071Y1527293D01*
X238814Y1527310D01*
X237875Y1527250D01*
X237582Y1527197D01*
X237355Y1527135D01*
X237193Y1527063D01*
X237095Y1526981D01*
X237063Y1526890D01*
Y1527369D01*
X236992Y1527370D01*
Y1529535D01*
X237063Y1529537D01*
Y1530016D01*
X237095Y1529924D01*
D02*
G37*
G36*
X246867Y1521159D02*
X246737Y1521276D01*
X246529Y1521380D01*
X246244Y1521472D01*
X245882Y1521552D01*
X245442Y1521619D01*
X244656Y1521688D01*
X244424Y1521674D01*
X244185Y1521630D01*
X243999Y1521579D01*
X243866Y1521520D01*
X243786Y1521453D01*
X243760Y1521378D01*
X243594Y1521352D01*
X243445Y1521272D01*
X243314Y1521139D01*
X243200Y1520953D01*
X243104Y1520714D01*
X243026Y1520422D01*
X242965Y1520076D01*
X242921Y1519677D01*
X242886Y1518721D01*
X241114D01*
X241105Y1519226D01*
X241036Y1520076D01*
X240974Y1520422D01*
X240896Y1520714D01*
X240800Y1520953D01*
X240686Y1521139D01*
X240555Y1521272D01*
X240406Y1521352D01*
X240240Y1521378D01*
X243760D01*
Y1521737D01*
X242912Y1521766D01*
X242086Y1521772D01*
Y1523544D01*
X242912Y1523550D01*
X243760Y1523611D01*
Y1524110D01*
X243786Y1524002D01*
X243866Y1523906D01*
X243999Y1523821D01*
X244185Y1523748D01*
X244424Y1523685D01*
X244530Y1523667D01*
X245882Y1523765D01*
X246244Y1523844D01*
X246529Y1523936D01*
X246737Y1524040D01*
X246867Y1524157D01*
Y1521159D01*
D02*
G37*
G36*
X239392Y1501133D02*
X239482Y1499937D01*
X239537Y1499645D01*
X239603Y1499406D01*
X239682Y1499220D01*
X239772Y1499087D01*
X239875Y1499007D01*
X239989Y1498981D01*
X237258D01*
X237325Y1499007D01*
X237386Y1499087D01*
X237439Y1499220D01*
X237486Y1499406D01*
X237525Y1499645D01*
X237557Y1499937D01*
X237611Y1501133D01*
X237614Y1501638D01*
X239386D01*
X239392Y1501133D01*
D02*
G37*
G36*
X239875Y1495435D02*
X239772Y1495355D01*
X239682Y1495222D01*
X239603Y1495036D01*
X239537Y1494797D01*
X239482Y1494505D01*
X239445Y1494200D01*
X239482Y1493709D01*
X239537Y1493417D01*
X239603Y1493177D01*
X239682Y1492991D01*
X239772Y1492859D01*
X239875Y1492779D01*
X239989Y1492752D01*
X237258D01*
X237325Y1492779D01*
X237386Y1492859D01*
X237439Y1492991D01*
X237486Y1493177D01*
X237525Y1493417D01*
X237557Y1493709D01*
X237566Y1493919D01*
X237486Y1495036D01*
X237439Y1495222D01*
X237386Y1495355D01*
X237325Y1495435D01*
X237258Y1495461D01*
X239989D01*
X239875Y1495435D01*
D02*
G37*
G36*
X245528Y1498814D02*
X245607Y1498666D01*
X245740Y1498535D01*
X245926Y1498421D01*
X246166Y1498325D01*
X246458Y1498246D01*
X246803Y1498185D01*
X247202Y1498142D01*
X247953Y1498114D01*
X249797Y1498241D01*
X249930Y1498282D01*
X250010Y1498328D01*
X250036Y1498380D01*
Y1495605D01*
X250010Y1495743D01*
X249930Y1495868D01*
X249797Y1495977D01*
X249611Y1496072D01*
X249372Y1496152D01*
X249080Y1496218D01*
X248734Y1496269D01*
X248336Y1496306D01*
X247661Y1496326D01*
X247654Y1496326D01*
X246803Y1496256D01*
X246458Y1496195D01*
X246166Y1496117D01*
X245926Y1496021D01*
X245740Y1495907D01*
X245607Y1495776D01*
X245528Y1495627D01*
X245501Y1495461D01*
Y1498981D01*
X245528Y1498814D01*
D02*
G37*
G36*
X245516Y1492367D02*
X245597Y1492217D01*
X245731Y1492084D01*
X245918Y1491969D01*
X246158Y1491871D01*
X246452Y1491792D01*
X246799Y1491730D01*
X247199Y1491685D01*
X247935Y1491658D01*
X249080Y1491730D01*
X249372Y1491776D01*
X249611Y1491831D01*
X249797Y1491896D01*
X249930Y1491971D01*
X250010Y1492057D01*
X250036Y1492152D01*
Y1489376D01*
X250010Y1489472D01*
X249930Y1489557D01*
X249797Y1489632D01*
X249611Y1489698D01*
X249372Y1489753D01*
X249080Y1489798D01*
X248336Y1489858D01*
X247674Y1489872D01*
X247654Y1489872D01*
X246458Y1489775D01*
X246166Y1489717D01*
X245926Y1489646D01*
X245740Y1489562D01*
X245607Y1489465D01*
X245528Y1489355D01*
X245501Y1489233D01*
X245489Y1492536D01*
X245516Y1492367D01*
D02*
G37*
G36*
X258458Y1481430D02*
X258307Y1481350D01*
X258174Y1481217D01*
X258059Y1481030D01*
X257962Y1480790D01*
X257882Y1480496D01*
X257820Y1480149D01*
X257776Y1479749D01*
X257740Y1478788D01*
X255968D01*
X255960Y1479295D01*
X255889Y1480149D01*
X255827Y1480496D01*
X255747Y1480790D01*
X255650Y1481030D01*
X255535Y1481217D01*
X255402Y1481350D01*
X255251Y1481430D01*
X255083Y1481457D01*
X258626D01*
X258458Y1481430D01*
D02*
G37*
G36*
X255135Y1474461D02*
X254664Y1473977D01*
X253627Y1472754D01*
X253406Y1472422D01*
X253249Y1472128D01*
X253153Y1471871D01*
X253121Y1471653D01*
X253151Y1471472D01*
X253244Y1471329D01*
X250750Y1473822D01*
X250893Y1473730D01*
X251074Y1473700D01*
X251293Y1473732D01*
X251549Y1473827D01*
X251843Y1473985D01*
X252175Y1474205D01*
X252545Y1474489D01*
X253399Y1475243D01*
X253882Y1475714D01*
X255135Y1474461D01*
D02*
G37*
G36*
X253127Y1467139D02*
X253012Y1467059D01*
X252910Y1466926D01*
X252822Y1466740D01*
X252748Y1466501D01*
X252687Y1466209D01*
X252640Y1465863D01*
X252586Y1465013D01*
X252581Y1464692D01*
X254596Y1462831D01*
X253169Y1461403D01*
X253157Y1461449D01*
X253100Y1461535D01*
X253000Y1461661D01*
X252668Y1462036D01*
X251066Y1463681D01*
X251894Y1464508D01*
X250807D01*
X250800Y1465013D01*
X250699Y1466209D01*
X250638Y1466501D01*
X250563Y1466740D01*
X250475Y1466926D01*
X250374Y1467059D01*
X250259Y1467139D01*
X250130Y1467166D01*
X253256D01*
X253127Y1467139D01*
D02*
G37*
G36*
X212489Y1445399D02*
X212755Y1440735D01*
X212827Y1440504D01*
X212907Y1440382D01*
X209093D01*
X209173Y1440504D01*
X209245Y1440735D01*
X209309Y1441075D01*
X209364Y1441523D01*
X209448Y1442747D01*
X209516Y1446500D01*
X212484D01*
X212489Y1445399D01*
D02*
G37*
G36*
X341590Y1441851D02*
X341707Y1440390D01*
X341776Y1440032D01*
X341862Y1439740D01*
X341963Y1439513D01*
X342079Y1439350D01*
X342211Y1439253D01*
X342358Y1439220D01*
X338642D01*
X338789Y1439253D01*
X338921Y1439350D01*
X339037Y1439513D01*
X339138Y1439740D01*
X339224Y1440032D01*
X339293Y1440390D01*
X339348Y1440812D01*
X339410Y1441851D01*
X339417Y1442468D01*
X341583D01*
X341590Y1441851D01*
D02*
G37*
G36*
X342248Y1430741D02*
X342150Y1430626D01*
X342063Y1430434D01*
X341988Y1430166D01*
X341924Y1429820D01*
X341872Y1429398D01*
X341803Y1428323D01*
X341783Y1427168D01*
X341792Y1426656D01*
X341894Y1425428D01*
X341982Y1424929D01*
X342096Y1424507D01*
X342236Y1424161D01*
X342401Y1423892D01*
X342591Y1423701D01*
X342806Y1423585D01*
X343047Y1423547D01*
X337953D01*
X338194Y1423585D01*
X338409Y1423701D01*
X338599Y1423892D01*
X338764Y1424161D01*
X338904Y1424507D01*
X339018Y1424929D01*
X339106Y1425428D01*
X339170Y1426004D01*
X339218Y1427307D01*
X339215Y1427670D01*
X339076Y1429820D01*
X339012Y1430166D01*
X338937Y1430434D01*
X338850Y1430626D01*
X338752Y1430741D01*
X338642Y1430780D01*
X342358D01*
X342248Y1430741D01*
D02*
G37*
G36*
X177395Y1442934D02*
X177244Y1442854D01*
X177111Y1442722D01*
X176996Y1442536D01*
X176899Y1442297D01*
X176819Y1442004D01*
X176757Y1441659D01*
X176713Y1441260D01*
X176677Y1440303D01*
X174906D01*
X174897Y1440808D01*
X174826Y1441659D01*
X174764Y1442004D01*
X174684Y1442297D01*
X174587Y1442536D01*
X174471Y1442722D01*
X174339Y1442854D01*
X174188Y1442934D01*
X174020Y1442961D01*
X177563D01*
X177395Y1442934D01*
D02*
G37*
G36*
X251728Y1425697D02*
X251799Y1424843D01*
X251861Y1424496D01*
X251941Y1424202D01*
X252038Y1423962D01*
X252153Y1423775D01*
X252286Y1423642D01*
X252437Y1423562D01*
X252605Y1423535D01*
X249062D01*
X249230Y1423562D01*
X249381Y1423642D01*
X249514Y1423775D01*
X249629Y1423962D01*
X249726Y1424202D01*
X249806Y1424496D01*
X249868Y1424843D01*
X249912Y1425243D01*
X249948Y1426204D01*
X251719D01*
X251728Y1425697D01*
D02*
G37*
%LPC*%
G36*
X322672Y1514130D02*
X320597D01*
Y1511858D01*
X322672D01*
Y1514130D01*
D02*
G37*
G36*
X319597D02*
X317522D01*
Y1511858D01*
X319597D01*
Y1514130D01*
D02*
G37*
G36*
X322672Y1510858D02*
X320597D01*
Y1508587D01*
X322672D01*
Y1510858D01*
D02*
G37*
G36*
X319597D02*
X317522D01*
Y1508587D01*
X319597D01*
Y1510858D01*
D02*
G37*
G36*
X325667Y1424590D02*
X324738Y1424467D01*
X323872Y1424109D01*
X323128Y1423538D01*
X322558Y1422795D01*
X322199Y1421929D01*
X322077Y1421000D01*
X322199Y1420071D01*
X322558Y1419205D01*
X323128Y1418462D01*
X323872Y1417891D01*
X324738Y1417533D01*
X325667Y1417410D01*
X326596Y1417533D01*
X327462Y1417891D01*
X328205Y1418462D01*
X328776Y1419205D01*
X329134Y1420071D01*
X329256Y1421000D01*
X329134Y1421929D01*
X328776Y1422795D01*
X328205Y1423538D01*
X327462Y1424109D01*
X326596Y1424467D01*
X325667Y1424590D01*
D02*
G37*
G36*
X326167Y1414524D02*
Y1411500D01*
X329191D01*
X329134Y1411929D01*
X328776Y1412795D01*
X328205Y1413538D01*
X327462Y1414109D01*
X326596Y1414467D01*
X326167Y1414524D01*
D02*
G37*
G36*
X325167D02*
X324738Y1414467D01*
X323872Y1414109D01*
X323128Y1413538D01*
X322558Y1412795D01*
X322199Y1411929D01*
X322143Y1411500D01*
X325167D01*
Y1414524D01*
D02*
G37*
G36*
X329191Y1410500D02*
X326167D01*
Y1407476D01*
X326596Y1407533D01*
X327462Y1407891D01*
X328205Y1408462D01*
X328776Y1409205D01*
X329134Y1410071D01*
X329191Y1410500D01*
D02*
G37*
G36*
X325167D02*
X322143D01*
X322199Y1410071D01*
X322558Y1409205D01*
X323128Y1408462D01*
X323872Y1407891D01*
X324738Y1407533D01*
X325167Y1407476D01*
Y1410500D01*
D02*
G37*
G36*
X281333Y1404524D02*
Y1401500D01*
X284357D01*
X284301Y1401929D01*
X283942Y1402795D01*
X283372Y1403538D01*
X282628Y1404109D01*
X281762Y1404467D01*
X281333Y1404524D01*
D02*
G37*
G36*
X280333D02*
X279904Y1404467D01*
X279039Y1404109D01*
X278295Y1403538D01*
X277725Y1402795D01*
X277366Y1401929D01*
X277309Y1401500D01*
X280333D01*
Y1404524D01*
D02*
G37*
G36*
X236500D02*
Y1401500D01*
X239524D01*
X239467Y1401929D01*
X239109Y1402795D01*
X238538Y1403538D01*
X237795Y1404109D01*
X236929Y1404467D01*
X236500Y1404524D01*
D02*
G37*
G36*
X235500D02*
X235071Y1404467D01*
X234205Y1404109D01*
X233462Y1403538D01*
X232891Y1402795D01*
X232533Y1401929D01*
X232476Y1401500D01*
X235500D01*
Y1404524D01*
D02*
G37*
G36*
X284357Y1400500D02*
X281333D01*
Y1397476D01*
X281762Y1397533D01*
X282628Y1397891D01*
X283372Y1398462D01*
X283942Y1399205D01*
X284301Y1400071D01*
X284357Y1400500D01*
D02*
G37*
G36*
X280333D02*
X277309D01*
X277366Y1400071D01*
X277725Y1399205D01*
X278295Y1398462D01*
X279039Y1397891D01*
X279904Y1397533D01*
X280333Y1397476D01*
Y1400500D01*
D02*
G37*
G36*
X239524D02*
X236500D01*
Y1397476D01*
X236929Y1397533D01*
X237795Y1397891D01*
X238538Y1398462D01*
X239109Y1399205D01*
X239467Y1400071D01*
X239524Y1400500D01*
D02*
G37*
G36*
X235500D02*
X232476D01*
X232533Y1400071D01*
X232891Y1399205D01*
X233462Y1398462D01*
X234205Y1397891D01*
X235071Y1397533D01*
X235500Y1397476D01*
Y1400500D01*
D02*
G37*
G36*
X295667Y1404590D02*
X294738Y1404467D01*
X293872Y1404109D01*
X293128Y1403538D01*
X292558Y1402795D01*
X292199Y1401929D01*
X292077Y1401000D01*
X292199Y1400071D01*
X292558Y1399205D01*
X293128Y1398462D01*
X293872Y1397891D01*
X294738Y1397533D01*
X295667Y1397410D01*
X296596Y1397533D01*
X297462Y1397891D01*
X298205Y1398462D01*
X298776Y1399205D01*
X299134Y1400071D01*
X299256Y1401000D01*
X299134Y1401929D01*
X298776Y1402795D01*
X298205Y1403538D01*
X297462Y1404109D01*
X296596Y1404467D01*
X295667Y1404590D01*
D02*
G37*
G36*
X250833D02*
X249904Y1404467D01*
X249039Y1404109D01*
X248295Y1403538D01*
X247725Y1402795D01*
X247366Y1401929D01*
X247244Y1401000D01*
X247366Y1400071D01*
X247725Y1399205D01*
X248295Y1398462D01*
X249039Y1397891D01*
X249904Y1397533D01*
X250833Y1397410D01*
X251762Y1397533D01*
X252628Y1397891D01*
X253372Y1398462D01*
X253942Y1399205D01*
X254301Y1400071D01*
X254423Y1401000D01*
X254301Y1401929D01*
X253942Y1402795D01*
X253372Y1403538D01*
X252628Y1404109D01*
X251762Y1404467D01*
X250833Y1404590D01*
D02*
G37*
G36*
X379370Y1380246D02*
X378133Y1380083D01*
X377675Y1379893D01*
X377546Y1379868D01*
X377517Y1379848D01*
X377483Y1379839D01*
X377177Y1379687D01*
X376980Y1379605D01*
X376920Y1379559D01*
X376863Y1379531D01*
X376242Y1379267D01*
X375592Y1379033D01*
X374924Y1378832D01*
X373447Y1378510D01*
X372697Y1378402D01*
X371039Y1378272D01*
X370497Y1378262D01*
X359291D01*
X358516Y1378160D01*
X358092Y1377985D01*
X357793Y1377861D01*
X357173Y1377385D01*
X354867Y1375079D01*
X354391Y1374459D01*
X354092Y1373736D01*
X353990Y1372962D01*
Y1369702D01*
X353920Y1367791D01*
X353829Y1366975D01*
X353705Y1366283D01*
X353556Y1365735D01*
X353395Y1365339D01*
X353246Y1365098D01*
X353143Y1364994D01*
X353094Y1364968D01*
X352995Y1364953D01*
X350079D01*
Y1357047D01*
X363890D01*
Y1364953D01*
X360974D01*
X360875Y1364968D01*
X360826Y1364994D01*
X360723Y1365098D01*
X360574Y1365339D01*
X360413Y1365735D01*
X360263Y1366283D01*
X360142Y1366961D01*
X359991Y1368773D01*
X359978Y1369511D01*
Y1371721D01*
X360531Y1372274D01*
X370497D01*
X371039Y1372264D01*
X372697Y1372133D01*
X373447Y1372025D01*
X374924Y1371703D01*
X375592Y1371503D01*
X376242Y1371268D01*
X376863Y1371004D01*
X376920Y1370976D01*
X376980Y1370930D01*
X377177Y1370848D01*
X377483Y1370697D01*
X377517Y1370687D01*
X377546Y1370668D01*
X377675Y1370642D01*
X378133Y1370453D01*
X379370Y1370290D01*
X380608Y1370453D01*
X381761Y1370930D01*
X382751Y1371690D01*
X383511Y1372680D01*
X383988Y1373833D01*
X384151Y1375071D01*
Y1375465D01*
X383988Y1376702D01*
X383511Y1377855D01*
X382751Y1378845D01*
X381761Y1379605D01*
X380608Y1380083D01*
X379370Y1380246D01*
D02*
G37*
G36*
X291968Y1355331D02*
X289500D01*
Y1353059D01*
X291968D01*
Y1355331D01*
D02*
G37*
G36*
X288500D02*
X286032D01*
Y1353059D01*
X288500D01*
Y1355331D01*
D02*
G37*
G36*
X201969D02*
X199500D01*
Y1354071D01*
X200957D01*
X200847Y1354030D01*
X200748Y1353906D01*
X200661Y1353699D01*
X200586Y1353410D01*
X200526Y1353059D01*
X201969D01*
Y1353891D01*
Y1355331D01*
D02*
G37*
G36*
X198500D02*
X196031D01*
Y1353059D01*
X197474D01*
X197414Y1353410D01*
X197339Y1353699D01*
X197252Y1353906D01*
X197153Y1354030D01*
X197044Y1354071D01*
X198500D01*
Y1355331D01*
D02*
G37*
G36*
X363890Y1354953D02*
X350079D01*
Y1347047D01*
X363890D01*
Y1354953D01*
D02*
G37*
G36*
X311921D02*
X298110D01*
Y1347047D01*
X311921D01*
Y1354953D01*
D02*
G37*
G36*
X272390D02*
X258579D01*
Y1347047D01*
X272390D01*
Y1354953D01*
D02*
G37*
G36*
X220421D02*
X206610D01*
Y1347047D01*
X220421D01*
Y1352564D01*
Y1354953D01*
D02*
G37*
G36*
X383913Y1369614D02*
X374827D01*
Y1361971D01*
X374819Y1361933D01*
X374827Y1361895D01*
Y1360921D01*
X375700D01*
X375718Y1360918D01*
X375769Y1360854D01*
X375891Y1360605D01*
X376025Y1360192D01*
X376142Y1359654D01*
X376263Y1358282D01*
X376248Y1358113D01*
X376147Y1357408D01*
X376025Y1356844D01*
X375891Y1356431D01*
X375769Y1356182D01*
X375718Y1356118D01*
X375700Y1356114D01*
X374827D01*
Y1355140D01*
X374819Y1355102D01*
X374827Y1355064D01*
Y1353718D01*
X374509Y1353676D01*
X373786Y1353376D01*
X373166Y1352901D01*
X364673Y1344407D01*
X363890Y1344413D01*
Y1344953D01*
X351129D01*
X351091Y1344960D01*
X351053Y1344953D01*
X351042D01*
X351006Y1344957D01*
X350992Y1344953D01*
X350079D01*
Y1344364D01*
X349896Y1344308D01*
X349477Y1344224D01*
X346267Y1343997D01*
X345876Y1343994D01*
X343000D01*
X342225Y1343892D01*
X341503Y1343593D01*
X340883Y1343117D01*
X330131Y1332366D01*
X329655Y1331745D01*
X329356Y1331023D01*
X329254Y1330248D01*
Y1325108D01*
X329254Y1325021D01*
X329157Y1321656D01*
X329032Y1320115D01*
X328957Y1319581D01*
X328878Y1319209D01*
X328838Y1319089D01*
X328108Y1318137D01*
X327630Y1316984D01*
X327467Y1315747D01*
X327630Y1314509D01*
X328108Y1313356D01*
X328838Y1312405D01*
X328856Y1312353D01*
X329254Y1306453D01*
X329254Y1306386D01*
Y1292488D01*
X320760Y1283994D01*
X284240D01*
X270994Y1297240D01*
Y1332627D01*
X271002Y1333239D01*
X271111Y1335070D01*
X271201Y1335771D01*
X271313Y1336342D01*
X271436Y1336763D01*
X271549Y1337019D01*
X271569Y1337047D01*
X272390D01*
Y1338021D01*
X272397Y1338059D01*
X272390Y1338097D01*
Y1344953D01*
X258579D01*
Y1337047D01*
X263935D01*
X264110Y1337020D01*
X264159Y1336994D01*
X264262Y1336891D01*
X264411Y1336650D01*
X264572Y1336255D01*
X264721Y1335709D01*
X264842Y1335033D01*
X264993Y1333224D01*
X265006Y1332489D01*
Y1311887D01*
Y1305241D01*
X264506Y1305111D01*
X264117Y1305617D01*
X237494Y1332240D01*
Y1353000D01*
X237392Y1353775D01*
X237093Y1354497D01*
X236617Y1355117D01*
X228617Y1363117D01*
X227997Y1363593D01*
X227275Y1363892D01*
X226500Y1363994D01*
X224994D01*
X223234Y1364026D01*
X221639Y1364139D01*
X221055Y1364218D01*
X220604Y1364308D01*
X220421Y1364364D01*
Y1364953D01*
X219508D01*
X219494Y1364957D01*
X219458Y1364953D01*
X219447D01*
X219409Y1364960D01*
X219371Y1364953D01*
X206610D01*
Y1363995D01*
X206508Y1363932D01*
X206271Y1363836D01*
X205918Y1363740D01*
X205470Y1363660D01*
X204393Y1363570D01*
X203392D01*
X202073Y1363636D01*
X201969Y1363647D01*
Y1363917D01*
X200995D01*
X200957Y1363925D01*
X200918Y1363917D01*
X197082D01*
X197044Y1363925D01*
X197043Y1363925D01*
X197042Y1363925D01*
X197004Y1363917D01*
X196031D01*
Y1363566D01*
X194197Y1363440D01*
X193997Y1363593D01*
X193275Y1363892D01*
X192500Y1363994D01*
X187253D01*
X186543Y1364539D01*
X185558Y1364947D01*
X184500Y1365086D01*
X183442Y1364947D01*
X182457Y1364539D01*
X181611Y1363889D01*
X180961Y1363043D01*
X180553Y1362058D01*
X180414Y1361000D01*
X180553Y1359942D01*
X180961Y1358957D01*
X181611Y1358111D01*
X182457Y1357461D01*
X183442Y1357053D01*
X184500Y1356914D01*
X185558Y1357053D01*
X186543Y1357461D01*
X187253Y1358006D01*
X192500D01*
X193275Y1358108D01*
X193997Y1358407D01*
X194217Y1358576D01*
X195117D01*
X196031Y1358533D01*
Y1356331D01*
X199000D01*
X201969D01*
Y1358599D01*
X203960Y1358721D01*
X204201D01*
X204906Y1358695D01*
X205457Y1358634D01*
X205918Y1358552D01*
X206271Y1358455D01*
X206508Y1358359D01*
X206610Y1358296D01*
Y1357047D01*
X219371D01*
X219409Y1357040D01*
X219447Y1357047D01*
X219458D01*
X219494Y1357043D01*
X219508Y1357047D01*
X220421D01*
Y1357636D01*
X220604Y1357692D01*
X221023Y1357776D01*
X224233Y1358002D01*
X224624Y1358006D01*
X225260D01*
X231506Y1351760D01*
Y1331000D01*
X231608Y1330225D01*
X231907Y1329503D01*
X232383Y1328883D01*
X259006Y1302260D01*
Y1262547D01*
X258461Y1262002D01*
X256100Y1262028D01*
X253766Y1262145D01*
X253308Y1262196D01*
X253163Y1262221D01*
X252778Y1262942D01*
X251951Y1263950D01*
X250943Y1264777D01*
X249793Y1265391D01*
X248546Y1265770D01*
X247248Y1265897D01*
X245951Y1265770D01*
X244703Y1265391D01*
X243553Y1264777D01*
X242546Y1263950D01*
X241719Y1262942D01*
X241104Y1261792D01*
X240726Y1260544D01*
X240598Y1259247D01*
X240726Y1257950D01*
X241104Y1256702D01*
X241719Y1255552D01*
X242546Y1254544D01*
X243553Y1253717D01*
X244703Y1253103D01*
X245951Y1252724D01*
X247248Y1252596D01*
X248546Y1252724D01*
X249793Y1253103D01*
X250943Y1253717D01*
X251951Y1254544D01*
X252778Y1255552D01*
X252828Y1255646D01*
X259607Y1256006D01*
X259694D01*
X260469Y1256108D01*
X261191Y1256407D01*
X261811Y1256883D01*
X264117Y1259189D01*
X264593Y1259809D01*
X264717Y1260108D01*
X264892Y1260531D01*
X264994Y1261306D01*
Y1294259D01*
X265494Y1294389D01*
X265883Y1293883D01*
X280883Y1278883D01*
X281503Y1278407D01*
X282225Y1278108D01*
X283000Y1278006D01*
X322000D01*
X322775Y1278108D01*
X323497Y1278407D01*
X324117Y1278883D01*
X334366Y1289131D01*
X334841Y1289751D01*
X335140Y1290473D01*
X335242Y1291248D01*
Y1306386D01*
X335243Y1306473D01*
X335339Y1309838D01*
X335465Y1311379D01*
X335540Y1311913D01*
X335618Y1312284D01*
X335658Y1312405D01*
X336389Y1313356D01*
X336866Y1314509D01*
X337029Y1315747D01*
X336866Y1316984D01*
X336389Y1318137D01*
X335658Y1319089D01*
X335641Y1319141D01*
X335243Y1325041D01*
X335242Y1325108D01*
Y1329008D01*
X344240Y1338006D01*
X345505D01*
X347266Y1337974D01*
X348861Y1337861D01*
X349446Y1337782D01*
X349896Y1337692D01*
X350079Y1337636D01*
Y1337047D01*
X350992D01*
X351006Y1337043D01*
X351042Y1337047D01*
X351053D01*
X351091Y1337040D01*
X351129Y1337047D01*
X363890D01*
Y1338387D01*
X365574Y1338416D01*
X365910D01*
X366685Y1338518D01*
X367407Y1338817D01*
X368027Y1339293D01*
X376156Y1347421D01*
X383913D01*
Y1355064D01*
X383921Y1355102D01*
X383913Y1355140D01*
Y1356114D01*
X383040D01*
X383022Y1356118D01*
X382971Y1356182D01*
X382849Y1356431D01*
X382715Y1356844D01*
X382599Y1357381D01*
X382478Y1358754D01*
X382492Y1358923D01*
X382593Y1359627D01*
X382715Y1360192D01*
X382849Y1360605D01*
X382971Y1360854D01*
X383022Y1360918D01*
X383040Y1360921D01*
X383913D01*
Y1361895D01*
X383921Y1361933D01*
X383913Y1361971D01*
Y1369614D01*
D02*
G37*
G36*
X213016Y1344953D02*
X206610D01*
Y1343517D01*
X206110Y1343348D01*
X205996Y1343496D01*
X205265Y1344057D01*
X204414Y1344410D01*
X204000Y1344464D01*
Y1342974D01*
X204286Y1342976D01*
X206146Y1343093D01*
X206601Y1343163D01*
X206973Y1343249D01*
X207262Y1343351D01*
X207469Y1343468D01*
X207593Y1343600D01*
X207634Y1343748D01*
Y1338252D01*
X207593Y1338400D01*
X207469Y1338533D01*
X207262Y1338649D01*
X206973Y1338751D01*
X206601Y1338837D01*
X206146Y1338907D01*
X204988Y1339000D01*
X204000Y1339021D01*
Y1337536D01*
X204414Y1337590D01*
X205265Y1337943D01*
X205996Y1338504D01*
X206110Y1338652D01*
X206610Y1338483D01*
Y1337047D01*
X213016D01*
Y1341000D01*
Y1344953D01*
D02*
G37*
G36*
X311921D02*
X305516D01*
Y1341500D01*
X311921D01*
Y1344953D01*
D02*
G37*
G36*
X304516D02*
X298110D01*
Y1341500D01*
X304516D01*
Y1344953D01*
D02*
G37*
G36*
X220421D02*
X214016D01*
Y1341500D01*
X220421D01*
Y1344953D01*
D02*
G37*
G36*
X203000Y1344464D02*
X202586Y1344410D01*
X201735Y1344057D01*
X201004Y1343496D01*
X200443Y1342765D01*
X200090Y1341914D01*
X200036Y1341500D01*
X203000D01*
Y1344464D01*
D02*
G37*
G36*
Y1340500D02*
X200036D01*
X200090Y1340086D01*
X200443Y1339235D01*
X201004Y1338504D01*
X201735Y1337943D01*
X202586Y1337590D01*
X203000Y1337536D01*
Y1340500D01*
D02*
G37*
G36*
X311921D02*
X305516D01*
Y1337047D01*
X311921D01*
Y1340500D01*
D02*
G37*
G36*
X304516D02*
X298110D01*
Y1337047D01*
X304516D01*
Y1340500D01*
D02*
G37*
G36*
X220421D02*
X214016D01*
Y1337047D01*
X220421D01*
Y1340500D01*
D02*
G37*
G36*
X271378Y1364960D02*
X271340Y1364953D01*
X258579D01*
Y1357047D01*
X271340D01*
X271378Y1357040D01*
X271416Y1357047D01*
X271479D01*
X271492Y1357046D01*
X271496Y1357047D01*
X272390D01*
Y1357660D01*
X272504Y1357698D01*
X272859Y1357778D01*
X275477Y1357983D01*
X276006Y1357454D01*
Y1332806D01*
X276108Y1332031D01*
X276407Y1331309D01*
X276883Y1330689D01*
X279189Y1328383D01*
X279809Y1327907D01*
X280108Y1327783D01*
X280531Y1327608D01*
X281306Y1327506D01*
X300760D01*
X304506Y1323760D01*
Y1319617D01*
X303868Y1319128D01*
X303108Y1318137D01*
X302630Y1316984D01*
X302467Y1315747D01*
X302630Y1314509D01*
X303108Y1313356D01*
X303868Y1312366D01*
X304858Y1311607D01*
X306011Y1311129D01*
X307248Y1310966D01*
X308486Y1311129D01*
X309639Y1311607D01*
X310629Y1312366D01*
X311389Y1313356D01*
X311866Y1314509D01*
X312029Y1315747D01*
X311866Y1316984D01*
X311389Y1318137D01*
X310629Y1319128D01*
X310494Y1319231D01*
Y1325000D01*
X310392Y1325775D01*
X310093Y1326497D01*
X309617Y1327117D01*
X304117Y1332617D01*
X303497Y1333093D01*
X302775Y1333392D01*
X302000Y1333494D01*
X282546D01*
X281994Y1334046D01*
Y1358694D01*
X281892Y1359469D01*
X281717Y1359892D01*
X281593Y1360191D01*
X281117Y1360811D01*
X278811Y1363117D01*
X278191Y1363593D01*
X277469Y1363892D01*
X276694Y1363994D01*
X276407D01*
X274830Y1364026D01*
X273407Y1364138D01*
X272894Y1364215D01*
X272504Y1364302D01*
X272390Y1364340D01*
Y1364953D01*
X271496D01*
X271492Y1364954D01*
X271479Y1364953D01*
X271416D01*
X271378Y1364960D01*
D02*
G37*
G36*
X390500Y1303387D02*
X389006Y1303190D01*
X387613Y1302613D01*
X386418Y1301696D01*
X385500Y1300500D01*
X384923Y1299107D01*
X384727Y1297613D01*
X384923Y1296119D01*
X385500Y1294726D01*
X386418Y1293530D01*
X387613Y1292613D01*
X389006Y1292036D01*
X390500Y1291839D01*
X391995Y1292036D01*
X393387Y1292613D01*
X394583Y1293530D01*
X395500Y1294726D01*
X396077Y1296119D01*
X396274Y1297613D01*
X396077Y1299107D01*
X395500Y1300500D01*
X394583Y1301696D01*
X393387Y1302613D01*
X391995Y1303190D01*
X390500Y1303387D01*
D02*
G37*
G36*
X366000Y1302887D02*
X364506Y1302690D01*
X363113Y1302113D01*
X361918Y1301196D01*
X361000Y1300000D01*
X360423Y1298608D01*
X360226Y1297113D01*
X360423Y1295619D01*
X361000Y1294226D01*
X361918Y1293030D01*
X363113Y1292113D01*
X364506Y1291536D01*
X366000Y1291339D01*
X367495Y1291536D01*
X368887Y1292113D01*
X370083Y1293030D01*
X371001Y1294226D01*
X371577Y1295619D01*
X371774Y1297113D01*
X371577Y1298608D01*
X371001Y1300000D01*
X370083Y1301196D01*
X368887Y1302113D01*
X367495Y1302690D01*
X366000Y1302887D01*
D02*
G37*
G36*
X187748D02*
X186254Y1302690D01*
X184861Y1302113D01*
X183666Y1301196D01*
X182748Y1300000D01*
X182171Y1298608D01*
X181974Y1297113D01*
X182171Y1295619D01*
X182748Y1294226D01*
X183666Y1293030D01*
X184861Y1292113D01*
X186254Y1291536D01*
X187748Y1291339D01*
X189243Y1291536D01*
X190635Y1292113D01*
X191831Y1293030D01*
X192749Y1294226D01*
X193325Y1295619D01*
X193522Y1297113D01*
X193325Y1298608D01*
X192749Y1300000D01*
X191831Y1301196D01*
X190635Y1302113D01*
X189243Y1302690D01*
X187748Y1302887D01*
D02*
G37*
G36*
X212248Y1303387D02*
X210754Y1303190D01*
X209361Y1302613D01*
X208166Y1301696D01*
X207248Y1300500D01*
X206671Y1299107D01*
X206474Y1297613D01*
X206671Y1296119D01*
X207248Y1294726D01*
X208166Y1293530D01*
X209361Y1292613D01*
X210754Y1292036D01*
X212248Y1291839D01*
X213743Y1292036D01*
X215135Y1292613D01*
X216047Y1293313D01*
X216201Y1293410D01*
X216496Y1293517D01*
X216973Y1293630D01*
X223987Y1294089D01*
X224621Y1294093D01*
X235881D01*
X237791Y1294022D01*
X238608Y1293931D01*
X239299Y1293808D01*
X239847Y1293659D01*
X240244Y1293497D01*
X240485Y1293349D01*
X240588Y1293245D01*
X240614Y1293196D01*
X240630Y1293097D01*
Y1289629D01*
X253867D01*
Y1300240D01*
Y1302866D01*
X240630D01*
Y1301076D01*
X240614Y1300977D01*
X240588Y1300928D01*
X240485Y1300825D01*
X240244Y1300676D01*
X239847Y1300515D01*
X239299Y1300366D01*
X238622Y1300245D01*
X236809Y1300094D01*
X236072Y1300081D01*
X225487D01*
X224484Y1300089D01*
X221533Y1300205D01*
X219237Y1300433D01*
X218364Y1300583D01*
X217663Y1300753D01*
X217158Y1300931D01*
X216869Y1301085D01*
X216653Y1301280D01*
X216647Y1301284D01*
X216331Y1301696D01*
X215135Y1302613D01*
X213743Y1303190D01*
X212248Y1303387D01*
D02*
G37*
G36*
X379000Y1285821D02*
Y1280613D01*
X384208D01*
X384077Y1281608D01*
X383501Y1283000D01*
X382583Y1284196D01*
X381387Y1285113D01*
X379995Y1285690D01*
X379000Y1285821D01*
D02*
G37*
G36*
X378000D02*
X377006Y1285690D01*
X375613Y1285113D01*
X374418Y1284196D01*
X373500Y1283000D01*
X372923Y1281608D01*
X372792Y1280613D01*
X378000D01*
Y1285821D01*
D02*
G37*
G36*
X200748D02*
Y1280613D01*
X205956D01*
X205825Y1281608D01*
X205249Y1283000D01*
X204331Y1284196D01*
X203135Y1285113D01*
X201743Y1285690D01*
X200748Y1285821D01*
D02*
G37*
G36*
X199748D02*
X198754Y1285690D01*
X197361Y1285113D01*
X196166Y1284196D01*
X195248Y1283000D01*
X194671Y1281608D01*
X194540Y1280613D01*
X199748D01*
Y1285821D01*
D02*
G37*
G36*
X399760Y1288387D02*
X398266Y1288190D01*
X396873Y1287613D01*
X395677Y1286696D01*
X394760Y1285500D01*
X394183Y1284107D01*
X393986Y1282613D01*
X394183Y1281119D01*
X394760Y1279726D01*
X395677Y1278530D01*
X396873Y1277613D01*
X398266Y1277036D01*
X399760Y1276839D01*
X401255Y1277036D01*
X402647Y1277613D01*
X403843Y1278530D01*
X404760Y1279726D01*
X405337Y1281119D01*
X405534Y1282613D01*
X405337Y1284107D01*
X404760Y1285500D01*
X403843Y1286696D01*
X402647Y1287613D01*
X401255Y1288190D01*
X399760Y1288387D01*
D02*
G37*
G36*
X221508D02*
X220014Y1288190D01*
X218621Y1287613D01*
X217425Y1286696D01*
X216508Y1285500D01*
X215931Y1284107D01*
X215734Y1282613D01*
X215931Y1281119D01*
X216508Y1279726D01*
X217425Y1278530D01*
X218621Y1277613D01*
X220014Y1277036D01*
X221508Y1276839D01*
X223003Y1277036D01*
X224395Y1277613D01*
X225591Y1278530D01*
X226508Y1279726D01*
X227085Y1281119D01*
X227282Y1282613D01*
X227085Y1284107D01*
X226508Y1285500D01*
X225591Y1286696D01*
X224395Y1287613D01*
X223003Y1288190D01*
X221508Y1288387D01*
D02*
G37*
G36*
X178989D02*
X177494Y1288190D01*
X176102Y1287613D01*
X174906Y1286696D01*
X173988Y1285500D01*
X173411Y1284107D01*
X173215Y1282613D01*
X173411Y1281119D01*
X173988Y1279726D01*
X174906Y1278530D01*
X176102Y1277613D01*
X177494Y1277036D01*
X178989Y1276839D01*
X180483Y1277036D01*
X181875Y1277613D01*
X183071Y1278530D01*
X183989Y1279726D01*
X184565Y1281119D01*
X184762Y1282613D01*
X184565Y1284107D01*
X183989Y1285500D01*
X183071Y1286696D01*
X181875Y1287613D01*
X180483Y1288190D01*
X178989Y1288387D01*
D02*
G37*
G36*
X384208Y1279613D02*
X379000D01*
Y1274405D01*
X379995Y1274536D01*
X381387Y1275113D01*
X382583Y1276030D01*
X383501Y1277226D01*
X384077Y1278619D01*
X384208Y1279613D01*
D02*
G37*
G36*
X378000D02*
X372792D01*
X372923Y1278619D01*
X373500Y1277226D01*
X374418Y1276030D01*
X375613Y1275113D01*
X377006Y1274536D01*
X378000Y1274405D01*
Y1279613D01*
D02*
G37*
G36*
X205956D02*
X200748D01*
Y1274405D01*
X201743Y1274536D01*
X203135Y1275113D01*
X204331Y1276030D01*
X205249Y1277226D01*
X205825Y1278619D01*
X205956Y1279613D01*
D02*
G37*
G36*
X199748D02*
X194540D01*
X194671Y1278619D01*
X195248Y1277226D01*
X196166Y1276030D01*
X197361Y1275113D01*
X198754Y1274536D01*
X199748Y1274405D01*
Y1279613D01*
D02*
G37*
G36*
X247248Y1284398D02*
X245951Y1284270D01*
X244703Y1283891D01*
X243553Y1283277D01*
X242546Y1282450D01*
X241719Y1281442D01*
X241104Y1280292D01*
X240726Y1279044D01*
X240598Y1277747D01*
X240726Y1276449D01*
X241104Y1275202D01*
X241719Y1274052D01*
X242546Y1273044D01*
X243553Y1272217D01*
X244703Y1271603D01*
X245951Y1271224D01*
X247248Y1271096D01*
X248546Y1271224D01*
X249793Y1271603D01*
X250943Y1272217D01*
X251951Y1273044D01*
X252778Y1274052D01*
X253393Y1275202D01*
X253771Y1276449D01*
X253899Y1277747D01*
X253771Y1279044D01*
X253393Y1280292D01*
X252778Y1281442D01*
X251951Y1282450D01*
X250943Y1283277D01*
X249793Y1283891D01*
X248546Y1284270D01*
X247248Y1284398D01*
D02*
G37*
G36*
X394248Y1271674D02*
X392754Y1271478D01*
X391361Y1270901D01*
X390166Y1269983D01*
X389248Y1268787D01*
X388671Y1267395D01*
X388474Y1265901D01*
X388671Y1264406D01*
X389248Y1263014D01*
X390166Y1261818D01*
X391361Y1260900D01*
X392754Y1260323D01*
X394248Y1260127D01*
X395743Y1260323D01*
X397135Y1260900D01*
X398331Y1261818D01*
X399249Y1263014D01*
X399825Y1264406D01*
X400022Y1265901D01*
X399825Y1267395D01*
X399249Y1268787D01*
X398331Y1269983D01*
X397135Y1270901D01*
X395743Y1271478D01*
X394248Y1271674D01*
D02*
G37*
G36*
X362752D02*
X361258Y1271478D01*
X359865Y1270901D01*
X358669Y1269983D01*
X357752Y1268787D01*
X357175Y1267395D01*
X356978Y1265901D01*
X357175Y1264406D01*
X357752Y1263014D01*
X358669Y1261818D01*
X359865Y1260900D01*
X361258Y1260323D01*
X362752Y1260127D01*
X364247Y1260323D01*
X365639Y1260900D01*
X366835Y1261818D01*
X367753Y1263014D01*
X368329Y1264406D01*
X368526Y1265901D01*
X368329Y1267395D01*
X367753Y1268787D01*
X366835Y1269983D01*
X365639Y1270901D01*
X364247Y1271478D01*
X362752Y1271674D01*
D02*
G37*
G36*
X184500D02*
X183006Y1271478D01*
X181613Y1270901D01*
X180418Y1269983D01*
X179500Y1268787D01*
X178923Y1267395D01*
X178726Y1265901D01*
X178923Y1264406D01*
X179500Y1263014D01*
X180418Y1261818D01*
X181613Y1260900D01*
X183006Y1260323D01*
X184500Y1260127D01*
X185995Y1260323D01*
X187387Y1260900D01*
X188583Y1261818D01*
X189500Y1263014D01*
X190077Y1264406D01*
X190274Y1265901D01*
X190077Y1267395D01*
X189500Y1268787D01*
X188583Y1269983D01*
X187387Y1270901D01*
X185995Y1271478D01*
X184500Y1271674D01*
D02*
G37*
G36*
X215996D02*
X214502Y1271478D01*
X213109Y1270901D01*
X211914Y1269983D01*
X210996Y1268787D01*
X210419Y1267395D01*
X210223Y1265901D01*
X210419Y1264406D01*
X210996Y1263014D01*
X211914Y1261818D01*
X213109Y1260900D01*
X213756Y1260633D01*
X213778Y1260578D01*
X213848Y1260316D01*
X213913Y1259961D01*
X214077Y1257507D01*
Y1256500D01*
X214224Y1255764D01*
X214640Y1255140D01*
X221140Y1248640D01*
X221764Y1248224D01*
X222500Y1248077D01*
X356241D01*
X357560Y1248019D01*
X358755Y1247889D01*
X359201Y1247807D01*
X359560Y1247715D01*
X359815Y1247624D01*
X359952Y1247553D01*
X359987Y1247525D01*
X360004Y1247504D01*
X360735Y1246943D01*
X360783Y1246923D01*
X360684Y1246423D01*
X210796D01*
X202549Y1254671D01*
X202621Y1255215D01*
X203135Y1255428D01*
X204331Y1256345D01*
X205249Y1257541D01*
X205825Y1258934D01*
X206022Y1260428D01*
X205825Y1261922D01*
X205249Y1263315D01*
X204331Y1264511D01*
X203135Y1265428D01*
X201743Y1266005D01*
X200248Y1266202D01*
X198754Y1266005D01*
X197361Y1265428D01*
X196166Y1264511D01*
X195248Y1263315D01*
X194671Y1261922D01*
X194474Y1260428D01*
X194671Y1258934D01*
X195248Y1257541D01*
X196166Y1256345D01*
X197361Y1255428D01*
X198577Y1254924D01*
Y1254000D01*
X198724Y1253264D01*
X199140Y1252640D01*
X208640Y1243140D01*
X209264Y1242724D01*
X210000Y1242577D01*
X373500D01*
X374236Y1242724D01*
X374860Y1243140D01*
X379860Y1248140D01*
X380276Y1248764D01*
X380423Y1249500D01*
Y1250235D01*
X380456Y1251655D01*
X380604Y1253365D01*
X380709Y1254023D01*
X380832Y1254563D01*
X380964Y1254967D01*
X381086Y1255222D01*
X381161Y1255323D01*
X381193Y1255347D01*
X381387Y1255428D01*
X382583Y1256345D01*
X383501Y1257541D01*
X384077Y1258934D01*
X384274Y1260428D01*
X384077Y1261922D01*
X383501Y1263315D01*
X382583Y1264511D01*
X381387Y1265428D01*
X379995Y1266005D01*
X378500Y1266202D01*
X377006Y1266005D01*
X375613Y1265428D01*
X374418Y1264511D01*
X373500Y1263315D01*
X372923Y1261922D01*
X372726Y1260428D01*
X372923Y1258934D01*
X373500Y1257541D01*
X374418Y1256345D01*
X375613Y1255428D01*
X375807Y1255348D01*
X375839Y1255323D01*
X375914Y1255222D01*
X376036Y1254967D01*
X376168Y1254563D01*
X376291Y1254023D01*
X376394Y1253374D01*
X376577Y1250691D01*
Y1250296D01*
X372704Y1246423D01*
X364316D01*
X364217Y1246923D01*
X364265Y1246943D01*
X364996Y1247504D01*
X365557Y1248235D01*
X365910Y1249086D01*
X366030Y1250000D01*
X365910Y1250914D01*
X365557Y1251765D01*
X364996Y1252496D01*
X364265Y1253057D01*
X363414Y1253410D01*
X362500Y1253530D01*
X361586Y1253410D01*
X360735Y1253057D01*
X360004Y1252496D01*
X359987Y1252475D01*
X359952Y1252447D01*
X359815Y1252376D01*
X359560Y1252285D01*
X359201Y1252193D01*
X358773Y1252115D01*
X356147Y1251923D01*
X223296D01*
X217923Y1257296D01*
Y1257474D01*
X217935Y1258157D01*
X218021Y1259450D01*
X218082Y1259934D01*
X218152Y1260318D01*
X218222Y1260580D01*
X218245Y1260636D01*
X218883Y1260900D01*
X220079Y1261818D01*
X220997Y1263014D01*
X221573Y1264406D01*
X221770Y1265901D01*
X221573Y1267395D01*
X220997Y1268787D01*
X220079Y1269983D01*
X218883Y1270901D01*
X217491Y1271478D01*
X215996Y1271674D01*
D02*
G37*
%LPD*%
G36*
X377937Y1371610D02*
X377290Y1371931D01*
X376615Y1372218D01*
X375911Y1372471D01*
X375179Y1372691D01*
X373629Y1373029D01*
X372810Y1373147D01*
X371088Y1373282D01*
X370184Y1373299D01*
Y1377236D01*
X371088Y1377253D01*
X372810Y1377388D01*
X373629Y1377507D01*
X375179Y1377844D01*
X375911Y1378064D01*
X376615Y1378317D01*
X377290Y1378605D01*
X377937Y1378926D01*
Y1371610D01*
D02*
G37*
G36*
X358972Y1368722D02*
X359130Y1366828D01*
X359268Y1366059D01*
X359445Y1365408D01*
X359661Y1364876D01*
X359917Y1364461D01*
X360213Y1364165D01*
X360547Y1363988D01*
X360921Y1363929D01*
X353047D01*
X353421Y1363988D01*
X353756Y1364165D01*
X354051Y1364461D01*
X354307Y1364876D01*
X354524Y1365408D01*
X354701Y1366059D01*
X354839Y1366828D01*
X354937Y1367716D01*
X355016Y1369846D01*
X358953D01*
X358972Y1368722D01*
D02*
G37*
G36*
X207634Y1358390D02*
X207593Y1358652D01*
X207468Y1358886D01*
X207261Y1359093D01*
X206971Y1359272D01*
X206598Y1359423D01*
X206142Y1359547D01*
X205603Y1359644D01*
X204981Y1359713D01*
X204037Y1359747D01*
X201328Y1359581D01*
X201122Y1359523D01*
X200998Y1359459D01*
X200957Y1359386D01*
Y1362905D01*
X200998Y1362833D01*
X201122Y1362768D01*
X201328Y1362711D01*
X201618Y1362661D01*
X201990Y1362619D01*
X203602Y1362539D01*
X204081Y1362534D01*
X204276Y1362537D01*
X205603Y1362648D01*
X206142Y1362744D01*
X206598Y1362868D01*
X206971Y1363020D01*
X207261Y1363199D01*
X207468Y1363406D01*
X207593Y1363640D01*
X207634Y1363902D01*
Y1358390D01*
D02*
G37*
G36*
X211979Y1359753D02*
X211937Y1359756D01*
X211340Y1359762D01*
X208027Y1359768D01*
Y1362524D01*
X211979Y1362539D01*
Y1359753D01*
D02*
G37*
G36*
X197044Y1362379D02*
X197843Y1362378D01*
Y1359622D01*
X197044Y1359619D01*
Y1359386D01*
X197002Y1359431D01*
X196878Y1359471D01*
X196671Y1359506D01*
X196382Y1359537D01*
X195018Y1359601D01*
X194250Y1359608D01*
X193891Y1359607D01*
Y1359612D01*
X192910Y1359622D01*
Y1362378D01*
X193695Y1362383D01*
X196382Y1362568D01*
X196671Y1362636D01*
X196878Y1362716D01*
X197002Y1362805D01*
X197044Y1362905D01*
Y1362379D01*
D02*
G37*
G36*
X219468Y1363756D02*
X219646Y1363591D01*
X219941Y1363445D01*
X220354Y1363319D01*
X220886Y1363212D01*
X221535Y1363124D01*
X223189Y1363007D01*
X225315Y1362969D01*
Y1359031D01*
X224193Y1359022D01*
X220886Y1358788D01*
X220354Y1358681D01*
X219941Y1358555D01*
X219646Y1358409D01*
X219468Y1358244D01*
X219409Y1358059D01*
Y1363941D01*
X219468Y1363756D01*
D02*
G37*
G36*
X382604Y1361874D02*
X382339Y1361697D01*
X382104Y1361402D01*
X381901Y1360988D01*
X381729Y1360457D01*
X381589Y1359807D01*
X381479Y1359040D01*
X381454Y1358754D01*
X381589Y1357228D01*
X381729Y1356579D01*
X381901Y1356047D01*
X382104Y1355634D01*
X382339Y1355338D01*
X382604Y1355161D01*
X382901Y1355102D01*
X375839D01*
X376136Y1355161D01*
X376401Y1355338D01*
X376636Y1355634D01*
X376839Y1356047D01*
X377011Y1356579D01*
X377151Y1357228D01*
X377261Y1357996D01*
X377286Y1358282D01*
X377151Y1359807D01*
X377011Y1360457D01*
X376839Y1360988D01*
X376636Y1361402D01*
X376401Y1361697D01*
X376136Y1361874D01*
X375839Y1361933D01*
X382901D01*
X382604Y1361874D01*
D02*
G37*
G36*
X362896Y1343421D02*
X362987Y1343412D01*
X363353Y1343398D01*
X365910Y1343379D01*
Y1339442D01*
X362866Y1339388D01*
Y1343432D01*
X362896Y1343421D01*
D02*
G37*
G36*
X351091Y1338059D02*
X351032Y1338244D01*
X350854Y1338409D01*
X350559Y1338555D01*
X350146Y1338682D01*
X349614Y1338788D01*
X348965Y1338876D01*
X347311Y1338993D01*
X345185Y1339032D01*
Y1342968D01*
X346307Y1342978D01*
X349614Y1343212D01*
X350146Y1343318D01*
X350559Y1343445D01*
X350854Y1343591D01*
X351032Y1343756D01*
X351091Y1343941D01*
Y1338059D01*
D02*
G37*
G36*
X271110Y1338000D02*
X270870Y1337823D01*
X270659Y1337528D01*
X270476Y1337114D01*
X270321Y1336583D01*
X270194Y1335933D01*
X270095Y1335166D01*
X269983Y1333276D01*
X269969Y1332154D01*
X266032D01*
X266012Y1333276D01*
X265854Y1335166D01*
X265717Y1335933D01*
X265539Y1336583D01*
X265323Y1337114D01*
X265067Y1337528D01*
X264772Y1337823D01*
X264437Y1338000D01*
X264063Y1338059D01*
X271378D01*
X271110Y1338000D01*
D02*
G37*
G36*
X334223Y1325004D02*
X334632Y1318941D01*
X334743Y1318612D01*
X334866Y1318418D01*
X329630D01*
X329754Y1318612D01*
X329864Y1318941D01*
X329961Y1319404D01*
X330046Y1320002D01*
X330176Y1321600D01*
X330273Y1325004D01*
X330280Y1326408D01*
X334217D01*
X334223Y1325004D01*
D02*
G37*
G36*
X334743Y1312881D02*
X334632Y1312553D01*
X334535Y1312090D01*
X334451Y1311492D01*
X334321Y1309894D01*
X334223Y1306490D01*
X334217Y1305086D01*
X330280D01*
X330273Y1306490D01*
X329864Y1312553D01*
X329754Y1312881D01*
X329630Y1313076D01*
X334866D01*
X334743Y1312881D01*
D02*
G37*
G36*
X252539Y1261328D02*
X252783Y1261253D01*
X253164Y1261186D01*
X253683Y1261128D01*
X256068Y1261008D01*
X259694Y1260968D01*
Y1257032D01*
X252222Y1256635D01*
X252433Y1261413D01*
X252539Y1261328D01*
D02*
G37*
G36*
X271431Y1363756D02*
X271590Y1363591D01*
X271856Y1363445D01*
X272228Y1363319D01*
X272707Y1363212D01*
X273291Y1363124D01*
X274780Y1363007D01*
X276694Y1362969D01*
Y1359031D01*
X275684Y1359022D01*
X272707Y1358788D01*
X272228Y1358681D01*
X271856Y1358555D01*
X271590Y1358409D01*
X271431Y1358244D01*
X271378Y1358059D01*
Y1363941D01*
X271431Y1363756D01*
D02*
G37*
G36*
X216279Y1300245D02*
X216746Y1299995D01*
X217372Y1299775D01*
X218157Y1299584D01*
X219100Y1299422D01*
X221463Y1299187D01*
X224460Y1299070D01*
X226196Y1299055D01*
X225709Y1295118D01*
X223950Y1295109D01*
X216821Y1294642D01*
X216204Y1294496D01*
X215749Y1294331D01*
X215458Y1294146D01*
X215970Y1300524D01*
X216279Y1300245D01*
D02*
G37*
G36*
X241654Y1293150D02*
X241595Y1293524D01*
X241417Y1293859D01*
X241121Y1294154D01*
X240707Y1294410D01*
X240174Y1294626D01*
X239524Y1294803D01*
X238754Y1294941D01*
X237867Y1295040D01*
X235736Y1295118D01*
Y1299055D01*
X236861Y1299075D01*
X238754Y1299232D01*
X239524Y1299370D01*
X240174Y1299547D01*
X240707Y1299764D01*
X241121Y1300020D01*
X241417Y1300315D01*
X241595Y1300650D01*
X241654Y1301024D01*
Y1293150D01*
D02*
G37*
G36*
X217494Y1261370D02*
X217366Y1261182D01*
X217254Y1260906D01*
X217156Y1260541D01*
X217073Y1260089D01*
X217006Y1259547D01*
X216916Y1258200D01*
X216886Y1256500D01*
X215114D01*
X215107Y1257394D01*
X214926Y1260087D01*
X214844Y1260540D01*
X214746Y1260904D01*
X214633Y1261180D01*
X214506Y1261368D01*
X214363Y1261467D01*
X217636Y1261470D01*
X217494Y1261370D01*
D02*
G37*
G36*
X380671Y1256232D02*
X380427Y1256045D01*
X380208Y1255750D01*
X380016Y1255347D01*
X379849Y1254836D01*
X379707Y1254216D01*
X379591Y1253489D01*
X379437Y1251711D01*
X379386Y1249500D01*
X377614D01*
X377601Y1250659D01*
X377409Y1253489D01*
X377293Y1254217D01*
X377151Y1254836D01*
X376984Y1255347D01*
X376792Y1255750D01*
X376573Y1256045D01*
X376329Y1256232D01*
X380671Y1256232D01*
D02*
G37*
G36*
X360715Y1248250D02*
X360507Y1248414D01*
X360222Y1248561D01*
X359859Y1248691D01*
X359420Y1248803D01*
X358903Y1248898D01*
X357638Y1249036D01*
X356065Y1249105D01*
X355162Y1249114D01*
Y1250886D01*
X356065Y1250895D01*
X358903Y1251102D01*
X359420Y1251197D01*
X359859Y1251309D01*
X360222Y1251439D01*
X360507Y1251586D01*
X360715Y1251750D01*
Y1248250D01*
D02*
G37*
D10*
X422874Y1236606D02*
G03*
X427016Y1240748I0J4142D01*
G01*
X151350D02*
G03*
X155492Y1236606I4142J0D01*
G01*
X427016Y1558858D02*
G03*
X422874Y1563000I-4142J0D01*
G01*
X155492Y1562992D02*
G03*
X151350Y1558850I0J-4142D01*
G01*
X427000Y1240555D02*
Y1558858D01*
X155488Y1236610D02*
X423055D01*
X151350Y1240748D02*
Y1558850D01*
X155492Y1562992D02*
X422874D01*
D11*
X273000Y1528163D02*
X275000Y1530163D01*
Y1539295D02*
X275091Y1539386D01*
X275000Y1530163D02*
Y1539295D01*
X277500Y1518598D02*
Y1539236D01*
X273673Y1514772D02*
X277500Y1518598D01*
Y1539236D02*
X277650Y1539386D01*
X280500Y1528500D02*
X284597Y1524403D01*
X280193Y1539386D02*
X280493Y1539086D01*
Y1533795D02*
Y1539086D01*
Y1533795D02*
X280500Y1533788D01*
Y1528500D02*
Y1533788D01*
X273634Y1514772D02*
X273673D01*
X272953Y1514051D02*
Y1514091D01*
X273634Y1514772D01*
X272953Y1525000D02*
X273000Y1525047D01*
Y1528163D01*
X291611Y1519696D02*
X292097Y1520182D01*
Y1520770D01*
X284597Y1519696D02*
Y1524403D01*
D17*
X283000Y1281000D02*
X322000D01*
X332248Y1291248D02*
Y1315747D01*
X322000Y1281000D02*
X332248Y1291248D01*
X268000Y1296000D02*
Y1340016D01*
Y1296000D02*
X283000Y1281000D01*
X322500Y1304000D02*
Y1360500D01*
X287500Y1300000D02*
X318500D01*
X322500Y1304000D01*
X332248Y1315747D02*
Y1330248D01*
X343000Y1341000D02*
X356984D01*
X332248Y1330248D02*
X343000Y1341000D01*
X322500Y1360500D02*
X347000Y1385000D01*
X403766Y1317000D02*
X411500Y1324734D01*
Y1385500D01*
X363000Y1317000D02*
X403766D01*
X338500Y1391000D02*
X406000D01*
X411500Y1385500D01*
X394257Y1336650D02*
X396563Y1338956D01*
Y1377937D01*
X164000Y1481000D02*
X217500Y1534500D01*
Y1544000D01*
X213500Y1393500D02*
X219500Y1399500D01*
X164000Y1408500D02*
X179000Y1393500D01*
X213500D01*
X219500Y1399500D02*
Y1408500D01*
X164000D02*
Y1481000D01*
X235774Y1411226D02*
X236000Y1411000D01*
X234939Y1411226D02*
X235774D01*
X234665Y1411500D02*
X234939Y1411226D01*
X222500Y1411500D02*
X234665D01*
X219500Y1408500D02*
X222500Y1411500D01*
X316000Y1528000D02*
Y1549500D01*
Y1528000D02*
X320000Y1524000D01*
X289000Y1378500D02*
X326000D01*
X338500Y1391000D01*
X279000Y1332806D02*
Y1358694D01*
X302000Y1330500D02*
X307500Y1325000D01*
X279000Y1332806D02*
X281306Y1330500D01*
X302000D01*
X307248Y1315747D02*
X307500Y1315999D01*
Y1325000D01*
X289000Y1361500D02*
X303912D01*
X356984Y1341000D02*
X357394Y1341410D01*
X365910D01*
X375284Y1350784D01*
X378386D01*
X379370Y1351768D01*
X351500Y1288354D02*
Y1305500D01*
X363000Y1317000D01*
X351500Y1288354D02*
X357240Y1282613D01*
X389500Y1385000D02*
X396563Y1377937D01*
X347000Y1385000D02*
X389500D01*
X356984Y1363500D02*
Y1372962D01*
X359291Y1375268D01*
X379370D01*
X282248Y1305252D02*
X287500Y1300000D01*
X282248Y1305252D02*
Y1315747D01*
X234500Y1331000D02*
Y1353000D01*
X262000Y1261306D02*
Y1303500D01*
X234500Y1331000D02*
X262000Y1303500D01*
X185000Y1360500D02*
X185500Y1361000D01*
X192500D01*
X213516D02*
X226500D01*
X234500Y1353000D01*
X265484Y1361000D02*
X276694D01*
X279000Y1358694D01*
X267016Y1341000D02*
X268000Y1340016D01*
X265484Y1341000D02*
X267016D01*
X259694Y1259000D02*
X262000Y1261306D01*
X246500Y1259000D02*
X259694D01*
X289000Y1361500D02*
Y1378500D01*
X379370Y1351768D02*
Y1365268D01*
X212248Y1297613D02*
X212775Y1297087D01*
X245413D02*
X246500Y1296000D01*
X212775Y1297087D02*
X245413D01*
X203500Y1341000D02*
X213516D01*
X213370Y1361146D02*
X213516Y1361000D01*
D20*
X206846Y1448000D02*
D03*
X200153D02*
D03*
D21*
X251693Y1470500D02*
D03*
X238307D02*
D03*
D22*
X336000Y1530441D02*
D03*
Y1535559D02*
D03*
X389500Y1341768D02*
D03*
Y1336650D02*
D03*
X296000Y1431941D02*
D03*
Y1437059D02*
D03*
X340500Y1437559D02*
D03*
Y1432441D02*
D03*
X384500Y1411441D02*
D03*
Y1416559D02*
D03*
D23*
X272953Y1513500D02*
D03*
X267047D02*
D03*
X272953Y1525000D02*
D03*
X267047D02*
D03*
D24*
X292097Y1520770D02*
D03*
Y1511715D02*
D03*
D25*
X284597Y1519696D02*
D03*
Y1513790D02*
D03*
D26*
X301097Y1511889D02*
D03*
Y1517597D02*
D03*
X293000Y1503354D02*
D03*
Y1497646D02*
D03*
D27*
X310597Y1511586D02*
D03*
Y1517900D02*
D03*
D28*
X320097Y1511358D02*
D03*
Y1518051D02*
D03*
D29*
X308000Y1457744D02*
D03*
X303000D02*
D03*
X273000D02*
D03*
X278000D02*
D03*
X283000D02*
D03*
X288000D02*
D03*
X293000D02*
D03*
X298000D02*
D03*
X308000Y1482650D02*
D03*
X303000D02*
D03*
X298000D02*
D03*
X293000D02*
D03*
X273000D02*
D03*
X278000D02*
D03*
X283000D02*
D03*
X288000D02*
D03*
D30*
X356984Y1361000D02*
D03*
Y1351000D02*
D03*
Y1341000D02*
D03*
X305016D02*
D03*
Y1351000D02*
D03*
Y1361000D02*
D03*
X265484D02*
D03*
Y1351000D02*
D03*
Y1341000D02*
D03*
X213516D02*
D03*
Y1351000D02*
D03*
Y1361000D02*
D03*
D31*
X238623Y1497221D02*
D03*
X244135D02*
D03*
X238623Y1490993D02*
D03*
X244135D02*
D03*
D32*
X256854Y1483500D02*
D03*
X251146D02*
D03*
D33*
X235500Y1522547D02*
D03*
Y1528453D02*
D03*
D34*
X242000Y1522744D02*
D03*
Y1528256D02*
D03*
D35*
X251524Y1490764D02*
D03*
X257624D02*
D03*
X251524Y1496992D02*
D03*
X257624D02*
D03*
D36*
X269957Y1538402D02*
D03*
X272532D02*
D03*
X275091D02*
D03*
X277650D02*
D03*
X280193D02*
D03*
D37*
X199000Y1355831D02*
D03*
Y1361146D02*
D03*
X289000Y1355831D02*
D03*
Y1361146D02*
D03*
D49*
X245000Y1470500D02*
D03*
D59*
X247248Y1296247D02*
D03*
D60*
Y1277747D02*
D03*
Y1259247D02*
D03*
D61*
X250833Y1421000D02*
D03*
X340500D02*
D03*
X295667D02*
D03*
X206000D02*
D03*
D62*
X250833Y1411000D02*
D03*
Y1401000D02*
D03*
X280833D02*
D03*
Y1411000D02*
D03*
Y1421000D02*
D03*
X340500Y1411000D02*
D03*
Y1401000D02*
D03*
X370500D02*
D03*
Y1411000D02*
D03*
Y1421000D02*
D03*
X295667Y1411000D02*
D03*
Y1401000D02*
D03*
X325667D02*
D03*
Y1411000D02*
D03*
Y1421000D02*
D03*
X206000Y1411000D02*
D03*
Y1401000D02*
D03*
X236000D02*
D03*
Y1411000D02*
D03*
Y1421000D02*
D03*
D66*
X325742Y1396816D02*
X326558Y1396000D01*
X389500D02*
X396000Y1402500D01*
X325742Y1396816D02*
Y1400925D01*
X326558Y1396000D02*
X389500D01*
X325667Y1401000D02*
X325742Y1400925D01*
X336000Y1536059D02*
X336500Y1535559D01*
X383441D02*
X396000Y1523000D01*
X336500Y1535559D02*
X383441D01*
X396000Y1402500D02*
Y1523000D01*
D67*
X238500Y1490728D02*
Y1497221D01*
Y1513000D01*
X373500Y1244500D02*
X378500Y1249500D01*
Y1258506D01*
X210000Y1244500D02*
X373500D01*
X200500Y1254000D02*
X210000Y1244500D01*
X200500Y1254000D02*
Y1259862D01*
X216000Y1256500D02*
X222500Y1250000D01*
X362500D01*
X216000Y1256500D02*
Y1264582D01*
X238500Y1513000D02*
X242000Y1516500D01*
Y1522744D01*
X273991Y1506500D02*
X273991D01*
X283000Y1482650D02*
Y1497491D01*
X273991Y1506500D02*
X283000Y1497491D01*
X272953Y1507538D02*
X273991Y1506500D01*
X175791Y1440209D02*
Y1446000D01*
X185500Y1430500D02*
X247333D01*
X175791Y1440209D02*
X185500Y1430500D01*
X250833Y1421000D02*
Y1427000D01*
X247333Y1430500D02*
X250833Y1427000D01*
X244364Y1490764D02*
X251226D01*
X244135Y1490993D02*
X244364Y1490764D01*
X244135Y1497221D02*
X250998D01*
X251226Y1496992D01*
X278000Y1474000D02*
Y1482650D01*
X251693Y1470500D02*
Y1472272D01*
X256854Y1477433D02*
Y1483500D01*
X251693Y1472272D02*
X256854Y1477433D01*
X251693Y1464307D02*
Y1470500D01*
Y1464307D02*
X255500Y1460500D01*
X308000Y1457744D02*
Y1466000D01*
Y1457744D02*
X308744Y1457000D01*
X242000Y1522744D02*
X242086Y1522658D01*
X248868D01*
X272976Y1520024D02*
X273000Y1520000D01*
X272976Y1520024D02*
Y1524976D01*
X272953Y1507538D02*
Y1514051D01*
X288000Y1482650D02*
Y1491500D01*
X272953Y1525000D02*
X272976Y1524976D01*
X293000Y1482650D02*
Y1497646D01*
X320000Y1518148D02*
Y1524000D01*
Y1518148D02*
X320097Y1518051D01*
X336000Y1523000D02*
Y1529625D01*
X336500Y1530125D01*
X340500Y1431941D02*
X341000Y1432441D01*
X296000Y1421333D02*
Y1431941D01*
X295667Y1421000D02*
X296000Y1421333D01*
X335750Y1530875D02*
X336500Y1530125D01*
D68*
X340500Y1437559D02*
Y1509000D01*
X329500Y1520000D02*
X340500Y1509000D01*
X329500Y1520000D02*
Y1540500D01*
X326000Y1544000D02*
Y1549500D01*
Y1544000D02*
X329500Y1540500D01*
X235500Y1528453D02*
X241803D01*
X263155Y1496992D02*
X268000Y1492147D01*
Y1474000D02*
X273500Y1468500D01*
X268000Y1474000D02*
Y1492147D01*
X262500Y1442451D02*
X267833Y1437118D01*
X262500Y1442451D02*
Y1489475D01*
X267833Y1437118D02*
X295941D01*
X261462Y1490512D02*
X262500Y1489475D01*
X257876Y1490512D02*
X261462D01*
X257624Y1496992D02*
X263155D01*
X273500Y1468500D02*
X294000D01*
X298000Y1472500D01*
Y1482650D01*
X257624Y1490764D02*
X257876Y1490512D01*
X314520Y1445559D02*
Y1471521D01*
X313482Y1472559D02*
X314520Y1471521D01*
X305520Y1472559D02*
X313482D01*
X303020Y1475059D02*
Y1482630D01*
X306020Y1437059D02*
X314520Y1445559D01*
X303020Y1475059D02*
X305520Y1472559D01*
X296000Y1437059D02*
X306020D01*
X303000Y1482650D02*
X303020Y1482630D01*
X295941Y1437118D02*
X296000Y1437059D01*
X301765Y1494443D02*
X301765D01*
X298000Y1482650D02*
Y1490678D01*
X301765Y1494443D01*
X361500Y1403500D02*
Y1456500D01*
X364000Y1401000D02*
X370500D01*
X361500Y1403500D02*
X364000Y1401000D01*
X370500D02*
X381000D01*
X384500Y1404500D02*
Y1411441D01*
X381000Y1401000D02*
X384500Y1404500D01*
D69*
X379370Y1341768D02*
X389500D01*
Y1336650D02*
X394257D01*
X175791Y1413000D02*
X188000D01*
X196000Y1421000D02*
X206000D01*
X188000Y1413000D02*
X196000Y1421000D01*
D70*
X278455Y1441733D02*
X293233D01*
X298000Y1446500D01*
Y1457744D01*
X270000Y1447000D02*
X290000D01*
X293000Y1450000D02*
Y1457744D01*
X290000Y1447000D02*
X293000Y1450000D01*
X340500Y1421000D02*
Y1431941D01*
D71*
X284597Y1519696D02*
X291611D01*
X336000Y1536059D02*
Y1549500D01*
D72*
X199000Y1345500D02*
Y1355831D01*
X198854Y1361000D02*
X199000Y1361146D01*
X192500Y1361000D02*
X198854D01*
X199000Y1361146D02*
X213370D01*
D73*
X211000Y1438000D02*
Y1446500D01*
X209532Y1447968D02*
X211000Y1446500D01*
X206846Y1448000D02*
X206879Y1447968D01*
X209532D01*
D74*
X197000Y1438000D02*
D03*
X211000D02*
D03*
X238000Y1481500D02*
D03*
X320500Y1481000D02*
D03*
X289000Y1378500D02*
D03*
X184500Y1361000D02*
D03*
X175791Y1423000D02*
D03*
Y1456000D02*
D03*
D75*
X215996Y1265901D02*
D03*
X200248Y1260428D02*
D03*
X184500Y1265901D02*
D03*
X221508Y1282613D02*
D03*
X178989D02*
D03*
X187748Y1297113D02*
D03*
X200248Y1280113D02*
D03*
X212248Y1297613D02*
D03*
X394248Y1265901D02*
D03*
X378500Y1260428D02*
D03*
X362752Y1265901D02*
D03*
X399760Y1282613D02*
D03*
X357240D02*
D03*
X366000Y1297113D02*
D03*
X378500Y1280113D02*
D03*
X390500Y1297613D02*
D03*
D76*
X379370Y1351768D02*
D03*
Y1365268D02*
D03*
D77*
Y1341768D02*
D03*
Y1375268D02*
D03*
D78*
X175791Y1413000D02*
D03*
Y1446000D02*
D03*
D79*
X306000Y1549500D02*
D03*
X316000D02*
D03*
X326000D02*
D03*
X336000D02*
D03*
X346000D02*
D03*
D80*
X356000D02*
D03*
D81*
X217500Y1544000D02*
D03*
X207500D02*
D03*
D82*
X282248Y1315747D02*
D03*
D83*
X332248D02*
D03*
X307248D02*
D03*
D84*
X267201Y1542614D02*
D03*
X282949D02*
D03*
D85*
X261000Y1537417D02*
D03*
Y1551000D02*
D03*
X289150Y1537417D02*
D03*
Y1551000D02*
D03*
D86*
X417323Y1291339D02*
D03*
X409449Y1275590D02*
D03*
X417323Y1259842D02*
D03*
X393701Y1275590D02*
D03*
X401575Y1259842D02*
D03*
X370079Y1354331D02*
D03*
Y1259842D02*
D03*
X354331D02*
D03*
X338583Y1354331D02*
D03*
Y1322834D02*
D03*
Y1259842D02*
D03*
X314961Y1401575D02*
D03*
X322835Y1291339D02*
D03*
X307087Y1259842D02*
D03*
X291338D02*
D03*
X275590Y1385827D02*
D03*
Y1259842D02*
D03*
X259842Y1385827D02*
D03*
X251969Y1370079D02*
D03*
X259842Y1322834D02*
D03*
X236220Y1370079D02*
D03*
X244094Y1354331D02*
D03*
X228346Y1259842D02*
D03*
X212598Y1322834D02*
D03*
X188976Y1338583D02*
D03*
X196850Y1322834D02*
D03*
X188976Y1307086D02*
D03*
X196850Y1291339D02*
D03*
X188976Y1275590D02*
D03*
X173228Y1370079D02*
D03*
Y1338583D02*
D03*
X181102Y1322834D02*
D03*
X173228Y1307086D02*
D03*
Y1244094D02*
D03*
X157480Y1401575D02*
D03*
X165354Y1385827D02*
D03*
X157480Y1370079D02*
D03*
X165354Y1354331D02*
D03*
X157480Y1338583D02*
D03*
X165354Y1322834D02*
D03*
X157480Y1307086D02*
D03*
Y1275590D02*
D03*
Y1244094D02*
D03*
X256048Y1362969D02*
D03*
X295527Y1324963D02*
D03*
X300691Y1318915D02*
D03*
X301706Y1311027D02*
D03*
X284537Y1342945D02*
D03*
Y1350898D02*
D03*
X272303Y1367363D02*
D03*
X285765Y1286969D02*
D03*
X314235Y1286469D02*
D03*
X273468Y1298265D02*
D03*
X268382Y1285388D02*
D03*
X280500Y1292500D02*
D03*
X296500Y1286500D02*
D03*
X306539Y1286469D02*
D03*
X310203Y1271963D02*
D03*
X302250D02*
D03*
X294297D02*
D03*
X318155D02*
D03*
X320272Y1366103D02*
D03*
X316963Y1350919D02*
D03*
Y1342966D02*
D03*
Y1327061D02*
D03*
Y1319108D02*
D03*
Y1311155D02*
D03*
X311334Y1305537D02*
D03*
X303381D02*
D03*
X295428D02*
D03*
X287805Y1307802D02*
D03*
X289519Y1315568D02*
D03*
X286545Y1322944D02*
D03*
X278593Y1323017D02*
D03*
X274978Y1315934D02*
D03*
X276653Y1308159D02*
D03*
X292811Y1294463D02*
D03*
X300764D02*
D03*
X308717D02*
D03*
X316670D02*
D03*
X323963Y1297633D02*
D03*
X328037Y1344227D02*
D03*
Y1352179D02*
D03*
X329772Y1359941D02*
D03*
X335395Y1365564D02*
D03*
X341019Y1371188D02*
D03*
X391026Y1373340D02*
D03*
Y1365387D02*
D03*
Y1357434D02*
D03*
X398724Y1333286D02*
D03*
X388467Y1346971D02*
D03*
X355212Y1379020D02*
D03*
X351447Y1372015D02*
D03*
X347720Y1364989D02*
D03*
X347709Y1357036D02*
D03*
X366420Y1361832D02*
D03*
X365489Y1369730D02*
D03*
X396628Y1396537D02*
D03*
X327862Y1388193D02*
D03*
X321082Y1384037D02*
D03*
X313129D02*
D03*
X305176D02*
D03*
X297224D02*
D03*
X289339Y1385077D02*
D03*
X282757Y1380614D02*
D03*
X283430Y1372690D02*
D03*
X283463Y1364737D02*
D03*
X314452Y1359475D02*
D03*
X312357Y1367147D02*
D03*
X304411Y1367483D02*
D03*
X298647Y1372963D02*
D03*
X306600D02*
D03*
X314553D02*
D03*
X322506D02*
D03*
X397740Y1385463D02*
D03*
X405490Y1383679D02*
D03*
X405963Y1375741D02*
D03*
Y1367788D02*
D03*
Y1359835D02*
D03*
Y1351882D02*
D03*
Y1343930D02*
D03*
Y1335977D02*
D03*
Y1328024D02*
D03*
X392253Y1322537D02*
D03*
X384300D02*
D03*
X376348D02*
D03*
X368395D02*
D03*
X360469Y1321887D02*
D03*
X353000Y1321500D02*
D03*
X349292Y1280344D02*
D03*
X354882Y1274688D02*
D03*
X362656Y1276364D02*
D03*
X365407Y1283826D02*
D03*
X360595Y1290158D02*
D03*
X405714Y1309213D02*
D03*
X410689Y1316093D02*
D03*
X416182Y1321844D02*
D03*
X417037Y1329751D02*
D03*
Y1337703D02*
D03*
Y1345656D02*
D03*
Y1353609D02*
D03*
Y1361562D02*
D03*
Y1369514D02*
D03*
Y1377467D02*
D03*
Y1385420D02*
D03*
X412727Y1392103D02*
D03*
X406115Y1396522D02*
D03*
X205428Y1302284D02*
D03*
X204658Y1294369D02*
D03*
X210917Y1289463D02*
D03*
X234571Y1291549D02*
D03*
X237226Y1302648D02*
D03*
X213942Y1305716D02*
D03*
X349069Y1315810D02*
D03*
X343401Y1310232D02*
D03*
X337777Y1304608D02*
D03*
X251368Y1285943D02*
D03*
X243416Y1286062D02*
D03*
X238345Y1279936D02*
D03*
X240005Y1272159D02*
D03*
X254556Y1271366D02*
D03*
X270439Y1271963D02*
D03*
X278392D02*
D03*
X286344D02*
D03*
X324941Y1276110D02*
D03*
X330564Y1281734D02*
D03*
X336188Y1287357D02*
D03*
X341811Y1292980D02*
D03*
X360819Y1305963D02*
D03*
X368772D02*
D03*
X376725D02*
D03*
X384463Y1304126D02*
D03*
X382325Y1296466D02*
D03*
X387083Y1290094D02*
D03*
X177975Y1360140D02*
D03*
X183567Y1354485D02*
D03*
X191459Y1355463D02*
D03*
X223107Y1355406D02*
D03*
X228963Y1350025D02*
D03*
Y1342072D02*
D03*
X236809Y1320860D02*
D03*
X242433Y1315236D02*
D03*
X248056Y1309613D02*
D03*
X256463Y1296540D02*
D03*
Y1288587D02*
D03*
X254356Y1265013D02*
D03*
X247167Y1268414D02*
D03*
X240041Y1264882D02*
D03*
X238329Y1257116D02*
D03*
X265838Y1257313D02*
D03*
X267537Y1265082D02*
D03*
X262319Y1311012D02*
D03*
X256696Y1316635D02*
D03*
X251072Y1322258D02*
D03*
X245449Y1327882D02*
D03*
X240037Y1341662D02*
D03*
Y1349615D02*
D03*
X238022Y1357308D02*
D03*
X232399Y1362932D02*
D03*
X225310Y1366537D02*
D03*
X217414Y1367483D02*
D03*
X209461D02*
D03*
X201588Y1366366D02*
D03*
X193635Y1366381D02*
D03*
X185757Y1367473D02*
D03*
X310648Y1503148D02*
D03*
X278455Y1441733D02*
D03*
X270000Y1447000D02*
D03*
X278000Y1474000D02*
D03*
X301765Y1494443D02*
D03*
X255500Y1460500D02*
D03*
X308000Y1466000D02*
D03*
X248868Y1522658D02*
D03*
X273000Y1520000D02*
D03*
X288000Y1491500D02*
D03*
X336000Y1523000D02*
D03*
X361500Y1456500D02*
D03*
X203500Y1341000D02*
D03*
X362500Y1250000D02*
D03*
M02*
