G04*
G04 #@! TF.GenerationSoftware,Altium Limited,Altium Designer,20.0.10 (225)*
G04*
G04 Layer_Physical_Order=2*
G04 Layer_Color=16711680*
%FSLAX25Y25*%
%MOIN*%
G70*
G01*
G75*
%ADD10C,0.00787*%
%ADD11C,0.01000*%
%ADD17C,0.03937*%
%ADD22R,0.03740X0.03347*%
%ADD49C,0.02953*%
%ADD59R,0.11237X0.11237*%
%ADD60C,0.11237*%
%ADD61R,0.05118X0.05118*%
%ADD62C,0.05118*%
%ADD67C,0.01772*%
%ADD68C,0.02165*%
%ADD73C,0.02969*%
%ADD74C,0.06102*%
%ADD75C,0.09449*%
%ADD76R,0.07087X0.06693*%
%ADD77O,0.07480X0.07874*%
%ADD78R,0.06102X0.06102*%
%ADD79C,0.05906*%
%ADD80R,0.05906X0.05906*%
%ADD81O,0.07874X0.11811*%
%ADD82R,0.07480X0.07480*%
%ADD83C,0.07480*%
%ADD84C,0.02559*%
G04:AMPARAMS|DCode=85|XSize=41.34mil|YSize=72.84mil|CornerRadius=10.34mil|HoleSize=0mil|Usage=FLASHONLY|Rotation=180.000|XOffset=0mil|YOffset=0mil|HoleType=Round|Shape=RoundedRectangle|*
%AMROUNDEDRECTD85*
21,1,0.04134,0.05217,0,0,180.0*
21,1,0.02067,0.07284,0,0,180.0*
1,1,0.02067,-0.01034,0.02608*
1,1,0.02067,0.01034,0.02608*
1,1,0.02067,0.01034,-0.02608*
1,1,0.02067,-0.01034,-0.02608*
%
%ADD85ROUNDEDRECTD85*%
%ADD86C,0.05000*%
%ADD87R,0.01968X0.03150*%
G36*
X422874Y1562992D02*
Y1562992D01*
X423370Y1562982D01*
X424082Y1562841D01*
X424836Y1562529D01*
X425514Y1562075D01*
X426091Y1561499D01*
X426544Y1560820D01*
X426857Y1560066D01*
X426998Y1559357D01*
X427000Y1558858D01*
X427000D01*
Y1240555D01*
X426960Y1240057D01*
X426857Y1239540D01*
X426544Y1238786D01*
X426091Y1238108D01*
X425514Y1237531D01*
X424836Y1237078D01*
X424082Y1236765D01*
X423539Y1236657D01*
X423055Y1236610D01*
X423054Y1236610D01*
X155492Y1236606D01*
X155084D01*
X154284Y1236765D01*
X153530Y1237078D01*
X152852Y1237531D01*
X152275Y1238108D01*
X151822Y1238786D01*
X151509Y1239540D01*
X151350Y1240340D01*
Y1240748D01*
Y1558850D01*
Y1559258D01*
X151509Y1560058D01*
X151822Y1560812D01*
X152275Y1561491D01*
X152852Y1562068D01*
X153530Y1562521D01*
X154284Y1562833D01*
X155084Y1562992D01*
X422874D01*
X422874Y1562992D01*
D02*
G37*
%LPC*%
G36*
X306500Y1553421D02*
Y1550000D01*
X309921D01*
X309851Y1550532D01*
X309453Y1551493D01*
X308819Y1552319D01*
X307993Y1552953D01*
X307032Y1553351D01*
X306500Y1553421D01*
D02*
G37*
G36*
X305500D02*
X304968Y1553351D01*
X304007Y1552953D01*
X303181Y1552319D01*
X302547Y1551493D01*
X302149Y1550532D01*
X302079Y1550000D01*
X305500D01*
Y1553421D01*
D02*
G37*
G36*
X217500Y1550948D02*
X216211Y1550778D01*
X215010Y1550281D01*
X213979Y1549490D01*
X213188Y1548458D01*
X212771Y1547452D01*
X212229D01*
X211812Y1548458D01*
X211021Y1549490D01*
X209990Y1550281D01*
X208789Y1550778D01*
X208000Y1550882D01*
Y1544000D01*
Y1537118D01*
X208789Y1537222D01*
X209990Y1537719D01*
X211021Y1538510D01*
X211812Y1539542D01*
X212229Y1540548D01*
X212771D01*
X213188Y1539542D01*
X213979Y1538510D01*
X215010Y1537719D01*
X216211Y1537222D01*
X217500Y1537052D01*
X218789Y1537222D01*
X219990Y1537719D01*
X221021Y1538510D01*
X221813Y1539542D01*
X222310Y1540743D01*
X222480Y1542031D01*
Y1545969D01*
X222310Y1547257D01*
X221813Y1548458D01*
X221021Y1549490D01*
X219990Y1550281D01*
X218789Y1550778D01*
X217500Y1550948D01*
D02*
G37*
G36*
X290183Y1555682D02*
X288116D01*
X287323Y1555524D01*
X286650Y1555074D01*
X286201Y1554402D01*
X286043Y1553608D01*
Y1548392D01*
X286201Y1547598D01*
X286650Y1546926D01*
X287323Y1546476D01*
X288116Y1546318D01*
X290183D01*
X290977Y1546476D01*
X291649Y1546926D01*
X292099Y1547598D01*
X292256Y1548392D01*
Y1553608D01*
X292099Y1554402D01*
X291649Y1555074D01*
X290977Y1555524D01*
X290183Y1555682D01*
D02*
G37*
G36*
X262034D02*
X259966D01*
X259173Y1555524D01*
X258501Y1555074D01*
X258051Y1554402D01*
X257893Y1553608D01*
Y1548392D01*
X258051Y1547598D01*
X258501Y1546926D01*
X259173Y1546476D01*
X259966Y1546318D01*
X262034D01*
X262827Y1546476D01*
X263499Y1546926D01*
X263949Y1547598D01*
X264107Y1548392D01*
Y1553608D01*
X263949Y1554402D01*
X263499Y1555074D01*
X262827Y1555524D01*
X262034Y1555682D01*
D02*
G37*
G36*
X309921Y1549000D02*
X306500D01*
Y1545579D01*
X307032Y1545649D01*
X307993Y1546047D01*
X308819Y1546681D01*
X309453Y1547507D01*
X309851Y1548468D01*
X309921Y1549000D01*
D02*
G37*
G36*
X305500D02*
X302079D01*
X302149Y1548468D01*
X302547Y1547507D01*
X303181Y1546681D01*
X304007Y1546047D01*
X304968Y1545649D01*
X305500Y1545579D01*
Y1549000D01*
D02*
G37*
G36*
X359953Y1553453D02*
X352047D01*
Y1545547D01*
X359953D01*
Y1553453D01*
D02*
G37*
G36*
X346000Y1553487D02*
X344968Y1553351D01*
X344007Y1552953D01*
X343181Y1552319D01*
X342547Y1551493D01*
X342149Y1550532D01*
X342013Y1549500D01*
X342149Y1548468D01*
X342547Y1547507D01*
X343181Y1546681D01*
X344007Y1546047D01*
X344968Y1545649D01*
X346000Y1545513D01*
X347032Y1545649D01*
X347993Y1546047D01*
X348819Y1546681D01*
X349453Y1547507D01*
X349851Y1548468D01*
X349987Y1549500D01*
X349851Y1550532D01*
X349453Y1551493D01*
X348819Y1552319D01*
X347993Y1552953D01*
X347032Y1553351D01*
X346000Y1553487D01*
D02*
G37*
G36*
X336000D02*
X334968Y1553351D01*
X334007Y1552953D01*
X333181Y1552319D01*
X332547Y1551493D01*
X332149Y1550532D01*
X332013Y1549500D01*
X332149Y1548468D01*
X332547Y1547507D01*
X333181Y1546681D01*
X334007Y1546047D01*
X334968Y1545649D01*
X336000Y1545513D01*
X337032Y1545649D01*
X337993Y1546047D01*
X338819Y1546681D01*
X339453Y1547507D01*
X339851Y1548468D01*
X339987Y1549500D01*
X339851Y1550532D01*
X339453Y1551493D01*
X338819Y1552319D01*
X337993Y1552953D01*
X337032Y1553351D01*
X336000Y1553487D01*
D02*
G37*
G36*
X326000D02*
X324968Y1553351D01*
X324007Y1552953D01*
X323181Y1552319D01*
X322547Y1551493D01*
X322149Y1550532D01*
X322013Y1549500D01*
X322149Y1548468D01*
X322547Y1547507D01*
X323181Y1546681D01*
X324007Y1546047D01*
X324968Y1545649D01*
X326000Y1545513D01*
X327032Y1545649D01*
X327993Y1546047D01*
X328819Y1546681D01*
X329453Y1547507D01*
X329851Y1548468D01*
X329987Y1549500D01*
X329851Y1550532D01*
X329453Y1551493D01*
X328819Y1552319D01*
X327993Y1552953D01*
X327032Y1553351D01*
X326000Y1553487D01*
D02*
G37*
G36*
X316000D02*
X314968Y1553351D01*
X314007Y1552953D01*
X313181Y1552319D01*
X312547Y1551493D01*
X312149Y1550532D01*
X312013Y1549500D01*
X312149Y1548468D01*
X312547Y1547507D01*
X313181Y1546681D01*
X314007Y1546047D01*
X314968Y1545649D01*
X316000Y1545513D01*
X317032Y1545649D01*
X317993Y1546047D01*
X318819Y1546681D01*
X319453Y1547507D01*
X319851Y1548468D01*
X319987Y1549500D01*
X319851Y1550532D01*
X319453Y1551493D01*
X318819Y1552319D01*
X317993Y1552953D01*
X317032Y1553351D01*
X316000Y1553487D01*
D02*
G37*
G36*
X207000Y1550882D02*
X206211Y1550778D01*
X205010Y1550281D01*
X203979Y1549490D01*
X203187Y1548458D01*
X202690Y1547257D01*
X202520Y1545969D01*
Y1544500D01*
X207000D01*
Y1550882D01*
D02*
G37*
G36*
X282949Y1544938D02*
X282059Y1544761D01*
X281305Y1544258D01*
X280802Y1543504D01*
X280625Y1542614D01*
X280802Y1541725D01*
X281305Y1540971D01*
X282059Y1540467D01*
X282949Y1540290D01*
X283838Y1540467D01*
X284592Y1540971D01*
X285096Y1541725D01*
X285273Y1542614D01*
X285096Y1543504D01*
X284592Y1544258D01*
X283838Y1544761D01*
X282949Y1544938D01*
D02*
G37*
G36*
X267201D02*
X266311Y1544761D01*
X265557Y1544258D01*
X265054Y1543504D01*
X264877Y1542614D01*
X265054Y1541725D01*
X265557Y1540971D01*
X266311Y1540467D01*
X267201Y1540290D01*
X268090Y1540467D01*
X268844Y1540971D01*
X269348Y1541725D01*
X269525Y1542614D01*
X269348Y1543504D01*
X268844Y1544258D01*
X268090Y1544761D01*
X267201Y1544938D01*
D02*
G37*
G36*
X207000Y1543500D02*
X202520D01*
Y1542031D01*
X202690Y1540743D01*
X203187Y1539542D01*
X203979Y1538510D01*
X205010Y1537719D01*
X206211Y1537222D01*
X207000Y1537118D01*
Y1543500D01*
D02*
G37*
G36*
X290183Y1542099D02*
X288116D01*
X287323Y1541941D01*
X286650Y1541492D01*
X286201Y1540819D01*
X286043Y1540026D01*
Y1534809D01*
X286201Y1534016D01*
X286650Y1533343D01*
X287323Y1532894D01*
X288116Y1532736D01*
X290183D01*
X290977Y1532894D01*
X291649Y1533343D01*
X292099Y1534016D01*
X292256Y1534809D01*
Y1540026D01*
X292099Y1540819D01*
X291649Y1541492D01*
X290977Y1541941D01*
X290183Y1542099D01*
D02*
G37*
G36*
X262034D02*
X259966D01*
X259173Y1541941D01*
X258501Y1541492D01*
X258051Y1540819D01*
X257893Y1540026D01*
Y1534809D01*
X258051Y1534016D01*
X258501Y1533343D01*
X259173Y1532894D01*
X259966Y1532736D01*
X262034D01*
X262827Y1532894D01*
X263499Y1533343D01*
X263949Y1534016D01*
X264107Y1534809D01*
Y1540026D01*
X263949Y1540819D01*
X263499Y1541492D01*
X262827Y1541941D01*
X262034Y1542099D01*
D02*
G37*
G36*
X336500Y1526464D02*
Y1523500D01*
X339464D01*
X339410Y1523914D01*
X339057Y1524765D01*
X338496Y1525496D01*
X337765Y1526057D01*
X336914Y1526410D01*
X336500Y1526464D01*
D02*
G37*
G36*
X335500D02*
X335086Y1526410D01*
X334235Y1526057D01*
X333504Y1525496D01*
X332943Y1524765D01*
X332590Y1523914D01*
X332536Y1523500D01*
X335500D01*
Y1526464D01*
D02*
G37*
G36*
X339464Y1522500D02*
X336500D01*
Y1519536D01*
X336914Y1519590D01*
X337765Y1519943D01*
X338496Y1520504D01*
X339057Y1521235D01*
X339410Y1522086D01*
X339464Y1522500D01*
D02*
G37*
G36*
X335500D02*
X332536D01*
X332590Y1522086D01*
X332943Y1521235D01*
X333504Y1520504D01*
X334235Y1519943D01*
X335086Y1519590D01*
X335500Y1519536D01*
Y1522500D01*
D02*
G37*
G36*
X245000Y1473025D02*
X244034Y1472833D01*
X243215Y1472285D01*
X242667Y1471466D01*
X242475Y1470500D01*
X242667Y1469534D01*
X243215Y1468715D01*
X244034Y1468167D01*
X245000Y1467975D01*
X245966Y1468167D01*
X246785Y1468715D01*
X247333Y1469534D01*
X247525Y1470500D01*
X247333Y1471466D01*
X246785Y1472285D01*
X245966Y1472833D01*
X245000Y1473025D01*
D02*
G37*
G36*
X228000Y1530020D02*
X227610Y1529942D01*
X227279Y1529721D01*
X195279Y1497721D01*
X195058Y1497390D01*
X194980Y1497000D01*
X194980Y1487422D01*
X170279Y1462721D01*
X170058Y1462390D01*
X169980Y1462000D01*
X169980Y1437423D01*
X170000Y1437323D01*
X169764Y1437276D01*
X169140Y1436860D01*
X165640Y1433360D01*
X165224Y1432736D01*
X165077Y1432000D01*
Y1397500D01*
X165224Y1396764D01*
X165640Y1396140D01*
X173140Y1388640D01*
X173764Y1388224D01*
X174500Y1388077D01*
X242962D01*
X243698Y1388224D01*
X244322Y1388640D01*
X245360Y1389678D01*
X245776Y1390302D01*
X245923Y1391038D01*
Y1407704D01*
X247296Y1409077D01*
X247823D01*
X248295Y1408462D01*
X249039Y1407891D01*
X249904Y1407533D01*
X250833Y1407410D01*
X251762Y1407533D01*
X252628Y1407891D01*
X253372Y1408462D01*
X253390Y1408486D01*
X253435Y1408522D01*
X253585Y1408600D01*
X253849Y1408696D01*
X254221Y1408793D01*
X254660Y1408875D01*
X257358Y1409077D01*
X263000D01*
X263736Y1409224D01*
X264360Y1409640D01*
X269360Y1414640D01*
X269776Y1415264D01*
X269923Y1416000D01*
Y1437204D01*
X272530Y1439811D01*
X272871D01*
X273889Y1439776D01*
X274925Y1439687D01*
X275293Y1439631D01*
X275569Y1439571D01*
X275727Y1439521D01*
X275734Y1439518D01*
X275757Y1439498D01*
X275761Y1439495D01*
X275959Y1439237D01*
X276690Y1438676D01*
X277541Y1438323D01*
X278455Y1438203D01*
X279368Y1438323D01*
X280220Y1438676D01*
X280951Y1439237D01*
X281512Y1439968D01*
X281865Y1440820D01*
X281985Y1441733D01*
X281865Y1442647D01*
X281512Y1443499D01*
X280951Y1444230D01*
X280220Y1444791D01*
X279368Y1445143D01*
X278455Y1445264D01*
X277541Y1445143D01*
X276690Y1444791D01*
X275959Y1444230D01*
X275761Y1443972D01*
X275757Y1443969D01*
X275734Y1443949D01*
X275727Y1443946D01*
X275569Y1443895D01*
X275333Y1443844D01*
X272675Y1443656D01*
X272213D01*
X272043Y1444156D01*
X272496Y1444504D01*
X273057Y1445235D01*
X273410Y1446086D01*
X273530Y1447000D01*
X273410Y1447914D01*
X273057Y1448765D01*
X272496Y1449496D01*
X271765Y1450057D01*
X270914Y1450410D01*
X270000Y1450530D01*
X269086Y1450410D01*
X268235Y1450057D01*
X267504Y1449496D01*
X267487Y1449475D01*
X267452Y1449447D01*
X267315Y1449376D01*
X267060Y1449285D01*
X266701Y1449193D01*
X266273Y1449115D01*
X263647Y1448923D01*
X232000D01*
X231264Y1448776D01*
X230640Y1448360D01*
X221640Y1439360D01*
X221224Y1438736D01*
X221077Y1438000D01*
Y1423296D01*
X210704Y1412923D01*
X210378D01*
X209206Y1412941D01*
X208985Y1412956D01*
X208538Y1413538D01*
X207795Y1414109D01*
X206929Y1414467D01*
X206000Y1414590D01*
X205071Y1414467D01*
X204205Y1414109D01*
X203462Y1413538D01*
X203431Y1413499D01*
X203281Y1413370D01*
X203048Y1413225D01*
X202735Y1413079D01*
X202341Y1412941D01*
X201866Y1412818D01*
X201337Y1412718D01*
X199195Y1412532D01*
X199028Y1412529D01*
X197634D01*
X195140Y1415024D01*
X195386Y1415484D01*
X195484Y1415465D01*
X195874Y1415542D01*
X196205Y1415763D01*
X201979Y1421537D01*
X202441Y1421346D01*
Y1417441D01*
X209559D01*
Y1424559D01*
X203461D01*
Y1447519D01*
X234600Y1478658D01*
X235099Y1478626D01*
X235111Y1478611D01*
X235957Y1477961D01*
X236942Y1477553D01*
X238000Y1477414D01*
X239058Y1477553D01*
X240043Y1477961D01*
X240889Y1478611D01*
X241539Y1479457D01*
X241947Y1480442D01*
X242086Y1481500D01*
X241947Y1482558D01*
X241539Y1483543D01*
X240889Y1484389D01*
X240874Y1484401D01*
X240842Y1484900D01*
X246922Y1490981D01*
X263065D01*
X264480Y1489507D01*
Y1475923D01*
X261000D01*
X260264Y1475776D01*
X259640Y1475360D01*
X254140Y1469860D01*
X253724Y1469236D01*
X253577Y1468500D01*
Y1466759D01*
X253519Y1465440D01*
X253389Y1464245D01*
X253307Y1463799D01*
X253215Y1463439D01*
X253124Y1463186D01*
X253053Y1463048D01*
X253025Y1463013D01*
X253004Y1462996D01*
X252443Y1462265D01*
X252090Y1461414D01*
X251970Y1460500D01*
X252090Y1459586D01*
X252443Y1458735D01*
X253004Y1458004D01*
X253735Y1457443D01*
X254586Y1457090D01*
X255500Y1456970D01*
X256414Y1457090D01*
X257265Y1457443D01*
X257996Y1458004D01*
X258557Y1458735D01*
X258910Y1459586D01*
X259030Y1460500D01*
X258910Y1461414D01*
X258557Y1462265D01*
X257996Y1462996D01*
X257975Y1463013D01*
X257947Y1463048D01*
X257876Y1463186D01*
X257785Y1463439D01*
X257693Y1463799D01*
X257615Y1464227D01*
X257423Y1466853D01*
Y1467704D01*
X261796Y1472077D01*
X264480D01*
Y1462500D01*
X264558Y1462110D01*
X264779Y1461779D01*
X279779Y1446779D01*
X279915Y1446688D01*
X280044Y1446588D01*
X280544Y1446338D01*
X280579Y1446328D01*
X280610Y1446308D01*
X280770Y1446276D01*
X280928Y1446233D01*
X280964Y1446237D01*
X281000Y1446230D01*
X319328D01*
X340537Y1425021D01*
X340346Y1424559D01*
X336941D01*
Y1417441D01*
X344059D01*
Y1420846D01*
X344521Y1421037D01*
X365746Y1399811D01*
X365775Y1399793D01*
X365795Y1399766D01*
X365939Y1399683D01*
X366077Y1399590D01*
X366110Y1399584D01*
X366140Y1399567D01*
X366304Y1399545D01*
X366467Y1399513D01*
X366501Y1399519D01*
X366534Y1399515D01*
X366695Y1399558D01*
X366858Y1399590D01*
X367307Y1399408D01*
X367391Y1399205D01*
X367962Y1398462D01*
X368705Y1397891D01*
X369571Y1397533D01*
X370500Y1397410D01*
X371429Y1397533D01*
X372295Y1397891D01*
X373038Y1398462D01*
X373060Y1398490D01*
X373168Y1398568D01*
X373615Y1398652D01*
X373707Y1398614D01*
X373791Y1398558D01*
X373889Y1398538D01*
X373982Y1398500D01*
X374082D01*
X374181Y1398480D01*
X382000Y1398480D01*
X382390Y1398558D01*
X382721Y1398779D01*
X382942Y1399110D01*
X383020Y1399500D01*
X383020Y1426000D01*
X382942Y1426390D01*
X382721Y1426721D01*
X321766Y1487675D01*
X321739Y1491555D01*
X322091Y1491910D01*
X351008D01*
X358967Y1483951D01*
Y1461862D01*
X358930Y1459769D01*
X358871Y1458973D01*
X358846Y1458790D01*
X358443Y1458265D01*
X358090Y1457414D01*
X357970Y1456500D01*
X358090Y1455586D01*
X358443Y1454735D01*
X359004Y1454004D01*
X359735Y1453443D01*
X360586Y1453090D01*
X361500Y1452970D01*
X362414Y1453090D01*
X363265Y1453443D01*
X363996Y1454004D01*
X364557Y1454735D01*
X364910Y1455586D01*
X365030Y1456500D01*
X364910Y1457414D01*
X364557Y1458265D01*
X364252Y1458663D01*
X364033Y1462966D01*
Y1485000D01*
X363840Y1485969D01*
X363291Y1486791D01*
X353848Y1496234D01*
X353027Y1496783D01*
X352057Y1496976D01*
X322104D01*
X321711Y1497322D01*
X321697Y1497338D01*
X321520Y1522007D01*
X321480Y1522198D01*
X321442Y1522390D01*
X321440Y1522393D01*
X321439Y1522397D01*
X321329Y1522559D01*
X321221Y1522721D01*
X314221Y1529721D01*
X313890Y1529942D01*
X313500Y1530020D01*
X279000Y1530020D01*
X228000Y1530020D01*
D02*
G37*
G36*
X211500Y1442020D02*
Y1438500D01*
X215020D01*
X214947Y1439058D01*
X214539Y1440043D01*
X213889Y1440889D01*
X213043Y1441539D01*
X212058Y1441947D01*
X211500Y1442020D01*
D02*
G37*
G36*
X210500D02*
X209942Y1441947D01*
X208957Y1441539D01*
X208111Y1440889D01*
X207461Y1440043D01*
X207053Y1439058D01*
X206980Y1438500D01*
X210500D01*
Y1442020D01*
D02*
G37*
G36*
X215020Y1437500D02*
X211500D01*
Y1433980D01*
X212058Y1434053D01*
X213043Y1434461D01*
X213889Y1435111D01*
X214539Y1435957D01*
X214947Y1436942D01*
X215020Y1437500D01*
D02*
G37*
G36*
X210500D02*
X206980D01*
X207053Y1436942D01*
X207461Y1435957D01*
X208111Y1435111D01*
X208957Y1434461D01*
X209942Y1434053D01*
X210500Y1433980D01*
Y1437500D01*
D02*
G37*
G36*
X299226Y1424559D02*
X292108D01*
Y1417441D01*
X299226D01*
Y1424559D01*
D02*
G37*
G36*
X325667Y1424590D02*
X324738Y1424467D01*
X323872Y1424109D01*
X323128Y1423538D01*
X322558Y1422795D01*
X322199Y1421929D01*
X322077Y1421000D01*
X322199Y1420071D01*
X322558Y1419205D01*
X323128Y1418462D01*
X323872Y1417891D01*
X324738Y1417533D01*
X325667Y1417410D01*
X326596Y1417533D01*
X327462Y1417891D01*
X328205Y1418462D01*
X328776Y1419205D01*
X329134Y1420071D01*
X329256Y1421000D01*
X329134Y1421929D01*
X328776Y1422795D01*
X328205Y1423538D01*
X327462Y1424109D01*
X326596Y1424467D01*
X325667Y1424590D01*
D02*
G37*
G36*
X280833D02*
X279904Y1424467D01*
X279039Y1424109D01*
X278295Y1423538D01*
X277725Y1422795D01*
X277366Y1421929D01*
X277244Y1421000D01*
X277366Y1420071D01*
X277725Y1419205D01*
X278295Y1418462D01*
X279039Y1417891D01*
X279904Y1417533D01*
X280833Y1417410D01*
X281762Y1417533D01*
X282628Y1417891D01*
X283372Y1418462D01*
X283942Y1419205D01*
X284301Y1420071D01*
X284423Y1421000D01*
X284301Y1421929D01*
X283942Y1422795D01*
X283372Y1423538D01*
X282628Y1424109D01*
X281762Y1424467D01*
X280833Y1424590D01*
D02*
G37*
G36*
X341000Y1414524D02*
Y1411500D01*
X344024D01*
X343967Y1411929D01*
X343609Y1412795D01*
X343038Y1413538D01*
X342295Y1414109D01*
X341429Y1414467D01*
X341000Y1414524D01*
D02*
G37*
G36*
X340000D02*
X339571Y1414467D01*
X338705Y1414109D01*
X337962Y1413538D01*
X337391Y1412795D01*
X337033Y1411929D01*
X336976Y1411500D01*
X340000D01*
Y1414524D01*
D02*
G37*
G36*
X344024Y1410500D02*
X341000D01*
Y1407476D01*
X341429Y1407533D01*
X342295Y1407891D01*
X343038Y1408462D01*
X343609Y1409205D01*
X343967Y1410071D01*
X344024Y1410500D01*
D02*
G37*
G36*
X340000D02*
X336976D01*
X337033Y1410071D01*
X337391Y1409205D01*
X337962Y1408462D01*
X338705Y1407891D01*
X339571Y1407533D01*
X340000Y1407476D01*
Y1410500D01*
D02*
G37*
G36*
X325667Y1414590D02*
X324738Y1414467D01*
X323872Y1414109D01*
X323128Y1413538D01*
X322558Y1412795D01*
X322199Y1411929D01*
X322077Y1411000D01*
X322199Y1410071D01*
X322558Y1409205D01*
X323128Y1408462D01*
X323872Y1407891D01*
X324738Y1407533D01*
X325667Y1407410D01*
X326596Y1407533D01*
X327462Y1407891D01*
X328205Y1408462D01*
X328776Y1409205D01*
X329134Y1410071D01*
X329256Y1411000D01*
X329134Y1411929D01*
X328776Y1412795D01*
X328205Y1413538D01*
X327462Y1414109D01*
X326596Y1414467D01*
X325667Y1414590D01*
D02*
G37*
G36*
X295667D02*
X294738Y1414467D01*
X293872Y1414109D01*
X293128Y1413538D01*
X292558Y1412795D01*
X292199Y1411929D01*
X292077Y1411000D01*
X292199Y1410071D01*
X292558Y1409205D01*
X293128Y1408462D01*
X293872Y1407891D01*
X294738Y1407533D01*
X295667Y1407410D01*
X296596Y1407533D01*
X297462Y1407891D01*
X298205Y1408462D01*
X298776Y1409205D01*
X299134Y1410071D01*
X299256Y1411000D01*
X299134Y1411929D01*
X298776Y1412795D01*
X298205Y1413538D01*
X297462Y1414109D01*
X296596Y1414467D01*
X295667Y1414590D01*
D02*
G37*
G36*
X280833D02*
X279904Y1414467D01*
X279039Y1414109D01*
X278889Y1413994D01*
X274000D01*
X273225Y1413892D01*
X272503Y1413593D01*
X271883Y1413117D01*
X263383Y1404617D01*
X262907Y1403997D01*
X262608Y1403275D01*
X262506Y1402500D01*
Y1346136D01*
X262455Y1344511D01*
X262286Y1342922D01*
X262012Y1341549D01*
X261639Y1340395D01*
X261180Y1339459D01*
X260646Y1338731D01*
X260042Y1338190D01*
X259356Y1337809D01*
X258558Y1337574D01*
X257650Y1337494D01*
X237000D01*
X236225Y1337392D01*
X235503Y1337093D01*
X234883Y1336617D01*
X223383Y1325117D01*
X222907Y1324497D01*
X222608Y1323775D01*
X222506Y1323000D01*
Y1288916D01*
X221923Y1288332D01*
X221508Y1288387D01*
X220014Y1288190D01*
X218621Y1287613D01*
X217425Y1286696D01*
X216508Y1285500D01*
X215931Y1284107D01*
X215734Y1282613D01*
X215931Y1281119D01*
X216508Y1279726D01*
X217425Y1278530D01*
X218621Y1277613D01*
X220014Y1277036D01*
X221508Y1276839D01*
X223003Y1277036D01*
X224395Y1277613D01*
X225591Y1278530D01*
X226508Y1279726D01*
X227085Y1281119D01*
X227282Y1282613D01*
X227085Y1284107D01*
X226816Y1284757D01*
X227617Y1285558D01*
X228093Y1286178D01*
X228217Y1286477D01*
X228392Y1286900D01*
X228494Y1287675D01*
Y1321760D01*
X238240Y1331506D01*
X387260D01*
X396506Y1322260D01*
Y1299379D01*
X396006Y1299280D01*
X395500Y1300500D01*
X394583Y1301696D01*
X393387Y1302613D01*
X393078Y1302741D01*
X392994Y1307767D01*
Y1308118D01*
X392892Y1308893D01*
X392717Y1309316D01*
X392593Y1309615D01*
X392117Y1310235D01*
X388735Y1313617D01*
X388115Y1314093D01*
X387393Y1314392D01*
X386618Y1314494D01*
X352500D01*
X351725Y1314392D01*
X351302Y1314217D01*
X351003Y1314093D01*
X350383Y1313617D01*
X317260Y1280494D01*
X263556D01*
X260001Y1280569D01*
X256879Y1280808D01*
X255609Y1280983D01*
X254520Y1281194D01*
X253626Y1281435D01*
X252938Y1281696D01*
X252465Y1281957D01*
X252099Y1282269D01*
X251951Y1282450D01*
X250943Y1283277D01*
X249793Y1283891D01*
X248546Y1284270D01*
X247248Y1284398D01*
X245951Y1284270D01*
X244703Y1283891D01*
X243553Y1283277D01*
X242546Y1282450D01*
X241719Y1281442D01*
X241104Y1280292D01*
X240726Y1279044D01*
X240598Y1277747D01*
X240726Y1276449D01*
X241104Y1275202D01*
X241719Y1274052D01*
X242546Y1273044D01*
X243553Y1272217D01*
X244703Y1271603D01*
X245951Y1271224D01*
X247248Y1271096D01*
X248546Y1271224D01*
X249793Y1271603D01*
X250943Y1272217D01*
X251782Y1272906D01*
X252154Y1273184D01*
X252645Y1273422D01*
X253353Y1273660D01*
X254263Y1273878D01*
X255341Y1274063D01*
X261652Y1274494D01*
X262979Y1274506D01*
X318500D01*
X319275Y1274608D01*
X319997Y1274907D01*
X320617Y1275383D01*
X353740Y1308506D01*
X385378D01*
X387006Y1306878D01*
Y1302147D01*
X386418Y1301696D01*
X385500Y1300500D01*
X384923Y1299107D01*
X384727Y1297613D01*
X384923Y1296119D01*
X385500Y1294726D01*
X386418Y1293530D01*
X387613Y1292613D01*
X389006Y1292036D01*
X390500Y1291839D01*
X391995Y1292036D01*
X393387Y1292613D01*
X394583Y1293530D01*
X395500Y1294726D01*
X396005Y1295945D01*
X396503Y1295840D01*
X396407Y1291519D01*
X396223Y1289193D01*
X396102Y1288294D01*
X395962Y1287565D01*
X395813Y1287026D01*
X395679Y1286703D01*
X395644Y1286653D01*
X394760Y1285500D01*
X394183Y1284107D01*
X393986Y1282613D01*
X394183Y1281119D01*
X394760Y1279726D01*
X395677Y1278530D01*
X396873Y1277613D01*
X398266Y1277036D01*
X399760Y1276839D01*
X401255Y1277036D01*
X402647Y1277613D01*
X403843Y1278530D01*
X404760Y1279726D01*
X405337Y1281119D01*
X405534Y1282613D01*
X405337Y1284107D01*
X404760Y1285500D01*
X403843Y1286696D01*
X403616Y1286870D01*
X403470Y1287047D01*
X403315Y1287360D01*
X403141Y1287885D01*
X402976Y1288602D01*
X402835Y1289472D01*
X402502Y1294768D01*
X402494Y1295728D01*
Y1323500D01*
X402392Y1324275D01*
X402093Y1324997D01*
X401617Y1325617D01*
X390617Y1336617D01*
X389997Y1337093D01*
X389275Y1337392D01*
X388500Y1337494D01*
X382622D01*
X382461Y1337968D01*
X382751Y1338190D01*
X383511Y1339180D01*
X383988Y1340333D01*
X384151Y1341571D01*
Y1341965D01*
X383988Y1343202D01*
X383511Y1344355D01*
X382751Y1345345D01*
X381761Y1346105D01*
X380608Y1346583D01*
X379370Y1346746D01*
X378133Y1346583D01*
X376980Y1346105D01*
X375989Y1345345D01*
X375230Y1344355D01*
X374752Y1343202D01*
X374589Y1341965D01*
Y1341571D01*
X374752Y1340333D01*
X375230Y1339180D01*
X375989Y1338190D01*
X376279Y1337968D01*
X376119Y1337494D01*
X273350D01*
X272442Y1337574D01*
X271644Y1337809D01*
X270958Y1338190D01*
X270354Y1338731D01*
X269820Y1339459D01*
X269361Y1340395D01*
X268988Y1341549D01*
X268714Y1342922D01*
X268545Y1344511D01*
X268494Y1346136D01*
Y1401260D01*
X275240Y1408006D01*
X278889D01*
X279039Y1407891D01*
X279904Y1407533D01*
X280833Y1407410D01*
X281762Y1407533D01*
X282628Y1407891D01*
X283372Y1408462D01*
X283942Y1409205D01*
X284301Y1410071D01*
X284423Y1411000D01*
X284301Y1411929D01*
X283942Y1412795D01*
X283372Y1413538D01*
X282628Y1414109D01*
X281762Y1414467D01*
X280833Y1414590D01*
D02*
G37*
G36*
X281333Y1404524D02*
Y1401500D01*
X284357D01*
X284301Y1401929D01*
X283942Y1402795D01*
X283372Y1403538D01*
X282628Y1404109D01*
X281762Y1404467D01*
X281333Y1404524D01*
D02*
G37*
G36*
X280333D02*
X279904Y1404467D01*
X279039Y1404109D01*
X278295Y1403538D01*
X277725Y1402795D01*
X277366Y1401929D01*
X277309Y1401500D01*
X280333D01*
Y1404524D01*
D02*
G37*
G36*
X284357Y1400500D02*
X281333D01*
Y1397476D01*
X281762Y1397533D01*
X282628Y1397891D01*
X283372Y1398462D01*
X283942Y1399205D01*
X284301Y1400071D01*
X284357Y1400500D01*
D02*
G37*
G36*
X280333D02*
X277309D01*
X277366Y1400071D01*
X277725Y1399205D01*
X278295Y1398462D01*
X279039Y1397891D01*
X279904Y1397533D01*
X280333Y1397476D01*
Y1400500D01*
D02*
G37*
G36*
X340500Y1404590D02*
X339571Y1404467D01*
X338705Y1404109D01*
X337962Y1403538D01*
X337391Y1402795D01*
X337033Y1401929D01*
X336910Y1401000D01*
X337033Y1400071D01*
X337391Y1399205D01*
X337962Y1398462D01*
X338705Y1397891D01*
X339571Y1397533D01*
X340500Y1397410D01*
X341429Y1397533D01*
X342295Y1397891D01*
X343038Y1398462D01*
X343609Y1399205D01*
X343967Y1400071D01*
X344090Y1401000D01*
X343967Y1401929D01*
X343609Y1402795D01*
X343038Y1403538D01*
X342295Y1404109D01*
X341429Y1404467D01*
X340500Y1404590D01*
D02*
G37*
G36*
X325667D02*
X324738Y1404467D01*
X323872Y1404109D01*
X323128Y1403538D01*
X322558Y1402795D01*
X322199Y1401929D01*
X322077Y1401000D01*
X322199Y1400071D01*
X322558Y1399205D01*
X323128Y1398462D01*
X323872Y1397891D01*
X324738Y1397533D01*
X325667Y1397410D01*
X326596Y1397533D01*
X327462Y1397891D01*
X328205Y1398462D01*
X328776Y1399205D01*
X329134Y1400071D01*
X329256Y1401000D01*
X329134Y1401929D01*
X328776Y1402795D01*
X328205Y1403538D01*
X327462Y1404109D01*
X326596Y1404467D01*
X325667Y1404590D01*
D02*
G37*
G36*
X295667D02*
X294738Y1404467D01*
X293872Y1404109D01*
X293128Y1403538D01*
X292558Y1402795D01*
X292199Y1401929D01*
X292077Y1401000D01*
X292199Y1400071D01*
X292558Y1399205D01*
X293128Y1398462D01*
X293872Y1397891D01*
X294738Y1397533D01*
X295667Y1397410D01*
X296596Y1397533D01*
X297462Y1397891D01*
X298205Y1398462D01*
X298776Y1399205D01*
X299134Y1400071D01*
X299256Y1401000D01*
X299134Y1401929D01*
X298776Y1402795D01*
X298205Y1403538D01*
X297462Y1404109D01*
X296596Y1404467D01*
X295667Y1404590D01*
D02*
G37*
G36*
X250833D02*
X249904Y1404467D01*
X249039Y1404109D01*
X248295Y1403538D01*
X247725Y1402795D01*
X247366Y1401929D01*
X247244Y1401000D01*
X247366Y1400071D01*
X247725Y1399205D01*
X248295Y1398462D01*
X249039Y1397891D01*
X249904Y1397533D01*
X250833Y1397410D01*
X251762Y1397533D01*
X252628Y1397891D01*
X253372Y1398462D01*
X253942Y1399205D01*
X254301Y1400071D01*
X254423Y1401000D01*
X254301Y1401929D01*
X253942Y1402795D01*
X253372Y1403538D01*
X252628Y1404109D01*
X251762Y1404467D01*
X250833Y1404590D01*
D02*
G37*
G36*
X289000Y1382586D02*
X287942Y1382447D01*
X286957Y1382039D01*
X286111Y1381389D01*
X285461Y1380543D01*
X285053Y1379558D01*
X284914Y1378500D01*
X285053Y1377442D01*
X285461Y1376457D01*
X286111Y1375611D01*
X286957Y1374961D01*
X287942Y1374553D01*
X289000Y1374414D01*
X290058Y1374553D01*
X291043Y1374961D01*
X291889Y1375611D01*
X292539Y1376457D01*
X292947Y1377442D01*
X293086Y1378500D01*
X292947Y1379558D01*
X292539Y1380543D01*
X291889Y1381389D01*
X291043Y1382039D01*
X290058Y1382447D01*
X289000Y1382586D01*
D02*
G37*
G36*
X379370Y1380246D02*
X378133Y1380083D01*
X376980Y1379605D01*
X375989Y1378845D01*
X375230Y1377855D01*
X374752Y1376702D01*
X374589Y1375465D01*
Y1375071D01*
X374752Y1373833D01*
X375230Y1372680D01*
X375989Y1371690D01*
X376980Y1370930D01*
X378133Y1370453D01*
X379370Y1370290D01*
X380608Y1370453D01*
X381761Y1370930D01*
X382751Y1371690D01*
X383511Y1372680D01*
X383988Y1373833D01*
X384151Y1375071D01*
Y1375465D01*
X383988Y1376702D01*
X383511Y1377855D01*
X382751Y1378845D01*
X381761Y1379605D01*
X380608Y1380083D01*
X379370Y1380246D01*
D02*
G37*
G36*
X383913Y1369614D02*
X374827D01*
Y1360921D01*
X383913D01*
Y1369614D01*
D02*
G37*
G36*
X184500Y1365086D02*
X183442Y1364947D01*
X182457Y1364539D01*
X181611Y1363889D01*
X180961Y1363043D01*
X180553Y1362058D01*
X180414Y1361000D01*
X180553Y1359942D01*
X180961Y1358957D01*
X181611Y1358111D01*
X182457Y1357461D01*
X183442Y1357053D01*
X184500Y1356914D01*
X185558Y1357053D01*
X186543Y1357461D01*
X187389Y1358111D01*
X188039Y1358957D01*
X188447Y1359942D01*
X188586Y1361000D01*
X188447Y1362058D01*
X188039Y1363043D01*
X187389Y1363889D01*
X186543Y1364539D01*
X185558Y1364947D01*
X184500Y1365086D01*
D02*
G37*
G36*
X383913Y1356114D02*
X374827D01*
Y1347421D01*
X383913D01*
Y1356114D01*
D02*
G37*
G36*
X204000Y1344464D02*
Y1341500D01*
X206964D01*
X206910Y1341914D01*
X206557Y1342765D01*
X205996Y1343496D01*
X205265Y1344057D01*
X204414Y1344410D01*
X204000Y1344464D01*
D02*
G37*
G36*
X203000D02*
X202586Y1344410D01*
X201735Y1344057D01*
X201004Y1343496D01*
X200443Y1342765D01*
X200090Y1341914D01*
X200036Y1341500D01*
X203000D01*
Y1344464D01*
D02*
G37*
G36*
X206964Y1340500D02*
X204000D01*
Y1337536D01*
X204414Y1337590D01*
X205265Y1337943D01*
X205996Y1338504D01*
X206557Y1339235D01*
X206910Y1340086D01*
X206964Y1340500D01*
D02*
G37*
G36*
X203000D02*
X200036D01*
X200090Y1340086D01*
X200443Y1339235D01*
X201004Y1338504D01*
X201735Y1337943D01*
X202586Y1337590D01*
X203000Y1337536D01*
Y1340500D01*
D02*
G37*
G36*
X286988Y1320487D02*
X277508D01*
Y1311007D01*
X286988D01*
Y1320487D01*
D02*
G37*
G36*
X332248Y1320528D02*
X331011Y1320365D01*
X329858Y1319888D01*
X328868Y1319128D01*
X328108Y1318137D01*
X327630Y1316984D01*
X327467Y1315747D01*
X327630Y1314509D01*
X328108Y1313356D01*
X328868Y1312366D01*
X329858Y1311607D01*
X331011Y1311129D01*
X332248Y1310966D01*
X333486Y1311129D01*
X334639Y1311607D01*
X335629Y1312366D01*
X336389Y1313356D01*
X336866Y1314509D01*
X337029Y1315747D01*
X336866Y1316984D01*
X336389Y1318137D01*
X335629Y1319128D01*
X334639Y1319888D01*
X333486Y1320365D01*
X332248Y1320528D01*
D02*
G37*
G36*
X307248D02*
X306011Y1320365D01*
X304858Y1319888D01*
X303868Y1319128D01*
X303108Y1318137D01*
X302630Y1316984D01*
X302467Y1315747D01*
X302630Y1314509D01*
X303108Y1313356D01*
X303868Y1312366D01*
X304858Y1311607D01*
X306011Y1311129D01*
X307248Y1310966D01*
X308486Y1311129D01*
X309639Y1311607D01*
X310629Y1312366D01*
X311389Y1313356D01*
X311866Y1314509D01*
X312029Y1315747D01*
X311866Y1316984D01*
X311389Y1318137D01*
X310629Y1319128D01*
X309639Y1319888D01*
X308486Y1320365D01*
X307248Y1320528D01*
D02*
G37*
G36*
X212248Y1303387D02*
X210754Y1303190D01*
X209361Y1302613D01*
X208166Y1301696D01*
X207248Y1300500D01*
X206671Y1299107D01*
X206474Y1297613D01*
X206671Y1296119D01*
X207248Y1294726D01*
X208166Y1293530D01*
X209361Y1292613D01*
X210754Y1292036D01*
X212248Y1291839D01*
X213743Y1292036D01*
X215135Y1292613D01*
X216331Y1293530D01*
X217249Y1294726D01*
X217825Y1296119D01*
X218022Y1297613D01*
X217825Y1299107D01*
X217249Y1300500D01*
X216331Y1301696D01*
X215135Y1302613D01*
X213743Y1303190D01*
X212248Y1303387D01*
D02*
G37*
G36*
X366000Y1302887D02*
X364506Y1302690D01*
X363113Y1302113D01*
X361918Y1301196D01*
X361164Y1300213D01*
X355722Y1299860D01*
X354366D01*
X353591Y1299758D01*
X352869Y1299459D01*
X352249Y1298983D01*
X301260Y1247994D01*
X184240D01*
X171994Y1260240D01*
Y1293567D01*
X172547Y1294119D01*
X174782D01*
X175717Y1294112D01*
X178678Y1294006D01*
X181003Y1293797D01*
X181900Y1293660D01*
X182631Y1293501D01*
X183175Y1293334D01*
X183510Y1293179D01*
X183607Y1293107D01*
X183666Y1293030D01*
X184861Y1292113D01*
X186254Y1291536D01*
X187748Y1291339D01*
X189243Y1291536D01*
X190635Y1292113D01*
X191831Y1293030D01*
X192749Y1294226D01*
X193325Y1295619D01*
X193522Y1297113D01*
X193325Y1298608D01*
X192749Y1300000D01*
X191831Y1301196D01*
X190635Y1302113D01*
X189243Y1302690D01*
X187748Y1302887D01*
X186254Y1302690D01*
X184861Y1302113D01*
X183666Y1301196D01*
X183607Y1301119D01*
X183510Y1301047D01*
X183175Y1300893D01*
X182631Y1300725D01*
X181939Y1300575D01*
X175697Y1300114D01*
X174782Y1300107D01*
X171306D01*
X170531Y1300005D01*
X170108Y1299830D01*
X169809Y1299706D01*
X169189Y1299230D01*
X166883Y1296924D01*
X166407Y1296304D01*
X166108Y1295582D01*
X166006Y1294807D01*
Y1259000D01*
X166108Y1258225D01*
X166407Y1257503D01*
X166883Y1256883D01*
X180883Y1242883D01*
X181503Y1242407D01*
X182225Y1242108D01*
X183000Y1242006D01*
X302500D01*
X303275Y1242108D01*
X303997Y1242407D01*
X304617Y1242883D01*
X355605Y1293870D01*
X357031Y1293862D01*
X360641Y1293731D01*
X361140Y1293682D01*
X361453Y1293635D01*
X361918Y1293030D01*
X363113Y1292113D01*
X364506Y1291536D01*
X366000Y1291339D01*
X367495Y1291536D01*
X368887Y1292113D01*
X370083Y1293030D01*
X371001Y1294226D01*
X371577Y1295619D01*
X371774Y1297113D01*
X371577Y1298608D01*
X371001Y1300000D01*
X370083Y1301196D01*
X368887Y1302113D01*
X367495Y1302690D01*
X366000Y1302887D01*
D02*
G37*
G36*
X253867Y1302866D02*
X240630D01*
Y1289629D01*
X253867D01*
Y1302866D01*
D02*
G37*
G36*
X379000Y1285821D02*
Y1280613D01*
X384208D01*
X384077Y1281608D01*
X383501Y1283000D01*
X382583Y1284196D01*
X381387Y1285113D01*
X379995Y1285690D01*
X379000Y1285821D01*
D02*
G37*
G36*
X378000D02*
X377006Y1285690D01*
X375613Y1285113D01*
X374418Y1284196D01*
X373500Y1283000D01*
X372923Y1281608D01*
X372792Y1280613D01*
X378000D01*
Y1285821D01*
D02*
G37*
G36*
X200748D02*
Y1280613D01*
X205956D01*
X205825Y1281608D01*
X205249Y1283000D01*
X204331Y1284196D01*
X203135Y1285113D01*
X201743Y1285690D01*
X200748Y1285821D01*
D02*
G37*
G36*
X199748D02*
X198754Y1285690D01*
X197361Y1285113D01*
X196166Y1284196D01*
X195248Y1283000D01*
X194671Y1281608D01*
X194540Y1280613D01*
X199748D01*
Y1285821D01*
D02*
G37*
G36*
X357240Y1288387D02*
X355746Y1288190D01*
X354353Y1287613D01*
X353158Y1286696D01*
X352240Y1285500D01*
X351663Y1284107D01*
X351467Y1282613D01*
X351663Y1281119D01*
X352240Y1279726D01*
X353158Y1278530D01*
X354353Y1277613D01*
X355746Y1277036D01*
X357240Y1276839D01*
X358735Y1277036D01*
X360127Y1277613D01*
X361323Y1278530D01*
X362241Y1279726D01*
X362818Y1281119D01*
X363014Y1282613D01*
X362818Y1284107D01*
X362241Y1285500D01*
X361323Y1286696D01*
X360127Y1287613D01*
X358735Y1288190D01*
X357240Y1288387D01*
D02*
G37*
G36*
X178989D02*
X177494Y1288190D01*
X176102Y1287613D01*
X174906Y1286696D01*
X173988Y1285500D01*
X173411Y1284107D01*
X173215Y1282613D01*
X173411Y1281119D01*
X173988Y1279726D01*
X174906Y1278530D01*
X176102Y1277613D01*
X177494Y1277036D01*
X178989Y1276839D01*
X180483Y1277036D01*
X181875Y1277613D01*
X183071Y1278530D01*
X183989Y1279726D01*
X184565Y1281119D01*
X184762Y1282613D01*
X184565Y1284107D01*
X183989Y1285500D01*
X183071Y1286696D01*
X181875Y1287613D01*
X180483Y1288190D01*
X178989Y1288387D01*
D02*
G37*
G36*
X384208Y1279613D02*
X379000D01*
Y1274405D01*
X379995Y1274536D01*
X381387Y1275113D01*
X382583Y1276030D01*
X383501Y1277226D01*
X384077Y1278619D01*
X384208Y1279613D01*
D02*
G37*
G36*
X378000D02*
X372792D01*
X372923Y1278619D01*
X373500Y1277226D01*
X374418Y1276030D01*
X375613Y1275113D01*
X377006Y1274536D01*
X378000Y1274405D01*
Y1279613D01*
D02*
G37*
G36*
X205956D02*
X200748D01*
Y1274405D01*
X201743Y1274536D01*
X203135Y1275113D01*
X204331Y1276030D01*
X205249Y1277226D01*
X205825Y1278619D01*
X205956Y1279613D01*
D02*
G37*
G36*
X199748D02*
X194540D01*
X194671Y1278619D01*
X195248Y1277226D01*
X196166Y1276030D01*
X197361Y1275113D01*
X198754Y1274536D01*
X199748Y1274405D01*
Y1279613D01*
D02*
G37*
G36*
X362752Y1271674D02*
X361258Y1271478D01*
X359865Y1270901D01*
X358669Y1269983D01*
X357752Y1268787D01*
X357175Y1267395D01*
X356978Y1265901D01*
X357175Y1264406D01*
X357752Y1263014D01*
X358669Y1261818D01*
X359865Y1260900D01*
X361258Y1260323D01*
X362752Y1260127D01*
X364247Y1260323D01*
X365639Y1260900D01*
X366835Y1261818D01*
X367753Y1263014D01*
X368329Y1264406D01*
X368526Y1265901D01*
X368329Y1267395D01*
X367753Y1268787D01*
X366835Y1269983D01*
X365639Y1270901D01*
X364247Y1271478D01*
X362752Y1271674D01*
D02*
G37*
G36*
X215996D02*
X214502Y1271478D01*
X213109Y1270901D01*
X211914Y1269983D01*
X210996Y1268787D01*
X210419Y1267395D01*
X210223Y1265901D01*
X210419Y1264406D01*
X210996Y1263014D01*
X211914Y1261818D01*
X213109Y1260900D01*
X214502Y1260323D01*
X215996Y1260127D01*
X217491Y1260323D01*
X218883Y1260900D01*
X220079Y1261818D01*
X220997Y1263014D01*
X221573Y1264406D01*
X221770Y1265901D01*
X221573Y1267395D01*
X220997Y1268787D01*
X220079Y1269983D01*
X218883Y1270901D01*
X217491Y1271478D01*
X215996Y1271674D01*
D02*
G37*
G36*
X184500D02*
X183006Y1271478D01*
X181613Y1270901D01*
X180418Y1269983D01*
X179500Y1268787D01*
X178923Y1267395D01*
X178726Y1265901D01*
X178923Y1264406D01*
X179500Y1263014D01*
X180418Y1261818D01*
X181613Y1260900D01*
X183006Y1260323D01*
X184500Y1260127D01*
X185995Y1260323D01*
X187387Y1260900D01*
X188583Y1261818D01*
X189500Y1263014D01*
X190077Y1264406D01*
X190274Y1265901D01*
X190077Y1267395D01*
X189500Y1268787D01*
X188583Y1269983D01*
X187387Y1270901D01*
X185995Y1271478D01*
X184500Y1271674D01*
D02*
G37*
G36*
X378500Y1266202D02*
X377006Y1266005D01*
X375613Y1265428D01*
X374418Y1264511D01*
X373500Y1263315D01*
X372923Y1261922D01*
X372726Y1260428D01*
X372923Y1258934D01*
X373500Y1257541D01*
X374418Y1256345D01*
X375613Y1255428D01*
X377006Y1254851D01*
X378500Y1254654D01*
X379995Y1254851D01*
X381387Y1255428D01*
X382583Y1256345D01*
X383501Y1257541D01*
X384077Y1258934D01*
X384274Y1260428D01*
X384077Y1261922D01*
X383501Y1263315D01*
X382583Y1264511D01*
X381387Y1265428D01*
X379995Y1266005D01*
X378500Y1266202D01*
D02*
G37*
G36*
X200248D02*
X198754Y1266005D01*
X197361Y1265428D01*
X196166Y1264511D01*
X195248Y1263315D01*
X194671Y1261922D01*
X194474Y1260428D01*
X194671Y1258934D01*
X195248Y1257541D01*
X196166Y1256345D01*
X197361Y1255428D01*
X198754Y1254851D01*
X200248Y1254654D01*
X201743Y1254851D01*
X203135Y1255428D01*
X204331Y1256345D01*
X205249Y1257541D01*
X205825Y1258934D01*
X206022Y1260428D01*
X205825Y1261922D01*
X205249Y1263315D01*
X204331Y1264511D01*
X203135Y1265428D01*
X201743Y1266005D01*
X200248Y1266202D01*
D02*
G37*
G36*
X247248Y1265897D02*
X245951Y1265770D01*
X244703Y1265391D01*
X243553Y1264777D01*
X242546Y1263950D01*
X241719Y1262942D01*
X241104Y1261792D01*
X240726Y1260544D01*
X240598Y1259247D01*
X240726Y1257950D01*
X241104Y1256702D01*
X241719Y1255552D01*
X242546Y1254544D01*
X243553Y1253717D01*
X244703Y1253103D01*
X245951Y1252724D01*
X247248Y1252596D01*
X248546Y1252724D01*
X249793Y1253103D01*
X250943Y1253717D01*
X251951Y1254544D01*
X252778Y1255552D01*
X253393Y1256702D01*
X253771Y1257950D01*
X253899Y1259247D01*
X253771Y1260544D01*
X253393Y1261792D01*
X252778Y1262942D01*
X251951Y1263950D01*
X250943Y1264777D01*
X249793Y1265391D01*
X248546Y1265770D01*
X247248Y1265897D01*
D02*
G37*
G36*
X394248Y1271674D02*
X392754Y1271478D01*
X391361Y1270901D01*
X390166Y1269983D01*
X389248Y1268787D01*
X388671Y1267395D01*
X388474Y1265901D01*
X388671Y1264406D01*
X389248Y1263014D01*
X390166Y1261818D01*
X390401Y1261637D01*
X390754Y1261257D01*
X391058Y1260790D01*
X391349Y1260172D01*
X391615Y1259404D01*
X391848Y1258489D01*
X392039Y1257452D01*
X392375Y1253394D01*
X392376Y1253313D01*
Y1252092D01*
X368905D01*
X367311Y1252131D01*
X366114Y1252233D01*
X365670Y1252299D01*
X365321Y1252372D01*
X365091Y1252441D01*
X365011Y1252477D01*
X364996Y1252496D01*
X364265Y1253057D01*
X363414Y1253410D01*
X362500Y1253530D01*
X361586Y1253410D01*
X360735Y1253057D01*
X360004Y1252496D01*
X359443Y1251765D01*
X359090Y1250914D01*
X358970Y1250000D01*
X359090Y1249086D01*
X359443Y1248235D01*
X360004Y1247504D01*
X360735Y1246943D01*
X361586Y1246590D01*
X362500Y1246470D01*
X363414Y1246590D01*
X364265Y1246943D01*
X364896Y1247427D01*
X364944Y1247461D01*
X365041Y1247504D01*
X365277Y1247572D01*
X365593Y1247636D01*
X368638Y1247845D01*
X393462D01*
X394275Y1248007D01*
X394964Y1248467D01*
X396002Y1249505D01*
X396462Y1250194D01*
X396623Y1251006D01*
Y1253559D01*
X396683Y1255018D01*
X396925Y1257609D01*
X397101Y1258679D01*
X397313Y1259618D01*
X397557Y1260413D01*
X397824Y1261060D01*
X398105Y1261557D01*
X398285Y1261782D01*
X398331Y1261818D01*
X399249Y1263014D01*
X399825Y1264406D01*
X400022Y1265901D01*
X399825Y1267395D01*
X399249Y1268787D01*
X398331Y1269983D01*
X397135Y1270901D01*
X395743Y1271478D01*
X394248Y1271674D01*
D02*
G37*
%LPD*%
G36*
X279000Y1529000D02*
X313500Y1529000D01*
X320500Y1522000D01*
X320677Y1497330D01*
X320325Y1496976D01*
X307127D01*
X305034Y1497012D01*
X304238Y1497072D01*
X304056Y1497097D01*
X303530Y1497500D01*
X302679Y1497853D01*
X301765Y1497973D01*
X300851Y1497853D01*
X300000Y1497500D01*
X299269Y1496939D01*
X298708Y1496208D01*
X298355Y1495356D01*
X298235Y1494443D01*
X298355Y1493529D01*
X298708Y1492678D01*
X299269Y1491947D01*
X300000Y1491385D01*
X300851Y1491033D01*
X301765Y1490913D01*
X302679Y1491033D01*
X303530Y1491385D01*
X303928Y1491691D01*
X308231Y1491910D01*
X320717D01*
X320750Y1487250D01*
X382000Y1426000D01*
X382000Y1399500D01*
X374181Y1399500D01*
X373903Y1399916D01*
X373967Y1400071D01*
X374090Y1401000D01*
X373967Y1401929D01*
X373609Y1402795D01*
X373038Y1403538D01*
X372295Y1404109D01*
X371429Y1404467D01*
X370500Y1404590D01*
X369571Y1404467D01*
X368705Y1404109D01*
X367962Y1403538D01*
X367391Y1402795D01*
X367033Y1401929D01*
X366910Y1401000D01*
X366941Y1400766D01*
X366467Y1400532D01*
X344059Y1422941D01*
Y1424559D01*
X342441D01*
X319750Y1447250D01*
X281000D01*
X280500Y1447500D01*
X265500Y1462500D01*
Y1472077D01*
X271741D01*
X273060Y1472019D01*
X274255Y1471889D01*
X274701Y1471807D01*
X275061Y1471715D01*
X275314Y1471624D01*
X275452Y1471553D01*
X275487Y1471525D01*
X275504Y1471504D01*
X276235Y1470943D01*
X277086Y1470590D01*
X278000Y1470470D01*
X278914Y1470590D01*
X279765Y1470943D01*
X280496Y1471504D01*
X281057Y1472235D01*
X281410Y1473086D01*
X281530Y1474000D01*
X281410Y1474914D01*
X281057Y1475765D01*
X280496Y1476496D01*
X279765Y1477057D01*
X278914Y1477410D01*
X278000Y1477530D01*
X277086Y1477410D01*
X276235Y1477057D01*
X275504Y1476496D01*
X275487Y1476475D01*
X275452Y1476447D01*
X275314Y1476376D01*
X275061Y1476285D01*
X274701Y1476193D01*
X274273Y1476115D01*
X271647Y1475923D01*
X265500D01*
Y1489917D01*
X263500Y1492000D01*
X246500D01*
X239686Y1485186D01*
X239058Y1485447D01*
X238500Y1485520D01*
Y1481500D01*
X238000D01*
Y1481000D01*
X233980D01*
X234053Y1480442D01*
X234314Y1479814D01*
X202441Y1447941D01*
Y1424559D01*
Y1423441D01*
X195484Y1416484D01*
X194984Y1416691D01*
Y1416962D01*
X194992Y1417000D01*
X194984Y1417038D01*
Y1421138D01*
X191016D01*
Y1417038D01*
X191008Y1417000D01*
X191016Y1416962D01*
Y1415988D01*
X191457D01*
X191471Y1415810D01*
Y1415000D01*
X191587Y1414415D01*
X191919Y1413919D01*
X192419Y1413419D01*
X192000Y1413000D01*
X180196Y1413000D01*
X179842Y1413354D01*
Y1417051D01*
X171740D01*
Y1413274D01*
X171425Y1413173D01*
X171000Y1413515D01*
X171000Y1433200D01*
X171377Y1433577D01*
X182000D01*
X182736Y1433724D01*
X183360Y1434140D01*
X194360Y1445140D01*
X194776Y1445764D01*
X194923Y1446500D01*
Y1446988D01*
X194984D01*
Y1447928D01*
X194991Y1447954D01*
X194987Y1447977D01*
X194992Y1448000D01*
X194984Y1448038D01*
Y1452138D01*
X191016D01*
Y1448038D01*
X191008Y1448000D01*
X191013Y1447977D01*
X191009Y1447954D01*
X191016Y1447928D01*
Y1447235D01*
X181204Y1437423D01*
X171000D01*
X171000Y1462000D01*
X196000Y1487000D01*
X196000Y1497000D01*
X228000Y1529000D01*
X279000Y1529000D01*
D02*
G37*
G36*
X303650Y1496142D02*
X303843Y1496097D01*
X304130Y1496057D01*
X304987Y1495993D01*
X308777Y1495927D01*
Y1492959D01*
X303551Y1492693D01*
Y1496193D01*
X303650Y1496142D01*
D02*
G37*
G36*
X276215Y1472250D02*
X276007Y1472414D01*
X275722Y1472561D01*
X275359Y1472691D01*
X274920Y1472803D01*
X274403Y1472898D01*
X273138Y1473036D01*
X271565Y1473106D01*
X270662Y1473114D01*
Y1474886D01*
X271565Y1474895D01*
X274403Y1475102D01*
X274920Y1475197D01*
X275359Y1475309D01*
X275722Y1475439D01*
X276007Y1475586D01*
X276215Y1475750D01*
Y1472250D01*
D02*
G37*
G36*
X256395Y1466935D02*
X256602Y1464097D01*
X256697Y1463580D01*
X256809Y1463141D01*
X256939Y1462778D01*
X257086Y1462493D01*
X257250Y1462285D01*
X253750D01*
X253914Y1462493D01*
X254061Y1462778D01*
X254191Y1463141D01*
X254303Y1463580D01*
X254398Y1464097D01*
X254536Y1465362D01*
X254606Y1466935D01*
X254614Y1467838D01*
X256386D01*
X256395Y1466935D01*
D02*
G37*
G36*
X363250Y1458285D02*
X359750D01*
X359801Y1458385D01*
X359846Y1458578D01*
X359886Y1458865D01*
X359949Y1459722D01*
X360016Y1463512D01*
X362984D01*
X363250Y1458285D01*
D02*
G37*
G36*
X193956Y1447985D02*
X193941Y1447940D01*
X193928Y1447865D01*
X193917Y1447760D01*
X193894Y1447265D01*
X193886Y1446500D01*
X192114D01*
X192113Y1446785D01*
X192044Y1447985D01*
X192028Y1448000D01*
X193972D01*
X193956Y1447985D01*
D02*
G37*
G36*
X268215Y1445250D02*
X268007Y1445414D01*
X267722Y1445561D01*
X267359Y1445691D01*
X266920Y1445803D01*
X266403Y1445898D01*
X265138Y1446036D01*
X263565Y1446105D01*
X262662Y1446114D01*
Y1447886D01*
X263565Y1447894D01*
X266403Y1448102D01*
X266920Y1448197D01*
X267359Y1448309D01*
X267722Y1448439D01*
X268007Y1448586D01*
X268215Y1448750D01*
Y1445250D01*
D02*
G37*
G36*
X276438Y1440256D02*
X276313Y1440368D01*
X276111Y1440469D01*
X275833Y1440558D01*
X275477Y1440635D01*
X275045Y1440700D01*
X273951Y1440794D01*
X272549Y1440842D01*
X271733Y1440848D01*
Y1442619D01*
X272549Y1442625D01*
X275477Y1442832D01*
X275833Y1442909D01*
X276111Y1442998D01*
X276313Y1443099D01*
X276438Y1443211D01*
Y1440256D01*
D02*
G37*
G36*
X193883Y1416985D02*
X193802Y1416940D01*
X193731Y1416865D01*
X193670Y1416760D01*
X193618Y1416625D01*
X193576Y1416460D01*
X193543Y1416265D01*
X193519Y1416040D01*
X193500Y1415500D01*
X192500D01*
X192495Y1415785D01*
X192457Y1416265D01*
X192424Y1416460D01*
X192382Y1416625D01*
X192330Y1416760D01*
X192269Y1416865D01*
X192198Y1416940D01*
X192118Y1416985D01*
X192028Y1417000D01*
X193972D01*
X193883Y1416985D01*
D02*
G37*
G36*
X204172Y1411524D02*
X205332Y1411603D01*
X205374Y1411627D01*
Y1410373D01*
X205332Y1410397D01*
X205258Y1410419D01*
X205152Y1410438D01*
X205013Y1410454D01*
X204401Y1410489D01*
X204172Y1410491D01*
Y1409209D01*
X203887Y1409454D01*
X203535Y1409674D01*
X203119Y1409867D01*
X202637Y1410035D01*
X202090Y1410177D01*
X201477Y1410293D01*
X200799Y1410384D01*
X199246Y1410487D01*
X198372Y1410500D01*
Y1411500D01*
X199246Y1411513D01*
X201477Y1411707D01*
X202090Y1411823D01*
X202637Y1411965D01*
X203119Y1412133D01*
X203535Y1412327D01*
X203887Y1412546D01*
X204172Y1412791D01*
Y1411524D01*
D02*
G37*
G36*
X208386Y1412002D02*
X208489Y1411978D01*
X208653Y1411956D01*
X209164Y1411922D01*
X211500Y1411886D01*
Y1410114D01*
X208343Y1409971D01*
Y1412029D01*
X208386Y1412002D01*
D02*
G37*
G36*
X252877Y1412619D02*
X253172Y1412465D01*
X253546Y1412329D01*
X253997Y1412212D01*
X254527Y1412112D01*
X255136Y1412031D01*
X256587Y1411922D01*
X258352Y1411886D01*
Y1410114D01*
X257431Y1410105D01*
X254527Y1409888D01*
X253997Y1409788D01*
X253546Y1409671D01*
X253172Y1409535D01*
X252877Y1409381D01*
X252661Y1409209D01*
Y1412791D01*
X252877Y1412619D01*
D02*
G37*
G36*
X265060Y1445019D02*
X266255Y1444889D01*
X266701Y1444807D01*
X267060Y1444715D01*
X267315Y1444624D01*
X267452Y1444553D01*
X267487Y1444525D01*
X267504Y1444504D01*
X268235Y1443943D01*
X269086Y1443590D01*
X270000Y1443470D01*
X270077Y1443480D01*
X270145Y1443391D01*
X270284Y1443003D01*
X266640Y1439360D01*
X266224Y1438736D01*
X266077Y1438000D01*
Y1416796D01*
X262204Y1412923D01*
X257517D01*
X256636Y1412941D01*
X255241Y1413045D01*
X254689Y1413119D01*
X254221Y1413207D01*
X253849Y1413304D01*
X253585Y1413400D01*
X253435Y1413478D01*
X253390Y1413514D01*
X253372Y1413538D01*
X252628Y1414109D01*
X251762Y1414467D01*
X250833Y1414590D01*
X249904Y1414467D01*
X249039Y1414109D01*
X248295Y1413538D01*
X247823Y1412923D01*
X246500D01*
X245764Y1412776D01*
X245140Y1412360D01*
X242640Y1409860D01*
X242224Y1409236D01*
X242077Y1408500D01*
Y1391923D01*
X175296D01*
X168923Y1398296D01*
Y1431204D01*
X169518Y1431799D01*
X169980Y1431608D01*
X169980Y1413515D01*
X169991Y1413461D01*
X169986Y1413407D01*
X170030Y1413268D01*
X170058Y1413125D01*
X170089Y1413079D01*
X170105Y1413027D01*
X170198Y1412915D01*
X170279Y1412794D01*
X170325Y1412764D01*
X170360Y1412722D01*
X170785Y1412379D01*
X170877Y1412331D01*
X170959Y1412266D01*
X171052Y1412239D01*
X171138Y1412195D01*
X171241Y1412185D01*
X171341Y1412157D01*
X171660Y1411877D01*
X171740Y1411700D01*
X171740Y1411699D01*
Y1408949D01*
X179842D01*
Y1411690D01*
X180196Y1411981D01*
X192000Y1411981D01*
X192390Y1412058D01*
X192721Y1412279D01*
X193140Y1412698D01*
X195919Y1409919D01*
X196415Y1409587D01*
X197000Y1409471D01*
X199028D01*
X199205Y1409468D01*
X200697Y1409369D01*
X201314Y1409286D01*
X201866Y1409182D01*
X202341Y1409059D01*
X202735Y1408921D01*
X203048Y1408776D01*
X203281Y1408630D01*
X203431Y1408501D01*
X203462Y1408462D01*
X204205Y1407891D01*
X205071Y1407533D01*
X206000Y1407410D01*
X206929Y1407533D01*
X207795Y1407891D01*
X208538Y1408462D01*
X208934Y1408977D01*
X211141Y1409077D01*
X211500D01*
X212236Y1409224D01*
X212860Y1409640D01*
X224360Y1421140D01*
X224776Y1421764D01*
X224923Y1422500D01*
Y1437204D01*
X232796Y1445077D01*
X263740D01*
X265060Y1445019D01*
D02*
G37*
%LPC*%
G36*
X249368Y1526122D02*
Y1523158D01*
X251204D01*
X249601Y1525048D01*
X249729Y1525045D01*
X249902Y1525099D01*
X250119Y1525212D01*
X250380Y1525383D01*
X250685Y1525611D01*
X250725Y1525645D01*
X250633Y1525715D01*
X249782Y1526068D01*
X249368Y1526122D01*
D02*
G37*
G36*
X252064Y1524088D02*
X251566Y1523518D01*
X251434Y1523296D01*
X251377Y1523158D01*
X252332D01*
X252278Y1523572D01*
X252064Y1524088D01*
D02*
G37*
G36*
X248368Y1526122D02*
X247954Y1526068D01*
X247103Y1525715D01*
X246372Y1525154D01*
X245811Y1524423D01*
X245458Y1523572D01*
X245404Y1523158D01*
X248368D01*
Y1526122D01*
D02*
G37*
G36*
X252332Y1522158D02*
X249368D01*
Y1519194D01*
X249782Y1519248D01*
X250633Y1519601D01*
X251364Y1520162D01*
X251925Y1520893D01*
X252278Y1521744D01*
X252332Y1522158D01*
D02*
G37*
G36*
X248368D02*
X245404D01*
X245458Y1521744D01*
X245811Y1520893D01*
X246372Y1520162D01*
X247103Y1519601D01*
X247954Y1519248D01*
X248368Y1519194D01*
Y1522158D01*
D02*
G37*
G36*
X273000Y1523530D02*
X272086Y1523410D01*
X271235Y1523057D01*
X270504Y1522496D01*
X269943Y1521765D01*
X269590Y1520914D01*
X269470Y1520000D01*
X269590Y1519086D01*
X269943Y1518235D01*
X270504Y1517504D01*
X270525Y1517487D01*
X270553Y1517452D01*
X270624Y1517315D01*
X270715Y1517060D01*
X270807Y1516701D01*
X270885Y1516273D01*
X271077Y1513647D01*
Y1501500D01*
X271224Y1500764D01*
X271640Y1500140D01*
X276140Y1495640D01*
X276764Y1495224D01*
X277500Y1495077D01*
X286077D01*
Y1494436D01*
X285504Y1493996D01*
X284943Y1493265D01*
X284590Y1492414D01*
X284470Y1491500D01*
X284590Y1490586D01*
X284943Y1489735D01*
X285504Y1489004D01*
X286235Y1488443D01*
X287086Y1488090D01*
X288000Y1487970D01*
X288914Y1488090D01*
X289765Y1488443D01*
X290496Y1489004D01*
X291057Y1489735D01*
X291410Y1490586D01*
X291530Y1491500D01*
X291410Y1492414D01*
X291057Y1493265D01*
X290496Y1493996D01*
X289923Y1494436D01*
Y1495962D01*
X289776Y1496698D01*
X289360Y1497322D01*
X288322Y1498360D01*
X287698Y1498776D01*
X286962Y1498923D01*
X278296D01*
X274923Y1502296D01*
Y1513741D01*
X274981Y1515060D01*
X275111Y1516255D01*
X275193Y1516701D01*
X275285Y1517060D01*
X275376Y1517315D01*
X275447Y1517452D01*
X275475Y1517487D01*
X275496Y1517504D01*
X276057Y1518235D01*
X276410Y1519086D01*
X276530Y1520000D01*
X276410Y1520914D01*
X276057Y1521765D01*
X275496Y1522496D01*
X274765Y1523057D01*
X273914Y1523410D01*
X273000Y1523530D01*
D02*
G37*
G36*
X237500Y1485520D02*
X236942Y1485447D01*
X235957Y1485039D01*
X235111Y1484389D01*
X234461Y1483543D01*
X234053Y1482558D01*
X233980Y1482000D01*
X237500D01*
Y1485520D01*
D02*
G37*
G36*
X320500Y1485086D02*
X319442Y1484947D01*
X318457Y1484539D01*
X317611Y1483889D01*
X316961Y1483043D01*
X316553Y1482058D01*
X316414Y1481000D01*
X316553Y1479942D01*
X316961Y1478957D01*
X317611Y1478111D01*
X318457Y1477461D01*
X319442Y1477053D01*
X320500Y1476914D01*
X321558Y1477053D01*
X322543Y1477461D01*
X323389Y1478111D01*
X324039Y1478957D01*
X324447Y1479942D01*
X324586Y1481000D01*
X324447Y1482058D01*
X324039Y1483043D01*
X323389Y1483889D01*
X322543Y1484539D01*
X321558Y1484947D01*
X320500Y1485086D01*
D02*
G37*
G36*
X308500Y1469464D02*
Y1466500D01*
X311464D01*
X311410Y1466914D01*
X311057Y1467765D01*
X310496Y1468496D01*
X309765Y1469057D01*
X308914Y1469410D01*
X308500Y1469464D01*
D02*
G37*
G36*
X307500D02*
X307086Y1469410D01*
X306235Y1469057D01*
X305504Y1468496D01*
X304943Y1467765D01*
X304590Y1466914D01*
X304536Y1466500D01*
X307500D01*
Y1469464D01*
D02*
G37*
G36*
X311464Y1465500D02*
X308500D01*
Y1462536D01*
X308914Y1462590D01*
X309765Y1462943D01*
X310496Y1463504D01*
X311057Y1464235D01*
X311410Y1465086D01*
X311464Y1465500D01*
D02*
G37*
G36*
X307500D02*
X304536D01*
X304590Y1465086D01*
X304943Y1464235D01*
X305504Y1463504D01*
X306235Y1462943D01*
X307086Y1462590D01*
X307500Y1462536D01*
Y1465500D01*
D02*
G37*
G36*
X175791Y1460086D02*
X174734Y1459947D01*
X173748Y1459539D01*
X172902Y1458889D01*
X172253Y1458043D01*
X171844Y1457058D01*
X171705Y1456000D01*
X171844Y1454942D01*
X172253Y1453957D01*
X172902Y1453111D01*
X173748Y1452461D01*
X174734Y1452053D01*
X175791Y1451914D01*
X176849Y1452053D01*
X177834Y1452461D01*
X178681Y1453111D01*
X178717Y1453158D01*
X178838Y1453257D01*
X179079Y1453393D01*
X179436Y1453537D01*
X179905Y1453675D01*
X180479Y1453799D01*
X181135Y1453900D01*
X183130Y1454038D01*
X183229Y1454008D01*
X183630Y1453607D01*
Y1451941D01*
X186500D01*
X189370D01*
Y1454933D01*
X189533Y1454977D01*
X189788Y1455022D01*
X190449Y1455077D01*
X190462D01*
X191016Y1455050D01*
Y1454862D01*
X191986D01*
X192024Y1454855D01*
X192062Y1454862D01*
X194984D01*
Y1460012D01*
X191016D01*
Y1459067D01*
X190853Y1459023D01*
X190598Y1458978D01*
X190002Y1458928D01*
X189714Y1458935D01*
X189370Y1458963D01*
Y1459232D01*
X188400D01*
X188362Y1459240D01*
X188358Y1459239D01*
X188355Y1459240D01*
X188317Y1459232D01*
X183630D01*
Y1458068D01*
X183467Y1458023D01*
X183212Y1457978D01*
X182901Y1457952D01*
X182799Y1457954D01*
X181144Y1458099D01*
X180479Y1458201D01*
X179905Y1458325D01*
X179436Y1458463D01*
X179079Y1458607D01*
X178838Y1458743D01*
X178717Y1458842D01*
X178681Y1458889D01*
X177834Y1459539D01*
X176849Y1459947D01*
X175791Y1460086D01*
D02*
G37*
G36*
X189370Y1450941D02*
X187000D01*
Y1448768D01*
X189370D01*
Y1450941D01*
D02*
G37*
G36*
X186000D02*
X183630D01*
Y1448768D01*
X186000D01*
Y1450941D01*
D02*
G37*
G36*
X179842Y1450051D02*
X171740D01*
Y1441949D01*
X179842D01*
Y1450051D01*
D02*
G37*
G36*
X197000Y1442086D02*
X195942Y1441947D01*
X194957Y1441539D01*
X194111Y1440889D01*
X193461Y1440043D01*
X193053Y1439058D01*
X192914Y1438000D01*
X193053Y1436942D01*
X193461Y1435957D01*
X194111Y1435111D01*
X194957Y1434461D01*
X195942Y1434053D01*
X197000Y1433914D01*
X198058Y1434053D01*
X199043Y1434461D01*
X199889Y1435111D01*
X200539Y1435957D01*
X200947Y1436942D01*
X201086Y1438000D01*
X200947Y1439058D01*
X200539Y1440043D01*
X199889Y1440889D01*
X199043Y1441539D01*
X198058Y1441947D01*
X197000Y1442086D01*
D02*
G37*
G36*
X192028Y1429019D02*
X191990Y1429012D01*
X191016D01*
Y1428511D01*
X190937Y1428496D01*
X190366Y1428452D01*
X189870Y1428732D01*
Y1428732D01*
X188900D01*
X188862Y1428740D01*
X188858Y1428739D01*
X188855Y1428740D01*
X188817Y1428732D01*
X185180D01*
X185142Y1428740D01*
X185104Y1428732D01*
X184130D01*
Y1428104D01*
X183987Y1428070D01*
X183723Y1428028D01*
X183084Y1427982D01*
X178995D01*
X178259Y1427835D01*
X177635Y1427419D01*
X177071Y1426855D01*
X176849Y1426947D01*
X175791Y1427086D01*
X174734Y1426947D01*
X173748Y1426539D01*
X172902Y1425889D01*
X172253Y1425043D01*
X171844Y1424058D01*
X171705Y1423000D01*
X171844Y1421942D01*
X172253Y1420957D01*
X172902Y1420111D01*
X173748Y1419461D01*
X174734Y1419053D01*
X175791Y1418914D01*
X176849Y1419053D01*
X177834Y1419461D01*
X178681Y1420111D01*
X179330Y1420957D01*
X179738Y1421942D01*
X179877Y1423000D01*
X179794Y1423636D01*
X180226Y1424136D01*
X183003D01*
X183375Y1424124D01*
X183711Y1424092D01*
X183987Y1424048D01*
X184130Y1424014D01*
Y1421441D01*
X187000D01*
X189870D01*
Y1424433D01*
X190033Y1424477D01*
X190288Y1424522D01*
X190526Y1424542D01*
X190603Y1424535D01*
X190882Y1424493D01*
X191016Y1424463D01*
Y1423862D01*
X191990D01*
X192028Y1423855D01*
X192066Y1423862D01*
X194984D01*
Y1429012D01*
X192066D01*
X192028Y1429019D01*
D02*
G37*
G36*
X189870Y1420441D02*
X187500D01*
Y1418268D01*
X189870D01*
Y1420441D01*
D02*
G37*
G36*
X186500D02*
X184130D01*
Y1418268D01*
X186500D01*
Y1420441D01*
D02*
G37*
G36*
X370500Y1424590D02*
X369571Y1424467D01*
X368705Y1424109D01*
X367962Y1423538D01*
X367391Y1422795D01*
X367033Y1421929D01*
X366910Y1421000D01*
X367033Y1420071D01*
X367391Y1419205D01*
X367962Y1418462D01*
X368705Y1417891D01*
X369571Y1417533D01*
X370500Y1417410D01*
X371429Y1417533D01*
X372295Y1417891D01*
X373038Y1418462D01*
X373609Y1419205D01*
X373967Y1420071D01*
X374090Y1421000D01*
X373967Y1421929D01*
X373609Y1422795D01*
X373038Y1423538D01*
X372295Y1424109D01*
X371429Y1424467D01*
X370500Y1424590D01*
D02*
G37*
G36*
X371000Y1414524D02*
Y1411500D01*
X374024D01*
X373967Y1411929D01*
X373609Y1412795D01*
X373038Y1413538D01*
X372295Y1414109D01*
X371429Y1414467D01*
X371000Y1414524D01*
D02*
G37*
G36*
X370000D02*
X369571Y1414467D01*
X368705Y1414109D01*
X367962Y1413538D01*
X367391Y1412795D01*
X367033Y1411929D01*
X366976Y1411500D01*
X370000D01*
Y1414524D01*
D02*
G37*
G36*
X374024Y1410500D02*
X371000D01*
Y1407476D01*
X371429Y1407533D01*
X372295Y1407891D01*
X373038Y1408462D01*
X373609Y1409205D01*
X373967Y1410071D01*
X374024Y1410500D01*
D02*
G37*
G36*
X370000D02*
X366976D01*
X367033Y1410071D01*
X367391Y1409205D01*
X367962Y1408462D01*
X368705Y1407891D01*
X369571Y1407533D01*
X370000Y1407476D01*
Y1410500D01*
D02*
G37*
%LPD*%
G36*
X274586Y1518007D02*
X274439Y1517721D01*
X274309Y1517359D01*
X274197Y1516920D01*
X274102Y1516403D01*
X273964Y1515138D01*
X273895Y1513565D01*
X273886Y1512662D01*
X272114D01*
X272106Y1513565D01*
X271898Y1516403D01*
X271803Y1516920D01*
X271691Y1517359D01*
X271561Y1517721D01*
X271414Y1518007D01*
X271250Y1518215D01*
X274750D01*
X274586Y1518007D01*
D02*
G37*
G36*
X192028Y1455874D02*
X192001Y1455920D01*
X191921Y1455961D01*
X191789Y1455997D01*
X191603Y1456028D01*
X191363Y1456054D01*
X190436Y1456099D01*
X189656Y1456034D01*
X189309Y1455972D01*
X189015Y1455893D01*
X188775Y1455795D01*
X188588Y1455680D01*
X188454Y1455547D01*
X188373Y1455397D01*
X188346Y1455228D01*
X188358Y1458220D01*
X188385Y1458157D01*
X188464Y1458100D01*
X188597Y1458050D01*
X188783Y1458006D01*
X189023Y1457969D01*
X189660Y1457916D01*
X190033Y1457908D01*
X190730Y1457966D01*
X191077Y1458028D01*
X191371Y1458107D01*
X191611Y1458205D01*
X191798Y1458320D01*
X191932Y1458453D01*
X192012Y1458603D01*
X192040Y1458772D01*
X192028Y1455874D01*
D02*
G37*
G36*
X178259Y1457898D02*
X178636Y1457686D01*
X179101Y1457498D01*
X179653Y1457336D01*
X180294Y1457198D01*
X181022Y1457086D01*
X182742Y1456936D01*
X182931Y1456931D01*
X183344Y1456966D01*
X183691Y1457028D01*
X183985Y1457107D01*
X184225Y1457205D01*
X184412Y1457320D01*
X184546Y1457453D01*
X184627Y1457603D01*
X184654Y1457772D01*
X184650Y1456890D01*
X184813Y1456886D01*
Y1455114D01*
X184643Y1455112D01*
X184642Y1454898D01*
X184615Y1454939D01*
X184536Y1454976D01*
X184403Y1455008D01*
X184217Y1455036D01*
X183685Y1455080D01*
X183491Y1455085D01*
X181022Y1454914D01*
X180294Y1454802D01*
X179653Y1454664D01*
X179101Y1454502D01*
X178636Y1454314D01*
X178259Y1454102D01*
X177970Y1453864D01*
Y1458136D01*
X178259Y1457898D01*
D02*
G37*
G36*
X192028Y1424874D02*
X192001Y1425015D01*
X191921Y1425141D01*
X191789Y1425252D01*
X191603Y1425348D01*
X191363Y1425429D01*
X191071Y1425496D01*
X190726Y1425548D01*
X190531Y1425566D01*
X190156Y1425534D01*
X189809Y1425472D01*
X189515Y1425393D01*
X189275Y1425295D01*
X189088Y1425180D01*
X188954Y1425047D01*
X188873Y1424897D01*
X188846Y1424728D01*
X188858Y1427720D01*
X188885Y1427657D01*
X188964Y1427600D01*
X189097Y1427550D01*
X189283Y1427506D01*
X189523Y1427469D01*
X190160Y1427416D01*
X190181Y1427415D01*
X191071Y1427484D01*
X191363Y1427539D01*
X191603Y1427607D01*
X191789Y1427687D01*
X191921Y1427779D01*
X192001Y1427883D01*
X192028Y1428000D01*
Y1424874D01*
D02*
G37*
G36*
X185142Y1424398D02*
X185115Y1424545D01*
X185036Y1424677D01*
X184903Y1424793D01*
X184717Y1424894D01*
X184477Y1424979D01*
X184185Y1425049D01*
X183840Y1425103D01*
X183441Y1425142D01*
X182484Y1425173D01*
Y1426945D01*
X182989Y1426953D01*
X183840Y1427015D01*
X184185Y1427069D01*
X184477Y1427139D01*
X184717Y1427224D01*
X184903Y1427325D01*
X185036Y1427441D01*
X185115Y1427573D01*
X185142Y1427720D01*
Y1424398D01*
D02*
G37*
%LPC*%
G36*
X254392Y1424559D02*
X247274D01*
Y1417441D01*
X254392D01*
Y1424559D01*
D02*
G37*
G36*
X236000Y1424590D02*
X235071Y1424467D01*
X234205Y1424109D01*
X233462Y1423538D01*
X232891Y1422795D01*
X232533Y1421929D01*
X232410Y1421000D01*
X232533Y1420071D01*
X232891Y1419205D01*
X233462Y1418462D01*
X234205Y1417891D01*
X235071Y1417533D01*
X236000Y1417410D01*
X236929Y1417533D01*
X237795Y1417891D01*
X238538Y1418462D01*
X239109Y1419205D01*
X239467Y1420071D01*
X239590Y1421000D01*
X239467Y1421929D01*
X239109Y1422795D01*
X238538Y1423538D01*
X237795Y1424109D01*
X236929Y1424467D01*
X236000Y1424590D01*
D02*
G37*
G36*
Y1414590D02*
X235071Y1414467D01*
X234205Y1414109D01*
X233462Y1413538D01*
X232891Y1412795D01*
X232533Y1411929D01*
X232410Y1411000D01*
X232533Y1410071D01*
X232891Y1409205D01*
X233462Y1408462D01*
X234205Y1407891D01*
X235071Y1407533D01*
X236000Y1407410D01*
X236929Y1407533D01*
X237795Y1407891D01*
X238538Y1408462D01*
X239109Y1409205D01*
X239467Y1410071D01*
X239590Y1411000D01*
X239467Y1411929D01*
X239109Y1412795D01*
X238538Y1413538D01*
X237795Y1414109D01*
X236929Y1414467D01*
X236000Y1414590D01*
D02*
G37*
G36*
X236500Y1404524D02*
Y1401500D01*
X239524D01*
X239467Y1401929D01*
X239109Y1402795D01*
X238538Y1403538D01*
X237795Y1404109D01*
X236929Y1404467D01*
X236500Y1404524D01*
D02*
G37*
G36*
X235500D02*
X235071Y1404467D01*
X234205Y1404109D01*
X233462Y1403538D01*
X232891Y1402795D01*
X232533Y1401929D01*
X232476Y1401500D01*
X235500D01*
Y1404524D01*
D02*
G37*
G36*
X239524Y1400500D02*
X236500D01*
Y1397476D01*
X236929Y1397533D01*
X237795Y1397891D01*
X238538Y1398462D01*
X239109Y1399205D01*
X239467Y1400071D01*
X239524Y1400500D01*
D02*
G37*
G36*
X235500D02*
X232476D01*
X232533Y1400071D01*
X232891Y1399205D01*
X233462Y1398462D01*
X234205Y1397891D01*
X235071Y1397533D01*
X235500Y1397476D01*
Y1400500D01*
D02*
G37*
G36*
X206000Y1404590D02*
X205071Y1404467D01*
X204205Y1404109D01*
X203462Y1403538D01*
X202891Y1402795D01*
X202533Y1401929D01*
X202410Y1401000D01*
X202533Y1400071D01*
X202891Y1399205D01*
X203462Y1398462D01*
X204205Y1397891D01*
X205071Y1397533D01*
X206000Y1397410D01*
X206929Y1397533D01*
X207795Y1397891D01*
X208538Y1398462D01*
X209109Y1399205D01*
X209467Y1400071D01*
X209590Y1401000D01*
X209467Y1401929D01*
X209109Y1402795D01*
X208538Y1403538D01*
X207795Y1404109D01*
X206929Y1404467D01*
X206000Y1404590D01*
D02*
G37*
%LPD*%
G36*
X267528Y1344441D02*
X267705Y1342768D01*
X268000Y1341291D01*
X268413Y1340012D01*
X268945Y1338929D01*
X269595Y1338043D01*
X270362Y1337354D01*
X271248Y1336862D01*
X272252Y1336567D01*
X273374Y1336469D01*
X265500Y1332532D01*
X257626Y1336469D01*
X258748Y1336567D01*
X259752Y1336862D01*
X260638Y1337354D01*
X261405Y1338043D01*
X262055Y1338929D01*
X262587Y1340012D01*
X263000Y1341291D01*
X263295Y1342768D01*
X263472Y1344441D01*
X263531Y1346311D01*
X267469D01*
X267528Y1344441D01*
D02*
G37*
G36*
X392070Y1302069D02*
X388028Y1301639D01*
X388032Y1308118D01*
X391968D01*
X392070Y1302069D01*
D02*
G37*
G36*
X401483Y1294732D02*
X401821Y1289357D01*
X401975Y1288406D01*
X402158Y1287610D01*
X402370Y1286971D01*
X402609Y1286489D01*
X402876Y1286164D01*
X396356Y1285889D01*
X396579Y1286212D01*
X396779Y1286693D01*
X396955Y1287333D01*
X397108Y1288130D01*
X397238Y1289085D01*
X397426Y1291468D01*
X397532Y1296228D01*
X401469Y1296467D01*
X401483Y1294732D01*
D02*
G37*
G36*
X251882Y1281114D02*
X252509Y1280768D01*
X253312Y1280464D01*
X254289Y1280200D01*
X255442Y1279976D01*
X256770Y1279793D01*
X259951Y1279550D01*
X263834Y1279469D01*
X263649Y1275531D01*
X261613Y1275513D01*
X255219Y1275077D01*
X254058Y1274877D01*
X253071Y1274641D01*
X252259Y1274368D01*
X251622Y1274059D01*
X251160Y1273713D01*
X251430Y1281500D01*
X251882Y1281114D01*
D02*
G37*
G36*
X362075Y1294484D02*
X361948Y1294562D01*
X361678Y1294633D01*
X361265Y1294695D01*
X360709Y1294749D01*
X357053Y1294881D01*
X354366Y1294898D01*
Y1298835D01*
X355737Y1298839D01*
X361702Y1299226D01*
X361822Y1299318D01*
X362075Y1294484D01*
D02*
G37*
G36*
X184374Y1293806D02*
X184035Y1294060D01*
X183540Y1294288D01*
X182890Y1294489D01*
X182085Y1294663D01*
X181126Y1294810D01*
X178742Y1295024D01*
X175739Y1295131D01*
X174005Y1295145D01*
Y1299082D01*
X175739Y1299095D01*
X182085Y1299564D01*
X182890Y1299737D01*
X183540Y1299938D01*
X184035Y1300166D01*
X184374Y1300420D01*
Y1293806D01*
D02*
G37*
G36*
X397257Y1262129D02*
X396906Y1261508D01*
X396596Y1260758D01*
X396327Y1259880D01*
X396100Y1258874D01*
X395914Y1257739D01*
X395665Y1255086D01*
X395603Y1253567D01*
X395583Y1251920D01*
X393417Y1251801D01*
X393394Y1253443D01*
X393051Y1257587D01*
X392844Y1258707D01*
X392592Y1259698D01*
X392294Y1260558D01*
X391951Y1261287D01*
X391561Y1261886D01*
X391126Y1262355D01*
X397650Y1262622D01*
X397257Y1262129D01*
D02*
G37*
G36*
X364478Y1251599D02*
X364733Y1251484D01*
X365070Y1251383D01*
X365491Y1251295D01*
X365996Y1251220D01*
X367255Y1251112D01*
X369768Y1251051D01*
X369738Y1248886D01*
X368817Y1248879D01*
X365457Y1248649D01*
X365034Y1248563D01*
X364694Y1248465D01*
X364437Y1248353D01*
X364263Y1248228D01*
X364307Y1251727D01*
X364478Y1251599D01*
D02*
G37*
D10*
X422874Y1236606D02*
G03*
X427016Y1240748I0J4142D01*
G01*
X151350D02*
G03*
X155492Y1236606I4142J0D01*
G01*
X427016Y1558858D02*
G03*
X422874Y1563000I-4142J0D01*
G01*
X155492Y1562992D02*
G03*
X151350Y1558850I0J-4142D01*
G01*
X427000Y1240555D02*
Y1558858D01*
X155488Y1236610D02*
X423055D01*
X151350Y1240748D02*
Y1558850D01*
X155492Y1562992D02*
X422874D01*
D11*
X197000Y1411000D02*
X206000D01*
X193000Y1415000D02*
Y1419063D01*
Y1415000D02*
X197000Y1411000D01*
D17*
X246500Y1277500D02*
X318500D01*
X225500Y1287675D02*
Y1323000D01*
X237000Y1334500D02*
X265500D01*
X225500Y1323000D02*
X237000Y1334500D01*
X265500D02*
X388500D01*
X265500Y1402500D02*
X274000Y1411000D01*
X265500Y1334500D02*
Y1402500D01*
X388500Y1334500D02*
X399500Y1323500D01*
Y1281322D02*
Y1323500D01*
X183000Y1245000D02*
X302500D01*
X169000Y1259000D02*
Y1294807D01*
Y1259000D02*
X183000Y1245000D01*
X221508Y1282613D02*
Y1283683D01*
X225500Y1287675D01*
X274000Y1411000D02*
X280833D01*
X354366Y1296866D02*
X365500D01*
X302500Y1245000D02*
X354366Y1296866D01*
X318500Y1277500D02*
X352500Y1311500D01*
X386618D02*
X390000Y1308118D01*
X352500Y1311500D02*
X386618D01*
X390000Y1297866D02*
Y1308118D01*
Y1297866D02*
X390500Y1297366D01*
X171306Y1297113D02*
X187748D01*
X169000Y1294807D02*
X171306Y1297113D01*
D22*
X187000Y1426059D02*
D03*
Y1420941D02*
D03*
X186500Y1456559D02*
D03*
Y1451441D02*
D03*
D49*
X245000Y1470500D02*
D03*
D59*
X247248Y1296247D02*
D03*
D60*
Y1277747D02*
D03*
Y1259247D02*
D03*
D61*
X250833Y1421000D02*
D03*
X340500D02*
D03*
X295667D02*
D03*
X206000D02*
D03*
D62*
X250833Y1411000D02*
D03*
Y1401000D02*
D03*
X280833D02*
D03*
Y1411000D02*
D03*
Y1421000D02*
D03*
X340500Y1411000D02*
D03*
Y1401000D02*
D03*
X370500D02*
D03*
Y1411000D02*
D03*
Y1421000D02*
D03*
X295667Y1411000D02*
D03*
Y1401000D02*
D03*
X325667D02*
D03*
Y1411000D02*
D03*
Y1421000D02*
D03*
X206000Y1411000D02*
D03*
Y1401000D02*
D03*
X236000D02*
D03*
Y1411000D02*
D03*
Y1421000D02*
D03*
D67*
X167000Y1432000D02*
X170500Y1435500D01*
X182000D02*
X193000Y1446500D01*
X170500Y1435500D02*
X182000D01*
X167000Y1397500D02*
Y1432000D01*
Y1397500D02*
X174500Y1390000D01*
X186941Y1457000D02*
X192902D01*
X193000Y1457098D02*
Y1457437D01*
X192902Y1457000D02*
X193000Y1457098D01*
X185941Y1456000D02*
X186941Y1457000D01*
X250833Y1411000D02*
X263000D01*
X268000Y1416000D02*
Y1438000D01*
X263000Y1411000D02*
X268000Y1416000D01*
Y1438000D02*
X271733Y1441733D01*
X278455D01*
X248526Y1523000D02*
X249500D01*
X301500Y1524000D02*
X310648Y1514852D01*
Y1503148D02*
Y1514852D01*
X211500Y1411000D02*
X223000Y1422500D01*
Y1438000D02*
X232000Y1447000D01*
X223000Y1422500D02*
Y1438000D01*
X206000Y1411000D02*
X211500D01*
X232000Y1447000D02*
X270000D01*
X255500Y1468500D02*
X261000Y1474000D01*
X278000D01*
X255500Y1460500D02*
Y1468500D01*
X248526Y1523000D02*
X248868Y1522658D01*
X253500Y1527000D02*
X286000D01*
X249500Y1523000D02*
X253500Y1527000D01*
X289000Y1524000D02*
X301500D01*
X286000Y1527000D02*
X289000Y1524000D01*
X273000Y1501500D02*
X277500Y1497000D01*
X273000Y1501500D02*
Y1520000D01*
X288000Y1491500D02*
Y1495962D01*
X286962Y1497000D02*
X288000Y1495962D01*
X277500Y1497000D02*
X286962D01*
X193000Y1446500D02*
Y1449563D01*
X246500Y1411000D02*
X250833D01*
X244000Y1408500D02*
X246500Y1411000D01*
X174500Y1390000D02*
X242962D01*
X244000Y1391038D01*
Y1408500D01*
X187000Y1426059D02*
X187441Y1426500D01*
X192937D02*
X193000Y1426437D01*
X187441Y1426500D02*
X192937D01*
X175791Y1423000D02*
X175935D01*
X178995Y1426059D01*
X187000D01*
X175791Y1456000D02*
X185941D01*
D68*
X362500Y1250000D02*
X362531Y1249969D01*
X394248Y1265901D02*
X394500Y1265649D01*
X362531Y1249969D02*
X393462D01*
X394500Y1251006D01*
Y1265649D01*
D73*
X361500Y1456500D02*
Y1485000D01*
X301765Y1494443D02*
X352057D01*
X361500Y1485000D01*
D74*
X197000Y1438000D02*
D03*
X211000D02*
D03*
X238000Y1481500D02*
D03*
X320500Y1481000D02*
D03*
X289000Y1378500D02*
D03*
X184500Y1361000D02*
D03*
X175791Y1423000D02*
D03*
Y1456000D02*
D03*
D75*
X215996Y1265901D02*
D03*
X200248Y1260428D02*
D03*
X184500Y1265901D02*
D03*
X221508Y1282613D02*
D03*
X178989D02*
D03*
X187748Y1297113D02*
D03*
X200248Y1280113D02*
D03*
X212248Y1297613D02*
D03*
X394248Y1265901D02*
D03*
X378500Y1260428D02*
D03*
X362752Y1265901D02*
D03*
X399760Y1282613D02*
D03*
X357240D02*
D03*
X366000Y1297113D02*
D03*
X378500Y1280113D02*
D03*
X390500Y1297613D02*
D03*
D76*
X379370Y1351768D02*
D03*
Y1365268D02*
D03*
D77*
Y1341768D02*
D03*
Y1375268D02*
D03*
D78*
X175791Y1413000D02*
D03*
Y1446000D02*
D03*
D79*
X306000Y1549500D02*
D03*
X316000D02*
D03*
X326000D02*
D03*
X336000D02*
D03*
X346000D02*
D03*
D80*
X356000D02*
D03*
D81*
X217500Y1544000D02*
D03*
X207500D02*
D03*
D82*
X282248Y1315747D02*
D03*
D83*
X332248D02*
D03*
X307248D02*
D03*
D84*
X267201Y1542614D02*
D03*
X282949D02*
D03*
D85*
X261000Y1537417D02*
D03*
Y1551000D02*
D03*
X289150Y1537417D02*
D03*
Y1551000D02*
D03*
D86*
X417323Y1291339D02*
D03*
X409449Y1275590D02*
D03*
X417323Y1259842D02*
D03*
X393701Y1275590D02*
D03*
X401575Y1259842D02*
D03*
X370079Y1354331D02*
D03*
Y1259842D02*
D03*
X354331D02*
D03*
X338583Y1354331D02*
D03*
Y1322834D02*
D03*
Y1259842D02*
D03*
X314961Y1401575D02*
D03*
X322835Y1291339D02*
D03*
X307087Y1259842D02*
D03*
X291338D02*
D03*
X275590Y1385827D02*
D03*
Y1259842D02*
D03*
X259842Y1385827D02*
D03*
X251969Y1370079D02*
D03*
X259842Y1322834D02*
D03*
X236220Y1370079D02*
D03*
X244094Y1354331D02*
D03*
X228346Y1259842D02*
D03*
X212598Y1322834D02*
D03*
X188976Y1338583D02*
D03*
X196850Y1322834D02*
D03*
X188976Y1307086D02*
D03*
X196850Y1291339D02*
D03*
X188976Y1275590D02*
D03*
X173228Y1370079D02*
D03*
Y1338583D02*
D03*
X181102Y1322834D02*
D03*
X173228Y1307086D02*
D03*
Y1244094D02*
D03*
X157480Y1401575D02*
D03*
X165354Y1385827D02*
D03*
X157480Y1370079D02*
D03*
X165354Y1354331D02*
D03*
X157480Y1338583D02*
D03*
X165354Y1322834D02*
D03*
X157480Y1307086D02*
D03*
Y1275590D02*
D03*
Y1244094D02*
D03*
X256048Y1362969D02*
D03*
X295527Y1324963D02*
D03*
X300691Y1318915D02*
D03*
X301706Y1311027D02*
D03*
X284537Y1342945D02*
D03*
Y1350898D02*
D03*
X272303Y1367363D02*
D03*
X285765Y1286969D02*
D03*
X314235Y1286469D02*
D03*
X273468Y1298265D02*
D03*
X268382Y1285388D02*
D03*
X280500Y1292500D02*
D03*
X296500Y1286500D02*
D03*
X306539Y1286469D02*
D03*
X310203Y1271963D02*
D03*
X302250D02*
D03*
X294297D02*
D03*
X318155D02*
D03*
X320272Y1366103D02*
D03*
X316963Y1350919D02*
D03*
Y1342966D02*
D03*
Y1327061D02*
D03*
Y1319108D02*
D03*
Y1311155D02*
D03*
X311334Y1305537D02*
D03*
X303381D02*
D03*
X295428D02*
D03*
X287805Y1307802D02*
D03*
X289519Y1315568D02*
D03*
X286545Y1322944D02*
D03*
X278593Y1323017D02*
D03*
X274978Y1315934D02*
D03*
X276653Y1308159D02*
D03*
X292811Y1294463D02*
D03*
X300764D02*
D03*
X308717D02*
D03*
X316670D02*
D03*
X323963Y1297633D02*
D03*
X328037Y1344227D02*
D03*
Y1352179D02*
D03*
X329772Y1359941D02*
D03*
X335395Y1365564D02*
D03*
X341019Y1371188D02*
D03*
X391026Y1373340D02*
D03*
Y1365387D02*
D03*
Y1357434D02*
D03*
X398724Y1333286D02*
D03*
X388467Y1346971D02*
D03*
X355212Y1379020D02*
D03*
X351447Y1372015D02*
D03*
X347720Y1364989D02*
D03*
X347709Y1357036D02*
D03*
X366420Y1361832D02*
D03*
X365489Y1369730D02*
D03*
X396628Y1396537D02*
D03*
X327862Y1388193D02*
D03*
X321082Y1384037D02*
D03*
X313129D02*
D03*
X305176D02*
D03*
X297224D02*
D03*
X289339Y1385077D02*
D03*
X282757Y1380614D02*
D03*
X283430Y1372690D02*
D03*
X283463Y1364737D02*
D03*
X314452Y1359475D02*
D03*
X312357Y1367147D02*
D03*
X304411Y1367483D02*
D03*
X298647Y1372963D02*
D03*
X306600D02*
D03*
X314553D02*
D03*
X322506D02*
D03*
X397740Y1385463D02*
D03*
X405490Y1383679D02*
D03*
X405963Y1375741D02*
D03*
Y1367788D02*
D03*
Y1359835D02*
D03*
Y1351882D02*
D03*
Y1343930D02*
D03*
Y1335977D02*
D03*
Y1328024D02*
D03*
X392253Y1322537D02*
D03*
X384300D02*
D03*
X376348D02*
D03*
X368395D02*
D03*
X360469Y1321887D02*
D03*
X353000Y1321500D02*
D03*
X349292Y1280344D02*
D03*
X354882Y1274688D02*
D03*
X362656Y1276364D02*
D03*
X365407Y1283826D02*
D03*
X360595Y1290158D02*
D03*
X405714Y1309213D02*
D03*
X410689Y1316093D02*
D03*
X416182Y1321844D02*
D03*
X417037Y1329751D02*
D03*
Y1337703D02*
D03*
Y1345656D02*
D03*
Y1353609D02*
D03*
Y1361562D02*
D03*
Y1369514D02*
D03*
Y1377467D02*
D03*
Y1385420D02*
D03*
X412727Y1392103D02*
D03*
X406115Y1396522D02*
D03*
X205428Y1302284D02*
D03*
X204658Y1294369D02*
D03*
X210917Y1289463D02*
D03*
X234571Y1291549D02*
D03*
X237226Y1302648D02*
D03*
X213942Y1305716D02*
D03*
X349069Y1315810D02*
D03*
X343401Y1310232D02*
D03*
X337777Y1304608D02*
D03*
X251368Y1285943D02*
D03*
X243416Y1286062D02*
D03*
X238345Y1279936D02*
D03*
X240005Y1272159D02*
D03*
X254556Y1271366D02*
D03*
X270439Y1271963D02*
D03*
X278392D02*
D03*
X286344D02*
D03*
X324941Y1276110D02*
D03*
X330564Y1281734D02*
D03*
X336188Y1287357D02*
D03*
X341811Y1292980D02*
D03*
X360819Y1305963D02*
D03*
X368772D02*
D03*
X376725D02*
D03*
X384463Y1304126D02*
D03*
X382325Y1296466D02*
D03*
X387083Y1290094D02*
D03*
X177975Y1360140D02*
D03*
X183567Y1354485D02*
D03*
X191459Y1355463D02*
D03*
X223107Y1355406D02*
D03*
X228963Y1350025D02*
D03*
Y1342072D02*
D03*
X236809Y1320860D02*
D03*
X242433Y1315236D02*
D03*
X248056Y1309613D02*
D03*
X256463Y1296540D02*
D03*
Y1288587D02*
D03*
X254356Y1265013D02*
D03*
X247167Y1268414D02*
D03*
X240041Y1264882D02*
D03*
X238329Y1257116D02*
D03*
X265838Y1257313D02*
D03*
X267537Y1265082D02*
D03*
X262319Y1311012D02*
D03*
X256696Y1316635D02*
D03*
X251072Y1322258D02*
D03*
X245449Y1327882D02*
D03*
X240037Y1341662D02*
D03*
Y1349615D02*
D03*
X238022Y1357308D02*
D03*
X232399Y1362932D02*
D03*
X225310Y1366537D02*
D03*
X217414Y1367483D02*
D03*
X209461D02*
D03*
X201588Y1366366D02*
D03*
X193635Y1366381D02*
D03*
X185757Y1367473D02*
D03*
X310648Y1503148D02*
D03*
X278455Y1441733D02*
D03*
X270000Y1447000D02*
D03*
X278000Y1474000D02*
D03*
X301765Y1494443D02*
D03*
X255500Y1460500D02*
D03*
X308000Y1466000D02*
D03*
X248868Y1522658D02*
D03*
X273000Y1520000D02*
D03*
X288000Y1491500D02*
D03*
X336000Y1523000D02*
D03*
X361500Y1456500D02*
D03*
X203500Y1341000D02*
D03*
X362500Y1250000D02*
D03*
D87*
X193000Y1426437D02*
D03*
Y1418563D02*
D03*
Y1457437D02*
D03*
Y1449563D02*
D03*
M02*
