G04*
G04 #@! TF.GenerationSoftware,Altium Limited,Altium Designer,20.0.10 (225)*
G04*
G04 Layer_Color=16711935*
%FSLAX25Y25*%
%MOIN*%
G70*
G01*
G75*
%ADD10C,0.00787*%
%ADD14C,0.00197*%
%ADD89C,0.00394*%
%ADD90C,0.00100*%
%ADD91C,0.00300*%
D10*
X218500Y1532582D02*
Y1537000D01*
X206500D02*
X218500D01*
X206500Y1532582D02*
Y1537000D01*
X202499Y1532582D02*
Y1555416D01*
X222499D01*
Y1532582D02*
Y1555416D01*
X202499Y1532582D02*
X222499D01*
X305803Y1328953D02*
Y1373047D01*
Y1328953D02*
X356197D01*
Y1373047D01*
X305803D02*
X356197D01*
X214303Y1328953D02*
Y1373047D01*
Y1328953D02*
X264697D01*
Y1373047D01*
X214303D02*
X264697D01*
X422874Y1236606D02*
G03*
X427016Y1240748I0J4142D01*
G01*
X151350D02*
G03*
X155492Y1236606I4142J0D01*
G01*
X427016Y1558858D02*
G03*
X422874Y1563000I-4142J0D01*
G01*
X155492Y1562992D02*
G03*
X151350Y1558850I0J-4142D01*
G01*
X427000Y1240555D02*
Y1558858D01*
X155488Y1236610D02*
X423055D01*
X151350Y1240748D02*
Y1558850D01*
X155492Y1562992D02*
X422874D01*
D14*
X273000Y1512000D02*
Y1515000D01*
X266900D02*
X273000D01*
X266900Y1512000D02*
Y1515000D01*
Y1512000D02*
X273000D01*
Y1523500D02*
Y1526500D01*
X266900D02*
X273000D01*
X266900Y1523500D02*
Y1526500D01*
Y1523500D02*
X273000D01*
X283097Y1519743D02*
X286097D01*
X283097Y1513643D02*
Y1519743D01*
Y1513643D02*
X286097D01*
Y1519743D01*
D89*
X202000Y1438000D02*
G03*
X202000Y1438000I-5000J0D01*
G01*
X216000D02*
G03*
X216000Y1438000I-5000J0D01*
G01*
X243000Y1481500D02*
G03*
X243000Y1481500I-5000J0D01*
G01*
X325500Y1481000D02*
G03*
X325500Y1481000I-5000J0D01*
G01*
X294000Y1378500D02*
G03*
X294000Y1378500I-5000J0D01*
G01*
X189500Y1361000D02*
G03*
X189500Y1361000I-5000J0D01*
G01*
X187297Y1418000D02*
G03*
X187297Y1418000I-11506J0D01*
G01*
Y1451000D02*
G03*
X187297Y1451000I-11506J0D01*
G01*
X334130Y1529555D02*
Y1536445D01*
X337870Y1529555D02*
Y1536445D01*
X334130Y1529555D02*
X337870D01*
X334130Y1536445D02*
X337870D01*
X299326Y1511397D02*
Y1518089D01*
X302869Y1511397D02*
Y1518089D01*
X299326Y1511397D02*
X302869D01*
X299326Y1518089D02*
X302869D01*
X391370Y1335764D02*
Y1342653D01*
X387630Y1335764D02*
Y1342653D01*
X391370D01*
X387630Y1335764D02*
X391370D01*
X269748Y1240511D02*
Y1318503D01*
X344748D01*
X269748Y1240511D02*
X344748D01*
Y1318503D01*
X185130Y1426945D02*
X188870D01*
X185130Y1420055D02*
X188870D01*
X185130D02*
Y1426945D01*
X188870Y1420055D02*
Y1426945D01*
X191425Y1424862D02*
X194575D01*
X191425Y1420138D02*
Y1424862D01*
X194575Y1420138D02*
Y1424862D01*
X191425Y1420138D02*
X194575D01*
X191425Y1455862D02*
X194575D01*
X191425Y1451138D02*
Y1455862D01*
X194575Y1451138D02*
Y1455862D01*
X191425Y1451138D02*
X194575D01*
X184630Y1457445D02*
X188370D01*
X184630Y1450555D02*
X188370D01*
X184630D02*
Y1457445D01*
X188370Y1450555D02*
Y1457445D01*
X294772Y1497153D02*
Y1503846D01*
X291228Y1497153D02*
Y1503846D01*
X294772D01*
X291228Y1497153D02*
X294772D01*
X238033Y1498993D02*
X244726D01*
X238033Y1495449D02*
X244726D01*
X238033D02*
Y1498993D01*
X244726Y1495449D02*
Y1498993D01*
X238033Y1492764D02*
X244726D01*
X238033Y1489221D02*
X244726D01*
X238033D02*
Y1492764D01*
X244726Y1489221D02*
Y1492764D01*
X250654Y1481728D02*
X257347D01*
X250654Y1485272D02*
X257347D01*
Y1481728D02*
Y1485272D01*
X250654Y1481728D02*
Y1485272D01*
X237075Y1522350D02*
Y1528650D01*
X233925D02*
X237075D01*
X233925Y1522350D02*
Y1528650D01*
Y1522350D02*
X237075D01*
X240228Y1522153D02*
Y1528846D01*
X243772Y1522153D02*
Y1528846D01*
X240228Y1522153D02*
X243772D01*
X240228Y1528846D02*
X243772D01*
X197130Y1355043D02*
X200870D01*
X197130Y1361933D02*
X200870D01*
X197130Y1355043D02*
Y1361933D01*
X200870Y1355043D02*
Y1361933D01*
X287130Y1355043D02*
X290870D01*
X287130Y1361933D02*
X290870D01*
X287130Y1355043D02*
Y1361933D01*
X290870Y1355043D02*
Y1361933D01*
X294130Y1431055D02*
X297870D01*
X294130Y1437945D02*
X297870D01*
X294130Y1431055D02*
Y1437945D01*
X297870Y1431055D02*
Y1437945D01*
X338630Y1438445D02*
X342370D01*
X338630Y1431555D02*
X342370D01*
Y1438445D01*
X338630Y1431555D02*
Y1438445D01*
X382630Y1410555D02*
X386370D01*
X382630Y1417445D02*
X386370D01*
X382630Y1410555D02*
Y1417445D01*
X386370Y1410555D02*
Y1417445D01*
D90*
X289341Y1512700D02*
X294853D01*
X289341D02*
Y1519786D01*
X294853D01*
Y1512700D02*
Y1519786D01*
X293475Y1512700D02*
X294853Y1514078D01*
X289341D02*
X290719Y1512700D01*
X291408Y1519786D02*
Y1521558D01*
X292786D01*
Y1519786D02*
Y1521558D01*
X291408Y1519786D02*
X292786D01*
Y1510928D02*
Y1512700D01*
X291408Y1510928D02*
X292786D01*
X291408D02*
Y1512700D01*
X292786D01*
X257724Y1489164D02*
Y1492364D01*
X251424Y1489164D02*
X257724D01*
X251424D02*
Y1492364D01*
X257724D01*
X251424Y1489364D02*
Y1492164D01*
Y1489364D02*
Y1492164D01*
X257724Y1489364D02*
Y1492164D01*
Y1489364D02*
Y1492164D01*
Y1495393D02*
Y1498592D01*
X251424Y1495393D02*
X257724D01*
X251424D02*
Y1498592D01*
X257724D01*
X251424Y1495592D02*
Y1498392D01*
Y1495592D02*
Y1498392D01*
X257724Y1495592D02*
Y1498392D01*
Y1495592D02*
Y1498392D01*
X259000Y1532078D02*
X290700D01*
X259000D02*
Y1554178D01*
X290700D01*
D91*
X290432Y1512450D02*
X293764Y1515782D01*
Y1512450D02*
X290432Y1515782D01*
X292098Y1512450D02*
Y1515782D01*
X293764Y1514116D02*
X290432D01*
M02*
