G04*
G04 #@! TF.GenerationSoftware,Altium Limited,Altium Designer,20.0.10 (225)*
G04*
G04 Layer_Color=16711935*
%FSLAX25Y25*%
%MOIN*%
G70*
G01*
G75*
%ADD10C,0.00787*%
%ADD38R,0.04540X0.04147*%
%ADD48C,0.06902*%
%ADD49C,0.02953*%
%ADD50C,0.10249*%
%ADD51R,0.07887X0.07493*%
%ADD52O,0.08280X0.08674*%
%ADD53R,0.06902X0.06902*%
%ADD54C,0.06706*%
%ADD55R,0.06706X0.06706*%
%ADD56O,0.08674X0.12611*%
%ADD57R,0.08280X0.08280*%
%ADD58C,0.08280*%
%ADD59R,0.11237X0.11237*%
%ADD60C,0.11237*%
%ADD61R,0.05118X0.05118*%
%ADD62C,0.05118*%
%ADD63C,0.03359*%
G04:AMPARAMS|DCode=64|XSize=49.34mil|YSize=80.83mil|CornerRadius=14.34mil|HoleSize=0mil|Usage=FLASHONLY|Rotation=180.000|XOffset=0mil|YOffset=0mil|HoleType=Round|Shape=RoundedRectangle|*
%AMROUNDEDRECTD64*
21,1,0.04934,0.05217,0,0,180.0*
21,1,0.02067,0.08083,0,0,180.0*
1,1,0.02867,-0.01034,0.02608*
1,1,0.02867,0.01034,0.02608*
1,1,0.02867,0.01034,-0.02608*
1,1,0.02867,-0.01034,-0.02608*
%
%ADD64ROUNDEDRECTD64*%
%ADD65C,0.05800*%
%ADD88R,0.02769X0.03950*%
D10*
X422874Y1236606D02*
G03*
X427016Y1240748I0J4142D01*
G01*
X151350D02*
G03*
X155492Y1236606I4142J0D01*
G01*
X427016Y1558858D02*
G03*
X422874Y1563000I-4142J0D01*
G01*
X155492Y1562992D02*
G03*
X151350Y1558850I0J-4142D01*
G01*
X427000Y1240555D02*
Y1558858D01*
X155488Y1236610D02*
X423055D01*
X151350Y1240748D02*
Y1558850D01*
X155492Y1562992D02*
X422874D01*
D38*
X187000Y1426059D02*
D03*
Y1420941D02*
D03*
X186500Y1456559D02*
D03*
Y1451441D02*
D03*
D48*
X197000Y1438000D02*
D03*
X211000D02*
D03*
X238000Y1481500D02*
D03*
X320500Y1481000D02*
D03*
X289000Y1378500D02*
D03*
X184500Y1361000D02*
D03*
X175791Y1423000D02*
D03*
Y1456000D02*
D03*
D49*
X245000Y1470500D02*
D03*
D50*
X215996Y1265901D02*
D03*
X200248Y1260428D02*
D03*
X184500Y1265901D02*
D03*
X221508Y1282613D02*
D03*
X178989D02*
D03*
X187748Y1297113D02*
D03*
X200248Y1280113D02*
D03*
X212248Y1297613D02*
D03*
X394248Y1265901D02*
D03*
X378500Y1260428D02*
D03*
X362752Y1265901D02*
D03*
X399760Y1282613D02*
D03*
X357240D02*
D03*
X366000Y1297113D02*
D03*
X378500Y1280113D02*
D03*
X390500Y1297613D02*
D03*
D51*
X379370Y1351768D02*
D03*
Y1365268D02*
D03*
D52*
Y1341768D02*
D03*
Y1375268D02*
D03*
D53*
X175791Y1413000D02*
D03*
Y1446000D02*
D03*
D54*
X306000Y1549500D02*
D03*
X316000D02*
D03*
X326000D02*
D03*
X336000D02*
D03*
X346000D02*
D03*
D55*
X356000D02*
D03*
D56*
X217500Y1544000D02*
D03*
X207500D02*
D03*
D57*
X282248Y1315747D02*
D03*
D58*
X332248D02*
D03*
X307248D02*
D03*
D59*
X247248Y1296247D02*
D03*
D60*
Y1277747D02*
D03*
Y1259247D02*
D03*
D61*
X250833Y1421000D02*
D03*
X340500D02*
D03*
X295667D02*
D03*
X206000D02*
D03*
D62*
X250833Y1411000D02*
D03*
Y1401000D02*
D03*
X280833D02*
D03*
Y1411000D02*
D03*
Y1421000D02*
D03*
X340500Y1411000D02*
D03*
Y1401000D02*
D03*
X370500D02*
D03*
Y1411000D02*
D03*
Y1421000D02*
D03*
X295667Y1411000D02*
D03*
Y1401000D02*
D03*
X325667D02*
D03*
Y1411000D02*
D03*
Y1421000D02*
D03*
X206000Y1411000D02*
D03*
Y1401000D02*
D03*
X236000D02*
D03*
Y1411000D02*
D03*
Y1421000D02*
D03*
D63*
X267201Y1542614D02*
D03*
X282949D02*
D03*
D64*
X261000Y1537417D02*
D03*
Y1551000D02*
D03*
X289150Y1537417D02*
D03*
Y1551000D02*
D03*
D65*
X310648Y1503148D02*
D03*
X278455Y1441733D02*
D03*
X270000Y1447000D02*
D03*
X278000Y1474000D02*
D03*
X301765Y1494443D02*
D03*
X255500Y1460500D02*
D03*
X308000Y1466000D02*
D03*
X248868Y1522658D02*
D03*
X273000Y1520000D02*
D03*
X288000Y1491500D02*
D03*
X336000Y1523000D02*
D03*
X361500Y1456500D02*
D03*
X203500Y1341000D02*
D03*
X362500Y1250000D02*
D03*
D88*
X193000Y1426437D02*
D03*
Y1418563D02*
D03*
Y1457437D02*
D03*
Y1449563D02*
D03*
M02*
