G04*
G04 #@! TF.GenerationSoftware,Altium Limited,Altium Designer,20.0.10 (225)*
G04*
G04 Layer_Color=32768*
%FSLAX25Y25*%
%MOIN*%
G70*
G01*
G75*
%ADD10C,0.01000*%
%ADD11C,0.00787*%
%ADD14C,0.00197*%
%ADD15C,0.00600*%
%ADD89C,0.00394*%
G36*
X258724Y1493164D02*
X260124D01*
Y1488364D01*
X258724D01*
Y1488164D01*
X250424D01*
Y1488364D01*
X249024D01*
Y1493164D01*
X250424D01*
Y1493364D01*
X258724D01*
Y1493164D01*
D02*
G37*
G36*
Y1499393D02*
X260124D01*
Y1494592D01*
X258724D01*
Y1494392D01*
X250424D01*
Y1494592D01*
X249024D01*
Y1499393D01*
X250424D01*
Y1499592D01*
X258724D01*
Y1499393D01*
D02*
G37*
G36*
X293886Y1511700D02*
Y1508528D01*
X290308D01*
Y1511700D01*
X288341D01*
Y1520786D01*
X290308D01*
Y1523958D01*
X293886D01*
Y1520786D01*
X295853D01*
Y1511700D01*
X293886D01*
D02*
G37*
G36*
X258000Y1530921D02*
X291700D01*
Y1558678D01*
X258000D01*
Y1530921D01*
D02*
G37*
D10*
X234819Y1279929D02*
G03*
X234819Y1279929I-41339J0D01*
G01*
X422590D02*
G03*
X422590Y1279929I-41339J0D01*
G01*
D11*
X199500Y1530000D02*
Y1558000D01*
X225500D01*
Y1540000D02*
Y1558000D01*
Y1530000D02*
Y1540000D01*
X208500Y1530000D02*
X225500D01*
X199500D02*
X208500D01*
X210500Y1544000D02*
X214500D01*
X212500Y1542000D02*
Y1546000D01*
X247881Y1426000D02*
X283786D01*
Y1396000D02*
Y1426000D01*
X247881Y1396000D02*
X283786D01*
X247881D02*
Y1426000D01*
X337547D02*
X373453D01*
Y1396000D02*
Y1426000D01*
X337547Y1396000D02*
X373453D01*
X337547D02*
Y1426000D01*
X292714D02*
X328619D01*
Y1396000D02*
Y1426000D01*
X292714Y1396000D02*
X328619D01*
X292714D02*
Y1426000D01*
X297535Y1328559D02*
Y1373441D01*
Y1328559D02*
X364465D01*
Y1373441D01*
X297535D02*
X364465D01*
X206035Y1328559D02*
Y1373441D01*
Y1328559D02*
X272965D01*
Y1373441D01*
X206035D02*
X272965D01*
X203047Y1426000D02*
X238953D01*
Y1396000D02*
Y1426000D01*
X203047Y1396000D02*
X238953D01*
X203047D02*
Y1426000D01*
X421228Y1236606D02*
G03*
X425370Y1240748I0J4142D01*
G01*
X151350D02*
G03*
X155492Y1236606I4142J0D01*
G01*
X425370Y1558858D02*
G03*
X421228Y1563000I-4142J0D01*
G01*
X155492Y1562992D02*
G03*
X151350Y1558850I0J-4142D01*
G01*
X425354Y1240555D02*
Y1558858D01*
X155488Y1236610D02*
X421228D01*
X151350Y1240748D02*
Y1558850D01*
X155492Y1562992D02*
X421228D01*
D14*
X202394Y1438000D02*
G03*
X202394Y1438000I-5394J0D01*
G01*
X216394D02*
G03*
X216394Y1438000I-5394J0D01*
G01*
X243394Y1481500D02*
G03*
X243394Y1481500I-5394J0D01*
G01*
X325894Y1481000D02*
G03*
X325894Y1481000I-5394J0D01*
G01*
X294394Y1378500D02*
G03*
X294394Y1378500I-5394J0D01*
G01*
X189894Y1361000D02*
G03*
X189894Y1361000I-5394J0D01*
G01*
X187691Y1418000D02*
G03*
X187691Y1418000I-11900J0D01*
G01*
Y1451000D02*
G03*
X187691Y1451000I-11900J0D01*
G01*
X333047Y1527685D02*
Y1538315D01*
X338953Y1527685D02*
Y1538315D01*
X333047Y1527685D02*
X338953D01*
X333047Y1538315D02*
X338953D01*
X270000Y1513300D02*
Y1513700D01*
X269800Y1513500D02*
X270200D01*
X270000Y1524800D02*
Y1525200D01*
X269800Y1525000D02*
X270200D01*
X284397Y1516743D02*
X284797D01*
X284597Y1516543D02*
Y1516943D01*
X296963Y1508050D02*
Y1521436D01*
X305231Y1508050D02*
Y1521436D01*
X296963Y1508050D02*
X305231D01*
X296963Y1521436D02*
X305231D01*
X392453Y1333894D02*
Y1344524D01*
X386547Y1333894D02*
Y1344524D01*
X392453D01*
X386547Y1333894D02*
X392453D01*
X345142Y1240117D02*
Y1319881D01*
X269355Y1240117D02*
X345142D01*
X269355Y1319881D02*
X345142D01*
X269355Y1240117D02*
Y1319881D01*
X184047Y1428815D02*
X189953D01*
X184047Y1418185D02*
X189953D01*
X184047D02*
Y1428815D01*
X189953Y1418185D02*
Y1428815D01*
X191032Y1416595D02*
X194968D01*
X191032Y1428405D02*
X194968D01*
Y1416595D02*
Y1428405D01*
X191032Y1416595D02*
Y1428405D01*
Y1447595D02*
X194968D01*
X191032Y1459406D02*
X194968D01*
Y1447595D02*
Y1459406D01*
X191032Y1447595D02*
Y1459406D01*
X183547Y1459315D02*
X189453D01*
X183547Y1448685D02*
X189453D01*
X183547D02*
Y1459315D01*
X189453Y1448685D02*
Y1459315D01*
X297134Y1493807D02*
Y1507193D01*
X288866Y1493807D02*
Y1507193D01*
X297134D01*
X288866Y1493807D02*
X297134D01*
X236261Y1499977D02*
X246498D01*
X236261Y1494465D02*
X246498D01*
X236261D02*
Y1499977D01*
X246498Y1494465D02*
Y1499977D01*
X236261Y1493748D02*
X246498D01*
X236261Y1488237D02*
X246498D01*
X236261D02*
Y1493748D01*
X246498Y1488237D02*
Y1493748D01*
X247307Y1479366D02*
X260693D01*
X247307Y1487634D02*
X260693D01*
Y1479366D02*
Y1487634D01*
X247307Y1479366D02*
Y1487634D01*
X237469Y1520579D02*
Y1530421D01*
X233531D02*
X237469D01*
X233531Y1520579D02*
Y1530421D01*
Y1520579D02*
X237469D01*
X239244Y1520382D02*
Y1530618D01*
X244756Y1520382D02*
Y1530618D01*
X239244Y1520382D02*
X244756D01*
X239244Y1530618D02*
X244756D01*
X196047Y1353173D02*
X201953D01*
X196047Y1363803D02*
X201953D01*
X196047Y1353173D02*
Y1363803D01*
X201953Y1353173D02*
Y1363803D01*
X286047Y1353173D02*
X291953D01*
X286047Y1363803D02*
X291953D01*
X286047Y1353173D02*
Y1363803D01*
X291953Y1353173D02*
Y1363803D01*
X293047Y1429185D02*
X298953D01*
X293047Y1439815D02*
X298953D01*
X293047Y1429185D02*
Y1439815D01*
X298953Y1429185D02*
Y1439815D01*
X337547Y1440315D02*
X343453D01*
X337547Y1429685D02*
X343453D01*
Y1440315D01*
X337547Y1429685D02*
Y1440315D01*
X381547Y1408685D02*
X387453D01*
X381547Y1419315D02*
X387453D01*
X381547Y1408685D02*
Y1419315D01*
X387453Y1408685D02*
Y1419315D01*
D15*
X295853Y1511700D02*
Y1520786D01*
X293886D02*
X295853D01*
X288341D02*
X290308D01*
X288341Y1511700D02*
Y1520786D01*
Y1511700D02*
X290308D01*
X293886D02*
X295853D01*
X293886Y1508528D02*
Y1511700D01*
Y1520786D02*
Y1523958D01*
X290308D02*
X293886D01*
X290308Y1520786D02*
Y1523958D01*
Y1508528D02*
Y1511700D01*
Y1508528D02*
X293886D01*
X250424Y1493364D02*
X258724D01*
X250424Y1493164D02*
Y1493364D01*
Y1488164D02*
Y1488364D01*
Y1488164D02*
X258724D01*
Y1488364D01*
Y1493164D02*
Y1493364D01*
Y1493164D02*
X260124D01*
X249024D02*
X250424D01*
X249024Y1488364D02*
Y1493164D01*
Y1488364D02*
X250424D01*
X258724D02*
X260124D01*
Y1493164D01*
X250424Y1499592D02*
X258724D01*
X250424Y1499393D02*
Y1499592D01*
Y1494392D02*
Y1494592D01*
Y1494392D02*
X258724D01*
Y1494592D01*
Y1499393D02*
Y1499592D01*
Y1499393D02*
X260124D01*
X249024D02*
X250424D01*
X249024Y1494592D02*
Y1499393D01*
Y1494592D02*
X250424D01*
X258724D02*
X260124D01*
Y1499393D01*
X258000Y1558678D02*
X291700D01*
D89*
X195031Y1438000D02*
X198969D01*
X197000Y1436032D02*
Y1439968D01*
X195031Y1438000D02*
X198969D01*
X197000Y1436032D02*
Y1439968D01*
X209032Y1438000D02*
X212968D01*
X211000Y1436032D02*
Y1439968D01*
X209032Y1438000D02*
X212968D01*
X211000Y1436032D02*
Y1439968D01*
X238000Y1479531D02*
Y1483469D01*
X236032Y1481500D02*
X239968D01*
X238000Y1479531D02*
Y1483469D01*
X236032Y1481500D02*
X239968D01*
X320500Y1479031D02*
Y1482969D01*
X318531Y1481000D02*
X322468D01*
X320500Y1479031D02*
Y1482969D01*
X318531Y1481000D02*
X322468D01*
X287032Y1378500D02*
X290968D01*
X289000Y1376532D02*
Y1380468D01*
X287032Y1378500D02*
X290968D01*
X289000Y1376532D02*
Y1380468D01*
X182531Y1361000D02*
X186469D01*
X184500Y1359031D02*
Y1362969D01*
X182531Y1361000D02*
X186469D01*
X184500Y1359031D02*
Y1362969D01*
X334130Y1533000D02*
X337870D01*
X336000Y1531130D02*
Y1534870D01*
X299326Y1514743D02*
X302869D01*
X301097Y1512971D02*
Y1516515D01*
X387630Y1339209D02*
X391370D01*
X389500Y1337339D02*
Y1341079D01*
X307248Y1313778D02*
Y1317715D01*
X305280Y1315747D02*
X309217D01*
X187000Y1421630D02*
Y1425370D01*
X185130Y1423500D02*
X188870D01*
X192016Y1422500D02*
X193984D01*
X193000Y1421516D02*
Y1423484D01*
X192016Y1453500D02*
X193984D01*
X193000Y1452516D02*
Y1454484D01*
X186500Y1452130D02*
Y1455870D01*
X184630Y1454000D02*
X188370D01*
X291228Y1500500D02*
X294772D01*
X293000Y1498728D02*
Y1502272D01*
X263865Y1411000D02*
X267802D01*
X265833Y1409031D02*
Y1412969D01*
X353532Y1411000D02*
X357469D01*
X355500Y1409031D02*
Y1412969D01*
X308698Y1411000D02*
X312635D01*
X310667Y1409031D02*
Y1412969D01*
X219032Y1411000D02*
X222969D01*
X221000Y1409031D02*
Y1412969D01*
X241379Y1495449D02*
Y1498993D01*
X239608Y1497221D02*
X243151D01*
X241379Y1489221D02*
Y1492764D01*
X239608Y1490993D02*
X243151D01*
X254000Y1481728D02*
Y1485272D01*
X252228Y1483500D02*
X255772D01*
X235500Y1524516D02*
Y1526484D01*
X234516Y1525500D02*
X236484D01*
X240228D02*
X243772D01*
X242000Y1523728D02*
Y1527272D01*
X199000Y1356618D02*
Y1360358D01*
X197130Y1358488D02*
X200870D01*
X289000Y1356618D02*
Y1360358D01*
X287130Y1358488D02*
X290870D01*
X296000Y1432630D02*
Y1436370D01*
X294130Y1434500D02*
X297870D01*
X340500Y1433130D02*
Y1436870D01*
X338630Y1435000D02*
X342370D01*
X384500Y1412130D02*
Y1415870D01*
X382630Y1414000D02*
X386370D01*
M02*
