G04*
G04 #@! TF.GenerationSoftware,Altium Limited,Altium Designer,20.0.10 (225)*
G04*
G04 Layer_Color=32768*
%FSLAX25Y25*%
%MOIN*%
G70*
G01*
G75*
%ADD10C,0.00787*%
%ADD90C,0.00100*%
D10*
X422874Y1236606D02*
G03*
X427016Y1240748I0J4142D01*
G01*
X151350D02*
G03*
X155492Y1236606I4142J0D01*
G01*
X427016Y1558858D02*
G03*
X422874Y1563000I-4142J0D01*
G01*
X155492Y1562992D02*
G03*
X151350Y1558850I0J-4142D01*
G01*
X427000Y1240555D02*
Y1558858D01*
X155488Y1236610D02*
X423055D01*
X151350Y1240748D02*
Y1558850D01*
X155492Y1562992D02*
X422874D01*
D90*
X250424Y1501864D02*
Y1502864D01*
X251424Y1502364D01*
X250424Y1501864D02*
X251424Y1502364D01*
X258724Y1501864D02*
Y1502864D01*
X257724Y1502364D02*
X258724Y1502864D01*
X257724Y1502364D02*
X258724Y1501864D01*
X246424Y1502364D02*
X251424D01*
X257724D02*
X262724D01*
X251424Y1490764D02*
Y1503864D01*
X257724Y1490764D02*
Y1503864D01*
X220924Y1493364D02*
X221924D01*
X220924D02*
X221424Y1492364D01*
X221924Y1493364D01*
X220924Y1488164D02*
X221924D01*
X220924D02*
X221424Y1489164D01*
X221924Y1488164D01*
X221424Y1492364D02*
Y1497364D01*
Y1484164D02*
Y1489164D01*
X219924Y1492364D02*
X254574D01*
X219924Y1489164D02*
X254574D01*
X267224Y1493164D02*
X268224D01*
X267224D02*
X267724Y1492164D01*
X268224Y1493164D01*
X267224Y1488364D02*
X268224D01*
X267224D02*
X267724Y1489364D01*
X268224Y1488364D01*
X267724Y1492164D02*
Y1497164D01*
Y1484364D02*
Y1489364D01*
X257724Y1492164D02*
X269224D01*
X257724Y1489364D02*
X269224D01*
X240924Y1493164D02*
X241924D01*
X240924D02*
X241424Y1492164D01*
X241924Y1493164D01*
X240924Y1488364D02*
X241924D01*
X240924D02*
X241424Y1489364D01*
X241924Y1488364D01*
X241424Y1492164D02*
Y1497164D01*
Y1484364D02*
Y1489364D01*
X239924Y1492164D02*
X251424D01*
X239924Y1489364D02*
X251424D01*
X250424Y1483664D02*
Y1484664D01*
X251424Y1484164D01*
X250424Y1483664D02*
X251424Y1484164D01*
X254024Y1483664D02*
Y1484664D01*
X253024Y1484164D02*
X254024Y1484664D01*
X253024Y1484164D02*
X254024Y1483664D01*
X246424Y1484164D02*
X251424D01*
X253024D02*
X258024D01*
X251424Y1482664D02*
Y1490764D01*
X253024Y1482664D02*
Y1490764D01*
X255124Y1483664D02*
Y1484664D01*
X256124Y1484164D01*
X255124Y1483664D02*
X256124Y1484164D01*
X258724Y1483664D02*
Y1484664D01*
X257724Y1484164D02*
X258724Y1484664D01*
X257724Y1484164D02*
X258724Y1483664D01*
X251124Y1484164D02*
X256124D01*
X257724D02*
X262724D01*
X256124Y1482664D02*
Y1490764D01*
X257724Y1482664D02*
Y1490764D01*
X250424Y1473664D02*
Y1474664D01*
X251424Y1474164D01*
X250424Y1473664D02*
X251424Y1474164D01*
X258724Y1473664D02*
Y1474664D01*
X257724Y1474164D02*
X258724Y1474664D01*
X257724Y1474164D02*
X258724Y1473664D01*
X246424Y1474164D02*
X251424D01*
X257724D02*
X262724D01*
X251424Y1472664D02*
Y1490764D01*
X257724Y1472664D02*
Y1490764D01*
X250424Y1508092D02*
Y1509093D01*
X251424Y1508593D01*
X250424Y1508092D02*
X251424Y1508593D01*
X258724Y1508092D02*
Y1509093D01*
X257724Y1508593D02*
X258724Y1509093D01*
X257724Y1508593D02*
X258724Y1508092D01*
X246424Y1508593D02*
X251424D01*
X257724D02*
X262724D01*
X251424Y1496992D02*
Y1510093D01*
X257724Y1496992D02*
Y1510093D01*
X220924Y1499592D02*
X221924D01*
X220924D02*
X221424Y1498592D01*
X221924Y1499592D01*
X220924Y1494392D02*
X221924D01*
X220924D02*
X221424Y1495393D01*
X221924Y1494392D01*
X221424Y1498592D02*
Y1503592D01*
Y1490392D02*
Y1495393D01*
X219924Y1498592D02*
X254574D01*
X219924Y1495393D02*
X254574D01*
X267224Y1499393D02*
X268224D01*
X267224D02*
X267724Y1498392D01*
X268224Y1499393D01*
X267224Y1494592D02*
X268224D01*
X267224D02*
X267724Y1495592D01*
X268224Y1494592D01*
X267724Y1498392D02*
Y1503393D01*
Y1490592D02*
Y1495592D01*
X257724Y1498392D02*
X269224D01*
X257724Y1495592D02*
X269224D01*
X240924Y1499393D02*
X241924D01*
X240924D02*
X241424Y1498392D01*
X241924Y1499393D01*
X240924Y1494592D02*
X241924D01*
X240924D02*
X241424Y1495592D01*
X241924Y1494592D01*
X241424Y1498392D02*
Y1503393D01*
Y1490592D02*
Y1495592D01*
X239924Y1498392D02*
X251424D01*
X239924Y1495592D02*
X251424D01*
X250424Y1489892D02*
Y1490893D01*
X251424Y1490392D01*
X250424Y1489892D02*
X251424Y1490392D01*
X254024Y1489892D02*
Y1490893D01*
X253024Y1490392D02*
X254024Y1490893D01*
X253024Y1490392D02*
X254024Y1489892D01*
X246424Y1490392D02*
X251424D01*
X253024D02*
X258024D01*
X251424Y1488892D02*
Y1496992D01*
X253024Y1488892D02*
Y1496992D01*
X255124Y1489892D02*
Y1490893D01*
X256124Y1490392D01*
X255124Y1489892D02*
X256124Y1490392D01*
X258724Y1489892D02*
Y1490893D01*
X257724Y1490392D02*
X258724Y1490893D01*
X257724Y1490392D02*
X258724Y1489892D01*
X251124Y1490392D02*
X256124D01*
X257724D02*
X262724D01*
X256124Y1488892D02*
Y1496992D01*
X257724Y1488892D02*
Y1496992D01*
X250424Y1479893D02*
Y1480892D01*
X251424Y1480392D01*
X250424Y1479893D02*
X251424Y1480392D01*
X258724Y1479893D02*
Y1480892D01*
X257724Y1480392D02*
X258724Y1480892D01*
X257724Y1480392D02*
X258724Y1479893D01*
X246424Y1480392D02*
X251424D01*
X257724D02*
X262724D01*
X251424Y1478893D02*
Y1496992D01*
X257724Y1478893D02*
Y1496992D01*
M02*
