G04*
G04 #@! TF.GenerationSoftware,Altium Limited,Altium Designer,20.0.10 (225)*
G04*
G04 Layer_Color=65535*
%FSLAX25Y25*%
%MOIN*%
G70*
G01*
G75*
%ADD10C,0.00787*%
D10*
X197988Y1445835D02*
Y1450165D01*
Y1445835D02*
X209012D01*
Y1450165D01*
X197988D02*
X209012D01*
X236339Y1464791D02*
Y1476209D01*
Y1464791D02*
X253661D01*
Y1476209D01*
X236339D02*
X253661D01*
X306636Y1507239D02*
Y1522247D01*
X314558D01*
Y1507239D02*
Y1522247D01*
X306636Y1507239D02*
X314558D01*
X317932Y1509193D02*
Y1520216D01*
X322263D01*
Y1509193D02*
Y1520216D01*
X317932Y1509193D02*
X322263D01*
X232855Y1303641D02*
X261642D01*
Y1251853D02*
Y1303641D01*
X232855Y1251853D02*
X261642D01*
X232855D02*
Y1303641D01*
X422874Y1236606D02*
G03*
X427016Y1240748I0J4142D01*
G01*
X151350D02*
G03*
X155492Y1236606I4142J0D01*
G01*
X427016Y1558858D02*
G03*
X422874Y1563000I-4142J0D01*
G01*
X155492Y1562992D02*
G03*
X151350Y1558850I0J-4142D01*
G01*
X427000Y1240555D02*
Y1558858D01*
X155488Y1236610D02*
X423055D01*
X151350Y1240748D02*
Y1558850D01*
X155492Y1562992D02*
X422874D01*
M02*
