G04*
G04 #@! TF.GenerationSoftware,Altium Limited,Altium Designer,20.0.10 (225)*
G04*
G04 Layer_Color=255*
%FSLAX25Y25*%
%MOIN*%
G70*
G01*
G75*
%ADD10C,0.00787*%
%ADD22R,0.03740X0.03347*%
%ADD49C,0.02953*%
%ADD59R,0.11237X0.11237*%
%ADD60C,0.11237*%
%ADD61R,0.05118X0.05118*%
%ADD62C,0.05118*%
%ADD74C,0.06102*%
%ADD75C,0.09449*%
%ADD76R,0.07087X0.06693*%
%ADD77O,0.07480X0.07874*%
%ADD78R,0.06102X0.06102*%
%ADD79C,0.05906*%
%ADD80R,0.05906X0.05906*%
%ADD81O,0.07874X0.11811*%
%ADD82R,0.07480X0.07480*%
%ADD83C,0.07480*%
%ADD84C,0.02559*%
G04:AMPARAMS|DCode=85|XSize=41.34mil|YSize=72.84mil|CornerRadius=10.34mil|HoleSize=0mil|Usage=FLASHONLY|Rotation=180.000|XOffset=0mil|YOffset=0mil|HoleType=Round|Shape=RoundedRectangle|*
%AMROUNDEDRECTD85*
21,1,0.04134,0.05217,0,0,180.0*
21,1,0.02067,0.07284,0,0,180.0*
1,1,0.02067,-0.01034,0.02608*
1,1,0.02067,0.01034,0.02608*
1,1,0.02067,0.01034,-0.02608*
1,1,0.02067,-0.01034,-0.02608*
%
%ADD85ROUNDEDRECTD85*%
%ADD87R,0.01968X0.03150*%
D10*
X422874Y1236606D02*
G03*
X427016Y1240748I0J4142D01*
G01*
X151350D02*
G03*
X155492Y1236606I4142J0D01*
G01*
X427016Y1558858D02*
G03*
X422874Y1563000I-4142J0D01*
G01*
X155492Y1562992D02*
G03*
X151350Y1558850I0J-4142D01*
G01*
X427000Y1240555D02*
Y1558858D01*
X155488Y1236610D02*
X423055D01*
X151350Y1240748D02*
Y1558850D01*
X155492Y1562992D02*
X422874D01*
D22*
X187000Y1426059D02*
D03*
Y1420941D02*
D03*
X186500Y1456559D02*
D03*
Y1451441D02*
D03*
D49*
X245000Y1470500D02*
D03*
D59*
X247248Y1296247D02*
D03*
D60*
Y1277747D02*
D03*
Y1259247D02*
D03*
D61*
X250833Y1421000D02*
D03*
X340500D02*
D03*
X295667D02*
D03*
X206000D02*
D03*
D62*
X250833Y1411000D02*
D03*
Y1401000D02*
D03*
X280833D02*
D03*
Y1411000D02*
D03*
Y1421000D02*
D03*
X340500Y1411000D02*
D03*
Y1401000D02*
D03*
X370500D02*
D03*
Y1411000D02*
D03*
Y1421000D02*
D03*
X295667Y1411000D02*
D03*
Y1401000D02*
D03*
X325667D02*
D03*
Y1411000D02*
D03*
Y1421000D02*
D03*
X206000Y1411000D02*
D03*
Y1401000D02*
D03*
X236000D02*
D03*
Y1411000D02*
D03*
Y1421000D02*
D03*
D74*
X197000Y1438000D02*
D03*
X211000D02*
D03*
X238000Y1481500D02*
D03*
X320500Y1481000D02*
D03*
X289000Y1378500D02*
D03*
X184500Y1361000D02*
D03*
X175791Y1423000D02*
D03*
Y1456000D02*
D03*
D75*
X215996Y1265901D02*
D03*
X200248Y1260428D02*
D03*
X184500Y1265901D02*
D03*
X221508Y1282613D02*
D03*
X178989D02*
D03*
X187748Y1297113D02*
D03*
X200248Y1280113D02*
D03*
X212248Y1297613D02*
D03*
X394248Y1265901D02*
D03*
X378500Y1260428D02*
D03*
X362752Y1265901D02*
D03*
X399760Y1282613D02*
D03*
X357240D02*
D03*
X366000Y1297113D02*
D03*
X378500Y1280113D02*
D03*
X390500Y1297613D02*
D03*
D76*
X379370Y1351768D02*
D03*
Y1365268D02*
D03*
D77*
Y1341768D02*
D03*
Y1375268D02*
D03*
D78*
X175791Y1413000D02*
D03*
Y1446000D02*
D03*
D79*
X306000Y1549500D02*
D03*
X316000D02*
D03*
X326000D02*
D03*
X336000D02*
D03*
X346000D02*
D03*
D80*
X356000D02*
D03*
D81*
X217500Y1544000D02*
D03*
X207500D02*
D03*
D82*
X282248Y1315747D02*
D03*
D83*
X332248D02*
D03*
X307248D02*
D03*
D84*
X267201Y1542614D02*
D03*
X282949D02*
D03*
D85*
X261000Y1537417D02*
D03*
Y1551000D02*
D03*
X289150Y1537417D02*
D03*
Y1551000D02*
D03*
D87*
X193000Y1426437D02*
D03*
Y1418563D02*
D03*
Y1457437D02*
D03*
Y1449563D02*
D03*
M02*
