G04*
G04 #@! TF.GenerationSoftware,Altium Limited,Altium Designer,20.0.10 (225)*
G04*
G04 Layer_Color=2752767*
%FSLAX25Y25*%
%MOIN*%
G70*
G01*
G75*
%ADD10C,0.01000*%
%ADD11C,0.00787*%
%ADD92C,0.00200*%
%ADD93C,0.00267*%
%ADD94C,0.00133*%
D10*
X234819Y1279929D02*
G03*
X234819Y1279929I-41339J0D01*
G01*
X422590D02*
G03*
X422590Y1279929I-41339J0D01*
G01*
D11*
X421228Y1236606D02*
G03*
X425370Y1240748I0J4142D01*
G01*
X151350D02*
G03*
X155492Y1236606I4142J0D01*
G01*
X425370Y1558858D02*
G03*
X421228Y1563000I-4142J0D01*
G01*
X155492Y1562992D02*
G03*
X151350Y1558850I0J-4142D01*
G01*
X425354Y1240555D02*
Y1558858D01*
X155488Y1236610D02*
X421228D01*
X151350Y1240748D02*
Y1558850D01*
X155492Y1562992D02*
X421228D01*
D92*
X205928Y1268578D02*
Y1270178D01*
X207528D01*
Y1268578D01*
X205928D01*
X192700Y1262200D02*
Y1263800D01*
X194300D01*
Y1262200D01*
X192700D01*
X179472Y1268578D02*
Y1270178D01*
X181072D01*
Y1268578D01*
X179472D01*
X209196Y1282869D02*
Y1284469D01*
X210796D01*
Y1282869D01*
X209196D01*
X176165D02*
Y1284469D01*
X177765D01*
Y1282869D01*
X176165D01*
X185338Y1294365D02*
Y1295965D01*
X186938D01*
Y1294365D01*
X185338D01*
X192700Y1279129D02*
Y1280729D01*
X194300D01*
Y1279129D01*
X192700D01*
X200062Y1294365D02*
Y1295965D01*
X201662D01*
Y1294365D01*
X200062D01*
X393700Y1268578D02*
Y1270178D01*
X395300D01*
Y1268578D01*
X393700D01*
X380472Y1262200D02*
Y1263800D01*
X382072D01*
Y1262200D01*
X380472D01*
X367243Y1268578D02*
Y1270178D01*
X368843D01*
Y1268578D01*
X367243D01*
X396968Y1282869D02*
Y1284469D01*
X398568D01*
Y1282869D01*
X396968D01*
X363936D02*
Y1284469D01*
X365536D01*
Y1282869D01*
X363936D01*
X373110Y1294365D02*
Y1295965D01*
X374710D01*
Y1294365D01*
X373110D01*
X380472Y1279129D02*
Y1280729D01*
X382072D01*
Y1279129D01*
X380472D01*
X387834Y1294365D02*
Y1295965D01*
X389434D01*
Y1294365D01*
X387834D01*
X245000Y1469700D02*
X244200Y1471300D01*
X245800D01*
X245000Y1469700D01*
X379370Y1350968D02*
X379770Y1351368D01*
X380170D01*
X379770Y1351768D01*
X380170Y1352168D01*
X379770D01*
X379370Y1352568D01*
X378970Y1352168D01*
X378570D01*
X378970Y1351768D01*
X378570Y1351368D01*
X378970D01*
X379370Y1350968D01*
Y1340968D02*
X379770Y1341368D01*
X380170D01*
X379770Y1341768D01*
X380170Y1342168D01*
X379770D01*
X379370Y1342568D01*
X378970Y1342168D01*
X378570D01*
X378970Y1341768D01*
X378570Y1341368D01*
X378970D01*
X379370Y1340968D01*
Y1364468D02*
X379770Y1364868D01*
X380170D01*
X379770Y1365268D01*
X380170Y1365668D01*
X379770D01*
X379370Y1366068D01*
X378970Y1365668D01*
X378570D01*
X378970Y1365268D01*
X378570Y1364868D01*
X378970D01*
X379370Y1364468D01*
Y1374468D02*
X379770Y1374868D01*
X380170D01*
X379770Y1375268D01*
X380170Y1375668D01*
X379770D01*
X379370Y1376068D01*
X378970Y1375668D01*
X378570D01*
X378970Y1375268D01*
X378570Y1374868D01*
X378970D01*
X379370Y1374468D01*
X174991Y1422200D02*
X175391Y1423000D01*
X174991Y1423800D01*
X175791Y1423400D01*
X176591Y1423800D01*
X176191Y1423000D01*
X176591Y1422200D01*
X175791Y1422600D01*
X174991Y1422200D01*
Y1412200D02*
X175391Y1413000D01*
X174991Y1413800D01*
X175791Y1413400D01*
X176591Y1413800D01*
X176191Y1413000D01*
X176591Y1412200D01*
X175791Y1412600D01*
X174991Y1412200D01*
Y1455200D02*
X175391Y1456000D01*
X174991Y1456800D01*
X175791Y1456400D01*
X176591Y1456800D01*
X176191Y1456000D01*
X176591Y1455200D01*
X175791Y1455600D01*
X174991Y1455200D01*
Y1445200D02*
X175391Y1446000D01*
X174991Y1446800D01*
X175791Y1446400D01*
X176591Y1446800D01*
X176191Y1446000D01*
X176591Y1445200D01*
X175791Y1445600D01*
X174991Y1445200D01*
X305600Y1549100D02*
Y1548700D01*
X306400D01*
Y1549100D01*
X306800D01*
Y1549900D01*
X306400D01*
Y1550300D01*
X305600D01*
Y1549900D01*
X305200D01*
Y1549100D01*
X305600D01*
X315600D02*
Y1548700D01*
X316400D01*
Y1549100D01*
X316800D01*
Y1549900D01*
X316400D01*
Y1550300D01*
X315600D01*
Y1549900D01*
X315200D01*
Y1549100D01*
X315600D01*
X325600D02*
Y1548700D01*
X326400D01*
Y1549100D01*
X326800D01*
Y1549900D01*
X326400D01*
Y1550300D01*
X325600D01*
Y1549900D01*
X325200D01*
Y1549100D01*
X325600D01*
X335600D02*
Y1548700D01*
X336400D01*
Y1549100D01*
X336800D01*
Y1549900D01*
X336400D01*
Y1550300D01*
X335600D01*
Y1549900D01*
X335200D01*
Y1549100D01*
X335600D01*
X345600D02*
Y1548700D01*
X346400D01*
Y1549100D01*
X346800D01*
Y1549900D01*
X346400D01*
Y1550300D01*
X345600D01*
Y1549900D01*
X345200D01*
Y1549100D01*
X345600D01*
X355600D02*
Y1548700D01*
X356400D01*
Y1549100D01*
X356800D01*
Y1549900D01*
X356400D01*
Y1550300D01*
X355600D01*
Y1549900D01*
X355200D01*
Y1549100D01*
X355600D01*
X216700Y1543200D02*
X217100D01*
X217500Y1543600D01*
X217900Y1543200D01*
X218300D01*
Y1543600D01*
X217900Y1544000D01*
X218300Y1544400D01*
Y1544800D01*
X217900D01*
X217500Y1544400D01*
X217100Y1544800D01*
X216700D01*
Y1544400D01*
X217100Y1544000D01*
X216700Y1543600D01*
Y1543200D01*
X206700D02*
X207100D01*
X207500Y1543600D01*
X207900Y1543200D01*
X208300D01*
Y1543600D01*
X207900Y1544000D01*
X208300Y1544400D01*
Y1544800D01*
X207900D01*
X207500Y1544400D01*
X207100Y1544800D01*
X206700D01*
Y1544400D01*
X207100Y1544000D01*
X206700Y1543600D01*
Y1543200D01*
X281448Y1315747D02*
X282248Y1316547D01*
X283048Y1315747D01*
X282248Y1314947D01*
X281448Y1315747D01*
X331448D02*
X332248Y1316547D01*
X333048Y1315747D01*
X332248Y1314947D01*
X331448Y1315747D01*
X306448D02*
X307248Y1316547D01*
X308048Y1315747D01*
X307248Y1314947D01*
X306448Y1315747D01*
X249700Y1295700D02*
Y1297300D01*
X251300D01*
Y1295700D01*
X249700D01*
X250100Y1296100D02*
Y1296900D01*
X250900D01*
Y1296100D01*
X250100D01*
X249700Y1277200D02*
Y1278800D01*
X251300D01*
Y1277200D01*
X249700D01*
X250100Y1277600D02*
Y1278400D01*
X250900D01*
Y1277600D01*
X250100D01*
X249700Y1258700D02*
Y1260300D01*
X251300D01*
Y1258700D01*
X249700D01*
X250100Y1259100D02*
Y1259900D01*
X250900D01*
Y1259100D01*
X250100D01*
X267201Y1545314D02*
X266401Y1546914D01*
X268001D01*
X267201Y1545314D01*
Y1545714D02*
X266801Y1546514D01*
X267601D01*
X267201Y1545714D01*
X282949Y1545314D02*
X282149Y1546914D01*
X283749D01*
X282949Y1545314D01*
Y1545714D02*
X282549Y1546514D01*
X283349D01*
X282949Y1545714D01*
X261000Y1540117D02*
X261400Y1540517D01*
X261800D01*
X261400Y1540917D01*
X261800Y1541317D01*
X261400D01*
X261000Y1541717D01*
X260600Y1541317D01*
X260200D01*
X260600Y1540917D01*
X260200Y1540517D01*
X260600D01*
X261000Y1540117D01*
Y1540517D02*
X261200Y1540717D01*
X261400D01*
X261200Y1540917D01*
X261400Y1541117D01*
X261200D01*
X261000Y1541317D01*
X260800Y1541117D01*
X260600D01*
X260800Y1540917D01*
X260600Y1540717D01*
X260800D01*
X261000Y1540517D01*
Y1553700D02*
X261400Y1554100D01*
X261800D01*
X261400Y1554500D01*
X261800Y1554900D01*
X261400D01*
X261000Y1555300D01*
X260600Y1554900D01*
X260200D01*
X260600Y1554500D01*
X260200Y1554100D01*
X260600D01*
X261000Y1553700D01*
Y1554100D02*
X261200Y1554300D01*
X261400D01*
X261200Y1554500D01*
X261400Y1554700D01*
X261200D01*
X261000Y1554900D01*
X260800Y1554700D01*
X260600D01*
X260800Y1554500D01*
X260600Y1554300D01*
X260800D01*
X261000Y1554100D01*
X289150Y1540117D02*
X289550Y1540517D01*
X289950D01*
X289550Y1540917D01*
X289950Y1541317D01*
X289550D01*
X289150Y1541717D01*
X288750Y1541317D01*
X288350D01*
X288750Y1540917D01*
X288350Y1540517D01*
X288750D01*
X289150Y1540117D01*
Y1540517D02*
X289350Y1540717D01*
X289550D01*
X289350Y1540917D01*
X289550Y1541117D01*
X289350D01*
X289150Y1541317D01*
X288950Y1541117D01*
X288750D01*
X288950Y1540917D01*
X288750Y1540717D01*
X288950D01*
X289150Y1540517D01*
Y1553700D02*
X289550Y1554100D01*
X289950D01*
X289550Y1554500D01*
X289950Y1554900D01*
X289550D01*
X289150Y1555300D01*
X288750Y1554900D01*
X288350D01*
X288750Y1554500D01*
X288350Y1554100D01*
X288750D01*
X289150Y1553700D01*
Y1554100D02*
X289350Y1554300D01*
X289550D01*
X289350Y1554500D01*
X289550Y1554700D01*
X289350D01*
X289150Y1554900D01*
X288950Y1554700D01*
X288750D01*
X288950Y1554500D01*
X288750Y1554300D01*
X288950D01*
X289150Y1554100D01*
X233405Y1290732D02*
X233805Y1291531D01*
X233405Y1292332D01*
X234205Y1291932D01*
X235005Y1292332D01*
X234605Y1291531D01*
X235005Y1290732D01*
X234205Y1291131D01*
X233405Y1290732D01*
X233805Y1291131D02*
X234005Y1291531D01*
X233805Y1291932D01*
X234205Y1291731D01*
X234605Y1291932D01*
X234405Y1291531D01*
X234605Y1291131D01*
X234205Y1291331D01*
X233805Y1291131D01*
X265038Y1256513D02*
X265438Y1257313D01*
X265038Y1258113D01*
X265838Y1257713D01*
X266638Y1258113D01*
X266238Y1257313D01*
X266638Y1256513D01*
X265838Y1256913D01*
X265038Y1256513D01*
X265438Y1256913D02*
X265638Y1257313D01*
X265438Y1257713D01*
X265838Y1257513D01*
X266238Y1257713D01*
X266038Y1257313D01*
X266238Y1256913D01*
X265838Y1257113D01*
X265438Y1256913D01*
X381700Y1303200D02*
X382100Y1304000D01*
X381700Y1304800D01*
X382500Y1304400D01*
X383300Y1304800D01*
X382900Y1304000D01*
X383300Y1303200D01*
X382500Y1303600D01*
X381700Y1303200D01*
X382100Y1303600D02*
X382300Y1304000D01*
X382100Y1304400D01*
X382500Y1304200D01*
X382900Y1304400D01*
X382700Y1304000D01*
X382900Y1303600D01*
X382500Y1303800D01*
X382100Y1303600D01*
X242338Y1304596D02*
X242738Y1305396D01*
X242338Y1306196D01*
X243138Y1305796D01*
X243938Y1306196D01*
X243538Y1305396D01*
X243938Y1304596D01*
X243138Y1304996D01*
X242338Y1304596D01*
X242738Y1304996D02*
X242938Y1305396D01*
X242738Y1305796D01*
X243138Y1305596D01*
X243538Y1305796D01*
X243338Y1305396D01*
X243538Y1304996D01*
X243138Y1305196D01*
X242738Y1304996D01*
X234884Y1301824D02*
X235284Y1302624D01*
X234884Y1303424D01*
X235684Y1303024D01*
X236484Y1303424D01*
X236084Y1302624D01*
X236484Y1301824D01*
X235684Y1302224D01*
X234884Y1301824D01*
X235284Y1302224D02*
X235484Y1302624D01*
X235284Y1303024D01*
X235684Y1302824D01*
X236084Y1303024D01*
X235884Y1302624D01*
X236084Y1302224D01*
X235684Y1302424D01*
X235284Y1302224D01*
X218979Y1301824D02*
X219379Y1302624D01*
X218979Y1303424D01*
X219779Y1303024D01*
X220579Y1303424D01*
X220179Y1302624D01*
X220579Y1301824D01*
X219779Y1302224D01*
X218979Y1301824D01*
X219379Y1302224D02*
X219579Y1302624D01*
X219379Y1303024D01*
X219779Y1302824D01*
X220179Y1303024D01*
X219979Y1302624D01*
X220179Y1302224D01*
X219779Y1302424D01*
X219379Y1302224D01*
X211248Y1299956D02*
X211648Y1300756D01*
X211248Y1301556D01*
X212048Y1301156D01*
X212848Y1301556D01*
X212448Y1300756D01*
X212848Y1299956D01*
X212048Y1300356D01*
X211248Y1299956D01*
X211648Y1300356D02*
X211848Y1300756D01*
X211648Y1301156D01*
X212048Y1300956D01*
X212448Y1301156D01*
X212248Y1300756D01*
X212448Y1300356D01*
X212048Y1300556D01*
X211648Y1300356D01*
X203633Y1302247D02*
X204033Y1303047D01*
X203633Y1303847D01*
X204433Y1303447D01*
X205233Y1303847D01*
X204833Y1303047D01*
X205233Y1302247D01*
X204433Y1302647D01*
X203633Y1302247D01*
X204033Y1302647D02*
X204233Y1303047D01*
X204033Y1303447D01*
X204433Y1303247D01*
X204833Y1303447D01*
X204633Y1303047D01*
X204833Y1302647D01*
X204433Y1302847D01*
X204033Y1302647D01*
X195690Y1301844D02*
X196090Y1302644D01*
X195690Y1303444D01*
X196490Y1303044D01*
X197290Y1303444D01*
X196890Y1302644D01*
X197290Y1301844D01*
X196490Y1302244D01*
X195690Y1301844D01*
X196090Y1302244D02*
X196290Y1302644D01*
X196090Y1303044D01*
X196490Y1302844D01*
X196890Y1303044D01*
X196690Y1302644D01*
X196890Y1302244D01*
X196490Y1302444D01*
X196090Y1302244D01*
X320282Y1383237D02*
X320682Y1384037D01*
X320282Y1384837D01*
X321082Y1384437D01*
X321882Y1384837D01*
X321482Y1384037D01*
X321882Y1383237D01*
X321082Y1383637D01*
X320282Y1383237D01*
X320682Y1383637D02*
X320882Y1384037D01*
X320682Y1384437D01*
X321082Y1384237D01*
X321482Y1384437D01*
X321282Y1384037D01*
X321482Y1383637D01*
X321082Y1383837D01*
X320682Y1383637D01*
X296424Y1383237D02*
X296824Y1384037D01*
X296424Y1384837D01*
X297224Y1384437D01*
X298024Y1384837D01*
X297624Y1384037D01*
X298024Y1383237D01*
X297224Y1383637D01*
X296424Y1383237D01*
X296824Y1383637D02*
X297024Y1384037D01*
X296824Y1384437D01*
X297224Y1384237D01*
X297624Y1384437D01*
X297424Y1384037D01*
X297624Y1383637D01*
X297224Y1383837D01*
X296824Y1383637D01*
X375548Y1321737D02*
X375948Y1322537D01*
X375548Y1323337D01*
X376348Y1322937D01*
X377148Y1323337D01*
X376748Y1322537D01*
X377148Y1321737D01*
X376348Y1322137D01*
X375548Y1321737D01*
X375948Y1322137D02*
X376148Y1322537D01*
X375948Y1322937D01*
X376348Y1322737D01*
X376748Y1322937D01*
X376548Y1322537D01*
X376748Y1322137D01*
X376348Y1322337D01*
X375948Y1322137D01*
X405163Y1374941D02*
X405563Y1375741D01*
X405163Y1376541D01*
X405963Y1376141D01*
X406763Y1376541D01*
X406363Y1375741D01*
X406763Y1374941D01*
X405963Y1375341D01*
X405163Y1374941D01*
X405563Y1375341D02*
X405763Y1375741D01*
X405563Y1376141D01*
X405963Y1375941D01*
X406363Y1376141D01*
X406163Y1375741D01*
X406363Y1375341D01*
X405963Y1375541D01*
X405563Y1375341D01*
X409889Y1315293D02*
X410289Y1316093D01*
X409889Y1316893D01*
X410689Y1316493D01*
X411489Y1316893D01*
X411089Y1316093D01*
X411489Y1315293D01*
X410689Y1315693D01*
X409889Y1315293D01*
X410289Y1315693D02*
X410489Y1316093D01*
X410289Y1316493D01*
X410689Y1316293D01*
X411089Y1316493D01*
X410889Y1316093D01*
X411089Y1315693D01*
X410689Y1315893D01*
X410289Y1315693D01*
X411927Y1391304D02*
X412327Y1392103D01*
X411927Y1392904D01*
X412727Y1392504D01*
X413527Y1392904D01*
X413127Y1392103D01*
X413527Y1391304D01*
X412727Y1391704D01*
X411927Y1391304D01*
X412327Y1391704D02*
X412527Y1392103D01*
X412327Y1392504D01*
X412727Y1392303D01*
X413127Y1392504D01*
X412927Y1392103D01*
X413127Y1391704D01*
X412727Y1391903D01*
X412327Y1391704D01*
X404690Y1382879D02*
X405090Y1383679D01*
X404690Y1384479D01*
X405490Y1384079D01*
X406290Y1384479D01*
X405890Y1383679D01*
X406290Y1382879D01*
X405490Y1383279D01*
X404690Y1382879D01*
X405090Y1383279D02*
X405290Y1383679D01*
X405090Y1384079D01*
X405490Y1383879D01*
X405890Y1384079D01*
X405690Y1383679D01*
X405890Y1383279D01*
X405490Y1383479D01*
X405090Y1383279D01*
X288539Y1384278D02*
X288939Y1385077D01*
X288539Y1385878D01*
X289339Y1385478D01*
X290139Y1385878D01*
X289739Y1385077D01*
X290139Y1384278D01*
X289339Y1384678D01*
X288539Y1384278D01*
X288939Y1384678D02*
X289139Y1385077D01*
X288939Y1385478D01*
X289339Y1385277D01*
X289739Y1385478D01*
X289539Y1385077D01*
X289739Y1384678D01*
X289339Y1384877D01*
X288939Y1384678D01*
X396939Y1384663D02*
X397340Y1385463D01*
X396939Y1386263D01*
X397740Y1385863D01*
X398539Y1386263D01*
X398140Y1385463D01*
X398539Y1384663D01*
X397740Y1385063D01*
X396939Y1384663D01*
X397340Y1385063D02*
X397539Y1385463D01*
X397340Y1385863D01*
X397740Y1385663D01*
X398140Y1385863D01*
X397939Y1385463D01*
X398140Y1385063D01*
X397740Y1385263D01*
X397340Y1385063D01*
X395828Y1395737D02*
X396228Y1396537D01*
X395828Y1397337D01*
X396628Y1396937D01*
X397428Y1397337D01*
X397028Y1396537D01*
X397428Y1395737D01*
X396628Y1396137D01*
X395828Y1395737D01*
X396228Y1396137D02*
X396428Y1396537D01*
X396228Y1396937D01*
X396628Y1396737D01*
X397028Y1396937D01*
X396828Y1396537D01*
X397028Y1396137D01*
X396628Y1396337D01*
X396228Y1396137D01*
X405163Y1366988D02*
X405563Y1367788D01*
X405163Y1368588D01*
X405963Y1368188D01*
X406763Y1368588D01*
X406363Y1367788D01*
X406763Y1366988D01*
X405963Y1367388D01*
X405163Y1366988D01*
X405563Y1367388D02*
X405763Y1367788D01*
X405563Y1368188D01*
X405963Y1367988D01*
X406363Y1368188D01*
X406163Y1367788D01*
X406363Y1367388D01*
X405963Y1367588D01*
X405563Y1367388D01*
X415382Y1321044D02*
X415782Y1321844D01*
X415382Y1322644D01*
X416182Y1322244D01*
X416982Y1322644D01*
X416582Y1321844D01*
X416982Y1321044D01*
X416182Y1321444D01*
X415382Y1321044D01*
X415782Y1321444D02*
X415982Y1321844D01*
X415782Y1322244D01*
X416182Y1322044D01*
X416582Y1322244D01*
X416382Y1321844D01*
X416582Y1321444D01*
X416182Y1321644D01*
X415782Y1321444D01*
X405163Y1343130D02*
X405563Y1343930D01*
X405163Y1344730D01*
X405963Y1344330D01*
X406763Y1344730D01*
X406363Y1343930D01*
X406763Y1343130D01*
X405963Y1343530D01*
X405163Y1343130D01*
X405563Y1343530D02*
X405763Y1343930D01*
X405563Y1344330D01*
X405963Y1344130D01*
X406363Y1344330D01*
X406163Y1343930D01*
X406363Y1343530D01*
X405963Y1343730D01*
X405563Y1343530D01*
X416237Y1352809D02*
X416637Y1353609D01*
X416237Y1354409D01*
X417037Y1354009D01*
X417837Y1354409D01*
X417437Y1353609D01*
X417837Y1352809D01*
X417037Y1353209D01*
X416237Y1352809D01*
X416637Y1353209D02*
X416837Y1353609D01*
X416637Y1354009D01*
X417037Y1353809D01*
X417437Y1354009D01*
X417237Y1353609D01*
X417437Y1353209D01*
X417037Y1353409D01*
X416637Y1353209D01*
X282663Y1363937D02*
X283063Y1364737D01*
X282663Y1365537D01*
X283463Y1365137D01*
X284263Y1365537D01*
X283863Y1364737D01*
X284263Y1363937D01*
X283463Y1364337D01*
X282663Y1363937D01*
X283063Y1364337D02*
X283263Y1364737D01*
X283063Y1365137D01*
X283463Y1364937D01*
X283863Y1365137D01*
X283663Y1364737D01*
X283863Y1364337D01*
X283463Y1364537D01*
X283063Y1364337D01*
X406169Y1308413D02*
X406568Y1309213D01*
X406169Y1310013D01*
X406968Y1309613D01*
X407768Y1310013D01*
X407369Y1309213D01*
X407768Y1308413D01*
X406968Y1308813D01*
X406169Y1308413D01*
X406568Y1308813D02*
X406769Y1309213D01*
X406568Y1309613D01*
X406968Y1309413D01*
X407369Y1309613D01*
X407168Y1309213D01*
X407369Y1308813D01*
X406968Y1309013D01*
X406568Y1308813D01*
X304376Y1383237D02*
X304776Y1384037D01*
X304376Y1384837D01*
X305176Y1384437D01*
X305976Y1384837D01*
X305576Y1384037D01*
X305976Y1383237D01*
X305176Y1383637D01*
X304376Y1383237D01*
X304776Y1383637D02*
X304976Y1384037D01*
X304776Y1384437D01*
X305176Y1384237D01*
X305576Y1384437D01*
X305376Y1384037D01*
X305576Y1383637D01*
X305176Y1383837D01*
X304776Y1383637D01*
X416237Y1360762D02*
X416637Y1361562D01*
X416237Y1362362D01*
X417037Y1361962D01*
X417837Y1362362D01*
X417437Y1361562D01*
X417837Y1360762D01*
X417037Y1361162D01*
X416237Y1360762D01*
X416637Y1361162D02*
X416837Y1361562D01*
X416637Y1361962D01*
X417037Y1361762D01*
X417437Y1361962D01*
X417237Y1361562D01*
X417437Y1361162D01*
X417037Y1361362D01*
X416637Y1361162D01*
X297848Y1372163D02*
X298248Y1372963D01*
X297848Y1373763D01*
X298647Y1373363D01*
X299447Y1373763D01*
X299047Y1372963D01*
X299447Y1372163D01*
X298647Y1372563D01*
X297848Y1372163D01*
X298248Y1372563D02*
X298447Y1372963D01*
X298248Y1373363D01*
X298647Y1373163D01*
X299047Y1373363D01*
X298848Y1372963D01*
X299047Y1372563D01*
X298647Y1372763D01*
X298248Y1372563D01*
X405163Y1335177D02*
X405563Y1335977D01*
X405163Y1336777D01*
X405963Y1336377D01*
X406763Y1336777D01*
X406363Y1335977D01*
X406763Y1335177D01*
X405963Y1335577D01*
X405163Y1335177D01*
X405563Y1335577D02*
X405763Y1335977D01*
X405563Y1336377D01*
X405963Y1336177D01*
X406363Y1336377D01*
X406163Y1335977D01*
X406363Y1335577D01*
X405963Y1335777D01*
X405563Y1335577D01*
X416237Y1328951D02*
X416637Y1329751D01*
X416237Y1330550D01*
X417037Y1330151D01*
X417837Y1330550D01*
X417437Y1329751D01*
X417837Y1328951D01*
X417037Y1329350D01*
X416237Y1328951D01*
X416637Y1329350D02*
X416837Y1329751D01*
X416637Y1330151D01*
X417037Y1329951D01*
X417437Y1330151D01*
X417237Y1329751D01*
X417437Y1329350D01*
X417037Y1329550D01*
X416637Y1329350D01*
X405163Y1351082D02*
X405563Y1351882D01*
X405163Y1352682D01*
X405963Y1352282D01*
X406763Y1352682D01*
X406363Y1351882D01*
X406763Y1351082D01*
X405963Y1351482D01*
X405163Y1351082D01*
X405563Y1351482D02*
X405763Y1351882D01*
X405563Y1352282D01*
X405963Y1352082D01*
X406363Y1352282D01*
X406163Y1351882D01*
X406363Y1351482D01*
X405963Y1351682D01*
X405563Y1351482D01*
X405163Y1359035D02*
X405563Y1359835D01*
X405163Y1360635D01*
X405963Y1360235D01*
X406763Y1360635D01*
X406363Y1359835D01*
X406763Y1359035D01*
X405963Y1359435D01*
X405163Y1359035D01*
X405563Y1359435D02*
X405763Y1359835D01*
X405563Y1360235D01*
X405963Y1360035D01*
X406363Y1360235D01*
X406163Y1359835D01*
X406363Y1359435D01*
X405963Y1359635D01*
X405563Y1359435D01*
X383500Y1321737D02*
X383900Y1322537D01*
X383500Y1323337D01*
X384300Y1322937D01*
X385100Y1323337D01*
X384700Y1322537D01*
X385100Y1321737D01*
X384300Y1322137D01*
X383500Y1321737D01*
X383900Y1322137D02*
X384100Y1322537D01*
X383900Y1322937D01*
X384300Y1322737D01*
X384700Y1322937D01*
X384500Y1322537D01*
X384700Y1322137D01*
X384300Y1322337D01*
X383900Y1322137D01*
X348492Y1279544D02*
X348892Y1280344D01*
X348492Y1281144D01*
X349292Y1280744D01*
X350092Y1281144D01*
X349692Y1280344D01*
X350092Y1279544D01*
X349292Y1279944D01*
X348492Y1279544D01*
X348892Y1279944D02*
X349092Y1280344D01*
X348892Y1280744D01*
X349292Y1280544D01*
X349692Y1280744D01*
X349492Y1280344D01*
X349692Y1279944D01*
X349292Y1280144D01*
X348892Y1279944D01*
X416237Y1384620D02*
X416637Y1385420D01*
X416237Y1386220D01*
X417037Y1385820D01*
X417837Y1386220D01*
X417437Y1385420D01*
X417837Y1384620D01*
X417037Y1385020D01*
X416237Y1384620D01*
X416637Y1385020D02*
X416837Y1385420D01*
X416637Y1385820D01*
X417037Y1385620D01*
X417437Y1385820D01*
X417237Y1385420D01*
X417437Y1385020D01*
X417037Y1385220D01*
X416637Y1385020D01*
X416237Y1344856D02*
X416637Y1345656D01*
X416237Y1346456D01*
X417037Y1346056D01*
X417837Y1346456D01*
X417437Y1345656D01*
X417837Y1344856D01*
X417037Y1345256D01*
X416237Y1344856D01*
X416637Y1345256D02*
X416837Y1345656D01*
X416637Y1346056D01*
X417037Y1345856D01*
X417437Y1346056D01*
X417237Y1345656D01*
X417437Y1345256D01*
X417037Y1345456D01*
X416637Y1345256D01*
X359669Y1321087D02*
X360069Y1321887D01*
X359669Y1322687D01*
X360469Y1322287D01*
X361269Y1322687D01*
X360869Y1321887D01*
X361269Y1321087D01*
X360469Y1321487D01*
X359669Y1321087D01*
X360069Y1321487D02*
X360269Y1321887D01*
X360069Y1322287D01*
X360469Y1322087D01*
X360869Y1322287D01*
X360669Y1321887D01*
X360869Y1321487D01*
X360469Y1321687D01*
X360069Y1321487D01*
X313753Y1372163D02*
X314153Y1372963D01*
X313753Y1373763D01*
X314553Y1373363D01*
X315353Y1373763D01*
X314953Y1372963D01*
X315353Y1372163D01*
X314553Y1372563D01*
X313753Y1372163D01*
X314153Y1372563D02*
X314353Y1372963D01*
X314153Y1373363D01*
X314553Y1373163D01*
X314953Y1373363D01*
X314753Y1372963D01*
X314953Y1372563D01*
X314553Y1372763D01*
X314153Y1372563D01*
X313651Y1358675D02*
X314052Y1359475D01*
X313651Y1360275D01*
X314452Y1359875D01*
X315251Y1360275D01*
X314851Y1359475D01*
X315251Y1358675D01*
X314452Y1359075D01*
X313651Y1358675D01*
X314052Y1359075D02*
X314251Y1359475D01*
X314052Y1359875D01*
X314452Y1359675D01*
X314851Y1359875D01*
X314651Y1359475D01*
X314851Y1359075D01*
X314452Y1359275D01*
X314052Y1359075D01*
X321706Y1372163D02*
X322106Y1372963D01*
X321706Y1373763D01*
X322506Y1373363D01*
X323306Y1373763D01*
X322906Y1372963D01*
X323306Y1372163D01*
X322506Y1372563D01*
X321706Y1372163D01*
X322106Y1372563D02*
X322306Y1372963D01*
X322106Y1373363D01*
X322506Y1373163D01*
X322906Y1373363D01*
X322706Y1372963D01*
X322906Y1372563D01*
X322506Y1372763D01*
X322106Y1372563D01*
X405163Y1327224D02*
X405563Y1328024D01*
X405163Y1328824D01*
X405963Y1328424D01*
X406763Y1328824D01*
X406363Y1328024D01*
X406763Y1327224D01*
X405963Y1327624D01*
X405163Y1327224D01*
X405563Y1327624D02*
X405763Y1328024D01*
X405563Y1328424D01*
X405963Y1328224D01*
X406363Y1328424D01*
X406163Y1328024D01*
X406363Y1327624D01*
X405963Y1327824D01*
X405563Y1327624D01*
X416237Y1368714D02*
X416637Y1369514D01*
X416237Y1370314D01*
X417037Y1369914D01*
X417837Y1370314D01*
X417437Y1369514D01*
X417837Y1368714D01*
X417037Y1369114D01*
X416237Y1368714D01*
X416637Y1369114D02*
X416837Y1369514D01*
X416637Y1369914D01*
X417037Y1369714D01*
X417437Y1369914D01*
X417237Y1369514D01*
X417437Y1369114D01*
X417037Y1369314D01*
X416637Y1369114D01*
X281957Y1379814D02*
X282357Y1380614D01*
X281957Y1381414D01*
X282757Y1381014D01*
X283557Y1381414D01*
X283157Y1380614D01*
X283557Y1379814D01*
X282757Y1380214D01*
X281957Y1379814D01*
X282357Y1380214D02*
X282557Y1380614D01*
X282357Y1381014D01*
X282757Y1380814D01*
X283157Y1381014D01*
X282957Y1380614D01*
X283157Y1380214D01*
X282757Y1380414D01*
X282357Y1380214D01*
X282630Y1371890D02*
X283030Y1372690D01*
X282630Y1373490D01*
X283430Y1373090D01*
X284230Y1373490D01*
X283830Y1372690D01*
X284230Y1371890D01*
X283430Y1372290D01*
X282630Y1371890D01*
X283030Y1372290D02*
X283230Y1372690D01*
X283030Y1373090D01*
X283430Y1372890D01*
X283830Y1373090D01*
X283630Y1372690D01*
X283830Y1372290D01*
X283430Y1372490D01*
X283030Y1372290D01*
X312329Y1383237D02*
X312729Y1384037D01*
X312329Y1384837D01*
X313129Y1384437D01*
X313929Y1384837D01*
X313529Y1384037D01*
X313929Y1383237D01*
X313129Y1383637D01*
X312329Y1383237D01*
X312729Y1383637D02*
X312929Y1384037D01*
X312729Y1384437D01*
X313129Y1384237D01*
X313529Y1384437D01*
X313329Y1384037D01*
X313529Y1383637D01*
X313129Y1383837D01*
X312729Y1383637D01*
X303611Y1366683D02*
X304011Y1367483D01*
X303611Y1368283D01*
X304411Y1367883D01*
X305211Y1368283D01*
X304811Y1367483D01*
X305211Y1366683D01*
X304411Y1367083D01*
X303611Y1366683D01*
X304011Y1367083D02*
X304211Y1367483D01*
X304011Y1367883D01*
X304411Y1367683D01*
X304811Y1367883D01*
X304611Y1367483D01*
X304811Y1367083D01*
X304411Y1367283D01*
X304011Y1367083D01*
X327062Y1387393D02*
X327462Y1388193D01*
X327062Y1388993D01*
X327862Y1388593D01*
X328662Y1388993D01*
X328262Y1388193D01*
X328662Y1387393D01*
X327862Y1387793D01*
X327062Y1387393D01*
X327462Y1387793D02*
X327662Y1388193D01*
X327462Y1388593D01*
X327862Y1388393D01*
X328262Y1388593D01*
X328062Y1388193D01*
X328262Y1387793D01*
X327862Y1387993D01*
X327462Y1387793D01*
X352200Y1320700D02*
X352600Y1321500D01*
X352200Y1322300D01*
X353000Y1321900D01*
X353800Y1322300D01*
X353400Y1321500D01*
X353800Y1320700D01*
X353000Y1321100D01*
X352200Y1320700D01*
X352600Y1321100D02*
X352800Y1321500D01*
X352600Y1321900D01*
X353000Y1321700D01*
X353400Y1321900D01*
X353200Y1321500D01*
X353400Y1321100D01*
X353000Y1321300D01*
X352600Y1321100D01*
X405315Y1395722D02*
X405715Y1396522D01*
X405315Y1397322D01*
X406115Y1396922D01*
X406915Y1397322D01*
X406515Y1396522D01*
X406915Y1395722D01*
X406115Y1396122D01*
X405315Y1395722D01*
X405715Y1396122D02*
X405915Y1396522D01*
X405715Y1396922D01*
X406115Y1396722D01*
X406515Y1396922D01*
X406315Y1396522D01*
X406515Y1396122D01*
X406115Y1396322D01*
X405715Y1396122D01*
X391453Y1321737D02*
X391853Y1322537D01*
X391453Y1323337D01*
X392253Y1322937D01*
X393053Y1323337D01*
X392653Y1322537D01*
X393053Y1321737D01*
X392253Y1322137D01*
X391453Y1321737D01*
X391853Y1322137D02*
X392053Y1322537D01*
X391853Y1322937D01*
X392253Y1322737D01*
X392653Y1322937D01*
X392453Y1322537D01*
X392653Y1322137D01*
X392253Y1322337D01*
X391853Y1322137D01*
X305800Y1372163D02*
X306200Y1372963D01*
X305800Y1373763D01*
X306600Y1373363D01*
X307400Y1373763D01*
X307000Y1372963D01*
X307400Y1372163D01*
X306600Y1372563D01*
X305800Y1372163D01*
X306200Y1372563D02*
X306400Y1372963D01*
X306200Y1373363D01*
X306600Y1373163D01*
X307000Y1373363D01*
X306800Y1372963D01*
X307000Y1372563D01*
X306600Y1372763D01*
X306200Y1372563D01*
X416237Y1376667D02*
X416637Y1377467D01*
X416237Y1378267D01*
X417037Y1377867D01*
X417837Y1378267D01*
X417437Y1377467D01*
X417837Y1376667D01*
X417037Y1377067D01*
X416237Y1376667D01*
X416637Y1377067D02*
X416837Y1377467D01*
X416637Y1377867D01*
X417037Y1377667D01*
X417437Y1377867D01*
X417237Y1377467D01*
X417437Y1377067D01*
X417037Y1377267D01*
X416637Y1377067D01*
X416237Y1336903D02*
X416637Y1337703D01*
X416237Y1338503D01*
X417037Y1338103D01*
X417837Y1338503D01*
X417437Y1337703D01*
X417837Y1336903D01*
X417037Y1337303D01*
X416237Y1336903D01*
X416637Y1337303D02*
X416837Y1337703D01*
X416637Y1338103D01*
X417037Y1337903D01*
X417437Y1338103D01*
X417237Y1337703D01*
X417437Y1337303D01*
X417037Y1337503D01*
X416637Y1337303D01*
X311557Y1366347D02*
X311957Y1367147D01*
X311557Y1367947D01*
X312357Y1367547D01*
X313157Y1367947D01*
X312757Y1367147D01*
X313157Y1366347D01*
X312357Y1366747D01*
X311557Y1366347D01*
X311957Y1366747D02*
X312157Y1367147D01*
X311957Y1367547D01*
X312357Y1367347D01*
X312757Y1367547D01*
X312557Y1367147D01*
X312757Y1366747D01*
X312357Y1366947D01*
X311957Y1366747D01*
X367595Y1321737D02*
X367995Y1322537D01*
X367595Y1323337D01*
X368395Y1322937D01*
X369195Y1323337D01*
X368795Y1322537D01*
X369195Y1321737D01*
X368395Y1322137D01*
X367595Y1321737D01*
X367995Y1322137D02*
X368195Y1322537D01*
X367995Y1322937D01*
X368395Y1322737D01*
X368795Y1322937D01*
X368595Y1322537D01*
X368795Y1322137D01*
X368395Y1322337D01*
X367995Y1322137D01*
X255248Y1362169D02*
X255648Y1362969D01*
X255248Y1363769D01*
X256048Y1363369D01*
X256849Y1363769D01*
X256449Y1362969D01*
X256849Y1362169D01*
X256048Y1362569D01*
X255248Y1362169D01*
X255648Y1362569D02*
X255849Y1362969D01*
X255648Y1363369D01*
X256048Y1363169D01*
X256449Y1363369D01*
X256248Y1362969D01*
X256449Y1362569D01*
X256048Y1362769D01*
X255648Y1362569D01*
X294727Y1324163D02*
X295127Y1324963D01*
X294727Y1325763D01*
X295527Y1325363D01*
X296327Y1325763D01*
X295927Y1324963D01*
X296327Y1324163D01*
X295527Y1324563D01*
X294727Y1324163D01*
X295127Y1324563D02*
X295327Y1324963D01*
X295127Y1325363D01*
X295527Y1325163D01*
X295927Y1325363D01*
X295727Y1324963D01*
X295927Y1324563D01*
X295527Y1324763D01*
X295127Y1324563D01*
X299141Y1313285D02*
X299541Y1314085D01*
X299141Y1314885D01*
X299941Y1314485D01*
X300741Y1314885D01*
X300341Y1314085D01*
X300741Y1313285D01*
X299941Y1313685D01*
X299141Y1313285D01*
X299541Y1313685D02*
X299741Y1314085D01*
X299541Y1314485D01*
X299941Y1314285D01*
X300341Y1314485D01*
X300141Y1314085D01*
X300341Y1313685D01*
X299941Y1313885D01*
X299541Y1313685D01*
X283737Y1342146D02*
X284137Y1342945D01*
X283737Y1343746D01*
X284537Y1343346D01*
X285337Y1343746D01*
X284937Y1342945D01*
X285337Y1342146D01*
X284537Y1342546D01*
X283737Y1342146D01*
X284137Y1342546D02*
X284337Y1342945D01*
X284137Y1343346D01*
X284537Y1343145D01*
X284937Y1343346D01*
X284737Y1342945D01*
X284937Y1342546D01*
X284537Y1342745D01*
X284137Y1342546D01*
X283737Y1350098D02*
X284137Y1350898D01*
X283737Y1351698D01*
X284537Y1351298D01*
X285337Y1351698D01*
X284937Y1350898D01*
X285337Y1350098D01*
X284537Y1350498D01*
X283737Y1350098D01*
X284137Y1350498D02*
X284337Y1350898D01*
X284137Y1351298D01*
X284537Y1351098D01*
X284937Y1351298D01*
X284737Y1350898D01*
X284937Y1350498D01*
X284537Y1350698D01*
X284137Y1350498D01*
X271503Y1366563D02*
X271903Y1367363D01*
X271503Y1368163D01*
X272303Y1367763D01*
X273103Y1368163D01*
X272703Y1367363D01*
X273103Y1366563D01*
X272303Y1366963D01*
X271503Y1366563D01*
X271903Y1366963D02*
X272103Y1367363D01*
X271903Y1367763D01*
X272303Y1367563D01*
X272703Y1367763D01*
X272503Y1367363D01*
X272703Y1366963D01*
X272303Y1367163D01*
X271903Y1366963D01*
X362100Y1249600D02*
Y1249200D01*
X362900D01*
Y1249600D01*
X363300D01*
Y1250400D01*
X362900D01*
Y1250800D01*
X362100D01*
Y1250400D01*
X361700D01*
Y1249600D01*
X362100D01*
X362300Y1249800D02*
Y1249600D01*
X362700D01*
Y1249800D01*
X362900D01*
Y1250200D01*
X362700D01*
Y1250400D01*
X362300D01*
Y1250200D01*
X362100D01*
Y1249800D01*
X362300D01*
X357092Y1301944D02*
X357492Y1302744D01*
X357092Y1303544D01*
X357892Y1303144D01*
X358692Y1303544D01*
X358292Y1302744D01*
X358692Y1301944D01*
X357892Y1302344D01*
X357092Y1301944D01*
X357492Y1302344D02*
X357692Y1302744D01*
X357492Y1303144D01*
X357892Y1302944D01*
X358292Y1303144D01*
X358092Y1302744D01*
X358292Y1302344D01*
X357892Y1302544D01*
X357492Y1302344D01*
X416523Y1290539D02*
X416923Y1291339D01*
X416523Y1292138D01*
X417323Y1291739D01*
X418123Y1292138D01*
X417723Y1291339D01*
X418123Y1290539D01*
X417323Y1290938D01*
X416523Y1290539D01*
X416923Y1290938D02*
X417123Y1291339D01*
X416923Y1291739D01*
X417323Y1291539D01*
X417723Y1291739D01*
X417523Y1291339D01*
X417723Y1290938D01*
X417323Y1291138D01*
X416923Y1290938D01*
X408649Y1274790D02*
X409049Y1275590D01*
X408649Y1276390D01*
X409449Y1275990D01*
X410249Y1276390D01*
X409849Y1275590D01*
X410249Y1274790D01*
X409449Y1275190D01*
X408649Y1274790D01*
X409049Y1275190D02*
X409249Y1275590D01*
X409049Y1275990D01*
X409449Y1275790D01*
X409849Y1275990D01*
X409649Y1275590D01*
X409849Y1275190D01*
X409449Y1275390D01*
X409049Y1275190D01*
X416523Y1259042D02*
X416923Y1259842D01*
X416523Y1260642D01*
X417323Y1260242D01*
X418123Y1260642D01*
X417723Y1259842D01*
X418123Y1259042D01*
X417323Y1259442D01*
X416523Y1259042D01*
X416923Y1259442D02*
X417123Y1259842D01*
X416923Y1260242D01*
X417323Y1260042D01*
X417723Y1260242D01*
X417523Y1259842D01*
X417723Y1259442D01*
X417323Y1259642D01*
X416923Y1259442D01*
X400775Y1259042D02*
X401175Y1259842D01*
X400775Y1260642D01*
X401575Y1260242D01*
X402375Y1260642D01*
X401975Y1259842D01*
X402375Y1259042D01*
X401575Y1259442D01*
X400775Y1259042D01*
X401175Y1259442D02*
X401375Y1259842D01*
X401175Y1260242D01*
X401575Y1260042D01*
X401975Y1260242D01*
X401775Y1259842D01*
X401975Y1259442D01*
X401575Y1259642D01*
X401175Y1259442D01*
X369279Y1353531D02*
X369679Y1354331D01*
X369279Y1355131D01*
X370079Y1354731D01*
X370879Y1355131D01*
X370479Y1354331D01*
X370879Y1353531D01*
X370079Y1353931D01*
X369279Y1353531D01*
X369679Y1353931D02*
X369879Y1354331D01*
X369679Y1354731D01*
X370079Y1354531D01*
X370479Y1354731D01*
X370279Y1354331D01*
X370479Y1353931D01*
X370079Y1354131D01*
X369679Y1353931D01*
X369279Y1259042D02*
X369679Y1259842D01*
X369279Y1260642D01*
X370079Y1260242D01*
X370879Y1260642D01*
X370479Y1259842D01*
X370879Y1259042D01*
X370079Y1259442D01*
X369279Y1259042D01*
X369679Y1259442D02*
X369879Y1259842D01*
X369679Y1260242D01*
X370079Y1260042D01*
X370479Y1260242D01*
X370279Y1259842D01*
X370479Y1259442D01*
X370079Y1259642D01*
X369679Y1259442D01*
X353531Y1259042D02*
X353931Y1259842D01*
X353531Y1260642D01*
X354331Y1260242D01*
X355131Y1260642D01*
X354731Y1259842D01*
X355131Y1259042D01*
X354331Y1259442D01*
X353531Y1259042D01*
X353931Y1259442D02*
X354131Y1259842D01*
X353931Y1260242D01*
X354331Y1260042D01*
X354731Y1260242D01*
X354531Y1259842D01*
X354731Y1259442D01*
X354331Y1259642D01*
X353931Y1259442D01*
X337783Y1353531D02*
X338183Y1354331D01*
X337783Y1355131D01*
X338583Y1354731D01*
X339383Y1355131D01*
X338983Y1354331D01*
X339383Y1353531D01*
X338583Y1353931D01*
X337783Y1353531D01*
X338183Y1353931D02*
X338383Y1354331D01*
X338183Y1354731D01*
X338583Y1354531D01*
X338983Y1354731D01*
X338783Y1354331D01*
X338983Y1353931D01*
X338583Y1354131D01*
X338183Y1353931D01*
X337783Y1322034D02*
X338183Y1322834D01*
X337783Y1323635D01*
X338583Y1323234D01*
X339383Y1323635D01*
X338983Y1322834D01*
X339383Y1322034D01*
X338583Y1322435D01*
X337783Y1322034D01*
X338183Y1322435D02*
X338383Y1322834D01*
X338183Y1323234D01*
X338583Y1323034D01*
X338983Y1323234D01*
X338783Y1322834D01*
X338983Y1322435D01*
X338583Y1322635D01*
X338183Y1322435D01*
X337783Y1259042D02*
X338183Y1259842D01*
X337783Y1260642D01*
X338583Y1260242D01*
X339383Y1260642D01*
X338983Y1259842D01*
X339383Y1259042D01*
X338583Y1259442D01*
X337783Y1259042D01*
X338183Y1259442D02*
X338383Y1259842D01*
X338183Y1260242D01*
X338583Y1260042D01*
X338983Y1260242D01*
X338783Y1259842D01*
X338983Y1259442D01*
X338583Y1259642D01*
X338183Y1259442D01*
X314161Y1400775D02*
X314561Y1401575D01*
X314161Y1402375D01*
X314961Y1401975D01*
X315761Y1402375D01*
X315361Y1401575D01*
X315761Y1400775D01*
X314961Y1401175D01*
X314161Y1400775D01*
X314561Y1401175D02*
X314761Y1401575D01*
X314561Y1401975D01*
X314961Y1401775D01*
X315361Y1401975D01*
X315161Y1401575D01*
X315361Y1401175D01*
X314961Y1401375D01*
X314561Y1401175D01*
X322035Y1290539D02*
X322435Y1291339D01*
X322035Y1292138D01*
X322835Y1291739D01*
X323635Y1292138D01*
X323235Y1291339D01*
X323635Y1290539D01*
X322835Y1290938D01*
X322035Y1290539D01*
X322435Y1290938D02*
X322635Y1291339D01*
X322435Y1291739D01*
X322835Y1291539D01*
X323235Y1291739D01*
X323035Y1291339D01*
X323235Y1290938D01*
X322835Y1291138D01*
X322435Y1290938D01*
X306287Y1259042D02*
X306687Y1259842D01*
X306287Y1260642D01*
X307087Y1260242D01*
X307887Y1260642D01*
X307487Y1259842D01*
X307887Y1259042D01*
X307087Y1259442D01*
X306287Y1259042D01*
X306687Y1259442D02*
X306887Y1259842D01*
X306687Y1260242D01*
X307087Y1260042D01*
X307487Y1260242D01*
X307287Y1259842D01*
X307487Y1259442D01*
X307087Y1259642D01*
X306687Y1259442D01*
X290539Y1259042D02*
X290938Y1259842D01*
X290539Y1260642D01*
X291338Y1260242D01*
X292139Y1260642D01*
X291739Y1259842D01*
X292139Y1259042D01*
X291338Y1259442D01*
X290539Y1259042D01*
X290938Y1259442D02*
X291139Y1259842D01*
X290938Y1260242D01*
X291338Y1260042D01*
X291739Y1260242D01*
X291539Y1259842D01*
X291739Y1259442D01*
X291338Y1259642D01*
X290938Y1259442D01*
X274791Y1385027D02*
X275190Y1385827D01*
X274791Y1386627D01*
X275590Y1386227D01*
X276391Y1386627D01*
X275991Y1385827D01*
X276391Y1385027D01*
X275590Y1385427D01*
X274791Y1385027D01*
X275190Y1385427D02*
X275391Y1385827D01*
X275190Y1386227D01*
X275590Y1386027D01*
X275991Y1386227D01*
X275791Y1385827D01*
X275991Y1385427D01*
X275590Y1385627D01*
X275190Y1385427D01*
X274791Y1259042D02*
X275190Y1259842D01*
X274791Y1260642D01*
X275590Y1260242D01*
X276391Y1260642D01*
X275991Y1259842D01*
X276391Y1259042D01*
X275590Y1259442D01*
X274791Y1259042D01*
X275190Y1259442D02*
X275391Y1259842D01*
X275190Y1260242D01*
X275590Y1260042D01*
X275991Y1260242D01*
X275791Y1259842D01*
X275991Y1259442D01*
X275590Y1259642D01*
X275190Y1259442D01*
X259043Y1385027D02*
X259442Y1385827D01*
X259043Y1386627D01*
X259842Y1386227D01*
X260643Y1386627D01*
X260243Y1385827D01*
X260643Y1385027D01*
X259842Y1385427D01*
X259043Y1385027D01*
X259442Y1385427D02*
X259643Y1385827D01*
X259442Y1386227D01*
X259842Y1386027D01*
X260243Y1386227D01*
X260043Y1385827D01*
X260243Y1385427D01*
X259842Y1385627D01*
X259442Y1385427D01*
X251168Y1369279D02*
X251569Y1370079D01*
X251168Y1370879D01*
X251969Y1370479D01*
X252768Y1370879D01*
X252368Y1370079D01*
X252768Y1369279D01*
X251969Y1369679D01*
X251168Y1369279D01*
X251569Y1369679D02*
X251768Y1370079D01*
X251569Y1370479D01*
X251969Y1370279D01*
X252368Y1370479D01*
X252168Y1370079D01*
X252368Y1369679D01*
X251969Y1369879D01*
X251569Y1369679D01*
X259043Y1322034D02*
X259442Y1322834D01*
X259043Y1323635D01*
X259842Y1323234D01*
X260643Y1323635D01*
X260243Y1322834D01*
X260643Y1322034D01*
X259842Y1322435D01*
X259043Y1322034D01*
X259442Y1322435D02*
X259643Y1322834D01*
X259442Y1323234D01*
X259842Y1323034D01*
X260243Y1323234D01*
X260043Y1322834D01*
X260243Y1322435D01*
X259842Y1322635D01*
X259442Y1322435D01*
X235420Y1369279D02*
X235820Y1370079D01*
X235420Y1370879D01*
X236220Y1370479D01*
X237020Y1370879D01*
X236620Y1370079D01*
X237020Y1369279D01*
X236220Y1369679D01*
X235420Y1369279D01*
X235820Y1369679D02*
X236020Y1370079D01*
X235820Y1370479D01*
X236220Y1370279D01*
X236620Y1370479D01*
X236420Y1370079D01*
X236620Y1369679D01*
X236220Y1369879D01*
X235820Y1369679D01*
X243295Y1353531D02*
X243694Y1354331D01*
X243295Y1355131D01*
X244094Y1354731D01*
X244895Y1355131D01*
X244495Y1354331D01*
X244895Y1353531D01*
X244094Y1353931D01*
X243295Y1353531D01*
X243694Y1353931D02*
X243895Y1354331D01*
X243694Y1354731D01*
X244094Y1354531D01*
X244495Y1354731D01*
X244295Y1354331D01*
X244495Y1353931D01*
X244094Y1354131D01*
X243694Y1353931D01*
X227546Y1259042D02*
X227946Y1259842D01*
X227546Y1260642D01*
X228346Y1260242D01*
X229146Y1260642D01*
X228746Y1259842D01*
X229146Y1259042D01*
X228346Y1259442D01*
X227546Y1259042D01*
X227946Y1259442D02*
X228146Y1259842D01*
X227946Y1260242D01*
X228346Y1260042D01*
X228746Y1260242D01*
X228546Y1259842D01*
X228746Y1259442D01*
X228346Y1259642D01*
X227946Y1259442D01*
X211798Y1322034D02*
X212198Y1322834D01*
X211798Y1323635D01*
X212598Y1323234D01*
X213398Y1323635D01*
X212998Y1322834D01*
X213398Y1322034D01*
X212598Y1322435D01*
X211798Y1322034D01*
X212198Y1322435D02*
X212398Y1322834D01*
X212198Y1323234D01*
X212598Y1323034D01*
X212998Y1323234D01*
X212798Y1322834D01*
X212998Y1322435D01*
X212598Y1322635D01*
X212198Y1322435D01*
X188176Y1337783D02*
X188576Y1338583D01*
X188176Y1339383D01*
X188976Y1338983D01*
X189776Y1339383D01*
X189376Y1338583D01*
X189776Y1337783D01*
X188976Y1338183D01*
X188176Y1337783D01*
X188576Y1338183D02*
X188776Y1338583D01*
X188576Y1338983D01*
X188976Y1338783D01*
X189376Y1338983D01*
X189176Y1338583D01*
X189376Y1338183D01*
X188976Y1338383D01*
X188576Y1338183D01*
X196050Y1322034D02*
X196450Y1322834D01*
X196050Y1323635D01*
X196850Y1323234D01*
X197650Y1323635D01*
X197250Y1322834D01*
X197650Y1322034D01*
X196850Y1322435D01*
X196050Y1322034D01*
X196450Y1322435D02*
X196650Y1322834D01*
X196450Y1323234D01*
X196850Y1323034D01*
X197250Y1323234D01*
X197050Y1322834D01*
X197250Y1322435D01*
X196850Y1322635D01*
X196450Y1322435D01*
X188176Y1306287D02*
X188576Y1307086D01*
X188176Y1307887D01*
X188976Y1307487D01*
X189776Y1307887D01*
X189376Y1307086D01*
X189776Y1306287D01*
X188976Y1306686D01*
X188176Y1306287D01*
X188576Y1306686D02*
X188776Y1307086D01*
X188576Y1307487D01*
X188976Y1307286D01*
X189376Y1307487D01*
X189176Y1307086D01*
X189376Y1306686D01*
X188976Y1306886D01*
X188576Y1306686D01*
X172428Y1369279D02*
X172828Y1370079D01*
X172428Y1370879D01*
X173228Y1370479D01*
X174028Y1370879D01*
X173628Y1370079D01*
X174028Y1369279D01*
X173228Y1369679D01*
X172428Y1369279D01*
X172828Y1369679D02*
X173028Y1370079D01*
X172828Y1370479D01*
X173228Y1370279D01*
X173628Y1370479D01*
X173428Y1370079D01*
X173628Y1369679D01*
X173228Y1369879D01*
X172828Y1369679D01*
X172428Y1337783D02*
X172828Y1338583D01*
X172428Y1339383D01*
X173228Y1338983D01*
X174028Y1339383D01*
X173628Y1338583D01*
X174028Y1337783D01*
X173228Y1338183D01*
X172428Y1337783D01*
X172828Y1338183D02*
X173028Y1338583D01*
X172828Y1338983D01*
X173228Y1338783D01*
X173628Y1338983D01*
X173428Y1338583D01*
X173628Y1338183D01*
X173228Y1338383D01*
X172828Y1338183D01*
X180302Y1322034D02*
X180702Y1322834D01*
X180302Y1323635D01*
X181102Y1323234D01*
X181902Y1323635D01*
X181502Y1322834D01*
X181902Y1322034D01*
X181102Y1322435D01*
X180302Y1322034D01*
X180702Y1322435D02*
X180902Y1322834D01*
X180702Y1323234D01*
X181102Y1323034D01*
X181502Y1323234D01*
X181302Y1322834D01*
X181502Y1322435D01*
X181102Y1322635D01*
X180702Y1322435D01*
X172428Y1306287D02*
X172828Y1307086D01*
X172428Y1307887D01*
X173228Y1307487D01*
X174028Y1307887D01*
X173628Y1307086D01*
X174028Y1306287D01*
X173228Y1306686D01*
X172428Y1306287D01*
X172828Y1306686D02*
X173028Y1307086D01*
X172828Y1307487D01*
X173228Y1307286D01*
X173628Y1307487D01*
X173428Y1307086D01*
X173628Y1306686D01*
X173228Y1306886D01*
X172828Y1306686D01*
X172428Y1243294D02*
X172828Y1244094D01*
X172428Y1244894D01*
X173228Y1244494D01*
X174028Y1244894D01*
X173628Y1244094D01*
X174028Y1243294D01*
X173228Y1243694D01*
X172428Y1243294D01*
X172828Y1243694D02*
X173028Y1244094D01*
X172828Y1244494D01*
X173228Y1244294D01*
X173628Y1244494D01*
X173428Y1244094D01*
X173628Y1243694D01*
X173228Y1243894D01*
X172828Y1243694D01*
X156680Y1400775D02*
X157080Y1401575D01*
X156680Y1402375D01*
X157480Y1401975D01*
X158280Y1402375D01*
X157880Y1401575D01*
X158280Y1400775D01*
X157480Y1401175D01*
X156680Y1400775D01*
X157080Y1401175D02*
X157280Y1401575D01*
X157080Y1401975D01*
X157480Y1401775D01*
X157880Y1401975D01*
X157680Y1401575D01*
X157880Y1401175D01*
X157480Y1401375D01*
X157080Y1401175D01*
X164554Y1385027D02*
X164954Y1385827D01*
X164554Y1386627D01*
X165354Y1386227D01*
X166154Y1386627D01*
X165754Y1385827D01*
X166154Y1385027D01*
X165354Y1385427D01*
X164554Y1385027D01*
X164954Y1385427D02*
X165154Y1385827D01*
X164954Y1386227D01*
X165354Y1386027D01*
X165754Y1386227D01*
X165554Y1385827D01*
X165754Y1385427D01*
X165354Y1385627D01*
X164954Y1385427D01*
X156680Y1369279D02*
X157080Y1370079D01*
X156680Y1370879D01*
X157480Y1370479D01*
X158280Y1370879D01*
X157880Y1370079D01*
X158280Y1369279D01*
X157480Y1369679D01*
X156680Y1369279D01*
X157080Y1369679D02*
X157280Y1370079D01*
X157080Y1370479D01*
X157480Y1370279D01*
X157880Y1370479D01*
X157680Y1370079D01*
X157880Y1369679D01*
X157480Y1369879D01*
X157080Y1369679D01*
X164554Y1353531D02*
X164954Y1354331D01*
X164554Y1355131D01*
X165354Y1354731D01*
X166154Y1355131D01*
X165754Y1354331D01*
X166154Y1353531D01*
X165354Y1353931D01*
X164554Y1353531D01*
X164954Y1353931D02*
X165154Y1354331D01*
X164954Y1354731D01*
X165354Y1354531D01*
X165754Y1354731D01*
X165554Y1354331D01*
X165754Y1353931D01*
X165354Y1354131D01*
X164954Y1353931D01*
X156680Y1337783D02*
X157080Y1338583D01*
X156680Y1339383D01*
X157480Y1338983D01*
X158280Y1339383D01*
X157880Y1338583D01*
X158280Y1337783D01*
X157480Y1338183D01*
X156680Y1337783D01*
X157080Y1338183D02*
X157280Y1338583D01*
X157080Y1338983D01*
X157480Y1338783D01*
X157880Y1338983D01*
X157680Y1338583D01*
X157880Y1338183D01*
X157480Y1338383D01*
X157080Y1338183D01*
X164554Y1322034D02*
X164954Y1322834D01*
X164554Y1323635D01*
X165354Y1323234D01*
X166154Y1323635D01*
X165754Y1322834D01*
X166154Y1322034D01*
X165354Y1322435D01*
X164554Y1322034D01*
X164954Y1322435D02*
X165154Y1322834D01*
X164954Y1323234D01*
X165354Y1323034D01*
X165754Y1323234D01*
X165554Y1322834D01*
X165754Y1322435D01*
X165354Y1322635D01*
X164954Y1322435D01*
X156680Y1306287D02*
X157080Y1307086D01*
X156680Y1307887D01*
X157480Y1307487D01*
X158280Y1307887D01*
X157880Y1307086D01*
X158280Y1306287D01*
X157480Y1306686D01*
X156680Y1306287D01*
X157080Y1306686D02*
X157280Y1307086D01*
X157080Y1307487D01*
X157480Y1307286D01*
X157880Y1307487D01*
X157680Y1307086D01*
X157880Y1306686D01*
X157480Y1306886D01*
X157080Y1306686D01*
X156680Y1274790D02*
X157080Y1275590D01*
X156680Y1276390D01*
X157480Y1275990D01*
X158280Y1276390D01*
X157880Y1275590D01*
X158280Y1274790D01*
X157480Y1275190D01*
X156680Y1274790D01*
X157080Y1275190D02*
X157280Y1275590D01*
X157080Y1275990D01*
X157480Y1275790D01*
X157880Y1275990D01*
X157680Y1275590D01*
X157880Y1275190D01*
X157480Y1275390D01*
X157080Y1275190D01*
X156680Y1243294D02*
X157080Y1244094D01*
X156680Y1244894D01*
X157480Y1244494D01*
X158280Y1244894D01*
X157880Y1244094D01*
X158280Y1243294D01*
X157480Y1243694D01*
X156680Y1243294D01*
X157080Y1243694D02*
X157280Y1244094D01*
X157080Y1244494D01*
X157480Y1244294D01*
X157880Y1244494D01*
X157680Y1244094D01*
X157880Y1243694D01*
X157480Y1243894D01*
X157080Y1243694D01*
X284965Y1286168D02*
X285365Y1286969D01*
X284965Y1287768D01*
X285765Y1287368D01*
X286565Y1287768D01*
X286165Y1286969D01*
X286565Y1286168D01*
X285765Y1286569D01*
X284965Y1286168D01*
X285365Y1286569D02*
X285565Y1286969D01*
X285365Y1287368D01*
X285765Y1287169D01*
X286165Y1287368D01*
X285965Y1286969D01*
X286165Y1286569D01*
X285765Y1286769D01*
X285365Y1286569D01*
X313435Y1285668D02*
X313835Y1286469D01*
X313435Y1287269D01*
X314235Y1286868D01*
X315035Y1287269D01*
X314635Y1286469D01*
X315035Y1285668D01*
X314235Y1286069D01*
X313435Y1285668D01*
X313835Y1286069D02*
X314035Y1286469D01*
X313835Y1286868D01*
X314235Y1286668D01*
X314635Y1286868D01*
X314435Y1286469D01*
X314635Y1286069D01*
X314235Y1286269D01*
X313835Y1286069D01*
X272669Y1297465D02*
X273068Y1298265D01*
X272669Y1299065D01*
X273468Y1298665D01*
X274269Y1299065D01*
X273868Y1298265D01*
X274269Y1297465D01*
X273468Y1297865D01*
X272669Y1297465D01*
X273068Y1297865D02*
X273269Y1298265D01*
X273068Y1298665D01*
X273468Y1298465D01*
X273868Y1298665D01*
X273669Y1298265D01*
X273868Y1297865D01*
X273468Y1298065D01*
X273068Y1297865D01*
X267582Y1284588D02*
X267982Y1285388D01*
X267582Y1286188D01*
X268382Y1285788D01*
X269182Y1286188D01*
X268782Y1285388D01*
X269182Y1284588D01*
X268382Y1284988D01*
X267582Y1284588D01*
X267982Y1284988D02*
X268182Y1285388D01*
X267982Y1285788D01*
X268382Y1285588D01*
X268782Y1285788D01*
X268582Y1285388D01*
X268782Y1284988D01*
X268382Y1285188D01*
X267982Y1284988D01*
X279700Y1291700D02*
X280100Y1292500D01*
X279700Y1293300D01*
X280500Y1292900D01*
X281300Y1293300D01*
X280900Y1292500D01*
X281300Y1291700D01*
X280500Y1292100D01*
X279700Y1291700D01*
X280100Y1292100D02*
X280300Y1292500D01*
X280100Y1292900D01*
X280500Y1292700D01*
X280900Y1292900D01*
X280700Y1292500D01*
X280900Y1292100D01*
X280500Y1292300D01*
X280100Y1292100D01*
X295700Y1285700D02*
X296100Y1286500D01*
X295700Y1287300D01*
X296500Y1286900D01*
X297300Y1287300D01*
X296900Y1286500D01*
X297300Y1285700D01*
X296500Y1286100D01*
X295700Y1285700D01*
X296100Y1286100D02*
X296300Y1286500D01*
X296100Y1286900D01*
X296500Y1286700D01*
X296900Y1286900D01*
X296700Y1286500D01*
X296900Y1286100D01*
X296500Y1286300D01*
X296100Y1286100D01*
X305739Y1285668D02*
X306139Y1286469D01*
X305739Y1287269D01*
X306539Y1286868D01*
X307339Y1287269D01*
X306939Y1286469D01*
X307339Y1285668D01*
X306539Y1286069D01*
X305739Y1285668D01*
X306139Y1286069D02*
X306339Y1286469D01*
X306139Y1286868D01*
X306539Y1286668D01*
X306939Y1286868D01*
X306739Y1286469D01*
X306939Y1286069D01*
X306539Y1286269D01*
X306139Y1286069D01*
X309402Y1271163D02*
X309803Y1271963D01*
X309402Y1272763D01*
X310203Y1272363D01*
X311002Y1272763D01*
X310602Y1271963D01*
X311002Y1271163D01*
X310203Y1271563D01*
X309402Y1271163D01*
X309803Y1271563D02*
X310002Y1271963D01*
X309803Y1272363D01*
X310203Y1272163D01*
X310602Y1272363D01*
X310402Y1271963D01*
X310602Y1271563D01*
X310203Y1271763D01*
X309803Y1271563D01*
X301450Y1271163D02*
X301850Y1271963D01*
X301450Y1272763D01*
X302250Y1272363D01*
X303050Y1272763D01*
X302650Y1271963D01*
X303050Y1271163D01*
X302250Y1271563D01*
X301450Y1271163D01*
X301850Y1271563D02*
X302050Y1271963D01*
X301850Y1272363D01*
X302250Y1272163D01*
X302650Y1272363D01*
X302450Y1271963D01*
X302650Y1271563D01*
X302250Y1271763D01*
X301850Y1271563D01*
X293497Y1271163D02*
X293897Y1271963D01*
X293497Y1272763D01*
X294297Y1272363D01*
X295097Y1272763D01*
X294697Y1271963D01*
X295097Y1271163D01*
X294297Y1271563D01*
X293497Y1271163D01*
X293897Y1271563D02*
X294097Y1271963D01*
X293897Y1272363D01*
X294297Y1272163D01*
X294697Y1272363D01*
X294497Y1271963D01*
X294697Y1271563D01*
X294297Y1271763D01*
X293897Y1271563D01*
X317355Y1271163D02*
X317755Y1271963D01*
X317355Y1272763D01*
X318155Y1272363D01*
X318955Y1272763D01*
X318555Y1271963D01*
X318955Y1271163D01*
X318155Y1271563D01*
X317355Y1271163D01*
X317755Y1271563D02*
X317955Y1271963D01*
X317755Y1272363D01*
X318155Y1272163D01*
X318555Y1272363D01*
X318355Y1271963D01*
X318555Y1271563D01*
X318155Y1271763D01*
X317755Y1271563D01*
X319472Y1365303D02*
X319872Y1366103D01*
X319472Y1366903D01*
X320272Y1366503D01*
X321072Y1366903D01*
X320672Y1366103D01*
X321072Y1365303D01*
X320272Y1365703D01*
X319472Y1365303D01*
X319872Y1365703D02*
X320072Y1366103D01*
X319872Y1366503D01*
X320272Y1366303D01*
X320672Y1366503D01*
X320472Y1366103D01*
X320672Y1365703D01*
X320272Y1365903D01*
X319872Y1365703D01*
X316163Y1350119D02*
X316563Y1350919D01*
X316163Y1351719D01*
X316963Y1351319D01*
X317763Y1351719D01*
X317363Y1350919D01*
X317763Y1350119D01*
X316963Y1350519D01*
X316163Y1350119D01*
X316563Y1350519D02*
X316763Y1350919D01*
X316563Y1351319D01*
X316963Y1351119D01*
X317363Y1351319D01*
X317163Y1350919D01*
X317363Y1350519D01*
X316963Y1350719D01*
X316563Y1350519D01*
X316163Y1342166D02*
X316563Y1342966D01*
X316163Y1343766D01*
X316963Y1343366D01*
X317763Y1343766D01*
X317363Y1342966D01*
X317763Y1342166D01*
X316963Y1342566D01*
X316163Y1342166D01*
X316563Y1342566D02*
X316763Y1342966D01*
X316563Y1343366D01*
X316963Y1343166D01*
X317363Y1343366D01*
X317163Y1342966D01*
X317363Y1342566D01*
X316963Y1342766D01*
X316563Y1342566D01*
X316163Y1326261D02*
X316563Y1327061D01*
X316163Y1327861D01*
X316963Y1327461D01*
X317763Y1327861D01*
X317363Y1327061D01*
X317763Y1326261D01*
X316963Y1326661D01*
X316163Y1326261D01*
X316563Y1326661D02*
X316763Y1327061D01*
X316563Y1327461D01*
X316963Y1327261D01*
X317363Y1327461D01*
X317163Y1327061D01*
X317363Y1326661D01*
X316963Y1326861D01*
X316563Y1326661D01*
X316163Y1318308D02*
X316563Y1319108D01*
X316163Y1319908D01*
X316963Y1319508D01*
X317763Y1319908D01*
X317363Y1319108D01*
X317763Y1318308D01*
X316963Y1318708D01*
X316163Y1318308D01*
X316563Y1318708D02*
X316763Y1319108D01*
X316563Y1319508D01*
X316963Y1319308D01*
X317363Y1319508D01*
X317163Y1319108D01*
X317363Y1318708D01*
X316963Y1318908D01*
X316563Y1318708D01*
X316163Y1310355D02*
X316563Y1311155D01*
X316163Y1311955D01*
X316963Y1311555D01*
X317763Y1311955D01*
X317363Y1311155D01*
X317763Y1310355D01*
X316963Y1310755D01*
X316163Y1310355D01*
X316563Y1310755D02*
X316763Y1311155D01*
X316563Y1311555D01*
X316963Y1311355D01*
X317363Y1311555D01*
X317163Y1311155D01*
X317363Y1310755D01*
X316963Y1310955D01*
X316563Y1310755D01*
X310534Y1304737D02*
X310934Y1305537D01*
X310534Y1306337D01*
X311334Y1305937D01*
X312134Y1306337D01*
X311734Y1305537D01*
X312134Y1304737D01*
X311334Y1305137D01*
X310534Y1304737D01*
X310934Y1305137D02*
X311134Y1305537D01*
X310934Y1305937D01*
X311334Y1305737D01*
X311734Y1305937D01*
X311534Y1305537D01*
X311734Y1305137D01*
X311334Y1305337D01*
X310934Y1305137D01*
X302581Y1304737D02*
X302981Y1305537D01*
X302581Y1306337D01*
X303381Y1305937D01*
X304181Y1306337D01*
X303781Y1305537D01*
X304181Y1304737D01*
X303381Y1305137D01*
X302581Y1304737D01*
X302981Y1305137D02*
X303181Y1305537D01*
X302981Y1305937D01*
X303381Y1305737D01*
X303781Y1305937D01*
X303581Y1305537D01*
X303781Y1305137D01*
X303381Y1305337D01*
X302981Y1305137D01*
X294628Y1304737D02*
X295028Y1305537D01*
X294628Y1306337D01*
X295428Y1305937D01*
X296228Y1306337D01*
X295828Y1305537D01*
X296228Y1304737D01*
X295428Y1305137D01*
X294628Y1304737D01*
X295028Y1305137D02*
X295228Y1305537D01*
X295028Y1305937D01*
X295428Y1305737D01*
X295828Y1305937D01*
X295628Y1305537D01*
X295828Y1305137D01*
X295428Y1305337D01*
X295028Y1305137D01*
X287005Y1307002D02*
X287405Y1307802D01*
X287005Y1308602D01*
X287805Y1308202D01*
X288605Y1308602D01*
X288205Y1307802D01*
X288605Y1307002D01*
X287805Y1307402D01*
X287005Y1307002D01*
X287405Y1307402D02*
X287605Y1307802D01*
X287405Y1308202D01*
X287805Y1308002D01*
X288205Y1308202D01*
X288005Y1307802D01*
X288205Y1307402D01*
X287805Y1307602D01*
X287405Y1307402D01*
X288719Y1314768D02*
X289119Y1315568D01*
X288719Y1316368D01*
X289519Y1315968D01*
X290319Y1316368D01*
X289919Y1315568D01*
X290319Y1314768D01*
X289519Y1315168D01*
X288719Y1314768D01*
X289119Y1315168D02*
X289319Y1315568D01*
X289119Y1315968D01*
X289519Y1315768D01*
X289919Y1315968D01*
X289719Y1315568D01*
X289919Y1315168D01*
X289519Y1315368D01*
X289119Y1315168D01*
X285746Y1322144D02*
X286145Y1322944D01*
X285746Y1323744D01*
X286545Y1323344D01*
X287346Y1323744D01*
X286946Y1322944D01*
X287346Y1322144D01*
X286545Y1322544D01*
X285746Y1322144D01*
X286145Y1322544D02*
X286346Y1322944D01*
X286145Y1323344D01*
X286545Y1323144D01*
X286946Y1323344D01*
X286746Y1322944D01*
X286946Y1322544D01*
X286545Y1322744D01*
X286145Y1322544D01*
X277793Y1322217D02*
X278193Y1323017D01*
X277793Y1323817D01*
X278593Y1323417D01*
X279393Y1323817D01*
X278993Y1323017D01*
X279393Y1322217D01*
X278593Y1322617D01*
X277793Y1322217D01*
X278193Y1322617D02*
X278393Y1323017D01*
X278193Y1323417D01*
X278593Y1323217D01*
X278993Y1323417D01*
X278793Y1323017D01*
X278993Y1322617D01*
X278593Y1322817D01*
X278193Y1322617D01*
X274178Y1315134D02*
X274578Y1315934D01*
X274178Y1316734D01*
X274978Y1316334D01*
X275778Y1316734D01*
X275378Y1315934D01*
X275778Y1315134D01*
X274978Y1315534D01*
X274178Y1315134D01*
X274578Y1315534D02*
X274778Y1315934D01*
X274578Y1316334D01*
X274978Y1316134D01*
X275378Y1316334D01*
X275178Y1315934D01*
X275378Y1315534D01*
X274978Y1315734D01*
X274578Y1315534D01*
X275853Y1307359D02*
X276253Y1308159D01*
X275853Y1308959D01*
X276653Y1308559D01*
X277453Y1308959D01*
X277053Y1308159D01*
X277453Y1307359D01*
X276653Y1307759D01*
X275853Y1307359D01*
X276253Y1307759D02*
X276453Y1308159D01*
X276253Y1308559D01*
X276653Y1308359D01*
X277053Y1308559D01*
X276853Y1308159D01*
X277053Y1307759D01*
X276653Y1307959D01*
X276253Y1307759D01*
X292011Y1293663D02*
X292411Y1294463D01*
X292011Y1295263D01*
X292811Y1294863D01*
X293612Y1295263D01*
X293212Y1294463D01*
X293612Y1293663D01*
X292811Y1294063D01*
X292011Y1293663D01*
X292411Y1294063D02*
X292612Y1294463D01*
X292411Y1294863D01*
X292811Y1294663D01*
X293212Y1294863D01*
X293011Y1294463D01*
X293212Y1294063D01*
X292811Y1294263D01*
X292411Y1294063D01*
X299964Y1293663D02*
X300364Y1294463D01*
X299964Y1295263D01*
X300764Y1294863D01*
X301564Y1295263D01*
X301164Y1294463D01*
X301564Y1293663D01*
X300764Y1294063D01*
X299964Y1293663D01*
X300364Y1294063D02*
X300564Y1294463D01*
X300364Y1294863D01*
X300764Y1294663D01*
X301164Y1294863D01*
X300964Y1294463D01*
X301164Y1294063D01*
X300764Y1294263D01*
X300364Y1294063D01*
X307917Y1293663D02*
X308317Y1294463D01*
X307917Y1295263D01*
X308717Y1294863D01*
X309517Y1295263D01*
X309117Y1294463D01*
X309517Y1293663D01*
X308717Y1294063D01*
X307917Y1293663D01*
X308317Y1294063D02*
X308517Y1294463D01*
X308317Y1294863D01*
X308717Y1294663D01*
X309117Y1294863D01*
X308917Y1294463D01*
X309117Y1294063D01*
X308717Y1294263D01*
X308317Y1294063D01*
X315870Y1293663D02*
X316270Y1294463D01*
X315870Y1295263D01*
X316670Y1294863D01*
X317470Y1295263D01*
X317070Y1294463D01*
X317470Y1293663D01*
X316670Y1294063D01*
X315870Y1293663D01*
X316270Y1294063D02*
X316470Y1294463D01*
X316270Y1294863D01*
X316670Y1294663D01*
X317070Y1294863D01*
X316870Y1294463D01*
X317070Y1294063D01*
X316670Y1294263D01*
X316270Y1294063D01*
X323164Y1296833D02*
X323564Y1297633D01*
X323164Y1298433D01*
X323963Y1298033D01*
X324763Y1298433D01*
X324363Y1297633D01*
X324763Y1296833D01*
X323963Y1297233D01*
X323164Y1296833D01*
X323564Y1297233D02*
X323763Y1297633D01*
X323564Y1298033D01*
X323963Y1297833D01*
X324363Y1298033D01*
X324164Y1297633D01*
X324363Y1297233D01*
X323963Y1297433D01*
X323564Y1297233D01*
X327237Y1343427D02*
X327637Y1344227D01*
X327237Y1345027D01*
X328037Y1344627D01*
X328837Y1345027D01*
X328437Y1344227D01*
X328837Y1343427D01*
X328037Y1343827D01*
X327237Y1343427D01*
X327637Y1343827D02*
X327837Y1344227D01*
X327637Y1344627D01*
X328037Y1344427D01*
X328437Y1344627D01*
X328237Y1344227D01*
X328437Y1343827D01*
X328037Y1344027D01*
X327637Y1343827D01*
X327237Y1351379D02*
X327637Y1352179D01*
X327237Y1352979D01*
X328037Y1352579D01*
X328837Y1352979D01*
X328437Y1352179D01*
X328837Y1351379D01*
X328037Y1351779D01*
X327237Y1351379D01*
X327637Y1351779D02*
X327837Y1352179D01*
X327637Y1352579D01*
X328037Y1352379D01*
X328437Y1352579D01*
X328237Y1352179D01*
X328437Y1351779D01*
X328037Y1351979D01*
X327637Y1351779D01*
X328972Y1359141D02*
X329372Y1359941D01*
X328972Y1360741D01*
X329772Y1360341D01*
X330572Y1360741D01*
X330172Y1359941D01*
X330572Y1359141D01*
X329772Y1359541D01*
X328972Y1359141D01*
X329372Y1359541D02*
X329572Y1359941D01*
X329372Y1360341D01*
X329772Y1360141D01*
X330172Y1360341D01*
X329972Y1359941D01*
X330172Y1359541D01*
X329772Y1359741D01*
X329372Y1359541D01*
X334595Y1364764D02*
X334995Y1365564D01*
X334595Y1366364D01*
X335395Y1365964D01*
X336195Y1366364D01*
X335795Y1365564D01*
X336195Y1364764D01*
X335395Y1365164D01*
X334595Y1364764D01*
X334995Y1365164D02*
X335195Y1365564D01*
X334995Y1365964D01*
X335395Y1365764D01*
X335795Y1365964D01*
X335595Y1365564D01*
X335795Y1365164D01*
X335395Y1365364D01*
X334995Y1365164D01*
X340218Y1370388D02*
X340618Y1371188D01*
X340218Y1371988D01*
X341019Y1371588D01*
X341818Y1371988D01*
X341419Y1371188D01*
X341818Y1370388D01*
X341019Y1370788D01*
X340218Y1370388D01*
X340618Y1370788D02*
X340819Y1371188D01*
X340618Y1371588D01*
X341019Y1371388D01*
X341419Y1371588D01*
X341218Y1371188D01*
X341419Y1370788D01*
X341019Y1370988D01*
X340618Y1370788D01*
X390226Y1372540D02*
X390626Y1373340D01*
X390226Y1374140D01*
X391026Y1373740D01*
X391826Y1374140D01*
X391426Y1373340D01*
X391826Y1372540D01*
X391026Y1372940D01*
X390226Y1372540D01*
X390626Y1372940D02*
X390826Y1373340D01*
X390626Y1373740D01*
X391026Y1373540D01*
X391426Y1373740D01*
X391226Y1373340D01*
X391426Y1372940D01*
X391026Y1373140D01*
X390626Y1372940D01*
X390226Y1364587D02*
X390626Y1365387D01*
X390226Y1366187D01*
X391026Y1365787D01*
X391826Y1366187D01*
X391426Y1365387D01*
X391826Y1364587D01*
X391026Y1364987D01*
X390226Y1364587D01*
X390626Y1364987D02*
X390826Y1365387D01*
X390626Y1365787D01*
X391026Y1365587D01*
X391426Y1365787D01*
X391226Y1365387D01*
X391426Y1364987D01*
X391026Y1365187D01*
X390626Y1364987D01*
X390226Y1356634D02*
X390626Y1357434D01*
X390226Y1358234D01*
X391026Y1357834D01*
X391826Y1358234D01*
X391426Y1357434D01*
X391826Y1356634D01*
X391026Y1357034D01*
X390226Y1356634D01*
X390626Y1357034D02*
X390826Y1357434D01*
X390626Y1357834D01*
X391026Y1357634D01*
X391426Y1357834D01*
X391226Y1357434D01*
X391426Y1357034D01*
X391026Y1357234D01*
X390626Y1357034D01*
X397924Y1332486D02*
X398324Y1333286D01*
X397924Y1334086D01*
X398724Y1333686D01*
X399524Y1334086D01*
X399124Y1333286D01*
X399524Y1332486D01*
X398724Y1332886D01*
X397924Y1332486D01*
X398324Y1332886D02*
X398524Y1333286D01*
X398324Y1333686D01*
X398724Y1333486D01*
X399124Y1333686D01*
X398924Y1333286D01*
X399124Y1332886D01*
X398724Y1333086D01*
X398324Y1332886D01*
X387667Y1346171D02*
X388067Y1346971D01*
X387667Y1347771D01*
X388467Y1347371D01*
X389267Y1347771D01*
X388867Y1346971D01*
X389267Y1346171D01*
X388467Y1346571D01*
X387667Y1346171D01*
X388067Y1346571D02*
X388267Y1346971D01*
X388067Y1347371D01*
X388467Y1347171D01*
X388867Y1347371D01*
X388667Y1346971D01*
X388867Y1346571D01*
X388467Y1346771D01*
X388067Y1346571D01*
X354412Y1378220D02*
X354812Y1379020D01*
X354412Y1379820D01*
X355212Y1379420D01*
X356012Y1379820D01*
X355612Y1379020D01*
X356012Y1378220D01*
X355212Y1378620D01*
X354412Y1378220D01*
X354812Y1378620D02*
X355012Y1379020D01*
X354812Y1379420D01*
X355212Y1379220D01*
X355612Y1379420D01*
X355412Y1379020D01*
X355612Y1378620D01*
X355212Y1378820D01*
X354812Y1378620D01*
X350647Y1371214D02*
X351047Y1372015D01*
X350647Y1372814D01*
X351447Y1372414D01*
X352247Y1372814D01*
X351847Y1372015D01*
X352247Y1371214D01*
X351447Y1371614D01*
X350647Y1371214D01*
X351047Y1371614D02*
X351247Y1372015D01*
X351047Y1372414D01*
X351447Y1372215D01*
X351847Y1372414D01*
X351647Y1372015D01*
X351847Y1371614D01*
X351447Y1371815D01*
X351047Y1371614D01*
X346920Y1364189D02*
X347320Y1364989D01*
X346920Y1365789D01*
X347720Y1365389D01*
X348520Y1365789D01*
X348120Y1364989D01*
X348520Y1364189D01*
X347720Y1364589D01*
X346920Y1364189D01*
X347320Y1364589D02*
X347520Y1364989D01*
X347320Y1365389D01*
X347720Y1365189D01*
X348120Y1365389D01*
X347920Y1364989D01*
X348120Y1364589D01*
X347720Y1364789D01*
X347320Y1364589D01*
X346909Y1356236D02*
X347309Y1357036D01*
X346909Y1357837D01*
X347709Y1357436D01*
X348509Y1357837D01*
X348109Y1357036D01*
X348509Y1356236D01*
X347709Y1356637D01*
X346909Y1356236D01*
X347309Y1356637D02*
X347509Y1357036D01*
X347309Y1357436D01*
X347709Y1357236D01*
X348109Y1357436D01*
X347909Y1357036D01*
X348109Y1356637D01*
X347709Y1356837D01*
X347309Y1356637D01*
X365620Y1361032D02*
X366020Y1361832D01*
X365620Y1362632D01*
X366420Y1362232D01*
X367220Y1362632D01*
X366820Y1361832D01*
X367220Y1361032D01*
X366420Y1361432D01*
X365620Y1361032D01*
X366020Y1361432D02*
X366220Y1361832D01*
X366020Y1362232D01*
X366420Y1362032D01*
X366820Y1362232D01*
X366620Y1361832D01*
X366820Y1361432D01*
X366420Y1361632D01*
X366020Y1361432D01*
X364689Y1368931D02*
X365089Y1369730D01*
X364689Y1370531D01*
X365489Y1370131D01*
X366289Y1370531D01*
X365889Y1369730D01*
X366289Y1368931D01*
X365489Y1369331D01*
X364689Y1368931D01*
X365089Y1369331D02*
X365289Y1369730D01*
X365089Y1370131D01*
X365489Y1369930D01*
X365889Y1370131D01*
X365689Y1369730D01*
X365889Y1369331D01*
X365489Y1369530D01*
X365089Y1369331D01*
X348269Y1315010D02*
X348669Y1315810D01*
X348269Y1316610D01*
X349069Y1316210D01*
X349869Y1316610D01*
X349469Y1315810D01*
X349869Y1315010D01*
X349069Y1315410D01*
X348269Y1315010D01*
X348669Y1315410D02*
X348869Y1315810D01*
X348669Y1316210D01*
X349069Y1316010D01*
X349469Y1316210D01*
X349269Y1315810D01*
X349469Y1315410D01*
X349069Y1315610D01*
X348669Y1315410D01*
X342601Y1309432D02*
X343001Y1310232D01*
X342601Y1311032D01*
X343401Y1310632D01*
X344201Y1311032D01*
X343801Y1310232D01*
X344201Y1309432D01*
X343401Y1309832D01*
X342601Y1309432D01*
X343001Y1309832D02*
X343201Y1310232D01*
X343001Y1310632D01*
X343401Y1310432D01*
X343801Y1310632D01*
X343601Y1310232D01*
X343801Y1309832D01*
X343401Y1310032D01*
X343001Y1309832D01*
X336977Y1303808D02*
X337377Y1304608D01*
X336977Y1305408D01*
X337777Y1305008D01*
X338577Y1305408D01*
X338177Y1304608D01*
X338577Y1303808D01*
X337777Y1304208D01*
X336977Y1303808D01*
X337377Y1304208D02*
X337577Y1304608D01*
X337377Y1305008D01*
X337777Y1304808D01*
X338177Y1305008D01*
X337977Y1304608D01*
X338177Y1304208D01*
X337777Y1304408D01*
X337377Y1304208D01*
X253700Y1286200D02*
X254100Y1287000D01*
X253700Y1287800D01*
X254500Y1287400D01*
X255300Y1287800D01*
X254900Y1287000D01*
X255300Y1286200D01*
X254500Y1286600D01*
X253700Y1286200D01*
X254100Y1286600D02*
X254300Y1287000D01*
X254100Y1287400D01*
X254500Y1287200D01*
X254900Y1287400D01*
X254700Y1287000D01*
X254900Y1286600D01*
X254500Y1286800D01*
X254100Y1286600D01*
X242616Y1285262D02*
X243016Y1286062D01*
X242616Y1286862D01*
X243416Y1286462D01*
X244216Y1286862D01*
X243816Y1286062D01*
X244216Y1285262D01*
X243416Y1285662D01*
X242616Y1285262D01*
X243016Y1285662D02*
X243216Y1286062D01*
X243016Y1286462D01*
X243416Y1286262D01*
X243816Y1286462D01*
X243616Y1286062D01*
X243816Y1285662D01*
X243416Y1285862D01*
X243016Y1285662D01*
X237544Y1279136D02*
X237945Y1279936D01*
X237544Y1280736D01*
X238345Y1280336D01*
X239144Y1280736D01*
X238744Y1279936D01*
X239144Y1279136D01*
X238345Y1279536D01*
X237544Y1279136D01*
X237945Y1279536D02*
X238144Y1279936D01*
X237945Y1280336D01*
X238345Y1280136D01*
X238744Y1280336D01*
X238545Y1279936D01*
X238744Y1279536D01*
X238345Y1279736D01*
X237945Y1279536D01*
X239205Y1271359D02*
X239605Y1272159D01*
X239205Y1272959D01*
X240005Y1272559D01*
X240805Y1272959D01*
X240405Y1272159D01*
X240805Y1271359D01*
X240005Y1271759D01*
X239205Y1271359D01*
X239605Y1271759D02*
X239805Y1272159D01*
X239605Y1272559D01*
X240005Y1272359D01*
X240405Y1272559D01*
X240205Y1272159D01*
X240405Y1271759D01*
X240005Y1271959D01*
X239605Y1271759D01*
X254700Y1267700D02*
X255100Y1268500D01*
X254700Y1269300D01*
X255500Y1268900D01*
X256300Y1269300D01*
X255900Y1268500D01*
X256300Y1267700D01*
X255500Y1268100D01*
X254700Y1267700D01*
X255100Y1268100D02*
X255300Y1268500D01*
X255100Y1268900D01*
X255500Y1268700D01*
X255900Y1268900D01*
X255700Y1268500D01*
X255900Y1268100D01*
X255500Y1268300D01*
X255100Y1268100D01*
X269700Y1270200D02*
X270100Y1271000D01*
X269700Y1271800D01*
X270500Y1271400D01*
X271300Y1271800D01*
X270900Y1271000D01*
X271300Y1270200D01*
X270500Y1270600D01*
X269700Y1270200D01*
X270100Y1270600D02*
X270300Y1271000D01*
X270100Y1271400D01*
X270500Y1271200D01*
X270900Y1271400D01*
X270700Y1271000D01*
X270900Y1270600D01*
X270500Y1270800D01*
X270100Y1270600D01*
X277591Y1271163D02*
X277992Y1271963D01*
X277591Y1272763D01*
X278392Y1272363D01*
X279191Y1272763D01*
X278791Y1271963D01*
X279191Y1271163D01*
X278392Y1271563D01*
X277591Y1271163D01*
X277992Y1271563D02*
X278191Y1271963D01*
X277992Y1272363D01*
X278392Y1272163D01*
X278791Y1272363D01*
X278591Y1271963D01*
X278791Y1271563D01*
X278392Y1271763D01*
X277992Y1271563D01*
X285544Y1271163D02*
X285944Y1271963D01*
X285544Y1272763D01*
X286344Y1272363D01*
X287144Y1272763D01*
X286744Y1271963D01*
X287144Y1271163D01*
X286344Y1271563D01*
X285544Y1271163D01*
X285944Y1271563D02*
X286144Y1271963D01*
X285944Y1272363D01*
X286344Y1272163D01*
X286744Y1272363D01*
X286544Y1271963D01*
X286744Y1271563D01*
X286344Y1271763D01*
X285944Y1271563D01*
X324141Y1275310D02*
X324541Y1276110D01*
X324141Y1276910D01*
X324941Y1276510D01*
X325741Y1276910D01*
X325341Y1276110D01*
X325741Y1275310D01*
X324941Y1275710D01*
X324141Y1275310D01*
X324541Y1275710D02*
X324741Y1276110D01*
X324541Y1276510D01*
X324941Y1276310D01*
X325341Y1276510D01*
X325141Y1276110D01*
X325341Y1275710D01*
X324941Y1275910D01*
X324541Y1275710D01*
X329764Y1280933D02*
X330164Y1281734D01*
X329764Y1282533D01*
X330564Y1282133D01*
X331364Y1282533D01*
X330964Y1281734D01*
X331364Y1280933D01*
X330564Y1281334D01*
X329764Y1280933D01*
X330164Y1281334D02*
X330364Y1281734D01*
X330164Y1282133D01*
X330564Y1281933D01*
X330964Y1282133D01*
X330764Y1281734D01*
X330964Y1281334D01*
X330564Y1281534D01*
X330164Y1281334D01*
X335388Y1286557D02*
X335788Y1287357D01*
X335388Y1288157D01*
X336188Y1287757D01*
X336988Y1288157D01*
X336588Y1287357D01*
X336988Y1286557D01*
X336188Y1286957D01*
X335388Y1286557D01*
X335788Y1286957D02*
X335988Y1287357D01*
X335788Y1287757D01*
X336188Y1287557D01*
X336588Y1287757D01*
X336388Y1287357D01*
X336588Y1286957D01*
X336188Y1287157D01*
X335788Y1286957D01*
X341011Y1292180D02*
X341411Y1292980D01*
X341011Y1293780D01*
X341811Y1293380D01*
X342611Y1293780D01*
X342211Y1292980D01*
X342611Y1292180D01*
X341811Y1292580D01*
X341011Y1292180D01*
X341411Y1292580D02*
X341611Y1292980D01*
X341411Y1293380D01*
X341811Y1293180D01*
X342211Y1293380D01*
X342011Y1292980D01*
X342211Y1292580D01*
X341811Y1292780D01*
X341411Y1292580D01*
X362200Y1307200D02*
X362600Y1308000D01*
X362200Y1308800D01*
X363000Y1308400D01*
X363800Y1308800D01*
X363400Y1308000D01*
X363800Y1307200D01*
X363000Y1307600D01*
X362200Y1307200D01*
X362600Y1307600D02*
X362800Y1308000D01*
X362600Y1308400D01*
X363000Y1308200D01*
X363400Y1308400D01*
X363200Y1308000D01*
X363400Y1307600D01*
X363000Y1307800D01*
X362600Y1307600D01*
X369700Y1308700D02*
X370100Y1309500D01*
X369700Y1310300D01*
X370500Y1309900D01*
X371300Y1310300D01*
X370900Y1309500D01*
X371300Y1308700D01*
X370500Y1309100D01*
X369700Y1308700D01*
X370100Y1309100D02*
X370300Y1309500D01*
X370100Y1309900D01*
X370500Y1309700D01*
X370900Y1309900D01*
X370700Y1309500D01*
X370900Y1309100D01*
X370500Y1309300D01*
X370100Y1309100D01*
X378200Y1309200D02*
X378600Y1310000D01*
X378200Y1310800D01*
X379000Y1310400D01*
X379800Y1310800D01*
X379400Y1310000D01*
X379800Y1309200D01*
X379000Y1309600D01*
X378200Y1309200D01*
X378600Y1309600D02*
X378800Y1310000D01*
X378600Y1310400D01*
X379000Y1310200D01*
X379400Y1310400D01*
X379200Y1310000D01*
X379400Y1309600D01*
X379000Y1309800D01*
X378600Y1309600D01*
X177175Y1359340D02*
X177575Y1360140D01*
X177175Y1360940D01*
X177975Y1360540D01*
X178775Y1360940D01*
X178375Y1360140D01*
X178775Y1359340D01*
X177975Y1359740D01*
X177175Y1359340D01*
X177575Y1359740D02*
X177775Y1360140D01*
X177575Y1360540D01*
X177975Y1360340D01*
X178375Y1360540D01*
X178175Y1360140D01*
X178375Y1359740D01*
X177975Y1359940D01*
X177575Y1359740D01*
X182767Y1353685D02*
X183167Y1354485D01*
X182767Y1355285D01*
X183567Y1354885D01*
X184367Y1355285D01*
X183967Y1354485D01*
X184367Y1353685D01*
X183567Y1354085D01*
X182767Y1353685D01*
X183167Y1354085D02*
X183367Y1354485D01*
X183167Y1354885D01*
X183567Y1354685D01*
X183967Y1354885D01*
X183767Y1354485D01*
X183967Y1354085D01*
X183567Y1354285D01*
X183167Y1354085D01*
X190659Y1354663D02*
X191059Y1355463D01*
X190659Y1356263D01*
X191459Y1355863D01*
X192259Y1356263D01*
X191859Y1355463D01*
X192259Y1354663D01*
X191459Y1355063D01*
X190659Y1354663D01*
X191059Y1355063D02*
X191259Y1355463D01*
X191059Y1355863D01*
X191459Y1355663D01*
X191859Y1355863D01*
X191659Y1355463D01*
X191859Y1355063D01*
X191459Y1355263D01*
X191059Y1355063D01*
X222307Y1354606D02*
X222707Y1355406D01*
X222307Y1356206D01*
X223107Y1355806D01*
X223907Y1356206D01*
X223507Y1355406D01*
X223907Y1354606D01*
X223107Y1355006D01*
X222307Y1354606D01*
X222707Y1355006D02*
X222907Y1355406D01*
X222707Y1355806D01*
X223107Y1355606D01*
X223507Y1355806D01*
X223307Y1355406D01*
X223507Y1355006D01*
X223107Y1355206D01*
X222707Y1355006D01*
X228163Y1349225D02*
X228563Y1350025D01*
X228163Y1350825D01*
X228963Y1350425D01*
X229763Y1350825D01*
X229363Y1350025D01*
X229763Y1349225D01*
X228963Y1349625D01*
X228163Y1349225D01*
X228563Y1349625D02*
X228763Y1350025D01*
X228563Y1350425D01*
X228963Y1350225D01*
X229363Y1350425D01*
X229163Y1350025D01*
X229363Y1349625D01*
X228963Y1349825D01*
X228563Y1349625D01*
X228163Y1341272D02*
X228563Y1342072D01*
X228163Y1342872D01*
X228963Y1342472D01*
X229763Y1342872D01*
X229363Y1342072D01*
X229763Y1341272D01*
X228963Y1341672D01*
X228163Y1341272D01*
X228563Y1341672D02*
X228763Y1342072D01*
X228563Y1342472D01*
X228963Y1342272D01*
X229363Y1342472D01*
X229163Y1342072D01*
X229363Y1341672D01*
X228963Y1341872D01*
X228563Y1341672D01*
X236009Y1320060D02*
X236409Y1320860D01*
X236009Y1321660D01*
X236809Y1321260D01*
X237609Y1321660D01*
X237209Y1320860D01*
X237609Y1320060D01*
X236809Y1320460D01*
X236009Y1320060D01*
X236409Y1320460D02*
X236609Y1320860D01*
X236409Y1321260D01*
X236809Y1321060D01*
X237209Y1321260D01*
X237009Y1320860D01*
X237209Y1320460D01*
X236809Y1320660D01*
X236409Y1320460D01*
X241633Y1314437D02*
X242033Y1315236D01*
X241633Y1316037D01*
X242433Y1315637D01*
X243233Y1316037D01*
X242833Y1315236D01*
X243233Y1314437D01*
X242433Y1314837D01*
X241633Y1314437D01*
X242033Y1314837D02*
X242233Y1315236D01*
X242033Y1315637D01*
X242433Y1315436D01*
X242833Y1315637D01*
X242633Y1315236D01*
X242833Y1314837D01*
X242433Y1315036D01*
X242033Y1314837D01*
X247256Y1308813D02*
X247656Y1309613D01*
X247256Y1310413D01*
X248056Y1310013D01*
X248856Y1310413D01*
X248456Y1309613D01*
X248856Y1308813D01*
X248056Y1309213D01*
X247256Y1308813D01*
X247656Y1309213D02*
X247856Y1309613D01*
X247656Y1310013D01*
X248056Y1309813D01*
X248456Y1310013D01*
X248256Y1309613D01*
X248456Y1309213D01*
X248056Y1309413D01*
X247656Y1309213D01*
X246367Y1267614D02*
X246767Y1268414D01*
X246367Y1269214D01*
X247167Y1268814D01*
X247967Y1269214D01*
X247567Y1268414D01*
X247967Y1267614D01*
X247167Y1268014D01*
X246367Y1267614D01*
X246767Y1268014D02*
X246967Y1268414D01*
X246767Y1268814D01*
X247167Y1268614D01*
X247567Y1268814D01*
X247367Y1268414D01*
X247567Y1268014D01*
X247167Y1268214D01*
X246767Y1268014D01*
X239241Y1264083D02*
X239641Y1264882D01*
X239241Y1265683D01*
X240041Y1265283D01*
X240841Y1265683D01*
X240441Y1264882D01*
X240841Y1264083D01*
X240041Y1264482D01*
X239241Y1264083D01*
X239641Y1264482D02*
X239841Y1264882D01*
X239641Y1265283D01*
X240041Y1265082D01*
X240441Y1265283D01*
X240241Y1264882D01*
X240441Y1264482D01*
X240041Y1264682D01*
X239641Y1264482D01*
X237529Y1256316D02*
X237929Y1257116D01*
X237529Y1257916D01*
X238329Y1257516D01*
X239129Y1257916D01*
X238729Y1257116D01*
X239129Y1256316D01*
X238329Y1256716D01*
X237529Y1256316D01*
X237929Y1256716D02*
X238129Y1257116D01*
X237929Y1257516D01*
X238329Y1257316D01*
X238729Y1257516D01*
X238529Y1257116D01*
X238729Y1256716D01*
X238329Y1256916D01*
X237929Y1256716D01*
X266737Y1264282D02*
X267137Y1265082D01*
X266737Y1265882D01*
X267537Y1265482D01*
X268337Y1265882D01*
X267937Y1265082D01*
X268337Y1264282D01*
X267537Y1264682D01*
X266737Y1264282D01*
X267137Y1264682D02*
X267337Y1265082D01*
X267137Y1265482D01*
X267537Y1265282D01*
X267937Y1265482D01*
X267737Y1265082D01*
X267937Y1264682D01*
X267537Y1264882D01*
X267137Y1264682D01*
X261519Y1310212D02*
X261919Y1311012D01*
X261519Y1311812D01*
X262319Y1311412D01*
X263119Y1311812D01*
X262719Y1311012D01*
X263119Y1310212D01*
X262319Y1310612D01*
X261519Y1310212D01*
X261919Y1310612D02*
X262119Y1311012D01*
X261919Y1311412D01*
X262319Y1311212D01*
X262719Y1311412D01*
X262519Y1311012D01*
X262719Y1310612D01*
X262319Y1310812D01*
X261919Y1310612D01*
X255896Y1315835D02*
X256296Y1316635D01*
X255896Y1317435D01*
X256696Y1317035D01*
X257496Y1317435D01*
X257096Y1316635D01*
X257496Y1315835D01*
X256696Y1316235D01*
X255896Y1315835D01*
X256296Y1316235D02*
X256496Y1316635D01*
X256296Y1317035D01*
X256696Y1316835D01*
X257096Y1317035D01*
X256896Y1316635D01*
X257096Y1316235D01*
X256696Y1316435D01*
X256296Y1316235D01*
X250272Y1321459D02*
X250672Y1322258D01*
X250272Y1323059D01*
X251072Y1322659D01*
X251872Y1323059D01*
X251472Y1322258D01*
X251872Y1321459D01*
X251072Y1321859D01*
X250272Y1321459D01*
X250672Y1321859D02*
X250872Y1322258D01*
X250672Y1322659D01*
X251072Y1322458D01*
X251472Y1322659D01*
X251272Y1322258D01*
X251472Y1321859D01*
X251072Y1322058D01*
X250672Y1321859D01*
X244649Y1327082D02*
X245049Y1327882D01*
X244649Y1328682D01*
X245449Y1328282D01*
X246249Y1328682D01*
X245849Y1327882D01*
X246249Y1327082D01*
X245449Y1327482D01*
X244649Y1327082D01*
X245049Y1327482D02*
X245249Y1327882D01*
X245049Y1328282D01*
X245449Y1328082D01*
X245849Y1328282D01*
X245649Y1327882D01*
X245849Y1327482D01*
X245449Y1327682D01*
X245049Y1327482D01*
X239237Y1340862D02*
X239637Y1341662D01*
X239237Y1342462D01*
X240037Y1342062D01*
X240837Y1342462D01*
X240437Y1341662D01*
X240837Y1340862D01*
X240037Y1341262D01*
X239237Y1340862D01*
X239637Y1341262D02*
X239837Y1341662D01*
X239637Y1342062D01*
X240037Y1341862D01*
X240437Y1342062D01*
X240237Y1341662D01*
X240437Y1341262D01*
X240037Y1341462D01*
X239637Y1341262D01*
X239237Y1348815D02*
X239637Y1349615D01*
X239237Y1350415D01*
X240037Y1350015D01*
X240837Y1350415D01*
X240437Y1349615D01*
X240837Y1348815D01*
X240037Y1349215D01*
X239237Y1348815D01*
X239637Y1349215D02*
X239837Y1349615D01*
X239637Y1350015D01*
X240037Y1349815D01*
X240437Y1350015D01*
X240237Y1349615D01*
X240437Y1349215D01*
X240037Y1349415D01*
X239637Y1349215D01*
X237223Y1356508D02*
X237622Y1357308D01*
X237223Y1358108D01*
X238022Y1357708D01*
X238823Y1358108D01*
X238422Y1357308D01*
X238823Y1356508D01*
X238022Y1356908D01*
X237223Y1356508D01*
X237622Y1356908D02*
X237823Y1357308D01*
X237622Y1357708D01*
X238022Y1357508D01*
X238422Y1357708D01*
X238223Y1357308D01*
X238422Y1356908D01*
X238022Y1357108D01*
X237622Y1356908D01*
X231599Y1362132D02*
X231999Y1362932D01*
X231599Y1363732D01*
X232399Y1363332D01*
X233199Y1363732D01*
X232799Y1362932D01*
X233199Y1362132D01*
X232399Y1362532D01*
X231599Y1362132D01*
X231999Y1362532D02*
X232199Y1362932D01*
X231999Y1363332D01*
X232399Y1363132D01*
X232799Y1363332D01*
X232599Y1362932D01*
X232799Y1362532D01*
X232399Y1362732D01*
X231999Y1362532D01*
X224511Y1365737D02*
X224910Y1366537D01*
X224511Y1367337D01*
X225310Y1366937D01*
X226111Y1367337D01*
X225711Y1366537D01*
X226111Y1365737D01*
X225310Y1366137D01*
X224511Y1365737D01*
X224910Y1366137D02*
X225111Y1366537D01*
X224910Y1366937D01*
X225310Y1366737D01*
X225711Y1366937D01*
X225511Y1366537D01*
X225711Y1366137D01*
X225310Y1366337D01*
X224910Y1366137D01*
X216614Y1366683D02*
X217014Y1367483D01*
X216614Y1368283D01*
X217414Y1367883D01*
X218214Y1368283D01*
X217814Y1367483D01*
X218214Y1366683D01*
X217414Y1367083D01*
X216614Y1366683D01*
X217014Y1367083D02*
X217214Y1367483D01*
X217014Y1367883D01*
X217414Y1367683D01*
X217814Y1367883D01*
X217614Y1367483D01*
X217814Y1367083D01*
X217414Y1367283D01*
X217014Y1367083D01*
X208661Y1366683D02*
X209061Y1367483D01*
X208661Y1368283D01*
X209461Y1367883D01*
X210261Y1368283D01*
X209861Y1367483D01*
X210261Y1366683D01*
X209461Y1367083D01*
X208661Y1366683D01*
X209061Y1367083D02*
X209261Y1367483D01*
X209061Y1367883D01*
X209461Y1367683D01*
X209861Y1367883D01*
X209661Y1367483D01*
X209861Y1367083D01*
X209461Y1367283D01*
X209061Y1367083D01*
X200787Y1365566D02*
X201187Y1366366D01*
X200787Y1367166D01*
X201588Y1366766D01*
X202387Y1367166D01*
X201988Y1366366D01*
X202387Y1365566D01*
X201588Y1365966D01*
X200787Y1365566D01*
X201187Y1365966D02*
X201388Y1366366D01*
X201187Y1366766D01*
X201588Y1366566D01*
X201988Y1366766D01*
X201787Y1366366D01*
X201988Y1365966D01*
X201588Y1366166D01*
X201187Y1365966D01*
X192835Y1365581D02*
X193235Y1366381D01*
X192835Y1367181D01*
X193635Y1366781D01*
X194435Y1367181D01*
X194035Y1366381D01*
X194435Y1365581D01*
X193635Y1365981D01*
X192835Y1365581D01*
X193235Y1365981D02*
X193435Y1366381D01*
X193235Y1366781D01*
X193635Y1366581D01*
X194035Y1366781D01*
X193835Y1366381D01*
X194035Y1365981D01*
X193635Y1366181D01*
X193235Y1365981D01*
X184957Y1366673D02*
X185357Y1367473D01*
X184957Y1368273D01*
X185757Y1367873D01*
X186557Y1368273D01*
X186157Y1367473D01*
X186557Y1366673D01*
X185757Y1367073D01*
X184957Y1366673D01*
X185357Y1367073D02*
X185557Y1367473D01*
X185357Y1367873D01*
X185757Y1367673D01*
X186157Y1367873D01*
X185957Y1367473D01*
X186157Y1367073D01*
X185757Y1367273D01*
X185357Y1367073D01*
X310248Y1502748D02*
Y1502348D01*
X311048D01*
Y1502748D01*
X311448D01*
Y1503548D01*
X311048D01*
Y1503948D01*
X310248D01*
Y1503548D01*
X309848D01*
Y1502748D01*
X310248D01*
X310448Y1502948D02*
Y1502748D01*
X310848D01*
Y1502948D01*
X311048D01*
Y1503348D01*
X310848D01*
Y1503548D01*
X310448D01*
Y1503348D01*
X310248D01*
Y1502948D01*
X310448D01*
X278055Y1441333D02*
Y1440933D01*
X278855D01*
Y1441333D01*
X279255D01*
Y1442133D01*
X278855D01*
Y1442533D01*
X278055D01*
Y1442133D01*
X277655D01*
Y1441333D01*
X278055D01*
X278255Y1441533D02*
Y1441333D01*
X278655D01*
Y1441533D01*
X278855D01*
Y1441933D01*
X278655D01*
Y1442133D01*
X278255D01*
Y1441933D01*
X278055D01*
Y1441533D01*
X278255D01*
X269600Y1446600D02*
Y1446200D01*
X270400D01*
Y1446600D01*
X270800D01*
Y1447400D01*
X270400D01*
Y1447800D01*
X269600D01*
Y1447400D01*
X269200D01*
Y1446600D01*
X269600D01*
X269800Y1446800D02*
Y1446600D01*
X270200D01*
Y1446800D01*
X270400D01*
Y1447200D01*
X270200D01*
Y1447400D01*
X269800D01*
Y1447200D01*
X269600D01*
Y1446800D01*
X269800D01*
X277600Y1473600D02*
Y1473200D01*
X278400D01*
Y1473600D01*
X278800D01*
Y1474400D01*
X278400D01*
Y1474800D01*
X277600D01*
Y1474400D01*
X277200D01*
Y1473600D01*
X277600D01*
X277800Y1473800D02*
Y1473600D01*
X278200D01*
Y1473800D01*
X278400D01*
Y1474200D01*
X278200D01*
Y1474400D01*
X277800D01*
Y1474200D01*
X277600D01*
Y1473800D01*
X277800D01*
X301365Y1494043D02*
Y1493643D01*
X302165D01*
Y1494043D01*
X302565D01*
Y1494843D01*
X302165D01*
Y1495243D01*
X301365D01*
Y1494843D01*
X300965D01*
Y1494043D01*
X301365D01*
X301565Y1494243D02*
Y1494043D01*
X301965D01*
Y1494243D01*
X302165D01*
Y1494643D01*
X301965D01*
Y1494843D01*
X301565D01*
Y1494643D01*
X301365D01*
Y1494243D01*
X301565D01*
X255100Y1460100D02*
Y1459700D01*
X255900D01*
Y1460100D01*
X256300D01*
Y1460900D01*
X255900D01*
Y1461300D01*
X255100D01*
Y1460900D01*
X254700D01*
Y1460100D01*
X255100D01*
X255300Y1460300D02*
Y1460100D01*
X255700D01*
Y1460300D01*
X255900D01*
Y1460700D01*
X255700D01*
Y1460900D01*
X255300D01*
Y1460700D01*
X255100D01*
Y1460300D01*
X255300D01*
X307600Y1465600D02*
Y1465200D01*
X308400D01*
Y1465600D01*
X308800D01*
Y1466400D01*
X308400D01*
Y1466800D01*
X307600D01*
Y1466400D01*
X307200D01*
Y1465600D01*
X307600D01*
X307800Y1465800D02*
Y1465600D01*
X308200D01*
Y1465800D01*
X308400D01*
Y1466200D01*
X308200D01*
Y1466400D01*
X307800D01*
Y1466200D01*
X307600D01*
Y1465800D01*
X307800D01*
X248468Y1522258D02*
Y1521858D01*
X249268D01*
Y1522258D01*
X249668D01*
Y1523058D01*
X249268D01*
Y1523458D01*
X248468D01*
Y1523058D01*
X248068D01*
Y1522258D01*
X248468D01*
X248668Y1522458D02*
Y1522258D01*
X249068D01*
Y1522458D01*
X249268D01*
Y1522858D01*
X249068D01*
Y1523058D01*
X248668D01*
Y1522858D01*
X248468D01*
Y1522458D01*
X248668D01*
X272600Y1519600D02*
Y1519200D01*
X273400D01*
Y1519600D01*
X273800D01*
Y1520400D01*
X273400D01*
Y1520800D01*
X272600D01*
Y1520400D01*
X272200D01*
Y1519600D01*
X272600D01*
X272800Y1519800D02*
Y1519600D01*
X273200D01*
Y1519800D01*
X273400D01*
Y1520200D01*
X273200D01*
Y1520400D01*
X272800D01*
Y1520200D01*
X272600D01*
Y1519800D01*
X272800D01*
X287600Y1491100D02*
Y1490700D01*
X288400D01*
Y1491100D01*
X288800D01*
Y1491900D01*
X288400D01*
Y1492300D01*
X287600D01*
Y1491900D01*
X287200D01*
Y1491100D01*
X287600D01*
X287800Y1491300D02*
Y1491100D01*
X288200D01*
Y1491300D01*
X288400D01*
Y1491700D01*
X288200D01*
Y1491900D01*
X287800D01*
Y1491700D01*
X287600D01*
Y1491300D01*
X287800D01*
X335600Y1522600D02*
Y1522200D01*
X336400D01*
Y1522600D01*
X336800D01*
Y1523400D01*
X336400D01*
Y1523800D01*
X335600D01*
Y1523400D01*
X335200D01*
Y1522600D01*
X335600D01*
X335800Y1522800D02*
Y1522600D01*
X336200D01*
Y1522800D01*
X336400D01*
Y1523200D01*
X336200D01*
Y1523400D01*
X335800D01*
Y1523200D01*
X335600D01*
Y1522800D01*
X335800D01*
X361100Y1456100D02*
Y1455700D01*
X361900D01*
Y1456100D01*
X362300D01*
Y1456900D01*
X361900D01*
Y1457300D01*
X361100D01*
Y1456900D01*
X360700D01*
Y1456100D01*
X361100D01*
X361300Y1456300D02*
Y1456100D01*
X361700D01*
Y1456300D01*
X361900D01*
Y1456700D01*
X361700D01*
Y1456900D01*
X361300D01*
Y1456700D01*
X361100D01*
Y1456300D01*
X361300D01*
X203100Y1340600D02*
Y1340200D01*
X203900D01*
Y1340600D01*
X204300D01*
Y1341400D01*
X203900D01*
Y1341800D01*
X203100D01*
Y1341400D01*
X202700D01*
Y1340600D01*
X203100D01*
X203300Y1340800D02*
Y1340600D01*
X203700D01*
Y1340800D01*
X203900D01*
Y1341200D01*
X203700D01*
Y1341400D01*
X203300D01*
Y1341200D01*
X203100D01*
Y1340800D01*
X203300D01*
D93*
X197800Y1438000D02*
G03*
X197800Y1438000I-800J0D01*
G01*
X211800D02*
G03*
X211800Y1438000I-800J0D01*
G01*
X238800Y1481500D02*
G03*
X238800Y1481500I-800J0D01*
G01*
X321300Y1481000D02*
G03*
X321300Y1481000I-800J0D01*
G01*
X289800Y1378500D02*
G03*
X289800Y1378500I-800J0D01*
G01*
X185300Y1361000D02*
G03*
X185300Y1361000I-800J0D01*
G01*
X251633Y1421000D02*
G03*
X251633Y1421000I-800J0D01*
G01*
Y1411000D02*
G03*
X251633Y1411000I-800J0D01*
G01*
Y1401000D02*
G03*
X251633Y1401000I-800J0D01*
G01*
X281633D02*
G03*
X281633Y1401000I-800J0D01*
G01*
Y1411000D02*
G03*
X281633Y1411000I-800J0D01*
G01*
Y1421000D02*
G03*
X281633Y1421000I-800J0D01*
G01*
X341300D02*
G03*
X341300Y1421000I-800J0D01*
G01*
Y1411000D02*
G03*
X341300Y1411000I-800J0D01*
G01*
Y1401000D02*
G03*
X341300Y1401000I-800J0D01*
G01*
X371300D02*
G03*
X371300Y1401000I-800J0D01*
G01*
Y1411000D02*
G03*
X371300Y1411000I-800J0D01*
G01*
Y1421000D02*
G03*
X371300Y1421000I-800J0D01*
G01*
X296467D02*
G03*
X296467Y1421000I-800J0D01*
G01*
Y1411000D02*
G03*
X296467Y1411000I-800J0D01*
G01*
Y1401000D02*
G03*
X296467Y1401000I-800J0D01*
G01*
X326467D02*
G03*
X326467Y1401000I-800J0D01*
G01*
Y1411000D02*
G03*
X326467Y1411000I-800J0D01*
G01*
Y1421000D02*
G03*
X326467Y1421000I-800J0D01*
G01*
X206800D02*
G03*
X206800Y1421000I-800J0D01*
G01*
Y1411000D02*
G03*
X206800Y1411000I-800J0D01*
G01*
Y1401000D02*
G03*
X206800Y1401000I-800J0D01*
G01*
X236800D02*
G03*
X236800Y1401000I-800J0D01*
G01*
Y1411000D02*
G03*
X236800Y1411000I-800J0D01*
G01*
Y1421000D02*
G03*
X236800Y1421000I-800J0D01*
G01*
D94*
X251233D02*
G03*
X251233Y1421000I-400J0D01*
G01*
Y1411000D02*
G03*
X251233Y1411000I-400J0D01*
G01*
Y1401000D02*
G03*
X251233Y1401000I-400J0D01*
G01*
X281233D02*
G03*
X281233Y1401000I-400J0D01*
G01*
Y1411000D02*
G03*
X281233Y1411000I-400J0D01*
G01*
Y1421000D02*
G03*
X281233Y1421000I-400J0D01*
G01*
X340900D02*
G03*
X340900Y1421000I-400J0D01*
G01*
Y1411000D02*
G03*
X340900Y1411000I-400J0D01*
G01*
Y1401000D02*
G03*
X340900Y1401000I-400J0D01*
G01*
X370900D02*
G03*
X370900Y1401000I-400J0D01*
G01*
Y1411000D02*
G03*
X370900Y1411000I-400J0D01*
G01*
Y1421000D02*
G03*
X370900Y1421000I-400J0D01*
G01*
X296067D02*
G03*
X296067Y1421000I-400J0D01*
G01*
Y1411000D02*
G03*
X296067Y1411000I-400J0D01*
G01*
Y1401000D02*
G03*
X296067Y1401000I-400J0D01*
G01*
X326067D02*
G03*
X326067Y1401000I-400J0D01*
G01*
Y1411000D02*
G03*
X326067Y1411000I-400J0D01*
G01*
Y1421000D02*
G03*
X326067Y1421000I-400J0D01*
G01*
X206400D02*
G03*
X206400Y1421000I-400J0D01*
G01*
Y1411000D02*
G03*
X206400Y1411000I-400J0D01*
G01*
Y1401000D02*
G03*
X206400Y1401000I-400J0D01*
G01*
X236400D02*
G03*
X236400Y1401000I-400J0D01*
G01*
Y1411000D02*
G03*
X236400Y1411000I-400J0D01*
G01*
Y1421000D02*
G03*
X236400Y1421000I-400J0D01*
G01*
M02*
