G04*
G04 #@! TF.GenerationSoftware,Altium Limited,Altium Designer,20.0.10 (225)*
G04*
G04 Layer_Color=32896*
%FSLAX25Y25*%
%MOIN*%
G70*
G01*
G75*
%ADD10C,0.01000*%
%ADD11C,0.00787*%
G36*
X206806Y1450531D02*
X206837Y1450527D01*
X206872Y1450523D01*
X206910Y1450519D01*
X206952Y1450508D01*
X207044Y1450484D01*
X207140Y1450450D01*
X207190Y1450427D01*
X207236Y1450400D01*
X207278Y1450365D01*
X207321Y1450331D01*
X207325Y1450327D01*
X207328Y1450323D01*
X207340Y1450312D01*
X207355Y1450296D01*
X207371Y1450273D01*
X207390Y1450250D01*
X207428Y1450193D01*
X207467Y1450120D01*
X207501Y1450035D01*
X207528Y1449939D01*
X207532Y1449885D01*
X207536Y1449832D01*
Y1449824D01*
Y1449805D01*
X207532Y1449774D01*
X207528Y1449736D01*
X207520Y1449690D01*
X207509Y1449640D01*
X207494Y1449586D01*
X207470Y1449532D01*
X207467Y1449524D01*
X207459Y1449505D01*
X207444Y1449478D01*
X207421Y1449440D01*
X207394Y1449394D01*
X207359Y1449340D01*
X207313Y1449286D01*
X207263Y1449225D01*
X207256Y1449217D01*
X207236Y1449194D01*
X207202Y1449160D01*
X207179Y1449137D01*
X207152Y1449110D01*
X207121Y1449079D01*
X207083Y1449044D01*
X207044Y1449010D01*
X207002Y1448968D01*
X206956Y1448925D01*
X206902Y1448879D01*
X206848Y1448833D01*
X206787Y1448779D01*
X206783Y1448776D01*
X206775Y1448768D01*
X206760Y1448756D01*
X206741Y1448741D01*
X206695Y1448703D01*
X206637Y1448653D01*
X206580Y1448599D01*
X206518Y1448545D01*
X206468Y1448499D01*
X206449Y1448480D01*
X206430Y1448461D01*
X206426Y1448457D01*
X206418Y1448445D01*
X206403Y1448430D01*
X206384Y1448407D01*
X206342Y1448357D01*
X206299Y1448296D01*
X207540D01*
Y1448000D01*
X205869D01*
Y1448004D01*
Y1448019D01*
Y1448042D01*
X205873Y1448069D01*
X205877Y1448100D01*
X205881Y1448134D01*
X205892Y1448173D01*
X205904Y1448211D01*
Y1448215D01*
X205908Y1448219D01*
X205915Y1448242D01*
X205931Y1448273D01*
X205954Y1448319D01*
X205981Y1448369D01*
X206019Y1448426D01*
X206057Y1448484D01*
X206107Y1448545D01*
Y1448549D01*
X206115Y1448553D01*
X206134Y1448576D01*
X206165Y1448610D01*
X206211Y1448657D01*
X206269Y1448710D01*
X206338Y1448776D01*
X206422Y1448849D01*
X206514Y1448929D01*
X206518Y1448933D01*
X206534Y1448945D01*
X206553Y1448960D01*
X206580Y1448987D01*
X206614Y1449014D01*
X206653Y1449048D01*
X206737Y1449121D01*
X206829Y1449209D01*
X206921Y1449298D01*
X206967Y1449340D01*
X207006Y1449382D01*
X207040Y1449425D01*
X207071Y1449463D01*
Y1449467D01*
X207079Y1449471D01*
X207086Y1449482D01*
X207094Y1449498D01*
X207117Y1449536D01*
X207144Y1449586D01*
X207171Y1449644D01*
X207194Y1449705D01*
X207209Y1449774D01*
X207217Y1449839D01*
Y1449843D01*
Y1449847D01*
X207213Y1449870D01*
X207209Y1449905D01*
X207202Y1449947D01*
X207183Y1449997D01*
X207159Y1450047D01*
X207129Y1450100D01*
X207083Y1450150D01*
X207075Y1450154D01*
X207060Y1450169D01*
X207029Y1450189D01*
X206991Y1450216D01*
X206941Y1450239D01*
X206883Y1450258D01*
X206814Y1450273D01*
X206737Y1450277D01*
X206714D01*
X206699Y1450273D01*
X206660Y1450269D01*
X206610Y1450262D01*
X206553Y1450243D01*
X206491Y1450220D01*
X206434Y1450185D01*
X206380Y1450139D01*
X206376Y1450131D01*
X206361Y1450116D01*
X206338Y1450085D01*
X206315Y1450043D01*
X206288Y1449989D01*
X206269Y1449928D01*
X206253Y1449855D01*
X206246Y1449770D01*
X205927Y1449805D01*
Y1449809D01*
Y1449820D01*
X205931Y1449839D01*
X205935Y1449862D01*
X205942Y1449893D01*
X205946Y1449928D01*
X205969Y1450004D01*
X206000Y1450093D01*
X206042Y1450181D01*
X206100Y1450269D01*
X206130Y1450308D01*
X206169Y1450346D01*
X206173Y1450350D01*
X206180Y1450354D01*
X206192Y1450365D01*
X206207Y1450377D01*
X206230Y1450388D01*
X206257Y1450408D01*
X206288Y1450423D01*
X206322Y1450442D01*
X206361Y1450458D01*
X206403Y1450477D01*
X206453Y1450492D01*
X206503Y1450504D01*
X206618Y1450527D01*
X206680Y1450531D01*
X206745Y1450534D01*
X206779D01*
X206806Y1450531D01*
D02*
G37*
G36*
X204702Y1450519D02*
X204733D01*
X204809Y1450515D01*
X204890Y1450508D01*
X204975Y1450492D01*
X205055Y1450477D01*
X205094Y1450465D01*
X205128Y1450454D01*
X205132D01*
X205136Y1450450D01*
X205159Y1450442D01*
X205190Y1450423D01*
X205228Y1450396D01*
X205274Y1450365D01*
X205320Y1450323D01*
X205366Y1450273D01*
X205408Y1450212D01*
X205412Y1450204D01*
X205424Y1450181D01*
X205443Y1450146D01*
X205462Y1450100D01*
X205481Y1450043D01*
X205501Y1449977D01*
X205512Y1449908D01*
X205516Y1449832D01*
Y1449828D01*
Y1449820D01*
Y1449805D01*
X205512Y1449786D01*
Y1449763D01*
X205508Y1449736D01*
X205493Y1449674D01*
X205474Y1449601D01*
X205443Y1449528D01*
X205397Y1449452D01*
X205370Y1449413D01*
X205339Y1449378D01*
X205332Y1449371D01*
X205320Y1449363D01*
X205309Y1449348D01*
X205289Y1449336D01*
X205266Y1449317D01*
X205240Y1449302D01*
X205209Y1449282D01*
X205174Y1449263D01*
X205132Y1449244D01*
X205090Y1449225D01*
X205040Y1449206D01*
X204990Y1449187D01*
X204932Y1449171D01*
X204871Y1449160D01*
X204805Y1449148D01*
X204813Y1449144D01*
X204829Y1449137D01*
X204852Y1449125D01*
X204878Y1449110D01*
X204944Y1449067D01*
X204978Y1449044D01*
X205005Y1449021D01*
X205013Y1449014D01*
X205032Y1448998D01*
X205059Y1448968D01*
X205094Y1448929D01*
X205136Y1448879D01*
X205182Y1448822D01*
X205232Y1448756D01*
X205282Y1448683D01*
X205719Y1448000D01*
X205301D01*
X204967Y1448522D01*
Y1448526D01*
X204959Y1448534D01*
X204952Y1448545D01*
X204944Y1448561D01*
X204917Y1448599D01*
X204882Y1448649D01*
X204844Y1448707D01*
X204802Y1448764D01*
X204763Y1448818D01*
X204725Y1448868D01*
X204721Y1448872D01*
X204710Y1448887D01*
X204690Y1448910D01*
X204671Y1448937D01*
X204614Y1448991D01*
X204587Y1449018D01*
X204556Y1449037D01*
X204552Y1449041D01*
X204544Y1449044D01*
X204529Y1449052D01*
X204510Y1449064D01*
X204464Y1449087D01*
X204406Y1449106D01*
X204402D01*
X204395Y1449110D01*
X204379D01*
X204360Y1449114D01*
X204333Y1449117D01*
X204303D01*
X204264Y1449121D01*
X203834D01*
Y1448000D01*
X203500D01*
Y1450523D01*
X204671D01*
X204702Y1450519D01*
D02*
G37*
G36*
X246052Y1473104D02*
X246079D01*
X246144Y1473096D01*
X246221Y1473084D01*
X246305Y1473069D01*
X246390Y1473046D01*
X246471Y1473015D01*
X246475D01*
X246478Y1473011D01*
X246490Y1473007D01*
X246505Y1473000D01*
X246544Y1472977D01*
X246594Y1472950D01*
X246647Y1472911D01*
X246701Y1472865D01*
X246755Y1472812D01*
X246801Y1472750D01*
X246805Y1472742D01*
X246820Y1472719D01*
X246839Y1472681D01*
X246859Y1472635D01*
X246882Y1472577D01*
X246905Y1472508D01*
X246920Y1472435D01*
X246928Y1472355D01*
X246609Y1472332D01*
Y1472336D01*
Y1472343D01*
X246605Y1472355D01*
X246601Y1472370D01*
X246594Y1472412D01*
X246578Y1472466D01*
X246555Y1472524D01*
X246524Y1472581D01*
X246482Y1472639D01*
X246432Y1472689D01*
X246425Y1472693D01*
X246405Y1472708D01*
X246371Y1472727D01*
X246325Y1472750D01*
X246263Y1472773D01*
X246186Y1472792D01*
X246098Y1472808D01*
X245994Y1472812D01*
X245945D01*
X245921Y1472808D01*
X245891D01*
X245826Y1472796D01*
X245753Y1472785D01*
X245680Y1472766D01*
X245610Y1472739D01*
X245580Y1472719D01*
X245553Y1472700D01*
X245549Y1472696D01*
X245534Y1472681D01*
X245511Y1472658D01*
X245488Y1472624D01*
X245461Y1472585D01*
X245442Y1472539D01*
X245426Y1472489D01*
X245419Y1472431D01*
Y1472424D01*
Y1472408D01*
X245422Y1472382D01*
X245430Y1472351D01*
X245442Y1472316D01*
X245461Y1472278D01*
X245484Y1472243D01*
X245514Y1472209D01*
X245518Y1472205D01*
X245538Y1472193D01*
X245549Y1472186D01*
X245564Y1472174D01*
X245587Y1472167D01*
X245614Y1472155D01*
X245645Y1472140D01*
X245680Y1472124D01*
X245718Y1472113D01*
X245764Y1472097D01*
X245818Y1472078D01*
X245876Y1472063D01*
X245941Y1472048D01*
X246014Y1472028D01*
X246018D01*
X246033Y1472024D01*
X246052Y1472021D01*
X246079Y1472013D01*
X246113Y1472005D01*
X246152Y1471994D01*
X246236Y1471974D01*
X246329Y1471948D01*
X246421Y1471921D01*
X246467Y1471909D01*
X246505Y1471894D01*
X246544Y1471879D01*
X246574Y1471867D01*
X246578D01*
X246586Y1471863D01*
X246594Y1471856D01*
X246609Y1471848D01*
X246647Y1471825D01*
X246697Y1471798D01*
X246751Y1471760D01*
X246805Y1471713D01*
X246855Y1471663D01*
X246897Y1471610D01*
X246901Y1471602D01*
X246912Y1471583D01*
X246932Y1471552D01*
X246951Y1471506D01*
X246970Y1471456D01*
X246989Y1471395D01*
X247001Y1471325D01*
X247004Y1471253D01*
Y1471249D01*
Y1471245D01*
Y1471233D01*
Y1471218D01*
X246997Y1471180D01*
X246989Y1471130D01*
X246978Y1471072D01*
X246954Y1471007D01*
X246928Y1470938D01*
X246889Y1470872D01*
X246885Y1470865D01*
X246866Y1470842D01*
X246843Y1470811D01*
X246805Y1470773D01*
X246759Y1470726D01*
X246701Y1470680D01*
X246632Y1470638D01*
X246555Y1470596D01*
X246551D01*
X246544Y1470592D01*
X246532Y1470588D01*
X246517Y1470581D01*
X246498Y1470573D01*
X246475Y1470565D01*
X246413Y1470550D01*
X246344Y1470531D01*
X246259Y1470515D01*
X246171Y1470504D01*
X246071Y1470500D01*
X246014D01*
X245987Y1470504D01*
X245952D01*
X245914Y1470508D01*
X245872Y1470512D01*
X245783Y1470523D01*
X245687Y1470542D01*
X245591Y1470565D01*
X245499Y1470596D01*
X245495D01*
X245488Y1470600D01*
X245476Y1470607D01*
X245461Y1470615D01*
X245419Y1470638D01*
X245369Y1470673D01*
X245307Y1470715D01*
X245250Y1470765D01*
X245188Y1470826D01*
X245134Y1470895D01*
Y1470899D01*
X245130Y1470903D01*
X245123Y1470915D01*
X245115Y1470930D01*
X245104Y1470949D01*
X245092Y1470972D01*
X245069Y1471030D01*
X245046Y1471095D01*
X245023Y1471176D01*
X245008Y1471260D01*
X245000Y1471352D01*
X245315Y1471379D01*
Y1471375D01*
Y1471372D01*
X245319Y1471349D01*
X245326Y1471314D01*
X245334Y1471268D01*
X245349Y1471218D01*
X245365Y1471164D01*
X245388Y1471114D01*
X245415Y1471064D01*
X245419Y1471061D01*
X245430Y1471045D01*
X245449Y1471022D01*
X245480Y1470995D01*
X245514Y1470965D01*
X245557Y1470930D01*
X245610Y1470899D01*
X245668Y1470869D01*
X245672D01*
X245676Y1470865D01*
X245699Y1470857D01*
X245733Y1470846D01*
X245783Y1470834D01*
X245837Y1470819D01*
X245906Y1470807D01*
X245979Y1470800D01*
X246056Y1470796D01*
X246087D01*
X246125Y1470800D01*
X246167Y1470803D01*
X246221Y1470807D01*
X246275Y1470819D01*
X246332Y1470830D01*
X246390Y1470849D01*
X246398Y1470853D01*
X246413Y1470861D01*
X246440Y1470872D01*
X246471Y1470892D01*
X246509Y1470915D01*
X246544Y1470942D01*
X246578Y1470972D01*
X246609Y1471007D01*
X246613Y1471011D01*
X246620Y1471026D01*
X246632Y1471045D01*
X246647Y1471072D01*
X246659Y1471103D01*
X246670Y1471141D01*
X246678Y1471180D01*
X246682Y1471222D01*
Y1471226D01*
Y1471241D01*
X246678Y1471264D01*
X246674Y1471291D01*
X246667Y1471325D01*
X246651Y1471360D01*
X246636Y1471395D01*
X246613Y1471429D01*
X246609Y1471433D01*
X246601Y1471445D01*
X246582Y1471460D01*
X246559Y1471483D01*
X246528Y1471506D01*
X246490Y1471529D01*
X246440Y1471556D01*
X246386Y1471579D01*
X246382Y1471583D01*
X246367Y1471587D01*
X246336Y1471594D01*
X246317Y1471602D01*
X246294Y1471610D01*
X246263Y1471617D01*
X246233Y1471625D01*
X246194Y1471637D01*
X246156Y1471648D01*
X246110Y1471660D01*
X246056Y1471671D01*
X245998Y1471686D01*
X245937Y1471702D01*
X245933D01*
X245921Y1471706D01*
X245902Y1471710D01*
X245879Y1471717D01*
X245852Y1471725D01*
X245822Y1471733D01*
X245749Y1471752D01*
X245668Y1471779D01*
X245587Y1471806D01*
X245514Y1471832D01*
X245480Y1471844D01*
X245453Y1471859D01*
X245449D01*
X245445Y1471863D01*
X245422Y1471879D01*
X245392Y1471898D01*
X245353Y1471925D01*
X245307Y1471959D01*
X245265Y1471998D01*
X245223Y1472044D01*
X245184Y1472093D01*
X245180Y1472101D01*
X245169Y1472120D01*
X245157Y1472147D01*
X245142Y1472186D01*
X245123Y1472232D01*
X245111Y1472285D01*
X245100Y1472347D01*
X245096Y1472408D01*
Y1472412D01*
Y1472416D01*
Y1472428D01*
Y1472443D01*
X245104Y1472478D01*
X245111Y1472524D01*
X245123Y1472581D01*
X245142Y1472639D01*
X245169Y1472704D01*
X245203Y1472766D01*
Y1472769D01*
X245207Y1472773D01*
X245223Y1472792D01*
X245250Y1472823D01*
X245284Y1472861D01*
X245326Y1472900D01*
X245380Y1472942D01*
X245445Y1472984D01*
X245518Y1473019D01*
X245522D01*
X245526Y1473023D01*
X245538Y1473027D01*
X245557Y1473034D01*
X245576Y1473038D01*
X245599Y1473046D01*
X245653Y1473065D01*
X245722Y1473080D01*
X245799Y1473092D01*
X245887Y1473104D01*
X245979Y1473107D01*
X246025D01*
X246052Y1473104D01*
D02*
G37*
G36*
X249785Y1470542D02*
X249458D01*
X248928Y1472462D01*
Y1472466D01*
X248924Y1472474D01*
X248921Y1472485D01*
X248917Y1472501D01*
X248905Y1472543D01*
X248894Y1472589D01*
X248878Y1472643D01*
X248867Y1472689D01*
X248855Y1472731D01*
X248851Y1472746D01*
X248848Y1472758D01*
Y1472750D01*
X248840Y1472731D01*
X248832Y1472696D01*
X248821Y1472658D01*
X248809Y1472608D01*
X248798Y1472562D01*
X248782Y1472512D01*
X248771Y1472462D01*
X248241Y1470542D01*
X247891D01*
X247231Y1473065D01*
X247573D01*
X247953Y1471406D01*
Y1471402D01*
X247957Y1471395D01*
X247961Y1471379D01*
X247964Y1471364D01*
X247968Y1471337D01*
X247976Y1471310D01*
X247991Y1471245D01*
X248007Y1471168D01*
X248026Y1471080D01*
X248041Y1470988D01*
X248060Y1470892D01*
Y1470895D01*
X248064Y1470911D01*
X248068Y1470930D01*
X248076Y1470957D01*
X248083Y1470988D01*
X248091Y1471022D01*
X248114Y1471103D01*
X248133Y1471183D01*
X248153Y1471260D01*
X248160Y1471291D01*
X248168Y1471322D01*
X248172Y1471345D01*
X248176Y1471360D01*
X248656Y1473065D01*
X249059D01*
X249420Y1471786D01*
Y1471782D01*
X249428Y1471763D01*
X249431Y1471740D01*
X249443Y1471706D01*
X249450Y1471663D01*
X249466Y1471614D01*
X249477Y1471556D01*
X249493Y1471494D01*
X249508Y1471429D01*
X249523Y1471360D01*
X249558Y1471206D01*
X249589Y1471049D01*
X249616Y1470892D01*
Y1470895D01*
X249620Y1470903D01*
Y1470915D01*
X249623Y1470934D01*
X249631Y1470957D01*
X249635Y1470984D01*
X249642Y1471014D01*
X249650Y1471049D01*
X249669Y1471130D01*
X249689Y1471226D01*
X249715Y1471329D01*
X249742Y1471441D01*
X250134Y1473065D01*
X250472D01*
X249785Y1470542D01*
D02*
G37*
G36*
X251828D02*
X251516D01*
Y1472516D01*
X251513Y1472512D01*
X251497Y1472497D01*
X251470Y1472478D01*
X251436Y1472451D01*
X251394Y1472416D01*
X251344Y1472382D01*
X251286Y1472339D01*
X251221Y1472301D01*
X251217D01*
X251213Y1472297D01*
X251190Y1472282D01*
X251155Y1472262D01*
X251113Y1472239D01*
X251063Y1472213D01*
X251009Y1472190D01*
X250952Y1472163D01*
X250898Y1472140D01*
Y1472443D01*
X250902D01*
X250910Y1472447D01*
X250925Y1472454D01*
X250940Y1472466D01*
X250963Y1472478D01*
X250990Y1472489D01*
X251052Y1472524D01*
X251121Y1472566D01*
X251198Y1472616D01*
X251274Y1472673D01*
X251347Y1472735D01*
X251351Y1472739D01*
X251355Y1472742D01*
X251378Y1472766D01*
X251413Y1472800D01*
X251455Y1472842D01*
X251501Y1472896D01*
X251547Y1472954D01*
X251589Y1473015D01*
X251624Y1473077D01*
X251828D01*
Y1470542D01*
D02*
G37*
G36*
X310555Y1517212D02*
X310551D01*
X310536D01*
X310513D01*
X310486Y1517216D01*
X310455Y1517220D01*
X310421Y1517223D01*
X310382Y1517235D01*
X310344Y1517247D01*
X310340D01*
X310336Y1517250D01*
X310313Y1517258D01*
X310282Y1517273D01*
X310236Y1517297D01*
X310186Y1517323D01*
X310129Y1517362D01*
X310071Y1517400D01*
X310010Y1517450D01*
X310006D01*
X310002Y1517458D01*
X309979Y1517477D01*
X309945Y1517508D01*
X309898Y1517554D01*
X309845Y1517611D01*
X309779Y1517680D01*
X309706Y1517765D01*
X309626Y1517857D01*
X309622Y1517861D01*
X309610Y1517876D01*
X309595Y1517896D01*
X309568Y1517922D01*
X309541Y1517957D01*
X309507Y1517995D01*
X309434Y1518080D01*
X309345Y1518172D01*
X309257Y1518264D01*
X309215Y1518310D01*
X309173Y1518349D01*
X309130Y1518383D01*
X309092Y1518414D01*
X309088D01*
X309084Y1518422D01*
X309073Y1518429D01*
X309057Y1518437D01*
X309019Y1518460D01*
X308969Y1518487D01*
X308911Y1518514D01*
X308850Y1518537D01*
X308781Y1518552D01*
X308716Y1518560D01*
X308712D01*
X308708D01*
X308685Y1518556D01*
X308650Y1518552D01*
X308608Y1518544D01*
X308558Y1518525D01*
X308508Y1518502D01*
X308455Y1518472D01*
X308405Y1518425D01*
X308401Y1518418D01*
X308385Y1518402D01*
X308366Y1518372D01*
X308339Y1518333D01*
X308316Y1518283D01*
X308297Y1518226D01*
X308282Y1518157D01*
X308278Y1518080D01*
Y1518057D01*
X308282Y1518041D01*
X308286Y1518003D01*
X308293Y1517953D01*
X308313Y1517896D01*
X308335Y1517834D01*
X308370Y1517776D01*
X308416Y1517723D01*
X308424Y1517719D01*
X308439Y1517704D01*
X308470Y1517680D01*
X308512Y1517657D01*
X308566Y1517630D01*
X308627Y1517611D01*
X308700Y1517596D01*
X308785Y1517588D01*
X308750Y1517270D01*
X308746D01*
X308735D01*
X308716Y1517273D01*
X308693Y1517277D01*
X308662Y1517285D01*
X308627Y1517289D01*
X308551Y1517312D01*
X308462Y1517342D01*
X308374Y1517385D01*
X308286Y1517442D01*
X308247Y1517473D01*
X308209Y1517511D01*
X308205Y1517515D01*
X308201Y1517523D01*
X308190Y1517535D01*
X308178Y1517550D01*
X308167Y1517573D01*
X308147Y1517600D01*
X308132Y1517630D01*
X308113Y1517665D01*
X308097Y1517704D01*
X308078Y1517746D01*
X308063Y1517796D01*
X308051Y1517846D01*
X308028Y1517961D01*
X308025Y1518022D01*
X308021Y1518087D01*
Y1518122D01*
X308025Y1518149D01*
X308028Y1518180D01*
X308032Y1518214D01*
X308036Y1518253D01*
X308048Y1518295D01*
X308071Y1518387D01*
X308105Y1518483D01*
X308128Y1518533D01*
X308155Y1518579D01*
X308190Y1518621D01*
X308224Y1518664D01*
X308228Y1518667D01*
X308232Y1518671D01*
X308243Y1518683D01*
X308259Y1518698D01*
X308282Y1518713D01*
X308305Y1518733D01*
X308362Y1518771D01*
X308435Y1518809D01*
X308520Y1518844D01*
X308616Y1518871D01*
X308670Y1518875D01*
X308723Y1518878D01*
X308731D01*
X308750D01*
X308781Y1518875D01*
X308819Y1518871D01*
X308865Y1518863D01*
X308915Y1518852D01*
X308969Y1518836D01*
X309023Y1518813D01*
X309031Y1518809D01*
X309050Y1518802D01*
X309077Y1518786D01*
X309115Y1518763D01*
X309161Y1518736D01*
X309215Y1518702D01*
X309269Y1518656D01*
X309330Y1518606D01*
X309338Y1518598D01*
X309361Y1518579D01*
X309395Y1518544D01*
X309418Y1518521D01*
X309445Y1518495D01*
X309476Y1518464D01*
X309511Y1518425D01*
X309545Y1518387D01*
X309587Y1518345D01*
X309630Y1518299D01*
X309676Y1518245D01*
X309722Y1518191D01*
X309775Y1518130D01*
X309779Y1518126D01*
X309787Y1518118D01*
X309799Y1518103D01*
X309814Y1518084D01*
X309852Y1518038D01*
X309902Y1517980D01*
X309956Y1517922D01*
X310010Y1517861D01*
X310056Y1517811D01*
X310075Y1517792D01*
X310094Y1517773D01*
X310098Y1517769D01*
X310110Y1517761D01*
X310125Y1517746D01*
X310148Y1517727D01*
X310198Y1517684D01*
X310259Y1517642D01*
Y1518882D01*
X310555D01*
Y1517212D01*
D02*
G37*
G36*
X309775Y1516966D02*
X309795Y1516959D01*
X309825Y1516951D01*
X309856Y1516936D01*
X309898Y1516920D01*
X309941Y1516905D01*
X309987Y1516882D01*
X310090Y1516832D01*
X310194Y1516763D01*
X310294Y1516686D01*
X310340Y1516640D01*
X310382Y1516590D01*
X310386Y1516586D01*
X310390Y1516578D01*
X310401Y1516563D01*
X310417Y1516540D01*
X310432Y1516513D01*
X310451Y1516482D01*
X310471Y1516448D01*
X310490Y1516406D01*
X310509Y1516360D01*
X310528Y1516310D01*
X310547Y1516252D01*
X310563Y1516194D01*
X310590Y1516068D01*
X310593Y1515998D01*
X310597Y1515926D01*
Y1515887D01*
X310593Y1515856D01*
Y1515822D01*
X310590Y1515784D01*
X310582Y1515737D01*
X310578Y1515691D01*
X310555Y1515584D01*
X310528Y1515473D01*
X310486Y1515365D01*
X310463Y1515311D01*
X310432Y1515261D01*
X310428Y1515257D01*
X310424Y1515250D01*
X310413Y1515238D01*
X310401Y1515219D01*
X310363Y1515173D01*
X310309Y1515119D01*
X310244Y1515054D01*
X310159Y1514992D01*
X310064Y1514927D01*
X309952Y1514873D01*
X309948D01*
X309937Y1514870D01*
X309921Y1514862D01*
X309898Y1514854D01*
X309868Y1514843D01*
X309833Y1514831D01*
X309795Y1514820D01*
X309749Y1514808D01*
X309703Y1514797D01*
X309649Y1514785D01*
X309534Y1514762D01*
X309411Y1514747D01*
X309276Y1514743D01*
X309273D01*
X309257D01*
X309238D01*
X309211Y1514747D01*
X309176D01*
X309134Y1514750D01*
X309092Y1514754D01*
X309042Y1514762D01*
X308935Y1514781D01*
X308819Y1514804D01*
X308700Y1514843D01*
X308589Y1514893D01*
X308585D01*
X308577Y1514900D01*
X308562Y1514908D01*
X308539Y1514919D01*
X308516Y1514935D01*
X308489Y1514954D01*
X308424Y1515004D01*
X308351Y1515062D01*
X308278Y1515135D01*
X308205Y1515223D01*
X308143Y1515319D01*
Y1515323D01*
X308136Y1515330D01*
X308128Y1515346D01*
X308120Y1515369D01*
X308109Y1515392D01*
X308094Y1515423D01*
X308082Y1515461D01*
X308067Y1515499D01*
X308051Y1515542D01*
X308040Y1515588D01*
X308013Y1515691D01*
X307998Y1515806D01*
X307990Y1515929D01*
Y1515968D01*
X307994Y1515995D01*
X307998Y1516025D01*
X308001Y1516064D01*
X308005Y1516106D01*
X308013Y1516152D01*
X308036Y1516252D01*
X308071Y1516360D01*
X308094Y1516413D01*
X308120Y1516467D01*
X308151Y1516517D01*
X308186Y1516567D01*
X308190Y1516571D01*
X308193Y1516578D01*
X308205Y1516590D01*
X308220Y1516609D01*
X308240Y1516628D01*
X308266Y1516655D01*
X308293Y1516682D01*
X308324Y1516709D01*
X308362Y1516740D01*
X308401Y1516766D01*
X308447Y1516797D01*
X308497Y1516828D01*
X308547Y1516855D01*
X308604Y1516882D01*
X308727Y1516928D01*
X308804Y1516598D01*
X308800D01*
X308792Y1516594D01*
X308777Y1516590D01*
X308758Y1516582D01*
X308735Y1516571D01*
X308708Y1516559D01*
X308650Y1516532D01*
X308585Y1516498D01*
X308516Y1516452D01*
X308455Y1516402D01*
X308401Y1516340D01*
X308397Y1516333D01*
X308382Y1516310D01*
X308362Y1516275D01*
X308335Y1516225D01*
X308313Y1516168D01*
X308293Y1516094D01*
X308278Y1516014D01*
X308274Y1515922D01*
Y1515895D01*
X308278Y1515876D01*
Y1515849D01*
X308282Y1515822D01*
X308293Y1515753D01*
X308309Y1515676D01*
X308335Y1515595D01*
X308370Y1515515D01*
X308416Y1515438D01*
Y1515434D01*
X308424Y1515430D01*
X308443Y1515407D01*
X308474Y1515373D01*
X308516Y1515330D01*
X308570Y1515288D01*
X308631Y1515242D01*
X308708Y1515200D01*
X308792Y1515165D01*
X308796D01*
X308804Y1515161D01*
X308816Y1515158D01*
X308835Y1515154D01*
X308854Y1515146D01*
X308881Y1515142D01*
X308942Y1515127D01*
X309015Y1515112D01*
X309096Y1515100D01*
X309184Y1515092D01*
X309276Y1515088D01*
X309280D01*
X309292D01*
X309307D01*
X309330D01*
X309357Y1515092D01*
X309391D01*
X309426Y1515096D01*
X309465Y1515100D01*
X309553Y1515112D01*
X309649Y1515127D01*
X309745Y1515150D01*
X309837Y1515181D01*
X309841D01*
X309848Y1515184D01*
X309860Y1515192D01*
X309875Y1515200D01*
X309921Y1515219D01*
X309971Y1515250D01*
X310033Y1515292D01*
X310090Y1515342D01*
X310148Y1515399D01*
X310198Y1515469D01*
Y1515473D01*
X310202Y1515476D01*
X310209Y1515488D01*
X310217Y1515503D01*
X310232Y1515545D01*
X310256Y1515599D01*
X310275Y1515661D01*
X310294Y1515734D01*
X310309Y1515814D01*
X310313Y1515899D01*
Y1515926D01*
X310309Y1515945D01*
Y1515968D01*
X310305Y1515998D01*
X310294Y1516064D01*
X310275Y1516137D01*
X310244Y1516217D01*
X310206Y1516294D01*
X310152Y1516371D01*
X310148Y1516375D01*
X310144Y1516379D01*
X310121Y1516402D01*
X310083Y1516436D01*
X310033Y1516479D01*
X309964Y1516521D01*
X309883Y1516567D01*
X309783Y1516605D01*
X309672Y1516636D01*
X309756Y1516970D01*
X309760D01*
X309775Y1516966D01*
D02*
G37*
G36*
X320097Y1517972D02*
X318124D01*
X318127Y1517969D01*
X318143Y1517953D01*
X318162Y1517926D01*
X318189Y1517892D01*
X318223Y1517850D01*
X318258Y1517800D01*
X318300Y1517742D01*
X318338Y1517677D01*
Y1517673D01*
X318342Y1517669D01*
X318358Y1517646D01*
X318377Y1517612D01*
X318400Y1517569D01*
X318427Y1517519D01*
X318450Y1517466D01*
X318477Y1517408D01*
X318500Y1517354D01*
X318197D01*
Y1517358D01*
X318193Y1517366D01*
X318185Y1517381D01*
X318173Y1517397D01*
X318162Y1517420D01*
X318150Y1517446D01*
X318116Y1517508D01*
X318074Y1517577D01*
X318024Y1517654D01*
X317966Y1517731D01*
X317905Y1517803D01*
X317901Y1517807D01*
X317897Y1517811D01*
X317874Y1517834D01*
X317839Y1517869D01*
X317797Y1517911D01*
X317743Y1517957D01*
X317686Y1518003D01*
X317624Y1518046D01*
X317563Y1518080D01*
Y1518283D01*
X320097D01*
Y1517972D01*
D02*
G37*
G36*
Y1516506D02*
X319575Y1516172D01*
X319571D01*
X319564Y1516164D01*
X319552Y1516156D01*
X319537Y1516148D01*
X319498Y1516122D01*
X319448Y1516087D01*
X319391Y1516049D01*
X319333Y1516006D01*
X319279Y1515968D01*
X319229Y1515930D01*
X319226Y1515926D01*
X319210Y1515914D01*
X319187Y1515895D01*
X319160Y1515876D01*
X319107Y1515818D01*
X319080Y1515791D01*
X319060Y1515761D01*
X319057Y1515757D01*
X319053Y1515749D01*
X319045Y1515734D01*
X319034Y1515715D01*
X319011Y1515668D01*
X318991Y1515611D01*
Y1515607D01*
X318987Y1515599D01*
Y1515584D01*
X318984Y1515565D01*
X318980Y1515538D01*
Y1515507D01*
X318976Y1515469D01*
Y1515039D01*
X320097D01*
Y1514705D01*
X317574D01*
Y1515876D01*
X317578Y1515907D01*
Y1515937D01*
X317582Y1516014D01*
X317590Y1516095D01*
X317605Y1516179D01*
X317620Y1516260D01*
X317632Y1516298D01*
X317643Y1516333D01*
Y1516337D01*
X317647Y1516341D01*
X317655Y1516364D01*
X317674Y1516394D01*
X317701Y1516433D01*
X317732Y1516479D01*
X317774Y1516525D01*
X317824Y1516571D01*
X317885Y1516613D01*
X317893Y1516617D01*
X317916Y1516628D01*
X317951Y1516648D01*
X317997Y1516667D01*
X318054Y1516686D01*
X318120Y1516705D01*
X318189Y1516717D01*
X318266Y1516721D01*
X318269D01*
X318277D01*
X318292D01*
X318312Y1516717D01*
X318335D01*
X318362Y1516713D01*
X318423Y1516698D01*
X318496Y1516678D01*
X318569Y1516648D01*
X318646Y1516602D01*
X318684Y1516575D01*
X318719Y1516544D01*
X318726Y1516536D01*
X318734Y1516525D01*
X318749Y1516513D01*
X318761Y1516494D01*
X318780Y1516471D01*
X318795Y1516444D01*
X318815Y1516413D01*
X318834Y1516379D01*
X318853Y1516337D01*
X318872Y1516294D01*
X318892Y1516245D01*
X318911Y1516195D01*
X318926Y1516137D01*
X318938Y1516076D01*
X318949Y1516010D01*
X318953Y1516018D01*
X318961Y1516033D01*
X318972Y1516056D01*
X318987Y1516083D01*
X319030Y1516148D01*
X319053Y1516183D01*
X319076Y1516210D01*
X319083Y1516218D01*
X319099Y1516237D01*
X319130Y1516264D01*
X319168Y1516298D01*
X319218Y1516341D01*
X319275Y1516387D01*
X319341Y1516436D01*
X319414Y1516486D01*
X320097Y1516924D01*
Y1516506D01*
D02*
G37*
G36*
X251552Y1279862D02*
X251579D01*
X251644Y1279855D01*
X251721Y1279843D01*
X251806Y1279828D01*
X251890Y1279805D01*
X251971Y1279774D01*
X251975D01*
X251978Y1279770D01*
X251990Y1279766D01*
X252005Y1279759D01*
X252044Y1279736D01*
X252094Y1279709D01*
X252147Y1279670D01*
X252201Y1279624D01*
X252255Y1279571D01*
X252301Y1279509D01*
X252305Y1279501D01*
X252320Y1279478D01*
X252339Y1279440D01*
X252359Y1279394D01*
X252382Y1279336D01*
X252405Y1279267D01*
X252420Y1279194D01*
X252428Y1279114D01*
X252109Y1279091D01*
Y1279094D01*
Y1279102D01*
X252105Y1279114D01*
X252101Y1279129D01*
X252094Y1279171D01*
X252078Y1279225D01*
X252055Y1279283D01*
X252025Y1279340D01*
X251982Y1279398D01*
X251932Y1279448D01*
X251925Y1279451D01*
X251905Y1279467D01*
X251871Y1279486D01*
X251825Y1279509D01*
X251763Y1279532D01*
X251687Y1279551D01*
X251598Y1279567D01*
X251495Y1279571D01*
X251445D01*
X251422Y1279567D01*
X251391D01*
X251326Y1279555D01*
X251253Y1279544D01*
X251180Y1279525D01*
X251111Y1279498D01*
X251080Y1279478D01*
X251053Y1279459D01*
X251049Y1279455D01*
X251034Y1279440D01*
X251011Y1279417D01*
X250988Y1279382D01*
X250961Y1279344D01*
X250942Y1279298D01*
X250926Y1279248D01*
X250919Y1279190D01*
Y1279183D01*
Y1279167D01*
X250922Y1279140D01*
X250930Y1279110D01*
X250942Y1279075D01*
X250961Y1279037D01*
X250984Y1279002D01*
X251015Y1278968D01*
X251018Y1278964D01*
X251038Y1278952D01*
X251049Y1278945D01*
X251064Y1278933D01*
X251087Y1278925D01*
X251114Y1278914D01*
X251145Y1278899D01*
X251180Y1278883D01*
X251218Y1278872D01*
X251264Y1278856D01*
X251318Y1278837D01*
X251376Y1278822D01*
X251441Y1278806D01*
X251514Y1278787D01*
X251518D01*
X251533Y1278783D01*
X251552Y1278780D01*
X251579Y1278772D01*
X251614Y1278764D01*
X251652Y1278753D01*
X251736Y1278733D01*
X251829Y1278707D01*
X251921Y1278680D01*
X251967Y1278668D01*
X252005Y1278653D01*
X252044Y1278637D01*
X252074Y1278626D01*
X252078D01*
X252086Y1278622D01*
X252094Y1278614D01*
X252109Y1278607D01*
X252147Y1278584D01*
X252197Y1278557D01*
X252251Y1278518D01*
X252305Y1278472D01*
X252355Y1278422D01*
X252397Y1278369D01*
X252401Y1278361D01*
X252412Y1278342D01*
X252432Y1278311D01*
X252451Y1278265D01*
X252470Y1278215D01*
X252489Y1278154D01*
X252501Y1278084D01*
X252504Y1278012D01*
Y1278008D01*
Y1278004D01*
Y1277992D01*
Y1277977D01*
X252497Y1277939D01*
X252489Y1277889D01*
X252478Y1277831D01*
X252455Y1277766D01*
X252428Y1277697D01*
X252389Y1277631D01*
X252385Y1277624D01*
X252366Y1277601D01*
X252343Y1277570D01*
X252305Y1277532D01*
X252259Y1277485D01*
X252201Y1277439D01*
X252132Y1277397D01*
X252055Y1277355D01*
X252051D01*
X252044Y1277351D01*
X252032Y1277347D01*
X252017Y1277339D01*
X251998Y1277332D01*
X251975Y1277324D01*
X251913Y1277309D01*
X251844Y1277290D01*
X251760Y1277274D01*
X251671Y1277263D01*
X251571Y1277259D01*
X251514D01*
X251487Y1277263D01*
X251452D01*
X251414Y1277267D01*
X251372Y1277270D01*
X251283Y1277282D01*
X251187Y1277301D01*
X251091Y1277324D01*
X250999Y1277355D01*
X250995D01*
X250988Y1277359D01*
X250976Y1277366D01*
X250961Y1277374D01*
X250919Y1277397D01*
X250869Y1277432D01*
X250807Y1277474D01*
X250750Y1277524D01*
X250688Y1277585D01*
X250634Y1277654D01*
Y1277658D01*
X250631Y1277662D01*
X250623Y1277674D01*
X250615Y1277689D01*
X250604Y1277708D01*
X250592Y1277731D01*
X250569Y1277789D01*
X250546Y1277854D01*
X250523Y1277935D01*
X250508Y1278019D01*
X250500Y1278111D01*
X250815Y1278138D01*
Y1278134D01*
Y1278131D01*
X250819Y1278107D01*
X250826Y1278073D01*
X250834Y1278027D01*
X250849Y1277977D01*
X250865Y1277923D01*
X250888Y1277873D01*
X250915Y1277823D01*
X250919Y1277820D01*
X250930Y1277804D01*
X250949Y1277781D01*
X250980Y1277754D01*
X251015Y1277724D01*
X251057Y1277689D01*
X251111Y1277658D01*
X251168Y1277627D01*
X251172D01*
X251176Y1277624D01*
X251199Y1277616D01*
X251233Y1277604D01*
X251283Y1277593D01*
X251337Y1277578D01*
X251406Y1277566D01*
X251479Y1277558D01*
X251556Y1277555D01*
X251587D01*
X251625Y1277558D01*
X251667Y1277562D01*
X251721Y1277566D01*
X251775Y1277578D01*
X251833Y1277589D01*
X251890Y1277608D01*
X251898Y1277612D01*
X251913Y1277620D01*
X251940Y1277631D01*
X251971Y1277651D01*
X252009Y1277674D01*
X252044Y1277701D01*
X252078Y1277731D01*
X252109Y1277766D01*
X252113Y1277770D01*
X252120Y1277785D01*
X252132Y1277804D01*
X252147Y1277831D01*
X252159Y1277862D01*
X252170Y1277900D01*
X252178Y1277939D01*
X252182Y1277981D01*
Y1277985D01*
Y1278000D01*
X252178Y1278023D01*
X252174Y1278050D01*
X252167Y1278084D01*
X252151Y1278119D01*
X252136Y1278154D01*
X252113Y1278188D01*
X252109Y1278192D01*
X252101Y1278203D01*
X252082Y1278219D01*
X252059Y1278242D01*
X252028Y1278265D01*
X251990Y1278288D01*
X251940Y1278315D01*
X251886Y1278338D01*
X251882Y1278342D01*
X251867Y1278346D01*
X251836Y1278353D01*
X251817Y1278361D01*
X251794Y1278369D01*
X251763Y1278376D01*
X251733Y1278384D01*
X251694Y1278395D01*
X251656Y1278407D01*
X251610Y1278419D01*
X251556Y1278430D01*
X251498Y1278445D01*
X251437Y1278461D01*
X251433D01*
X251422Y1278465D01*
X251402Y1278469D01*
X251379Y1278476D01*
X251353Y1278484D01*
X251322Y1278491D01*
X251249Y1278511D01*
X251168Y1278538D01*
X251087Y1278564D01*
X251015Y1278591D01*
X250980Y1278603D01*
X250953Y1278618D01*
X250949D01*
X250945Y1278622D01*
X250922Y1278637D01*
X250892Y1278657D01*
X250853Y1278683D01*
X250807Y1278718D01*
X250765Y1278757D01*
X250723Y1278803D01*
X250684Y1278852D01*
X250680Y1278860D01*
X250669Y1278879D01*
X250657Y1278906D01*
X250642Y1278945D01*
X250623Y1278991D01*
X250611Y1279045D01*
X250600Y1279106D01*
X250596Y1279167D01*
Y1279171D01*
Y1279175D01*
Y1279187D01*
Y1279202D01*
X250604Y1279237D01*
X250611Y1279283D01*
X250623Y1279340D01*
X250642Y1279398D01*
X250669Y1279463D01*
X250704Y1279525D01*
Y1279528D01*
X250707Y1279532D01*
X250723Y1279551D01*
X250750Y1279582D01*
X250784Y1279620D01*
X250826Y1279659D01*
X250880Y1279701D01*
X250945Y1279743D01*
X251018Y1279778D01*
X251022D01*
X251026Y1279782D01*
X251038Y1279786D01*
X251057Y1279793D01*
X251076Y1279797D01*
X251099Y1279805D01*
X251153Y1279824D01*
X251222Y1279839D01*
X251299Y1279851D01*
X251387Y1279862D01*
X251479Y1279866D01*
X251525D01*
X251552Y1279862D01*
D02*
G37*
G36*
X255285Y1277301D02*
X254958D01*
X254428Y1279221D01*
Y1279225D01*
X254425Y1279233D01*
X254421Y1279244D01*
X254417Y1279259D01*
X254405Y1279302D01*
X254394Y1279348D01*
X254378Y1279402D01*
X254367Y1279448D01*
X254355Y1279490D01*
X254351Y1279505D01*
X254348Y1279517D01*
Y1279509D01*
X254340Y1279490D01*
X254332Y1279455D01*
X254321Y1279417D01*
X254309Y1279367D01*
X254298Y1279321D01*
X254282Y1279271D01*
X254271Y1279221D01*
X253741Y1277301D01*
X253392D01*
X252731Y1279824D01*
X253073D01*
X253453Y1278165D01*
Y1278161D01*
X253457Y1278154D01*
X253461Y1278138D01*
X253465Y1278123D01*
X253468Y1278096D01*
X253476Y1278069D01*
X253491Y1278004D01*
X253507Y1277927D01*
X253526Y1277839D01*
X253541Y1277747D01*
X253560Y1277651D01*
Y1277654D01*
X253564Y1277670D01*
X253568Y1277689D01*
X253576Y1277716D01*
X253584Y1277747D01*
X253591Y1277781D01*
X253614Y1277862D01*
X253633Y1277942D01*
X253653Y1278019D01*
X253660Y1278050D01*
X253668Y1278081D01*
X253672Y1278104D01*
X253676Y1278119D01*
X254156Y1279824D01*
X254559D01*
X254920Y1278545D01*
Y1278541D01*
X254927Y1278522D01*
X254931Y1278499D01*
X254943Y1278465D01*
X254951Y1278422D01*
X254966Y1278372D01*
X254977Y1278315D01*
X254993Y1278253D01*
X255008Y1278188D01*
X255024Y1278119D01*
X255058Y1277965D01*
X255089Y1277808D01*
X255116Y1277651D01*
Y1277654D01*
X255119Y1277662D01*
Y1277674D01*
X255123Y1277693D01*
X255131Y1277716D01*
X255135Y1277743D01*
X255143Y1277773D01*
X255150Y1277808D01*
X255169Y1277889D01*
X255189Y1277985D01*
X255216Y1278088D01*
X255242Y1278200D01*
X255634Y1279824D01*
X255972D01*
X255285Y1277301D01*
D02*
G37*
G36*
X257055Y1279832D02*
X257086Y1279828D01*
X257120Y1279824D01*
X257159Y1279820D01*
X257201Y1279809D01*
X257293Y1279786D01*
X257389Y1279751D01*
X257439Y1279728D01*
X257485Y1279701D01*
X257527Y1279667D01*
X257569Y1279632D01*
X257573Y1279628D01*
X257577Y1279624D01*
X257589Y1279613D01*
X257604Y1279597D01*
X257619Y1279574D01*
X257639Y1279551D01*
X257677Y1279494D01*
X257715Y1279421D01*
X257750Y1279336D01*
X257777Y1279240D01*
X257781Y1279187D01*
X257785Y1279133D01*
Y1279125D01*
Y1279106D01*
X257781Y1279075D01*
X257777Y1279037D01*
X257769Y1278991D01*
X257758Y1278941D01*
X257742Y1278887D01*
X257719Y1278833D01*
X257715Y1278826D01*
X257708Y1278806D01*
X257692Y1278780D01*
X257669Y1278741D01*
X257642Y1278695D01*
X257608Y1278641D01*
X257562Y1278588D01*
X257512Y1278526D01*
X257504Y1278518D01*
X257485Y1278495D01*
X257450Y1278461D01*
X257427Y1278438D01*
X257400Y1278411D01*
X257370Y1278380D01*
X257331Y1278346D01*
X257293Y1278311D01*
X257251Y1278269D01*
X257205Y1278227D01*
X257151Y1278181D01*
X257097Y1278134D01*
X257036Y1278081D01*
X257032Y1278077D01*
X257024Y1278069D01*
X257009Y1278058D01*
X256990Y1278042D01*
X256943Y1278004D01*
X256886Y1277954D01*
X256828Y1277900D01*
X256767Y1277846D01*
X256717Y1277800D01*
X256698Y1277781D01*
X256679Y1277762D01*
X256675Y1277758D01*
X256667Y1277747D01*
X256652Y1277731D01*
X256632Y1277708D01*
X256590Y1277658D01*
X256548Y1277597D01*
X257788D01*
Y1277301D01*
X256118D01*
Y1277305D01*
Y1277320D01*
Y1277343D01*
X256122Y1277370D01*
X256126Y1277401D01*
X256129Y1277435D01*
X256141Y1277474D01*
X256153Y1277512D01*
Y1277516D01*
X256156Y1277520D01*
X256164Y1277543D01*
X256179Y1277574D01*
X256202Y1277620D01*
X256229Y1277670D01*
X256268Y1277727D01*
X256306Y1277785D01*
X256356Y1277846D01*
Y1277850D01*
X256364Y1277854D01*
X256383Y1277877D01*
X256414Y1277912D01*
X256460Y1277958D01*
X256517Y1278012D01*
X256586Y1278077D01*
X256671Y1278150D01*
X256763Y1278230D01*
X256767Y1278234D01*
X256782Y1278246D01*
X256801Y1278261D01*
X256828Y1278288D01*
X256863Y1278315D01*
X256901Y1278349D01*
X256986Y1278422D01*
X257078Y1278511D01*
X257170Y1278599D01*
X257216Y1278641D01*
X257255Y1278683D01*
X257289Y1278726D01*
X257320Y1278764D01*
Y1278768D01*
X257328Y1278772D01*
X257335Y1278783D01*
X257343Y1278799D01*
X257366Y1278837D01*
X257393Y1278887D01*
X257420Y1278945D01*
X257443Y1279006D01*
X257458Y1279075D01*
X257466Y1279140D01*
Y1279144D01*
Y1279148D01*
X257462Y1279171D01*
X257458Y1279206D01*
X257450Y1279248D01*
X257431Y1279298D01*
X257408Y1279348D01*
X257377Y1279402D01*
X257331Y1279451D01*
X257324Y1279455D01*
X257308Y1279471D01*
X257278Y1279490D01*
X257239Y1279517D01*
X257189Y1279540D01*
X257132Y1279559D01*
X257063Y1279574D01*
X256986Y1279578D01*
X256963D01*
X256947Y1279574D01*
X256909Y1279571D01*
X256859Y1279563D01*
X256801Y1279544D01*
X256740Y1279521D01*
X256682Y1279486D01*
X256629Y1279440D01*
X256625Y1279432D01*
X256609Y1279417D01*
X256586Y1279386D01*
X256563Y1279344D01*
X256537Y1279290D01*
X256517Y1279229D01*
X256502Y1279156D01*
X256494Y1279071D01*
X256175Y1279106D01*
Y1279110D01*
Y1279121D01*
X256179Y1279140D01*
X256183Y1279163D01*
X256191Y1279194D01*
X256195Y1279229D01*
X256218Y1279306D01*
X256248Y1279394D01*
X256291Y1279482D01*
X256348Y1279571D01*
X256379Y1279609D01*
X256417Y1279647D01*
X256421Y1279651D01*
X256429Y1279655D01*
X256440Y1279667D01*
X256456Y1279678D01*
X256479Y1279690D01*
X256506Y1279709D01*
X256537Y1279724D01*
X256571Y1279743D01*
X256609Y1279759D01*
X256652Y1279778D01*
X256702Y1279793D01*
X256751Y1279805D01*
X256867Y1279828D01*
X256928Y1279832D01*
X256993Y1279836D01*
X257028D01*
X257055Y1279832D01*
D02*
G37*
%LPC*%
G36*
X204629Y1450243D02*
X203834D01*
Y1449409D01*
X204587D01*
X204629Y1449413D01*
X204679Y1449417D01*
X204736Y1449421D01*
X204798Y1449428D01*
X204855Y1449440D01*
X204905Y1449455D01*
X204913Y1449459D01*
X204928Y1449463D01*
X204952Y1449475D01*
X204978Y1449490D01*
X205009Y1449513D01*
X205044Y1449540D01*
X205074Y1449570D01*
X205101Y1449605D01*
X205105Y1449609D01*
X205113Y1449624D01*
X205124Y1449644D01*
X205136Y1449674D01*
X205147Y1449705D01*
X205159Y1449743D01*
X205167Y1449786D01*
X205170Y1449832D01*
Y1449835D01*
Y1449839D01*
Y1449862D01*
X205163Y1449893D01*
X205155Y1449935D01*
X205140Y1449981D01*
X205117Y1450031D01*
X205082Y1450081D01*
X205040Y1450127D01*
X205032Y1450131D01*
X205017Y1450146D01*
X204982Y1450166D01*
X204940Y1450185D01*
X204882Y1450208D01*
X204813Y1450223D01*
X204729Y1450239D01*
X204629Y1450243D01*
D02*
G37*
G36*
X318266Y1516375D02*
X318262D01*
X318258D01*
X318235D01*
X318204Y1516367D01*
X318162Y1516360D01*
X318116Y1516344D01*
X318066Y1516321D01*
X318016Y1516287D01*
X317970Y1516245D01*
X317966Y1516237D01*
X317951Y1516222D01*
X317932Y1516187D01*
X317912Y1516145D01*
X317889Y1516087D01*
X317874Y1516018D01*
X317859Y1515934D01*
X317855Y1515834D01*
Y1515039D01*
X318688D01*
Y1515791D01*
X318684Y1515834D01*
X318680Y1515884D01*
X318676Y1515941D01*
X318669Y1516003D01*
X318657Y1516060D01*
X318642Y1516110D01*
X318638Y1516118D01*
X318634Y1516133D01*
X318623Y1516156D01*
X318607Y1516183D01*
X318584Y1516214D01*
X318557Y1516248D01*
X318527Y1516279D01*
X318492Y1516306D01*
X318488Y1516310D01*
X318473Y1516317D01*
X318454Y1516329D01*
X318423Y1516341D01*
X318392Y1516352D01*
X318354Y1516364D01*
X318312Y1516371D01*
X318266Y1516375D01*
D02*
G37*
%LPD*%
D10*
X234819Y1279929D02*
G03*
X234819Y1279929I-41339J0D01*
G01*
X422590D02*
G03*
X422590Y1279929I-41339J0D01*
G01*
D11*
X197988Y1445835D02*
Y1450165D01*
Y1445835D02*
X209012D01*
Y1450165D01*
X197988D02*
X209012D01*
X236339Y1464791D02*
Y1476209D01*
Y1464791D02*
X253661D01*
Y1476209D01*
X236339D02*
X253661D01*
X306636Y1507239D02*
Y1522247D01*
X314558D01*
Y1507239D02*
Y1522247D01*
X306636Y1507239D02*
X314558D01*
X317932Y1509193D02*
Y1520216D01*
X322263D01*
Y1509193D02*
Y1520216D01*
X317932Y1509193D02*
X322263D01*
X236106Y1303894D02*
X264894D01*
Y1252106D02*
Y1303894D01*
X236106Y1252106D02*
X264894D01*
X236106D02*
Y1303894D01*
X421228Y1236606D02*
G03*
X425370Y1240748I0J4142D01*
G01*
X151350D02*
G03*
X155492Y1236606I4142J0D01*
G01*
X425370Y1558858D02*
G03*
X421228Y1563000I-4142J0D01*
G01*
X155492Y1562992D02*
G03*
X151350Y1558850I0J-4142D01*
G01*
X425354Y1240555D02*
Y1558858D01*
X155488Y1236610D02*
X421228D01*
X151350Y1240748D02*
Y1558850D01*
X155492Y1562992D02*
X421228D01*
M02*
