G04*
G04 #@! TF.GenerationSoftware,Altium Limited,Altium Designer,20.0.10 (225)*
G04*
G04 Layer_Color=8421504*
%FSLAX25Y25*%
%MOIN*%
G70*
G01*
G75*
%ADD10C,0.01000*%
%ADD11C,0.00787*%
%ADD20R,0.03543X0.03150*%
%ADD21R,0.03150X0.06693*%
%ADD22R,0.03740X0.03347*%
%ADD23R,0.02362X0.03543*%
%ADD24R,0.01972X0.04375*%
%ADD25R,0.03543X0.02362*%
%ADD26R,0.04134X0.03740*%
%ADD27R,0.03985X0.04758*%
%ADD28R,0.03150X0.03543*%
%ADD29R,0.03543X0.09843*%
%ADD30R,0.11811X0.05906*%
%ADD31R,0.02756X0.03543*%
%ADD32R,0.03740X0.04134*%
%ADD33R,0.03150X0.03150*%
%ADD34R,0.03543X0.02756*%
%ADD35R,0.03000X0.02800*%
%ADD36R,0.01600X0.09055*%
%ADD37R,0.03937X0.03543*%
D10*
X234819Y1279929D02*
G03*
X234819Y1279929I-41339J0D01*
G01*
X422590D02*
G03*
X422590Y1279929I-41339J0D01*
G01*
D11*
X421228Y1236606D02*
G03*
X425370Y1240748I0J4142D01*
G01*
X151350D02*
G03*
X155492Y1236606I4142J0D01*
G01*
X425370Y1558858D02*
G03*
X421228Y1563000I-4142J0D01*
G01*
X155492Y1562992D02*
G03*
X151350Y1558850I0J-4142D01*
G01*
X425354Y1240555D02*
Y1558858D01*
X155488Y1236610D02*
X421228D01*
X151350Y1240748D02*
Y1558850D01*
X155492Y1562992D02*
X421228D01*
D20*
X206846Y1448000D02*
D03*
X200153D02*
D03*
D21*
X251693Y1470500D02*
D03*
X238307D02*
D03*
D22*
X336000Y1530441D02*
D03*
Y1535559D02*
D03*
X389500Y1341768D02*
D03*
Y1336650D02*
D03*
X296000Y1431941D02*
D03*
Y1437059D02*
D03*
X340500Y1437559D02*
D03*
Y1432441D02*
D03*
X384500Y1411441D02*
D03*
Y1416559D02*
D03*
D23*
X272953Y1513500D02*
D03*
X267047D02*
D03*
X272953Y1525000D02*
D03*
X267047D02*
D03*
D24*
X292097Y1520770D02*
D03*
Y1511715D02*
D03*
D25*
X284597Y1519696D02*
D03*
Y1513790D02*
D03*
D26*
X301097Y1511889D02*
D03*
Y1517597D02*
D03*
X293000Y1503354D02*
D03*
Y1497646D02*
D03*
D27*
X310597Y1511586D02*
D03*
Y1517900D02*
D03*
D28*
X320097Y1511358D02*
D03*
Y1518051D02*
D03*
D29*
X308000Y1457744D02*
D03*
X303000D02*
D03*
X273000D02*
D03*
X278000D02*
D03*
X283000D02*
D03*
X288000D02*
D03*
X293000D02*
D03*
X298000D02*
D03*
X308000Y1482650D02*
D03*
X303000D02*
D03*
X298000D02*
D03*
X293000D02*
D03*
X273000D02*
D03*
X278000D02*
D03*
X283000D02*
D03*
X288000D02*
D03*
D30*
X356984Y1361000D02*
D03*
Y1351000D02*
D03*
Y1341000D02*
D03*
X305016D02*
D03*
Y1351000D02*
D03*
Y1361000D02*
D03*
X265484D02*
D03*
Y1351000D02*
D03*
Y1341000D02*
D03*
X213516D02*
D03*
Y1351000D02*
D03*
Y1361000D02*
D03*
D31*
X238623Y1497221D02*
D03*
X244135D02*
D03*
X238623Y1490993D02*
D03*
X244135D02*
D03*
D32*
X256854Y1483500D02*
D03*
X251146D02*
D03*
D33*
X235500Y1522547D02*
D03*
Y1528453D02*
D03*
D34*
X242000Y1522744D02*
D03*
Y1528256D02*
D03*
D35*
X251524Y1490764D02*
D03*
X257624D02*
D03*
X251524Y1496992D02*
D03*
X257624D02*
D03*
D36*
X269957Y1541902D02*
D03*
X272532D02*
D03*
X275091D02*
D03*
X277650D02*
D03*
X280193D02*
D03*
D37*
X199000Y1355831D02*
D03*
Y1361146D02*
D03*
X289000Y1355831D02*
D03*
Y1361146D02*
D03*
M02*
