G04*
G04 #@! TF.GenerationSoftware,Altium Limited,Altium Designer,20.0.10 (225)*
G04*
G04 Layer_Color=65535*
%FSLAX44Y44*%
%MOMM*%
G71*
G01*
G75*
%ADD10C,0.2000*%
G36*
X353513Y202378D02*
X356323D01*
Y202144D01*
X358197D01*
Y201910D01*
X359602D01*
Y201675D01*
X361007D01*
Y201441D01*
X362178D01*
Y201207D01*
X363349D01*
Y200973D01*
X364286D01*
Y200739D01*
X365223D01*
Y200505D01*
X365925D01*
Y200270D01*
X366628D01*
Y200036D01*
X367564D01*
Y199802D01*
X368267D01*
Y199568D01*
X368970D01*
Y199334D01*
X369672D01*
Y199099D01*
X370140D01*
Y198865D01*
X370843D01*
Y198631D01*
X371546D01*
Y198397D01*
X372014D01*
Y198163D01*
X372717D01*
Y197928D01*
X373185D01*
Y197694D01*
X373653D01*
Y197460D01*
X374356D01*
Y197226D01*
X374824D01*
Y196992D01*
X375293D01*
Y196758D01*
X375761D01*
Y196523D01*
X376230D01*
Y196289D01*
X376698D01*
Y196055D01*
X377166D01*
Y195821D01*
X377401D01*
Y195586D01*
X377869D01*
Y195352D01*
X378337D01*
Y195118D01*
X378806D01*
Y194884D01*
X379274D01*
Y194650D01*
X379508D01*
Y194416D01*
X379977D01*
Y194181D01*
X380445D01*
Y193947D01*
X380679D01*
Y193713D01*
X381147D01*
Y193479D01*
X381616D01*
Y193245D01*
X381850D01*
Y193010D01*
X382318D01*
Y192776D01*
X382553D01*
Y192542D01*
X382787D01*
Y192308D01*
X383255D01*
Y192074D01*
X383724D01*
Y191839D01*
X383958D01*
Y191605D01*
X384192D01*
Y191371D01*
X384660D01*
Y191137D01*
X384895D01*
Y190903D01*
X385129D01*
Y190669D01*
X385597D01*
Y190434D01*
X385831D01*
Y190200D01*
X386065D01*
Y189966D01*
X386300D01*
Y189732D01*
X386768D01*
Y189498D01*
X387002D01*
Y189263D01*
X387237D01*
Y189029D01*
X387471D01*
Y188795D01*
X387939D01*
Y188561D01*
X388173D01*
Y188326D01*
X388408D01*
Y188092D01*
X388642D01*
Y187858D01*
X388876D01*
Y187624D01*
X389110D01*
Y187390D01*
X389344D01*
Y187156D01*
X389579D01*
Y186921D01*
X389813D01*
Y186687D01*
X390281D01*
Y186453D01*
X390515D01*
Y186219D01*
X390749D01*
Y185985D01*
X390984D01*
Y185751D01*
X391218D01*
Y185516D01*
X391452D01*
Y185282D01*
X391686D01*
Y185048D01*
X391920D01*
Y184814D01*
X392155D01*
Y184580D01*
X392389D01*
Y184345D01*
X392623D01*
Y184111D01*
X392857D01*
Y183877D01*
Y183643D01*
X393091D01*
Y183409D01*
X393326D01*
Y183174D01*
X393560D01*
Y182940D01*
X393794D01*
Y182706D01*
X394028D01*
Y182472D01*
X394262D01*
Y182238D01*
X394496D01*
Y182003D01*
X394731D01*
Y181769D01*
Y181535D01*
X394965D01*
Y181301D01*
X395199D01*
Y181067D01*
X395433D01*
Y180832D01*
X395667D01*
Y180598D01*
Y180364D01*
X395902D01*
Y180130D01*
X396136D01*
Y179896D01*
X396370D01*
Y179661D01*
X396604D01*
Y179427D01*
Y179193D01*
X396838D01*
Y178959D01*
X397073D01*
Y178725D01*
X397307D01*
Y178491D01*
Y178256D01*
X397541D01*
Y178022D01*
X397775D01*
Y177788D01*
Y177554D01*
X398009D01*
Y177320D01*
X398244D01*
Y177085D01*
X398478D01*
Y176851D01*
Y176617D01*
X398712D01*
Y176383D01*
X398946D01*
Y176148D01*
Y175914D01*
X399180D01*
Y175680D01*
X399414D01*
Y175446D01*
Y175212D01*
X399649D01*
Y174978D01*
Y174743D01*
X399883D01*
Y174509D01*
X400117D01*
Y174275D01*
Y174041D01*
X400351D01*
Y173807D01*
Y173572D01*
X400586D01*
Y173338D01*
X400820D01*
Y173104D01*
Y172870D01*
X401054D01*
Y172636D01*
Y172402D01*
X401288D01*
Y172167D01*
Y171933D01*
X401522D01*
Y171699D01*
Y171465D01*
X401756D01*
Y171231D01*
Y170996D01*
X401991D01*
Y170762D01*
X402225D01*
Y170528D01*
Y170294D01*
X402459D01*
Y170060D01*
Y169825D01*
X402693D01*
Y169591D01*
Y169357D01*
X402927D01*
Y169123D01*
Y168889D01*
Y168654D01*
X403162D01*
Y168420D01*
Y168186D01*
X403396D01*
Y167952D01*
Y167718D01*
X403630D01*
Y167484D01*
Y167249D01*
X403864D01*
Y167015D01*
Y166781D01*
Y166547D01*
X404098D01*
Y166313D01*
Y166078D01*
X404333D01*
Y165844D01*
Y165610D01*
Y165376D01*
X404567D01*
Y165142D01*
Y164907D01*
X404801D01*
Y164673D01*
Y164439D01*
Y164205D01*
X405035D01*
Y163971D01*
Y163736D01*
Y163502D01*
X405269D01*
Y163268D01*
Y163034D01*
Y162800D01*
X405504D01*
Y162565D01*
Y162331D01*
Y162097D01*
X405738D01*
Y161863D01*
Y161629D01*
Y161394D01*
X405972D01*
Y161160D01*
Y160926D01*
Y160692D01*
X406206D01*
Y160458D01*
Y160224D01*
Y159989D01*
X406440D01*
Y159755D01*
Y159521D01*
Y159287D01*
Y159052D01*
X406674D01*
Y158818D01*
Y158584D01*
Y158350D01*
Y158116D01*
X406909D01*
Y157881D01*
Y157647D01*
Y157413D01*
Y157179D01*
X407143D01*
Y156945D01*
Y156711D01*
Y156476D01*
Y156242D01*
X407377D01*
Y156008D01*
Y155774D01*
Y155540D01*
Y155306D01*
Y155071D01*
Y154837D01*
X407611D01*
Y154603D01*
Y154369D01*
Y154135D01*
Y153900D01*
Y153666D01*
Y153432D01*
X407845D01*
Y153198D01*
Y152963D01*
Y152729D01*
Y152495D01*
Y152261D01*
Y152027D01*
X408080D01*
Y151793D01*
Y151558D01*
Y151324D01*
Y151090D01*
Y150856D01*
Y150622D01*
Y150387D01*
Y150153D01*
Y149919D01*
X408314D01*
Y149685D01*
Y149451D01*
Y149216D01*
Y148982D01*
Y148748D01*
Y148514D01*
Y148280D01*
Y148046D01*
Y147811D01*
Y147577D01*
Y147343D01*
Y147109D01*
Y146875D01*
X408548D01*
Y146640D01*
Y146406D01*
Y146172D01*
Y145938D01*
Y145704D01*
Y145469D01*
Y145235D01*
Y145001D01*
Y144767D01*
Y144533D01*
Y144298D01*
Y144064D01*
Y143830D01*
Y143596D01*
Y143362D01*
Y143127D01*
Y142893D01*
Y142659D01*
Y142425D01*
Y142191D01*
Y141957D01*
Y141722D01*
Y141488D01*
X408314D01*
Y141254D01*
Y141020D01*
Y140786D01*
Y140551D01*
Y140317D01*
Y140083D01*
Y139849D01*
Y139615D01*
Y139380D01*
Y139146D01*
Y138912D01*
Y138678D01*
Y138444D01*
Y138209D01*
X408080D01*
Y137975D01*
Y137741D01*
Y137507D01*
Y137273D01*
Y137038D01*
Y136804D01*
Y136570D01*
Y136336D01*
Y136102D01*
X407845D01*
Y135868D01*
Y135633D01*
Y135399D01*
Y135165D01*
Y134931D01*
Y134697D01*
X407611D01*
Y134462D01*
Y134228D01*
Y133994D01*
Y133760D01*
Y133526D01*
Y133291D01*
X407377D01*
Y133057D01*
Y132823D01*
Y132589D01*
Y132355D01*
Y132120D01*
X407143D01*
Y131886D01*
Y131652D01*
Y131418D01*
Y131184D01*
Y130949D01*
X406909D01*
Y130715D01*
Y130481D01*
Y130247D01*
Y130013D01*
X406674D01*
Y129778D01*
Y129544D01*
Y129310D01*
Y129076D01*
X406440D01*
Y128842D01*
Y128608D01*
Y128373D01*
Y128139D01*
X406206D01*
Y127905D01*
Y127671D01*
Y127437D01*
X405972D01*
Y127202D01*
Y126968D01*
Y126734D01*
X405738D01*
Y126500D01*
Y126266D01*
Y126031D01*
X405504D01*
Y125797D01*
Y125563D01*
Y125329D01*
Y125095D01*
X405269D01*
Y124860D01*
Y124626D01*
X405035D01*
Y124392D01*
Y124158D01*
Y123924D01*
X404801D01*
Y123689D01*
Y123455D01*
Y123221D01*
X404567D01*
Y122987D01*
Y122753D01*
X404333D01*
Y122519D01*
Y122284D01*
Y122050D01*
X404098D01*
Y121816D01*
Y121582D01*
X403864D01*
Y121348D01*
Y121113D01*
Y120879D01*
X403630D01*
Y120645D01*
Y120411D01*
X403396D01*
Y120177D01*
Y119942D01*
X403162D01*
Y119708D01*
Y119474D01*
Y119240D01*
X402927D01*
Y119006D01*
Y118771D01*
X402693D01*
Y118537D01*
Y118303D01*
X402459D01*
Y118069D01*
X402225D01*
Y117835D01*
Y117600D01*
Y117366D01*
X401991D01*
Y117132D01*
X401756D01*
Y116898D01*
Y116664D01*
X401522D01*
Y116430D01*
Y116195D01*
X401288D01*
Y115961D01*
Y115727D01*
X401054D01*
Y115493D01*
Y115259D01*
X400820D01*
Y115024D01*
Y114790D01*
X400586D01*
Y114556D01*
X400351D01*
Y114322D01*
Y114088D01*
X400117D01*
Y113853D01*
Y113619D01*
X399883D01*
Y113385D01*
X399649D01*
Y113151D01*
X399414D01*
Y112917D01*
X399180D01*
Y112683D01*
X398946D01*
Y112448D01*
X398712D01*
Y112214D01*
X398244D01*
Y111980D01*
X395667D01*
Y112214D01*
X395199D01*
Y112448D01*
X394731D01*
Y112683D01*
X394496D01*
Y112917D01*
X394262D01*
Y113151D01*
X394028D01*
Y113385D01*
X393794D01*
Y113619D01*
Y113853D01*
X393560D01*
Y114088D01*
Y114322D01*
X393326D01*
Y114556D01*
Y114790D01*
Y115024D01*
Y115259D01*
Y115493D01*
Y115727D01*
Y115961D01*
Y116195D01*
Y116430D01*
Y116664D01*
X393560D01*
Y116898D01*
Y117132D01*
X393794D01*
Y117366D01*
Y117600D01*
X394028D01*
Y117835D01*
Y118069D01*
X394262D01*
Y118303D01*
Y118537D01*
X394496D01*
Y118771D01*
Y119006D01*
X394731D01*
Y119240D01*
Y119474D01*
X394965D01*
Y119708D01*
Y119942D01*
X395199D01*
Y120177D01*
Y120411D01*
Y120645D01*
X395433D01*
Y120879D01*
Y121113D01*
X395667D01*
Y121348D01*
Y121582D01*
X395902D01*
Y121816D01*
Y122050D01*
Y122284D01*
X396136D01*
Y122519D01*
Y122753D01*
X396370D01*
Y122987D01*
Y123221D01*
Y123455D01*
X396604D01*
Y123689D01*
Y123924D01*
Y124158D01*
X396838D01*
Y124392D01*
Y124626D01*
Y124860D01*
X397073D01*
Y125095D01*
Y125329D01*
X397307D01*
Y125563D01*
Y125797D01*
Y126031D01*
Y126266D01*
X397541D01*
Y126500D01*
Y126734D01*
Y126968D01*
X397775D01*
Y127202D01*
Y127437D01*
Y127671D01*
Y127905D01*
X398009D01*
Y128139D01*
Y128373D01*
Y128608D01*
X398244D01*
Y128842D01*
Y129076D01*
Y129310D01*
Y129544D01*
X398478D01*
Y129778D01*
Y130013D01*
Y130247D01*
Y130481D01*
Y130715D01*
X398712D01*
Y130949D01*
Y131184D01*
Y131418D01*
Y131652D01*
Y131886D01*
X398946D01*
Y132120D01*
Y132355D01*
Y132589D01*
Y132823D01*
Y133057D01*
X399180D01*
Y133291D01*
Y133526D01*
Y133760D01*
Y133994D01*
Y134228D01*
Y134462D01*
Y134697D01*
X399414D01*
Y134931D01*
Y135165D01*
Y135399D01*
Y135633D01*
Y135868D01*
Y136102D01*
Y136336D01*
Y136570D01*
X399649D01*
Y136804D01*
Y137038D01*
Y137273D01*
Y137507D01*
Y137741D01*
Y137975D01*
Y138209D01*
Y138444D01*
Y138678D01*
Y138912D01*
Y139146D01*
Y139380D01*
Y139615D01*
X399883D01*
Y139849D01*
Y140083D01*
Y140317D01*
Y140551D01*
Y140786D01*
Y141020D01*
Y141254D01*
Y141488D01*
Y141722D01*
Y141957D01*
Y142191D01*
Y142425D01*
Y142659D01*
Y142893D01*
Y143127D01*
Y143362D01*
Y143596D01*
Y143830D01*
Y144064D01*
Y144298D01*
Y144533D01*
X399649D01*
Y144767D01*
Y145001D01*
Y145235D01*
Y145469D01*
Y145704D01*
Y145938D01*
Y146172D01*
Y146406D01*
Y146640D01*
Y146875D01*
Y147109D01*
Y147343D01*
Y147577D01*
Y147811D01*
X399414D01*
Y148046D01*
Y148280D01*
Y148514D01*
Y148748D01*
Y148982D01*
Y149216D01*
Y149451D01*
Y149685D01*
X399180D01*
Y149919D01*
Y150153D01*
Y150387D01*
Y150622D01*
Y150856D01*
Y151090D01*
Y151324D01*
X398946D01*
Y151558D01*
Y151793D01*
Y152027D01*
Y152261D01*
Y152495D01*
X398712D01*
Y152729D01*
Y152963D01*
Y153198D01*
Y153432D01*
Y153666D01*
X398478D01*
Y153900D01*
Y154135D01*
Y154369D01*
Y154603D01*
X398244D01*
Y154837D01*
Y155071D01*
Y155306D01*
Y155540D01*
Y155774D01*
X398009D01*
Y156008D01*
Y156242D01*
Y156476D01*
X397775D01*
Y156711D01*
Y156945D01*
Y157179D01*
Y157413D01*
X397541D01*
Y157647D01*
Y157881D01*
Y158116D01*
X397307D01*
Y158350D01*
Y158584D01*
Y158818D01*
X397073D01*
Y159052D01*
Y159287D01*
Y159521D01*
X396838D01*
Y159755D01*
Y159989D01*
Y160224D01*
X396604D01*
Y160458D01*
Y160692D01*
Y160926D01*
X396370D01*
Y161160D01*
Y161394D01*
Y161629D01*
X396136D01*
Y161863D01*
Y162097D01*
X395902D01*
Y162331D01*
Y162565D01*
Y162800D01*
X395667D01*
Y163034D01*
Y163268D01*
X395433D01*
Y163502D01*
Y163736D01*
X395199D01*
Y163971D01*
Y164205D01*
X394965D01*
Y164439D01*
Y164673D01*
Y164907D01*
X394731D01*
Y165142D01*
Y165376D01*
X394496D01*
Y165610D01*
Y165844D01*
X394262D01*
Y166078D01*
Y166313D01*
X394028D01*
Y166547D01*
Y166781D01*
X393794D01*
Y167015D01*
Y167249D01*
X393560D01*
Y167484D01*
Y167718D01*
X393326D01*
Y167952D01*
X393091D01*
Y168186D01*
Y168420D01*
X392857D01*
Y168654D01*
Y168889D01*
X392623D01*
Y169123D01*
Y169357D01*
X392389D01*
Y169591D01*
X392155D01*
Y169825D01*
Y170060D01*
X391920D01*
Y170294D01*
Y170528D01*
X391686D01*
Y170762D01*
X391452D01*
Y170996D01*
Y171231D01*
X391218D01*
Y171465D01*
X390984D01*
Y171699D01*
Y171933D01*
X390749D01*
Y172167D01*
X390515D01*
Y172402D01*
Y172636D01*
X390281D01*
Y172870D01*
X390047D01*
Y173104D01*
Y173338D01*
X389813D01*
Y173572D01*
X389579D01*
Y173807D01*
X389344D01*
Y174041D01*
Y174275D01*
X389110D01*
Y174509D01*
X388876D01*
Y174743D01*
X388642D01*
Y174978D01*
Y175212D01*
X388408D01*
Y175446D01*
X388173D01*
Y175680D01*
X387939D01*
Y175914D01*
X387705D01*
Y176148D01*
Y176383D01*
X387471D01*
Y176617D01*
X387237D01*
Y176851D01*
X387002D01*
Y177085D01*
X386768D01*
Y177320D01*
X386534D01*
Y177554D01*
Y177788D01*
X386300D01*
Y178022D01*
X386065D01*
Y178256D01*
X385831D01*
Y178491D01*
X385597D01*
Y178725D01*
X385363D01*
Y178959D01*
X385129D01*
Y179193D01*
X384895D01*
Y179427D01*
X384660D01*
Y179661D01*
X384426D01*
Y179896D01*
X384192D01*
Y180130D01*
X383958D01*
Y180364D01*
X383724D01*
Y180598D01*
X383489D01*
Y180832D01*
X383255D01*
Y181067D01*
X383021D01*
Y181301D01*
X382787D01*
Y181535D01*
X382553D01*
Y181769D01*
X382318D01*
Y182003D01*
X382084D01*
Y182238D01*
X381616D01*
Y182472D01*
X381382D01*
Y182706D01*
X381147D01*
Y182940D01*
X380913D01*
Y183174D01*
X380679D01*
Y183409D01*
X380445D01*
Y183643D01*
X380211D01*
Y183877D01*
X379742D01*
Y184111D01*
X379508D01*
Y184345D01*
X379274D01*
Y184580D01*
X378806D01*
Y184814D01*
X378571D01*
Y185048D01*
X378337D01*
Y185282D01*
X378103D01*
Y185516D01*
X377635D01*
Y185751D01*
X377401D01*
Y185985D01*
X377166D01*
Y186219D01*
X376698D01*
Y186453D01*
X376464D01*
Y186687D01*
X375995D01*
Y186921D01*
X375761D01*
Y187156D01*
X375293D01*
Y187390D01*
X375059D01*
Y187624D01*
X374590D01*
Y187858D01*
X374122D01*
Y188092D01*
X373888D01*
Y188326D01*
X373419D01*
Y188561D01*
X372951D01*
Y188795D01*
X372717D01*
Y189029D01*
X372248D01*
Y189263D01*
X371780D01*
Y189498D01*
X371311D01*
Y189732D01*
X370843D01*
Y189966D01*
X370609D01*
Y190200D01*
X369906D01*
Y190434D01*
X369438D01*
Y190669D01*
X368970D01*
Y190903D01*
X368501D01*
Y191137D01*
X368033D01*
Y191371D01*
X367564D01*
Y191605D01*
X366862D01*
Y191839D01*
X366393D01*
Y192074D01*
X365691D01*
Y192308D01*
X365223D01*
Y192542D01*
X364520D01*
Y192776D01*
X363817D01*
Y193010D01*
X363115D01*
Y193245D01*
X362646D01*
Y193479D01*
X361710D01*
Y193713D01*
X361007D01*
Y193947D01*
X360070D01*
Y194181D01*
X359133D01*
Y194416D01*
X358197D01*
Y194650D01*
X357026D01*
Y194884D01*
X355855D01*
Y195118D01*
X354450D01*
Y195352D01*
X352810D01*
Y195586D01*
X350703D01*
Y195821D01*
X341335D01*
Y195586D01*
X339227D01*
Y195352D01*
X337588D01*
Y195118D01*
X336183D01*
Y194884D01*
X335012D01*
Y194650D01*
X333841D01*
Y194416D01*
X333138D01*
Y194181D01*
X331967D01*
Y193947D01*
X331265D01*
Y193713D01*
X330328D01*
Y193479D01*
X329625D01*
Y193245D01*
X328923D01*
Y193010D01*
X328220D01*
Y192776D01*
X327518D01*
Y192542D01*
X327049D01*
Y192308D01*
X326347D01*
Y192074D01*
X325878D01*
Y191839D01*
X325176D01*
Y191605D01*
X324707D01*
Y191371D01*
X324239D01*
Y191137D01*
X323536D01*
Y190903D01*
X323068D01*
Y190669D01*
X322599D01*
Y190434D01*
X322131D01*
Y190200D01*
X321663D01*
Y189966D01*
X321194D01*
Y189732D01*
X320726D01*
Y189498D01*
X320492D01*
Y189263D01*
X320023D01*
Y189029D01*
X319555D01*
Y188795D01*
X319087D01*
Y188561D01*
X318852D01*
Y188326D01*
X318384D01*
Y188092D01*
X317916D01*
Y187858D01*
X317682D01*
Y187624D01*
X317213D01*
Y187390D01*
X316979D01*
Y187156D01*
X316511D01*
Y186921D01*
X316276D01*
Y186687D01*
X315808D01*
Y186453D01*
X315574D01*
Y186219D01*
X315105D01*
Y185985D01*
X314871D01*
Y185751D01*
X314637D01*
Y185516D01*
X314169D01*
Y185282D01*
X313934D01*
Y185048D01*
X313466D01*
Y184814D01*
X313232D01*
Y184580D01*
X312998D01*
Y184345D01*
X312763D01*
Y184111D01*
X312295D01*
Y183877D01*
X312061D01*
Y183643D01*
X311827D01*
Y183409D01*
X311592D01*
Y183174D01*
X311358D01*
Y182940D01*
X310890D01*
Y182706D01*
X310656D01*
Y182472D01*
X310422D01*
Y182238D01*
X310187D01*
Y182003D01*
X309953D01*
Y181769D01*
X309719D01*
Y181535D01*
X309485D01*
Y181301D01*
X309251D01*
Y181067D01*
X309016D01*
Y180832D01*
X308782D01*
Y180598D01*
X308548D01*
Y180364D01*
X308314D01*
Y180130D01*
X308080D01*
Y179896D01*
X307845D01*
Y179661D01*
X307611D01*
Y179427D01*
X307377D01*
Y179193D01*
X307143D01*
Y178959D01*
X306909D01*
Y178725D01*
X306674D01*
Y178491D01*
X306440D01*
Y178256D01*
X306206D01*
Y178022D01*
X305972D01*
Y177788D01*
X305738D01*
Y177554D01*
X305504D01*
Y177320D01*
X305269D01*
Y177085D01*
Y176851D01*
X305035D01*
Y176617D01*
X304801D01*
Y176383D01*
X304567D01*
Y176148D01*
X304333D01*
Y175914D01*
X304098D01*
Y175680D01*
Y175446D01*
X303864D01*
Y175212D01*
X303630D01*
Y174978D01*
X303396D01*
Y174743D01*
Y174509D01*
X303162D01*
Y174275D01*
X302927D01*
Y174041D01*
X302693D01*
Y173807D01*
Y173572D01*
X302459D01*
Y173338D01*
X302225D01*
Y173104D01*
X301991D01*
Y172870D01*
Y172636D01*
X301756D01*
Y172402D01*
X301522D01*
Y172167D01*
Y171933D01*
X301288D01*
Y171699D01*
X301054D01*
Y171465D01*
Y171231D01*
X300820D01*
Y170996D01*
X300585D01*
Y170762D01*
Y170528D01*
X300351D01*
Y170294D01*
Y170060D01*
X300117D01*
Y169825D01*
X299883D01*
Y169591D01*
Y169357D01*
X299649D01*
Y169123D01*
Y168889D01*
X299415D01*
Y168654D01*
X299180D01*
Y168420D01*
Y168186D01*
X298946D01*
Y167952D01*
Y167718D01*
X298712D01*
Y167484D01*
Y167249D01*
X298478D01*
Y167015D01*
Y166781D01*
X298244D01*
Y166547D01*
Y166313D01*
X298009D01*
Y166078D01*
Y165844D01*
X297775D01*
Y165610D01*
Y165376D01*
X297541D01*
Y165142D01*
Y164907D01*
X297307D01*
Y164673D01*
Y164439D01*
X297073D01*
Y164205D01*
Y163971D01*
X296838D01*
Y163736D01*
Y163502D01*
X296604D01*
Y163268D01*
Y163034D01*
Y162800D01*
X296370D01*
Y162565D01*
Y162331D01*
X296136D01*
Y162097D01*
Y161863D01*
Y161629D01*
X295902D01*
Y161394D01*
Y161160D01*
X295667D01*
Y160926D01*
Y160692D01*
Y160458D01*
X295433D01*
Y160224D01*
Y159989D01*
Y159755D01*
X295199D01*
Y159521D01*
Y159287D01*
Y159052D01*
X294965D01*
Y158818D01*
Y158584D01*
Y158350D01*
X294731D01*
Y158116D01*
Y157881D01*
Y157647D01*
X294496D01*
Y157413D01*
Y157179D01*
Y156945D01*
Y156711D01*
X294262D01*
Y156476D01*
Y156242D01*
Y156008D01*
X294028D01*
Y155774D01*
Y155540D01*
Y155306D01*
Y155071D01*
X293794D01*
Y154837D01*
Y154603D01*
Y154369D01*
Y154135D01*
Y153900D01*
X293560D01*
Y153666D01*
Y153432D01*
Y153198D01*
Y152963D01*
X293326D01*
Y152729D01*
Y152495D01*
Y152261D01*
Y152027D01*
Y151793D01*
X293091D01*
Y151558D01*
Y151324D01*
Y151090D01*
Y150856D01*
Y150622D01*
Y150387D01*
Y150153D01*
X292857D01*
Y149919D01*
Y149685D01*
Y149451D01*
Y149216D01*
Y148982D01*
Y148748D01*
Y148514D01*
X292623D01*
Y148280D01*
Y148046D01*
Y147811D01*
Y147577D01*
Y147343D01*
Y147109D01*
Y146875D01*
Y146640D01*
Y146406D01*
Y146172D01*
Y145938D01*
X292389D01*
Y145704D01*
Y145469D01*
Y145235D01*
Y145001D01*
Y144767D01*
Y144533D01*
Y144298D01*
Y144064D01*
Y143830D01*
Y143596D01*
Y143362D01*
Y143127D01*
Y142893D01*
Y142659D01*
Y142425D01*
Y142191D01*
Y141957D01*
Y141722D01*
Y141488D01*
Y141254D01*
Y141020D01*
Y140786D01*
Y140551D01*
Y140317D01*
Y140083D01*
Y139849D01*
Y139615D01*
Y139380D01*
Y139146D01*
Y138912D01*
Y138678D01*
Y138444D01*
X292623D01*
Y138209D01*
Y137975D01*
Y137741D01*
Y137507D01*
Y137273D01*
Y137038D01*
Y136804D01*
Y136570D01*
Y136336D01*
Y136102D01*
Y135868D01*
X292857D01*
Y135633D01*
Y135399D01*
Y135165D01*
Y134931D01*
Y134697D01*
Y134462D01*
Y134228D01*
Y133994D01*
X293091D01*
Y133760D01*
Y133526D01*
Y133291D01*
Y133057D01*
Y132823D01*
Y132589D01*
X293326D01*
Y132355D01*
Y132120D01*
Y131886D01*
Y131652D01*
Y131418D01*
X293560D01*
Y131184D01*
Y130949D01*
Y130715D01*
Y130481D01*
Y130247D01*
X293794D01*
Y130013D01*
Y129778D01*
Y129544D01*
Y129310D01*
X294028D01*
Y129076D01*
Y128842D01*
Y128608D01*
Y128373D01*
X294262D01*
Y128139D01*
Y127905D01*
Y127671D01*
Y127437D01*
X294496D01*
Y127202D01*
Y126968D01*
Y126734D01*
X294731D01*
Y126500D01*
Y126266D01*
Y126031D01*
X294965D01*
Y125797D01*
Y125563D01*
Y125329D01*
X295199D01*
Y125095D01*
Y124860D01*
Y124626D01*
X295433D01*
Y124392D01*
Y124158D01*
Y123924D01*
X295667D01*
Y123689D01*
Y123455D01*
Y123221D01*
X295902D01*
Y122987D01*
Y122753D01*
Y122519D01*
X296136D01*
Y122284D01*
Y122050D01*
X296370D01*
Y121816D01*
Y121582D01*
X296604D01*
Y121348D01*
Y121113D01*
Y120879D01*
X296838D01*
Y120645D01*
Y120411D01*
X297073D01*
Y120177D01*
Y119942D01*
X297307D01*
Y119708D01*
Y119474D01*
X297541D01*
Y119240D01*
Y119006D01*
X297775D01*
Y118771D01*
Y118537D01*
Y118303D01*
X298009D01*
Y118069D01*
Y117835D01*
X298244D01*
Y117600D01*
Y117366D01*
X298478D01*
Y117132D01*
X298712D01*
Y116898D01*
Y116664D01*
X298946D01*
Y116430D01*
Y116195D01*
X299180D01*
Y115961D01*
Y115727D01*
X299415D01*
Y115493D01*
Y115259D01*
X299649D01*
Y115024D01*
X299883D01*
Y114790D01*
Y114556D01*
X300117D01*
Y114322D01*
Y114088D01*
X300351D01*
Y113853D01*
X300585D01*
Y113619D01*
Y113385D01*
X300820D01*
Y113151D01*
X301054D01*
Y112917D01*
Y112683D01*
X301288D01*
Y112448D01*
Y112214D01*
X301522D01*
Y111980D01*
X301054D01*
Y112214D01*
X300820D01*
Y112448D01*
Y112683D01*
X300585D01*
Y112917D01*
X300351D01*
Y113151D01*
Y113385D01*
X300117D01*
Y113619D01*
Y113853D01*
X299883D01*
Y114088D01*
X299649D01*
Y114322D01*
Y114556D01*
X299415D01*
Y114790D01*
Y115024D01*
X299180D01*
Y115259D01*
X298946D01*
Y115493D01*
Y115727D01*
X298712D01*
Y115961D01*
Y116195D01*
X298478D01*
Y116430D01*
Y116664D01*
X298244D01*
Y116898D01*
Y117132D01*
X298009D01*
Y117366D01*
Y117600D01*
X297775D01*
Y117835D01*
Y118069D01*
X297541D01*
Y118303D01*
Y118537D01*
X297307D01*
Y118771D01*
Y119006D01*
X297073D01*
Y119240D01*
Y119474D01*
X296838D01*
Y119708D01*
Y119942D01*
X296604D01*
Y120177D01*
Y120411D01*
X296370D01*
Y120645D01*
Y120879D01*
X296136D01*
Y121113D01*
Y121348D01*
Y121582D01*
X295902D01*
Y121816D01*
Y122050D01*
X295667D01*
Y122284D01*
Y122519D01*
Y122753D01*
X295433D01*
Y122987D01*
Y123221D01*
X295199D01*
Y123455D01*
Y123689D01*
Y123924D01*
X294965D01*
Y124158D01*
Y124392D01*
Y124626D01*
X294731D01*
Y124860D01*
Y125095D01*
Y125329D01*
X294496D01*
Y125563D01*
Y125797D01*
Y126031D01*
X294262D01*
Y126266D01*
Y126500D01*
Y126734D01*
X294028D01*
Y126968D01*
Y127202D01*
Y127437D01*
X293794D01*
Y127671D01*
Y127905D01*
Y128139D01*
X293560D01*
Y128373D01*
Y128608D01*
Y128842D01*
Y129076D01*
X293326D01*
Y129310D01*
Y129544D01*
Y129778D01*
Y130013D01*
X293091D01*
Y130247D01*
Y130481D01*
Y130715D01*
Y130949D01*
Y131184D01*
X292857D01*
Y131418D01*
Y131652D01*
Y131886D01*
Y132120D01*
X292623D01*
Y132355D01*
Y132589D01*
Y132823D01*
Y133057D01*
Y133291D01*
X292389D01*
Y133526D01*
Y133760D01*
Y133994D01*
Y134228D01*
Y134462D01*
Y134697D01*
X292155D01*
Y134931D01*
Y135165D01*
Y135399D01*
Y135633D01*
Y135868D01*
Y136102D01*
X291920D01*
Y136336D01*
Y136570D01*
Y136804D01*
Y137038D01*
Y137273D01*
Y137507D01*
Y137741D01*
Y137975D01*
Y138209D01*
X291686D01*
Y138444D01*
Y138678D01*
Y138912D01*
Y139146D01*
Y139380D01*
Y139615D01*
Y139849D01*
Y140083D01*
Y140317D01*
Y140551D01*
Y140786D01*
Y141020D01*
Y141254D01*
Y141488D01*
X291452D01*
Y141722D01*
Y141957D01*
Y142191D01*
Y142425D01*
Y142659D01*
Y142893D01*
Y143127D01*
Y143362D01*
Y143596D01*
Y143830D01*
Y144064D01*
Y144298D01*
Y144533D01*
Y144767D01*
Y145001D01*
Y145235D01*
Y145469D01*
Y145704D01*
Y145938D01*
Y146172D01*
Y146406D01*
Y146640D01*
Y146875D01*
X291686D01*
Y147109D01*
Y147343D01*
Y147577D01*
Y147811D01*
Y148046D01*
Y148280D01*
Y148514D01*
Y148748D01*
Y148982D01*
Y149216D01*
Y149451D01*
Y149685D01*
Y149919D01*
Y150153D01*
X291920D01*
Y150387D01*
Y150622D01*
Y150856D01*
Y151090D01*
Y151324D01*
Y151558D01*
Y151793D01*
Y152027D01*
X292155D01*
Y152261D01*
Y152495D01*
Y152729D01*
Y152963D01*
Y153198D01*
Y153432D01*
X292389D01*
Y153666D01*
Y153900D01*
Y154135D01*
Y154369D01*
Y154603D01*
Y154837D01*
Y155071D01*
X292623D01*
Y155306D01*
Y155540D01*
Y155774D01*
Y156008D01*
Y156242D01*
X292857D01*
Y156476D01*
Y156711D01*
Y156945D01*
Y157179D01*
X293091D01*
Y157413D01*
Y157647D01*
Y157881D01*
Y158116D01*
X293326D01*
Y158350D01*
Y158584D01*
Y158818D01*
Y159052D01*
X293560D01*
Y159287D01*
Y159521D01*
Y159755D01*
Y159989D01*
X293794D01*
Y160224D01*
Y160458D01*
Y160692D01*
X294028D01*
Y160926D01*
Y161160D01*
Y161394D01*
Y161629D01*
X294262D01*
Y161863D01*
Y162097D01*
Y162331D01*
X294496D01*
Y162565D01*
Y162800D01*
Y163034D01*
X294731D01*
Y163268D01*
Y163502D01*
Y163736D01*
X294965D01*
Y163971D01*
Y164205D01*
X295199D01*
Y164439D01*
Y164673D01*
Y164907D01*
X295433D01*
Y165142D01*
Y165376D01*
Y165610D01*
X295667D01*
Y165844D01*
Y166078D01*
X295902D01*
Y166313D01*
Y166547D01*
Y166781D01*
X296136D01*
Y167015D01*
Y167249D01*
X296370D01*
Y167484D01*
Y167718D01*
X296604D01*
Y167952D01*
Y168186D01*
Y168420D01*
X296838D01*
Y168654D01*
Y168889D01*
X297073D01*
Y169123D01*
Y169357D01*
X297307D01*
Y169591D01*
Y169825D01*
X297541D01*
Y170060D01*
Y170294D01*
X297775D01*
Y170528D01*
Y170762D01*
X298009D01*
Y170996D01*
Y171231D01*
X298244D01*
Y171465D01*
Y171699D01*
X298478D01*
Y171933D01*
Y172167D01*
X298712D01*
Y172402D01*
X298946D01*
Y172636D01*
Y172870D01*
X299180D01*
Y173104D01*
Y173338D01*
X299415D01*
Y173572D01*
Y173807D01*
X299649D01*
Y174041D01*
X299883D01*
Y174275D01*
Y174509D01*
X300117D01*
Y174743D01*
Y174978D01*
X300351D01*
Y175212D01*
X300585D01*
Y175446D01*
Y175680D01*
X300820D01*
Y175914D01*
X301054D01*
Y176148D01*
Y176383D01*
X301288D01*
Y176617D01*
X301522D01*
Y176851D01*
Y177085D01*
X301756D01*
Y177320D01*
X301991D01*
Y177554D01*
Y177788D01*
X302225D01*
Y178022D01*
X302459D01*
Y178256D01*
X302693D01*
Y178491D01*
Y178725D01*
X302927D01*
Y178959D01*
X303162D01*
Y179193D01*
Y179427D01*
X303396D01*
Y179661D01*
X303630D01*
Y179896D01*
X303864D01*
Y180130D01*
X304098D01*
Y180364D01*
Y180598D01*
X304333D01*
Y180832D01*
X304567D01*
Y181067D01*
X304801D01*
Y181301D01*
Y181535D01*
X305035D01*
Y181769D01*
X305269D01*
Y182003D01*
X305504D01*
Y182238D01*
X305738D01*
Y182472D01*
X305972D01*
Y182706D01*
X306206D01*
Y182940D01*
X306440D01*
Y183174D01*
X306674D01*
Y183409D01*
Y183643D01*
X306909D01*
Y183877D01*
X307143D01*
Y184111D01*
X307377D01*
Y184345D01*
X307611D01*
Y184580D01*
X307845D01*
Y184814D01*
X308080D01*
Y185048D01*
X308314D01*
Y185282D01*
X308548D01*
Y185516D01*
X308782D01*
Y185751D01*
X309016D01*
Y185985D01*
X309251D01*
Y186219D01*
X309485D01*
Y186453D01*
X309719D01*
Y186687D01*
X309953D01*
Y186921D01*
X310187D01*
Y187156D01*
X310422D01*
Y187390D01*
X310656D01*
Y187624D01*
X311124D01*
Y187858D01*
X311358D01*
Y188092D01*
X311592D01*
Y188326D01*
X311827D01*
Y188561D01*
X312061D01*
Y188795D01*
X312295D01*
Y189029D01*
X312529D01*
Y189263D01*
X312998D01*
Y189498D01*
X313232D01*
Y189732D01*
X313466D01*
Y189966D01*
X313700D01*
Y190200D01*
X314169D01*
Y190434D01*
X314403D01*
Y190669D01*
X314637D01*
Y190903D01*
X315105D01*
Y191137D01*
X315340D01*
Y191371D01*
X315574D01*
Y191605D01*
X316042D01*
Y191839D01*
X316276D01*
Y192074D01*
X316745D01*
Y192308D01*
X316979D01*
Y192542D01*
X317213D01*
Y192776D01*
X317682D01*
Y193010D01*
X318150D01*
Y193245D01*
X318384D01*
Y193479D01*
X318852D01*
Y193713D01*
X319087D01*
Y193947D01*
X319555D01*
Y194181D01*
X320023D01*
Y194416D01*
X320258D01*
Y194650D01*
X320726D01*
Y194884D01*
X321194D01*
Y195118D01*
X321663D01*
Y195352D01*
X321897D01*
Y195586D01*
X322365D01*
Y195821D01*
X322834D01*
Y196055D01*
X323302D01*
Y196289D01*
X323770D01*
Y196523D01*
X324239D01*
Y196758D01*
X324707D01*
Y196992D01*
X325176D01*
Y197226D01*
X325644D01*
Y197460D01*
X326112D01*
Y197694D01*
X326815D01*
Y197928D01*
X327283D01*
Y198163D01*
X327986D01*
Y198397D01*
X328454D01*
Y198631D01*
X329157D01*
Y198865D01*
X329625D01*
Y199099D01*
X330328D01*
Y199334D01*
X331030D01*
Y199568D01*
X331733D01*
Y199802D01*
X332436D01*
Y200036D01*
X333138D01*
Y200270D01*
X334075D01*
Y200505D01*
X334777D01*
Y200739D01*
X335714D01*
Y200973D01*
X336651D01*
Y201207D01*
X337822D01*
Y201441D01*
X338993D01*
Y201675D01*
X340164D01*
Y201910D01*
X341803D01*
Y202144D01*
X343677D01*
Y202378D01*
X346487D01*
Y202612D01*
X353513D01*
Y202378D01*
D02*
G37*
G36*
X308070Y101676D02*
X308304D01*
Y101441D01*
X308538D01*
Y101207D01*
X308773D01*
Y100973D01*
X309007D01*
Y100739D01*
Y100505D01*
Y100270D01*
Y100036D01*
Y99802D01*
Y99568D01*
Y99333D01*
X308773D01*
Y99099D01*
Y98865D01*
X308538D01*
Y98631D01*
X308070D01*
Y98397D01*
X307602D01*
Y98163D01*
X298702D01*
Y98397D01*
X298234D01*
Y98631D01*
X298000D01*
Y98865D01*
X297765D01*
Y99099D01*
X297531D01*
Y99333D01*
Y99568D01*
Y99802D01*
Y100036D01*
Y100270D01*
Y100505D01*
Y100739D01*
Y100973D01*
X297765D01*
Y101207D01*
Y101441D01*
X298000D01*
Y101676D01*
X298468D01*
Y101910D01*
X308070D01*
Y101676D01*
D02*
G37*
G36*
X397521Y105891D02*
X397990D01*
Y105657D01*
X398224D01*
Y105422D01*
X398458D01*
Y105188D01*
Y104954D01*
X398692D01*
Y104720D01*
Y104486D01*
Y104252D01*
Y104017D01*
Y103783D01*
Y103549D01*
Y103315D01*
Y103081D01*
Y102846D01*
Y102612D01*
Y102378D01*
Y102144D01*
X398927D01*
Y101910D01*
X401737D01*
Y101676D01*
X401971D01*
Y101441D01*
X402205D01*
Y101207D01*
X402439D01*
Y100973D01*
Y100739D01*
X402673D01*
Y100505D01*
Y100270D01*
Y100036D01*
Y99802D01*
Y99568D01*
X402439D01*
Y99333D01*
Y99099D01*
X402205D01*
Y98865D01*
Y98631D01*
X401737D01*
Y98397D01*
X401268D01*
Y98163D01*
X398692D01*
Y97928D01*
Y97694D01*
Y97460D01*
Y97226D01*
Y96992D01*
Y96757D01*
Y96523D01*
Y96289D01*
Y96055D01*
Y95821D01*
Y95586D01*
Y95352D01*
X398458D01*
Y95118D01*
X398224D01*
Y94884D01*
X397990D01*
Y94650D01*
X397521D01*
Y94416D01*
X396350D01*
Y94650D01*
X395648D01*
Y94884D01*
X395414D01*
Y95118D01*
Y95352D01*
X395179D01*
Y95586D01*
Y95821D01*
X394945D01*
Y96055D01*
Y96289D01*
Y96523D01*
Y96757D01*
Y96992D01*
Y97226D01*
Y97460D01*
Y97694D01*
Y97928D01*
Y98163D01*
X392369D01*
Y98397D01*
X391901D01*
Y98631D01*
X391666D01*
Y98865D01*
X391432D01*
Y99099D01*
X391198D01*
Y99333D01*
Y99568D01*
Y99802D01*
X390964D01*
Y100036D01*
Y100270D01*
Y100505D01*
X391198D01*
Y100739D01*
Y100973D01*
X391432D01*
Y101207D01*
Y101441D01*
X391666D01*
Y101676D01*
X392135D01*
Y101910D01*
X394945D01*
Y102144D01*
Y102378D01*
Y102612D01*
Y102846D01*
Y103081D01*
Y103315D01*
Y103549D01*
Y103783D01*
Y104017D01*
Y104252D01*
Y104486D01*
Y104720D01*
X395179D01*
Y104954D01*
Y105188D01*
X395414D01*
Y105422D01*
X395648D01*
Y105657D01*
X395882D01*
Y105891D01*
X396350D01*
Y106125D01*
X397521D01*
Y105891D01*
D02*
G37*
G36*
X545485Y284229D02*
X545778Y284200D01*
X546100Y284170D01*
X546393Y284112D01*
X546686Y284024D01*
Y281183D01*
X546656D01*
X546569Y281242D01*
X546422Y281271D01*
X546246Y281329D01*
X546041Y281388D01*
X545807Y281417D01*
X545309Y281476D01*
X545134D01*
X545016Y281447D01*
X544724Y281359D01*
X544401Y281212D01*
X544226Y281124D01*
X544050Y280978D01*
X543904Y280832D01*
X543757Y280627D01*
X543640Y280392D01*
X543552Y280129D01*
X543494Y279807D01*
X543464Y279455D01*
Y278079D01*
X546246D01*
Y275384D01*
X543464D01*
Y265808D01*
X539891D01*
Y275384D01*
X537812D01*
Y278079D01*
X539891D01*
Y279631D01*
Y279660D01*
Y279719D01*
Y279836D01*
X539921Y279982D01*
Y280158D01*
X539950Y280363D01*
X540067Y280832D01*
X540214Y281388D01*
X540448Y281944D01*
X540799Y282501D01*
X541004Y282764D01*
X541239Y282999D01*
X541268Y283028D01*
X541297Y283057D01*
X541385Y283116D01*
X541502Y283204D01*
X541795Y283409D01*
X542205Y283643D01*
X542732Y283848D01*
X543347Y284053D01*
X544050Y284200D01*
X544431Y284258D01*
X545221D01*
X545485Y284229D01*
D02*
G37*
G36*
X349180Y283233D02*
X349414D01*
X349707Y283204D01*
X350000Y283174D01*
X350673Y283116D01*
X351376Y282999D01*
X352079Y282823D01*
X352752Y282618D01*
Y279162D01*
X352723D01*
X352665Y279221D01*
X352577Y279279D01*
X352460Y279338D01*
X352284Y279455D01*
X352079Y279543D01*
X351845Y279660D01*
X351610Y279777D01*
X350995Y279982D01*
X350322Y280187D01*
X349560Y280304D01*
X348711Y280363D01*
X348477D01*
X348242Y280334D01*
X347920Y280304D01*
X347569Y280246D01*
X347217Y280158D01*
X346837Y280041D01*
X346515Y279865D01*
X346485Y279836D01*
X346397Y279777D01*
X346251Y279660D01*
X346134Y279514D01*
X345987Y279309D01*
X345841Y279074D01*
X345753Y278811D01*
X345724Y278518D01*
Y278489D01*
Y278401D01*
X345753Y278284D01*
X345782Y278137D01*
X345870Y277932D01*
X345958Y277727D01*
X346105Y277522D01*
X346280Y277288D01*
X346310Y277259D01*
X346397Y277200D01*
X346573Y277054D01*
X346837Y276907D01*
X347188Y276673D01*
X347422Y276556D01*
X347686Y276439D01*
X347979Y276292D01*
X348272Y276116D01*
X348652Y275970D01*
X349033Y275794D01*
X349062D01*
X349150Y275736D01*
X349268Y275677D01*
X349443Y275589D01*
X349648Y275501D01*
X349883Y275384D01*
X350439Y275091D01*
X351025Y274740D01*
X351581Y274330D01*
X352108Y273920D01*
X352342Y273686D01*
X352547Y273451D01*
X352577Y273393D01*
X352694Y273246D01*
X352840Y272983D01*
X353045Y272631D01*
X353221Y272221D01*
X353368Y271723D01*
X353485Y271167D01*
X353514Y270552D01*
Y270523D01*
Y270435D01*
Y270318D01*
X353485Y270142D01*
X353455Y269937D01*
X353426Y269703D01*
X353309Y269176D01*
X353075Y268561D01*
X352957Y268239D01*
X352782Y267946D01*
X352577Y267623D01*
X352342Y267331D01*
X352079Y267067D01*
X351757Y266803D01*
X351727D01*
X351669Y266745D01*
X351581Y266686D01*
X351435Y266598D01*
X351259Y266511D01*
X351025Y266393D01*
X350761Y266276D01*
X350468Y266159D01*
X350146Y266042D01*
X349765Y265925D01*
X349355Y265808D01*
X348916Y265720D01*
X348447Y265632D01*
X347920Y265573D01*
X347364Y265544D01*
X346778Y265515D01*
X346485D01*
X346280Y265544D01*
X346046D01*
X345753Y265573D01*
X345431Y265603D01*
X345050Y265632D01*
X344289Y265749D01*
X343469Y265925D01*
X342678Y266130D01*
X341917Y266452D01*
Y270113D01*
X341946Y270084D01*
X342005Y270054D01*
X342122Y269966D01*
X342297Y269849D01*
X342473Y269732D01*
X342707Y269586D01*
X342971Y269410D01*
X343293Y269263D01*
X343615Y269117D01*
X343996Y268941D01*
X344787Y268678D01*
X345226Y268561D01*
X345665Y268502D01*
X346134Y268444D01*
X346632Y268414D01*
X346895D01*
X347159Y268444D01*
X347481Y268473D01*
X347862Y268531D01*
X348213Y268619D01*
X348594Y268736D01*
X348887Y268912D01*
X348916Y268941D01*
X349004Y269000D01*
X349121Y269117D01*
X349268Y269263D01*
X349414Y269468D01*
X349531Y269703D01*
X349619Y269937D01*
X349648Y270230D01*
Y270259D01*
Y270347D01*
X349619Y270494D01*
X349560Y270669D01*
X349502Y270874D01*
X349385Y271079D01*
X349238Y271313D01*
X349033Y271548D01*
X349004Y271577D01*
X348916Y271665D01*
X348711Y271811D01*
X348594Y271899D01*
X348418Y272016D01*
X348242Y272104D01*
X348008Y272251D01*
X347745Y272397D01*
X347452Y272544D01*
X347130Y272690D01*
X346778Y272866D01*
X346368Y273041D01*
X345900Y273246D01*
X345841Y273276D01*
X345724Y273334D01*
X345519Y273422D01*
X345255Y273568D01*
X344962Y273744D01*
X344611Y273949D01*
X344259Y274213D01*
X343879Y274506D01*
X343498Y274828D01*
X343147Y275209D01*
X342795Y275619D01*
X342502Y276058D01*
X342239Y276556D01*
X342034Y277083D01*
X341917Y277639D01*
X341858Y278225D01*
Y278254D01*
Y278342D01*
Y278459D01*
X341887Y278635D01*
X341917Y278811D01*
X341946Y279045D01*
X342092Y279601D01*
X342297Y280187D01*
X342444Y280509D01*
X342620Y280802D01*
X342825Y281124D01*
X343088Y281417D01*
X343352Y281681D01*
X343674Y281944D01*
X343703Y281974D01*
X343762Y282003D01*
X343879Y282062D01*
X343996Y282149D01*
X344201Y282237D01*
X344406Y282354D01*
X344669Y282472D01*
X344962Y282618D01*
X345314Y282735D01*
X345665Y282852D01*
X346075Y282969D01*
X346515Y283057D01*
X346954Y283145D01*
X347452Y283204D01*
X347979Y283262D01*
X348945D01*
X349180Y283233D01*
D02*
G37*
G36*
X297519D02*
X297753D01*
X298046Y283204D01*
X298339Y283174D01*
X299012Y283116D01*
X299715Y282999D01*
X300418Y282823D01*
X301092Y282618D01*
Y279162D01*
X301062D01*
X301004Y279221D01*
X300916Y279279D01*
X300799Y279338D01*
X300623Y279455D01*
X300418Y279543D01*
X300184Y279660D01*
X299949Y279777D01*
X299335Y279982D01*
X298661Y280187D01*
X297899Y280304D01*
X297050Y280363D01*
X296816D01*
X296582Y280334D01*
X296259Y280304D01*
X295908Y280246D01*
X295557Y280158D01*
X295176Y280041D01*
X294854Y279865D01*
X294824Y279836D01*
X294737Y279777D01*
X294590Y279660D01*
X294473Y279514D01*
X294327Y279309D01*
X294180Y279074D01*
X294092Y278811D01*
X294063Y278518D01*
Y278489D01*
Y278401D01*
X294092Y278284D01*
X294122Y278137D01*
X294209Y277932D01*
X294297Y277727D01*
X294444Y277522D01*
X294619Y277288D01*
X294649Y277259D01*
X294737Y277200D01*
X294912Y277054D01*
X295176Y276907D01*
X295527Y276673D01*
X295762Y276556D01*
X296025Y276439D01*
X296318Y276292D01*
X296611Y276116D01*
X296992Y275970D01*
X297372Y275794D01*
X297402D01*
X297489Y275736D01*
X297607Y275677D01*
X297782Y275589D01*
X297987Y275501D01*
X298222Y275384D01*
X298778Y275091D01*
X299364Y274740D01*
X299920Y274330D01*
X300447Y273920D01*
X300682Y273686D01*
X300887Y273451D01*
X300916Y273393D01*
X301033Y273246D01*
X301180Y272983D01*
X301385Y272631D01*
X301560Y272221D01*
X301707Y271723D01*
X301824Y271167D01*
X301853Y270552D01*
Y270523D01*
Y270435D01*
Y270318D01*
X301824Y270142D01*
X301794Y269937D01*
X301765Y269703D01*
X301648Y269176D01*
X301414Y268561D01*
X301297Y268239D01*
X301121Y267946D01*
X300916Y267623D01*
X300682Y267331D01*
X300418Y267067D01*
X300096Y266803D01*
X300067D01*
X300008Y266745D01*
X299920Y266686D01*
X299774Y266598D01*
X299598Y266511D01*
X299364Y266393D01*
X299100Y266276D01*
X298807Y266159D01*
X298485Y266042D01*
X298104Y265925D01*
X297694Y265808D01*
X297255Y265720D01*
X296787Y265632D01*
X296259Y265573D01*
X295703Y265544D01*
X295117Y265515D01*
X294824D01*
X294619Y265544D01*
X294385D01*
X294092Y265573D01*
X293770Y265603D01*
X293389Y265632D01*
X292628Y265749D01*
X291808Y265925D01*
X291017Y266130D01*
X290256Y266452D01*
Y270113D01*
X290285Y270084D01*
X290344Y270054D01*
X290461Y269966D01*
X290637Y269849D01*
X290812Y269732D01*
X291047Y269586D01*
X291310Y269410D01*
X291632Y269263D01*
X291954Y269117D01*
X292335Y268941D01*
X293126Y268678D01*
X293565Y268561D01*
X294004Y268502D01*
X294473Y268444D01*
X294971Y268414D01*
X295234D01*
X295498Y268444D01*
X295820Y268473D01*
X296201Y268531D01*
X296552Y268619D01*
X296933Y268736D01*
X297226Y268912D01*
X297255Y268941D01*
X297343Y269000D01*
X297460Y269117D01*
X297607Y269263D01*
X297753Y269468D01*
X297870Y269703D01*
X297958Y269937D01*
X297987Y270230D01*
Y270259D01*
Y270347D01*
X297958Y270494D01*
X297899Y270669D01*
X297841Y270874D01*
X297724Y271079D01*
X297577Y271313D01*
X297372Y271548D01*
X297343Y271577D01*
X297255Y271665D01*
X297050Y271811D01*
X296933Y271899D01*
X296757Y272016D01*
X296582Y272104D01*
X296347Y272251D01*
X296084Y272397D01*
X295791Y272544D01*
X295469Y272690D01*
X295117Y272866D01*
X294707Y273041D01*
X294239Y273246D01*
X294180Y273276D01*
X294063Y273334D01*
X293858Y273422D01*
X293594Y273568D01*
X293302Y273744D01*
X292950Y273949D01*
X292599Y274213D01*
X292218Y274506D01*
X291837Y274828D01*
X291486Y275209D01*
X291134Y275619D01*
X290842Y276058D01*
X290578Y276556D01*
X290373Y277083D01*
X290256Y277639D01*
X290197Y278225D01*
Y278254D01*
Y278342D01*
Y278459D01*
X290226Y278635D01*
X290256Y278811D01*
X290285Y279045D01*
X290431Y279601D01*
X290637Y280187D01*
X290783Y280509D01*
X290959Y280802D01*
X291164Y281124D01*
X291427Y281417D01*
X291691Y281681D01*
X292013Y281944D01*
X292042Y281974D01*
X292101Y282003D01*
X292218Y282062D01*
X292335Y282149D01*
X292540Y282237D01*
X292745Y282354D01*
X293009Y282472D01*
X293302Y282618D01*
X293653Y282735D01*
X294004Y282852D01*
X294414Y282969D01*
X294854Y283057D01*
X295293Y283145D01*
X295791Y283204D01*
X296318Y283262D01*
X297285D01*
X297519Y283233D01*
D02*
G37*
G36*
X371847D02*
X372081D01*
X372374Y283204D01*
X372667Y283174D01*
X373341Y283116D01*
X374044Y282999D01*
X374747Y282823D01*
X375420Y282618D01*
Y279074D01*
X375391D01*
X375332Y279133D01*
X375244Y279162D01*
X375127Y279250D01*
X374952Y279309D01*
X374747Y279396D01*
X374542Y279484D01*
X374278Y279601D01*
X373692Y279777D01*
X373019Y279953D01*
X372286Y280070D01*
X371466Y280099D01*
X371232D01*
X371056Y280070D01*
X370822Y280041D01*
X370588Y280012D01*
X370031Y279894D01*
X369387Y279719D01*
X368713Y279426D01*
X368362Y279250D01*
X368040Y279016D01*
X367718Y278782D01*
X367425Y278489D01*
X367396Y278459D01*
X367366Y278401D01*
X367279Y278313D01*
X367191Y278196D01*
X367074Y278049D01*
X366956Y277844D01*
X366810Y277610D01*
X366693Y277346D01*
X366546Y277083D01*
X366400Y276761D01*
X366166Y276029D01*
X365990Y275209D01*
X365961Y274740D01*
X365931Y274271D01*
Y274242D01*
Y274154D01*
Y274037D01*
X365961Y273861D01*
X365990Y273627D01*
X366019Y273393D01*
X366107Y272807D01*
X366283Y272163D01*
X366546Y271489D01*
X366693Y271167D01*
X366898Y270816D01*
X367103Y270494D01*
X367366Y270201D01*
X367396Y270171D01*
X367425Y270142D01*
X367513Y270054D01*
X367630Y269966D01*
X367776Y269849D01*
X367952Y269732D01*
X368157Y269586D01*
X368391Y269439D01*
X368948Y269146D01*
X369592Y268912D01*
X370383Y268736D01*
X370793Y268707D01*
X371232Y268678D01*
X371466D01*
X371613Y268707D01*
X371818D01*
X372052Y268736D01*
X372345Y268766D01*
X372638Y268824D01*
X373282Y268941D01*
X373985Y269146D01*
X374717Y269410D01*
X375420Y269791D01*
Y266423D01*
X375391D01*
X375332Y266393D01*
X375215Y266335D01*
X375069Y266276D01*
X374893Y266218D01*
X374659Y266130D01*
X374395Y266042D01*
X374102Y265983D01*
X373780Y265896D01*
X373399Y265808D01*
X372989Y265720D01*
X372579Y265661D01*
X372111Y265603D01*
X371613Y265544D01*
X370529Y265515D01*
X370354D01*
X370149Y265544D01*
X369885D01*
X369563Y265573D01*
X369182Y265632D01*
X368743Y265720D01*
X368303Y265808D01*
X367806Y265925D01*
X367308Y266071D01*
X366810Y266276D01*
X366283Y266481D01*
X365756Y266745D01*
X365258Y267067D01*
X364789Y267418D01*
X364350Y267828D01*
X364321Y267858D01*
X364262Y267946D01*
X364145Y268063D01*
X363998Y268239D01*
X363823Y268473D01*
X363647Y268766D01*
X363442Y269088D01*
X363237Y269468D01*
X363003Y269879D01*
X362798Y270347D01*
X362622Y270874D01*
X362446Y271401D01*
X362300Y272016D01*
X362183Y272631D01*
X362124Y273305D01*
X362095Y274008D01*
Y274066D01*
Y274184D01*
X362124Y274389D01*
Y274681D01*
X362183Y275033D01*
X362241Y275443D01*
X362300Y275882D01*
X362417Y276380D01*
X362534Y276878D01*
X362710Y277434D01*
X362915Y277962D01*
X363149Y278518D01*
X363442Y279074D01*
X363793Y279631D01*
X364174Y280158D01*
X364613Y280656D01*
X364643Y280685D01*
X364731Y280773D01*
X364877Y280890D01*
X365082Y281066D01*
X365316Y281271D01*
X365639Y281476D01*
X365990Y281710D01*
X366400Y281974D01*
X366839Y282208D01*
X367337Y282442D01*
X367893Y282647D01*
X368479Y282852D01*
X369094Y283028D01*
X369768Y283145D01*
X370471Y283233D01*
X371203Y283262D01*
X371613D01*
X371847Y283233D01*
D02*
G37*
G36*
X266475Y265808D02*
X262873D01*
Y267536D01*
X262844D01*
Y267506D01*
X262785Y267448D01*
X262698Y267360D01*
X262610Y267213D01*
X262463Y267067D01*
X262288Y266891D01*
X262083Y266716D01*
X261877Y266540D01*
X261614Y266335D01*
X261321Y266159D01*
X260999Y265983D01*
X260647Y265837D01*
X260296Y265691D01*
X259886Y265603D01*
X259447Y265544D01*
X258978Y265515D01*
X258744D01*
X258597Y265544D01*
X258392Y265573D01*
X258187Y265603D01*
X257660Y265720D01*
X257045Y265925D01*
X256430Y266218D01*
X256137Y266393D01*
X255815Y266628D01*
X255522Y266862D01*
X255259Y267155D01*
Y267184D01*
X255200Y267243D01*
X255142Y267331D01*
X255054Y267448D01*
X254937Y267623D01*
X254820Y267828D01*
X254702Y268063D01*
X254585Y268326D01*
X254439Y268648D01*
X254322Y268971D01*
X254205Y269351D01*
X254087Y269761D01*
X254000Y270171D01*
X253941Y270640D01*
X253912Y271138D01*
X253882Y271665D01*
Y271694D01*
Y271811D01*
Y271958D01*
X253912Y272163D01*
X253941Y272426D01*
X253970Y272719D01*
X254000Y273041D01*
X254087Y273393D01*
X254263Y274184D01*
X254527Y275004D01*
X254702Y275384D01*
X254937Y275794D01*
X255171Y276175D01*
X255434Y276526D01*
X255464Y276556D01*
X255493Y276614D01*
X255581Y276702D01*
X255727Y276819D01*
X255874Y276966D01*
X256049Y277112D01*
X256284Y277288D01*
X256518Y277464D01*
X257104Y277786D01*
X257807Y278079D01*
X258187Y278196D01*
X258597Y278284D01*
X259007Y278342D01*
X259476Y278372D01*
X259710D01*
X259857Y278342D01*
X260062Y278313D01*
X260296Y278284D01*
X260794Y278167D01*
X261350Y277962D01*
X261643Y277815D01*
X261907Y277639D01*
X262170Y277434D01*
X262434Y277229D01*
X262639Y276936D01*
X262844Y276644D01*
X262873D01*
Y283965D01*
X266475D01*
Y265808D01*
D02*
G37*
G36*
X423362Y278342D02*
X423567Y278313D01*
X423801Y278284D01*
X424328Y278167D01*
X424914Y277962D01*
X425529Y277669D01*
X425822Y277493D01*
X426115Y277288D01*
X426378Y277024D01*
X426642Y276731D01*
X426671Y276702D01*
X426700Y276644D01*
X426759Y276556D01*
X426847Y276439D01*
X426935Y276263D01*
X427052Y276058D01*
X427169Y275824D01*
X427315Y275560D01*
X427432Y275267D01*
X427550Y274916D01*
X427667Y274564D01*
X427755Y274154D01*
X427842Y273744D01*
X427901Y273276D01*
X427960Y272807D01*
Y272280D01*
Y272251D01*
Y272134D01*
Y271987D01*
X427930Y271782D01*
X427901Y271518D01*
X427872Y271196D01*
X427842Y270874D01*
X427784Y270523D01*
X427579Y269732D01*
X427315Y268912D01*
X427140Y268502D01*
X426935Y268092D01*
X426700Y267711D01*
X426437Y267360D01*
X426407Y267331D01*
X426378Y267272D01*
X426290Y267184D01*
X426173Y267067D01*
X425997Y266921D01*
X425822Y266774D01*
X425617Y266598D01*
X425353Y266452D01*
X424797Y266101D01*
X424094Y265808D01*
X423713Y265691D01*
X423303Y265603D01*
X422893Y265544D01*
X422424Y265515D01*
X422219D01*
X422044Y265544D01*
X421868Y265573D01*
X421663Y265603D01*
X421165Y265749D01*
X420609Y265954D01*
X420316Y266101D01*
X420023Y266247D01*
X419759Y266452D01*
X419496Y266686D01*
X419232Y266950D01*
X418998Y267272D01*
X418969D01*
Y260185D01*
X415366D01*
Y278079D01*
X418969D01*
Y276204D01*
X418998D01*
X419027Y276234D01*
X419057Y276292D01*
X419144Y276409D01*
X419262Y276556D01*
X419408Y276702D01*
X419584Y276878D01*
X419789Y277083D01*
X420023Y277288D01*
X420286Y277493D01*
X420579Y277698D01*
X420901Y277874D01*
X421282Y278020D01*
X421663Y278167D01*
X422073Y278284D01*
X422512Y278342D01*
X422981Y278372D01*
X423215D01*
X423362Y278342D01*
D02*
G37*
G36*
X499857D02*
X500121Y278284D01*
X500414Y278225D01*
X500765Y278108D01*
X501146Y277962D01*
X501526Y277727D01*
X501878Y277464D01*
X502259Y277141D01*
X502610Y276731D01*
X502903Y276234D01*
X503167Y275648D01*
X503372Y274974D01*
X503489Y274184D01*
X503547Y273774D01*
Y273305D01*
Y265808D01*
X500004D01*
Y272631D01*
Y272661D01*
Y272749D01*
Y272895D01*
X499974Y273100D01*
X499945Y273334D01*
X499886Y273569D01*
X499740Y274125D01*
X499623Y274418D01*
X499476Y274681D01*
X499301Y274916D01*
X499096Y275150D01*
X498861Y275355D01*
X498568Y275501D01*
X498246Y275589D01*
X497866Y275619D01*
X497690D01*
X497514Y275589D01*
X497280Y275531D01*
X496987Y275414D01*
X496724Y275296D01*
X496431Y275091D01*
X496167Y274828D01*
X496138Y274799D01*
X496050Y274681D01*
X495962Y274506D01*
X495845Y274271D01*
X495699Y273979D01*
X495611Y273656D01*
X495523Y273246D01*
X495494Y272807D01*
Y265808D01*
X491891D01*
Y278079D01*
X495494D01*
Y276117D01*
X495523D01*
X495552Y276146D01*
X495581Y276204D01*
X495669Y276322D01*
X495786Y276468D01*
X495904Y276644D01*
X496079Y276819D01*
X496284Y277024D01*
X496519Y277259D01*
X496782Y277464D01*
X497075Y277669D01*
X497397Y277844D01*
X497748Y278020D01*
X498158Y278167D01*
X498568Y278284D01*
X499008Y278342D01*
X499476Y278372D01*
X499652D01*
X499857Y278342D01*
D02*
G37*
G36*
X198619Y278342D02*
X198883Y278284D01*
X199176Y278225D01*
X199527Y278108D01*
X199908Y277961D01*
X200289Y277727D01*
X200640Y277464D01*
X201021Y277141D01*
X201372Y276731D01*
X201665Y276234D01*
X201929Y275648D01*
X202134Y274974D01*
X202251Y274184D01*
X202309Y273773D01*
Y273305D01*
Y265808D01*
X198766D01*
Y272631D01*
Y272661D01*
Y272749D01*
Y272895D01*
X198736Y273100D01*
X198707Y273334D01*
X198648Y273568D01*
X198502Y274125D01*
X198385Y274418D01*
X198239Y274681D01*
X198063Y274916D01*
X197858Y275150D01*
X197624Y275355D01*
X197331Y275501D01*
X197008Y275589D01*
X196628Y275618D01*
X196452D01*
X196276Y275589D01*
X196042Y275531D01*
X195749Y275413D01*
X195486Y275296D01*
X195193Y275091D01*
X194929Y274828D01*
X194900Y274799D01*
X194812Y274681D01*
X194724Y274506D01*
X194607Y274271D01*
X194461Y273979D01*
X194373Y273656D01*
X194285Y273246D01*
X194256Y272807D01*
Y265808D01*
X190653D01*
Y278079D01*
X194256D01*
Y276116D01*
X194285D01*
X194314Y276146D01*
X194343Y276204D01*
X194431Y276321D01*
X194548Y276468D01*
X194666Y276644D01*
X194841Y276819D01*
X195046Y277024D01*
X195281Y277259D01*
X195544Y277464D01*
X195837Y277669D01*
X196159Y277844D01*
X196511Y278020D01*
X196921Y278166D01*
X197331Y278284D01*
X197770Y278342D01*
X198239Y278372D01*
X198414D01*
X198619Y278342D01*
D02*
G37*
G36*
X408689Y278342D02*
X408923Y278284D01*
X409246Y278225D01*
X409568Y278108D01*
X409949Y277962D01*
X410329Y277757D01*
X410681Y277493D01*
X411061Y277171D01*
X411384Y276761D01*
X411706Y276292D01*
X411940Y275707D01*
X412145Y275062D01*
X412262Y274301D01*
X412321Y273422D01*
Y265808D01*
X408748D01*
Y272807D01*
Y272836D01*
Y272924D01*
Y273071D01*
X408718Y273246D01*
X408689Y273451D01*
X408631Y273686D01*
X408484Y274213D01*
X408396Y274476D01*
X408250Y274740D01*
X408074Y274974D01*
X407898Y275179D01*
X407635Y275355D01*
X407371Y275501D01*
X407049Y275589D01*
X406698Y275619D01*
X406551D01*
X406346Y275560D01*
X406141Y275501D01*
X405878Y275414D01*
X405614Y275238D01*
X405350Y275033D01*
X405087Y274740D01*
X405058Y274711D01*
X404999Y274594D01*
X404882Y274418D01*
X404794Y274154D01*
X404677Y273861D01*
X404560Y273510D01*
X404501Y273100D01*
X404472Y272661D01*
Y265808D01*
X400899D01*
Y272895D01*
Y272924D01*
Y273012D01*
Y273159D01*
X400870Y273334D01*
X400840Y273539D01*
X400782Y273744D01*
X400635Y274271D01*
X400548Y274506D01*
X400401Y274769D01*
X400225Y274974D01*
X400050Y275209D01*
X399786Y275355D01*
X399523Y275501D01*
X399200Y275589D01*
X398849Y275619D01*
X398673D01*
X398498Y275589D01*
X398263Y275531D01*
X398029Y275414D01*
X397736Y275267D01*
X397473Y275062D01*
X397238Y274799D01*
X397209Y274769D01*
X397150Y274652D01*
X397063Y274476D01*
X396945Y274213D01*
X396828Y273920D01*
X396740Y273539D01*
X396682Y273100D01*
X396652Y272631D01*
Y265808D01*
X393050D01*
Y278079D01*
X396652D01*
Y276146D01*
X396682D01*
X396711Y276204D01*
X396799Y276322D01*
X396945Y276497D01*
X397150Y276761D01*
X397385Y277024D01*
X397678Y277288D01*
X398000Y277551D01*
X398380Y277786D01*
X398439Y277815D01*
X398556Y277874D01*
X398790Y277962D01*
X399083Y278079D01*
X399405Y278196D01*
X399786Y278284D01*
X400196Y278342D01*
X400635Y278372D01*
X400870D01*
X401045Y278342D01*
X401250Y278313D01*
X401514Y278254D01*
X402041Y278079D01*
X402334Y277962D01*
X402627Y277815D01*
X402920Y277610D01*
X403213Y277405D01*
X403506Y277141D01*
X403740Y276819D01*
X403974Y276468D01*
X404179Y276058D01*
X404208Y276087D01*
X404238Y276146D01*
X404325Y276263D01*
X404443Y276409D01*
X404589Y276585D01*
X404765Y276790D01*
X404970Y276995D01*
X405233Y277229D01*
X405497Y277434D01*
X405819Y277639D01*
X406141Y277844D01*
X406522Y278020D01*
X406903Y278167D01*
X407342Y278284D01*
X407811Y278342D01*
X408308Y278372D01*
X408484D01*
X408689Y278342D01*
D02*
G37*
G36*
X536465Y278254D02*
X536787Y278225D01*
X536933Y278196D01*
X537080Y278137D01*
Y274828D01*
X537051Y274857D01*
X536963Y274886D01*
X536816Y274945D01*
X536641Y275004D01*
X536406Y275062D01*
X536143Y275121D01*
X535850Y275179D01*
X535293D01*
X535059Y275121D01*
X534796Y275062D01*
X534473Y274945D01*
X534151Y274799D01*
X533858Y274564D01*
X533565Y274242D01*
X533536Y274213D01*
X533448Y274067D01*
X533331Y273862D01*
X533214Y273598D01*
X533097Y273217D01*
X532980Y272778D01*
X532892Y272280D01*
X532863Y271694D01*
Y265808D01*
X529260D01*
Y278079D01*
X532863D01*
Y275765D01*
X532892D01*
Y275794D01*
X532921Y275882D01*
X532980Y275999D01*
X533068Y276146D01*
X533156Y276351D01*
X533302Y276556D01*
X533624Y277024D01*
X534063Y277493D01*
X534327Y277698D01*
X534620Y277903D01*
X534942Y278049D01*
X535293Y278167D01*
X535703Y278254D01*
X536113Y278284D01*
X536348D01*
X536465Y278254D01*
D02*
G37*
G36*
X475081Y278254D02*
X475403Y278225D01*
X475550Y278196D01*
X475696Y278137D01*
Y274828D01*
X475667Y274857D01*
X475579Y274886D01*
X475432Y274945D01*
X475257Y275004D01*
X475022Y275062D01*
X474759Y275121D01*
X474466Y275179D01*
X473909D01*
X473675Y275121D01*
X473412Y275062D01*
X473089Y274945D01*
X472767Y274799D01*
X472475Y274564D01*
X472182Y274242D01*
X472152Y274213D01*
X472065Y274066D01*
X471947Y273861D01*
X471830Y273598D01*
X471713Y273217D01*
X471596Y272778D01*
X471508Y272280D01*
X471479Y271694D01*
Y265808D01*
X467877D01*
Y278079D01*
X471479D01*
Y275765D01*
X471508D01*
Y275794D01*
X471537Y275882D01*
X471596Y275999D01*
X471684Y276146D01*
X471772Y276351D01*
X471918Y276556D01*
X472240Y277024D01*
X472679Y277493D01*
X472943Y277698D01*
X473236Y277903D01*
X473558Y278049D01*
X473909Y278167D01*
X474319Y278254D01*
X474730Y278284D01*
X474964D01*
X475081Y278254D01*
D02*
G37*
G36*
X169392Y274769D02*
X176040Y265808D01*
X171412D01*
X166199Y273305D01*
X166170Y273363D01*
X166053Y273539D01*
X165994Y273656D01*
X165907Y273803D01*
X165819Y274008D01*
X165731Y274213D01*
X165672D01*
Y265808D01*
X162012D01*
Y282969D01*
X165672D01*
Y274857D01*
X165731D01*
Y274886D01*
X165789Y274945D01*
X165819Y275033D01*
X165907Y275179D01*
X166053Y275472D01*
X166229Y275794D01*
X171149Y282969D01*
X175513D01*
X169392Y274769D01*
D02*
G37*
G36*
X567860Y278342D02*
X568035D01*
X568504Y278313D01*
X569002Y278225D01*
X569529Y278137D01*
X569998Y277991D01*
X570437Y277786D01*
Y274711D01*
X570378Y274740D01*
X570232Y274857D01*
X569968Y275004D01*
X569646Y275179D01*
X569236Y275326D01*
X568797Y275472D01*
X568270Y275589D01*
X567743Y275619D01*
X567479D01*
X567186Y275560D01*
X566805Y275501D01*
X566366Y275384D01*
X565927Y275209D01*
X565517Y274945D01*
X565107Y274623D01*
X565078Y274564D01*
X564960Y274447D01*
X564785Y274213D01*
X564609Y273920D01*
X564433Y273510D01*
X564258Y273041D01*
X564140Y272485D01*
X564111Y271870D01*
Y271841D01*
Y271811D01*
Y271724D01*
X564140Y271606D01*
X564170Y271284D01*
X564228Y270903D01*
X564345Y270494D01*
X564521Y270054D01*
X564726Y269615D01*
X565048Y269205D01*
X565107Y269176D01*
X565224Y269058D01*
X565429Y268912D01*
X565722Y268736D01*
X566102Y268531D01*
X566542Y268385D01*
X567040Y268268D01*
X567625Y268239D01*
X567684D01*
X567860Y268268D01*
X568153Y268297D01*
X568504Y268356D01*
X568943Y268473D01*
X569412Y268619D01*
X569910Y268853D01*
X570408Y269146D01*
Y266247D01*
X570349Y266218D01*
X570261Y266189D01*
X570173Y266130D01*
X569880Y266013D01*
X569470Y265896D01*
X568943Y265749D01*
X568328Y265632D01*
X567596Y265544D01*
X566747Y265515D01*
X566483D01*
X566278Y265544D01*
X566044Y265574D01*
X565780Y265603D01*
X565458Y265661D01*
X565136Y265720D01*
X564404Y265925D01*
X564023Y266071D01*
X563643Y266247D01*
X563262Y266423D01*
X562910Y266657D01*
X562530Y266921D01*
X562207Y267213D01*
X562178Y267243D01*
X562120Y267301D01*
X562061Y267389D01*
X561944Y267536D01*
X561797Y267682D01*
X561651Y267887D01*
X561505Y268121D01*
X561358Y268414D01*
X561182Y268707D01*
X561036Y269029D01*
X560890Y269410D01*
X560743Y269791D01*
X560626Y270230D01*
X560567Y270669D01*
X560509Y271138D01*
X560480Y271636D01*
Y271665D01*
Y271782D01*
Y271929D01*
X560509Y272163D01*
X560538Y272426D01*
X560567Y272719D01*
X560626Y273071D01*
X560714Y273422D01*
X560948Y274213D01*
X561095Y274623D01*
X561270Y275033D01*
X561475Y275443D01*
X561739Y275824D01*
X562032Y276204D01*
X562354Y276556D01*
X562383Y276585D01*
X562442Y276644D01*
X562559Y276731D01*
X562705Y276849D01*
X562881Y276966D01*
X563115Y277141D01*
X563379Y277288D01*
X563672Y277464D01*
X564023Y277639D01*
X564404Y277786D01*
X564814Y277962D01*
X565253Y278079D01*
X565722Y278196D01*
X566220Y278284D01*
X566776Y278342D01*
X567332Y278372D01*
X567684D01*
X567860Y278342D01*
D02*
G37*
G36*
X311020Y271108D02*
X304460D01*
Y273627D01*
X311020D01*
Y271108D01*
D02*
G37*
G36*
X219354Y265808D02*
X215576D01*
X213702Y273158D01*
Y273188D01*
X213672Y273276D01*
X213643Y273422D01*
X213614Y273627D01*
X213584Y273861D01*
X213555Y274125D01*
X213497Y274681D01*
X213438D01*
Y274652D01*
X213409Y274535D01*
Y274359D01*
X213379Y274184D01*
X213292Y273686D01*
X213204Y273217D01*
X211154Y265808D01*
X207434D01*
X203949Y278079D01*
X207610D01*
X209397Y269908D01*
Y269879D01*
X209426Y269820D01*
Y269703D01*
X209455Y269556D01*
X209484Y269381D01*
X209514Y269146D01*
X209543Y268883D01*
X209572Y268590D01*
X209660D01*
Y268619D01*
Y268736D01*
X209689Y268883D01*
X209719Y269058D01*
X209777Y269527D01*
X209865Y269966D01*
X212062Y278079D01*
X215459D01*
X217421Y269908D01*
Y269879D01*
X217450Y269849D01*
Y269761D01*
X217480Y269615D01*
X217509Y269439D01*
X217538Y269205D01*
X217567Y268912D01*
X217597Y268561D01*
X217685D01*
Y268590D01*
Y268678D01*
X217714Y268795D01*
Y268941D01*
X217743Y269146D01*
X217772Y269381D01*
X217860Y269908D01*
X219559Y278079D01*
X222897D01*
X219354Y265808D01*
D02*
G37*
G36*
X441988Y265808D02*
X438415D01*
Y267682D01*
X438356D01*
X438327Y267653D01*
X438298Y267594D01*
X438210Y267477D01*
X438092Y267331D01*
X437975Y267184D01*
X437800Y267008D01*
X437360Y266598D01*
X436833Y266188D01*
X436189Y265866D01*
X435838Y265720D01*
X435457Y265603D01*
X435047Y265544D01*
X434608Y265515D01*
X434432D01*
X434227Y265544D01*
X433934Y265603D01*
X433612Y265661D01*
X433260Y265778D01*
X432880Y265954D01*
X432470Y266159D01*
X432060Y266423D01*
X431679Y266774D01*
X431327Y267184D01*
X431005Y267682D01*
X430742Y268268D01*
X430507Y268971D01*
X430390Y269761D01*
X430332Y270201D01*
Y270669D01*
Y278079D01*
X433905D01*
Y270991D01*
Y270962D01*
Y270874D01*
X433934Y270728D01*
Y270552D01*
X433963Y270347D01*
X434022Y270113D01*
X434168Y269615D01*
X434285Y269351D01*
X434432Y269117D01*
X434608Y268883D01*
X434813Y268678D01*
X435076Y268502D01*
X435369Y268356D01*
X435691Y268268D01*
X436072Y268239D01*
X436247D01*
X436452Y268268D01*
X436687Y268326D01*
X436950Y268414D01*
X437243Y268561D01*
X437507Y268736D01*
X437770Y269000D01*
X437800Y269029D01*
X437858Y269146D01*
X437975Y269322D01*
X438092Y269556D01*
X438210Y269849D01*
X438327Y270201D01*
X438385Y270581D01*
X438415Y271050D01*
Y278079D01*
X441988D01*
Y265808D01*
D02*
G37*
G36*
X324608Y280041D02*
X318400D01*
X318165Y276409D01*
X318195D01*
X318312Y276439D01*
X318488D01*
X318722Y276468D01*
X318986D01*
X319278Y276497D01*
X320098D01*
X320274Y276468D01*
X320479D01*
X320743Y276439D01*
X321299Y276321D01*
X321944Y276175D01*
X322588Y275911D01*
X323232Y275589D01*
X323525Y275355D01*
X323818Y275121D01*
X323847Y275091D01*
X323876Y275062D01*
X323964Y274974D01*
X324052Y274857D01*
X324169Y274740D01*
X324286Y274564D01*
X324550Y274125D01*
X324813Y273598D01*
X325048Y272953D01*
X325224Y272221D01*
X325253Y271811D01*
X325282Y271372D01*
Y271343D01*
Y271255D01*
Y271138D01*
X325253Y270933D01*
X325224Y270728D01*
X325194Y270464D01*
X325136Y270201D01*
X325077Y269879D01*
X324843Y269205D01*
X324726Y268853D01*
X324550Y268502D01*
X324345Y268151D01*
X324111Y267799D01*
X323847Y267477D01*
X323525Y267155D01*
X323496Y267126D01*
X323437Y267096D01*
X323349Y267008D01*
X323203Y266891D01*
X323027Y266774D01*
X322822Y266628D01*
X322559Y266481D01*
X322266Y266335D01*
X321944Y266188D01*
X321592Y266042D01*
X321182Y265896D01*
X320772Y265778D01*
X320303Y265661D01*
X319806Y265573D01*
X319278Y265544D01*
X318722Y265515D01*
X318312D01*
X318107Y265544D01*
X317873D01*
X317287Y265603D01*
X316643Y265691D01*
X315969Y265837D01*
X315266Y266013D01*
X314593Y266247D01*
Y269322D01*
X314622D01*
X314681Y269263D01*
X314768Y269234D01*
X314915Y269146D01*
X315061Y269058D01*
X315266Y268971D01*
X315735Y268795D01*
X316320Y268590D01*
X316965Y268414D01*
X317668Y268297D01*
X318400Y268239D01*
X318663D01*
X318927Y268268D01*
X319278Y268326D01*
X319659Y268414D01*
X320040Y268561D01*
X320421Y268736D01*
X320772Y268971D01*
X320801Y269000D01*
X320918Y269117D01*
X321065Y269293D01*
X321211Y269527D01*
X321387Y269820D01*
X321504Y270171D01*
X321621Y270552D01*
X321651Y271021D01*
Y271050D01*
Y271138D01*
X321621Y271255D01*
X321592Y271431D01*
X321533Y271636D01*
X321446Y271870D01*
X321358Y272104D01*
X321182Y272368D01*
X321006Y272602D01*
X320772Y272836D01*
X320450Y273071D01*
X320098Y273276D01*
X319688Y273451D01*
X319191Y273568D01*
X318634Y273656D01*
X317990Y273686D01*
X317463D01*
X317082Y273656D01*
X316613Y273627D01*
X316086Y273598D01*
X315501Y273539D01*
X314856Y273481D01*
X315501Y282969D01*
X324608D01*
Y280041D01*
D02*
G37*
G36*
X553480Y278342D02*
X553802Y278284D01*
X554212Y278225D01*
X554622Y278108D01*
X555091Y277932D01*
X555589Y277727D01*
X556057Y277464D01*
X556526Y277112D01*
X556936Y276702D01*
X557346Y276204D01*
X557668Y275619D01*
X557932Y274916D01*
X558078Y274125D01*
X558137Y273686D01*
Y273217D01*
Y265808D01*
X554739D01*
Y267594D01*
X554710D01*
Y267565D01*
X554652Y267506D01*
X554593Y267389D01*
X554476Y267272D01*
X554183Y266950D01*
X553773Y266569D01*
X553246Y266159D01*
X552631Y265837D01*
X552250Y265720D01*
X551869Y265603D01*
X551459Y265544D01*
X551020Y265515D01*
X550844D01*
X550727Y265544D01*
X550405Y265574D01*
X550024Y265632D01*
X549585Y265749D01*
X549117Y265925D01*
X548648Y266159D01*
X548238Y266481D01*
X548179Y266540D01*
X548062Y266657D01*
X547916Y266891D01*
X547711Y267184D01*
X547506Y267565D01*
X547359Y268034D01*
X547242Y268561D01*
X547184Y269176D01*
Y269205D01*
Y269322D01*
X547213Y269498D01*
X547242Y269732D01*
X547301Y270025D01*
X547418Y270318D01*
X547535Y270669D01*
X547711Y271021D01*
X547945Y271372D01*
X548209Y271753D01*
X548560Y272075D01*
X548970Y272426D01*
X549439Y272719D01*
X550024Y272954D01*
X550669Y273159D01*
X551401Y273305D01*
X554769Y273744D01*
Y273774D01*
Y273832D01*
Y273949D01*
X554739Y274067D01*
X554652Y274418D01*
X554505Y274828D01*
X554388Y275004D01*
X554212Y275209D01*
X554037Y275384D01*
X553832Y275560D01*
X553568Y275677D01*
X553275Y275794D01*
X552924Y275853D01*
X552543Y275882D01*
X552338D01*
X552162Y275853D01*
X551987D01*
X551752Y275824D01*
X551489Y275765D01*
X551196Y275707D01*
X550551Y275560D01*
X549849Y275326D01*
X549117Y275004D01*
X548765Y274799D01*
X548384Y274564D01*
Y277317D01*
X548414Y277346D01*
X548531Y277405D01*
X548736Y277493D01*
X548970Y277581D01*
X549292Y277698D01*
X549673Y277844D01*
X550112Y277962D01*
X550610Y278079D01*
X550669D01*
X550844Y278137D01*
X551108Y278167D01*
X551430Y278225D01*
X551811Y278284D01*
X552221Y278313D01*
X552631Y278372D01*
X553246D01*
X553480Y278342D01*
D02*
G37*
G36*
X488289Y265808D02*
X484628D01*
Y282969D01*
X488289D01*
Y265808D01*
D02*
G37*
G36*
X288704Y279982D02*
X283813D01*
Y265808D01*
X280123D01*
Y279982D01*
X275232D01*
Y282969D01*
X288704D01*
Y279982D01*
D02*
G37*
G36*
X578754Y278342D02*
X578959Y278313D01*
X579223Y278284D01*
X579808Y278167D01*
X580453Y277991D01*
X581126Y277698D01*
X581478Y277522D01*
X581800Y277317D01*
X582093Y277083D01*
X582386Y276790D01*
X582415Y276761D01*
X582444Y276731D01*
X582532Y276614D01*
X582620Y276497D01*
X582737Y276351D01*
X582854Y276146D01*
X582971Y275912D01*
X583118Y275648D01*
X583264Y275355D01*
X583381Y275033D01*
X583498Y274681D01*
X583616Y274272D01*
X583703Y273862D01*
X583791Y273422D01*
X583821Y272924D01*
X583850Y272426D01*
Y270933D01*
X575767D01*
Y270903D01*
X575796Y270816D01*
Y270669D01*
X575855Y270494D01*
X575913Y270259D01*
X576001Y270025D01*
X576118Y269761D01*
X576265Y269498D01*
X576470Y269234D01*
X576704Y268971D01*
X576968Y268736D01*
X577319Y268502D01*
X577700Y268326D01*
X578139Y268180D01*
X578637Y268092D01*
X579223Y268063D01*
X579428D01*
X579574Y268092D01*
X579750D01*
X579955Y268121D01*
X580424Y268180D01*
X580980Y268297D01*
X581595Y268473D01*
X582210Y268736D01*
X582796Y269058D01*
Y266423D01*
X582766D01*
X582708Y266394D01*
X582620Y266335D01*
X582503Y266276D01*
X582327Y266218D01*
X582122Y266130D01*
X581888Y266042D01*
X581624Y265984D01*
X581331Y265896D01*
X580980Y265808D01*
X580629Y265720D01*
X580248Y265661D01*
X579369Y265544D01*
X578403Y265515D01*
X578110D01*
X577934Y265544D01*
X577671Y265574D01*
X577378Y265603D01*
X577085Y265661D01*
X576733Y265720D01*
X576001Y265925D01*
X575240Y266218D01*
X574859Y266394D01*
X574508Y266628D01*
X574156Y266862D01*
X573834Y267155D01*
X573805Y267184D01*
X573775Y267243D01*
X573688Y267331D01*
X573571Y267448D01*
X573453Y267624D01*
X573336Y267829D01*
X573190Y268063D01*
X573043Y268356D01*
X572868Y268648D01*
X572721Y269000D01*
X572604Y269381D01*
X572487Y269791D01*
X572370Y270230D01*
X572282Y270699D01*
X572253Y271226D01*
X572223Y271753D01*
Y271782D01*
Y271870D01*
Y272046D01*
X572253Y272251D01*
X572282Y272485D01*
X572311Y272778D01*
X572370Y273100D01*
X572428Y273451D01*
X572633Y274213D01*
X572780Y274594D01*
X572956Y275004D01*
X573161Y275414D01*
X573395Y275794D01*
X573658Y276175D01*
X573951Y276527D01*
X573980Y276556D01*
X574039Y276614D01*
X574127Y276702D01*
X574273Y276819D01*
X574420Y276966D01*
X574625Y277112D01*
X574888Y277288D01*
X575152Y277464D01*
X575445Y277610D01*
X575767Y277786D01*
X576528Y278079D01*
X576938Y278196D01*
X577378Y278284D01*
X577846Y278342D01*
X578315Y278372D01*
X578578D01*
X578754Y278342D01*
D02*
G37*
G36*
X521822Y278342D02*
X522027Y278313D01*
X522290Y278284D01*
X522876Y278167D01*
X523520Y277991D01*
X524194Y277698D01*
X524545Y277522D01*
X524868Y277317D01*
X525160Y277083D01*
X525453Y276790D01*
X525482Y276761D01*
X525512Y276731D01*
X525600Y276614D01*
X525687Y276497D01*
X525805Y276351D01*
X525922Y276146D01*
X526039Y275912D01*
X526185Y275648D01*
X526332Y275355D01*
X526449Y275033D01*
X526566Y274681D01*
X526683Y274272D01*
X526771Y273862D01*
X526859Y273422D01*
X526888Y272924D01*
X526918Y272426D01*
Y270933D01*
X518835Y270933D01*
Y270903D01*
X518864Y270816D01*
Y270669D01*
X518922Y270494D01*
X518981Y270259D01*
X519069Y270025D01*
X519186Y269761D01*
X519332Y269498D01*
X519537Y269234D01*
X519772Y268971D01*
X520035Y268736D01*
X520387Y268502D01*
X520768Y268326D01*
X521207Y268180D01*
X521705Y268092D01*
X522290Y268063D01*
X522495D01*
X522642Y268092D01*
X522817Y268092D01*
X523022Y268121D01*
X523491Y268180D01*
X524048Y268297D01*
X524663Y268473D01*
X525277Y268736D01*
X525863Y269058D01*
Y266423D01*
X525834D01*
X525775Y266394D01*
X525687Y266335D01*
X525570Y266276D01*
X525395Y266218D01*
X525190Y266130D01*
X524955Y266042D01*
X524692Y265984D01*
X524399Y265896D01*
X524048Y265808D01*
X523696Y265720D01*
X523315Y265661D01*
X522437Y265544D01*
X521470Y265515D01*
X521177D01*
X521002Y265544D01*
X520738Y265573D01*
X520445Y265603D01*
X520153Y265661D01*
X519801Y265720D01*
X519069Y265925D01*
X518307Y266218D01*
X517927Y266393D01*
X517575Y266628D01*
X517224Y266862D01*
X516902Y267155D01*
X516872Y267184D01*
X516843Y267243D01*
X516755Y267331D01*
X516638Y267448D01*
X516521Y267624D01*
X516404Y267829D01*
X516257Y268063D01*
X516111Y268356D01*
X515935Y268648D01*
X515789Y269000D01*
X515672Y269381D01*
X515555Y269791D01*
X515437Y270230D01*
X515350Y270699D01*
X515320Y271226D01*
X515291Y271753D01*
Y271782D01*
Y271870D01*
Y272046D01*
X515320Y272251D01*
X515350Y272485D01*
X515379Y272778D01*
X515437Y273100D01*
X515496Y273451D01*
X515701Y274213D01*
X515847Y274594D01*
X516023Y275004D01*
X516228Y275414D01*
X516462Y275794D01*
X516726Y276175D01*
X517019Y276527D01*
X517048Y276556D01*
X517107Y276614D01*
X517195Y276702D01*
X517341Y276819D01*
X517487Y276966D01*
X517692Y277112D01*
X517956Y277288D01*
X518220Y277464D01*
X518512Y277610D01*
X518835Y277786D01*
X519596Y278079D01*
X520006Y278196D01*
X520445Y278284D01*
X520914Y278342D01*
X521382Y278372D01*
X521646D01*
X521822Y278342D01*
D02*
G37*
G36*
X511044Y278079D02*
X513856D01*
Y275384D01*
X511044D01*
Y270230D01*
Y270201D01*
Y270142D01*
Y270054D01*
X511074Y269937D01*
X511132Y269615D01*
X511249Y269263D01*
X511425Y268883D01*
X511689Y268590D01*
X511865Y268444D01*
X512099Y268356D01*
X512333Y268297D01*
X512597Y268268D01*
X512714D01*
X512831Y268297D01*
X512977Y268326D01*
X513182Y268356D01*
X513387Y268414D01*
X513622Y268502D01*
X513856Y268619D01*
Y265925D01*
X513827Y265896D01*
X513709Y265866D01*
X513504Y265808D01*
X513241Y265720D01*
X512890Y265632D01*
X512480Y265573D01*
X511982Y265544D01*
X511396Y265515D01*
X511220D01*
X511044Y265544D01*
X510781Y265573D01*
X510488Y265632D01*
X510166Y265720D01*
X509814Y265866D01*
X509463Y266013D01*
X509082Y266247D01*
X508731Y266511D01*
X508409Y266833D01*
X508116Y267243D01*
X507852Y267711D01*
X507677Y268239D01*
X507559Y268883D01*
X507501Y269586D01*
Y275384D01*
X505480D01*
Y278079D01*
X507501D01*
Y280773D01*
X511044Y281798D01*
Y278079D01*
D02*
G37*
G36*
X460438Y278342D02*
X460643Y278313D01*
X460906Y278284D01*
X461492Y278167D01*
X462136Y277991D01*
X462810Y277698D01*
X463162Y277522D01*
X463484Y277317D01*
X463777Y277083D01*
X464069Y276790D01*
X464099Y276761D01*
X464128Y276731D01*
X464216Y276614D01*
X464304Y276497D01*
X464421Y276351D01*
X464538Y276146D01*
X464655Y275912D01*
X464801Y275648D01*
X464948Y275355D01*
X465065Y275033D01*
X465182Y274681D01*
X465299Y274271D01*
X465387Y273861D01*
X465475Y273422D01*
X465504Y272924D01*
X465534Y272426D01*
Y270933D01*
X457451D01*
Y270903D01*
X457480Y270816D01*
Y270669D01*
X457539Y270494D01*
X457597Y270259D01*
X457685Y270025D01*
X457802Y269761D01*
X457949Y269498D01*
X458154Y269234D01*
X458388Y268971D01*
X458651Y268736D01*
X459003Y268502D01*
X459384Y268326D01*
X459823Y268180D01*
X460321Y268092D01*
X460906Y268063D01*
X461111D01*
X461258Y268092D01*
X461434D01*
X461639Y268121D01*
X462107Y268180D01*
X462664Y268297D01*
X463279Y268473D01*
X463894Y268736D01*
X464479Y269058D01*
Y266423D01*
X464450D01*
X464392Y266393D01*
X464304Y266335D01*
X464187Y266276D01*
X464011Y266218D01*
X463806Y266130D01*
X463572Y266042D01*
X463308Y265983D01*
X463015Y265896D01*
X462664Y265808D01*
X462312Y265720D01*
X461931Y265661D01*
X461053Y265544D01*
X460087Y265515D01*
X459794D01*
X459618Y265544D01*
X459354Y265573D01*
X459061Y265603D01*
X458769Y265661D01*
X458417Y265720D01*
X457685Y265925D01*
X456923Y266218D01*
X456543Y266393D01*
X456191Y266628D01*
X455840Y266862D01*
X455518Y267155D01*
X455489Y267184D01*
X455459Y267243D01*
X455371Y267331D01*
X455254Y267448D01*
X455137Y267624D01*
X455020Y267829D01*
X454874Y268063D01*
X454727Y268356D01*
X454551Y268648D01*
X454405Y269000D01*
X454288Y269381D01*
X454171Y269791D01*
X454053Y270230D01*
X453966Y270699D01*
X453936Y271226D01*
X453907Y271753D01*
Y271782D01*
Y271870D01*
Y272046D01*
X453936Y272251D01*
X453966Y272485D01*
X453995Y272778D01*
X454053Y273100D01*
X454112Y273451D01*
X454317Y274213D01*
X454464Y274594D01*
X454639Y275004D01*
X454844Y275414D01*
X455079Y275794D01*
X455342Y276175D01*
X455635Y276527D01*
X455664Y276556D01*
X455723Y276614D01*
X455811Y276702D01*
X455957Y276819D01*
X456104Y276966D01*
X456309Y277112D01*
X456572Y277288D01*
X456836Y277464D01*
X457128Y277610D01*
X457451Y277786D01*
X458212Y278079D01*
X458622Y278196D01*
X459061Y278284D01*
X459530Y278342D01*
X459999Y278372D01*
X460262D01*
X460438Y278342D01*
D02*
G37*
G36*
X449661Y278079D02*
X452472D01*
Y275384D01*
X449661D01*
Y270230D01*
Y270201D01*
Y270142D01*
Y270054D01*
X449690Y269937D01*
X449748Y269615D01*
X449866Y269263D01*
X450041Y268883D01*
X450305Y268590D01*
X450481Y268444D01*
X450715Y268356D01*
X450949Y268297D01*
X451213Y268268D01*
X451330D01*
X451447Y268297D01*
X451594Y268326D01*
X451799Y268356D01*
X452004Y268414D01*
X452238Y268502D01*
X452472Y268619D01*
Y265925D01*
X452443Y265896D01*
X452326Y265866D01*
X452121Y265808D01*
X451857Y265720D01*
X451506Y265632D01*
X451096Y265573D01*
X450598Y265544D01*
X450012Y265515D01*
X449836D01*
X449661Y265544D01*
X449397Y265573D01*
X449104Y265632D01*
X448782Y265720D01*
X448430Y265866D01*
X448079Y266013D01*
X447698Y266247D01*
X447347Y266511D01*
X447025Y266833D01*
X446732Y267243D01*
X446468Y267711D01*
X446293Y268239D01*
X446175Y268883D01*
X446117Y269586D01*
Y275384D01*
X444096D01*
Y278079D01*
X446117D01*
Y280773D01*
X449661Y281798D01*
Y278079D01*
D02*
G37*
G36*
X384587Y278342D02*
X384821Y278313D01*
X385114Y278284D01*
X385436Y278225D01*
X385787Y278167D01*
X386520Y277962D01*
X386930Y277815D01*
X387310Y277639D01*
X387691Y277434D01*
X388072Y277229D01*
X388452Y276936D01*
X388775Y276644D01*
X388804Y276614D01*
X388862Y276556D01*
X388950Y276468D01*
X389038Y276322D01*
X389185Y276175D01*
X389331Y275970D01*
X389477Y275707D01*
X389653Y275443D01*
X389829Y275121D01*
X389975Y274769D01*
X390122Y274418D01*
X390268Y274008D01*
X390356Y273569D01*
X390444Y273100D01*
X390502Y272602D01*
X390532Y272075D01*
Y272046D01*
Y271929D01*
Y271782D01*
X390502Y271577D01*
X390473Y271313D01*
X390444Y271021D01*
X390385Y270699D01*
X390297Y270347D01*
X390092Y269586D01*
X389946Y269176D01*
X389770Y268766D01*
X389565Y268385D01*
X389331Y268004D01*
X389067Y267624D01*
X388745Y267272D01*
X388716Y267243D01*
X388657Y267184D01*
X388570Y267096D01*
X388423Y267008D01*
X388247Y266862D01*
X388013Y266716D01*
X387779Y266569D01*
X387486Y266393D01*
X387135Y266218D01*
X386783Y266071D01*
X386373Y265925D01*
X385963Y265778D01*
X385494Y265691D01*
X384997Y265603D01*
X384469Y265544D01*
X383913Y265515D01*
X383620D01*
X383415Y265544D01*
X383152Y265573D01*
X382859Y265603D01*
X382537Y265661D01*
X382185Y265720D01*
X381424Y265925D01*
X381014Y266071D01*
X380633Y266247D01*
X380223Y266423D01*
X379842Y266657D01*
X379491Y266921D01*
X379139Y267213D01*
X379110Y267243D01*
X379052Y267301D01*
X378964Y267389D01*
X378876Y267536D01*
X378729Y267711D01*
X378583Y267916D01*
X378437Y268151D01*
X378261Y268444D01*
X378085Y268736D01*
X377939Y269088D01*
X377792Y269468D01*
X377646Y269908D01*
X377558Y270347D01*
X377470Y270816D01*
X377411Y271343D01*
X377382Y271870D01*
Y271899D01*
Y272016D01*
Y272163D01*
X377411Y272368D01*
X377441Y272631D01*
X377470Y272924D01*
X377529Y273246D01*
X377617Y273598D01*
X377822Y274389D01*
X377968Y274769D01*
X378144Y275179D01*
X378349Y275560D01*
X378612Y275941D01*
X378876Y276292D01*
X379198Y276644D01*
X379227Y276673D01*
X379286Y276731D01*
X379374Y276790D01*
X379520Y276907D01*
X379725Y277054D01*
X379930Y277200D01*
X380194Y277346D01*
X380487Y277522D01*
X380838Y277669D01*
X381189Y277815D01*
X381599Y277962D01*
X382039Y278108D01*
X382507Y278225D01*
X383005Y278284D01*
X383532Y278342D01*
X384089Y278372D01*
X384382D01*
X384587Y278342D01*
D02*
G37*
G36*
X334214Y283233D02*
X334507Y283204D01*
X334888Y283116D01*
X335327Y282999D01*
X335825Y282794D01*
X336381Y282530D01*
X336938Y282179D01*
X337465Y281710D01*
X337758Y281417D01*
X338022Y281124D01*
X338285Y280802D01*
X338519Y280422D01*
X338754Y280012D01*
X338959Y279572D01*
X339164Y279074D01*
X339339Y278577D01*
X339515Y277991D01*
X339632Y277405D01*
X339749Y276731D01*
X339837Y276058D01*
X339867Y275296D01*
X339896Y274506D01*
Y274447D01*
Y274330D01*
Y274096D01*
X339867Y273803D01*
X339837Y273422D01*
X339808Y273012D01*
X339749Y272573D01*
X339691Y272075D01*
X339515Y270991D01*
X339222Y269879D01*
X339047Y269351D01*
X338812Y268824D01*
X338578Y268326D01*
X338285Y267858D01*
X338256Y267828D01*
X338197Y267770D01*
X338109Y267653D01*
X337992Y267506D01*
X337817Y267301D01*
X337612Y267126D01*
X337377Y266891D01*
X337114Y266686D01*
X336792Y266481D01*
X336440Y266247D01*
X336059Y266071D01*
X335649Y265896D01*
X335181Y265720D01*
X334712Y265603D01*
X334185Y265544D01*
X333629Y265515D01*
X333482D01*
X333365Y265544D01*
X333072Y265573D01*
X332691Y265661D01*
X332223Y265778D01*
X331725Y265954D01*
X331169Y266247D01*
X330612Y266598D01*
X330026Y267038D01*
X329763Y267301D01*
X329499Y267623D01*
X329236Y267946D01*
X328972Y268297D01*
X328738Y268707D01*
X328504Y269146D01*
X328299Y269615D01*
X328123Y270113D01*
X327976Y270669D01*
X327830Y271255D01*
X327713Y271899D01*
X327625Y272573D01*
X327596Y273305D01*
X327566Y274096D01*
Y274154D01*
Y274301D01*
Y274535D01*
X327596Y274828D01*
X327625Y275209D01*
X327654Y275648D01*
X327713Y276116D01*
X327771Y276644D01*
X327976Y277727D01*
X328269Y278869D01*
X328445Y279426D01*
X328679Y279953D01*
X328914Y280451D01*
X329206Y280919D01*
X329236Y280949D01*
X329294Y281007D01*
X329382Y281124D01*
X329499Y281300D01*
X329675Y281476D01*
X329880Y281651D01*
X330144Y281886D01*
X330407Y282091D01*
X330729Y282296D01*
X331081Y282530D01*
X331461Y282706D01*
X331901Y282911D01*
X332369Y283057D01*
X332867Y283174D01*
X333394Y283233D01*
X333951Y283262D01*
X334097D01*
X334214Y283233D01*
D02*
G37*
G36*
X246151Y278342D02*
X246385Y278313D01*
X246678Y278284D01*
X247000Y278225D01*
X247351Y278167D01*
X248084Y277962D01*
X248494Y277815D01*
X248874Y277639D01*
X249255Y277434D01*
X249636Y277229D01*
X250016Y276936D01*
X250339Y276644D01*
X250368Y276614D01*
X250427Y276556D01*
X250514Y276468D01*
X250602Y276321D01*
X250749Y276175D01*
X250895Y275970D01*
X251042Y275706D01*
X251217Y275443D01*
X251393Y275121D01*
X251539Y274769D01*
X251686Y274418D01*
X251832Y274008D01*
X251920Y273568D01*
X252008Y273100D01*
X252067Y272602D01*
X252096Y272075D01*
Y272046D01*
Y271929D01*
Y271782D01*
X252067Y271577D01*
X252037Y271313D01*
X252008Y271021D01*
X251949Y270699D01*
X251862Y270347D01*
X251657Y269586D01*
X251510Y269176D01*
X251334Y268766D01*
X251129Y268385D01*
X250895Y268004D01*
X250632Y267623D01*
X250309Y267272D01*
X250280Y267243D01*
X250222Y267184D01*
X250134Y267096D01*
X249987Y267008D01*
X249811Y266862D01*
X249577Y266716D01*
X249343Y266569D01*
X249050Y266393D01*
X248699Y266218D01*
X248347Y266071D01*
X247937Y265925D01*
X247527Y265778D01*
X247059Y265691D01*
X246561Y265603D01*
X246034Y265544D01*
X245477Y265515D01*
X245184D01*
X244979Y265544D01*
X244716Y265573D01*
X244423Y265603D01*
X244101Y265661D01*
X243749Y265720D01*
X242988Y265925D01*
X242578Y266071D01*
X242197Y266247D01*
X241787Y266423D01*
X241406Y266657D01*
X241055Y266921D01*
X240704Y267213D01*
X240674Y267243D01*
X240616Y267301D01*
X240528Y267389D01*
X240440Y267536D01*
X240294Y267711D01*
X240147Y267916D01*
X240001Y268151D01*
X239825Y268444D01*
X239649Y268736D01*
X239503Y269088D01*
X239356Y269468D01*
X239210Y269908D01*
X239122Y270347D01*
X239034Y270816D01*
X238976Y271343D01*
X238946Y271870D01*
Y271899D01*
Y272016D01*
Y272163D01*
X238976Y272368D01*
X239005Y272631D01*
X239034Y272924D01*
X239093Y273246D01*
X239181Y273598D01*
X239386Y274389D01*
X239532Y274769D01*
X239708Y275179D01*
X239913Y275560D01*
X240176Y275941D01*
X240440Y276292D01*
X240762Y276644D01*
X240791Y276673D01*
X240850Y276731D01*
X240938Y276790D01*
X241084Y276907D01*
X241289Y277054D01*
X241494Y277200D01*
X241758Y277346D01*
X242051Y277522D01*
X242402Y277669D01*
X242754Y277815D01*
X243164Y277962D01*
X243603Y278108D01*
X244071Y278225D01*
X244569Y278284D01*
X245096Y278342D01*
X245653Y278372D01*
X245946D01*
X246151Y278342D01*
D02*
G37*
G36*
X231215Y278342D02*
X231449Y278313D01*
X231742Y278284D01*
X232064Y278225D01*
X232416Y278167D01*
X233148Y277962D01*
X233558Y277815D01*
X233938Y277639D01*
X234319Y277434D01*
X234700Y277229D01*
X235081Y276936D01*
X235403Y276644D01*
X235432Y276614D01*
X235491Y276556D01*
X235578Y276468D01*
X235666Y276321D01*
X235813Y276175D01*
X235959Y275970D01*
X236106Y275706D01*
X236281Y275443D01*
X236457Y275121D01*
X236604Y274769D01*
X236750Y274418D01*
X236896Y274008D01*
X236984Y273568D01*
X237072Y273100D01*
X237131Y272602D01*
X237160Y272075D01*
Y272046D01*
Y271929D01*
Y271782D01*
X237131Y271577D01*
X237101Y271313D01*
X237072Y271021D01*
X237013Y270699D01*
X236926Y270347D01*
X236721Y269586D01*
X236574Y269176D01*
X236399Y268766D01*
X236194Y268385D01*
X235959Y268004D01*
X235696Y267623D01*
X235373Y267272D01*
X235344Y267243D01*
X235286Y267184D01*
X235198Y267096D01*
X235051Y267008D01*
X234876Y266862D01*
X234641Y266716D01*
X234407Y266569D01*
X234114Y266393D01*
X233763Y266218D01*
X233411Y266071D01*
X233001Y265925D01*
X232591Y265778D01*
X232123Y265690D01*
X231625Y265603D01*
X231098Y265544D01*
X230541Y265515D01*
X230248D01*
X230043Y265544D01*
X229780Y265573D01*
X229487Y265603D01*
X229165Y265661D01*
X228813Y265720D01*
X228052Y265925D01*
X227642Y266071D01*
X227261Y266247D01*
X226851Y266423D01*
X226470Y266657D01*
X226119Y266921D01*
X225768Y267213D01*
X225738Y267243D01*
X225680Y267301D01*
X225592Y267389D01*
X225504Y267536D01*
X225358Y267711D01*
X225211Y267916D01*
X225065Y268151D01*
X224889Y268443D01*
X224713Y268736D01*
X224567Y269088D01*
X224420Y269468D01*
X224274Y269908D01*
X224186Y270347D01*
X224098Y270816D01*
X224040Y271343D01*
X224010Y271870D01*
Y271899D01*
Y272016D01*
Y272163D01*
X224040Y272368D01*
X224069Y272631D01*
X224098Y272924D01*
X224157Y273246D01*
X224245Y273598D01*
X224450Y274389D01*
X224596Y274769D01*
X224772Y275179D01*
X224977Y275560D01*
X225240Y275941D01*
X225504Y276292D01*
X225826Y276644D01*
X225855Y276673D01*
X225914Y276731D01*
X226002Y276790D01*
X226148Y276907D01*
X226353Y277054D01*
X226558Y277200D01*
X226822Y277346D01*
X227115Y277522D01*
X227466Y277669D01*
X227818Y277815D01*
X228228Y277961D01*
X228667Y278108D01*
X229135Y278225D01*
X229633Y278284D01*
X230161Y278342D01*
X230717Y278372D01*
X231010D01*
X231215Y278342D01*
D02*
G37*
G36*
X183215D02*
X183420Y278313D01*
X183683Y278284D01*
X184269Y278166D01*
X184913Y277991D01*
X185587Y277698D01*
X185938Y277522D01*
X186261Y277317D01*
X186553Y277083D01*
X186846Y276790D01*
X186875Y276761D01*
X186905Y276731D01*
X186993Y276614D01*
X187080Y276497D01*
X187198Y276351D01*
X187315Y276146D01*
X187432Y275911D01*
X187578Y275648D01*
X187725Y275355D01*
X187842Y275033D01*
X187959Y274681D01*
X188076Y274271D01*
X188164Y273861D01*
X188252Y273422D01*
X188281Y272924D01*
X188311Y272426D01*
Y270933D01*
X180228D01*
Y270903D01*
X180257Y270816D01*
Y270669D01*
X180315Y270494D01*
X180374Y270259D01*
X180462Y270025D01*
X180579Y269761D01*
X180725Y269498D01*
X180930Y269234D01*
X181165Y268971D01*
X181428Y268736D01*
X181780Y268502D01*
X182160Y268326D01*
X182600Y268180D01*
X183098Y268092D01*
X183683Y268063D01*
X183888D01*
X184035Y268092D01*
X184210D01*
X184415Y268121D01*
X184884Y268180D01*
X185441Y268297D01*
X186056Y268473D01*
X186670Y268736D01*
X187256Y269058D01*
Y266423D01*
X187227D01*
X187168Y266393D01*
X187080Y266335D01*
X186963Y266276D01*
X186788Y266218D01*
X186583Y266130D01*
X186348Y266042D01*
X186085Y265983D01*
X185792Y265896D01*
X185441Y265808D01*
X185089Y265720D01*
X184708Y265661D01*
X183830Y265544D01*
X182863Y265515D01*
X182570D01*
X182395Y265544D01*
X182131Y265573D01*
X181838Y265603D01*
X181545Y265661D01*
X181194Y265720D01*
X180462Y265925D01*
X179700Y266218D01*
X179320Y266393D01*
X178968Y266628D01*
X178617Y266862D01*
X178295Y267155D01*
X178265Y267184D01*
X178236Y267243D01*
X178148Y267331D01*
X178031Y267448D01*
X177914Y267623D01*
X177797Y267828D01*
X177650Y268063D01*
X177504Y268356D01*
X177328Y268648D01*
X177182Y269000D01*
X177065Y269381D01*
X176947Y269791D01*
X176830Y270230D01*
X176742Y270699D01*
X176713Y271226D01*
X176684Y271753D01*
Y271782D01*
Y271870D01*
Y272046D01*
X176713Y272251D01*
X176742Y272485D01*
X176772Y272778D01*
X176830Y273100D01*
X176889Y273451D01*
X177094Y274213D01*
X177240Y274594D01*
X177416Y275004D01*
X177621Y275413D01*
X177855Y275794D01*
X178119Y276175D01*
X178412Y276526D01*
X178441Y276556D01*
X178500Y276614D01*
X178587Y276702D01*
X178734Y276819D01*
X178880Y276966D01*
X179085Y277112D01*
X179349Y277288D01*
X179613Y277464D01*
X179905Y277610D01*
X180228Y277786D01*
X180989Y278079D01*
X181399Y278196D01*
X181838Y278284D01*
X182307Y278342D01*
X182775Y278372D01*
X183039D01*
X183215Y278342D01*
D02*
G37*
G36*
X298720Y256635D02*
X298925Y256606D01*
X299188Y256547D01*
X299422Y256430D01*
X299657Y256313D01*
X299891Y256137D01*
X299920Y256108D01*
X299979Y256049D01*
X300067Y255932D01*
X300184Y255786D01*
X300301Y255581D01*
X300389Y255347D01*
X300447Y255112D01*
X300477Y254820D01*
Y254790D01*
Y254673D01*
X300447Y254527D01*
X300418Y254351D01*
X300330Y254117D01*
X300242Y253882D01*
X300096Y253677D01*
X299891Y253443D01*
X299862Y253414D01*
X299774Y253355D01*
X299657Y253267D01*
X299481Y253179D01*
X299276Y253092D01*
X299012Y253004D01*
X298720Y252945D01*
X298397Y252916D01*
X298251D01*
X298075Y252945D01*
X297870Y252974D01*
X297636Y253062D01*
X297372Y253150D01*
X297138Y253297D01*
X296904Y253472D01*
X296875Y253502D01*
X296816Y253560D01*
X296728Y253677D01*
X296611Y253853D01*
X296494Y254058D01*
X296406Y254263D01*
X296347Y254527D01*
X296318Y254820D01*
Y254849D01*
Y254966D01*
X296347Y255112D01*
X296406Y255288D01*
X296465Y255493D01*
X296552Y255727D01*
X296699Y255932D01*
X296904Y256137D01*
X296933Y256167D01*
X297021Y256225D01*
X297138Y256313D01*
X297314Y256401D01*
X297519Y256489D01*
X297782Y256577D01*
X298075Y256635D01*
X298397Y256665D01*
X298544D01*
X298720Y256635D01*
D02*
G37*
G36*
X396652Y256020D02*
X396887D01*
X397180Y255991D01*
X397473Y255962D01*
X398146Y255903D01*
X398849Y255786D01*
X399552Y255610D01*
X400225Y255405D01*
Y251862D01*
X400196D01*
X400138Y251920D01*
X400050Y251950D01*
X399933Y252037D01*
X399757Y252096D01*
X399552Y252184D01*
X399347Y252272D01*
X399083Y252389D01*
X398498Y252565D01*
X397824Y252740D01*
X397092Y252857D01*
X396272Y252887D01*
X396037D01*
X395862Y252857D01*
X395628Y252828D01*
X395393Y252799D01*
X394837Y252682D01*
X394193Y252506D01*
X393519Y252213D01*
X393167Y252037D01*
X392845Y251803D01*
X392523Y251569D01*
X392230Y251276D01*
X392201Y251247D01*
X392172Y251188D01*
X392084Y251100D01*
X391996Y250983D01*
X391879Y250837D01*
X391762Y250632D01*
X391615Y250397D01*
X391498Y250134D01*
X391352Y249870D01*
X391205Y249548D01*
X390971Y248816D01*
X390795Y247996D01*
X390766Y247527D01*
X390737Y247059D01*
Y247029D01*
Y246942D01*
Y246824D01*
X390766Y246649D01*
X390795Y246414D01*
X390825Y246180D01*
X390913Y245594D01*
X391088Y244950D01*
X391352Y244277D01*
X391498Y243954D01*
X391703Y243603D01*
X391908Y243281D01*
X392172Y242988D01*
X392201Y242959D01*
X392230Y242929D01*
X392318Y242841D01*
X392435Y242754D01*
X392582Y242637D01*
X392757Y242519D01*
X392962Y242373D01*
X393197Y242227D01*
X393753Y241934D01*
X394398Y241699D01*
X395188Y241524D01*
X395598Y241494D01*
X396037Y241465D01*
X396272D01*
X396418Y241494D01*
X396623D01*
X396858Y241524D01*
X397150Y241553D01*
X397443Y241611D01*
X398088Y241729D01*
X398790Y241934D01*
X399523Y242197D01*
X400225Y242578D01*
Y239210D01*
X400196D01*
X400138Y239181D01*
X400020Y239122D01*
X399874Y239064D01*
X399698Y239005D01*
X399464Y238917D01*
X399200Y238829D01*
X398908Y238771D01*
X398585Y238683D01*
X398205Y238595D01*
X397795Y238507D01*
X397385Y238449D01*
X396916Y238390D01*
X396418Y238331D01*
X395335Y238302D01*
X395159D01*
X394954Y238331D01*
X394690D01*
X394368Y238361D01*
X393988Y238419D01*
X393548Y238507D01*
X393109Y238595D01*
X392611Y238712D01*
X392113Y238859D01*
X391615Y239064D01*
X391088Y239269D01*
X390561Y239532D01*
X390063Y239854D01*
X389595Y240206D01*
X389155Y240616D01*
X389126Y240645D01*
X389067Y240733D01*
X388950Y240850D01*
X388804Y241026D01*
X388628Y241260D01*
X388452Y241553D01*
X388247Y241875D01*
X388042Y242256D01*
X387808Y242666D01*
X387603Y243134D01*
X387427Y243661D01*
X387252Y244189D01*
X387105Y244804D01*
X386988Y245419D01*
X386930Y246092D01*
X386900Y246795D01*
Y246854D01*
Y246971D01*
X386930Y247176D01*
Y247469D01*
X386988Y247820D01*
X387047Y248230D01*
X387105Y248669D01*
X387222Y249167D01*
X387340Y249665D01*
X387515Y250222D01*
X387720Y250749D01*
X387954Y251305D01*
X388247Y251862D01*
X388599Y252418D01*
X388980Y252945D01*
X389419Y253443D01*
X389448Y253472D01*
X389536Y253560D01*
X389682Y253677D01*
X389887Y253853D01*
X390122Y254058D01*
X390444Y254263D01*
X390795Y254497D01*
X391205Y254761D01*
X391645Y254995D01*
X392142Y255229D01*
X392699Y255434D01*
X393285Y255639D01*
X393900Y255815D01*
X394573Y255932D01*
X395276Y256020D01*
X396008Y256050D01*
X396418D01*
X396652Y256020D01*
D02*
G37*
G36*
X343264Y256020D02*
X343498D01*
X343791Y255991D01*
X344084Y255962D01*
X344757Y255903D01*
X345460Y255786D01*
X346163Y255610D01*
X346837Y255405D01*
Y251862D01*
X346807D01*
X346749Y251920D01*
X346661Y251950D01*
X346544Y252037D01*
X346368Y252096D01*
X346163Y252184D01*
X345958Y252272D01*
X345695Y252389D01*
X345109Y252565D01*
X344435Y252740D01*
X343703Y252857D01*
X342883Y252887D01*
X342649D01*
X342473Y252857D01*
X342239Y252828D01*
X342005Y252799D01*
X341448Y252682D01*
X340804Y252506D01*
X340130Y252213D01*
X339779Y252037D01*
X339457Y251803D01*
X339134Y251569D01*
X338842Y251276D01*
X338812Y251247D01*
X338783Y251188D01*
X338695Y251100D01*
X338607Y250983D01*
X338490Y250837D01*
X338373Y250632D01*
X338227Y250397D01*
X338109Y250134D01*
X337963Y249870D01*
X337817Y249548D01*
X337582Y248816D01*
X337407Y247996D01*
X337377Y247527D01*
X337348Y247059D01*
Y247029D01*
Y246942D01*
Y246824D01*
X337377Y246649D01*
X337407Y246414D01*
X337436Y246180D01*
X337524Y245594D01*
X337699Y244950D01*
X337963Y244277D01*
X338109Y243954D01*
X338314Y243603D01*
X338519Y243281D01*
X338783Y242988D01*
X338812Y242959D01*
X338842Y242929D01*
X338929Y242841D01*
X339047Y242754D01*
X339193Y242636D01*
X339369Y242519D01*
X339574Y242373D01*
X339808Y242226D01*
X340364Y241934D01*
X341009Y241699D01*
X341800Y241524D01*
X342210Y241494D01*
X342649Y241465D01*
X342883D01*
X343030Y241494D01*
X343234D01*
X343469Y241524D01*
X343762Y241553D01*
X344054Y241611D01*
X344699Y241729D01*
X345402Y241934D01*
X346134Y242197D01*
X346837Y242578D01*
Y239210D01*
X346807D01*
X346749Y239181D01*
X346632Y239122D01*
X346485Y239063D01*
X346310Y239005D01*
X346075Y238917D01*
X345812Y238829D01*
X345519Y238771D01*
X345197Y238683D01*
X344816Y238595D01*
X344406Y238507D01*
X343996Y238449D01*
X343527Y238390D01*
X343030Y238331D01*
X341946Y238302D01*
X341770D01*
X341565Y238331D01*
X341302D01*
X340979Y238361D01*
X340599Y238419D01*
X340159Y238507D01*
X339720Y238595D01*
X339222Y238712D01*
X338724Y238859D01*
X338227Y239063D01*
X337699Y239268D01*
X337172Y239532D01*
X336674Y239854D01*
X336206Y240206D01*
X335766Y240616D01*
X335737Y240645D01*
X335679Y240733D01*
X335561Y240850D01*
X335415Y241026D01*
X335239Y241260D01*
X335064Y241553D01*
X334859Y241875D01*
X334654Y242256D01*
X334419Y242666D01*
X334214Y243134D01*
X334039Y243661D01*
X333863Y244189D01*
X333717Y244804D01*
X333599Y245419D01*
X333541Y246092D01*
X333512Y246795D01*
Y246854D01*
Y246971D01*
X333541Y247176D01*
Y247469D01*
X333599Y247820D01*
X333658Y248230D01*
X333717Y248669D01*
X333834Y249167D01*
X333951Y249665D01*
X334127Y250222D01*
X334332Y250749D01*
X334566Y251305D01*
X334859Y251862D01*
X335210Y252418D01*
X335591Y252945D01*
X336030Y253443D01*
X336059Y253472D01*
X336147Y253560D01*
X336294Y253677D01*
X336499Y253853D01*
X336733Y254058D01*
X337055Y254263D01*
X337407Y254497D01*
X337817Y254761D01*
X338256Y254995D01*
X338754Y255229D01*
X339310Y255434D01*
X339896Y255639D01*
X340511Y255815D01*
X341185Y255932D01*
X341887Y256020D01*
X342620Y256049D01*
X343030D01*
X343264Y256020D01*
D02*
G37*
G36*
X425822Y251129D02*
X426085Y251071D01*
X426378Y251012D01*
X426730Y250895D01*
X427110Y250749D01*
X427491Y250515D01*
X427842Y250251D01*
X428223Y249929D01*
X428574Y249519D01*
X428867Y249021D01*
X429131Y248435D01*
X429336Y247762D01*
X429453Y246971D01*
X429512Y246561D01*
Y246092D01*
Y238595D01*
X425968D01*
Y245419D01*
Y245448D01*
Y245536D01*
Y245682D01*
X425939Y245887D01*
X425910Y246122D01*
X425851Y246356D01*
X425704Y246912D01*
X425587Y247205D01*
X425441Y247469D01*
X425265Y247703D01*
X425060Y247937D01*
X424826Y248142D01*
X424533Y248289D01*
X424211Y248377D01*
X423830Y248406D01*
X423654D01*
X423479Y248377D01*
X423244Y248318D01*
X422952Y248201D01*
X422688Y248084D01*
X422395Y247879D01*
X422132Y247615D01*
X422102Y247586D01*
X422014Y247469D01*
X421926Y247293D01*
X421809Y247059D01*
X421663Y246766D01*
X421575Y246444D01*
X421487Y246034D01*
X421458Y245594D01*
Y238595D01*
X417856D01*
Y250866D01*
X421458D01*
Y248904D01*
X421487D01*
X421516Y248933D01*
X421546Y248992D01*
X421634Y249109D01*
X421751Y249255D01*
X421868Y249431D01*
X422044Y249607D01*
X422249Y249812D01*
X422483Y250046D01*
X422747Y250251D01*
X423039Y250456D01*
X423362Y250632D01*
X423713Y250807D01*
X424123Y250954D01*
X424533Y251071D01*
X424972Y251129D01*
X425441Y251159D01*
X425617D01*
X425822Y251129D01*
D02*
G37*
G36*
X449192Y251042D02*
X449514Y251012D01*
X449661Y250983D01*
X449807Y250924D01*
Y247615D01*
X449778Y247644D01*
X449690Y247674D01*
X449543Y247732D01*
X449368Y247791D01*
X449133Y247849D01*
X448870Y247908D01*
X448577Y247967D01*
X448021D01*
X447786Y247908D01*
X447523Y247849D01*
X447201Y247732D01*
X446878Y247586D01*
X446586Y247351D01*
X446293Y247029D01*
X446263Y247000D01*
X446175Y246854D01*
X446058Y246649D01*
X445941Y246385D01*
X445824Y246004D01*
X445707Y245565D01*
X445619Y245067D01*
X445590Y244482D01*
Y238595D01*
X441988D01*
Y250866D01*
X445590D01*
Y248552D01*
X445619D01*
Y248582D01*
X445648Y248669D01*
X445707Y248787D01*
X445795Y248933D01*
X445883Y249138D01*
X446029Y249343D01*
X446351Y249812D01*
X446791Y250280D01*
X447054Y250485D01*
X447347Y250690D01*
X447669Y250837D01*
X448021Y250954D01*
X448430Y251042D01*
X448841Y251071D01*
X449075D01*
X449192Y251042D01*
D02*
G37*
G36*
X291252Y238595D02*
X287474D01*
X285599Y245946D01*
Y245975D01*
X285570Y246063D01*
X285541Y246209D01*
X285511Y246414D01*
X285482Y246649D01*
X285453Y246912D01*
X285394Y247469D01*
X285336D01*
Y247439D01*
X285306Y247322D01*
Y247146D01*
X285277Y246971D01*
X285189Y246473D01*
X285101Y246004D01*
X283051Y238595D01*
X279332D01*
X275847Y250866D01*
X279508D01*
X281294Y242695D01*
Y242666D01*
X281324Y242607D01*
Y242490D01*
X281353Y242344D01*
X281382Y242168D01*
X281411Y241934D01*
X281441Y241670D01*
X281470Y241377D01*
X281558D01*
Y241406D01*
Y241524D01*
X281587Y241670D01*
X281616Y241846D01*
X281675Y242314D01*
X281763Y242754D01*
X283959Y250866D01*
X287356D01*
X289319Y242695D01*
Y242666D01*
X289348Y242636D01*
Y242549D01*
X289377Y242402D01*
X289407Y242226D01*
X289436Y241992D01*
X289465Y241699D01*
X289494Y241348D01*
X289582D01*
Y241377D01*
Y241465D01*
X289611Y241582D01*
Y241729D01*
X289641Y241934D01*
X289670Y242168D01*
X289758Y242695D01*
X291457Y250866D01*
X294795D01*
X291252Y238595D01*
D02*
G37*
G36*
X470073Y238595D02*
X466500D01*
Y256752D01*
X470073D01*
Y238595D01*
D02*
G37*
G36*
X378847Y252770D02*
X373956Y252770D01*
Y238595D01*
X370266D01*
Y252770D01*
X365375D01*
Y255757D01*
X378847Y255757D01*
Y252770D01*
D02*
G37*
G36*
X364818Y238595D02*
X360806D01*
X359518Y242519D01*
X353280D01*
X352020Y238595D01*
X348037D01*
X354334Y255757D01*
X358639D01*
X364818Y238595D01*
D02*
G37*
G36*
X316379Y249021D02*
X316408D01*
X316438Y249050D01*
X316467Y249109D01*
X316555Y249226D01*
X316672Y249343D01*
X316818Y249519D01*
X316994Y249694D01*
X317170Y249899D01*
X317404Y250104D01*
X317960Y250485D01*
X318605Y250837D01*
X318986Y250954D01*
X319366Y251071D01*
X319776Y251129D01*
X320216Y251159D01*
X320391D01*
X320596Y251129D01*
X320860Y251071D01*
X321182Y251012D01*
X321533Y250895D01*
X321914Y250749D01*
X322295Y250544D01*
X322676Y250251D01*
X323056Y249929D01*
X323408Y249519D01*
X323730Y249021D01*
X323993Y248464D01*
X324198Y247791D01*
X324316Y247000D01*
X324374Y246590D01*
Y246122D01*
Y238595D01*
X320801D01*
Y245565D01*
Y245594D01*
Y245682D01*
Y245829D01*
X320772Y246004D01*
X320743Y246239D01*
X320684Y246473D01*
X320538Y247000D01*
X320450Y247264D01*
X320303Y247498D01*
X320128Y247761D01*
X319952Y247966D01*
X319688Y248142D01*
X319425Y248289D01*
X319103Y248377D01*
X318751Y248406D01*
X318575D01*
X318370Y248377D01*
X318136Y248318D01*
X317873Y248201D01*
X317580Y248084D01*
X317287Y247879D01*
X317023Y247615D01*
X316994Y247586D01*
X316936Y247469D01*
X316818Y247293D01*
X316701Y247059D01*
X316584Y246766D01*
X316467Y246414D01*
X316408Y246004D01*
X316379Y245565D01*
Y238595D01*
X312777D01*
Y256752D01*
X316379D01*
Y249021D01*
D02*
G37*
G36*
X300154Y238595D02*
X296582D01*
Y250866D01*
X300154D01*
Y238595D01*
D02*
G37*
G36*
X458095Y251129D02*
X458329Y251100D01*
X458622Y251071D01*
X458944Y251012D01*
X459296Y250954D01*
X460028Y250749D01*
X460438Y250602D01*
X460819Y250427D01*
X461199Y250222D01*
X461580Y250017D01*
X461961Y249724D01*
X462283Y249431D01*
X462312Y249402D01*
X462371Y249343D01*
X462459Y249255D01*
X462547Y249109D01*
X462693Y248962D01*
X462839Y248757D01*
X462986Y248494D01*
X463162Y248230D01*
X463337Y247908D01*
X463484Y247557D01*
X463630Y247205D01*
X463777Y246795D01*
X463864Y246356D01*
X463952Y245887D01*
X464011Y245389D01*
X464040Y244862D01*
Y244833D01*
Y244716D01*
Y244569D01*
X464011Y244364D01*
X463982Y244101D01*
X463952Y243808D01*
X463894Y243486D01*
X463806Y243134D01*
X463601Y242373D01*
X463454Y241963D01*
X463279Y241553D01*
X463074Y241172D01*
X462839Y240791D01*
X462576Y240411D01*
X462254Y240059D01*
X462224Y240030D01*
X462166Y239971D01*
X462078Y239884D01*
X461931Y239796D01*
X461756Y239649D01*
X461521Y239503D01*
X461287Y239356D01*
X460994Y239181D01*
X460643Y239005D01*
X460291Y238859D01*
X459882Y238712D01*
X459471Y238566D01*
X459003Y238478D01*
X458505Y238390D01*
X457978Y238331D01*
X457421Y238302D01*
X457128D01*
X456923Y238331D01*
X456660Y238361D01*
X456367Y238390D01*
X456045Y238449D01*
X455694Y238507D01*
X454932Y238712D01*
X454522Y238859D01*
X454141Y239034D01*
X453731Y239210D01*
X453351Y239444D01*
X452999Y239708D01*
X452648Y240001D01*
X452618Y240030D01*
X452560Y240089D01*
X452472Y240176D01*
X452384Y240323D01*
X452238Y240499D01*
X452091Y240704D01*
X451945Y240938D01*
X451769Y241231D01*
X451594Y241524D01*
X451447Y241875D01*
X451301Y242256D01*
X451154Y242695D01*
X451066Y243134D01*
X450978Y243603D01*
X450920Y244130D01*
X450891Y244657D01*
Y244687D01*
Y244804D01*
Y244950D01*
X450920Y245155D01*
X450949Y245419D01*
X450978Y245711D01*
X451037Y246034D01*
X451125Y246385D01*
X451330Y247176D01*
X451476Y247557D01*
X451652Y247967D01*
X451857Y248347D01*
X452121Y248728D01*
X452384Y249079D01*
X452706Y249431D01*
X452736Y249460D01*
X452794Y249519D01*
X452882Y249577D01*
X453028Y249694D01*
X453233Y249841D01*
X453438Y249987D01*
X453702Y250134D01*
X453995Y250310D01*
X454346Y250456D01*
X454698Y250602D01*
X455108Y250749D01*
X455547Y250895D01*
X456016Y251012D01*
X456513Y251071D01*
X457041Y251129D01*
X457597Y251159D01*
X457890D01*
X458095Y251129D01*
D02*
G37*
G36*
X437009Y250866D02*
X439820D01*
Y248172D01*
X437009D01*
Y243017D01*
Y242988D01*
Y242929D01*
Y242841D01*
X437038Y242724D01*
X437097Y242402D01*
X437214Y242051D01*
X437390Y241670D01*
X437653Y241377D01*
X437829Y241231D01*
X438063Y241143D01*
X438298Y241084D01*
X438561Y241055D01*
X438678D01*
X438795Y241084D01*
X438942Y241114D01*
X439147Y241143D01*
X439352Y241201D01*
X439586Y241289D01*
X439820Y241406D01*
Y238712D01*
X439791Y238683D01*
X439674Y238654D01*
X439469Y238595D01*
X439205Y238507D01*
X438854Y238419D01*
X438444Y238361D01*
X437946Y238331D01*
X437360Y238302D01*
X437185D01*
X437009Y238331D01*
X436745Y238361D01*
X436452Y238419D01*
X436130Y238507D01*
X435779Y238654D01*
X435428Y238800D01*
X435047Y239034D01*
X434695Y239298D01*
X434373Y239620D01*
X434080Y240030D01*
X433817Y240499D01*
X433641Y241026D01*
X433524Y241670D01*
X433465Y242373D01*
Y248172D01*
X431445D01*
Y250866D01*
X433465D01*
Y253560D01*
X437009Y254585D01*
Y250866D01*
D02*
G37*
G36*
X409392Y251129D02*
X409626Y251100D01*
X409919Y251071D01*
X410241Y251012D01*
X410593Y250954D01*
X411325Y250749D01*
X411735Y250602D01*
X412116Y250427D01*
X412496Y250222D01*
X412877Y250017D01*
X413258Y249724D01*
X413580Y249431D01*
X413609Y249402D01*
X413668Y249343D01*
X413756Y249255D01*
X413843Y249109D01*
X413990Y248962D01*
X414136Y248757D01*
X414283Y248494D01*
X414459Y248230D01*
X414634Y247908D01*
X414781Y247557D01*
X414927Y247205D01*
X415074Y246795D01*
X415161Y246356D01*
X415249Y245887D01*
X415308Y245389D01*
X415337Y244862D01*
Y244833D01*
Y244716D01*
Y244569D01*
X415308Y244364D01*
X415279Y244101D01*
X415249Y243808D01*
X415191Y243486D01*
X415103Y243134D01*
X414898Y242373D01*
X414751Y241963D01*
X414576Y241553D01*
X414371Y241172D01*
X414136Y240791D01*
X413873Y240411D01*
X413551Y240059D01*
X413521Y240030D01*
X413463Y239971D01*
X413375Y239884D01*
X413228Y239796D01*
X413053Y239649D01*
X412818Y239503D01*
X412584Y239356D01*
X412291Y239181D01*
X411940Y239005D01*
X411589Y238859D01*
X411179Y238712D01*
X410769Y238566D01*
X410300Y238478D01*
X409802Y238390D01*
X409275Y238331D01*
X408718Y238302D01*
X408426D01*
X408221Y238331D01*
X407957Y238361D01*
X407664Y238390D01*
X407342Y238449D01*
X406991Y238507D01*
X406229Y238712D01*
X405819Y238859D01*
X405438Y239034D01*
X405028Y239210D01*
X404648Y239444D01*
X404296Y239708D01*
X403945Y240001D01*
X403915Y240030D01*
X403857Y240089D01*
X403769Y240176D01*
X403681Y240323D01*
X403535Y240499D01*
X403388Y240704D01*
X403242Y240938D01*
X403066Y241231D01*
X402891Y241524D01*
X402744Y241875D01*
X402598Y242256D01*
X402451Y242695D01*
X402363Y243134D01*
X402276Y243603D01*
X402217Y244130D01*
X402188Y244657D01*
Y244687D01*
Y244804D01*
Y244950D01*
X402217Y245155D01*
X402246Y245419D01*
X402276Y245711D01*
X402334Y246034D01*
X402422Y246385D01*
X402627Y247176D01*
X402773Y247557D01*
X402949Y247967D01*
X403154Y248347D01*
X403418Y248728D01*
X403681Y249079D01*
X404003Y249431D01*
X404033Y249460D01*
X404091Y249519D01*
X404179Y249577D01*
X404325Y249694D01*
X404530Y249841D01*
X404735Y249987D01*
X404999Y250134D01*
X405292Y250310D01*
X405643Y250456D01*
X405995Y250602D01*
X406405Y250749D01*
X406844Y250895D01*
X407313Y251012D01*
X407811Y251071D01*
X408338Y251129D01*
X408894Y251159D01*
X409187D01*
X409392Y251129D01*
D02*
G37*
G36*
X307798Y250866D02*
X310610D01*
Y248172D01*
X307798D01*
Y243017D01*
Y242988D01*
Y242929D01*
Y242841D01*
X307827Y242724D01*
X307886Y242402D01*
X308003Y242051D01*
X308179Y241670D01*
X308442Y241377D01*
X308618Y241231D01*
X308853Y241143D01*
X309087Y241084D01*
X309350Y241055D01*
X309468D01*
X309585Y241084D01*
X309731Y241114D01*
X309936Y241143D01*
X310141Y241201D01*
X310375Y241289D01*
X310610Y241406D01*
Y238712D01*
X310580Y238683D01*
X310463Y238654D01*
X310258Y238595D01*
X309995Y238507D01*
X309643Y238419D01*
X309233Y238361D01*
X308735Y238331D01*
X308150Y238302D01*
X307974D01*
X307798Y238331D01*
X307535Y238361D01*
X307242Y238419D01*
X306920Y238507D01*
X306568Y238654D01*
X306217Y238800D01*
X305836Y239034D01*
X305485Y239298D01*
X305163Y239620D01*
X304870Y240030D01*
X304606Y240499D01*
X304430Y241026D01*
X304313Y241670D01*
X304255Y242373D01*
Y248172D01*
X302234D01*
Y250866D01*
X304255D01*
Y253560D01*
X307798Y254585D01*
Y250866D01*
D02*
G37*
G36*
X632130Y48471D02*
X632323D01*
X632730Y48428D01*
X633203Y48364D01*
X633696Y48278D01*
X634190Y48149D01*
X634662Y47977D01*
Y46282D01*
X634641D01*
X634598Y46325D01*
X634533Y46346D01*
X634426Y46411D01*
X634297Y46454D01*
X634147Y46518D01*
X633975Y46582D01*
X633782Y46668D01*
X633353Y46797D01*
X632838Y46926D01*
X632280Y47012D01*
X631700Y47033D01*
X631486D01*
X631357Y47012D01*
X631164Y46990D01*
X630949Y46969D01*
X630734Y46926D01*
X630477Y46861D01*
X629919Y46690D01*
X629640Y46582D01*
X629339Y46432D01*
X629060Y46282D01*
X628781Y46089D01*
X628502Y45874D01*
X628245Y45616D01*
X628223Y45595D01*
X628180Y45552D01*
X628116Y45466D01*
X628051Y45359D01*
X627944Y45230D01*
X627837Y45058D01*
X627708Y44844D01*
X627601Y44629D01*
X627472Y44372D01*
X627343Y44071D01*
X627236Y43771D01*
X627150Y43427D01*
X627064Y43062D01*
X627000Y42676D01*
X626957Y42268D01*
X626935Y41839D01*
Y41818D01*
Y41732D01*
Y41624D01*
X626957Y41474D01*
X626978Y41281D01*
X627000Y41066D01*
X627043Y40809D01*
X627086Y40551D01*
X627236Y39972D01*
X627343Y39671D01*
X627451Y39371D01*
X627601Y39070D01*
X627751Y38791D01*
X627944Y38512D01*
X628159Y38255D01*
X628180Y38233D01*
X628223Y38190D01*
X628288Y38126D01*
X628395Y38040D01*
X628502Y37954D01*
X628652Y37826D01*
X628824Y37718D01*
X629039Y37589D01*
X629254Y37461D01*
X629490Y37353D01*
X629769Y37225D01*
X630048Y37139D01*
X630369Y37053D01*
X630691Y36988D01*
X631035Y36946D01*
X631400Y36924D01*
X631593D01*
X631722Y36946D01*
X631872D01*
X632065Y36967D01*
X632280Y36988D01*
X632516Y37031D01*
X633031Y37139D01*
X633568Y37289D01*
X634126Y37503D01*
X634662Y37783D01*
Y36216D01*
X634641D01*
X634598Y36194D01*
X634512Y36151D01*
X634405Y36108D01*
X634276Y36044D01*
X634104Y36001D01*
X633911Y35937D01*
X633696Y35872D01*
X633460Y35786D01*
X633203Y35722D01*
X632902Y35679D01*
X632602Y35615D01*
X631915Y35529D01*
X631164Y35508D01*
X631035D01*
X630906Y35529D01*
X630713D01*
X630477Y35550D01*
X630219Y35593D01*
X629919Y35658D01*
X629618Y35722D01*
X629275Y35808D01*
X628910Y35915D01*
X628567Y36065D01*
X628202Y36216D01*
X627837Y36409D01*
X627494Y36645D01*
X627150Y36902D01*
X626828Y37203D01*
X626807Y37225D01*
X626764Y37289D01*
X626678Y37375D01*
X626571Y37525D01*
X626463Y37697D01*
X626313Y37890D01*
X626184Y38147D01*
X626034Y38426D01*
X625884Y38727D01*
X625733Y39070D01*
X625583Y39435D01*
X625476Y39843D01*
X625369Y40272D01*
X625283Y40744D01*
X625240Y41238D01*
X625218Y41753D01*
Y41796D01*
Y41882D01*
X625240Y42054D01*
Y42268D01*
X625283Y42526D01*
X625326Y42805D01*
X625369Y43148D01*
X625454Y43513D01*
X625540Y43899D01*
X625669Y44286D01*
X625819Y44694D01*
X625991Y45101D01*
X626206Y45509D01*
X626442Y45917D01*
X626721Y46282D01*
X627043Y46647D01*
X627064Y46668D01*
X627129Y46733D01*
X627236Y46818D01*
X627365Y46926D01*
X627558Y47076D01*
X627772Y47226D01*
X628030Y47398D01*
X628309Y47570D01*
X628631Y47741D01*
X628974Y47913D01*
X629361Y48063D01*
X629769Y48214D01*
X630198Y48321D01*
X630670Y48407D01*
X631164Y48471D01*
X631679Y48493D01*
X631979D01*
X632130Y48471D01*
D02*
G37*
G36*
X617900Y35701D02*
X616268D01*
Y44028D01*
Y44050D01*
Y44071D01*
Y44136D01*
Y44221D01*
Y44436D01*
X616290Y44736D01*
Y45080D01*
X616333Y45509D01*
X616354Y46003D01*
X616397Y46518D01*
X616354D01*
Y46475D01*
X616311Y46368D01*
X616268Y46217D01*
X616225Y46024D01*
X616097Y45595D01*
X616032Y45402D01*
X615968Y45252D01*
X611825Y35701D01*
X610924D01*
X606782Y45166D01*
Y45187D01*
X606760Y45230D01*
X606717Y45316D01*
X606674Y45466D01*
X606632Y45638D01*
X606546Y45874D01*
X606481Y46175D01*
X606395Y46518D01*
X606352D01*
Y46475D01*
X606374Y46346D01*
Y46153D01*
X606395Y45874D01*
X606417Y45509D01*
Y45080D01*
X606438Y44565D01*
Y43964D01*
Y35701D01*
X604871D01*
Y48278D01*
X607082D01*
X610795Y39650D01*
X610817Y39607D01*
X610860Y39478D01*
X610946Y39306D01*
X611031Y39092D01*
X611117Y38834D01*
X611203Y38577D01*
X611289Y38341D01*
X611353Y38105D01*
X611418D01*
Y38126D01*
X611439Y38147D01*
X611461Y38212D01*
X611482Y38298D01*
X611568Y38491D01*
X611654Y38748D01*
X611761Y39006D01*
X611847Y39264D01*
X611954Y39500D01*
X612019Y39693D01*
X615796Y48278D01*
X617900D01*
Y35701D01*
D02*
G37*
G36*
X657306Y35701D02*
X655374D01*
X649042Y45488D01*
X649021Y45509D01*
X648999Y45552D01*
X648957Y45638D01*
X648892Y45745D01*
X648742Y46003D01*
X648613Y46303D01*
X648549D01*
Y46282D01*
X648570Y46217D01*
Y46110D01*
X648592Y45939D01*
Y45702D01*
X648613Y45381D01*
Y45016D01*
Y44780D01*
Y44543D01*
Y35701D01*
X647003D01*
Y48278D01*
X649042D01*
X655224Y38663D01*
X655245Y38641D01*
X655288Y38555D01*
X655374Y38426D01*
X655460Y38298D01*
X655631Y37997D01*
X655696Y37868D01*
X655739Y37783D01*
X655760D01*
Y37804D01*
Y37890D01*
X655739Y38019D01*
Y38212D01*
X655717Y38469D01*
Y38791D01*
X655696Y39178D01*
Y39628D01*
Y48278D01*
X657306D01*
Y35701D01*
D02*
G37*
G36*
X643741D02*
X642110D01*
Y48278D01*
X643741D01*
Y35701D01*
D02*
G37*
G36*
X622772Y35701D02*
X621140D01*
Y48278D01*
X622772D01*
Y35701D01*
D02*
G37*
G36*
X315005Y57232D02*
X313073D01*
X306741Y67019D01*
X306720Y67040D01*
X306698Y67083D01*
X306656Y67169D01*
X306591Y67276D01*
X306441Y67534D01*
X306312Y67834D01*
X306248D01*
Y67813D01*
X306269Y67748D01*
Y67641D01*
X306291Y67470D01*
Y67233D01*
X306312Y66911D01*
Y66547D01*
Y66311D01*
Y66074D01*
Y57232D01*
X304702D01*
Y69809D01*
X306741D01*
X312923Y60194D01*
X312944Y60172D01*
X312987Y60086D01*
X313073Y59957D01*
X313159Y59829D01*
X313330Y59528D01*
X313395Y59399D01*
X313438Y59314D01*
X313459D01*
Y59335D01*
Y59421D01*
X313438Y59550D01*
Y59743D01*
X313416Y60000D01*
Y60322D01*
X313395Y60709D01*
Y61159D01*
Y69809D01*
X315005D01*
Y57232D01*
D02*
G37*
G36*
X377934Y57232D02*
X376131D01*
X371581Y69809D01*
X373384D01*
X376775Y59979D01*
Y59957D01*
X376797Y59893D01*
X376839Y59786D01*
X376882Y59657D01*
X376904Y59485D01*
X376947Y59292D01*
X376990Y59078D01*
X377033Y58841D01*
X377076D01*
Y58863D01*
X377097Y58949D01*
X377118Y59056D01*
X377140Y59185D01*
X377183Y59356D01*
X377226Y59550D01*
X377355Y59979D01*
X380810Y69809D01*
X382549D01*
X377934Y57232D01*
D02*
G37*
G36*
X337777Y62361D02*
Y62340D01*
Y62297D01*
Y62232D01*
Y62125D01*
X337755Y62018D01*
Y61868D01*
X337712Y61524D01*
X337627Y61138D01*
X337519Y60687D01*
X337369Y60194D01*
X337176Y59700D01*
X336918Y59206D01*
X336596Y58734D01*
X336210Y58283D01*
X335738Y57875D01*
X335459Y57682D01*
X335180Y57532D01*
X334858Y57382D01*
X334536Y57274D01*
X334171Y57167D01*
X333785Y57103D01*
X333377Y57060D01*
X332926Y57038D01*
X332733D01*
X332497Y57081D01*
X332196Y57124D01*
X331853Y57189D01*
X331467Y57318D01*
X331037Y57468D01*
X330608Y57682D01*
X330179Y57961D01*
X329750Y58283D01*
X329363Y58713D01*
X329192Y58949D01*
X329020Y59206D01*
X328870Y59485D01*
X328719Y59786D01*
X328591Y60129D01*
X328483Y60472D01*
X328397Y60859D01*
X328333Y61267D01*
X328312Y61696D01*
X328290Y62168D01*
Y69809D01*
X329921D01*
Y62232D01*
Y62190D01*
Y62061D01*
X329943Y61889D01*
X329964Y61653D01*
X330029Y61353D01*
X330093Y61031D01*
X330179Y60687D01*
X330329Y60344D01*
X330479Y60000D01*
X330694Y59657D01*
X330952Y59335D01*
X331252Y59056D01*
X331617Y58798D01*
X332046Y58627D01*
X332540Y58498D01*
X332819Y58477D01*
X333098Y58455D01*
X333227D01*
X333377Y58477D01*
X333570Y58519D01*
X333806Y58562D01*
X334064Y58648D01*
X334343Y58755D01*
X334622Y58906D01*
X334901Y59099D01*
X335180Y59356D01*
X335437Y59657D01*
X335673Y60000D01*
X335867Y60430D01*
X336017Y60923D01*
X336103Y61481D01*
X336146Y61782D01*
Y62125D01*
Y69809D01*
X337777D01*
Y62361D01*
D02*
G37*
G36*
X395126Y58670D02*
X400148D01*
Y57232D01*
X393495D01*
Y69809D01*
X395126D01*
Y58670D01*
D02*
G37*
G36*
X390833Y68371D02*
X385961D01*
Y64336D01*
X390468D01*
Y62898D01*
X385961D01*
Y58670D01*
X391112D01*
Y57232D01*
X384330D01*
Y69809D01*
X390833D01*
Y68371D01*
D02*
G37*
G36*
X370401D02*
X365528D01*
Y64336D01*
X370036D01*
Y62898D01*
X365528D01*
Y58670D01*
X370680D01*
Y57232D01*
X363897D01*
Y69809D01*
X370401D01*
Y68371D01*
D02*
G37*
G36*
X356986Y58670D02*
X362009D01*
Y57232D01*
X355355D01*
Y69809D01*
X356986D01*
Y58670D01*
D02*
G37*
G36*
X348487Y68371D02*
X344860D01*
Y57232D01*
X343207D01*
Y68371D01*
X339601D01*
Y69809D01*
X348487D01*
Y68371D01*
D02*
G37*
G36*
X322173Y69788D02*
X322345D01*
X322538Y69766D01*
X322753Y69723D01*
X322989Y69680D01*
X323504Y69573D01*
X324019Y69401D01*
X324534Y69144D01*
X324770Y68993D01*
X324985Y68822D01*
X325006D01*
X325028Y68779D01*
X325092Y68714D01*
X325157Y68650D01*
X325242Y68543D01*
X325350Y68414D01*
X325457Y68285D01*
X325564Y68113D01*
X325650Y67920D01*
X325757Y67706D01*
X325951Y67233D01*
X326079Y66654D01*
X326101Y66353D01*
X326122Y66010D01*
Y65988D01*
Y65924D01*
Y65838D01*
X326101Y65710D01*
X326079Y65538D01*
X326058Y65366D01*
X325951Y64937D01*
X325801Y64465D01*
X325693Y64207D01*
X325564Y63971D01*
X325414Y63713D01*
X325221Y63477D01*
X325028Y63241D01*
X324792Y63005D01*
X324770Y62984D01*
X324727Y62962D01*
X324663Y62898D01*
X324556Y62833D01*
X324427Y62748D01*
X324277Y62640D01*
X324105Y62554D01*
X323890Y62447D01*
X323654Y62340D01*
X323418Y62254D01*
X322860Y62082D01*
X322216Y61954D01*
X321873Y61932D01*
X319877D01*
Y57232D01*
X318246D01*
Y69809D01*
X322023D01*
X322173Y69788D01*
D02*
G37*
G36*
X301440Y57232D02*
X299809D01*
Y69809D01*
X301440D01*
Y57232D01*
D02*
G37*
G36*
X577012Y25224D02*
X577304Y25204D01*
X577617Y25165D01*
X577948Y25107D01*
X578260Y25029D01*
X578553Y24931D01*
Y22902D01*
X578514Y22922D01*
X578416Y22980D01*
X578241Y23058D01*
X578007Y23156D01*
X577733Y23234D01*
X577421Y23312D01*
X577090Y23370D01*
X576719Y23390D01*
X576602D01*
X576524Y23370D01*
X576290Y23351D01*
X576017Y23273D01*
X575705Y23156D01*
X575373Y23000D01*
X575061Y22766D01*
X574905Y22610D01*
X574749Y22454D01*
Y22434D01*
X574710Y22415D01*
X574690Y22356D01*
X574632Y22278D01*
X574573Y22181D01*
X574515Y22083D01*
X574378Y21790D01*
X574242Y21439D01*
X574105Y21010D01*
X574008Y20522D01*
X573969Y19957D01*
X574027D01*
Y19976D01*
X574066Y20015D01*
X574105Y20074D01*
X574183Y20132D01*
X574359Y20327D01*
X574612Y20542D01*
X574925Y20757D01*
X575334Y20952D01*
X575549Y21010D01*
X575802Y21069D01*
X576056Y21108D01*
X576329Y21127D01*
X576465D01*
X576563Y21108D01*
X576680D01*
X576817Y21088D01*
X577129Y21010D01*
X577480Y20893D01*
X577831Y20737D01*
X578182Y20503D01*
X578358Y20347D01*
X578514Y20191D01*
X578533Y20171D01*
X578553Y20152D01*
X578592Y20093D01*
X578650Y20015D01*
X578709Y19918D01*
X578767Y19820D01*
X578923Y19528D01*
X579080Y19176D01*
X579197Y18747D01*
X579294Y18260D01*
X579333Y17714D01*
Y17694D01*
Y17635D01*
Y17557D01*
X579314Y17440D01*
X579294Y17304D01*
X579275Y17128D01*
X579197Y16758D01*
X579080Y16309D01*
X578884Y15860D01*
X578767Y15626D01*
X578611Y15392D01*
X578455Y15178D01*
X578260Y14963D01*
X578241Y14943D01*
X578221Y14924D01*
X578143Y14865D01*
X578065Y14787D01*
X577968Y14709D01*
X577831Y14631D01*
X577695Y14534D01*
X577519Y14436D01*
X577129Y14222D01*
X576661Y14066D01*
X576114Y13929D01*
X575841Y13909D01*
X575529Y13890D01*
X575354D01*
X575217Y13909D01*
X575061Y13929D01*
X574885Y13968D01*
X574690Y14007D01*
X574476Y14066D01*
X574008Y14222D01*
X573774Y14319D01*
X573520Y14456D01*
X573286Y14612D01*
X573052Y14787D01*
X572837Y14982D01*
X572623Y15216D01*
X572603Y15236D01*
X572584Y15275D01*
X572525Y15353D01*
X572467Y15470D01*
X572388Y15607D01*
X572291Y15763D01*
X572193Y15958D01*
X572115Y16192D01*
X572018Y16426D01*
X571920Y16719D01*
X571823Y17031D01*
X571745Y17362D01*
X571686Y17714D01*
X571628Y18104D01*
X571608Y18513D01*
X571589Y18962D01*
Y19001D01*
Y19099D01*
Y19235D01*
X571608Y19430D01*
X571628Y19684D01*
X571667Y19957D01*
X571706Y20269D01*
X571764Y20601D01*
X571823Y20971D01*
X571920Y21342D01*
X572018Y21712D01*
X572155Y22103D01*
X572310Y22473D01*
X572486Y22844D01*
X572681Y23195D01*
X572915Y23527D01*
X572935Y23546D01*
X572974Y23605D01*
X573052Y23683D01*
X573169Y23800D01*
X573305Y23917D01*
X573461Y24073D01*
X573657Y24229D01*
X573871Y24385D01*
X574125Y24541D01*
X574398Y24697D01*
X574690Y24853D01*
X575022Y24970D01*
X575373Y25087D01*
X575744Y25165D01*
X576134Y25224D01*
X576563Y25243D01*
X576778D01*
X577012Y25224D01*
D02*
G37*
G36*
X606585Y22083D02*
X606702Y22064D01*
X606858Y22044D01*
X607189Y21966D01*
X607579Y21849D01*
X607970Y21654D01*
X608145Y21537D01*
X608340Y21400D01*
X608516Y21244D01*
X608672Y21049D01*
X608691Y21030D01*
X608711Y21010D01*
X608750Y20952D01*
X608809Y20854D01*
X608867Y20757D01*
X608945Y20620D01*
X609023Y20484D01*
X609101Y20308D01*
X609179Y20113D01*
X609238Y19898D01*
X609316Y19664D01*
X609374Y19411D01*
X609433Y19138D01*
X609472Y18845D01*
X609511Y18533D01*
Y18201D01*
Y18182D01*
Y18123D01*
Y18006D01*
X609491Y17869D01*
Y17714D01*
X609452Y17518D01*
X609433Y17304D01*
X609394Y17070D01*
X609277Y16582D01*
X609101Y16055D01*
X608984Y15802D01*
X608867Y15529D01*
X608711Y15295D01*
X608535Y15060D01*
X608516Y15041D01*
X608496Y15002D01*
X608438Y14943D01*
X608360Y14885D01*
X608262Y14787D01*
X608145Y14690D01*
X608009Y14592D01*
X607853Y14475D01*
X607482Y14261D01*
X607053Y14066D01*
X606799Y14007D01*
X606546Y13949D01*
X606253Y13910D01*
X605960Y13890D01*
X605824D01*
X605726Y13910D01*
X605609Y13929D01*
X605473Y13949D01*
X605161Y14027D01*
X604829Y14144D01*
X604458Y14339D01*
X604283Y14475D01*
X604127Y14612D01*
X603971Y14768D01*
X603815Y14963D01*
X603776D01*
Y10457D01*
X601357D01*
Y21907D01*
X603776D01*
Y20718D01*
X603815D01*
X603834Y20737D01*
X603854Y20776D01*
X603912Y20854D01*
X603990Y20932D01*
X604068Y21030D01*
X604185Y21147D01*
X604458Y21420D01*
X604829Y21673D01*
X605258Y21888D01*
X605492Y21966D01*
X605765Y22044D01*
X606039Y22083D01*
X606331Y22103D01*
X606487D01*
X606585Y22083D01*
D02*
G37*
G36*
X642615D02*
X642790Y22064D01*
X642966Y22005D01*
X643180Y21927D01*
X643414Y21830D01*
X643668Y21713D01*
X643902Y21537D01*
X644136Y21322D01*
X644351Y21069D01*
X644546Y20776D01*
X644702Y20405D01*
X644819Y19996D01*
X644916Y19508D01*
X644936Y18942D01*
Y14066D01*
X642517D01*
Y18533D01*
Y18552D01*
Y18611D01*
Y18689D01*
X642497Y18806D01*
X642478Y18923D01*
X642458Y19079D01*
X642361Y19391D01*
X642205Y19703D01*
X642107Y19859D01*
X641990Y19976D01*
X641854Y20093D01*
X641678Y20171D01*
X641483Y20230D01*
X641268Y20249D01*
X641171D01*
X641054Y20230D01*
X640917Y20191D01*
X640761Y20113D01*
X640586Y20035D01*
X640430Y19898D01*
X640274Y19723D01*
X640254Y19703D01*
X640215Y19625D01*
X640157Y19528D01*
X640098Y19372D01*
X640020Y19196D01*
X639962Y18981D01*
X639922Y18728D01*
X639903Y18455D01*
Y14066D01*
X637484D01*
Y18572D01*
Y18591D01*
Y18650D01*
Y18728D01*
X637465Y18825D01*
X637445Y18962D01*
X637425Y19099D01*
X637328Y19411D01*
X637192Y19723D01*
X637094Y19859D01*
X636957Y19996D01*
X636821Y20093D01*
X636665Y20171D01*
X636470Y20230D01*
X636255Y20249D01*
X636158D01*
X636040Y20230D01*
X635904Y20191D01*
X635748Y20132D01*
X635572Y20035D01*
X635416Y19918D01*
X635260Y19742D01*
X635241Y19723D01*
X635202Y19645D01*
X635143Y19547D01*
X635085Y19391D01*
X635007Y19196D01*
X634948Y18981D01*
X634909Y18708D01*
X634890Y18416D01*
Y14066D01*
X632471D01*
Y21907D01*
X634890D01*
Y20679D01*
X634929D01*
X634948Y20698D01*
X635007Y20776D01*
X635085Y20893D01*
X635202Y21049D01*
X635338Y21205D01*
X635514Y21361D01*
X635728Y21537D01*
X635962Y21693D01*
X636002Y21713D01*
X636080Y21751D01*
X636216Y21830D01*
X636411Y21907D01*
X636626Y21966D01*
X636879Y22044D01*
X637172Y22083D01*
X637465Y22103D01*
X637621D01*
X637738Y22083D01*
X637874Y22064D01*
X638030Y22025D01*
X638362Y21927D01*
X638557Y21849D01*
X638752Y21751D01*
X638928Y21634D01*
X639123Y21478D01*
X639298Y21322D01*
X639454Y21127D01*
X639610Y20893D01*
X639727Y20640D01*
X639747Y20659D01*
X639766Y20698D01*
X639825Y20776D01*
X639903Y20874D01*
X639981Y20971D01*
X640098Y21108D01*
X640235Y21244D01*
X640391Y21381D01*
X640566Y21517D01*
X640761Y21634D01*
X640995Y21771D01*
X641229Y21869D01*
X641483Y21966D01*
X641756Y22044D01*
X642068Y22083D01*
X642380Y22103D01*
X642497D01*
X642615Y22083D01*
D02*
G37*
G36*
X597124D02*
X597299Y22064D01*
X597475Y22005D01*
X597689Y21927D01*
X597924Y21830D01*
X598177Y21713D01*
X598411Y21537D01*
X598645Y21322D01*
X598860Y21069D01*
X599055Y20776D01*
X599211Y20405D01*
X599328Y19996D01*
X599426Y19508D01*
X599445Y18942D01*
Y14066D01*
X597026D01*
Y18533D01*
Y18552D01*
Y18611D01*
Y18689D01*
X597007Y18806D01*
X596987Y18923D01*
X596968Y19079D01*
X596870Y19391D01*
X596714Y19703D01*
X596617Y19859D01*
X596499Y19976D01*
X596363Y20093D01*
X596187Y20171D01*
X595992Y20230D01*
X595778Y20249D01*
X595680D01*
X595563Y20230D01*
X595426Y20191D01*
X595271Y20113D01*
X595095Y20035D01*
X594939Y19898D01*
X594783Y19723D01*
X594763Y19703D01*
X594724Y19625D01*
X594666Y19528D01*
X594607Y19372D01*
X594529Y19196D01*
X594471Y18981D01*
X594432Y18728D01*
X594412Y18455D01*
Y14066D01*
X591993D01*
Y18572D01*
Y18591D01*
Y18650D01*
Y18728D01*
X591974Y18825D01*
X591954Y18962D01*
X591935Y19099D01*
X591837Y19411D01*
X591701Y19723D01*
X591603Y19859D01*
X591467Y19996D01*
X591330Y20093D01*
X591174Y20171D01*
X590979Y20230D01*
X590764Y20249D01*
X590667D01*
X590550Y20230D01*
X590413Y20191D01*
X590257Y20132D01*
X590082Y20035D01*
X589925Y19918D01*
X589770Y19742D01*
X589750Y19723D01*
X589711Y19645D01*
X589652Y19547D01*
X589594Y19391D01*
X589516Y19196D01*
X589457Y18981D01*
X589418Y18708D01*
X589399Y18416D01*
Y14066D01*
X586980D01*
Y21907D01*
X589399D01*
Y20679D01*
X589438D01*
X589457Y20698D01*
X589516Y20776D01*
X589594Y20893D01*
X589711Y21049D01*
X589847Y21205D01*
X590023Y21361D01*
X590238Y21537D01*
X590472Y21693D01*
X590511Y21713D01*
X590589Y21751D01*
X590725Y21830D01*
X590920Y21907D01*
X591135Y21966D01*
X591389Y22044D01*
X591681Y22083D01*
X591974Y22103D01*
X592130D01*
X592247Y22083D01*
X592383Y22064D01*
X592539Y22025D01*
X592871Y21927D01*
X593066Y21849D01*
X593261Y21751D01*
X593437Y21634D01*
X593632Y21478D01*
X593807Y21322D01*
X593964Y21127D01*
X594120Y20893D01*
X594237Y20640D01*
X594256Y20659D01*
X594276Y20698D01*
X594334Y20776D01*
X594412Y20874D01*
X594490Y20971D01*
X594607Y21108D01*
X594744Y21244D01*
X594900Y21381D01*
X595075Y21517D01*
X595271Y21634D01*
X595505Y21771D01*
X595739Y21869D01*
X595992Y21966D01*
X596265Y22044D01*
X596577Y22083D01*
X596890Y22103D01*
X597007D01*
X597124Y22083D01*
D02*
G37*
G36*
X568331Y22083D02*
X568507Y22064D01*
X568897Y22025D01*
X568916D01*
X568994Y22005D01*
X569092Y21985D01*
X569228Y21966D01*
X569404Y21927D01*
X569580Y21888D01*
X569970Y21790D01*
Y19918D01*
X569950Y19937D01*
X569892Y19957D01*
X569794Y20015D01*
X569677Y20074D01*
X569521Y20132D01*
X569345Y20191D01*
X568975Y20308D01*
X568955D01*
X568897Y20327D01*
X568780Y20347D01*
X568663Y20386D01*
X568507Y20405D01*
X568331Y20425D01*
X567960Y20445D01*
X567804D01*
X567648Y20425D01*
X567492Y20405D01*
X567453D01*
X567375Y20386D01*
X567258Y20347D01*
X567122Y20288D01*
X567102Y20269D01*
X567024Y20230D01*
X566946Y20171D01*
X566868Y20074D01*
X566848Y20054D01*
X566829Y19996D01*
X566810Y19918D01*
X566790Y19801D01*
Y19762D01*
X566810Y19684D01*
X566848Y19547D01*
X566926Y19430D01*
X566946Y19411D01*
X567024Y19332D01*
X567141Y19254D01*
X567278Y19157D01*
X567297D01*
X567317Y19138D01*
X567434Y19079D01*
X567590Y19020D01*
X567785Y18942D01*
X567804D01*
X567824Y18923D01*
X567960Y18903D01*
X568136Y18845D01*
X568331Y18786D01*
X568351D01*
X568409Y18747D01*
X568507Y18728D01*
X568624Y18669D01*
X568897Y18552D01*
X569189Y18416D01*
X569209D01*
X569248Y18377D01*
X569326Y18338D01*
X569423Y18279D01*
X569638Y18143D01*
X569853Y17947D01*
X569872Y17928D01*
X569892Y17909D01*
X569950Y17850D01*
X570009Y17772D01*
X570165Y17557D01*
X570282Y17304D01*
Y17284D01*
X570301Y17245D01*
X570340Y17167D01*
X570360Y17070D01*
X570399Y16953D01*
X570418Y16797D01*
X570438Y16465D01*
Y16426D01*
Y16348D01*
X570418Y16211D01*
X570399Y16055D01*
X570360Y15860D01*
X570301Y15665D01*
X570223Y15451D01*
X570126Y15256D01*
X570106Y15236D01*
X570067Y15178D01*
X570009Y15080D01*
X569911Y14982D01*
X569794Y14846D01*
X569658Y14709D01*
X569501Y14573D01*
X569326Y14456D01*
X569306Y14436D01*
X569248Y14397D01*
X569131Y14358D01*
X568994Y14280D01*
X568838Y14222D01*
X568643Y14144D01*
X568409Y14085D01*
X568175Y14027D01*
X568156D01*
X568058Y14007D01*
X567941Y13988D01*
X567765Y13968D01*
X567551Y13929D01*
X567336Y13909D01*
X567083Y13890D01*
X566595D01*
X566478Y13909D01*
X566341D01*
X566029Y13929D01*
X565659Y13988D01*
X565249Y14046D01*
X564839Y14144D01*
X564410Y14261D01*
Y16231D01*
X564430Y16211D01*
X564508Y16172D01*
X564625Y16114D01*
X564781Y16016D01*
X564976Y15938D01*
X565171Y15841D01*
X565600Y15685D01*
X565620D01*
X565698Y15665D01*
X565815Y15626D01*
X565971Y15607D01*
X566146Y15568D01*
X566341Y15529D01*
X566731Y15509D01*
X566829D01*
X566946Y15529D01*
X567102D01*
X567434Y15587D01*
X567590Y15626D01*
X567746Y15685D01*
X567765D01*
X567804Y15724D01*
X567941Y15821D01*
X568058Y15997D01*
X568097Y16094D01*
X568116Y16231D01*
Y16250D01*
Y16270D01*
X568097Y16367D01*
X568038Y16485D01*
X567941Y16602D01*
X567921Y16621D01*
X567824Y16699D01*
X567687Y16777D01*
X567512Y16875D01*
X567492D01*
X567473Y16894D01*
X567356Y16953D01*
X567161Y17011D01*
X566946Y17070D01*
X566926D01*
X566888Y17089D01*
X566829Y17109D01*
X566751Y17128D01*
X566556Y17206D01*
X566341Y17284D01*
X566322D01*
X566263Y17323D01*
X566166Y17343D01*
X566068Y17401D01*
X565795Y17518D01*
X565503Y17655D01*
X565483Y17674D01*
X565444Y17694D01*
X565386Y17733D01*
X565288Y17792D01*
X565093Y17947D01*
X564898Y18143D01*
Y18162D01*
X564859Y18201D01*
X564820Y18240D01*
X564761Y18318D01*
X564644Y18513D01*
X564527Y18767D01*
Y18786D01*
X564508Y18825D01*
X564488Y18903D01*
X564469Y19001D01*
X564449Y19118D01*
X564430Y19274D01*
X564410Y19606D01*
Y19625D01*
Y19723D01*
X564430Y19840D01*
X564449Y19996D01*
X564488Y20152D01*
X564527Y20347D01*
X564605Y20542D01*
X564703Y20718D01*
X564722Y20737D01*
X564761Y20796D01*
X564820Y20893D01*
X564917Y20991D01*
X565015Y21127D01*
X565151Y21244D01*
X565463Y21498D01*
X565483Y21517D01*
X565541Y21556D01*
X565659Y21595D01*
X565776Y21673D01*
X565951Y21751D01*
X566127Y21810D01*
X566341Y21888D01*
X566556Y21946D01*
X566575D01*
X566673Y21966D01*
X566790Y22005D01*
X566946Y22025D01*
X567141Y22064D01*
X567375Y22083D01*
X567863Y22103D01*
X568175D01*
X568331Y22083D01*
D02*
G37*
G36*
X619616Y22083D02*
X619752D01*
X620064Y22064D01*
X620376Y22005D01*
X620708Y21946D01*
X621020Y21849D01*
X621293Y21732D01*
Y19684D01*
X621254Y19703D01*
X621157Y19781D01*
X621001Y19859D01*
X620805Y19976D01*
X620552Y20074D01*
X620259Y20171D01*
X619947Y20230D01*
X619596Y20249D01*
X619420D01*
X619225Y20210D01*
X618991Y20171D01*
X618738Y20093D01*
X618445Y19996D01*
X618191Y19840D01*
X617938Y19625D01*
X617918Y19606D01*
X617840Y19508D01*
X617743Y19372D01*
X617645Y19196D01*
X617528Y18942D01*
X617431Y18669D01*
X617353Y18338D01*
X617333Y17948D01*
Y17928D01*
Y17909D01*
Y17850D01*
X617353Y17772D01*
X617372Y17596D01*
X617411Y17362D01*
X617470Y17089D01*
X617587Y16816D01*
X617723Y16563D01*
X617918Y16309D01*
X617938Y16289D01*
X618035Y16211D01*
X618152Y16133D01*
X618348Y16016D01*
X618562Y15919D01*
X618835Y15821D01*
X619167Y15743D01*
X619518Y15724D01*
X619674D01*
X619850Y15763D01*
X620084Y15802D01*
X620337Y15860D01*
X620649Y15958D01*
X620961Y16094D01*
X621293Y16289D01*
Y14339D01*
X621254Y14319D01*
X621137Y14261D01*
X620961Y14202D01*
X620688Y14124D01*
X620357Y14027D01*
X619947Y13968D01*
X619459Y13910D01*
X618913Y13890D01*
X618738D01*
X618621Y13910D01*
X618465Y13929D01*
X618289Y13949D01*
X618094Y13988D01*
X617879Y14027D01*
X617411Y14144D01*
X616923Y14339D01*
X616670Y14475D01*
X616436Y14612D01*
X616202Y14768D01*
X615987Y14963D01*
X615968Y14983D01*
X615948Y15022D01*
X615890Y15080D01*
X615812Y15158D01*
X615733Y15275D01*
X615636Y15392D01*
X615538Y15548D01*
X615441Y15724D01*
X615324Y15919D01*
X615226Y16133D01*
X615051Y16621D01*
X614973Y16894D01*
X614914Y17167D01*
X614895Y17479D01*
X614875Y17792D01*
Y17811D01*
Y17889D01*
Y17987D01*
X614895Y18123D01*
X614914Y18299D01*
X614934Y18494D01*
X614973Y18708D01*
X615031Y18942D01*
X615168Y19450D01*
X615265Y19703D01*
X615382Y19976D01*
X615519Y20230D01*
X615675Y20484D01*
X615851Y20718D01*
X616065Y20952D01*
X616085Y20971D01*
X616124Y21010D01*
X616182Y21049D01*
X616280Y21127D01*
X616416Y21225D01*
X616553Y21322D01*
X616728Y21420D01*
X616923Y21537D01*
X617138Y21634D01*
X617392Y21732D01*
X617645Y21830D01*
X617938Y21927D01*
X618250Y22005D01*
X618562Y22044D01*
X618913Y22083D01*
X619284Y22103D01*
X619518D01*
X619616Y22083D01*
D02*
G37*
G36*
X548239Y14066D02*
X545683D01*
X544532Y18650D01*
Y18669D01*
X544513Y18728D01*
X544493Y18825D01*
X544474Y18962D01*
X544454Y19099D01*
X544435Y19274D01*
X544396Y19664D01*
X544357D01*
Y19645D01*
X544337Y19567D01*
Y19450D01*
X544318Y19313D01*
X544259Y19001D01*
X544240Y18845D01*
X544201Y18689D01*
X542952Y14066D01*
X540436D01*
X538231Y21907D01*
X540689D01*
X541782Y16777D01*
Y16758D01*
X541801Y16719D01*
Y16641D01*
X541821Y16543D01*
X541840Y16407D01*
X541860Y16270D01*
X541899Y15919D01*
X541938D01*
Y15938D01*
Y16016D01*
X541957Y16114D01*
X541977Y16231D01*
X542016Y16523D01*
X542074Y16816D01*
X543420Y21907D01*
X545742D01*
X546951Y16777D01*
Y16738D01*
X546971Y16680D01*
Y16602D01*
X546990Y16485D01*
X547010Y16328D01*
X547029Y16133D01*
X547049Y15899D01*
X547107D01*
Y15919D01*
Y15977D01*
X547127Y16055D01*
X547146Y16172D01*
Y16309D01*
X547166Y16465D01*
X547224Y16777D01*
X548258Y21907D01*
X550502D01*
X548239Y14066D01*
D02*
G37*
G36*
X535715D02*
X533160D01*
X532009Y18650D01*
Y18669D01*
X531989Y18728D01*
X531970Y18825D01*
X531950Y18962D01*
X531931Y19099D01*
X531911Y19274D01*
X531872Y19664D01*
X531833D01*
Y19645D01*
X531814Y19567D01*
Y19450D01*
X531794Y19313D01*
X531735Y19001D01*
X531716Y18845D01*
X531677Y18689D01*
X530429Y14066D01*
X527912D01*
X525708Y21907D01*
X528166D01*
X529258Y16777D01*
Y16758D01*
X529278Y16719D01*
Y16641D01*
X529297Y16543D01*
X529317Y16407D01*
X529336Y16270D01*
X529375Y15919D01*
X529414D01*
Y15938D01*
Y16016D01*
X529434Y16114D01*
X529453Y16231D01*
X529492Y16523D01*
X529551Y16816D01*
X530897Y21907D01*
X533218D01*
X534427Y16777D01*
Y16738D01*
X534447Y16680D01*
Y16602D01*
X534467Y16485D01*
X534486Y16328D01*
X534506Y16133D01*
X534525Y15899D01*
X534584D01*
Y15919D01*
Y15977D01*
X534603Y16055D01*
X534623Y16172D01*
Y16309D01*
X534642Y16465D01*
X534701Y16777D01*
X535734Y21907D01*
X537978D01*
X535715Y14066D01*
D02*
G37*
G36*
X523191D02*
X520636D01*
X519485Y18650D01*
Y18669D01*
X519465Y18728D01*
X519446Y18825D01*
X519426Y18962D01*
X519407Y19099D01*
X519388Y19274D01*
X519348Y19664D01*
X519310D01*
Y19645D01*
X519290Y19567D01*
Y19450D01*
X519270Y19313D01*
X519212Y19001D01*
X519192Y18845D01*
X519153Y18689D01*
X517905Y14066D01*
X515388D01*
X513184Y21907D01*
X515642D01*
X516735Y16777D01*
Y16758D01*
X516754Y16719D01*
Y16641D01*
X516773Y16543D01*
X516793Y16407D01*
X516813Y16270D01*
X516852Y15919D01*
X516891D01*
Y15938D01*
Y16016D01*
X516910Y16114D01*
X516930Y16231D01*
X516969Y16523D01*
X517027Y16816D01*
X518373Y21907D01*
X520695D01*
X521904Y16777D01*
Y16738D01*
X521923Y16680D01*
Y16602D01*
X521943Y16485D01*
X521962Y16328D01*
X521982Y16133D01*
X522001Y15899D01*
X522060D01*
Y15919D01*
Y15977D01*
X522080Y16055D01*
X522099Y16172D01*
Y16309D01*
X522118Y16465D01*
X522177Y16777D01*
X523211Y21907D01*
X525454D01*
X523191Y14066D01*
D02*
G37*
G36*
X562186Y18123D02*
X563493D01*
Y16387D01*
X562186D01*
Y14066D01*
X559982D01*
Y16387D01*
X555183D01*
Y17928D01*
X559787Y25048D01*
X562186D01*
Y18123D01*
D02*
G37*
G36*
X627048Y22083D02*
X627204Y22064D01*
X627399Y22044D01*
X627594Y22005D01*
X627828Y21966D01*
X628316Y21830D01*
X628569Y21751D01*
X628823Y21634D01*
X629076Y21498D01*
X629330Y21361D01*
X629564Y21186D01*
X629779Y20991D01*
X629798Y20971D01*
X629818Y20932D01*
X629876Y20874D01*
X629954Y20796D01*
X630032Y20679D01*
X630130Y20542D01*
X630227Y20386D01*
X630344Y20210D01*
X630442Y20015D01*
X630540Y19801D01*
X630637Y19567D01*
X630715Y19313D01*
X630793Y19021D01*
X630852Y18728D01*
X630871Y18416D01*
X630891Y18084D01*
Y18065D01*
Y18006D01*
Y17889D01*
X630871Y17772D01*
X630852Y17596D01*
X630832Y17401D01*
X630793Y17206D01*
X630754Y16972D01*
X630617Y16485D01*
X630520Y16211D01*
X630403Y15958D01*
X630266Y15704D01*
X630130Y15451D01*
X629935Y15217D01*
X629740Y15002D01*
X629720Y14983D01*
X629681Y14963D01*
X629623Y14904D01*
X629525Y14826D01*
X629408Y14748D01*
X629272Y14651D01*
X629115Y14553D01*
X628920Y14456D01*
X628706Y14339D01*
X628472Y14241D01*
X628218Y14144D01*
X627945Y14066D01*
X627652Y13988D01*
X627321Y13929D01*
X626989Y13910D01*
X626619Y13890D01*
X626423D01*
X626287Y13910D01*
X626131Y13929D01*
X625936Y13949D01*
X625721Y13988D01*
X625487Y14027D01*
X625000Y14144D01*
X624473Y14339D01*
X624219Y14475D01*
X623985Y14612D01*
X623731Y14768D01*
X623517Y14963D01*
X623497Y14983D01*
X623478Y15022D01*
X623419Y15080D01*
X623341Y15158D01*
X623263Y15275D01*
X623166Y15412D01*
X623068Y15568D01*
X622971Y15743D01*
X622854Y15958D01*
X622756Y16172D01*
X622659Y16426D01*
X622581Y16680D01*
X622503Y16972D01*
X622444Y17284D01*
X622425Y17596D01*
X622405Y17948D01*
Y17967D01*
Y18026D01*
Y18143D01*
X622425Y18279D01*
X622444Y18435D01*
X622463Y18630D01*
X622503Y18825D01*
X622542Y19059D01*
X622678Y19547D01*
X622776Y19801D01*
X622893Y20054D01*
X623029Y20308D01*
X623185Y20542D01*
X623361Y20776D01*
X623556Y20991D01*
X623575Y21010D01*
X623614Y21030D01*
X623673Y21088D01*
X623770Y21166D01*
X623888Y21244D01*
X624024Y21342D01*
X624200Y21439D01*
X624395Y21556D01*
X624609Y21654D01*
X624843Y21751D01*
X625097Y21849D01*
X625390Y21927D01*
X625682Y22005D01*
X626014Y22064D01*
X626345Y22083D01*
X626716Y22103D01*
X626911D01*
X627048Y22083D01*
D02*
G37*
G36*
X612417Y16367D02*
X612573Y16348D01*
X612729Y16309D01*
X612886Y16231D01*
X613061Y16153D01*
X613217Y16036D01*
X613237Y16016D01*
X613276Y15977D01*
X613334Y15899D01*
X613412Y15802D01*
X613490Y15665D01*
X613549Y15509D01*
X613588Y15334D01*
X613607Y15138D01*
Y15119D01*
Y15041D01*
X613588Y14943D01*
X613549Y14807D01*
X613510Y14670D01*
X613432Y14514D01*
X613334Y14358D01*
X613198Y14222D01*
X613178Y14202D01*
X613120Y14163D01*
X613041Y14124D01*
X612924Y14066D01*
X612768Y13988D01*
X612593Y13949D01*
X612398Y13910D01*
X612164Y13890D01*
X612066D01*
X611949Y13910D01*
X611813Y13929D01*
X611656Y13968D01*
X611501Y14046D01*
X611325Y14124D01*
X611169Y14241D01*
X611149Y14261D01*
X611110Y14300D01*
X611052Y14378D01*
X610974Y14495D01*
X610896Y14612D01*
X610837Y14768D01*
X610798Y14943D01*
X610779Y15138D01*
Y15158D01*
Y15236D01*
X610798Y15334D01*
X610837Y15451D01*
X610876Y15607D01*
X610954Y15743D01*
X611052Y15899D01*
X611188Y16036D01*
X611208Y16055D01*
X611266Y16094D01*
X611344Y16153D01*
X611461Y16211D01*
X611618Y16270D01*
X611793Y16329D01*
X611988Y16367D01*
X612203Y16387D01*
X612300D01*
X612417Y16367D01*
D02*
G37*
G36*
X583859Y21907D02*
X585614D01*
Y20113D01*
X583859D01*
Y16953D01*
Y16933D01*
Y16894D01*
Y16836D01*
X583878Y16758D01*
X583917Y16562D01*
X583976Y16348D01*
X584093Y16114D01*
X584268Y15919D01*
X584385Y15841D01*
X584522Y15782D01*
X584659Y15743D01*
X584834Y15724D01*
X584893D01*
X584971Y15743D01*
X585068D01*
X585322Y15821D01*
X585458Y15860D01*
X585614Y15938D01*
Y14144D01*
X585595Y14124D01*
X585517Y14105D01*
X585400Y14066D01*
X585224Y14027D01*
X584990Y13968D01*
X584717Y13929D01*
X584385Y13909D01*
X583995Y13890D01*
X583878D01*
X583761Y13909D01*
X583605Y13929D01*
X583410Y13968D01*
X583195Y14027D01*
X582961Y14105D01*
X582727Y14222D01*
X582474Y14358D01*
X582240Y14534D01*
X582025Y14748D01*
X581850Y15002D01*
X581674Y15295D01*
X581557Y15646D01*
X581479Y16055D01*
X581440Y16523D01*
Y20113D01*
X580172D01*
Y21907D01*
X581440D01*
Y23605D01*
X583859Y24287D01*
Y21907D01*
D02*
G37*
G36*
X552979Y16367D02*
X553135Y16348D01*
X553291Y16309D01*
X553447Y16231D01*
X553623Y16153D01*
X553779Y16036D01*
X553798Y16016D01*
X553837Y15977D01*
X553896Y15899D01*
X553974Y15802D01*
X554052Y15665D01*
X554110Y15509D01*
X554149Y15334D01*
X554169Y15138D01*
Y15119D01*
Y15041D01*
X554149Y14943D01*
X554110Y14807D01*
X554071Y14670D01*
X553993Y14514D01*
X553896Y14358D01*
X553759Y14222D01*
X553740Y14202D01*
X553681Y14163D01*
X553603Y14124D01*
X553486Y14066D01*
X553330Y13988D01*
X553154Y13949D01*
X552959Y13909D01*
X552725Y13890D01*
X552628D01*
X552511Y13909D01*
X552374Y13929D01*
X552218Y13968D01*
X552062Y14046D01*
X551886Y14124D01*
X551730Y14241D01*
X551711Y14261D01*
X551672Y14300D01*
X551613Y14378D01*
X551535Y14495D01*
X551457Y14612D01*
X551399Y14768D01*
X551360Y14943D01*
X551340Y15138D01*
Y15158D01*
Y15236D01*
X551360Y15334D01*
X551399Y15451D01*
X551438Y15607D01*
X551516Y15743D01*
X551613Y15899D01*
X551750Y16036D01*
X551769Y16055D01*
X551828Y16094D01*
X551906Y16153D01*
X552023Y16211D01*
X552179Y16270D01*
X552355Y16328D01*
X552550Y16367D01*
X552764Y16387D01*
X552862D01*
X552979Y16367D01*
D02*
G37*
G36*
X124150Y69637D02*
X124257Y69616D01*
X124493Y69530D01*
X124622Y69465D01*
X124729Y69358D01*
X124751Y69337D01*
X124772Y69315D01*
X124815Y69251D01*
X124880Y69165D01*
X124987Y68950D01*
X125008Y68800D01*
X125030Y68650D01*
Y68629D01*
Y68586D01*
X125008Y68500D01*
X124987Y68414D01*
X124901Y68199D01*
X124837Y68070D01*
X124729Y67963D01*
X124708Y67942D01*
X124686Y67920D01*
X124622Y67877D01*
X124536Y67834D01*
X124300Y67727D01*
X124150Y67706D01*
X124000Y67684D01*
X123935D01*
X123849Y67706D01*
X123742Y67727D01*
X123527Y67813D01*
X123399Y67877D01*
X123291Y67963D01*
X123270Y67985D01*
X123248Y68006D01*
X123205Y68070D01*
X123162Y68156D01*
X123055Y68371D01*
X123034Y68500D01*
X123012Y68650D01*
Y68671D01*
Y68714D01*
X123034Y68800D01*
X123055Y68907D01*
X123141Y69122D01*
X123205Y69251D01*
X123291Y69358D01*
X123313Y69380D01*
X123356Y69401D01*
X123399Y69444D01*
X123484Y69508D01*
X123721Y69616D01*
X123849Y69637D01*
X124000Y69659D01*
X124064D01*
X124150Y69637D01*
D02*
G37*
G36*
X120372Y56502D02*
X118763D01*
Y57983D01*
X118741D01*
X118720Y57961D01*
X118698Y57918D01*
X118634Y57833D01*
X118548Y57725D01*
X118441Y57597D01*
X118312Y57446D01*
X118162Y57296D01*
X117990Y57146D01*
X117775Y56996D01*
X117561Y56845D01*
X117303Y56695D01*
X117024Y56566D01*
X116724Y56459D01*
X116402Y56373D01*
X116058Y56330D01*
X115672Y56309D01*
X115500D01*
X115393Y56330D01*
X115243Y56352D01*
X115092Y56373D01*
X114706Y56459D01*
X114277Y56609D01*
X113826Y56824D01*
X113590Y56953D01*
X113375Y57124D01*
X113161Y57296D01*
X112968Y57511D01*
Y57532D01*
X112925Y57575D01*
X112882Y57639D01*
X112817Y57725D01*
X112732Y57854D01*
X112646Y58004D01*
X112560Y58176D01*
X112474Y58369D01*
X112367Y58584D01*
X112281Y58841D01*
X112195Y59099D01*
X112109Y59399D01*
X112045Y59700D01*
X112002Y60043D01*
X111980Y60408D01*
X111959Y60773D01*
Y60795D01*
Y60880D01*
Y60988D01*
X111980Y61138D01*
X112002Y61331D01*
X112023Y61546D01*
X112045Y61803D01*
X112109Y62061D01*
X112238Y62619D01*
X112431Y63220D01*
X112560Y63520D01*
X112732Y63799D01*
X112903Y64078D01*
X113096Y64336D01*
X113118Y64357D01*
X113139Y64400D01*
X113204Y64465D01*
X113311Y64550D01*
X113418Y64658D01*
X113547Y64765D01*
X113719Y64894D01*
X113890Y65023D01*
X114105Y65130D01*
X114320Y65259D01*
X114835Y65473D01*
X115114Y65559D01*
X115414Y65624D01*
X115736Y65667D01*
X116080Y65688D01*
X116251D01*
X116380Y65667D01*
X116531Y65645D01*
X116702Y65624D01*
X117088Y65516D01*
X117539Y65345D01*
X117754Y65237D01*
X117969Y65087D01*
X118183Y64937D01*
X118398Y64744D01*
X118569Y64529D01*
X118741Y64271D01*
X118763D01*
Y69809D01*
X120372D01*
Y56502D01*
D02*
G37*
G36*
X124794D02*
X123184D01*
Y65495D01*
X124794D01*
Y56502D01*
D02*
G37*
G36*
X106958Y65667D02*
X107173Y65645D01*
X107409Y65581D01*
X107688Y65516D01*
X107988Y65409D01*
X108289Y65259D01*
X108589Y65087D01*
X108890Y64851D01*
X109169Y64572D01*
X109405Y64250D01*
X109619Y63864D01*
X109791Y63413D01*
X109877Y62876D01*
X109920Y62275D01*
Y56502D01*
X108332D01*
Y57875D01*
X108289D01*
Y57854D01*
X108246Y57811D01*
X108203Y57725D01*
X108117Y57639D01*
X108010Y57511D01*
X107902Y57382D01*
X107602Y57103D01*
X107215Y56802D01*
X106743Y56545D01*
X106464Y56459D01*
X106185Y56373D01*
X105863Y56330D01*
X105541Y56309D01*
X105413D01*
X105327Y56330D01*
X105091Y56352D01*
X104790Y56395D01*
X104468Y56480D01*
X104103Y56609D01*
X103781Y56759D01*
X103460Y56996D01*
X103417Y57038D01*
X103331Y57124D01*
X103223Y57274D01*
X103073Y57511D01*
X102923Y57768D01*
X102816Y58112D01*
X102730Y58477D01*
X102687Y58906D01*
Y58927D01*
Y59013D01*
X102708Y59142D01*
X102730Y59314D01*
X102773Y59507D01*
X102837Y59721D01*
X102944Y59957D01*
X103052Y60215D01*
X103223Y60472D01*
X103417Y60730D01*
X103653Y60966D01*
X103953Y61202D01*
X104297Y61395D01*
X104683Y61589D01*
X105155Y61717D01*
X105670Y61825D01*
X108332Y62211D01*
Y62232D01*
Y62297D01*
X108310Y62426D01*
Y62554D01*
X108267Y62726D01*
X108246Y62919D01*
X108096Y63327D01*
X108010Y63520D01*
X107881Y63713D01*
X107731Y63907D01*
X107559Y64078D01*
X107344Y64229D01*
X107108Y64336D01*
X106829Y64400D01*
X106507Y64422D01*
X106357D01*
X106228Y64400D01*
X106100Y64379D01*
X105928Y64357D01*
X105541Y64293D01*
X105091Y64164D01*
X104597Y63971D01*
X104340Y63842D01*
X104082Y63692D01*
X103824Y63520D01*
X103567Y63327D01*
Y64851D01*
X103588D01*
X103631Y64894D01*
X103696Y64937D01*
X103803Y64980D01*
X103932Y65044D01*
X104082Y65108D01*
X104254Y65194D01*
X104447Y65280D01*
X104897Y65430D01*
X105434Y65559D01*
X106014Y65645D01*
X106657Y65688D01*
X106808D01*
X106958Y65667D01*
D02*
G37*
G36*
X96806Y69058D02*
X96956D01*
X97149Y69036D01*
X97557Y68972D01*
X98029Y68865D01*
X98502Y68714D01*
X98952Y68500D01*
X99382Y68199D01*
X99403D01*
X99424Y68156D01*
X99553Y68028D01*
X99725Y67834D01*
X99918Y67555D01*
X100111Y67212D01*
X100261Y66783D01*
X100390Y66289D01*
X100412Y66031D01*
X100433Y65731D01*
Y65710D01*
Y65624D01*
X100412Y65495D01*
X100390Y65302D01*
X100347Y65108D01*
X100283Y64851D01*
X100197Y64593D01*
X100090Y64314D01*
X99940Y64035D01*
X99746Y63756D01*
X99510Y63456D01*
X99253Y63177D01*
X98931Y62919D01*
X98545Y62683D01*
X98115Y62490D01*
X97622Y62318D01*
Y62275D01*
X97643D01*
X97707Y62232D01*
X97815Y62190D01*
X97943Y62125D01*
X98223Y61932D01*
X98523Y61653D01*
X98545Y61631D01*
X98587Y61567D01*
X98673Y61481D01*
X98802Y61331D01*
X98931Y61138D01*
X99102Y60902D01*
X99296Y60601D01*
X99510Y60258D01*
X101871Y56502D01*
X99940D01*
X97858Y59979D01*
Y60000D01*
X97836Y60022D01*
X97750Y60151D01*
X97643Y60322D01*
X97471Y60558D01*
X97300Y60795D01*
X97107Y61031D01*
X96913Y61245D01*
X96699Y61417D01*
X96677Y61438D01*
X96613Y61481D01*
X96505Y61546D01*
X96355Y61610D01*
X96184Y61674D01*
X95969Y61739D01*
X95733Y61782D01*
X95475Y61803D01*
X94295D01*
Y56502D01*
X92664D01*
Y69079D01*
X96677D01*
X96806Y69058D01*
D02*
G37*
G36*
X75214Y67641D02*
X71587D01*
Y56502D01*
X69934D01*
Y67641D01*
X66329D01*
Y69079D01*
X75214D01*
Y67641D01*
D02*
G37*
G36*
X132005Y65667D02*
X132156Y65645D01*
X132370Y65624D01*
X132585Y65581D01*
X132821Y65538D01*
X133315Y65388D01*
X133594Y65280D01*
X133851Y65173D01*
X134109Y65023D01*
X134366Y64851D01*
X134602Y64658D01*
X134838Y64443D01*
X134860Y64422D01*
X134881Y64379D01*
X134946Y64314D01*
X135010Y64229D01*
X135117Y64100D01*
X135203Y63949D01*
X135311Y63756D01*
X135418Y63563D01*
X135525Y63327D01*
X135632Y63070D01*
X135740Y62790D01*
X135826Y62490D01*
X135890Y62168D01*
X135955Y61803D01*
X135976Y61438D01*
X135997Y61031D01*
Y61009D01*
Y60945D01*
Y60816D01*
X135976Y60687D01*
X135955Y60494D01*
X135933Y60279D01*
X135890Y60065D01*
X135847Y59807D01*
X135697Y59249D01*
X135590Y58970D01*
X135482Y58691D01*
X135332Y58391D01*
X135160Y58112D01*
X134967Y57854D01*
X134753Y57597D01*
X134731Y57575D01*
X134688Y57532D01*
X134624Y57468D01*
X134538Y57403D01*
X134409Y57296D01*
X134259Y57189D01*
X134087Y57081D01*
X133894Y56953D01*
X133658Y56824D01*
X133422Y56716D01*
X133143Y56609D01*
X132842Y56502D01*
X132542Y56438D01*
X132198Y56373D01*
X131855Y56330D01*
X131469Y56309D01*
X131276D01*
X131125Y56330D01*
X130975Y56352D01*
X130760Y56373D01*
X130546Y56416D01*
X130310Y56459D01*
X129795Y56609D01*
X129537Y56716D01*
X129258Y56845D01*
X129001Y56974D01*
X128743Y57146D01*
X128485Y57339D01*
X128249Y57554D01*
X128228Y57575D01*
X128206Y57618D01*
X128142Y57682D01*
X128056Y57790D01*
X127970Y57918D01*
X127863Y58069D01*
X127756Y58240D01*
X127648Y58455D01*
X127541Y58670D01*
X127434Y58927D01*
X127326Y59206D01*
X127240Y59485D01*
X127090Y60151D01*
X127069Y60494D01*
X127047Y60880D01*
Y60902D01*
Y60988D01*
Y61095D01*
X127069Y61245D01*
X127090Y61438D01*
X127112Y61653D01*
X127155Y61889D01*
X127198Y62168D01*
X127348Y62726D01*
X127455Y63005D01*
X127584Y63306D01*
X127713Y63606D01*
X127884Y63885D01*
X128078Y64143D01*
X128292Y64400D01*
X128314Y64422D01*
X128357Y64465D01*
X128421Y64529D01*
X128528Y64593D01*
X128657Y64701D01*
X128807Y64808D01*
X128979Y64915D01*
X129172Y65044D01*
X129408Y65173D01*
X129666Y65280D01*
X129945Y65388D01*
X130245Y65495D01*
X130567Y65559D01*
X130911Y65624D01*
X131276Y65667D01*
X131662Y65688D01*
X131855D01*
X132005Y65667D01*
D02*
G37*
G36*
X81310D02*
X81460Y65645D01*
X81675Y65624D01*
X81889Y65581D01*
X82125Y65538D01*
X82619Y65388D01*
X82898Y65280D01*
X83155Y65173D01*
X83413Y65023D01*
X83671Y64851D01*
X83907Y64658D01*
X84143Y64443D01*
X84164Y64422D01*
X84186Y64379D01*
X84250Y64314D01*
X84314Y64229D01*
X84422Y64100D01*
X84508Y63949D01*
X84615Y63756D01*
X84722Y63563D01*
X84830Y63327D01*
X84937Y63070D01*
X85044Y62790D01*
X85130Y62490D01*
X85195Y62168D01*
X85259Y61803D01*
X85280Y61438D01*
X85302Y61031D01*
Y61009D01*
Y60945D01*
Y60816D01*
X85280Y60687D01*
X85259Y60494D01*
X85237Y60279D01*
X85195Y60065D01*
X85152Y59807D01*
X85001Y59249D01*
X84894Y58970D01*
X84787Y58691D01*
X84636Y58391D01*
X84465Y58112D01*
X84272Y57854D01*
X84057Y57597D01*
X84036Y57575D01*
X83993Y57532D01*
X83928Y57468D01*
X83842Y57403D01*
X83714Y57296D01*
X83563Y57189D01*
X83392Y57081D01*
X83198Y56953D01*
X82962Y56824D01*
X82726Y56716D01*
X82447Y56609D01*
X82147Y56502D01*
X81846Y56438D01*
X81503Y56373D01*
X81159Y56330D01*
X80773Y56309D01*
X80580D01*
X80430Y56330D01*
X80280Y56352D01*
X80065Y56373D01*
X79850Y56416D01*
X79614Y56459D01*
X79099Y56609D01*
X78841Y56716D01*
X78562Y56845D01*
X78305Y56974D01*
X78047Y57146D01*
X77790Y57339D01*
X77554Y57554D01*
X77532Y57575D01*
X77511Y57618D01*
X77446Y57682D01*
X77361Y57790D01*
X77275Y57918D01*
X77167Y58069D01*
X77060Y58240D01*
X76953Y58455D01*
X76845Y58670D01*
X76738Y58927D01*
X76631Y59206D01*
X76545Y59485D01*
X76395Y60151D01*
X76373Y60494D01*
X76352Y60880D01*
Y60902D01*
Y60988D01*
Y61095D01*
X76373Y61245D01*
X76395Y61438D01*
X76416Y61653D01*
X76459Y61889D01*
X76502Y62168D01*
X76652Y62726D01*
X76760Y63005D01*
X76888Y63306D01*
X77017Y63606D01*
X77189Y63885D01*
X77382Y64143D01*
X77597Y64400D01*
X77618Y64422D01*
X77661Y64465D01*
X77725Y64529D01*
X77833Y64593D01*
X77962Y64701D01*
X78112Y64808D01*
X78283Y64915D01*
X78477Y65044D01*
X78713Y65173D01*
X78970Y65280D01*
X79249Y65388D01*
X79550Y65495D01*
X79872Y65559D01*
X80215Y65624D01*
X80580Y65667D01*
X80966Y65688D01*
X81159D01*
X81310Y65667D01*
D02*
G37*
G36*
X236709Y38891D02*
X236902D01*
X237310Y38848D01*
X237782Y38784D01*
X238276Y38698D01*
X238769Y38569D01*
X239241Y38398D01*
Y36702D01*
X239220D01*
X239177Y36745D01*
X239113Y36766D01*
X239005Y36831D01*
X238876Y36874D01*
X238726Y36938D01*
X238554Y37002D01*
X238361Y37088D01*
X237932Y37217D01*
X237417Y37346D01*
X236859Y37432D01*
X236279Y37453D01*
X236065D01*
X235936Y37432D01*
X235743Y37410D01*
X235528Y37389D01*
X235314Y37346D01*
X235056Y37281D01*
X234498Y37110D01*
X234219Y37002D01*
X233918Y36852D01*
X233640Y36702D01*
X233361Y36509D01*
X233081Y36294D01*
X232824Y36037D01*
X232802Y36015D01*
X232759Y35972D01*
X232695Y35886D01*
X232631Y35779D01*
X232523Y35650D01*
X232416Y35478D01*
X232287Y35264D01*
X232180Y35049D01*
X232051Y34792D01*
X231922Y34491D01*
X231815Y34191D01*
X231729Y33847D01*
X231643Y33482D01*
X231579Y33096D01*
X231536Y32688D01*
X231515Y32259D01*
Y32238D01*
Y32152D01*
Y32044D01*
X231536Y31894D01*
X231558Y31701D01*
X231579Y31486D01*
X231622Y31229D01*
X231665Y30971D01*
X231815Y30392D01*
X231922Y30091D01*
X232030Y29791D01*
X232180Y29490D01*
X232330Y29211D01*
X232523Y28932D01*
X232738Y28675D01*
X232759Y28653D01*
X232802Y28610D01*
X232867Y28546D01*
X232974Y28460D01*
X233081Y28374D01*
X233232Y28245D01*
X233403Y28138D01*
X233618Y28009D01*
X233833Y27881D01*
X234069Y27773D01*
X234348Y27645D01*
X234627Y27559D01*
X234949Y27473D01*
X235271Y27408D01*
X235614Y27366D01*
X235979Y27344D01*
X236172D01*
X236301Y27366D01*
X236451D01*
X236644Y27387D01*
X236859Y27408D01*
X237095Y27451D01*
X237610Y27559D01*
X238147Y27709D01*
X238705Y27924D01*
X239241Y28203D01*
Y26636D01*
X239220D01*
X239177Y26614D01*
X239091Y26571D01*
X238984Y26528D01*
X238855Y26464D01*
X238683Y26421D01*
X238490Y26357D01*
X238276Y26292D01*
X238039Y26207D01*
X237782Y26142D01*
X237481Y26099D01*
X237181Y26035D01*
X236494Y25949D01*
X235743Y25928D01*
X235614D01*
X235485Y25949D01*
X235292D01*
X235056Y25970D01*
X234799Y26013D01*
X234498Y26078D01*
X234198Y26142D01*
X233854Y26228D01*
X233489Y26335D01*
X233146Y26486D01*
X232781Y26636D01*
X232416Y26829D01*
X232073Y27065D01*
X231729Y27323D01*
X231407Y27623D01*
X231386Y27645D01*
X231343Y27709D01*
X231257Y27795D01*
X231150Y27945D01*
X231042Y28117D01*
X230892Y28310D01*
X230763Y28567D01*
X230613Y28846D01*
X230463Y29147D01*
X230313Y29490D01*
X230163Y29855D01*
X230055Y30263D01*
X229948Y30692D01*
X229862Y31164D01*
X229819Y31658D01*
X229798Y32173D01*
Y32216D01*
Y32302D01*
X229819Y32474D01*
Y32688D01*
X229862Y32946D01*
X229905Y33225D01*
X229948Y33568D01*
X230034Y33933D01*
X230120Y34320D01*
X230248Y34706D01*
X230399Y35114D01*
X230570Y35521D01*
X230785Y35929D01*
X231021Y36337D01*
X231300Y36702D01*
X231622Y37067D01*
X231643Y37088D01*
X231708Y37153D01*
X231815Y37239D01*
X231944Y37346D01*
X232137Y37496D01*
X232352Y37646D01*
X232609Y37818D01*
X232888Y37990D01*
X233210Y38161D01*
X233554Y38333D01*
X233940Y38483D01*
X234348Y38634D01*
X234777Y38741D01*
X235249Y38827D01*
X235743Y38891D01*
X236258Y38913D01*
X236558D01*
X236709Y38891D01*
D02*
G37*
G36*
X253342Y26121D02*
X251454D01*
X248900Y35178D01*
Y35199D01*
X248878Y35285D01*
X248835Y35414D01*
X248814Y35586D01*
X248771Y35779D01*
X248749Y35994D01*
X248706Y36487D01*
X248664D01*
Y36466D01*
Y36380D01*
X248642Y36251D01*
X248621Y36079D01*
X248599Y35886D01*
X248556Y35672D01*
X248449Y35199D01*
X245873Y26121D01*
X244006D01*
X240357Y38698D01*
X242139D01*
X244714Y29190D01*
Y29168D01*
X244736Y29083D01*
X244779Y28954D01*
X244800Y28782D01*
X244843Y28589D01*
X244886Y28374D01*
X244929Y27902D01*
X244972D01*
Y27924D01*
X244993Y27988D01*
Y28095D01*
X245015Y28245D01*
X245058Y28439D01*
X245101Y28653D01*
X245165Y28911D01*
X245229Y29190D01*
X247955Y38698D01*
X249565D01*
X252162Y29125D01*
Y29104D01*
X252183Y29040D01*
X252205Y28932D01*
X252248Y28804D01*
X252269Y28632D01*
X252312Y28417D01*
X252334Y28181D01*
X252377Y27924D01*
X252420D01*
Y27945D01*
Y28009D01*
X252441Y28117D01*
X252463Y28267D01*
X252505Y28439D01*
X252548Y28653D01*
X252591Y28889D01*
X252656Y29147D01*
X255124Y38698D01*
X256863D01*
X253342Y26121D01*
D02*
G37*
G36*
X257013Y161761D02*
X253385D01*
Y150621D01*
X251733D01*
Y161761D01*
X248127D01*
Y163199D01*
X257013D01*
Y161761D01*
D02*
G37*
G36*
X247462D02*
X243834D01*
Y150621D01*
X242182D01*
Y161761D01*
X238576D01*
Y163199D01*
X247462D01*
Y161761D01*
D02*
G37*
G36*
X233575Y163177D02*
X233747D01*
X233940Y163156D01*
X234155Y163113D01*
X234391Y163070D01*
X234906Y162963D01*
X235421Y162791D01*
X235936Y162533D01*
X236172Y162383D01*
X236387Y162211D01*
X236408D01*
X236430Y162168D01*
X236494Y162104D01*
X236558Y162040D01*
X236644Y161932D01*
X236752Y161804D01*
X236859Y161675D01*
X236966Y161503D01*
X237052Y161310D01*
X237159Y161095D01*
X237353Y160623D01*
X237481Y160044D01*
X237503Y159743D01*
X237524Y159400D01*
Y159378D01*
Y159314D01*
Y159228D01*
X237503Y159099D01*
X237481Y158927D01*
X237460Y158756D01*
X237353Y158327D01*
X237202Y157854D01*
X237095Y157597D01*
X236966Y157361D01*
X236816Y157103D01*
X236623Y156867D01*
X236430Y156631D01*
X236194Y156395D01*
X236172Y156373D01*
X236129Y156352D01*
X236065Y156288D01*
X235958Y156223D01*
X235829Y156137D01*
X235679Y156030D01*
X235507Y155944D01*
X235292Y155837D01*
X235056Y155730D01*
X234820Y155644D01*
X234262Y155472D01*
X233618Y155343D01*
X233275Y155322D01*
X231279D01*
Y150621D01*
X229647D01*
Y163199D01*
X233425D01*
X233575Y163177D01*
D02*
G37*
G36*
X487598Y198711D02*
X484915D01*
Y203905D01*
X479550D01*
Y198711D01*
X476867D01*
Y211289D01*
X479550D01*
Y206223D01*
X484915D01*
Y211289D01*
X487598D01*
Y198711D01*
D02*
G37*
G36*
X515371D02*
X512624D01*
X507280Y206846D01*
X507258Y206867D01*
X507215Y206953D01*
X507151Y207060D01*
X507044Y207211D01*
X506851Y207554D01*
X506765Y207726D01*
X506679Y207876D01*
X506657D01*
Y207855D01*
X506679Y207747D01*
Y207597D01*
X506700Y207382D01*
Y207103D01*
X506722Y206760D01*
Y206331D01*
Y205858D01*
Y198711D01*
X504168D01*
Y211289D01*
X507108D01*
X512238Y203369D01*
X512259Y203326D01*
X512324Y203240D01*
X512409Y203111D01*
X512517Y202961D01*
X512710Y202618D01*
X512796Y202489D01*
X512860Y202381D01*
X512903D01*
Y202403D01*
X512882Y202467D01*
Y202596D01*
X512860Y202768D01*
X512839Y203004D01*
Y203304D01*
X512817Y203669D01*
Y204120D01*
Y211289D01*
X515371D01*
Y198711D01*
D02*
G37*
G36*
X525459Y209099D02*
X520973D01*
Y206138D01*
X525137D01*
Y203948D01*
X520973D01*
Y200901D01*
X525759D01*
Y198711D01*
X518290D01*
Y211289D01*
X525459D01*
Y209099D01*
D02*
G37*
G36*
X470685Y211267D02*
X470986Y211224D01*
X471351Y211160D01*
X471737Y211074D01*
X472166Y210967D01*
X472617Y210795D01*
X473046Y210580D01*
X473476Y210323D01*
X473862Y210001D01*
X474227Y209615D01*
X474527Y209164D01*
X474763Y208627D01*
X474849Y208327D01*
X474914Y208026D01*
X474935Y207683D01*
X474957Y207318D01*
Y207297D01*
Y207232D01*
Y207125D01*
X474935Y206996D01*
X474914Y206824D01*
X474892Y206653D01*
X474849Y206438D01*
X474785Y206202D01*
X474613Y205708D01*
X474506Y205451D01*
X474356Y205193D01*
X474205Y204936D01*
X474012Y204678D01*
X473797Y204442D01*
X473540Y204206D01*
X473518Y204184D01*
X473476Y204163D01*
X473390Y204099D01*
X473282Y204034D01*
X473154Y203948D01*
X472982Y203841D01*
X472789Y203734D01*
X472574Y203626D01*
X472317Y203519D01*
X472059Y203433D01*
X471758Y203326D01*
X471458Y203240D01*
X470771Y203133D01*
X470385Y203090D01*
X468604D01*
Y198711D01*
X465921D01*
Y211289D01*
X470449D01*
X470685Y211267D01*
D02*
G37*
G36*
X496312Y211482D02*
X496505D01*
X496741Y211439D01*
X496999Y211417D01*
X497299Y211353D01*
X497621Y211289D01*
X497943Y211181D01*
X498308Y211074D01*
X498673Y210924D01*
X499016Y210752D01*
X499381Y210537D01*
X499746Y210301D01*
X500068Y210022D01*
X500390Y209700D01*
X500412Y209679D01*
X500454Y209615D01*
X500540Y209529D01*
X500648Y209378D01*
X500776Y209207D01*
X500905Y208992D01*
X501055Y208735D01*
X501227Y208456D01*
X501377Y208134D01*
X501528Y207790D01*
X501656Y207404D01*
X501785Y206996D01*
X501893Y206567D01*
X501978Y206095D01*
X502021Y205601D01*
X502043Y205086D01*
Y205043D01*
Y204957D01*
Y204807D01*
X502021Y204592D01*
X502000Y204356D01*
X501957Y204056D01*
X501893Y203734D01*
X501828Y203390D01*
X501742Y203025D01*
X501635Y202639D01*
X501485Y202231D01*
X501313Y201845D01*
X501120Y201437D01*
X500884Y201051D01*
X500626Y200686D01*
X500326Y200321D01*
X500304Y200300D01*
X500240Y200235D01*
X500154Y200149D01*
X500025Y200042D01*
X499854Y199892D01*
X499639Y199742D01*
X499403Y199570D01*
X499124Y199420D01*
X498823Y199248D01*
X498480Y199076D01*
X498115Y198926D01*
X497729Y198776D01*
X497299Y198668D01*
X496827Y198583D01*
X496355Y198518D01*
X495840Y198497D01*
X495711D01*
X495582Y198518D01*
X495389D01*
X495153Y198561D01*
X494896Y198583D01*
X494595Y198647D01*
X494273Y198711D01*
X493930Y198819D01*
X493586Y198926D01*
X493222Y199076D01*
X492835Y199248D01*
X492470Y199441D01*
X492127Y199677D01*
X491762Y199956D01*
X491440Y200257D01*
X491419Y200278D01*
X491376Y200343D01*
X491290Y200450D01*
X491183Y200579D01*
X491054Y200750D01*
X490904Y200965D01*
X490753Y201222D01*
X490603Y201502D01*
X490453Y201802D01*
X490303Y202167D01*
X490152Y202532D01*
X490023Y202939D01*
X489916Y203369D01*
X489830Y203841D01*
X489787Y204313D01*
X489766Y204828D01*
Y204871D01*
Y204957D01*
X489787Y205107D01*
Y205322D01*
X489809Y205579D01*
X489852Y205858D01*
X489916Y206180D01*
X489981Y206545D01*
X490066Y206910D01*
X490195Y207297D01*
X490324Y207704D01*
X490496Y208112D01*
X490689Y208498D01*
X490925Y208906D01*
X491183Y209271D01*
X491483Y209636D01*
X491505Y209657D01*
X491569Y209722D01*
X491655Y209808D01*
X491805Y209937D01*
X491977Y210065D01*
X492191Y210237D01*
X492427Y210387D01*
X492706Y210580D01*
X493028Y210752D01*
X493372Y210924D01*
X493737Y211074D01*
X494144Y211203D01*
X494574Y211332D01*
X495046Y211417D01*
X495540Y211482D01*
X496055Y211503D01*
X496183D01*
X496312Y211482D01*
D02*
G37*
G36*
X535557Y86482D02*
X535729D01*
X535944Y86460D01*
X536158Y86439D01*
X536652Y86396D01*
X537167Y86310D01*
X537682Y86181D01*
X538176Y86031D01*
Y83434D01*
X538154D01*
X538111Y83477D01*
X538047Y83498D01*
X537961Y83563D01*
X537832Y83606D01*
X537682Y83670D01*
X537532Y83735D01*
X537339Y83820D01*
X536909Y83949D01*
X536416Y84078D01*
X535879Y84164D01*
X535278Y84185D01*
X535107D01*
X534978Y84164D01*
X534806Y84142D01*
X534634Y84121D01*
X534227Y84035D01*
X533754Y83906D01*
X533261Y83692D01*
X533003Y83563D01*
X532767Y83391D01*
X532531Y83219D01*
X532316Y83005D01*
X532295Y82983D01*
X532273Y82940D01*
X532209Y82876D01*
X532145Y82790D01*
X532059Y82683D01*
X531973Y82533D01*
X531866Y82361D01*
X531780Y82168D01*
X531673Y81975D01*
X531565Y81739D01*
X531394Y81202D01*
X531265Y80601D01*
X531243Y80258D01*
X531222Y79914D01*
Y79893D01*
Y79828D01*
Y79742D01*
X531243Y79614D01*
X531265Y79442D01*
X531286Y79270D01*
X531351Y78841D01*
X531479Y78369D01*
X531673Y77875D01*
X531780Y77639D01*
X531930Y77382D01*
X532080Y77145D01*
X532273Y76931D01*
X532295Y76909D01*
X532316Y76888D01*
X532381Y76824D01*
X532467Y76759D01*
X532574Y76673D01*
X532703Y76587D01*
X532853Y76480D01*
X533025Y76373D01*
X533433Y76158D01*
X533905Y75986D01*
X534484Y75858D01*
X534785Y75836D01*
X535107Y75815D01*
X535278D01*
X535386Y75836D01*
X535536D01*
X535708Y75858D01*
X535922Y75879D01*
X536137Y75922D01*
X536609Y76008D01*
X537124Y76158D01*
X537661Y76351D01*
X538176Y76630D01*
Y74162D01*
X538154D01*
X538111Y74141D01*
X538026Y74098D01*
X537918Y74055D01*
X537789Y74012D01*
X537618Y73948D01*
X537425Y73883D01*
X537210Y73840D01*
X536974Y73776D01*
X536695Y73711D01*
X536394Y73647D01*
X536094Y73604D01*
X535751Y73561D01*
X535386Y73518D01*
X534591Y73497D01*
X534463D01*
X534312Y73518D01*
X534119D01*
X533883Y73540D01*
X533604Y73583D01*
X533282Y73647D01*
X532960Y73711D01*
X532595Y73797D01*
X532230Y73905D01*
X531866Y74055D01*
X531479Y74205D01*
X531093Y74398D01*
X530728Y74634D01*
X530385Y74892D01*
X530063Y75192D01*
X530041Y75214D01*
X529998Y75278D01*
X529912Y75364D01*
X529805Y75493D01*
X529676Y75665D01*
X529548Y75879D01*
X529397Y76115D01*
X529247Y76394D01*
X529076Y76695D01*
X528925Y77038D01*
X528797Y77425D01*
X528668Y77811D01*
X528560Y78261D01*
X528475Y78712D01*
X528432Y79206D01*
X528410Y79721D01*
Y79764D01*
Y79850D01*
X528432Y80000D01*
Y80215D01*
X528475Y80472D01*
X528517Y80773D01*
X528560Y81095D01*
X528646Y81460D01*
X528732Y81824D01*
X528861Y82232D01*
X529011Y82619D01*
X529183Y83026D01*
X529397Y83434D01*
X529655Y83842D01*
X529934Y84228D01*
X530256Y84593D01*
X530277Y84615D01*
X530342Y84679D01*
X530449Y84765D01*
X530599Y84894D01*
X530771Y85044D01*
X531007Y85194D01*
X531265Y85366D01*
X531565Y85559D01*
X531887Y85731D01*
X532252Y85902D01*
X532660Y86053D01*
X533089Y86203D01*
X533540Y86332D01*
X534033Y86418D01*
X534548Y86482D01*
X535085Y86503D01*
X535386D01*
X535557Y86482D01*
D02*
G37*
G36*
X460415Y86482D02*
X460608D01*
X460845Y86460D01*
X461102Y86439D01*
X461639Y86375D01*
X462240Y86267D01*
X462841Y86138D01*
X463420Y85945D01*
Y83391D01*
X463399D01*
X463356Y83434D01*
X463270Y83477D01*
X463163Y83520D01*
X463012Y83584D01*
X462841Y83670D01*
X462648Y83735D01*
X462433Y83820D01*
X462175Y83906D01*
X461896Y83971D01*
X461617Y84057D01*
X461295Y84121D01*
X460608Y84207D01*
X459836Y84250D01*
X459664D01*
X459535Y84228D01*
X459385Y84207D01*
X459192Y84185D01*
X458784Y84099D01*
X458312Y83949D01*
X457818Y83735D01*
X457561Y83606D01*
X457325Y83455D01*
X457089Y83262D01*
X456874Y83048D01*
X456852Y83026D01*
X456831Y82983D01*
X456767Y82919D01*
X456702Y82833D01*
X456616Y82726D01*
X456530Y82576D01*
X456423Y82404D01*
X456316Y82211D01*
X456209Y81996D01*
X456101Y81760D01*
X455930Y81245D01*
X455801Y80622D01*
X455779Y80279D01*
X455758Y79936D01*
Y79914D01*
Y79850D01*
Y79742D01*
X455779Y79614D01*
Y79442D01*
X455822Y79249D01*
X455887Y78819D01*
X456015Y78304D01*
X456187Y77789D01*
X456445Y77296D01*
X456595Y77060D01*
X456767Y76845D01*
X456788Y76824D01*
X456810Y76802D01*
X456874Y76738D01*
X456960Y76673D01*
X457067Y76587D01*
X457196Y76501D01*
X457325Y76394D01*
X457496Y76308D01*
X457904Y76094D01*
X458376Y75922D01*
X458934Y75793D01*
X459235Y75772D01*
X459557Y75750D01*
X459729D01*
X459922Y75772D01*
X460158Y75793D01*
X460437Y75836D01*
X460716Y75879D01*
X461016Y75965D01*
X461274Y76072D01*
Y78648D01*
X458741D01*
Y80816D01*
X463957D01*
Y74548D01*
X463935Y74527D01*
X463871Y74506D01*
X463764Y74462D01*
X463635Y74377D01*
X463442Y74312D01*
X463227Y74226D01*
X462991Y74119D01*
X462690Y74033D01*
X462390Y73926D01*
X462047Y73840D01*
X461660Y73733D01*
X461274Y73668D01*
X460845Y73604D01*
X460394Y73540D01*
X459922Y73518D01*
X459428Y73497D01*
X459299D01*
X459149Y73518D01*
X458934D01*
X458677Y73540D01*
X458376Y73583D01*
X458054Y73647D01*
X457711Y73711D01*
X457346Y73797D01*
X456960Y73905D01*
X456552Y74033D01*
X456166Y74205D01*
X455779Y74398D01*
X455393Y74613D01*
X455028Y74870D01*
X454685Y75171D01*
X454663Y75192D01*
X454620Y75257D01*
X454534Y75342D01*
X454406Y75493D01*
X454277Y75665D01*
X454127Y75858D01*
X453976Y76115D01*
X453826Y76394D01*
X453655Y76695D01*
X453504Y77038D01*
X453354Y77424D01*
X453225Y77832D01*
X453118Y78283D01*
X453032Y78755D01*
X452968Y79270D01*
X452946Y79807D01*
Y79850D01*
Y79936D01*
X452968Y80086D01*
Y80301D01*
X453011Y80558D01*
X453054Y80837D01*
X453097Y81159D01*
X453182Y81524D01*
X453290Y81889D01*
X453418Y82296D01*
X453569Y82683D01*
X453762Y83091D01*
X453976Y83498D01*
X454234Y83885D01*
X454513Y84271D01*
X454856Y84636D01*
X454878Y84657D01*
X454942Y84722D01*
X455050Y84808D01*
X455200Y84937D01*
X455393Y85065D01*
X455629Y85237D01*
X455887Y85387D01*
X456209Y85580D01*
X456552Y85752D01*
X456938Y85924D01*
X457346Y86074D01*
X457797Y86203D01*
X458269Y86332D01*
X458784Y86417D01*
X459321Y86482D01*
X459900Y86503D01*
X460244D01*
X460415Y86482D01*
D02*
G37*
G36*
X553372Y73711D02*
X550367D01*
X548220Y81910D01*
Y81932D01*
X548199Y82017D01*
X548177Y82168D01*
X548135Y82339D01*
X548113Y82554D01*
X548070Y82790D01*
X548027Y83305D01*
X547984D01*
Y83262D01*
X547963Y83176D01*
Y83005D01*
X547941Y82812D01*
X547898Y82597D01*
X547877Y82361D01*
X547813Y82125D01*
X547770Y81910D01*
X545580Y73711D01*
X542468D01*
X539120Y86289D01*
X542061D01*
X543928Y77768D01*
Y77746D01*
X543949Y77661D01*
X543971Y77532D01*
X543992Y77382D01*
X544035Y77167D01*
X544057Y76931D01*
X544078Y76652D01*
X544100Y76351D01*
X544164D01*
Y76373D01*
Y76459D01*
X544185Y76609D01*
X544207Y76781D01*
X544250Y76995D01*
X544293Y77231D01*
X544336Y77510D01*
X544400Y77789D01*
X546761Y86289D01*
X549594D01*
X551740Y77703D01*
Y77682D01*
X551762Y77618D01*
X551783Y77489D01*
X551805Y77339D01*
X551848Y77145D01*
X551869Y76909D01*
X551912Y76652D01*
X551934Y76351D01*
X551977D01*
Y76394D01*
Y76480D01*
X551998Y76609D01*
X552019Y76802D01*
X552041Y76995D01*
X552084Y77231D01*
X552170Y77746D01*
X553994Y86289D01*
X556720D01*
X553372Y73711D01*
D02*
G37*
G36*
X497675Y75901D02*
X502397D01*
Y73711D01*
X494992D01*
Y86289D01*
X497675D01*
Y75901D01*
D02*
G37*
G36*
X493404Y73711D02*
X490463D01*
X489519Y76587D01*
X484948D01*
X484025Y73711D01*
X481106D01*
X485720Y86289D01*
X488875D01*
X493404Y73711D01*
D02*
G37*
G36*
X480741Y84099D02*
X477156D01*
Y73711D01*
X474452D01*
Y84099D01*
X470868D01*
Y86289D01*
X480741D01*
Y84099D01*
D02*
G37*
G36*
X469151Y73711D02*
X466468D01*
Y86289D01*
X469151D01*
Y73711D01*
D02*
G37*
G36*
X450821D02*
X448139D01*
Y86289D01*
X450821D01*
Y73711D01*
D02*
G37*
G36*
X439596Y86267D02*
X439768D01*
X439940Y86246D01*
X440133Y86224D01*
X440369Y86203D01*
X440884Y86096D01*
X441442Y85967D01*
X442043Y85773D01*
X442687Y85516D01*
X443309Y85194D01*
X443610Y85001D01*
X443910Y84786D01*
X444211Y84550D01*
X444468Y84293D01*
X444747Y84014D01*
X444983Y83692D01*
X445219Y83370D01*
X445413Y83005D01*
X445584Y82597D01*
X445756Y82168D01*
X445863Y81717D01*
X445971Y81223D01*
X446014Y80708D01*
X446035Y80150D01*
Y80107D01*
Y80021D01*
X446014Y79871D01*
Y79678D01*
X445971Y79420D01*
X445928Y79142D01*
X445885Y78819D01*
X445799Y78476D01*
X445692Y78111D01*
X445584Y77725D01*
X445413Y77339D01*
X445241Y76952D01*
X445026Y76566D01*
X444769Y76180D01*
X444490Y75815D01*
X444146Y75471D01*
X444125Y75450D01*
X444061Y75407D01*
X443953Y75300D01*
X443803Y75192D01*
X443631Y75064D01*
X443395Y74913D01*
X443138Y74763D01*
X442837Y74591D01*
X442515Y74420D01*
X442150Y74269D01*
X441743Y74119D01*
X441313Y73990D01*
X440863Y73883D01*
X440369Y73797D01*
X439832Y73733D01*
X439296Y73711D01*
X434960D01*
Y86289D01*
X439489D01*
X439596Y86267D01*
D02*
G37*
G36*
X513837Y86482D02*
X513987D01*
X514137Y86460D01*
X514502Y86418D01*
X514910Y86310D01*
X515339Y86181D01*
X515768Y85988D01*
X516155Y85731D01*
X516176D01*
X516198Y85688D01*
X516305Y85602D01*
X516477Y85430D01*
X516670Y85216D01*
X516842Y84915D01*
X517013Y84593D01*
X517121Y84207D01*
X517164Y83992D01*
Y83778D01*
Y83756D01*
Y83692D01*
X517142Y83606D01*
X517121Y83456D01*
X517099Y83305D01*
X517035Y83134D01*
X516970Y82919D01*
X516884Y82704D01*
X516756Y82468D01*
X516605Y82232D01*
X516434Y81996D01*
X516219Y81760D01*
X515962Y81545D01*
X515661Y81309D01*
X515318Y81116D01*
X514910Y80923D01*
X514931D01*
X514996Y80880D01*
X515082Y80837D01*
X515210Y80773D01*
X515361Y80687D01*
X515532Y80580D01*
X515726Y80429D01*
X515940Y80279D01*
X516176Y80107D01*
X516412Y79914D01*
X516670Y79678D01*
X516927Y79442D01*
X517185Y79163D01*
X517443Y78863D01*
X517700Y78541D01*
X517936Y78197D01*
X517958Y78219D01*
X518001Y78283D01*
X518065Y78369D01*
X518151Y78498D01*
X518258Y78669D01*
X518365Y78863D01*
X518494Y79099D01*
X518623Y79356D01*
X518730Y79657D01*
X518859Y79957D01*
X518966Y80301D01*
X519074Y80665D01*
X519160Y81052D01*
X519224Y81460D01*
X519267Y81889D01*
X519288Y82339D01*
Y82361D01*
Y82447D01*
Y82576D01*
X519267Y82747D01*
X519245Y82919D01*
X519224Y83134D01*
X519117Y83541D01*
X521392D01*
Y83520D01*
X521413Y83456D01*
X521456Y83348D01*
X521478Y83219D01*
X521521Y83048D01*
X521542Y82855D01*
X521563Y82640D01*
Y82382D01*
Y82339D01*
Y82232D01*
X521542Y82060D01*
X521521Y81846D01*
X521499Y81545D01*
X521435Y81223D01*
X521349Y80837D01*
X521263Y80429D01*
X521134Y80000D01*
X520962Y79528D01*
X520769Y79056D01*
X520533Y78562D01*
X520254Y78047D01*
X519932Y77532D01*
X519546Y77038D01*
X519117Y76544D01*
X519138Y76523D01*
X519160Y76501D01*
X519288Y76394D01*
X519460Y76223D01*
X519718Y76029D01*
X519997Y75836D01*
X520297Y75686D01*
X520619Y75557D01*
X520769Y75536D01*
X520941Y75514D01*
X521091D01*
X521241Y75536D01*
X521456Y75557D01*
X521692Y75600D01*
X521950Y75665D01*
X522229Y75750D01*
X522508Y75879D01*
Y73862D01*
X522465Y73840D01*
X522358Y73819D01*
X522164Y73754D01*
X521928Y73690D01*
X521628Y73625D01*
X521306Y73583D01*
X520941Y73540D01*
X520555Y73518D01*
X520490D01*
X520404Y73540D01*
X520276D01*
X520147Y73561D01*
X519975Y73604D01*
X519782Y73647D01*
X519589Y73711D01*
X519374Y73797D01*
X519138Y73905D01*
X518881Y74033D01*
X518623Y74184D01*
X518365Y74377D01*
X518108Y74591D01*
X517829Y74827D01*
X517571Y75107D01*
X517550Y75085D01*
X517486Y75042D01*
X517378Y74956D01*
X517228Y74849D01*
X517035Y74742D01*
X516820Y74613D01*
X516541Y74463D01*
X516262Y74312D01*
X515940Y74162D01*
X515597Y74012D01*
X515210Y73883D01*
X514803Y73776D01*
X514395Y73668D01*
X513944Y73583D01*
X513472Y73540D01*
X513000Y73518D01*
X512785D01*
X512635Y73540D01*
X512463D01*
X512248Y73583D01*
X512012Y73604D01*
X511776Y73647D01*
X511218Y73776D01*
X510639Y73948D01*
X510081Y74205D01*
X509823Y74355D01*
X509566Y74527D01*
X509544Y74548D01*
X509501Y74570D01*
X509458Y74634D01*
X509372Y74720D01*
X509265Y74806D01*
X509158Y74935D01*
X509050Y75085D01*
X508943Y75257D01*
X508707Y75665D01*
X508493Y76137D01*
X508407Y76416D01*
X508364Y76695D01*
X508321Y77017D01*
X508299Y77339D01*
Y77360D01*
Y77446D01*
X508321Y77575D01*
X508342Y77746D01*
X508385Y77940D01*
X508471Y78176D01*
X508557Y78433D01*
X508686Y78712D01*
X508836Y79013D01*
X509050Y79313D01*
X509287Y79614D01*
X509587Y79914D01*
X509930Y80215D01*
X510338Y80494D01*
X510811Y80751D01*
X511347Y80987D01*
X511326Y81009D01*
X511283Y81052D01*
X511197Y81116D01*
X511111Y81202D01*
X511004Y81309D01*
X510875Y81438D01*
X510596Y81760D01*
X510295Y82146D01*
X510059Y82597D01*
X509973Y82833D01*
X509888Y83091D01*
X509845Y83348D01*
X509823Y83606D01*
Y83627D01*
Y83670D01*
Y83735D01*
X509845Y83820D01*
X509888Y84078D01*
X509952Y84378D01*
X510081Y84700D01*
X510252Y85065D01*
X510510Y85387D01*
X510660Y85559D01*
X510832Y85709D01*
X510853D01*
X510875Y85752D01*
X510939Y85774D01*
X511025Y85838D01*
X511111Y85902D01*
X511240Y85967D01*
X511562Y86117D01*
X511948Y86246D01*
X512420Y86375D01*
X512957Y86460D01*
X513579Y86503D01*
X513729D01*
X513837Y86482D01*
D02*
G37*
%LPC*%
G36*
X260325Y275619D02*
X260267D01*
X260120Y275589D01*
X259857Y275560D01*
X259564Y275501D01*
X259242Y275355D01*
X258890Y275179D01*
X258568Y274916D01*
X258246Y274564D01*
X258217Y274506D01*
X258129Y274389D01*
X258012Y274154D01*
X257894Y273832D01*
X257748Y273422D01*
X257631Y272953D01*
X257543Y272397D01*
X257514Y271753D01*
Y271723D01*
Y271694D01*
Y271606D01*
Y271489D01*
X257543Y271167D01*
X257602Y270816D01*
X257689Y270376D01*
X257807Y269937D01*
X257982Y269527D01*
X258217Y269146D01*
X258246Y269117D01*
X258363Y269000D01*
X258510Y268853D01*
X258744Y268707D01*
X259037Y268531D01*
X259388Y268385D01*
X259769Y268268D01*
X260237Y268239D01*
X260296D01*
X260442Y268268D01*
X260647Y268297D01*
X260911Y268356D01*
X261233Y268473D01*
X261555Y268648D01*
X261877Y268883D01*
X262170Y269205D01*
X262200Y269263D01*
X262288Y269381D01*
X262405Y269586D01*
X262551Y269879D01*
X262698Y270259D01*
X262815Y270669D01*
X262903Y271167D01*
X262932Y271723D01*
Y272749D01*
Y272807D01*
Y272953D01*
X262903Y273188D01*
X262844Y273481D01*
X262756Y273803D01*
X262610Y274125D01*
X262434Y274476D01*
X262170Y274799D01*
X262141Y274828D01*
X262053Y274916D01*
X261877Y275062D01*
X261672Y275209D01*
X261409Y275355D01*
X261087Y275501D01*
X260735Y275589D01*
X260325Y275619D01*
D02*
G37*
G36*
X421663Y275619D02*
X421458D01*
X421224Y275560D01*
X420960Y275501D01*
X420638Y275384D01*
X420316Y275238D01*
X419964Y275004D01*
X419672Y274681D01*
X419642Y274652D01*
X419554Y274506D01*
X419437Y274301D01*
X419291Y274037D01*
X419144Y273686D01*
X419027Y273276D01*
X418939Y272807D01*
X418910Y272280D01*
Y271226D01*
Y271167D01*
Y271021D01*
X418939Y270757D01*
X418998Y270464D01*
X419086Y270113D01*
X419203Y269761D01*
X419379Y269410D01*
X419613Y269058D01*
X419642Y269029D01*
X419730Y268941D01*
X419906Y268795D01*
X420111Y268648D01*
X420374Y268502D01*
X420696Y268356D01*
X421048Y268268D01*
X421458Y268239D01*
X421516D01*
X421692Y268268D01*
X421926Y268297D01*
X422219Y268356D01*
X422571Y268502D01*
X422893Y268678D01*
X423244Y268912D01*
X423537Y269263D01*
X423567Y269322D01*
X423654Y269468D01*
X423772Y269703D01*
X423918Y270025D01*
X424064Y270464D01*
X424182Y270962D01*
X424269Y271577D01*
X424299Y272251D01*
Y272280D01*
Y272397D01*
X424269Y272573D01*
Y272778D01*
X424211Y273041D01*
X424152Y273305D01*
X424064Y273627D01*
X423977Y273949D01*
X423830Y274242D01*
X423654Y274564D01*
X423449Y274828D01*
X423186Y275091D01*
X422893Y275296D01*
X422542Y275472D01*
X422132Y275589D01*
X421663Y275619D01*
D02*
G37*
G36*
X554769Y271665D02*
X552455Y271343D01*
X552367D01*
X552279Y271314D01*
X552162Y271284D01*
X551840Y271196D01*
X551489Y271050D01*
X551108Y270816D01*
X550815Y270494D01*
X550669Y270318D01*
X550581Y270113D01*
X550522Y269849D01*
X550493Y269586D01*
Y269556D01*
Y269468D01*
X550522Y269351D01*
X550551Y269205D01*
X550610Y269029D01*
X550698Y268824D01*
X550815Y268648D01*
X550961Y268473D01*
X550991Y268444D01*
X551049Y268414D01*
X551166Y268356D01*
X551313Y268268D01*
X551489Y268180D01*
X551723Y268121D01*
X551957Y268092D01*
X552250Y268063D01*
X552426D01*
X552631Y268092D01*
X552894Y268151D01*
X553158Y268239D01*
X553451Y268385D01*
X553773Y268561D01*
X554037Y268824D01*
X554066Y268853D01*
X554154Y268971D01*
X554271Y269146D01*
X554417Y269381D01*
X554534Y269644D01*
X554652Y269996D01*
X554739Y270376D01*
X554769Y270786D01*
Y271665D01*
D02*
G37*
G36*
X578286Y275912D02*
X578139D01*
X577963Y275882D01*
X577729Y275824D01*
X577495Y275736D01*
X577202Y275589D01*
X576938Y275414D01*
X576646Y275150D01*
X576616Y275121D01*
X576528Y275004D01*
X576411Y274857D01*
X576265Y274623D01*
X576118Y274330D01*
X575972Y274008D01*
X575855Y273598D01*
X575767Y273159D01*
X580511D01*
Y273188D01*
Y273276D01*
Y273422D01*
X580482Y273598D01*
X580453Y273803D01*
X580394Y274037D01*
X580248Y274535D01*
X580131Y274799D01*
X579955Y275033D01*
X579779Y275267D01*
X579574Y275472D01*
X579311Y275648D01*
X579018Y275794D01*
X578666Y275882D01*
X578286Y275912D01*
D02*
G37*
G36*
X521353Y275912D02*
X521207D01*
X521031Y275882D01*
X520797Y275824D01*
X520563Y275736D01*
X520270Y275589D01*
X520006Y275414D01*
X519713Y275150D01*
X519684Y275121D01*
X519596Y275004D01*
X519479Y274857D01*
X519332Y274623D01*
X519186Y274330D01*
X519040Y274008D01*
X518922Y273598D01*
X518835Y273159D01*
X523579Y273159D01*
Y273188D01*
Y273276D01*
Y273422D01*
X523550Y273598D01*
X523520Y273803D01*
X523462Y274037D01*
X523315Y274535D01*
X523198Y274799D01*
X523022Y275033D01*
X522847Y275267D01*
X522642Y275472D01*
X522378Y275648D01*
X522085Y275794D01*
X521734Y275882D01*
X521353Y275912D01*
D02*
G37*
G36*
X459969D02*
X459823D01*
X459647Y275882D01*
X459413Y275824D01*
X459179Y275736D01*
X458886Y275589D01*
X458622Y275414D01*
X458329Y275150D01*
X458300Y275121D01*
X458212Y275004D01*
X458095Y274857D01*
X457949Y274623D01*
X457802Y274330D01*
X457656Y274008D01*
X457539Y273598D01*
X457451Y273159D01*
X462195D01*
Y273188D01*
Y273276D01*
Y273422D01*
X462166Y273598D01*
X462136Y273803D01*
X462078Y274037D01*
X461931Y274535D01*
X461814Y274799D01*
X461639Y275033D01*
X461463Y275267D01*
X461258Y275472D01*
X460994Y275648D01*
X460701Y275794D01*
X460350Y275882D01*
X459969Y275912D01*
D02*
G37*
G36*
X384001Y275619D02*
X383767D01*
X383503Y275560D01*
X383210Y275501D01*
X382859Y275384D01*
X382478Y275209D01*
X382127Y274974D01*
X381804Y274652D01*
X381775Y274594D01*
X381687Y274476D01*
X381541Y274242D01*
X381424Y273949D01*
X381277Y273569D01*
X381131Y273100D01*
X381043Y272544D01*
X381014Y271929D01*
Y271899D01*
Y271782D01*
X381043Y271577D01*
X381072Y271343D01*
X381102Y271079D01*
X381160Y270757D01*
X381277Y270435D01*
X381394Y270084D01*
X381541Y269732D01*
X381746Y269410D01*
X381980Y269088D01*
X382273Y268824D01*
X382625Y268590D01*
X383005Y268385D01*
X383474Y268268D01*
X384001Y268239D01*
X384118D01*
X384264Y268268D01*
X384469Y268297D01*
X384674Y268356D01*
X384909Y268444D01*
X385172Y268561D01*
X385465Y268707D01*
X385729Y268912D01*
X385992Y269176D01*
X386227Y269468D01*
X386461Y269820D01*
X386637Y270259D01*
X386783Y270757D01*
X386871Y271343D01*
X386900Y272016D01*
Y272046D01*
Y272163D01*
X386871Y272339D01*
X386842Y272573D01*
X386812Y272866D01*
X386754Y273159D01*
X386666Y273481D01*
X386549Y273832D01*
X386373Y274154D01*
X386197Y274476D01*
X385963Y274799D01*
X385670Y275062D01*
X385348Y275296D01*
X384967Y275472D01*
X384499Y275589D01*
X384001Y275619D01*
D02*
G37*
G36*
X333804Y280509D02*
X333687D01*
X333570Y280480D01*
X333394Y280422D01*
X333189Y280304D01*
X332984Y280187D01*
X332750Y279982D01*
X332516Y279719D01*
X332252Y279396D01*
X332018Y278957D01*
X331813Y278459D01*
X331608Y277844D01*
X331520Y277493D01*
X331432Y277112D01*
X331374Y276702D01*
X331315Y276263D01*
X331256Y275794D01*
X331227Y275296D01*
X331198Y274769D01*
Y274184D01*
Y274154D01*
Y274125D01*
Y274037D01*
Y273920D01*
X331227Y273627D01*
Y273246D01*
X331286Y272807D01*
X331344Y272309D01*
X331403Y271753D01*
X331520Y271226D01*
X331666Y270669D01*
X331813Y270113D01*
X332018Y269615D01*
X332281Y269176D01*
X332574Y268795D01*
X332896Y268502D01*
X333102Y268385D01*
X333307Y268297D01*
X333512Y268268D01*
X333746Y268239D01*
X333863D01*
X333980Y268268D01*
X334127Y268326D01*
X334332Y268414D01*
X334537Y268561D01*
X334771Y268766D01*
X335005Y269000D01*
X335210Y269322D01*
X335444Y269732D01*
X335649Y270230D01*
X335854Y270816D01*
X336001Y271518D01*
X336059Y271929D01*
X336118Y272339D01*
X336176Y272807D01*
X336206Y273276D01*
X336235Y273803D01*
Y274359D01*
Y274389D01*
Y274418D01*
Y274506D01*
Y274623D01*
X336206Y274916D01*
Y275326D01*
X336147Y275794D01*
X336118Y276292D01*
X336030Y276849D01*
X335942Y277434D01*
X335796Y278020D01*
X335649Y278577D01*
X335444Y279074D01*
X335210Y279543D01*
X334947Y279953D01*
X334595Y280246D01*
X334419Y280363D01*
X334244Y280451D01*
X334039Y280480D01*
X333804Y280509D01*
D02*
G37*
G36*
X245565Y275619D02*
X245331D01*
X245067Y275560D01*
X244774Y275501D01*
X244423Y275384D01*
X244042Y275209D01*
X243691Y274974D01*
X243369Y274652D01*
X243339Y274594D01*
X243251Y274476D01*
X243105Y274242D01*
X242988Y273949D01*
X242841Y273568D01*
X242695Y273100D01*
X242607Y272544D01*
X242578Y271929D01*
Y271899D01*
Y271782D01*
X242607Y271577D01*
X242636Y271343D01*
X242666Y271079D01*
X242724Y270757D01*
X242841Y270435D01*
X242959Y270084D01*
X243105Y269732D01*
X243310Y269410D01*
X243544Y269088D01*
X243837Y268824D01*
X244189Y268590D01*
X244569Y268385D01*
X245038Y268268D01*
X245565Y268239D01*
X245682D01*
X245829Y268268D01*
X246034Y268297D01*
X246239Y268356D01*
X246473Y268444D01*
X246737Y268561D01*
X247029Y268707D01*
X247293Y268912D01*
X247556Y269176D01*
X247791Y269468D01*
X248025Y269820D01*
X248201Y270259D01*
X248347Y270757D01*
X248435Y271343D01*
X248464Y272016D01*
Y272046D01*
Y272163D01*
X248435Y272339D01*
X248406Y272573D01*
X248377Y272866D01*
X248318Y273158D01*
X248230Y273481D01*
X248113Y273832D01*
X247937Y274154D01*
X247761Y274476D01*
X247527Y274799D01*
X247234Y275062D01*
X246912Y275296D01*
X246532Y275472D01*
X246063Y275589D01*
X245565Y275619D01*
D02*
G37*
G36*
X230629Y275618D02*
X230395D01*
X230131Y275560D01*
X229838Y275501D01*
X229487Y275384D01*
X229106Y275208D01*
X228755Y274974D01*
X228433Y274652D01*
X228403Y274594D01*
X228316Y274476D01*
X228169Y274242D01*
X228052Y273949D01*
X227906Y273568D01*
X227759Y273100D01*
X227671Y272544D01*
X227642Y271929D01*
Y271899D01*
Y271782D01*
X227671Y271577D01*
X227701Y271343D01*
X227730Y271079D01*
X227788Y270757D01*
X227906Y270435D01*
X228023Y270084D01*
X228169Y269732D01*
X228374Y269410D01*
X228608Y269088D01*
X228901Y268824D01*
X229253Y268590D01*
X229633Y268385D01*
X230102Y268268D01*
X230629Y268238D01*
X230746D01*
X230893Y268268D01*
X231098Y268297D01*
X231303Y268356D01*
X231537Y268443D01*
X231800Y268561D01*
X232093Y268707D01*
X232357Y268912D01*
X232621Y269176D01*
X232855Y269468D01*
X233089Y269820D01*
X233265Y270259D01*
X233411Y270757D01*
X233499Y271343D01*
X233528Y272016D01*
Y272046D01*
Y272163D01*
X233499Y272339D01*
X233470Y272573D01*
X233441Y272866D01*
X233382Y273158D01*
X233294Y273481D01*
X233177Y273832D01*
X233001Y274154D01*
X232826Y274476D01*
X232591Y274799D01*
X232298Y275062D01*
X231976Y275296D01*
X231595Y275472D01*
X231127Y275589D01*
X230629Y275618D01*
D02*
G37*
G36*
X182746Y275911D02*
X182600D01*
X182424Y275882D01*
X182190Y275824D01*
X181955Y275736D01*
X181663Y275589D01*
X181399Y275413D01*
X181106Y275150D01*
X181077Y275121D01*
X180989Y275004D01*
X180872Y274857D01*
X180725Y274623D01*
X180579Y274330D01*
X180432Y274008D01*
X180315Y273598D01*
X180228Y273158D01*
X184972D01*
Y273188D01*
Y273276D01*
Y273422D01*
X184943Y273598D01*
X184913Y273803D01*
X184855Y274037D01*
X184708Y274535D01*
X184591Y274799D01*
X184415Y275033D01*
X184240Y275267D01*
X184035Y275472D01*
X183771Y275648D01*
X183478Y275794D01*
X183127Y275882D01*
X182746Y275911D01*
D02*
G37*
G36*
X356443Y252799D02*
X356325D01*
Y252770D01*
Y252682D01*
X356296Y252535D01*
X356267Y252360D01*
X356238Y252125D01*
X356179Y251891D01*
X356033Y251364D01*
X354070Y245360D01*
X358668D01*
X356706Y251305D01*
Y251334D01*
X356677Y251422D01*
X356648Y251539D01*
X356618Y251715D01*
X356560Y251920D01*
X356530Y252184D01*
X356472Y252477D01*
X356443Y252799D01*
D02*
G37*
G36*
X457509Y248406D02*
X457275D01*
X457011Y248347D01*
X456718Y248289D01*
X456367Y248172D01*
X455986Y247996D01*
X455635Y247762D01*
X455313Y247439D01*
X455284Y247381D01*
X455196Y247264D01*
X455049Y247029D01*
X454932Y246737D01*
X454786Y246356D01*
X454639Y245887D01*
X454551Y245331D01*
X454522Y244716D01*
Y244687D01*
Y244569D01*
X454551Y244364D01*
X454581Y244130D01*
X454610Y243867D01*
X454669Y243544D01*
X454786Y243222D01*
X454903Y242871D01*
X455049Y242519D01*
X455254Y242197D01*
X455489Y241875D01*
X455781Y241611D01*
X456133Y241377D01*
X456513Y241172D01*
X456982Y241055D01*
X457509Y241026D01*
X457626D01*
X457773Y241055D01*
X457978Y241084D01*
X458183Y241143D01*
X458417Y241231D01*
X458681Y241348D01*
X458974Y241494D01*
X459237Y241699D01*
X459501Y241963D01*
X459735Y242256D01*
X459969Y242607D01*
X460145Y243046D01*
X460291Y243544D01*
X460379Y244130D01*
X460409Y244804D01*
Y244833D01*
Y244950D01*
X460379Y245126D01*
X460350Y245360D01*
X460321Y245653D01*
X460262Y245946D01*
X460174Y246268D01*
X460057Y246619D01*
X459882Y246942D01*
X459706Y247264D01*
X459471Y247586D01*
X459179Y247849D01*
X458856Y248084D01*
X458476Y248259D01*
X458007Y248377D01*
X457509Y248406D01*
D02*
G37*
G36*
X408806D02*
X408572D01*
X408308Y248347D01*
X408016Y248289D01*
X407664Y248172D01*
X407283Y247996D01*
X406932Y247762D01*
X406610Y247439D01*
X406581Y247381D01*
X406493Y247264D01*
X406346Y247029D01*
X406229Y246737D01*
X406083Y246356D01*
X405936Y245887D01*
X405848Y245331D01*
X405819Y244716D01*
Y244687D01*
Y244569D01*
X405848Y244364D01*
X405878Y244130D01*
X405907Y243867D01*
X405966Y243544D01*
X406083Y243222D01*
X406200Y242871D01*
X406346Y242519D01*
X406551Y242197D01*
X406786Y241875D01*
X407078Y241611D01*
X407430Y241377D01*
X407811Y241172D01*
X408279Y241055D01*
X408806Y241026D01*
X408923D01*
X409070Y241055D01*
X409275Y241084D01*
X409480Y241143D01*
X409714Y241231D01*
X409978Y241348D01*
X410271Y241494D01*
X410534Y241699D01*
X410798Y241963D01*
X411032Y242256D01*
X411266Y242607D01*
X411442Y243046D01*
X411589Y243544D01*
X411676Y244130D01*
X411706Y244804D01*
Y244833D01*
Y244950D01*
X411676Y245126D01*
X411647Y245360D01*
X411618Y245653D01*
X411559Y245946D01*
X411471Y246268D01*
X411354Y246619D01*
X411179Y246942D01*
X411003Y247264D01*
X410769Y247586D01*
X410476Y247849D01*
X410154Y248084D01*
X409773Y248259D01*
X409304Y248377D01*
X408806Y248406D01*
D02*
G37*
G36*
X321529Y68392D02*
X319877D01*
Y63370D01*
X321529D01*
X321637Y63391D01*
X321744D01*
X321894Y63413D01*
X322238Y63456D01*
X322603Y63542D01*
X322967Y63649D01*
X323332Y63821D01*
X323654Y64035D01*
X323697Y64057D01*
X323783Y64164D01*
X323890Y64314D01*
X324040Y64529D01*
X324191Y64787D01*
X324298Y65130D01*
X324384Y65516D01*
X324427Y65946D01*
Y65967D01*
Y66053D01*
X324405Y66182D01*
X324384Y66332D01*
X324341Y66504D01*
X324277Y66718D01*
X324191Y66933D01*
X324062Y67169D01*
X323912Y67405D01*
X323719Y67620D01*
X323483Y67834D01*
X323203Y68006D01*
X322882Y68178D01*
X322495Y68285D01*
X322044Y68371D01*
X321529Y68392D01*
D02*
G37*
G36*
X575510Y19332D02*
X575393D01*
X575276Y19313D01*
X575120Y19274D01*
X574963Y19216D01*
X574768Y19138D01*
X574593Y19020D01*
X574437Y18864D01*
X574417Y18845D01*
X574378Y18786D01*
X574320Y18669D01*
X574242Y18533D01*
X574164Y18377D01*
X574105Y18162D01*
X574066Y17928D01*
X574047Y17674D01*
Y17635D01*
Y17538D01*
X574066Y17382D01*
X574105Y17187D01*
X574144Y16972D01*
X574222Y16738D01*
X574320Y16504D01*
X574456Y16289D01*
X574476Y16270D01*
X574534Y16211D01*
X574612Y16114D01*
X574749Y16016D01*
X574905Y15899D01*
X575080Y15821D01*
X575295Y15743D01*
X575529Y15724D01*
X575646D01*
X575763Y15743D01*
X575900Y15782D01*
X576056Y15841D01*
X576231Y15938D01*
X576407Y16055D01*
X576563Y16231D01*
X576583Y16250D01*
X576622Y16328D01*
X576680Y16426D01*
X576758Y16582D01*
X576836Y16777D01*
X576895Y17011D01*
X576934Y17265D01*
X576953Y17557D01*
Y17577D01*
Y17635D01*
Y17714D01*
X576934Y17830D01*
X576914Y17967D01*
X576875Y18123D01*
X576778Y18455D01*
X576700Y18611D01*
X576602Y18767D01*
X576485Y18923D01*
X576348Y19059D01*
X576173Y19176D01*
X575978Y19254D01*
X575763Y19313D01*
X575510Y19332D01*
D02*
G37*
G36*
X605434Y20249D02*
X605317D01*
X605161Y20230D01*
X605005Y20171D01*
X604809Y20113D01*
X604595Y20015D01*
X604400Y19879D01*
X604205Y19684D01*
X604185Y19664D01*
X604127Y19586D01*
X604049Y19450D01*
X603971Y19294D01*
X603893Y19059D01*
X603815Y18806D01*
X603756Y18513D01*
X603737Y18182D01*
Y17557D01*
Y17518D01*
Y17421D01*
X603756Y17265D01*
X603795Y17089D01*
X603834Y16875D01*
X603912Y16660D01*
X604029Y16426D01*
X604166Y16231D01*
X604185Y16211D01*
X604244Y16153D01*
X604341Y16075D01*
X604478Y15977D01*
X604634Y15880D01*
X604829Y15802D01*
X605044Y15743D01*
X605297Y15724D01*
X605336D01*
X605434Y15743D01*
X605590Y15763D01*
X605765Y15802D01*
X605960Y15880D01*
X606175Y15997D01*
X606390Y16133D01*
X606565Y16348D01*
X606585Y16387D01*
X606643Y16465D01*
X606721Y16621D01*
X606799Y16816D01*
X606877Y17070D01*
X606955Y17401D01*
X607014Y17752D01*
X607033Y18182D01*
Y18201D01*
Y18279D01*
X607014Y18377D01*
Y18513D01*
X606994Y18669D01*
X606955Y18845D01*
X606838Y19216D01*
X606741Y19411D01*
X606643Y19586D01*
X606507Y19762D01*
X606351Y19918D01*
X606175Y20054D01*
X605960Y20152D01*
X605707Y20230D01*
X605434Y20249D01*
D02*
G37*
G36*
X560001Y22629D02*
X559963D01*
Y22610D01*
X559943Y22571D01*
X559904Y22512D01*
X559865Y22415D01*
X559806Y22298D01*
X559728Y22161D01*
X559650Y21985D01*
X559533Y21771D01*
X557192Y18123D01*
X559982D01*
Y21576D01*
Y21595D01*
Y21654D01*
Y21751D01*
Y21888D01*
Y22044D01*
Y22220D01*
X560001Y22629D01*
D02*
G37*
G36*
X626677Y20249D02*
X626540D01*
X626385Y20210D01*
X626189Y20171D01*
X625975Y20093D01*
X625741Y19996D01*
X625526Y19840D01*
X625331Y19645D01*
X625312Y19625D01*
X625253Y19528D01*
X625175Y19411D01*
X625097Y19216D01*
X625019Y18981D01*
X624941Y18708D01*
X624882Y18357D01*
X624863Y17987D01*
Y17967D01*
Y17889D01*
X624882Y17772D01*
X624902Y17635D01*
X624921Y17460D01*
X624960Y17265D01*
X625019Y17070D01*
X625097Y16855D01*
X625195Y16641D01*
X625312Y16445D01*
X625468Y16250D01*
X625643Y16075D01*
X625838Y15938D01*
X626092Y15821D01*
X626365Y15743D01*
X626697Y15724D01*
X626775D01*
X626853Y15743D01*
X626970Y15763D01*
X627106Y15802D01*
X627243Y15841D01*
X627399Y15919D01*
X627574Y16016D01*
X627730Y16133D01*
X627887Y16289D01*
X628023Y16485D01*
X628160Y16699D01*
X628277Y16972D01*
X628355Y17284D01*
X628413Y17635D01*
X628433Y18045D01*
Y18065D01*
Y18143D01*
X628413Y18240D01*
Y18396D01*
X628374Y18552D01*
X628335Y18747D01*
X628277Y18942D01*
X628218Y19157D01*
X628121Y19352D01*
X628004Y19547D01*
X627867Y19742D01*
X627691Y19898D01*
X627496Y20054D01*
X627262Y20152D01*
X626989Y20230D01*
X626677Y20249D01*
D02*
G37*
G36*
X116316Y64379D02*
X116187D01*
X116101Y64357D01*
X115887Y64336D01*
X115586Y64271D01*
X115264Y64143D01*
X114942Y63971D01*
X114620Y63756D01*
X114470Y63606D01*
X114320Y63434D01*
X114298Y63391D01*
X114213Y63263D01*
X114084Y63048D01*
X113955Y62769D01*
X113826Y62383D01*
X113697Y61954D01*
X113611Y61438D01*
X113590Y60859D01*
Y60837D01*
Y60795D01*
Y60709D01*
X113611Y60601D01*
Y60494D01*
X113633Y60344D01*
X113676Y60000D01*
X113762Y59614D01*
X113890Y59228D01*
X114041Y58841D01*
X114277Y58477D01*
X114320Y58433D01*
X114406Y58348D01*
X114556Y58197D01*
X114770Y58047D01*
X115049Y57875D01*
X115372Y57725D01*
X115736Y57639D01*
X116166Y57597D01*
X116273D01*
X116359Y57618D01*
X116573Y57639D01*
X116831Y57704D01*
X117131Y57811D01*
X117432Y57961D01*
X117754Y58176D01*
X118033Y58455D01*
X118076Y58498D01*
X118162Y58605D01*
X118269Y58798D01*
X118419Y59035D01*
X118548Y59356D01*
X118677Y59721D01*
X118763Y60129D01*
X118784Y60580D01*
Y61846D01*
Y61868D01*
Y61889D01*
Y62018D01*
X118741Y62232D01*
X118698Y62469D01*
X118612Y62769D01*
X118484Y63070D01*
X118290Y63370D01*
X118054Y63649D01*
X118033Y63671D01*
X117926Y63756D01*
X117775Y63885D01*
X117582Y64014D01*
X117325Y64143D01*
X117024Y64271D01*
X116681Y64357D01*
X116316Y64379D01*
D02*
G37*
G36*
X108332Y61009D02*
X106228Y60730D01*
X106185D01*
X106056Y60709D01*
X105863Y60666D01*
X105627Y60601D01*
X105370Y60537D01*
X105112Y60430D01*
X104876Y60322D01*
X104683Y60172D01*
X104661Y60151D01*
X104619Y60108D01*
X104554Y60000D01*
X104490Y59872D01*
X104404Y59721D01*
X104340Y59528D01*
X104297Y59292D01*
X104275Y59035D01*
Y59013D01*
Y58927D01*
X104297Y58820D01*
X104340Y58670D01*
X104382Y58498D01*
X104468Y58326D01*
X104576Y58155D01*
X104726Y57983D01*
X104747Y57961D01*
X104812Y57918D01*
X104919Y57854D01*
X105048Y57790D01*
X105241Y57704D01*
X105434Y57639D01*
X105692Y57597D01*
X105949Y57575D01*
X105992D01*
X106121Y57597D01*
X106314Y57618D01*
X106550Y57661D01*
X106808Y57747D01*
X107108Y57875D01*
X107387Y58069D01*
X107645Y58305D01*
X107666Y58348D01*
X107752Y58433D01*
X107859Y58605D01*
X107988Y58820D01*
X108117Y59077D01*
X108224Y59399D01*
X108310Y59743D01*
X108332Y60151D01*
Y61009D01*
D02*
G37*
G36*
X96248Y67663D02*
X94295D01*
Y63220D01*
X96312D01*
X96398Y63241D01*
X96591Y63263D01*
X96849Y63306D01*
X97128Y63370D01*
X97428Y63499D01*
X97729Y63649D01*
X98008Y63864D01*
X98029Y63885D01*
X98115Y63993D01*
X98223Y64121D01*
X98373Y64314D01*
X98502Y64572D01*
X98609Y64851D01*
X98695Y65194D01*
X98716Y65581D01*
Y65602D01*
Y65624D01*
Y65752D01*
X98673Y65924D01*
X98630Y66139D01*
X98566Y66396D01*
X98437Y66632D01*
X98287Y66890D01*
X98072Y67105D01*
X98051Y67126D01*
X97965Y67190D01*
X97815Y67276D01*
X97622Y67384D01*
X97364Y67491D01*
X97042Y67577D01*
X96677Y67641D01*
X96248Y67663D01*
D02*
G37*
G36*
X131555Y64379D02*
X131426D01*
X131340Y64357D01*
X131104Y64336D01*
X130803Y64271D01*
X130460Y64164D01*
X130117Y63993D01*
X129773Y63756D01*
X129601Y63628D01*
X129451Y63456D01*
X129408Y63413D01*
X129322Y63284D01*
X129215Y63091D01*
X129065Y62790D01*
X128915Y62447D01*
X128807Y62018D01*
X128722Y61503D01*
X128679Y60945D01*
Y60923D01*
Y60880D01*
Y60795D01*
X128700Y60687D01*
Y60558D01*
X128722Y60408D01*
X128786Y60043D01*
X128872Y59657D01*
X129001Y59249D01*
X129194Y58841D01*
X129451Y58477D01*
X129494Y58433D01*
X129601Y58348D01*
X129773Y58197D01*
X130009Y58047D01*
X130310Y57875D01*
X130675Y57725D01*
X131082Y57639D01*
X131555Y57597D01*
X131683D01*
X131791Y57618D01*
X132027Y57639D01*
X132327Y57704D01*
X132671Y57811D01*
X133014Y57961D01*
X133336Y58176D01*
X133637Y58477D01*
X133658Y58519D01*
X133744Y58648D01*
X133873Y58841D01*
X134001Y59120D01*
X134130Y59485D01*
X134259Y59914D01*
X134345Y60408D01*
X134366Y60988D01*
Y61009D01*
Y61052D01*
Y61138D01*
Y61267D01*
X134345Y61395D01*
X134323Y61546D01*
X134280Y61911D01*
X134194Y62318D01*
X134066Y62726D01*
X133873Y63134D01*
X133637Y63499D01*
X133594Y63542D01*
X133508Y63628D01*
X133336Y63778D01*
X133121Y63949D01*
X132821Y64100D01*
X132456Y64250D01*
X132048Y64336D01*
X131555Y64379D01*
D02*
G37*
G36*
X80859D02*
X80730D01*
X80644Y64357D01*
X80408Y64336D01*
X80108Y64271D01*
X79764Y64164D01*
X79421Y63993D01*
X79078Y63756D01*
X78906Y63628D01*
X78756Y63456D01*
X78713Y63413D01*
X78627Y63284D01*
X78520Y63091D01*
X78369Y62790D01*
X78219Y62447D01*
X78112Y62018D01*
X78026Y61503D01*
X77983Y60945D01*
Y60923D01*
Y60880D01*
Y60795D01*
X78004Y60687D01*
Y60558D01*
X78026Y60408D01*
X78090Y60043D01*
X78176Y59657D01*
X78305Y59249D01*
X78498Y58841D01*
X78756Y58477D01*
X78798Y58433D01*
X78906Y58348D01*
X79078Y58197D01*
X79314Y58047D01*
X79614Y57875D01*
X79979Y57725D01*
X80387Y57639D01*
X80859Y57597D01*
X80988D01*
X81095Y57618D01*
X81331Y57639D01*
X81632Y57704D01*
X81975Y57811D01*
X82318Y57961D01*
X82640Y58176D01*
X82941Y58477D01*
X82962Y58519D01*
X83048Y58648D01*
X83177Y58841D01*
X83306Y59120D01*
X83434Y59485D01*
X83563Y59914D01*
X83649Y60408D01*
X83671Y60988D01*
Y61009D01*
Y61052D01*
Y61138D01*
Y61267D01*
X83649Y61395D01*
X83628Y61546D01*
X83585Y61911D01*
X83499Y62318D01*
X83370Y62726D01*
X83177Y63134D01*
X82941Y63499D01*
X82898Y63542D01*
X82812Y63628D01*
X82640Y63778D01*
X82426Y63949D01*
X82125Y64100D01*
X81760Y64250D01*
X81353Y64336D01*
X80859Y64379D01*
D02*
G37*
G36*
X232931Y161782D02*
X231279D01*
Y156760D01*
X232931D01*
X233039Y156781D01*
X233146D01*
X233296Y156803D01*
X233640Y156846D01*
X234004Y156931D01*
X234369Y157039D01*
X234734Y157211D01*
X235056Y157425D01*
X235099Y157447D01*
X235185Y157554D01*
X235292Y157704D01*
X235442Y157919D01*
X235593Y158176D01*
X235700Y158520D01*
X235786Y158906D01*
X235829Y159335D01*
Y159357D01*
Y159443D01*
X235807Y159571D01*
X235786Y159722D01*
X235743Y159893D01*
X235679Y160108D01*
X235593Y160323D01*
X235464Y160559D01*
X235314Y160795D01*
X235120Y161009D01*
X234884Y161224D01*
X234605Y161396D01*
X234283Y161567D01*
X233897Y161675D01*
X233446Y161761D01*
X232931Y161782D01*
D02*
G37*
G36*
X469805Y209207D02*
X468604D01*
Y205150D01*
X469891D01*
X469999Y205172D01*
X470149Y205193D01*
X470342Y205215D01*
X470535Y205258D01*
X470750Y205322D01*
X470964Y205408D01*
X471179Y205515D01*
X471394Y205644D01*
X471608Y205816D01*
X471780Y206030D01*
X471930Y206266D01*
X472038Y206524D01*
X472123Y206846D01*
X472145Y207211D01*
Y207232D01*
Y207297D01*
X472123Y207404D01*
X472102Y207533D01*
X472080Y207683D01*
X472016Y207833D01*
X471952Y208026D01*
X471844Y208219D01*
X471737Y208391D01*
X471565Y208584D01*
X471394Y208735D01*
X471158Y208906D01*
X470900Y209014D01*
X470578Y209121D01*
X470213Y209185D01*
X469805Y209207D01*
D02*
G37*
G36*
X495969Y209185D02*
X495818D01*
X495711Y209164D01*
X495582Y209142D01*
X495432Y209121D01*
X495067Y209035D01*
X494681Y208906D01*
X494252Y208692D01*
X494059Y208563D01*
X493844Y208391D01*
X493651Y208219D01*
X493479Y208005D01*
Y207983D01*
X493436Y207962D01*
X493393Y207876D01*
X493329Y207790D01*
X493264Y207683D01*
X493200Y207533D01*
X493114Y207382D01*
X493028Y207189D01*
X492943Y206996D01*
X492857Y206760D01*
X492728Y206245D01*
X492621Y205644D01*
X492578Y204979D01*
Y204957D01*
Y204893D01*
Y204807D01*
X492599Y204678D01*
Y204506D01*
X492621Y204335D01*
X492685Y203905D01*
X492792Y203433D01*
X492943Y202939D01*
X493157Y202446D01*
X493458Y201974D01*
X493479Y201952D01*
X493501Y201931D01*
X493629Y201802D01*
X493823Y201609D01*
X494101Y201394D01*
X494445Y201180D01*
X494874Y200986D01*
X495346Y200858D01*
X495625Y200836D01*
X495904Y200815D01*
X496055D01*
X496162Y200836D01*
X496291Y200858D01*
X496441Y200879D01*
X496806Y200965D01*
X497192Y201094D01*
X497600Y201287D01*
X497793Y201416D01*
X497986Y201566D01*
X498180Y201738D01*
X498351Y201931D01*
Y201952D01*
X498394Y201974D01*
X498437Y202038D01*
X498480Y202145D01*
X498566Y202253D01*
X498630Y202381D01*
X498716Y202553D01*
X498802Y202725D01*
X498866Y202939D01*
X498952Y203154D01*
X499102Y203669D01*
X499188Y204270D01*
X499231Y204936D01*
Y204957D01*
Y205021D01*
Y205129D01*
X499210Y205258D01*
Y205429D01*
X499188Y205622D01*
X499124Y206052D01*
X499016Y206545D01*
X498866Y207060D01*
X498652Y207576D01*
X498373Y208026D01*
Y208048D01*
X498330Y208069D01*
X498222Y208198D01*
X498029Y208391D01*
X497750Y208606D01*
X497407Y208820D01*
X496999Y209014D01*
X496527Y209142D01*
X496248Y209164D01*
X495969Y209185D01*
D02*
G37*
G36*
X487266Y84121D02*
X487180D01*
Y84099D01*
Y84035D01*
X487158Y83928D01*
X487137Y83799D01*
X487115Y83627D01*
X487072Y83455D01*
X486965Y83069D01*
X485527Y78669D01*
X488897D01*
X487459Y83026D01*
Y83048D01*
X487437Y83112D01*
X487416Y83198D01*
X487394Y83327D01*
X487351Y83477D01*
X487330Y83670D01*
X487287Y83885D01*
X487266Y84121D01*
D02*
G37*
G36*
X439103Y84099D02*
X437643D01*
Y75901D01*
X439317D01*
X439446Y75922D01*
X439596Y75943D01*
X439789Y75965D01*
X440219Y76051D01*
X440691Y76180D01*
X441185Y76373D01*
X441442Y76501D01*
X441678Y76673D01*
X441893Y76845D01*
X442107Y77038D01*
X442129Y77060D01*
X442150Y77081D01*
X442215Y77167D01*
X442279Y77253D01*
X442365Y77360D01*
X442451Y77510D01*
X442558Y77660D01*
X442665Y77854D01*
X442751Y78047D01*
X442859Y78283D01*
X442944Y78541D01*
X443030Y78819D01*
X443159Y79420D01*
X443181Y79764D01*
X443202Y80107D01*
Y80129D01*
Y80193D01*
Y80279D01*
X443181Y80429D01*
X443159Y80580D01*
X443138Y80751D01*
X443052Y81180D01*
X442923Y81653D01*
X442730Y82146D01*
X442601Y82382D01*
X442451Y82619D01*
X442258Y82833D01*
X442065Y83048D01*
X442043Y83069D01*
X442021Y83091D01*
X441957Y83155D01*
X441850Y83219D01*
X441743Y83284D01*
X441614Y83391D01*
X441442Y83477D01*
X441270Y83584D01*
X440841Y83778D01*
X440326Y83928D01*
X439747Y84057D01*
X439446Y84078D01*
X439103Y84099D01*
D02*
G37*
G36*
X513579Y84743D02*
X513472D01*
X513365Y84722D01*
X513236Y84700D01*
X513064Y84657D01*
X512892Y84593D01*
X512742Y84507D01*
X512570Y84378D01*
X512549Y84357D01*
X512506Y84314D01*
X512442Y84250D01*
X512377Y84142D01*
X512313Y84014D01*
X512248Y83885D01*
X512206Y83713D01*
X512184Y83541D01*
Y83498D01*
X512206Y83370D01*
X512248Y83198D01*
X512334Y82962D01*
X512463Y82704D01*
X512656Y82447D01*
X512785Y82297D01*
X512935Y82168D01*
X513107Y82039D01*
X513300Y81910D01*
X513322D01*
X513365Y81932D01*
X513450Y81975D01*
X513536Y82017D01*
X513772Y82146D01*
X514073Y82339D01*
X514352Y82576D01*
X514588Y82855D01*
X514674Y83026D01*
X514760Y83198D01*
X514803Y83391D01*
X514824Y83584D01*
Y83606D01*
Y83670D01*
X514803Y83756D01*
X514781Y83885D01*
X514738Y84014D01*
X514652Y84164D01*
X514566Y84293D01*
X514438Y84421D01*
X514416Y84443D01*
X514373Y84464D01*
X514287Y84529D01*
X514202Y84593D01*
X514073Y84636D01*
X513923Y84700D01*
X513751Y84722D01*
X513579Y84743D01*
D02*
G37*
G36*
X512871Y79893D02*
X512849D01*
X512785Y79850D01*
X512699Y79807D01*
X512570Y79721D01*
X512442Y79635D01*
X512270Y79528D01*
X511926Y79249D01*
X511583Y78905D01*
X511411Y78691D01*
X511283Y78476D01*
X511154Y78240D01*
X511068Y77983D01*
X511004Y77725D01*
X510982Y77425D01*
Y77382D01*
Y77274D01*
X511004Y77124D01*
X511047Y76931D01*
X511132Y76716D01*
X511218Y76480D01*
X511368Y76244D01*
X511562Y76029D01*
X511583Y76008D01*
X511669Y75943D01*
X511798Y75858D01*
X511991Y75772D01*
X512206Y75665D01*
X512485Y75579D01*
X512807Y75514D01*
X513150Y75493D01*
X513322D01*
X513450Y75514D01*
X513622Y75536D01*
X513794Y75557D01*
X514008Y75600D01*
X514244Y75665D01*
X514738Y75815D01*
X515017Y75922D01*
X515296Y76029D01*
X515575Y76180D01*
X515876Y76351D01*
X516155Y76544D01*
X516434Y76781D01*
X516412Y76802D01*
X516369Y76888D01*
X516283Y76995D01*
X516176Y77145D01*
X516047Y77317D01*
X515876Y77532D01*
X515683Y77768D01*
X515468Y78004D01*
X515210Y78261D01*
X514953Y78519D01*
X514652Y78777D01*
X514330Y79034D01*
X513644Y79506D01*
X513257Y79721D01*
X512871Y79893D01*
D02*
G37*
%LPD*%
D10*
X747990Y275100D02*
G03*
X733105Y289985I-14885J0D01*
G01*
X733100Y15D02*
G03*
X747985Y14900I0J14885D01*
G01*
X45Y14885D02*
G03*
X14930Y0I14885J0D01*
G01*
X14920Y290080D02*
G03*
X35Y275195I0J-14885D01*
G01*
X0Y14890D02*
Y275000D01*
X14930Y-2D02*
X733100D01*
X748000Y14900D02*
Y275000D01*
X14920Y289998D02*
X733100Y289998D01*
M02*
