M48
;Layer_Color=9474304
;FILE_FORMAT=4:4
METRIC,LZ
T2F00S00C0.2540
%
G90
G05
T02
G00X00643809Y00078309
M15
G01X00651155Y0007977
G01X00658322Y00081945
G01X00665242Y00084811
G01X00671847Y00088342
G01X00678075Y00092502
G01X00683865Y00097254
G01X00689161Y0010255
G01X00693912Y0010834
G01X00698073Y00114568
G01X00701604Y00121173
G01X0070447Y00128093
G01X00706645Y0013526
G01X00708106Y00142606
G01X0070884Y0015006
G01X0070884Y0015755
G01X00708106Y00165004
G01X00706645Y0017235
G01X0070447Y00179517
G01X00701604Y00186437
G01X00698073Y00193042
G01X00693912Y0019927
G01X00689161Y0020506
G01X00683865Y00210356
G01X00678075Y00215108
G01X00671847Y00219268
G01X00665242Y00222799
G01X00658322Y00225665
G01X00651155Y0022784
G01X00643809Y00229301
G01X00636355Y00230035
G01X00628865Y00230035
G01X00621411Y00229301
G01X00614065Y0022784
G01X00606898Y00225665
G01X00599978Y00222799
G01X00593372Y00219268
G01X00587145Y00215108
G01X00581355Y00210356
G01X00576059Y0020506
G01X00571307Y0019927
G01X00567147Y00193042
G01X00563616Y00186437
G01X0056075Y00179517
G01X00558575Y0017235
G01X00557114Y00165004
G01X0055638Y0015755
G01X0055638Y0015006
G01X00557114Y00142606
G01X00558575Y0013526
G01X0056075Y00128093
G01X00563616Y00121173
G01X00567147Y00114568
G01X00571307Y0010834
G01X00576059Y0010255
G01X00581355Y00097254
G01X00587145Y00092502
G01X00593372Y00088342
G01X00599978Y00084811
G01X00606898Y00081945
G01X00614065Y0007977
G01X00621411Y00078309
G01X00628865Y00077575
G01X00636355Y00077575
G01X00643809Y00078309
M16
G00X00501457Y00116727
M15
G01X00505095Y00117701
G01X00508574Y00119143
G01X00511836Y00121026
G01X00514824Y00123318
G01X00517487Y00125981
G01X00519779Y00128969
G01X00521662Y00132231
G01X00523104Y0013571
G01X00524078Y00139348
G01X0052457Y00143082
G01X0052457Y00146848
G01X00524078Y00150582
G01X00523104Y0015422
G01X00521662Y00157699
G01X00519779Y00160961
G01X00517487Y00163949
G01X00514824Y00166612
G01X00511836Y00168904
G01X00508574Y00170787
G01X00505095Y00172229
G01X00501457Y00173203
G01X00497723Y00173695
G01X00493957Y00173695
G01X00490223Y00173203
G01X00486585Y00172229
G01X00483106Y00170787
G01X00479844Y00168904
G01X00476856Y00166612
G01X00474193Y00163949
G01X00471901Y00160961
G01X00470018Y00157699
G01X00468576Y0015422
G01X00467602Y00150582
G01X0046711Y00146848
G01X0046711Y00143082
G01X00467602Y00139348
G01X00468576Y0013571
G01X00470018Y00132231
G01X00471901Y00128969
G01X00474193Y00125981
G01X00476856Y00123318
G01X00479844Y00121026
G01X00483106Y00119143
G01X00486585Y00117701
G01X00490223Y00116727
G01X00493957Y00116235
G01X00497723Y00116235
G01X00501457Y00116727
M16
G00X00249827Y00173719
M15
G01X00254034Y00174846
G01X00258059Y00176513
G01X00261831Y00178691
G01X00265287Y00181343
G01X00268367Y00184423
G01X00271019Y00187879
G01X00273197Y00191651
G01X00274864Y00195676
G01X00275991Y00199883
G01X0027656Y00204202
G01X0027656Y00208558
G01X00275991Y00212877
G01X00274864Y00217084
G01X00273197Y00221109
G01X00271019Y00224881
G01X00268367Y00228337
G01X00265287Y00231417
G01X00261831Y00234069
G01X00258059Y00236247
G01X00254034Y00237914
G01X00249827Y00239041
G01X00245508Y0023961
G01X00241152Y0023961
G01X00236833Y00239041
G01X00232626Y00237914
G01X00228601Y00236247
G01X00224829Y00234069
G01X00221373Y00231417
G01X00218293Y00228337
G01X00215641Y00224881
G01X00213463Y00221109
G01X00211796Y00217084
G01X00210669Y00212877
G01X002101Y00208558
G01X002101Y00204202
G01X00210669Y00199883
G01X00211796Y00195676
G01X00213463Y00191651
G01X00215641Y00187879
G01X00218293Y00184423
G01X00221373Y00181343
G01X00224829Y00178691
G01X00228601Y00176513
G01X00232626Y00174846
G01X00236833Y00173719
G01X00241152Y0017315
G01X00245508Y0017315
G01X00249827Y00173719
M16
G00X00356594Y00111792
M15
G01X00360865Y00112936
G01X0036495Y00114629
G01X0036878Y00116839
G01X00372288Y00119531
G01X00375414Y00122657
G01X00378106Y00126165
G01X00380316Y00129995
G01X00382008Y0013408
G01X00383153Y0013835
G01X0038373Y00142734
G01X0038373Y00147156
G01X00383153Y0015154
G01X00382008Y0015581
G01X00380316Y00159895
G01X00378106Y00163725
G01X00375414Y00167233
G01X00372288Y00170359
G01X0036878Y00173051
G01X0036495Y00175261
G01X00360865Y00176953
G01X00356594Y00178098
G01X00352211Y00178675
G01X00347789Y00178675
G01X00343405Y00178098
G01X00339135Y00176953
G01X0033505Y00175261
G01X0033122Y00173051
G01X00327712Y00170359
G01X00324586Y00167233
G01X00321894Y00163725
G01X00319684Y00159895
G01X00317991Y0015581
G01X00316847Y0015154
G01X0031627Y00147156
G01X0031627Y00142734
G01X00316847Y0013835
G01X00317991Y0013408
G01X00319684Y00129995
G01X00321894Y00126165
G01X00324586Y00122657
G01X00327712Y00119531
G01X0033122Y00116839
G01X0033505Y00114629
G01X00339135Y00112936
G01X00343405Y00111792
G01X00347789Y00111215
G01X00352211Y00111215
G01X00356594Y00111792
M16
G00X00249827Y00052399
M15
G01X00254034Y00053526
G01X00258059Y00055193
G01X00261831Y00057371
G01X00265287Y00060023
G01X00268367Y00063103
G01X00271019Y00066559
G01X00273197Y00070331
G01X00274864Y00074356
G01X00275991Y00078563
G01X0027656Y00082882
G01X0027656Y00087238
G01X00275991Y00091557
G01X00274864Y00095764
G01X00273197Y00099789
G01X00271019Y00103561
G01X00268367Y00107017
G01X00265287Y00110097
G01X00261831Y00112749
G01X00258059Y00114927
G01X00254034Y00116594
G01X00249827Y00117721
G01X00245508Y0011829
G01X00241152Y0011829
G01X00236833Y00117721
G01X00232626Y00116594
G01X00228601Y00114927
G01X00224829Y00112749
G01X00221373Y00110097
G01X00218293Y00107017
G01X00215641Y00103561
G01X00213463Y00099789
G01X00211796Y00095764
G01X00210669Y00091557
G01X002101Y00087238
G01X002101Y00082882
G01X00210669Y00078563
G01X00211796Y00074356
G01X00213463Y00070331
G01X00215641Y00066559
G01X00218293Y00063103
G01X00221373Y00060023
G01X00224829Y00057371
G01X00228601Y00055193
G01X00232626Y00053526
G01X00236833Y00052399
G01X00241152Y0005183
G01X00245508Y0005183
G01X00249827Y00052399
M16
G00X00109028Y00105403
M15
G01X00114122Y00106768
G01X00118994Y00108786
G01X00123561Y00111423
G01X00127745Y00114634
G01X00131474Y00118362
G01X00134685Y00122547
G01X00137322Y00127114
G01X0013934Y00131986
G01X00140705Y0013708
G01X00141393Y00142308
G01X00141393Y00147582
G01X00140705Y0015281
G01X0013934Y00157904
G01X00137322Y00162776
G01X00134685Y00167343
G01X00131474Y00171527
G01X00127745Y00175256
G01X00123561Y00178467
G01X00118994Y00181104
G01X00114122Y00183122
G01X00109028Y00184487
G01X001038Y00185175
G01X00098526Y00185175
G01X00093298Y00184487
G01X00088204Y00183122
G01X00083331Y00181104
G01X00078764Y00178467
G01X0007458Y00175256
G01X00070852Y00171527
G01X00067641Y00167343
G01X00065004Y00162776
G01X00062986Y00157904
G01X00061621Y0015281
G01X00060933Y00147582
G01X00060933Y00142308
G01X00061621Y0013708
G01X00062986Y00131986
G01X00065004Y00127114
G01X00067641Y00122547
G01X00070852Y00118362
G01X0007458Y00114634
G01X00078764Y00111423
G01X00083331Y00108786
G01X00088204Y00106768
G01X00093298Y00105403
G01X00098526Y00104715
G01X001038Y00104715
G01X00109028Y00105403
M16
G00X00014979Y-00001272
M15
G01X00733058Y-00001272
G01X00733224Y-00001321
G01X00736387Y-00000985
G01X00739422Y-00000039
G01X00742215Y00001482
G01X00744658Y00003518
G01X00746656Y00005992
G01X00748134Y00008808
G01X00749034Y00011858
G01X00749321Y00014776
G01X0074927Y00014914
G01X00749264Y00275012
G01X00749326Y00275224
G01X0074899Y00278387
G01X00748044Y00281423
G01X00746523Y00284215
G01X00744487Y00286658
G01X00742013Y00288656
G01X00739197Y00290134
G01X00736147Y00291034
G01X00733229Y00291321
G01X00733086Y00291268
G01X000153Y00291268
G01X00014796Y00291416
G01X00011633Y0029108
G01X00008597Y00290134
G01X00005805Y00288613
G01X00003362Y00286577
G01X00001364Y00284103
G01X-00000114Y00281288
G01X-00001014Y00278237
G01X-00001285Y00274958
G01X-0000127Y0027488
G01X-0000127Y0001489
G01X-00001265Y0001489
G01X-00001291Y00014761
G01X-00000955Y00011598
G01X-00000009Y00008563
G01X00001512Y0000577
G01X00003548Y00003327
G01X00006022Y00001329
G01X00008837Y-00000149
G01X00011888Y-00001049
G01X00014806Y-00001336
G01X00014979Y-00001272
M16
M17
M30
